<svg width="36" height="35" viewBox="0 0 36 35" fill="none" xmlns="http://www.w3.org/2000/svg">
<path d="M4.3448 34.799C4.28173 34.799 4.22036 34.7786 4.16973 34.741C4.11911 34.7034 4.08192 34.6505 4.06367 34.5902C4.04542 34.5298 4.04706 34.4652 4.06836 34.4058C4.08966 34.3464 4.12949 34.2955 4.18195 34.2605L8.24183 31.5486L2.68111 34.7579C2.6152 34.7938 2.53801 34.8032 2.46539 34.7841C2.39278 34.765 2.33023 34.7188 2.29059 34.655C2.25096 34.5912 2.23723 34.5147 2.25224 34.4411C2.26725 34.3675 2.30985 34.3025 2.37129 34.2593L8.06723 30.4664L1.17261 34.4486C1.10623 34.4864 1.02774 34.4969 0.95377 34.4778C0.879804 34.4587 0.816172 34.4116 0.776355 34.3464C0.736538 34.2812 0.723663 34.2031 0.740458 34.1286C0.757252 34.054 0.802398 33.989 0.86633 33.9472L6.06022 30.5845L0.7999 33.6215C0.733162 33.66 0.653983 33.6707 0.579404 33.6514C0.504824 33.6321 0.440805 33.5843 0.401124 33.5183C0.361443 33.4522 0.349272 33.3733 0.367229 33.2983C0.385187 33.2234 0.431838 33.1586 0.497143 33.1177L2.20199 32.0489L0.798136 32.8584C0.731618 32.8974 0.652446 32.9087 0.577685 32.8899C0.502923 32.871 0.438558 32.8236 0.39846 32.7577C0.358363 32.6918 0.345744 32.6129 0.363324 32.5378C0.380903 32.4627 0.427273 32.3976 0.49244 32.3564L5.50233 29.1319L0.799312 31.8479C0.733305 31.8829 0.656412 31.8916 0.584277 31.872C0.512142 31.8524 0.450185 31.806 0.411013 31.7423C0.37184 31.6787 0.358395 31.6025 0.373413 31.5293C0.38843 31.456 0.430783 31.3913 0.491852 31.3482L5.48881 28.109L0.798136 30.8191C0.73183 30.8541 0.65464 30.8625 0.582368 30.8425C0.510096 30.8224 0.448208 30.7756 0.409371 30.7114C0.370534 30.6473 0.357685 30.5707 0.373456 30.4974C0.389227 30.4241 0.432423 30.3595 0.494204 30.317L2.73872 28.892L0.798724 30.0119C0.732418 30.047 0.655228 30.0553 0.582956 30.0353C0.510684 30.0153 0.448796 29.9684 0.409959 29.9043C0.371121 29.8401 0.358273 29.7635 0.374044 29.6902C0.389814 29.6169 0.433011 29.5524 0.494792 29.5099L2.33485 28.3406L0.798136 29.2242C0.732275 29.2607 0.654927 29.2705 0.582042 29.2516C0.509156 29.2327 0.446291 29.1866 0.406408 29.1228C0.366525 29.0589 0.352666 28.9822 0.367689 28.9084C0.382712 28.8346 0.425471 28.7694 0.487149 28.7262L6.1631 24.9097L0.798136 28.0073C0.732274 28.0455 0.654147 28.0567 0.580212 28.0384C0.506276 28.0202 0.442303 27.974 0.401765 27.9095C0.361227 27.8451 0.347289 27.7674 0.362887 27.6928C0.378485 27.6183 0.422401 27.5527 0.485386 27.5099L6.09549 23.677L0.798136 26.7339C0.732325 26.7709 0.654795 26.7812 0.581619 26.7626C0.508442 26.744 0.445233 26.6979 0.405093 26.634C0.364953 26.57 0.350963 26.4931 0.366021 26.4191C0.381079 26.3451 0.424031 26.2798 0.485974 26.2366L4.57818 23.4495L0.798136 25.6317C0.732022 25.6686 0.654183 25.6787 0.580855 25.6596C0.507528 25.6406 0.444373 25.594 0.404565 25.5296C0.364757 25.4651 0.351369 25.3878 0.367194 25.3137C0.383019 25.2396 0.426834 25.1745 0.489501 25.132L1.6823 24.343L0.800488 24.8533C0.735307 24.8913 0.657999 24.9028 0.584573 24.8854C0.511146 24.868 0.447227 24.823 0.406051 24.7598C0.364875 24.6966 0.349597 24.6199 0.36338 24.5457C0.377164 24.4715 0.418954 24.4055 0.480095 24.3613L3.33776 22.2761L0.795785 23.7457C0.731597 23.7817 0.656259 23.7923 0.584651 23.7754C0.513042 23.7585 0.450372 23.7154 0.409017 23.6545C0.367662 23.5937 0.350631 23.5195 0.361287 23.4467C0.371944 23.3739 0.409513 23.3078 0.466574 23.2613L2.66347 21.5224L0.798136 22.5982C0.734535 22.633 0.660321 22.6431 0.589753 22.6265C0.519185 22.6099 0.457242 22.5678 0.415825 22.5083C0.374409 22.4488 0.356441 22.3761 0.365374 22.3041C0.374308 22.2322 0.409512 22.1661 0.464222 22.1185L1.4836 21.2784L0.798136 21.6741C0.735514 21.711 0.661438 21.7234 0.590213 21.7089C0.518988 21.6943 0.455666 21.654 0.412475 21.5955C0.369284 21.537 0.349287 21.4646 0.356347 21.3923C0.363407 21.3199 0.397022 21.2528 0.450701 21.2038L0.87456 20.8105L0.798136 20.854C0.738139 20.8887 0.66781 20.9011 0.599569 20.8889C0.531327 20.8768 0.469564 20.841 0.425186 20.7877C0.380809 20.7345 0.356671 20.6673 0.357037 20.598C0.357403 20.5287 0.382249 20.4617 0.427186 20.409L0.699961 20.0892C0.650575 20.067 0.608258 20.0317 0.577674 19.987C0.547091 19.9424 0.529427 19.8902 0.526631 19.8361C0.523834 19.7821 0.536013 19.7283 0.561825 19.6807C0.587637 19.6332 0.626081 19.5936 0.672919 19.5665L1.64821 19.0028C1.70813 18.9688 1.7781 18.9569 1.84588 18.9692C1.91367 18.9815 1.97497 19.0173 2.01908 19.0702C2.06319 19.1232 2.0873 19.1899 2.08721 19.2588C2.08711 19.3277 2.06282 19.3944 2.01857 19.4472L1.98153 19.4913L2.83101 19.0028C2.89364 18.9659 2.96771 18.9535 3.03894 18.968C3.11016 18.9825 3.17348 19.0229 3.21668 19.0813C3.25987 19.1398 3.27986 19.2122 3.2728 19.2845C3.26574 19.3569 3.23213 19.424 3.17845 19.4731L2.75459 19.8664L4.25132 19.0028C4.31513 18.9659 4.39043 18.9544 4.46233 18.9705C4.53422 18.9866 4.59746 19.029 4.63952 19.0895C4.68159 19.15 4.69941 19.224 4.68947 19.297C4.67953 19.37 4.64254 19.4366 4.58583 19.4836L3.56704 20.3208L5.85682 18.9992C5.921 18.9633 5.99634 18.9527 6.06795 18.9696C6.13956 18.9865 6.20223 19.0296 6.24358 19.0905C6.28494 19.1513 6.30197 19.2254 6.29131 19.2982C6.28066 19.371 6.24309 19.4372 6.18603 19.4836L3.98972 21.222L7.84208 18.9981C7.90726 18.96 7.98457 18.9485 8.05799 18.9659C8.13142 18.9833 8.19534 19.0283 8.23651 19.0916C8.27769 19.1548 8.29297 19.2314 8.27918 19.3056C8.2654 19.3798 8.22361 19.4459 8.16247 19.4901L5.29775 21.5771L9.76561 18.9975C9.83162 18.961 9.90911 18.9513 9.98206 18.9704C10.055 18.9895 10.1178 19.0359 10.1575 19.1C10.1972 19.1641 10.2108 19.241 10.1954 19.3148C10.18 19.3886 10.1369 19.4537 10.0748 19.4966L8.88321 20.2849L11.1171 18.9969C11.1829 18.9599 11.2605 18.9496 11.3337 18.9682C11.4068 18.9868 11.47 19.0329 11.5102 19.0968C11.5503 19.1608 11.5643 19.2377 11.5493 19.3117C11.5342 19.3857 11.4912 19.451 11.4293 19.4942L7.33533 22.2813L12.5086 19.2938C12.5744 19.2572 12.6516 19.2472 12.7244 19.2659C12.7973 19.2845 12.8602 19.3304 12.9002 19.394C12.9403 19.4577 12.9545 19.5342 12.9398 19.608C12.9251 19.6817 12.8828 19.7471 12.8214 19.7905L7.2107 23.6246L13.3164 20.0974C13.3822 20.0609 13.4596 20.0511 13.5325 20.07C13.6054 20.0888 13.6682 20.135 13.7081 20.1988C13.748 20.2627 13.7619 20.3394 13.7468 20.4132C13.7318 20.4869 13.689 20.5521 13.6274 20.5953L7.95083 24.4124L14.0959 20.8704C14.1624 20.8339 14.2404 20.8244 14.3137 20.8441C14.387 20.8638 14.4498 20.911 14.4891 20.9759C14.5283 21.0408 14.541 21.1184 14.5243 21.1924C14.5077 21.2665 14.4631 21.3312 14.3998 21.3731L12.5639 22.5394L14.5933 21.3678C14.6598 21.3298 14.7386 21.3192 14.8128 21.3384C14.887 21.3577 14.9508 21.4051 14.9905 21.4707C15.0302 21.5362 15.0428 21.6147 15.0254 21.6894C15.0081 21.7641 14.9623 21.829 14.8978 21.8704L12.648 23.2984L15.1059 21.8792C15.1724 21.8385 15.2523 21.8259 15.3281 21.8442C15.4039 21.8624 15.4694 21.91 15.51 21.9765C15.5507 22.043 15.5634 22.123 15.5451 22.1988C15.5269 22.2746 15.4792 22.34 15.4128 22.3807L10.4158 25.617L15.7537 22.5347C15.8202 22.4957 15.8994 22.4845 15.9742 22.5033C16.0489 22.5221 16.1133 22.5696 16.1534 22.6355C16.1935 22.7013 16.2061 22.7803 16.1885 22.8553C16.171 22.9304 16.1246 22.9956 16.0594 23.0368L11.0495 26.2613L15.7525 23.5453C15.8193 23.5068 15.8985 23.4961 15.973 23.5154C16.0476 23.5347 16.1116 23.5825 16.1513 23.6485C16.191 23.7146 16.2032 23.7935 16.1852 23.8684C16.1673 23.9434 16.1206 24.0082 16.0553 24.0491L14.3593 25.1131L15.7525 24.3089C15.8189 24.2711 15.8974 24.2607 15.9714 24.2798C16.0454 24.2989 16.109 24.346 16.1488 24.4112C16.1886 24.4764 16.2015 24.5545 16.1847 24.629C16.1679 24.7035 16.1228 24.7686 16.0588 24.8104L10.8626 28.1736L15.752 25.3518C15.818 25.3143 15.8961 25.3037 15.9697 25.3225C16.0434 25.3412 16.1069 25.3877 16.147 25.4523C16.1871 25.5169 16.2006 25.5945 16.1847 25.6688C16.1688 25.7431 16.1248 25.8084 16.0618 25.8509L10.3652 29.6433L15.7537 26.5335C15.8198 26.4959 15.8978 26.4854 15.9715 26.5041C16.0452 26.5228 16.1087 26.5694 16.1488 26.6339C16.1889 26.6985 16.2024 26.7761 16.1865 26.8504C16.1706 26.9248 16.1265 26.99 16.0635 27.0326L12.0037 29.7439L15.7537 27.5787C15.8194 27.5422 15.8967 27.5322 15.9695 27.5508C16.0423 27.5695 16.1053 27.6154 16.1453 27.679C16.1854 27.7426 16.1995 27.8192 16.1849 27.8929C16.1702 27.9667 16.1278 28.032 16.0665 28.0755L12.615 30.4411L15.7537 28.6292C15.819 28.5932 15.8955 28.5833 15.9678 28.6015C16.0401 28.6197 16.1027 28.6647 16.1431 28.7274C16.1834 28.7901 16.1984 28.8658 16.1851 28.9391C16.1717 29.0125 16.131 29.078 16.0712 29.1225L13.2 31.1671L15.7537 29.6933C15.8191 29.656 15.8963 29.6452 15.9694 29.6631C16.0425 29.6811 16.1059 29.7264 16.1466 29.7897C16.1873 29.853 16.2022 29.9295 16.1881 30.0034C16.1741 30.0774 16.1322 30.1431 16.0712 30.1871L14.7073 31.1577L15.7537 30.554C15.8171 30.517 15.8919 30.505 15.9637 30.5204C16.0354 30.5358 16.0987 30.5774 16.1413 30.6372C16.1839 30.6969 16.2026 30.7704 16.1937 30.8432C16.1849 30.916 16.1491 30.9829 16.0935 31.0307L14.1476 32.7191L15.7537 31.792C15.8142 31.7571 15.8852 31.7448 15.954 31.7575C16.0227 31.7702 16.0847 31.8069 16.1287 31.8611C16.1728 31.9153 16.1962 31.9835 16.1946 32.0533C16.193 32.1232 16.1665 32.1902 16.12 32.2423L15.1441 33.3381L15.7537 32.9854C15.8209 32.9503 15.8991 32.9424 15.9719 32.9636C16.0447 32.9847 16.1065 33.0331 16.1445 33.0988C16.1824 33.1644 16.1935 33.2422 16.1755 33.3158C16.1574 33.3894 16.1116 33.4533 16.0477 33.4939L13.8608 34.7579C13.8003 34.7924 13.7295 34.8044 13.6611 34.7917C13.5926 34.7789 13.5309 34.7423 13.4869 34.6883C13.4429 34.6343 13.4196 34.5665 13.421 34.4968C13.4223 34.4272 13.4484 34.3603 13.4945 34.3081L14.471 33.2117L11.7897 34.7579C11.7264 34.7947 11.6516 34.8066 11.5801 34.7913C11.5085 34.7759 11.4452 34.7344 11.4026 34.6748C11.36 34.6152 11.3412 34.5419 11.3498 34.4692C11.3585 34.3965 11.3939 34.3296 11.4493 34.2817L13.3952 32.5933L9.64451 34.7579C9.57926 34.7939 9.50274 34.8038 9.43045 34.7856C9.35816 34.7674 9.2955 34.7224 9.25515 34.6597C9.2148 34.597 9.19978 34.5213 9.21313 34.448C9.22648 34.3746 9.2672 34.3091 9.32705 34.2646L10.6915 33.2929L8.15365 34.7579C8.0884 34.7939 8.01189 34.8038 7.9396 34.7856C7.86731 34.7674 7.80465 34.7224 7.7643 34.6597C7.72395 34.597 7.70893 34.5213 7.72228 34.448C7.73563 34.3746 7.77635 34.3091 7.8362 34.2646L10.7068 32.22L6.31007 34.7579C6.24449 34.7932 6.16795 34.8023 6.0959 34.7834C6.02386 34.7644 5.96169 34.7189 5.92197 34.6558C5.88225 34.5928 5.86794 34.5171 5.88192 34.4439C5.89591 34.3707 5.93715 34.3056 5.99732 34.2617L9.44698 31.8972L4.49177 34.7579C4.44725 34.7843 4.39656 34.7985 4.3448 34.799ZM6.04729 15.9869C5.98411 15.987 5.9226 15.9666 5.87189 15.9289C5.82118 15.8912 5.78396 15.8382 5.76575 15.7777C5.74754 15.7172 5.74931 15.6525 5.7708 15.5931C5.79228 15.5336 5.83234 15.4827 5.88503 15.4479L7.75037 14.2133L4.74514 15.9458C4.67903 15.9813 4.60186 15.9901 4.52943 15.9706C4.457 15.951 4.3948 15.9045 4.35557 15.8405C4.31634 15.7765 4.30306 15.7 4.31843 15.6266C4.33381 15.5531 4.37668 15.4884 4.43827 15.4455L6.35298 14.2016L3.33071 15.9458C3.26444 15.9828 3.18641 15.9928 3.11297 15.9736C3.03952 15.9544 2.97636 15.9075 2.9367 15.8428C2.89704 15.778 2.88396 15.7005 2.90021 15.6263C2.91645 15.5521 2.96075 15.4872 3.02384 15.4449L6.0126 13.5108L1.81458 15.9358C1.74827 15.9755 1.66899 15.9875 1.59391 15.9692C1.51882 15.9509 1.45397 15.9037 1.41339 15.838C1.37282 15.7722 1.35978 15.6931 1.3771 15.6178C1.39442 15.5424 1.4407 15.477 1.50594 15.4355L7.17013 11.7172L0.927469 15.3209C0.860951 15.3599 0.781779 15.3712 0.707017 15.3523C0.632256 15.3335 0.56789 15.286 0.527793 15.2202C0.487696 15.1543 0.475077 15.0753 0.492656 15.0003C0.510236 14.9252 0.556606 14.86 0.621773 14.8188L4.90269 12.0793L0.798136 14.4491C0.732226 14.485 0.655043 14.4944 0.582425 14.4753C0.509807 14.4562 0.447262 14.41 0.407625 14.3462C0.367988 14.2824 0.354264 14.2059 0.369271 14.1323C0.384278 14.0588 0.426876 13.9937 0.488325 13.9505L8.07194 8.90068L0.798136 13.1005C0.731093 13.1406 0.650847 13.1525 0.575051 13.1335C0.499255 13.1145 0.434119 13.0661 0.393971 12.9991C0.353823 12.932 0.341952 12.8518 0.36097 12.776C0.379988 12.7002 0.428336 12.635 0.49538 12.5949L2.17083 11.5438L0.798136 12.338C0.73207 12.3756 0.654016 12.3861 0.580355 12.3674C0.506694 12.3486 0.443153 12.3021 0.403068 12.2375C0.362984 12.1729 0.349472 12.0954 0.365368 12.021C0.381264 11.9467 0.425333 11.8814 0.488325 11.8389L8.09957 6.76904L0.798136 10.9841C0.731093 11.0243 0.650816 11.0363 0.574965 11.0173C0.499114 10.9984 0.433903 10.95 0.393677 10.883C0.353451 10.816 0.341505 10.7357 0.360468 10.6598C0.379431 10.584 0.427749 10.5188 0.494792 10.4785L2.66112 9.11467L0.798136 10.1922C0.731722 10.2277 0.654219 10.2364 0.581613 10.2164C0.509007 10.1964 0.446837 10.1494 0.407927 10.0849C0.369017 10.0204 0.356336 9.94347 0.372499 9.86992C0.388662 9.79637 0.432436 9.73183 0.494792 9.68961L2.28253 8.56383L0.798136 9.42037C0.732175 9.45734 0.6545 9.46748 0.58126 9.44866C0.50802 9.42984 0.444849 9.38352 0.404881 9.31933C0.364912 9.25514 0.35122 9.17801 0.366651 9.10398C0.382082 9.02996 0.425449 8.96472 0.487737 8.92185L6.23541 5.06596L0.798136 8.20464C0.731818 8.24111 0.653986 8.2506 0.580848 8.23112C0.50771 8.21164 0.444904 8.16471 0.405508 8.10008C0.366111 8.03546 0.353162 7.95813 0.369355 7.88419C0.385549 7.81026 0.429638 7.74542 0.49244 7.70318L1.72404 6.9119L0.798136 7.44628C0.732077 7.48222 0.654753 7.49148 0.582075 7.47215C0.509397 7.45281 0.446894 7.40636 0.407429 7.34234C0.367963 7.27832 0.354537 7.20161 0.369913 7.12799C0.385289 7.05437 0.428298 6.98945 0.490089 6.94658L2.29781 5.75789L0.798136 6.62325C0.732722 6.66164 0.655 6.67326 0.581219 6.65567C0.507438 6.63809 0.443309 6.59267 0.402241 6.5289C0.361172 6.46513 0.346342 6.38796 0.360851 6.31351C0.375361 6.23907 0.418086 6.17311 0.480095 6.12943L3.82276 3.74383L0.798136 5.48923C0.734001 5.52565 0.658519 5.53663 0.586669 5.51998C0.514818 5.50334 0.45185 5.46029 0.410258 5.39939C0.368667 5.33848 0.351492 5.26416 0.362142 5.19118C0.372791 5.1182 0.410487 5.05189 0.467749 5.00541L3.43241 2.63098L0.798136 4.15123C0.7356 4.1852 0.662861 4.19533 0.593421 4.17974C0.523981 4.16415 0.462556 4.1239 0.420547 4.06645C0.378538 4.009 0.358799 3.93826 0.364993 3.86736C0.371187 3.79646 0.402894 3.73022 0.454228 3.68093L2.21786 2.08778L0.798136 2.90493C0.735501 2.94302 0.660894 2.95633 0.588952 2.94225C0.51701 2.92817 0.452925 2.88771 0.409271 2.82882C0.365617 2.76993 0.345545 2.69685 0.352992 2.62392C0.36044 2.55099 0.394869 2.48348 0.449525 2.43463L0.952748 1.96433L0.798136 2.05368C0.738259 2.08807 0.668189 2.10027 0.600212 2.08816C0.532235 2.07605 0.47069 2.0404 0.42637 1.98745C0.38205 1.93451 0.357783 1.86765 0.357825 1.7986C0.357867 1.72956 0.382214 1.66273 0.426598 1.60984L0.70584 1.27945C0.64673 1.25477 0.597508 1.21113 0.565925 1.15541C0.527085 1.08802 0.516537 1.00799 0.536592 0.932837C0.556646 0.857688 0.605668 0.79355 0.672919 0.754475L1.64821 0.190701C1.70801 0.156994 1.77773 0.145282 1.84526 0.157597C1.9128 0.169911 1.97389 0.205476 2.01795 0.258122C2.06201 0.310768 2.08625 0.377174 2.08647 0.445823C2.08669 0.514472 2.06288 0.581032 2.01916 0.63396L1.96037 0.700978L2.84983 0.190701C2.91246 0.153221 2.98679 0.140384 3.05836 0.154686C3.12994 0.168989 3.19363 0.209408 3.23704 0.268079C3.28046 0.32675 3.3005 0.399475 3.29325 0.472102C3.28601 0.54473 3.252 0.612064 3.19785 0.661002L2.69404 1.1313L4.32716 0.190701C4.3897 0.156726 4.46244 0.146594 4.53188 0.162186C4.60132 0.177777 4.66274 0.218033 4.70475 0.275481C4.74676 0.332929 4.7665 0.403667 4.7603 0.474566C4.75411 0.545465 4.7224 0.611709 4.67107 0.661002L2.90744 2.25356L6.48526 0.190701C6.54941 0.153593 6.62522 0.142092 6.6975 0.158499C6.76977 0.174906 6.83318 0.218012 6.87503 0.279183C6.91687 0.340354 6.93407 0.415076 6.92316 0.488385C6.91226 0.561694 6.87407 0.628178 6.81623 0.674524L3.85157 3.04837L8.80502 0.190701C8.87043 0.152311 8.94816 0.140694 9.02194 0.158277C9.09572 0.175861 9.15985 0.221284 9.20091 0.285051C9.24198 0.348817 9.25681 0.425991 9.2423 0.500437C9.22779 0.574884 9.18507 0.64084 9.12306 0.684518L5.77922 3.0713L10.7674 0.190701C10.8335 0.153721 10.9113 0.143694 10.9846 0.162712C11.058 0.18173 11.1211 0.228323 11.1609 0.292775C11.2007 0.357226 11.2141 0.434557 11.1983 0.50864C11.1825 0.582722 11.1387 0.647835 11.076 0.690396L9.27062 1.87614L12.193 0.190701C12.2593 0.152912 12.3378 0.142451 12.4118 0.161535C12.4858 0.180619 12.5494 0.227748 12.5892 0.292938C12.629 0.358129 12.6419 0.436259 12.6251 0.510779C12.6083 0.585298 12.5632 0.650352 12.4992 0.69216L11.267 1.48403L13.508 0.190701C13.5739 0.154222 13.6512 0.144406 13.7241 0.163277C13.797 0.182148 13.8599 0.228267 13.8998 0.292125C13.9396 0.355982 13.9535 0.432709 13.9385 0.506484C13.9235 0.580258 13.8807 0.645456 13.819 0.688633L8.06723 4.54569L15.2523 0.397046C15.319 0.356742 15.399 0.344598 15.4747 0.363285C15.5504 0.381972 15.6155 0.429959 15.6558 0.496691C15.6961 0.563422 15.7083 0.643431 15.6896 0.719117C15.6709 0.794802 15.6229 0.859964 15.5562 0.900268L13.779 2.01723L15.6708 0.925547C15.7373 0.888989 15.8153 0.879552 15.8886 0.899208C15.9619 0.918865 16.0247 0.966093 16.064 1.03102C16.1033 1.09594 16.1159 1.17352 16.0993 1.24755C16.0826 1.32157 16.038 1.38629 15.9748 1.42818L13.8061 2.795L15.7537 1.67097C15.8198 1.6334 15.8978 1.62287 15.9715 1.6416C16.0452 1.66034 16.1087 1.70688 16.1488 1.77145C16.1889 1.83603 16.2024 1.91362 16.1865 1.98795C16.1706 2.06227 16.1265 2.12755 16.0635 2.17008L8.45229 7.23993L15.7537 3.02485C15.8202 2.98882 15.8981 2.97982 15.9711 2.99974C16.0441 3.01965 16.1066 3.06695 16.1456 3.13178C16.1846 3.19661 16.1971 3.27398 16.1805 3.3478C16.1639 3.42161 16.1195 3.48619 16.0565 3.52808L14.3804 4.5792L15.7537 3.78733C15.8196 3.75135 15.8968 3.74195 15.9694 3.76108C16.0421 3.7802 16.1046 3.82639 16.1442 3.89017C16.1839 3.95395 16.1976 4.03048 16.1826 4.10406C16.1676 4.17764 16.125 4.24269 16.0635 4.28585L8.47992 9.33571L15.7537 5.13651C15.82 5.10104 15.8973 5.09229 15.9698 5.11207C16.0423 5.13185 16.1045 5.17866 16.1436 5.24286C16.1826 5.30707 16.1956 5.3838 16.1799 5.45728C16.1641 5.53077 16.1208 5.59543 16.0588 5.63797L11.775 8.37924L15.7537 6.08299C15.8199 6.04534 15.8982 6.03487 15.972 6.05379C16.0458 6.07271 16.1093 6.11954 16.1493 6.1844C16.1892 6.24927 16.2024 6.32711 16.1861 6.40152C16.1698 6.47592 16.1252 6.54109 16.0618 6.58327L10.3923 10.3022L15.7537 7.20995C15.8201 7.17216 15.8986 7.1617 15.9726 7.18078C16.0465 7.19987 16.1102 7.247 16.15 7.31219C16.1898 7.37738 16.2027 7.45551 16.1859 7.53003C16.1691 7.60455 16.1239 7.6696 16.06 7.71141L13.0759 9.64258L15.7537 8.09647C15.8198 8.06099 15.897 8.05213 15.9694 8.0717C16.0419 8.09128 16.1041 8.13781 16.1433 8.20177C16.1825 8.26572 16.1958 8.34226 16.1804 8.41569C16.1651 8.48913 16.1222 8.5539 16.0606 8.59675L14.1429 9.84305L15.7537 8.91362C15.8197 8.87718 15.8972 8.86749 15.9702 8.88658C16.0431 8.90566 16.1059 8.95204 16.1457 9.01614C16.1854 9.08024 16.1989 9.15714 16.1835 9.23096C16.1681 9.30477 16.125 9.36984 16.0629 9.41272L14.1982 10.6473L15.7537 9.74958C15.8198 9.712 15.8978 9.70147 15.9715 9.72021C16.0452 9.73894 16.1087 9.78548 16.1488 9.85005C16.1889 9.91463 16.2024 9.99223 16.1865 10.0666C16.1706 10.1409 16.1265 10.2062 16.0635 10.2487L15.1317 10.8701L15.7537 10.5109C15.8183 10.4746 15.8942 10.4639 15.9662 10.4811C16.0382 10.4984 16.1011 10.5421 16.1423 10.6037C16.1834 10.6653 16.1998 10.7401 16.1882 10.8133C16.1765 10.8864 16.1377 10.9525 16.0794 10.9982L13.1988 13.2116L15.752 11.7378C15.8171 11.6998 15.8944 11.6883 15.9679 11.7057C16.0413 11.7231 16.1052 11.768 16.1464 11.8313C16.1876 11.8945 16.2028 11.9712 16.1891 12.0454C16.1753 12.1196 16.1335 12.1856 16.0724 12.2298L15.4686 12.669L15.752 12.5061C15.8165 12.4698 15.8924 12.4592 15.9644 12.4764C16.0365 12.4936 16.0994 12.5374 16.1405 12.599C16.1817 12.6606 16.1981 12.7354 16.1864 12.8085C16.1747 12.8817 16.1359 12.9477 16.0776 12.9935L15.7761 13.2257C15.8391 13.1967 15.9104 13.191 15.9773 13.2096C16.0441 13.2281 16.1023 13.2697 16.1414 13.327C16.1805 13.3843 16.1981 13.4536 16.1911 13.5227C16.1841 13.5917 16.1528 13.656 16.1029 13.7042L15.5421 14.2468L15.752 14.1263C15.8191 14.0912 15.8973 14.0834 15.9701 14.1045C16.0429 14.1256 16.1047 14.174 16.1427 14.2397C16.1806 14.3053 16.1917 14.3831 16.1737 14.4567C16.1557 14.5303 16.1099 14.5942 16.0459 14.6348L13.7743 15.9458C13.7122 15.9826 13.6387 15.9953 13.5679 15.9814C13.497 15.9675 13.4337 15.928 13.3901 15.8705C13.3465 15.8129 13.3256 15.7413 13.3314 15.6693C13.3372 15.5973 13.3693 15.53 13.4216 15.4802L13.9819 14.9382L12.237 15.9458C12.1725 15.9821 12.0966 15.9927 12.0246 15.9755C11.9525 15.9583 11.8896 15.9145 11.8485 15.853C11.8073 15.7914 11.7909 15.7165 11.8026 15.6434C11.8143 15.5702 11.8531 15.5042 11.9114 15.4584L12.2053 15.2321L10.9684 15.9458C10.9032 15.9838 10.8259 15.9953 10.7525 15.9779C10.6791 15.9605 10.6151 15.9155 10.574 15.8523C10.5328 15.7891 10.5175 15.7124 10.5313 15.6382C10.5451 15.564 10.5869 15.498 10.648 15.4537L11.2541 15.0123L9.63686 15.9458C9.57232 15.9821 9.49643 15.9927 9.42439 15.9755C9.35235 15.9583 9.28947 15.9145 9.24831 15.853C9.20716 15.7914 9.19077 15.7165 9.20243 15.6434C9.21408 15.5702 9.25292 15.5042 9.31118 15.4584L12.1882 13.2469L7.51169 15.9458C7.44578 15.9818 7.3686 15.9912 7.29598 15.9721C7.22336 15.9529 7.16082 15.9067 7.12118 15.843C7.08154 15.7792 7.06782 15.7026 7.08282 15.6291C7.09783 15.5555 7.14043 15.4904 7.20188 15.4473L8.13601 14.8288L6.19602 15.9493C6.15065 15.9748 6.09932 15.9878 6.04729 15.9869Z" fill="#E6EBEF"/>
<path d="M31.4642 8.42096C31.4058 8.42095 31.3488 8.40356 31.3003 8.371C31.2518 8.33844 31.2142 8.2922 31.1921 8.23815C31.17 8.18411 31.1646 8.12471 31.1764 8.06755C31.1882 8.01038 31.2168 7.95802 31.2584 7.91714L32.8457 6.35633L30.6706 7.61321C30.608 7.64906 30.5344 7.66063 30.4638 7.64573C30.3932 7.63083 30.3306 7.5905 30.2878 7.5324C30.245 7.47431 30.2251 7.40252 30.2318 7.3307C30.2386 7.25888 30.2715 7.19204 30.3243 7.14291L32.0291 5.57269L29.8722 6.81782C29.8089 6.85467 29.7342 6.86658 29.6626 6.85121C29.591 6.83585 29.5277 6.79432 29.4852 6.73475C29.4426 6.67518 29.4238 6.60187 29.4324 6.52916C29.441 6.45644 29.4765 6.38957 29.5318 6.34163L31.0115 5.04831L29.1685 6.11236C29.1059 6.14984 29.0316 6.16268 28.96 6.14838C28.8884 6.13408 28.8247 6.09366 28.7813 6.03499C28.7379 5.97631 28.7179 5.90359 28.7251 5.83096C28.7323 5.75833 28.7664 5.691 28.8205 5.64206L30.5888 3.98601L28.3408 5.28992C28.277 5.32674 28.2017 5.33825 28.1298 5.32219C28.0579 5.30612 27.9947 5.26365 27.9526 5.20317C27.9105 5.1427 27.8927 5.06863 27.9027 4.99564C27.9126 4.92265 27.9496 4.85606 28.0063 4.80904L29.1544 3.86079L27.7318 4.68382C27.6673 4.72114 27.5911 4.73261 27.5185 4.71591C27.446 4.69921 27.3824 4.65559 27.3408 4.59386C27.2991 4.53213 27.2825 4.4569 27.2942 4.38335C27.3058 4.30981 27.345 4.24344 27.4037 4.19765L28.0251 3.71324L27.2403 4.1659C27.1772 4.20184 27.1031 4.21318 27.0322 4.19774C26.9613 4.1823 26.8986 4.14117 26.8562 4.08227C26.8138 4.02337 26.7947 3.95087 26.8025 3.87872C26.8104 3.80657 26.8447 3.73988 26.8987 3.69149L28.3908 2.37288L27.1686 3.07833C27.1047 3.11604 27.0289 3.12818 26.9564 3.11234C26.8839 3.09649 26.8201 3.05382 26.7778 2.99289C26.7355 2.93196 26.7177 2.85728 26.7282 2.78383C26.7386 2.71037 26.7764 2.64358 26.8341 2.59686L28.4266 1.28472C28.3928 1.21738 28.3862 1.13964 28.4081 1.06754C28.43 0.995451 28.4787 0.934512 28.5442 0.897308L29.7482 0.198322C29.8121 0.160617 29.8879 0.148469 29.9603 0.164315C30.0328 0.180162 30.0966 0.22283 30.139 0.28376C30.1813 0.34469 30.199 0.419373 30.1886 0.492827C30.1781 0.56628 30.1403 0.633069 30.0827 0.679794L29.9392 0.797369L30.6312 0.397613C30.6943 0.36101 30.7688 0.349203 30.8402 0.364487C30.9115 0.379771 30.9746 0.421054 31.0172 0.480305C31.0598 0.539555 31.0789 0.612536 31.0707 0.685048C31.0624 0.757561 31.0275 0.824419 30.9727 0.872617L29.4807 2.18946L31.3901 1.08719C31.4546 1.04988 31.5308 1.03841 31.6033 1.05511C31.6759 1.0718 31.7394 1.11542 31.7811 1.17715C31.8227 1.23888 31.8394 1.31412 31.8277 1.38766C31.816 1.46121 31.7769 1.52758 31.7182 1.57337L31.0974 2.05719L31.8986 1.59512C31.9624 1.55839 32.0377 1.54695 32.1096 1.56306C32.1814 1.57917 32.2446 1.62166 32.2866 1.68212C32.3287 1.74267 32.3466 1.81684 32.3365 1.88991C32.3265 1.96298 32.2894 2.02961 32.2325 2.07659L31.0856 3.02719L32.5083 2.20416C32.5709 2.16668 32.6452 2.15384 32.7168 2.16814C32.7884 2.18245 32.8521 2.22287 32.8955 2.28154C32.9389 2.34021 32.9589 2.41293 32.9517 2.48556C32.9444 2.55819 32.9104 2.62552 32.8563 2.67446L31.0856 4.3311L33.333 3.03365C33.3962 2.9975 33.4706 2.98609 33.5417 3.00162C33.6128 3.01715 33.6757 3.05852 33.718 3.11772C33.7604 3.17692 33.7793 3.24973 33.7711 3.32206C33.7628 3.39439 33.728 3.46109 33.6734 3.50924L32.1955 4.79963L34.0379 3.73675C34.1005 3.70091 34.1741 3.68933 34.2447 3.70424C34.3153 3.71914 34.3779 3.75947 34.4207 3.81756C34.4634 3.87565 34.4834 3.94744 34.4766 4.01926C34.4699 4.09108 34.437 4.15792 34.3842 4.20705L32.6793 5.77669L34.5541 4.69558C34.616 4.66034 34.6886 4.64877 34.7583 4.66303C34.8281 4.67729 34.8904 4.7164 34.9335 4.7731C34.9766 4.82979 34.9976 4.90021 34.9927 4.97127C34.9878 5.04233 34.9573 5.10918 34.9068 5.15941L33.3195 6.71964L33.4218 6.66085C33.4893 6.62249 33.5692 6.61237 33.6441 6.63271C33.719 6.65304 33.7828 6.70219 33.8217 6.76941C33.8605 6.83663 33.8711 6.91647 33.8513 6.99151C33.8314 7.06655 33.7827 7.1307 33.7158 7.16995L31.6135 8.38333C31.5681 8.40919 31.5165 8.4222 31.4642 8.42096Z" fill="#F25362"/>
<path d="M14.615 22.9732C14.5558 22.9731 14.4979 22.9552 14.4491 22.9217C14.4002 22.8882 14.3626 22.8408 14.3412 22.7855C14.3198 22.7303 14.3156 22.6699 14.3291 22.6122C14.3426 22.5546 14.3732 22.5023 14.4169 22.4623L16.4269 20.627L13.906 22.082C13.8423 22.1186 13.7672 22.1301 13.6954 22.114C13.6237 22.098 13.5605 22.0556 13.5185 21.9953C13.4764 21.935 13.4584 21.8612 13.4682 21.7883C13.4779 21.7154 13.5146 21.6488 13.5709 21.6017L15.1453 20.2854L13.2182 21.3977C13.1551 21.4343 13.0806 21.4461 13.0092 21.4308C12.9379 21.4155 12.8748 21.3742 12.8321 21.315C12.7895 21.2557 12.7705 21.1828 12.7787 21.1103C12.787 21.0377 12.8219 20.9709 12.8767 20.9227L14.7508 19.269L12.4275 20.6099C12.363 20.647 12.2867 20.6582 12.2142 20.6412C12.1417 20.6242 12.0784 20.5804 12.0369 20.5185C11.9955 20.4567 11.9791 20.3814 11.9911 20.3079C12.003 20.2344 12.0424 20.1682 12.1013 20.1226L12.8796 19.5253L12.4358 19.7816C12.3732 19.816 12.3003 19.8265 12.2306 19.8111C12.1608 19.7956 12.0991 19.7554 12.0569 19.6978C12.0147 19.6402 11.995 19.5692 12.0013 19.4981C12.0076 19.427 12.0396 19.3606 12.0913 19.3113L13.6327 17.9157L12.9972 18.2825C12.9397 18.3158 12.8726 18.3285 12.8069 18.3187C12.7411 18.309 12.6807 18.2772 12.6353 18.2286C12.59 18.1801 12.5624 18.1176 12.5571 18.0514C12.5519 17.9851 12.5692 17.9191 12.6062 17.864L13.5668 16.4384C13.5206 16.4137 13.4817 16.3772 13.4543 16.3325C13.4269 16.2878 13.4119 16.2366 13.411 16.1842C13.41 16.1318 13.4231 16.0801 13.4488 16.0344C13.4746 15.9888 13.5121 15.9508 13.5574 15.9246L14.1988 15.5542C14.2563 15.521 14.3234 15.5082 14.3891 15.518C14.4548 15.5278 14.5153 15.5595 14.5607 15.6081C14.606 15.6566 14.6336 15.7191 14.6388 15.7853C14.6441 15.8516 14.6268 15.9176 14.5897 15.9728L13.8061 17.1356L15.7296 16.0251C15.7922 15.9907 15.8651 15.9802 15.9348 15.9956C16.0045 16.011 16.0663 16.0513 16.1085 16.1089C16.1506 16.1665 16.1704 16.2375 16.1641 16.3086C16.1578 16.3797 16.1258 16.4461 16.0741 16.4954L14.531 17.8934L16.4756 16.7687C16.5402 16.7317 16.6165 16.7205 16.689 16.7375C16.7615 16.7544 16.8248 16.7983 16.8662 16.8601C16.9077 16.922 16.9241 16.9973 16.9121 17.0708C16.9002 17.1443 16.8608 17.2105 16.8019 17.2561L16.0247 17.8516L16.9989 17.2896C17.062 17.253 17.1365 17.2412 17.2078 17.2565C17.2792 17.2718 17.3423 17.313 17.3849 17.3723C17.4275 17.4315 17.4466 17.5045 17.4383 17.577C17.4301 17.6496 17.3952 17.7164 17.3404 17.7646L15.4669 19.4183L17.7884 18.0779C17.8521 18.0413 17.9273 18.0299 17.999 18.0459C18.0708 18.0619 18.1339 18.1043 18.176 18.1646C18.218 18.2249 18.236 18.2987 18.2263 18.3716C18.2165 18.4445 18.1799 18.5111 18.1235 18.5582L16.5474 19.8786L18.4756 18.7675C18.5382 18.7327 18.6113 18.7218 18.6813 18.7371C18.7513 18.7523 18.8133 18.7926 18.8557 18.8504C18.8981 18.9081 18.9179 18.9794 18.9115 19.0507C18.905 19.1221 18.8727 19.1886 18.8207 19.2378L16.8113 21.072L19.2739 19.6493C19.3339 19.6146 19.4043 19.6023 19.4725 19.6144C19.5408 19.6265 19.6025 19.6623 19.6469 19.7156C19.6913 19.7688 19.7154 19.836 19.715 19.9053C19.7147 19.9746 19.6898 20.0416 19.6449 20.0944L18.8219 21.0661L19.1699 20.8657C19.2033 20.8444 19.2408 20.8301 19.2799 20.8237C19.319 20.8172 19.359 20.8188 19.3975 20.8282C19.436 20.8377 19.4722 20.8548 19.5039 20.8786C19.5356 20.9023 19.5622 20.9323 19.5821 20.9666C19.6019 21.0009 19.6146 21.0389 19.6194 21.0783C19.6242 21.1176 19.6209 21.1575 19.6099 21.1956C19.5988 21.2337 19.5802 21.2691 19.5551 21.2998C19.53 21.3305 19.499 21.3558 19.4638 21.3742L17.6455 22.4241C17.5855 22.4588 17.5152 22.4712 17.447 22.4591C17.3787 22.447 17.317 22.4111 17.2726 22.3579C17.2282 22.3046 17.2041 22.2374 17.2044 22.1681C17.2048 22.0988 17.2296 22.0319 17.2746 21.9791L18.1005 21.0073L14.7649 22.9326C14.7196 22.9597 14.6678 22.9737 14.615 22.9732Z" fill="#FBDEB4"/>
<path d="M19.2381 21.3401C19.1791 21.3401 19.1215 21.3222 19.0728 21.289C19.024 21.2557 18.9865 21.2085 18.9649 21.1536C18.9433 21.0987 18.9388 21.0386 18.9519 20.981C18.965 20.9235 18.9951 20.8712 19.0382 20.831L20.224 19.7258L18.692 20.6076C18.6268 20.6442 18.5501 20.6545 18.4776 20.6365C18.405 20.6186 18.342 20.5736 18.3014 20.5109C18.2609 20.4481 18.2457 20.3722 18.2591 20.2987C18.2724 20.2252 18.3133 20.1595 18.3734 20.115L19.314 19.4389L18.1758 20.0968C18.1103 20.1334 18.0331 20.1436 17.9603 20.1251C17.8875 20.1067 17.8245 20.0611 17.7843 19.9977C17.744 19.9343 17.7296 19.8578 17.7439 19.7841C17.7582 19.7104 17.8002 19.6449 17.8613 19.6012L20.6955 17.63L17.5321 19.456C17.4662 19.4941 17.3881 19.5052 17.3142 19.4869C17.2403 19.4686 17.1763 19.4223 17.1359 19.3578C17.0953 19.2933 17.0814 19.2155 17.0971 19.1409C17.1128 19.0664 17.1568 19.0008 17.2199 18.9581L22.7095 15.2292L16.7449 18.6723C16.6785 18.7089 16.6004 18.7183 16.5271 18.6987C16.4539 18.679 16.391 18.6318 16.3518 18.5669C16.3125 18.502 16.2999 18.4244 16.3165 18.3503C16.3331 18.2763 16.3777 18.2116 16.441 18.1697L17.4527 17.533L16.277 18.2109C16.2107 18.2459 16.1335 18.2543 16.0612 18.2342C15.9889 18.2142 15.9271 18.1673 15.8882 18.1032C15.8494 18.039 15.8365 17.9625 15.8523 17.8892C15.8681 17.8158 15.9113 17.7513 15.9731 17.7088L17.6291 16.6565L15.7849 17.7212C15.7184 17.7572 15.6405 17.7662 15.5676 17.7463C15.4946 17.7264 15.4321 17.6791 15.3931 17.6142C15.3541 17.5494 15.3415 17.472 15.3581 17.3982C15.3747 17.3244 15.4192 17.2598 15.4822 17.2179L15.6967 17.0827L15.344 17.285C15.2778 17.3233 15.1993 17.3344 15.1251 17.3158C15.0509 17.2972 14.9869 17.2504 14.9466 17.1853C14.9064 17.1203 14.8931 17.0421 14.9095 16.9674C14.926 16.8927 14.9709 16.8274 15.0348 16.7853L20.3216 13.2815L14.6262 16.5701C14.56 16.6113 14.4802 16.6246 14.4042 16.607C14.3283 16.5893 14.2624 16.5422 14.2212 16.476C14.1799 16.4099 14.1667 16.33 14.1843 16.254C14.202 16.1781 14.2491 16.1122 14.3152 16.071L20.1129 12.191L15.2223 15.0128C15.1563 15.0511 15.078 15.0622 15.004 15.0437C14.9299 15.0253 14.8659 14.9788 14.8255 14.9141C14.7852 14.8493 14.7715 14.7714 14.7875 14.6968C14.8036 14.6222 14.848 14.5568 14.9113 14.5143L19.5997 11.365L17.8784 12.3597C17.8128 12.3964 17.7357 12.4065 17.6629 12.3881C17.59 12.3697 17.527 12.3241 17.4868 12.2606C17.4466 12.1972 17.4321 12.1208 17.4464 12.0471C17.4608 11.9733 17.5028 11.9079 17.5638 11.8641L20.4239 9.87359L20.2822 9.95531C20.2175 9.99266 20.1411 10.004 20.0684 9.98704C19.9957 9.97007 19.9321 9.92607 19.8907 9.86397C19.8492 9.80187 19.833 9.72632 19.8452 9.65266C19.8574 9.579 19.8972 9.51275 19.9565 9.46737L22.4961 7.52326C22.4383 7.50317 22.388 7.46583 22.3521 7.41627C22.3096 7.35695 22.2908 7.28396 22.2991 7.21148C22.3075 7.13901 22.3425 7.07224 22.3974 7.02416L23.9923 5.62912C23.9773 5.56739 23.9827 5.50246 24.0077 5.44407C24.0327 5.38567 24.076 5.33695 24.131 5.3052L24.8406 4.89369C24.9037 4.85819 24.9777 4.84722 25.0484 4.8629C25.1191 4.87858 25.1815 4.9198 25.2236 4.97865C25.2658 5.03751 25.2848 5.10986 25.2769 5.18184C25.269 5.25381 25.2349 5.32035 25.181 5.36869L25.0452 5.48627L25.5043 5.22173C25.5689 5.18516 25.645 5.1744 25.7172 5.19163C25.7895 5.20885 25.8525 5.25277 25.8937 5.31457C25.9348 5.37637 25.9511 5.45146 25.9392 5.52475C25.9273 5.59804 25.888 5.6641 25.8294 5.70966L23.9059 7.18641L26.1627 5.88368C26.2283 5.84704 26.3054 5.83689 26.3782 5.85532C26.451 5.87374 26.514 5.91935 26.5543 5.98277C26.5945 6.04619 26.609 6.12261 26.5946 6.19634C26.5803 6.27007 26.5383 6.33552 26.4772 6.37925L23.6196 8.36628L26.8047 6.52681C26.8707 6.48855 26.949 6.47746 27.0231 6.49589C27.0971 6.51431 27.1611 6.56081 27.2015 6.62555C27.2419 6.69029 27.2555 6.7682 27.2395 6.8428C27.2235 6.91741 27.1791 6.98286 27.1157 7.02533L22.4244 10.1764L27.516 7.23697C27.582 7.1987 27.6604 7.18761 27.7344 7.20604C27.8085 7.22447 27.8724 7.27098 27.9128 7.33573C27.9534 7.40052 27.9671 7.47856 27.9511 7.5533C27.9351 7.62804 27.8906 7.6936 27.827 7.73607L22.0282 11.6161L28.2844 8.00473C28.3504 7.96829 28.4279 7.95861 28.5008 7.97769C28.5738 7.99678 28.6366 8.04316 28.6763 8.10726C28.716 8.17135 28.7296 8.24826 28.7142 8.32207C28.6988 8.39589 28.6556 8.46096 28.5936 8.50384L23.3121 12.007L29.0033 8.72136C29.0701 8.68287 29.1493 8.67213 29.2238 8.69144C29.2984 8.71074 29.3624 8.75856 29.4021 8.82459C29.4418 8.89062 29.454 8.9696 29.436 9.04451C29.4181 9.11943 29.3714 9.1843 29.3061 9.22517L29.0868 9.36155L29.4395 9.15756C29.5059 9.12159 29.5836 9.11254 29.6564 9.13227C29.7293 9.152 29.7918 9.19901 29.8309 9.26355C29.8701 9.32809 29.8829 9.40522 29.8667 9.47895C29.8505 9.55268 29.8066 9.61737 29.7441 9.65961L28.0892 10.7101L29.8599 9.68841C29.9264 9.65186 30.0044 9.64242 30.0777 9.66207C30.1509 9.68173 30.2138 9.72896 30.253 9.79388C30.2923 9.8588 30.3049 9.93639 30.2883 10.0104C30.2717 10.0844 30.2271 10.1492 30.1638 10.191L29.1544 10.8312L29.3708 10.7066C29.4367 10.6675 29.5154 10.6558 29.5899 10.6738C29.6644 10.6919 29.7289 10.7384 29.7696 10.8034C29.8104 10.8683 29.8241 10.9467 29.8079 11.0216C29.7917 11.0965 29.7469 11.1622 29.6829 11.2045L24.1927 14.934L26.4561 13.6278C26.5216 13.5911 26.5987 13.581 26.6716 13.5994C26.7444 13.6178 26.8074 13.6634 26.8476 13.7269C26.8879 13.7903 26.9023 13.8667 26.888 13.9404C26.8737 14.0142 26.8317 14.0796 26.7706 14.1234L23.937 16.0939L24.0746 16.0151C24.1398 15.9786 24.2165 15.9683 24.289 15.9862C24.3615 16.0042 24.4245 16.0492 24.4651 16.1119C24.5057 16.1747 24.5209 16.2505 24.5075 16.3241C24.4942 16.3976 24.4533 16.4633 24.3932 16.5078L22.4373 17.9187C22.4809 17.9391 22.5189 17.9698 22.5478 18.0083C22.5767 18.0467 22.5958 18.0917 22.6033 18.1393C22.6108 18.1868 22.6065 18.2355 22.5908 18.2809C22.575 18.3264 22.5484 18.3674 22.5132 18.4002L20.0335 20.7046C20.0435 20.7637 20.0351 20.8245 20.0096 20.8787C19.984 20.9329 19.9426 20.978 19.8907 21.008L19.3827 21.3019C19.3387 21.3271 19.2888 21.3403 19.2381 21.3401Z" fill="#FBAC2E"/>
<path d="M11.1595 24.8027C11.1011 24.8027 11.044 24.7853 10.9956 24.7527C10.9471 24.7202 10.9094 24.6739 10.8874 24.6199C10.8653 24.5658 10.8598 24.5064 10.8716 24.4493C10.8834 24.3921 10.912 24.3397 10.9537 24.2989L12.3864 22.8927L10.9578 23.7157C10.8962 23.7513 10.8237 23.7632 10.7539 23.7494C10.6841 23.7356 10.6216 23.6969 10.5782 23.6405C10.5347 23.5841 10.5132 23.5139 10.5176 23.4429C10.522 23.3718 10.5521 23.3048 10.6021 23.2542L11.7191 22.1302L11.5051 22.2537C11.4504 22.286 11.3866 22.2997 11.3234 22.2927C11.2601 22.2857 11.2009 22.2584 11.1545 22.2149C11.1081 22.1713 11.0771 22.1139 11.0662 22.0513C11.0552 21.9886 11.0648 21.9241 11.0936 21.8674L11.7497 20.5623C11.7367 20.5474 11.7251 20.5312 11.715 20.5141C11.676 20.4466 11.6655 20.3664 11.6856 20.2911C11.7058 20.2158 11.7551 20.1516 11.8226 20.1126L12.1165 19.9433C12.1713 19.911 12.2351 19.8973 12.2983 19.9042C12.3615 19.9112 12.4207 19.9386 12.4671 19.9821C12.5135 20.0256 12.5445 20.083 12.5555 20.1457C12.5665 20.2083 12.5568 20.2728 12.528 20.3295L12.0636 21.2531L13.344 20.5141C13.4057 20.4786 13.4781 20.4666 13.5479 20.4804C13.6178 20.4943 13.6802 20.533 13.7236 20.5893C13.7671 20.6457 13.7886 20.7159 13.7842 20.787C13.7798 20.858 13.7498 20.925 13.6997 20.9756L12.5798 22.1002L14.0982 21.2237C14.1601 21.1885 14.2327 21.1769 14.3025 21.1911C14.3723 21.2054 14.4345 21.2445 14.4777 21.3012C14.5208 21.3579 14.5418 21.4283 14.5369 21.4994C14.532 21.5704 14.5015 21.6373 14.451 21.6875L13.0171 23.0943L14.6514 22.1537C14.7186 22.1186 14.7968 22.1107 14.8696 22.1319C14.9424 22.153 15.0042 22.2014 15.0422 22.2671C15.0801 22.3327 15.0912 22.4105 15.0732 22.4841C15.0552 22.5577 15.0094 22.6216 14.9454 22.6622L11.3064 24.7639C11.2618 24.7897 11.211 24.8031 11.1595 24.8027Z" fill="#5B696B"/>
<path d="M29.9198 10.6584C29.8632 10.6584 29.8078 10.6421 29.7603 10.6114C29.7127 10.5807 29.675 10.5369 29.6518 10.4853C29.6285 10.4338 29.6206 10.3765 29.629 10.3206C29.6375 10.2646 29.6619 10.2123 29.6994 10.1698L30.4977 9.26393L29.3619 9.91941C29.3022 9.95385 29.2322 9.96617 29.1643 9.95422C29.0963 9.94227 29.0348 9.90681 28.9903 9.85404C28.9459 9.80128 28.9215 9.73457 28.9213 9.6656C28.9211 9.59662 28.9451 9.52977 28.9892 9.47674L29.8622 8.43209L28.5995 9.16046C28.5392 9.19507 28.4686 9.2072 28.4002 9.19469C28.3318 9.18218 28.2701 9.14585 28.226 9.09214C28.1819 9.03843 28.1582 8.97082 28.1592 8.90132C28.1602 8.83182 28.1858 8.76492 28.2315 8.7125L29.0398 7.79306L27.8917 8.4556C27.8313 8.49018 27.7606 8.50221 27.6921 8.48955C27.6237 8.47689 27.562 8.44036 27.5179 8.38646C27.4739 8.33256 27.4505 8.26478 27.4517 8.1952C27.453 8.12561 27.4789 8.05873 27.5248 8.00646L28.3179 7.11289L27.1944 7.75955C27.1342 7.79456 27.0635 7.80703 26.9949 7.79475C26.9264 7.78247 26.8644 7.74623 26.82 7.6925C26.7757 7.63877 26.7519 7.57104 26.7528 7.50138C26.7538 7.43173 26.7795 7.36467 26.8253 7.31218L27.6483 6.36335L26.4725 7.04176C26.4127 7.07616 26.3427 7.08843 26.2747 7.0764C26.2068 7.06437 26.1452 7.02881 26.1008 6.97596C26.0565 6.9231 26.0321 6.85632 26.032 6.78731C26.0319 6.7183 26.0562 6.65146 26.1004 6.5985L26.9705 5.56442L25.7153 6.28927C25.6527 6.32675 25.5784 6.33959 25.5068 6.32529C25.4352 6.31099 25.3715 6.27057 25.3281 6.2119C25.2847 6.15323 25.2647 6.0805 25.2719 6.00787C25.2792 5.93524 25.3132 5.86791 25.3673 5.81897L25.7012 5.50681L25.2127 5.78781C25.1538 5.82144 25.0851 5.83365 25.0182 5.82238C24.9513 5.8111 24.8903 5.77704 24.8457 5.72596C24.801 5.67488 24.7754 5.60993 24.7732 5.54213C24.771 5.47433 24.7923 5.40785 24.8335 5.35396L26.178 3.61796C26.1688 3.60647 26.1606 3.59429 26.1533 3.58151C26.1145 3.51405 26.1041 3.43397 26.1242 3.35881C26.1444 3.28365 26.1935 3.21956 26.2609 3.18058L26.7729 2.88664C26.8319 2.85302 26.9006 2.84081 26.9675 2.85208C27.0344 2.86335 27.0953 2.89742 27.14 2.9485C27.1846 2.99958 27.2102 3.06453 27.2124 3.13233C27.2146 3.20013 27.1933 3.26661 27.1521 3.3205L26.2115 4.53623L27.6171 3.72437C27.6798 3.68689 27.7541 3.67405 27.8257 3.68835C27.8972 3.70265 27.9609 3.74307 28.0043 3.80174C28.0478 3.86042 28.0678 3.93314 28.0605 4.00577C28.0533 4.0784 28.0193 4.14573 27.9651 4.19467L27.6342 4.50566L28.1192 4.22524C28.179 4.19083 28.249 4.17857 28.317 4.1906C28.3849 4.20263 28.4465 4.23818 28.4909 4.29104C28.5352 4.34389 28.5596 4.41068 28.5597 4.47969C28.5597 4.5487 28.5355 4.61554 28.4913 4.6685L27.6224 5.70434L28.8775 4.97948C28.9378 4.94448 29.0085 4.93201 29.077 4.94429C29.1456 4.95657 29.2076 4.99281 29.2519 5.04654C29.2963 5.10027 29.3201 5.168 29.3191 5.23765C29.3182 5.30731 29.2925 5.37436 29.2467 5.42686L28.4237 6.3751L29.5994 5.69669C29.6598 5.66211 29.7305 5.65008 29.799 5.66274C29.8674 5.6754 29.9291 5.71194 29.9732 5.76584C30.0172 5.81974 30.0407 5.88751 30.0394 5.9571C30.0381 6.02668 30.0122 6.09356 29.9663 6.14583L29.1726 7.03999L30.2967 6.39333C30.357 6.35835 30.4278 6.34598 30.4965 6.35841C30.5651 6.37084 30.6271 6.40728 30.6713 6.4612C30.7155 6.51512 30.7392 6.58302 30.738 6.65276C30.7367 6.72249 30.7108 6.78953 30.6647 6.84188L29.8569 7.76073L31.0051 7.09819C31.0648 7.06376 31.1348 7.05144 31.2027 7.06339C31.2707 7.07534 31.3322 7.1108 31.3767 7.16356C31.4211 7.21633 31.4455 7.28303 31.4457 7.35201C31.4459 7.42099 31.4219 7.48784 31.3778 7.54086L30.5059 8.58493L31.7669 7.85714C31.8273 7.82255 31.8979 7.81047 31.9663 7.82305C32.0347 7.83564 32.0965 7.87207 32.1405 7.92588C32.1846 7.97968 32.2082 8.04737 32.2071 8.11691C32.2059 8.18646 32.1802 8.25335 32.1344 8.30569L30.6853 9.94587C30.7187 10.0131 30.7251 10.0905 30.7033 10.1624C30.6814 10.2342 30.6329 10.2949 30.5677 10.3321L30.0662 10.6213C30.0216 10.6465 29.9711 10.6593 29.9198 10.6584Z" fill="#E6EBEF"/>
<path d="M33.5388 2.76498C32.1437 1.22239 30.1179 -1.08973 28.2302 1.19829C24.2676 5.16018 20.3055 9.12208 16.344 13.084C16.518 -4.61288 17.9983 1.08247 1.68173 0.223586C-1.34525 1.07248 0.82931 9.25455 0.206748 12.0505C0.206748 13.365 -0.292359 15.8623 1.6541 15.9358C5.59288 16.0839 9.56869 15.9358 13.5133 15.9358C12.7556 16.7588 12.4657 17.8893 12.0777 18.9204C-4.61796 18.4031 1.20202 18.3566 0.214979 33.5586C0.515971 36.1917 11.4858 34.304 14.0836 34.8384C18.2193 35.5803 15.7026 25.5217 16.3498 22.8333C22.1763 20.6382 25.586 14.4978 30.2972 10.5879C32.0891 8.20754 37.658 5.61559 33.5388 2.76498ZM26.7312 3.47043L31.6858 8.42506L30.1032 10.0082L25.148 5.05299L26.7312 3.47043ZM24.4461 5.75551L24.586 5.61559L26.8628 7.89185L16.7326 18.0221L14.4557 15.7453C17.7437 12.3774 21.1146 9.08407 24.4461 5.75551ZM3.01562 15.4855C-0.542207 16.3391 1.60942 8.8013 1.05858 6.63967C1.43071 5.03124 -0.130693 0.549269 2.33016 0.650384C18.6079 0.838505 15.2687 -2.25314 15.4927 13.9364C14.976 14.4526 14.4586 14.9717 13.9407 15.486L3.01562 15.4855ZM11.4111 24.263C11.3791 24.268 11.3476 24.2759 11.317 24.2866C11.2751 24.2697 11.2309 24.2588 11.1859 24.2542C10.9055 23.0579 12.0448 21.7264 12.3029 20.5053C12.8617 20.7172 13.36 21.063 13.754 21.5123C14.148 21.9617 14.4257 22.5009 14.5627 23.0826C13.501 23.4283 12.4734 23.9603 11.4111 24.263ZM14.6444 34.2076C10.3964 34.2076 6.12608 34.217 1.88279 34.2076C1.07975 34.09 1.06681 33.4063 1.06681 32.7914C2.08737 17.9951 -3.58564 19.4142 11.8514 19.553C11.5816 21.1338 9.76915 23.1426 10.5146 24.6087L5.9362 30.4369C5.45414 30.0066 4.03912 28.1148 3.76811 29.4081C4.53999 29.8749 5.28718 31.7261 6.27364 31.0936L11.3041 24.694C12.705 24.2101 14.113 23.6693 15.4868 23.1478C15.0365 25.3518 16.5297 33.6126 14.6427 34.2076H14.6444ZM16.1535 22.4965C16.0358 22.456 15.9077 22.4572 15.7908 22.5001C15.6739 22.5429 15.5753 22.6247 15.5115 22.7316L15.394 22.7751C15.2091 22.0906 14.8446 21.468 14.3381 20.9718C13.8316 20.4756 13.2016 20.124 12.5134 19.9533C12.9207 18.7216 13.41 17.5185 13.9778 16.352L18.8571 21.2314C18.1152 21.8945 17.06 22.1296 16.1535 22.4965ZM19.5467 20.5659L19.4127 20.6999L17.1364 18.4237C20.5112 15.0473 23.8872 11.6707 27.2644 8.29396L29.5406 10.5702L19.5467 20.5659ZM33.8962 6.21523L32.2319 7.87892C30.58 6.22777 28.9284 4.57623 27.2773 2.92429C28.3355 2.09186 29.6047 -0.416612 30.9645 1.30352C31.9597 2.75792 35.283 4.18823 33.8962 6.21523Z" fill="#262626"/>
</svg>
