<svg width="35" height="35" viewBox="0 0 35 35" fill="none" xmlns="http://www.w3.org/2000/svg">
<path d="M9.48295 34.8599C9.41908 34.8599 9.35692 34.8392 9.30585 34.8008C9.25478 34.7625 9.21757 34.7086 9.19982 34.6472C9.18207 34.5859 9.18475 34.5204 9.20746 34.4607C9.23016 34.401 9.27166 34.3503 9.32569 34.3162L11.9384 32.6718L8.21725 34.8186C8.15057 34.8567 8.07164 34.8673 7.9973 34.848C7.92295 34.8288 7.85906 34.7812 7.81927 34.7156C7.77947 34.6499 7.76691 34.5712 7.78427 34.4964C7.80162 34.4216 7.84752 34.3565 7.91217 34.3151L12.6198 31.3437L6.5917 34.8186C6.52509 34.8553 6.44691 34.8647 6.3735 34.845C6.30008 34.8253 6.23713 34.778 6.1978 34.713C6.15847 34.6479 6.14581 34.5702 6.16247 34.496C6.17913 34.4219 6.22383 34.357 6.2872 34.3151L12.4378 30.4308L4.85129 34.8122C4.7842 34.8504 4.70478 34.8607 4.63013 34.841C4.55548 34.8212 4.49158 34.7729 4.45219 34.7065C4.41281 34.6401 4.40108 34.5609 4.41955 34.4859C4.43801 34.4109 4.48519 34.3462 4.55092 34.3056L5.72296 33.5877L4.29648 34.4123C4.23005 34.4473 4.15272 34.4557 4.08031 34.4357C4.00791 34.4156 3.9459 34.3687 3.90699 34.3044C3.86808 34.2401 3.85521 34.1634 3.87101 34.0899C3.88681 34.0165 3.93009 33.9519 3.99198 33.9093L12.9025 28.2634L3.54967 33.6625C3.48299 33.7006 3.40406 33.7111 3.32971 33.6919C3.25536 33.6726 3.19148 33.6251 3.15168 33.5594C3.11189 33.4937 3.09933 33.4151 3.11668 33.3403C3.13404 33.2655 3.17993 33.2004 3.24458 33.1589L13.0109 26.9641L2.76516 32.8797C2.69822 32.9168 2.6195 32.9263 2.54567 32.9063C2.47184 32.8863 2.40869 32.8383 2.36958 32.7726C2.33048 32.7068 2.31848 32.6285 2.33614 32.554C2.3538 32.4796 2.39972 32.415 2.4642 32.3738L5.71708 30.3808L2.261 32.3762C2.19498 32.4072 2.1198 32.4126 2.05002 32.3914C1.98024 32.3701 1.92083 32.3237 1.88329 32.2612C1.84575 32.1987 1.83276 32.1244 1.84683 32.0528C1.8609 31.9813 1.90103 31.9175 1.95945 31.8738L12.6263 25.1254L1.45824 31.5734C1.39099 31.6132 1.31067 31.6247 1.23496 31.6054C1.15924 31.586 1.09433 31.5373 1.0545 31.4701C1.01466 31.4028 1.00318 31.3225 1.02256 31.2468C1.04195 31.1711 1.09061 31.1061 1.15786 31.0663L1.82222 30.664L1.0171 31.1299C0.983955 31.1499 0.947207 31.1631 0.908951 31.1689C0.870695 31.1746 0.831681 31.1728 0.794135 31.1635C0.718309 31.1446 0.65307 31.0964 0.612769 31.0295C0.572468 30.9626 0.560407 30.8824 0.57924 30.8065C0.598072 30.7307 0.646255 30.6655 0.713188 30.6252L11.3064 23.9816L0.593038 30.1658C0.526389 30.2019 0.448385 30.2109 0.375258 30.1909C0.302131 30.171 0.239514 30.1236 0.200437 30.0587C0.16136 29.9937 0.148833 29.9162 0.165463 29.8422C0.182093 29.7683 0.226599 29.7036 0.289719 29.6616L10.9672 22.9803L0.593038 28.9696C0.526315 29.007 0.447664 29.0169 0.373728 28.9974C0.299791 28.9778 0.236371 28.9302 0.196885 28.8647C0.1574 28.7992 0.144948 28.7209 0.162164 28.6464C0.17938 28.5719 0.224914 28.507 0.28913 28.4654L12.3041 20.886L0.593038 27.6462C0.526224 27.6824 0.447989 27.6914 0.374697 27.6713C0.301404 27.6511 0.23873 27.6035 0.199782 27.5382C0.160835 27.4729 0.14863 27.3951 0.165722 27.3211C0.182813 27.247 0.227876 27.1824 0.291486 27.1408L8.53235 22.0421L0.593038 26.6255C0.526501 26.661 0.448854 26.6697 0.376113 26.6497C0.303372 26.6297 0.241086 26.5825 0.202104 26.5179C0.163122 26.4533 0.150417 26.3762 0.16661 26.3026C0.182803 26.2289 0.226658 26.1642 0.28913 26.1219L11.9678 18.7692L0.593038 25.3362C0.526053 25.3727 0.447548 25.3817 0.374043 25.3614C0.300538 25.3411 0.237762 25.2931 0.198925 25.2275C0.160088 25.1619 0.148217 25.0838 0.16581 25.0096C0.183403 24.9354 0.229088 24.8709 0.293253 24.8297L3.66216 22.7772L0.593038 24.5488C0.525636 24.5887 0.44514 24.6002 0.369259 24.5807C0.293378 24.5613 0.228327 24.5125 0.188416 24.4451C0.148506 24.3777 0.137006 24.2972 0.156446 24.2213C0.175885 24.1455 0.224673 24.0804 0.292075 24.0405L6.74188 20.0785L0.593038 23.6282C0.526097 23.6652 0.447381 23.6747 0.373551 23.6547C0.299721 23.6347 0.23657 23.5868 0.197463 23.5211C0.158357 23.4553 0.146363 23.3769 0.164022 23.3025C0.18168 23.2281 0.227604 23.1635 0.292075 23.1223L5.84665 19.7198L0.593038 22.7512C0.526053 22.7877 0.447548 22.7967 0.374043 22.7764C0.300538 22.7561 0.237762 22.7081 0.198925 22.6425C0.160088 22.5769 0.148217 22.4988 0.16581 22.4246C0.183403 22.3504 0.229088 22.2859 0.293253 22.2447L0.840406 21.9143L0.594805 22.0557C0.528203 22.0923 0.450019 22.1017 0.376605 22.0821C0.303192 22.0624 0.240237 22.015 0.200907 21.95C0.161577 21.885 0.14892 21.8072 0.165582 21.7331C0.182244 21.6589 0.226936 21.5941 0.290308 21.5521L12.6239 13.7518L0.593038 20.6981C0.525792 20.7378 0.445508 20.7493 0.369848 20.7298C0.294187 20.7104 0.229348 20.6617 0.189594 20.5944C0.14984 20.5272 0.138428 20.4469 0.157868 20.3712C0.177307 20.2956 0.226007 20.2307 0.293253 20.191L1.23207 19.6232L0.593038 19.9919C0.525948 20.0301 0.446525 20.0405 0.371878 20.0207C0.29723 20.001 0.233331 19.9527 0.193943 19.8863C0.154556 19.8198 0.142832 19.7406 0.161297 19.6656C0.179762 19.5907 0.226938 19.5259 0.292664 19.4854L5.30185 16.4228L0.593038 19.1379C0.526389 19.174 0.448385 19.183 0.375258 19.1631C0.302131 19.1431 0.239514 19.0957 0.200437 19.0308C0.16136 18.9658 0.148833 18.8883 0.165463 18.8144C0.182093 18.7404 0.226599 18.6757 0.289719 18.6337L11.1203 11.8488L0.593038 17.9276C0.526053 17.964 0.447548 17.973 0.374043 17.9528C0.300538 17.9325 0.237762 17.8845 0.198925 17.8189C0.160088 17.7532 0.148217 17.6751 0.16581 17.6009C0.183403 17.5267 0.229088 17.4623 0.293253 17.4211L2.60731 16.0146L0.593038 17.1772C0.526224 17.2135 0.447989 17.2225 0.374697 17.2023C0.301404 17.1822 0.23873 17.1345 0.199782 17.0693C0.160835 17.004 0.14863 16.9262 0.165722 16.8521C0.182813 16.7781 0.227876 16.7135 0.291486 16.6719L8.56887 11.5479L0.593038 16.1548C0.559935 16.1748 0.523218 16.188 0.484983 16.1938C0.446748 16.1997 0.407744 16.1979 0.370199 16.1886C0.332654 16.1793 0.297302 16.1628 0.266162 16.1398C0.235022 16.1169 0.208704 16.088 0.188711 16.0549C0.168717 16.0218 0.15544 15.9851 0.149636 15.9469C0.143833 15.9087 0.145617 15.8697 0.154887 15.8321C0.164157 15.7946 0.180731 15.7592 0.203664 15.7281C0.226596 15.6969 0.255438 15.6706 0.288541 15.6506L12.1215 8.16599L0.593038 14.8219C0.526097 14.8589 0.447381 14.8685 0.373551 14.8485C0.299721 14.8285 0.23657 14.7805 0.197463 14.7148C0.158357 14.649 0.146363 14.5707 0.164022 14.4962C0.18168 14.4218 0.227604 14.3572 0.292075 14.316L5.28242 11.2457L0.593038 13.955C0.526549 13.991 0.448745 14.0001 0.375749 13.9803C0.302753 13.9605 0.24016 13.9134 0.20094 13.8488C0.161719 13.7841 0.148878 13.7069 0.165077 13.633C0.181276 13.5591 0.225273 13.4943 0.287952 13.452L9.82926 7.36499L0.593038 12.6963C0.526315 12.7337 0.447664 12.7437 0.373728 12.7241C0.299791 12.7045 0.236371 12.657 0.196885 12.5915C0.1574 12.526 0.144948 12.4477 0.162164 12.3732C0.17938 12.2986 0.224914 12.2337 0.28913 12.1922L6.66649 8.16717L0.593038 11.6721C0.526315 11.7095 0.447664 11.7195 0.373728 11.6999C0.299791 11.6803 0.236371 11.6328 0.196885 11.5673C0.1574 11.5017 0.144948 11.4235 0.162164 11.3489C0.17938 11.2744 0.224914 11.2095 0.28913 11.168L5.1764 8.07941L0.593038 10.7298C0.526315 10.7672 0.447664 10.7771 0.373728 10.7575C0.299791 10.738 0.236371 10.6904 0.196885 10.6249C0.1574 10.5594 0.144948 10.4811 0.162164 10.4066C0.17938 10.3321 0.224914 10.2672 0.28913 10.2256L3.4195 8.25139L0.593038 9.88166C0.526783 9.92101 0.447739 9.93283 0.37287 9.91457C0.298002 9.89631 0.233273 9.84943 0.192575 9.78399C0.151877 9.71855 0.138453 9.63977 0.155183 9.56454C0.171913 9.48932 0.217465 9.42365 0.282062 9.38162L6.73599 5.04916L0.593038 8.59535C0.527347 8.63206 0.450095 8.64222 0.377143 8.62376C0.30419 8.6053 0.241074 8.55961 0.200751 8.49607C0.160428 8.43254 0.145959 8.35597 0.160313 8.2821C0.174668 8.20823 0.216757 8.14266 0.27794 8.09885L5.83251 4.24522L0.590683 7.27017C0.524896 7.30731 0.44735 7.31775 0.374081 7.29933C0.300813 7.28091 0.237427 7.23503 0.197033 7.17119C0.156639 7.10735 0.142327 7.03042 0.157057 6.95632C0.171787 6.88222 0.214432 6.81662 0.276173 6.77308L3.86889 4.28645L0.593038 6.17822C0.527355 6.21658 0.449373 6.22805 0.375428 6.2102C0.301483 6.19236 0.23731 6.14659 0.196353 6.08249C0.155396 6.01839 0.140832 5.94093 0.155711 5.86633C0.17059 5.79173 0.213758 5.72579 0.276173 5.6823L2.70273 3.97429L0.593038 5.19346C0.527631 5.23042 0.450568 5.24099 0.377623 5.223C0.304679 5.20501 0.24137 5.15981 0.200656 5.09667C0.159941 5.03353 0.144899 4.95721 0.158609 4.88334C0.172319 4.80948 0.213745 4.74364 0.274406 4.69931L1.68263 3.68864L0.593038 4.31766C0.528893 4.35513 0.452957 4.36697 0.38045 4.35081C0.307942 4.33465 0.244221 4.29169 0.202056 4.23053C0.159892 4.16936 0.1424 4.09453 0.153087 4.02101C0.163773 3.9475 0.201849 3.88074 0.259682 3.83412L1.87464 2.51424L0.593038 3.25457C0.528611 3.29223 0.45229 3.30402 0.379502 3.28756C0.306715 3.2711 0.24289 3.22762 0.200928 3.16592C0.158966 3.10421 0.141996 3.02887 0.153449 2.95513C0.164902 2.88139 0.203924 2.81474 0.262626 2.76867L0.485846 2.59198C0.430227 2.60026 0.373398 2.59245 0.322078 2.56946C0.270758 2.54648 0.227093 2.50927 0.196244 2.46226C0.165396 2.41524 0.148653 2.36038 0.147997 2.30415C0.14734 2.24792 0.162797 2.19268 0.192539 2.14495L0.729091 1.27622C0.659839 1.30731 0.581256 1.31046 0.509739 1.28501C0.438221 1.25956 0.379295 1.20747 0.345255 1.13962C0.311216 1.07177 0.304693 0.993396 0.327047 0.920851C0.349401 0.848306 0.398906 0.787196 0.465232 0.750271L1.44469 0.187216C1.50171 0.153664 1.56837 0.140289 1.63392 0.14925C1.69947 0.158211 1.76009 0.188984 1.80602 0.236609C1.85194 0.284234 1.88049 0.345937 1.88706 0.41177C1.89364 0.477603 1.87785 0.543731 1.84224 0.599495L1.31158 1.46116L3.51845 0.187216C3.5828 0.149811 3.65893 0.138161 3.73152 0.154611C3.80412 0.171061 3.86779 0.214391 3.90973 0.275883C3.95167 0.337376 3.96877 0.412469 3.95758 0.486058C3.9464 0.559646 3.90777 0.62627 3.84945 0.672527L3.74167 0.757928L4.73055 0.187216C4.7946 0.150633 4.87005 0.13942 4.94198 0.155795C5.0139 0.17217 5.07706 0.21494 5.11896 0.275646C5.16086 0.336353 5.17846 0.410574 5.16826 0.483629C5.15807 0.556685 5.12083 0.623255 5.06391 0.670171L3.44836 1.98887L6.57226 0.187216C6.63767 0.150251 6.71473 0.139684 6.78767 0.157677C6.86062 0.17567 6.92393 0.220862 6.96464 0.284004C7.00536 0.347146 7.0204 0.423462 7.00669 0.497331C6.99298 0.5712 6.95155 0.637036 6.89089 0.681362L5.48325 1.6885L8.08473 0.187216C8.15028 0.150391 8.22743 0.140033 8.30038 0.158263C8.37332 0.176493 8.43652 0.221933 8.47704 0.285267C8.51755 0.348601 8.53231 0.425034 8.51829 0.498898C8.50426 0.572763 8.46251 0.638466 8.4016 0.68254L5.97445 2.39055L9.79275 0.187216C9.85853 0.15007 9.93608 0.139629 10.0093 0.158051C10.0826 0.176474 10.146 0.222351 10.1864 0.286194C10.2268 0.350038 10.2411 0.426964 10.2264 0.501063C10.2116 0.575162 10.169 0.640766 10.1073 0.684307L6.51454 3.17094L11.6857 0.187216C11.7514 0.150509 11.8286 0.140343 11.9016 0.158805C11.9745 0.177267 12.0377 0.222957 12.078 0.286493C12.1183 0.35003 12.1328 0.426593 12.1184 0.500463C12.1041 0.574333 12.062 0.639906 12.0008 0.683718L6.44563 4.53676L13.9821 0.187216C14.0482 0.150171 14.126 0.140019 14.1994 0.158871C14.2727 0.177723 14.336 0.224128 14.3761 0.28844C14.4161 0.352752 14.4298 0.430022 14.4144 0.504187C14.3989 0.578352 14.3555 0.643706 14.2931 0.686663L7.83913 5.01677L16.209 0.187216C16.2421 0.167223 16.2788 0.153945 16.317 0.148142C16.3553 0.142338 16.3943 0.144122 16.4318 0.153392C16.4694 0.162663 16.5047 0.179237 16.5359 0.202169C16.567 0.225102 16.5933 0.253943 16.6133 0.287047C16.6333 0.32015 16.6466 0.356868 16.6524 0.395102C16.6582 0.433337 16.6564 0.472341 16.6471 0.509886C16.6379 0.547431 16.6213 0.582783 16.5984 0.613923C16.5754 0.645063 16.5466 0.671381 16.5135 0.691374L13.3855 2.66089L17.6743 0.187216C17.7074 0.167223 17.7442 0.153945 17.7824 0.148142C17.8206 0.142338 17.8596 0.144122 17.8972 0.153392C17.9347 0.162663 17.9701 0.179237 18.0012 0.202169C18.0324 0.225102 18.0587 0.253943 18.0787 0.287047C18.0987 0.32015 18.1119 0.356868 18.1177 0.395102C18.1235 0.433337 18.1218 0.472341 18.1125 0.509886C18.1032 0.547431 18.0866 0.582783 18.0637 0.613923C18.0408 0.645063 18.0119 0.671381 17.9788 0.691374L13.091 3.77993L19.3129 0.187216C19.3797 0.146837 19.4599 0.134671 19.5357 0.153392C19.6115 0.172114 19.6768 0.220191 19.7172 0.287047C19.7576 0.353902 19.7697 0.43406 19.751 0.509886C19.7323 0.585712 19.6842 0.650996 19.6174 0.691374L13.2376 4.71639L21.0851 0.187216C21.1516 0.150014 21.23 0.140076 21.3037 0.159494C21.3775 0.178912 21.4408 0.226172 21.4804 0.29133C21.52 0.356489 21.5328 0.434467 21.5161 0.508858C21.4993 0.583249 21.4544 0.648254 21.3907 0.690197L11.8494 6.77661L23.2619 0.187216C23.3288 0.150206 23.4076 0.140695 23.4814 0.160695C23.5552 0.180696 23.6184 0.228639 23.6575 0.294378C23.6966 0.360117 23.7086 0.438493 23.6909 0.512918C23.6733 0.587343 23.6273 0.651977 23.5629 0.693141L18.5684 3.76344L24.4534 0.363907C24.5201 0.3258 24.599 0.315251 24.6733 0.334508C24.7477 0.353765 24.8116 0.401306 24.8514 0.466992C24.8912 0.532679 24.9037 0.611313 24.8864 0.686128C24.869 0.760942 24.8231 0.826017 24.7585 0.867476L12.9255 8.35446L24.9999 1.38341C25.0668 1.34718 25.145 1.33819 25.2183 1.35831C25.2916 1.37844 25.3543 1.42612 25.3932 1.49139C25.4322 1.55665 25.4444 1.63445 25.4273 1.70851C25.4102 1.78257 25.3651 1.84715 25.3015 1.88875L17.0241 7.01279L24.9999 2.40587C25.0672 2.36611 25.1475 2.3547 25.2231 2.37414C25.2988 2.39358 25.3636 2.44228 25.4034 2.50952C25.4431 2.57677 25.4546 2.65705 25.4351 2.73271C25.4157 2.80838 25.367 2.87321 25.2997 2.91297L22.9857 4.31943L24.9999 3.15621C25.0668 3.11766 25.1461 3.1069 25.2209 3.12624C25.2956 3.14558 25.3597 3.19349 25.3995 3.25964C25.4392 3.3258 25.4514 3.40491 25.4334 3.47997C25.4154 3.55502 25.3687 3.62002 25.3033 3.66096L14.4762 10.4429L24.9999 4.3689C25.067 4.33067 25.1465 4.32032 25.2211 4.34008C25.2958 4.35984 25.3597 4.40813 25.399 4.47455C25.4384 4.54097 25.4502 4.6202 25.4317 4.69518C25.4132 4.77016 25.366 4.83488 25.3003 4.87542L20.2847 7.94513L24.9999 5.21996C25.0672 5.18021 25.1475 5.1688 25.2231 5.18824C25.2988 5.20768 25.3636 5.25638 25.4034 5.32362C25.4431 5.39087 25.4546 5.47115 25.4351 5.54681C25.4157 5.62247 25.367 5.68731 25.2997 5.72707L24.3703 6.29012L24.9999 5.92673C25.0665 5.8901 25.1447 5.88065 25.2181 5.90034C25.2916 5.92003 25.3545 5.96735 25.3938 6.03239C25.4332 6.09743 25.4458 6.17516 25.4292 6.24932C25.4125 6.32348 25.3678 6.38833 25.3044 6.4303L12.9691 14.2306L24.9999 7.2843C25.0672 7.24455 25.1475 7.23314 25.2231 7.25258C25.2988 7.27202 25.3636 7.32071 25.4034 7.38796C25.4431 7.45521 25.4546 7.53549 25.4351 7.61115C25.4157 7.68681 25.367 7.75165 25.2997 7.7914L24.7437 8.1283L24.9999 7.98046C25.0669 7.94345 25.1456 7.93394 25.2194 7.95394C25.2933 7.97394 25.3564 8.02189 25.3955 8.08763C25.4346 8.15337 25.4466 8.23174 25.429 8.30617C25.4113 8.38059 25.3654 8.44523 25.3009 8.48639L19.7463 11.8889L24.9976 8.85744C25.0645 8.82043 25.1432 8.81092 25.2171 8.83092C25.2909 8.85092 25.3541 8.89886 25.3932 8.9646C25.4323 9.03034 25.4443 9.10872 25.4266 9.18314C25.4089 9.25757 25.363 9.3222 25.2986 9.36337L18.857 13.3242L24.9999 9.77741C25.0669 9.74098 25.1454 9.73196 25.2189 9.75223C25.2924 9.77251 25.3552 9.82051 25.3941 9.88612C25.4329 9.95174 25.4448 10.0299 25.4272 10.1041C25.4096 10.1783 25.3639 10.2427 25.2997 10.2839L21.9308 12.3371L24.9999 10.5649C25.0667 10.5275 25.1453 10.5175 25.2193 10.5371C25.2932 10.5567 25.3566 10.6042 25.3961 10.6697C25.4356 10.7352 25.448 10.8135 25.4308 10.8881C25.4136 10.9626 25.3681 11.0275 25.3039 11.069L13.621 18.4235L24.9999 11.8547C25.0668 11.8185 25.145 11.8095 25.2183 11.8296C25.2916 11.8497 25.3543 11.8974 25.3932 11.9627C25.4322 12.0279 25.4444 12.1057 25.4273 12.1798C25.4102 12.2539 25.3651 12.3184 25.3015 12.36L17.0653 17.4552L24.9999 12.8748C25.0667 12.8374 25.1453 12.8275 25.2193 12.847C25.2932 12.8666 25.3566 12.9142 25.3961 12.9797C25.4356 13.0452 25.448 13.1235 25.4308 13.198C25.4136 13.2725 25.3681 13.3374 25.3039 13.379L13.2912 20.9578L24.9999 14.1982C25.0668 14.1597 25.1461 14.1489 25.2209 14.1682C25.2956 14.1876 25.3597 14.2355 25.3995 14.3016C25.4392 14.3678 25.4514 14.4469 25.4334 14.522C25.4154 14.597 25.3687 14.662 25.3033 14.703L14.6258 21.3848L24.9999 15.3956C25.0668 15.357 25.1461 15.3463 25.2209 15.3656C25.2956 15.385 25.3597 15.4329 25.3995 15.499C25.4392 15.5652 25.4514 15.6443 25.4334 15.7194C25.4154 15.7944 25.3687 15.8594 25.3033 15.9003L14.7101 22.5427L24.9999 16.6018C25.0669 16.5654 25.1454 16.5563 25.2189 16.5766C25.2924 16.5969 25.3552 16.6449 25.3941 16.7105C25.4329 16.7761 25.4448 16.8543 25.4272 16.9285C25.4096 17.0026 25.3639 17.0671 25.2997 17.1083L24.6295 17.5153L24.9999 17.3015C25.0665 17.2649 25.1447 17.2554 25.2181 17.2751C25.2916 17.2948 25.3545 17.3421 25.3938 17.4072C25.4332 17.4722 25.4458 17.5499 25.4292 17.6241C25.4125 17.6983 25.3678 17.7631 25.3044 17.8051L14.6288 24.5564L24.9999 18.569C25.0668 18.5332 25.1449 18.5247 25.2179 18.545C25.2909 18.5654 25.3533 18.6132 25.392 18.6783C25.4307 18.7435 25.4428 18.8211 25.4257 18.895C25.4086 18.9689 25.3637 19.0333 25.3003 19.0749L22.061 21.0615L25.0029 19.3629C25.0695 19.3263 25.1477 19.3168 25.2211 19.3365C25.2945 19.3562 25.3575 19.4035 25.3968 19.4686C25.4361 19.5336 25.4488 19.6113 25.4321 19.6855C25.4155 19.7597 25.3708 19.8245 25.3074 19.8665L15.5346 26.0612L24.9999 20.5974C25.0664 20.5623 25.1437 20.5539 25.2161 20.5739C25.2885 20.594 25.3505 20.641 25.3894 20.7052C25.4283 20.7695 25.4412 20.8462 25.4254 20.9197C25.4096 20.9931 25.3663 21.0578 25.3044 21.1004L16.3951 26.7456L24.9999 21.7783C25.0668 21.7425 25.1449 21.734 25.2179 21.7543C25.2909 21.7747 25.3533 21.8225 25.392 21.8876C25.4307 21.9528 25.4428 22.0304 25.4257 22.1043C25.4086 22.1782 25.3637 22.2426 25.3003 22.2842L24.1306 23.001L24.9999 22.4992C25.0667 22.4618 25.1453 22.4518 25.2193 22.4714C25.2932 22.491 25.3566 22.5385 25.3961 22.604C25.4356 22.6695 25.448 22.7478 25.4308 22.8223C25.4136 22.8969 25.3681 22.9618 25.3039 23.0033L19.1474 26.8905L24.9999 23.5104C25.0331 23.4904 25.0698 23.4771 25.108 23.4713C25.1462 23.4655 25.1852 23.4673 25.2228 23.4766C25.2603 23.4859 25.2957 23.5024 25.3268 23.5254C25.358 23.5483 25.3843 23.5771 25.4043 23.6102C25.4243 23.6434 25.4375 23.6801 25.4433 23.7183C25.4492 23.7565 25.4474 23.7955 25.4381 23.8331C25.4288 23.8706 25.4123 23.906 25.3893 23.9371C25.3664 23.9683 25.3375 23.9946 25.3044 24.0146L20.6027 26.9871L24.9999 24.4528C25.0665 24.4172 25.1441 24.4085 25.2169 24.4286C25.2896 24.4486 25.3519 24.4957 25.3909 24.5603C25.4299 24.6249 25.4426 24.702 25.4264 24.7757C25.4102 24.8494 25.3663 24.914 25.3039 24.9563L22.6971 26.5954L24.9999 25.2667C25.0664 25.2307 25.1442 25.2216 25.2172 25.2414C25.2902 25.2612 25.3528 25.3083 25.392 25.3729C25.4313 25.4376 25.4441 25.5148 25.4279 25.5887C25.4117 25.6626 25.3677 25.7274 25.305 25.7697L22.3213 27.6738L24.9999 26.1278C25.0664 26.0918 25.1442 26.0827 25.2172 26.1025C25.2902 26.1222 25.3528 26.1693 25.392 26.234C25.4313 26.2986 25.4441 26.3759 25.4279 26.4498C25.4117 26.5237 25.3677 26.5885 25.305 26.6308L24.1082 27.3917L24.9999 26.877C25.0659 26.8387 25.1442 26.8275 25.2183 26.8457C25.2923 26.864 25.3564 26.9103 25.3971 26.9749C25.4377 27.0395 25.4516 27.1173 25.436 27.192C25.4204 27.2667 25.3764 27.3324 25.3133 27.3752L20.8777 30.4014L25.0005 28.0219C25.0664 27.9843 25.1443 27.9735 25.2179 27.9919C25.2916 28.0102 25.3553 28.0563 25.3958 28.1205C25.4362 28.1847 25.4504 28.262 25.4352 28.3364C25.4201 28.4107 25.3768 28.4764 25.3145 28.5196L22.2789 30.6116L25.0011 29.0403C25.067 29.0026 25.1449 28.9918 25.2185 29.0102C25.2922 29.0285 25.3559 29.0746 25.3963 29.1388C25.4368 29.203 25.451 29.2803 25.4358 29.3547C25.4207 29.4291 25.3774 29.4947 25.315 29.5379L23.8544 30.5392L25.0011 29.8778C25.0657 29.8416 25.1416 29.8311 25.2135 29.8483C25.2855 29.8655 25.3484 29.9093 25.3896 29.9707C25.4308 30.0322 25.4474 30.107 25.436 30.1801C25.4245 30.2533 25.386 30.3194 25.328 30.3654L23.0711 32.1094L24.9999 30.9962C25.0642 30.959 25.1402 30.9475 25.2126 30.964C25.285 30.9804 25.3485 31.0236 25.3904 31.0849C25.4324 31.1462 25.4496 31.221 25.4387 31.2945C25.4277 31.3679 25.3895 31.4345 25.3315 31.4809L24.1789 32.4039L24.9999 31.9327C25.0639 31.8964 25.139 31.8854 25.2106 31.9017C25.2823 31.918 25.3452 31.9605 25.3871 32.0209C25.429 32.0812 25.4469 32.1551 25.4371 32.2279C25.4274 32.3007 25.3908 32.3673 25.3345 32.4145L25.0989 32.6088C25.1471 32.6004 25.1967 32.6043 25.2429 32.6203C25.2892 32.6363 25.3306 32.6637 25.3633 32.7001C25.4086 32.7491 25.4359 32.8121 25.4407 32.8786C25.4455 32.9452 25.4276 33.0114 25.3898 33.0665L24.9481 33.7078C25.0045 33.7029 25.0611 33.7139 25.1115 33.7398C25.1618 33.7656 25.2038 33.8052 25.2326 33.8539C25.2715 33.9214 25.2821 34.0016 25.262 34.0769C25.2419 34.1522 25.1928 34.2164 25.1254 34.2556L24.1483 34.8192C24.0905 34.8523 24.0232 34.8649 23.9574 34.8548C23.8916 34.8447 23.8311 34.8126 23.7858 34.7638C23.7406 34.7149 23.7132 34.6521 23.7083 34.5857C23.7033 34.5193 23.721 34.4532 23.7584 34.3981L24.1636 33.8056L22.4079 34.8186C22.344 34.8549 22.2688 34.8659 22.1972 34.8496C22.1256 34.8333 22.0626 34.7908 22.0207 34.7305C21.9788 34.6701 21.961 34.5963 21.9707 34.5234C21.9805 34.4506 22.0171 34.3841 22.0734 34.3369L22.223 34.2138L21.1746 34.8186C21.1104 34.8556 21.0346 34.867 20.9624 34.8506C20.8901 34.8342 20.8267 34.7911 20.7848 34.73C20.7429 34.669 20.7256 34.5943 20.7362 34.521C20.7469 34.4477 20.7848 34.3811 20.8424 34.3345L21.9944 33.4075L19.549 34.821C19.4844 34.8579 19.4082 34.8689 19.3358 34.8519C19.2634 34.8349 19.2001 34.7912 19.1586 34.7294C19.1171 34.6676 19.1005 34.5925 19.1122 34.519C19.1239 34.4455 19.163 34.3792 19.2216 34.3333L21.4767 32.5941L17.6184 34.8186C17.5526 34.8549 17.4756 34.8646 17.4029 34.8459C17.3302 34.8272 17.2674 34.7814 17.2273 34.7179C17.1872 34.6545 17.1729 34.5781 17.1873 34.5044C17.2016 34.4308 17.2435 34.3653 17.3045 34.3215L18.7669 33.3203L16.166 34.8186C16.1002 34.8558 16.0227 34.8662 15.9494 34.8478C15.8761 34.8294 15.8127 34.7835 15.7723 34.7197C15.7319 34.6558 15.7176 34.5789 15.7324 34.5048C15.7471 34.4307 15.7897 34.3651 15.8515 34.3215L18.89 32.2289L14.4032 34.8204C14.3373 34.8581 14.2594 34.8688 14.1858 34.8505C14.1122 34.8321 14.0485 34.786 14.008 34.7219C13.9675 34.6577 13.9534 34.5803 13.9685 34.506C13.9836 34.4316 14.0269 34.366 14.0893 34.3227L18.523 31.2966L12.419 34.8186C12.3525 34.8547 12.2747 34.8637 12.2017 34.844C12.1287 34.8242 12.0661 34.7771 12.0269 34.7125C11.9876 34.6478 11.9748 34.5705 11.991 34.4967C12.0072 34.4228 12.0512 34.358 12.1139 34.3157L13.3113 33.5547L11.1209 34.8186C11.0544 34.8547 10.9766 34.8637 10.9036 34.844C10.8306 34.8242 10.768 34.7771 10.7288 34.7125C10.6896 34.6478 10.6767 34.5705 10.6929 34.4967C10.7091 34.4228 10.7531 34.358 10.8158 34.3157L13.7977 32.4151L9.63019 34.8186C9.5856 34.8451 9.5348 34.8593 9.48295 34.8599Z" fill="#E1EFFF"/>
<path d="M17.7886 21.3136C17.7274 21.3137 17.6677 21.2947 17.6179 21.2593C17.568 21.2239 17.5303 21.1738 17.5102 21.1161C17.49 21.0583 17.4884 20.9957 17.5055 20.9369C17.5225 20.8782 17.5575 20.8262 17.6054 20.7882L19.4848 19.2958L16.4128 21.0698C16.3473 21.1077 16.2698 21.119 16.1962 21.1013C16.1227 21.0837 16.0588 21.0383 16.0177 20.9748C15.9767 20.9113 15.9616 20.8344 15.9758 20.76C15.9899 20.6857 16.0321 20.6197 16.0936 20.5756L17.8546 19.3076L15.9481 20.4089C15.8833 20.4473 15.8063 20.4593 15.7329 20.4426C15.6595 20.4259 15.5953 20.3817 15.5534 20.3191C15.5116 20.2566 15.4953 20.1803 15.5079 20.1061C15.5205 20.0319 15.561 19.9653 15.6212 19.9201L19.0325 17.2957L15.9063 19.1008C15.8412 19.1378 15.7645 19.1487 15.6918 19.1311C15.6191 19.1136 15.5557 19.0691 15.5146 19.0065C15.4735 18.944 15.4578 18.8682 15.4706 18.7945C15.4834 18.7208 15.5238 18.6547 15.5835 18.6096L17.8534 16.9252L15.9063 18.0495C15.8416 18.0867 15.7652 18.0979 15.6926 18.0809C15.6199 18.0639 15.5565 18.0199 15.515 17.958C15.4735 17.896 15.457 17.8205 15.469 17.7469C15.4809 17.6733 15.5204 17.6069 15.5794 17.5613L17.0353 16.4363L15.9063 17.0907C15.8429 17.127 15.7683 17.1385 15.6969 17.1229C15.6255 17.1073 15.5625 17.0657 15.5201 17.0063C15.4777 16.9468 15.4588 16.8737 15.4673 16.8011C15.4758 16.7286 15.5109 16.6617 15.5658 16.6136L16.5347 15.7714L15.9063 16.1336C15.8497 16.1661 15.7839 16.1789 15.7193 16.1699C15.6546 16.161 15.5948 16.1308 15.5492 16.0842C15.5035 16.0375 15.4747 15.977 15.4671 15.9122C15.4596 15.8474 15.4738 15.7819 15.5075 15.726L16.0576 14.8179C15.9887 14.8547 15.908 14.8627 15.8333 14.8401C15.7585 14.8174 15.6958 14.766 15.6589 14.6971C15.622 14.6282 15.614 14.5475 15.6367 14.4727C15.6593 14.398 15.7108 14.3352 15.7796 14.2984L16.7556 13.7353C16.8122 13.7028 16.8779 13.6901 16.9426 13.699C17.0072 13.708 17.067 13.7381 17.1127 13.7848C17.1583 13.8314 17.1872 13.8919 17.1947 13.9567C17.2022 14.0215 17.188 14.087 17.1543 14.1429L16.6054 15.0505L18.8847 13.7341C18.9481 13.6978 19.0227 13.6863 19.094 13.7019C19.1654 13.7175 19.2284 13.7591 19.2709 13.8186C19.3133 13.878 19.3321 13.9512 19.3237 14.0237C19.3152 14.0963 19.2801 14.1631 19.2251 14.2112L18.2568 15.0534L20.542 13.7341C20.6067 13.6973 20.6828 13.6862 20.7553 13.7032C20.8277 13.7202 20.891 13.764 20.9325 13.8257C20.974 13.8875 20.9905 13.9627 20.9788 14.0362C20.9672 14.1096 20.9281 14.176 20.8695 14.2218L19.413 15.3467L21.9968 13.8514C22.062 13.8131 22.1393 13.8013 22.2129 13.8185C22.2865 13.8357 22.3507 13.8805 22.3921 13.9437C22.4336 14.0069 22.4492 14.0836 22.4357 14.1579C22.4222 14.2323 22.3806 14.2986 22.3196 14.3431L20.0503 16.0305L22.5934 14.5581C22.6582 14.5207 22.7348 14.5093 22.8076 14.5263C22.8805 14.5433 22.9441 14.5874 22.9857 14.6496C23.0272 14.7118 23.0435 14.7875 23.0312 14.8613C23.019 14.9351 22.9791 15.0015 22.9197 15.047L19.5108 17.6738L22.647 15.8627C22.7125 15.8247 22.79 15.8134 22.8636 15.8311C22.9371 15.8488 23.001 15.8941 23.0421 15.9577C23.0831 16.0212 23.0982 16.0981 23.084 16.1724C23.0699 16.2467 23.0277 16.3128 22.9662 16.3568L21.2058 17.6237L22.647 16.7915C22.7114 16.7546 22.7874 16.7434 22.8597 16.7601C22.932 16.7768 22.9954 16.8202 23.0371 16.8816C23.0788 16.943 23.0957 17.0179 23.0846 17.0913C23.0734 17.1647 23.0349 17.2312 22.9768 17.2774L21.0974 18.7698L22.647 17.8752C22.7083 17.8398 22.7802 17.8276 22.8497 17.8408C22.9192 17.8541 22.9816 17.8919 23.0254 17.9474C23.0693 18.0028 23.0918 18.0723 23.0887 18.1429C23.0856 18.2136 23.0572 18.2808 23.0087 18.3322L21.6629 19.7611L22.647 19.1927C22.7055 19.1591 22.7736 19.1466 22.8402 19.1572C22.9068 19.1678 22.9677 19.2009 23.0128 19.2511C23.0578 19.3012 23.0844 19.3652 23.0879 19.4325C23.0914 19.4999 23.0718 19.5663 23.0322 19.6209L22.6394 20.161C22.7027 20.1642 22.7633 20.1878 22.8122 20.2282C22.861 20.2686 22.8955 20.3237 22.9105 20.3853C22.9256 20.4469 22.9203 20.5117 22.8955 20.5701C22.8708 20.6285 22.8278 20.6773 22.7731 20.7093L21.7983 21.2724C21.7399 21.3057 21.6719 21.3181 21.6055 21.3074C21.5392 21.2968 21.4784 21.2637 21.4334 21.2138C21.3885 21.1638 21.3619 21.1 21.3582 21.0329C21.3545 20.9657 21.3739 20.8994 21.4131 20.8448L21.7388 20.3972L20.2175 21.2724C20.1564 21.3078 20.0845 21.32 20.015 21.3068C19.9456 21.2937 19.8832 21.2559 19.8393 21.2006C19.7953 21.1452 19.7728 21.0759 19.7757 21.0053C19.7787 20.9347 19.8069 20.8674 19.8553 20.8159L21.2017 19.3877L17.9359 21.2724C17.8913 21.2988 17.8405 21.3131 17.7886 21.3136ZM18.1267 10.7121C18.0656 10.7121 18.006 10.693 17.9561 10.6576C17.9063 10.6221 17.8688 10.5721 17.8487 10.5143C17.8287 10.4566 17.8271 10.394 17.8442 10.3353C17.8612 10.2767 17.8962 10.2247 17.9441 10.1868L19.3994 9.03947L16.6837 10.6073C16.619 10.6459 16.5421 10.6582 16.4686 10.6418C16.3951 10.6253 16.3307 10.5814 16.2887 10.519C16.2466 10.4565 16.23 10.3804 16.2424 10.3061C16.2547 10.2318 16.295 10.1651 16.3551 10.1196L19.251 7.86389L15.9387 9.77627C15.873 9.81298 15.7957 9.82315 15.7228 9.80468C15.6498 9.78622 15.5867 9.74053 15.5464 9.677C15.506 9.61346 15.4916 9.5369 15.5059 9.46303C15.5203 9.38916 15.5624 9.32358 15.6236 9.27977L16.8734 8.41045L15.9051 8.96938C15.8395 9.00849 15.7612 9.02056 15.6868 9.00304C15.6125 8.98552 15.5478 8.9398 15.5066 8.87551C15.4653 8.81123 15.4506 8.73341 15.4656 8.65851C15.4806 8.5836 15.5242 8.51747 15.587 8.47406L17.3151 7.24606L15.9063 8.06002C15.8415 8.09665 15.7653 8.10743 15.6929 8.09017C15.6206 8.07291 15.5574 8.02891 15.5162 7.967C15.4749 7.90509 15.4586 7.82986 15.4706 7.75643C15.4825 7.683 15.5218 7.61681 15.5806 7.57117L17.7474 5.91381L15.9063 6.97395C15.8414 7.01114 15.7647 7.02224 15.6919 7.00498C15.6191 6.98772 15.5557 6.94341 15.5143 6.88104C15.473 6.81867 15.457 6.74291 15.4695 6.66916C15.4821 6.59541 15.5222 6.52918 15.5817 6.48393L16.2066 6.01276L15.9063 6.1865C15.8424 6.2226 15.7674 6.23358 15.6959 6.2173C15.6244 6.20102 15.5616 6.15864 15.5197 6.09846C15.4777 6.03829 15.4598 5.96464 15.4693 5.89193C15.4788 5.81921 15.5151 5.75267 15.5711 5.70531L15.9769 5.37019L15.908 5.41024C15.851 5.4424 15.785 5.45466 15.7202 5.44509C15.6555 5.43552 15.5958 5.40466 15.5506 5.35739C15.5053 5.31012 15.4771 5.24913 15.4704 5.18404C15.4637 5.11896 15.4788 5.05349 15.5134 4.99796L16.0052 4.2376C15.9362 4.25629 15.8627 4.2492 15.7984 4.21765C15.7342 4.1861 15.6837 4.13226 15.6563 4.06618C15.6289 4.0001 15.6265 3.9263 15.6495 3.85856C15.6725 3.79083 15.7194 3.73379 15.7814 3.69811L16.7556 3.13211C16.8128 3.09891 16.8796 3.08598 16.9451 3.0954C17.0107 3.10482 17.0711 3.13604 17.1167 3.18403C17.1623 3.23201 17.1904 3.29395 17.1965 3.35987C17.2025 3.42578 17.1862 3.49182 17.1502 3.54733L16.6702 4.28884L18.6727 3.13093C18.7365 3.09421 18.8118 3.08276 18.8837 3.09883C18.9556 3.1149 19.0188 3.15732 19.061 3.21772C19.1031 3.27813 19.1211 3.35214 19.1113 3.42514C19.1016 3.49815 19.0649 3.56486 19.0084 3.61212L18.6032 3.94901L20.0232 3.13211C20.0881 3.09492 20.1647 3.08382 20.2375 3.10108C20.3103 3.11834 20.3738 3.16265 20.4151 3.22502C20.4564 3.28739 20.4724 3.36315 20.4599 3.4369C20.4474 3.51065 20.4073 3.57688 20.3477 3.62213L19.721 4.0933L21.3908 3.13211C21.4555 3.09469 21.5321 3.08332 21.605 3.10032C21.6778 3.11732 21.7415 3.1614 21.783 3.22362C21.8245 3.28583 21.8408 3.36152 21.8286 3.43532C21.8163 3.50912 21.7764 3.57548 21.717 3.62095L19.5502 5.27654L22.4268 3.61565C22.4924 3.57655 22.5706 3.56448 22.645 3.58199C22.7194 3.59951 22.784 3.64524 22.8253 3.70952C22.8666 3.77381 22.8812 3.85162 22.8662 3.92652C22.8512 4.00143 22.8077 4.06757 22.7448 4.11097L21.0173 5.33839L22.6441 4.39898C22.7099 4.36067 22.788 4.34936 22.862 4.36742C22.936 4.38548 23.0001 4.43151 23.0409 4.49584C23.0817 4.56017 23.096 4.6378 23.0807 4.71243C23.0655 4.78706 23.0219 4.85288 22.9592 4.89607L21.707 5.76657L22.6441 5.22589C22.7086 5.18925 22.7846 5.17833 22.8569 5.19531C22.9291 5.21229 22.9923 5.25592 23.0337 5.31748C23.0752 5.37903 23.0919 5.45397 23.0805 5.5273C23.069 5.60062 23.0303 5.66694 22.9721 5.71297L20.0762 7.96872L22.6441 6.48923C22.7086 6.4521 22.7847 6.44075 22.8572 6.45748C22.9297 6.4742 22.9932 6.51775 23.0349 6.57938C23.0766 6.641 23.0935 6.71613 23.082 6.78966C23.0706 6.86319 23.0318 6.92966 22.9733 6.97572L21.5186 8.12186L22.6441 7.47399C22.708 7.43711 22.7834 7.42557 22.8555 7.44167C22.9275 7.45776 22.9909 7.50032 23.033 7.5609C23.0751 7.62149 23.093 7.69569 23.083 7.76882C23.0731 7.84194 23.036 7.90866 22.9792 7.95577L22.4038 8.43401L22.6441 8.29501C22.7045 8.25997 22.7755 8.24757 22.8442 8.26003C22.913 8.27249 22.9751 8.30899 23.0194 8.36301C23.0637 8.41703 23.0874 8.48506 23.0862 8.55492C23.085 8.62479 23.059 8.69195 23.0128 8.7444L22.5451 9.27918L22.6188 9.23678C22.6864 9.19834 22.7664 9.18821 22.8415 9.20858C22.9165 9.22895 22.9805 9.27819 23.0193 9.34553C23.0582 9.41288 23.0689 9.49287 23.049 9.56805C23.0291 9.64323 22.9803 9.7075 22.9132 9.74682L21.3012 10.6709C21.2408 10.7056 21.1701 10.7177 21.1016 10.7052C21.0331 10.6927 20.9713 10.6563 20.9271 10.6025C20.8829 10.5487 20.8591 10.4809 20.8601 10.4113C20.8612 10.3417 20.8868 10.2746 20.9325 10.2221L21.4002 9.68675L19.6963 10.6709C19.6324 10.7078 19.5569 10.7193 19.4849 10.7032C19.4129 10.6871 19.3495 10.6446 19.3074 10.584C19.2652 10.5234 19.2474 10.4492 19.2573 10.3761C19.2673 10.303 19.3043 10.2362 19.3612 10.1891L19.9372 9.71031L18.2739 10.6709C18.2294 10.6976 18.1786 10.7119 18.1267 10.7121ZM20.1492 31.9151C20.089 31.915 20.0302 31.8964 19.9809 31.8619C19.9315 31.8273 19.8939 31.7785 19.8732 31.7219C19.8524 31.6654 19.8496 31.6038 19.8649 31.5456C19.8802 31.4873 19.9131 31.4352 19.959 31.3962L20.1215 31.2578L19.0514 31.8738C18.9887 31.9074 18.9161 31.9173 18.8467 31.9015C18.7774 31.8857 18.7162 31.8454 18.6743 31.788C18.6324 31.7306 18.6126 31.6599 18.6187 31.5891C18.6248 31.5183 18.6563 31.4521 18.7074 31.4027L20.4867 29.8083L16.9228 31.865C16.8585 31.9017 16.7827 31.9128 16.7106 31.8961C16.6384 31.8794 16.5752 31.8361 16.5335 31.7749C16.4918 31.7137 16.4748 31.639 16.4857 31.5658C16.4966 31.4925 16.5347 31.4261 16.5924 31.3797L19.4595 29.1057L15.9799 31.1141C15.9152 31.1505 15.8392 31.1611 15.767 31.1438C15.6948 31.1266 15.6318 31.0827 15.5906 31.021C15.5494 30.9594 15.533 30.8844 15.5446 30.8111C15.5563 30.7378 15.5952 30.6716 15.6536 30.6258L19.082 27.989L15.9063 29.823C15.8403 29.8601 15.7627 29.8704 15.6893 29.8518C15.616 29.8331 15.5527 29.787 15.5125 29.7229C15.4723 29.6588 15.4583 29.5818 15.4733 29.5076C15.4884 29.4335 15.5315 29.368 15.5935 29.3248L16.0877 28.9885L15.9063 29.0927C15.8413 29.1294 15.7648 29.1401 15.6923 29.1225C15.6198 29.105 15.5566 29.0606 15.5156 28.9983C15.4745 28.9361 15.4586 28.8605 15.4711 28.7869C15.4836 28.7134 15.5236 28.6473 15.5829 28.6021L17.2727 27.3388L15.9051 28.128C15.8403 28.1641 15.7642 28.1745 15.6921 28.157C15.62 28.1395 15.5572 28.0954 15.5161 28.0336C15.4751 27.9717 15.459 27.8967 15.4709 27.8234C15.4829 27.7502 15.522 27.6842 15.5806 27.6385L16.1501 27.2068L15.9051 27.3488C15.8412 27.3857 15.7657 27.3972 15.6937 27.3811C15.6217 27.365 15.5583 27.3225 15.5162 27.2619C15.474 27.2013 15.4562 27.1271 15.4661 27.0539C15.4761 26.9808 15.5131 26.9141 15.57 26.867L15.9286 26.569L15.9051 26.5825C15.8477 26.6158 15.7807 26.6287 15.715 26.6191C15.6493 26.6096 15.5888 26.5781 15.5433 26.5298C15.4977 26.4815 15.4698 26.4193 15.4641 26.3532C15.4583 26.2871 15.4751 26.2209 15.5117 26.1655L15.9911 25.4387C15.9224 25.4541 15.8505 25.4443 15.7884 25.4112C15.7262 25.3781 15.678 25.3239 15.6525 25.2583C15.6269 25.1927 15.6257 25.1202 15.649 25.0538C15.6723 24.9873 15.7187 24.9315 15.7796 24.8963L16.7567 24.3327C16.8141 24.2994 16.881 24.2865 16.9467 24.296C17.0123 24.3055 17.0728 24.3369 17.1184 24.3851C17.164 24.4334 17.192 24.4956 17.1978 24.5618C17.2035 24.628 17.1868 24.6942 17.1502 24.7497L16.6878 25.4505L18.6373 24.3256C18.7012 24.2895 18.7762 24.2785 18.8477 24.2948C18.9192 24.3111 18.982 24.3535 19.0239 24.4136C19.0658 24.4738 19.0838 24.5475 19.0743 24.6202C19.0647 24.6929 19.0284 24.7594 18.9724 24.8068L18.6138 25.1048L19.9684 24.3215C20.0332 24.2853 20.1093 24.2749 20.1814 24.2924C20.2535 24.31 20.3163 24.354 20.3573 24.4159C20.3983 24.4777 20.4145 24.5528 20.4025 24.626C20.3906 24.6993 20.3514 24.7653 20.2929 24.8109L19.7234 25.2426L21.3248 24.3173C21.3898 24.2807 21.4662 24.27 21.5387 24.2875C21.6112 24.305 21.6744 24.3494 21.7155 24.4117C21.7565 24.474 21.7724 24.5496 21.7599 24.6231C21.7474 24.6967 21.7075 24.7627 21.6481 24.808L19.9584 26.0684L22.64 24.5205C22.7059 24.4835 22.7836 24.4732 22.8569 24.4918C22.9302 24.5105 22.9935 24.5566 23.0337 24.6207C23.0739 24.6847 23.088 24.7618 23.0729 24.836C23.0578 24.9101 23.0148 24.9756 22.9527 25.0188L22.4586 25.3551L22.64 25.2509C22.7046 25.2145 22.7806 25.2038 22.8528 25.2211C22.925 25.2383 22.988 25.2822 23.0292 25.3439C23.0705 25.4056 23.0869 25.4806 23.0752 25.5538C23.0635 25.6271 23.0246 25.6933 22.9662 25.7391L19.5402 28.3807L22.6441 26.589C22.7084 26.553 22.7839 26.5424 22.8556 26.5593C22.9273 26.5762 22.9901 26.6194 23.0316 26.6804C23.073 26.7414 23.0901 26.8156 23.0794 26.8886C23.0687 26.9615 23.0311 27.0278 22.9739 27.0743L20.1068 29.3454L22.6441 27.8812C22.7067 27.8476 22.7794 27.8378 22.8487 27.8536C22.918 27.8693 22.9793 27.9096 23.0212 27.9671C23.0631 28.0245 23.0828 28.0951 23.0767 28.1659C23.0706 28.2367 23.0391 28.303 22.988 28.3524L21.2094 29.9461L22.6441 29.1186C22.7076 29.0831 22.7821 29.0723 22.8531 29.0884C22.9241 29.1045 22.9867 29.1464 23.0286 29.2059C23.0706 29.2655 23.089 29.3384 23.0803 29.4107C23.0716 29.4831 23.0364 29.5496 22.9816 29.5975L22.7413 29.8018C22.7994 29.7918 22.8593 29.7995 22.9131 29.8239C22.9668 29.8483 23.012 29.8883 23.0427 29.9388C23.0735 29.9892 23.0883 30.0477 23.0854 30.1066C23.0825 30.1656 23.0619 30.2224 23.0263 30.2695L22.657 30.7607C22.7025 30.7657 22.7461 30.7815 22.7843 30.8067C22.8225 30.8319 22.8542 30.8658 22.8767 30.9056C22.9156 30.9731 22.9262 31.0533 22.9061 31.1285C22.886 31.2038 22.8369 31.2681 22.7695 31.3072L21.7924 31.8709C21.7337 31.9045 21.6651 31.9168 21.5984 31.9058C21.5316 31.8948 21.4706 31.8611 21.4257 31.8105C21.3809 31.7598 21.3548 31.6952 21.352 31.6276C21.3492 31.56 21.3697 31.4934 21.4102 31.4392L21.6888 31.0687L20.2964 31.8738C20.2519 31.9005 20.2011 31.9147 20.1492 31.9151Z" fill="#4295A8"/>
<path d="M32.4681 20.6899C32.411 20.6899 32.3552 20.6734 32.3073 20.6424C32.2595 20.6113 32.2217 20.567 32.1985 20.5148C32.1754 20.4627 32.1679 20.4049 32.1769 20.3486C32.186 20.2922 32.2112 20.2397 32.2496 20.1975L33.0795 19.2816L31.7496 20.0473C31.6893 20.082 31.6187 20.0943 31.5502 20.0819C31.4818 20.0695 31.4199 20.0333 31.3756 19.9797C31.3313 19.9261 31.3074 19.8585 31.3081 19.7889C31.3089 19.7194 31.3342 19.6523 31.3797 19.5997L32.5258 18.2745L30.9073 19.211C30.8437 19.2472 30.7688 19.2585 30.6973 19.2425C30.6259 19.2265 30.5629 19.1845 30.5207 19.1246C30.4786 19.0647 30.4602 18.9913 30.4693 18.9186C30.4784 18.8459 30.5142 18.7792 30.5698 18.7315L30.7336 18.5937L30.4509 18.7563C30.3881 18.7951 30.3131 18.8089 30.2406 18.7951C30.1681 18.7812 30.1035 18.7406 30.0595 18.6814C30.0155 18.6221 29.9954 18.5485 30.0031 18.4752C30.0108 18.4018 30.0457 18.3339 30.101 18.2851L30.8178 17.6078L29.8572 18.162C29.795 18.1989 29.7213 18.2116 29.6503 18.1977C29.5793 18.1838 29.516 18.1442 29.4723 18.0865C29.4286 18.0289 29.4076 17.9571 29.4135 17.885C29.4193 17.8129 29.4514 17.7455 29.5038 17.6955L30.2889 16.9423L29.5132 17.3905C29.4506 17.4249 29.3775 17.4354 29.3077 17.42C29.2378 17.4045 29.176 17.3642 29.1337 17.3065C29.0914 17.2488 29.0716 17.1776 29.078 17.1064C29.0843 17.0351 29.1163 16.9686 29.1681 16.9193L30.2477 15.941C30.2431 15.9348 30.239 15.9283 30.2353 15.9216C30.1963 15.8539 30.1857 15.7736 30.2059 15.6981C30.2261 15.6227 30.2755 15.5584 30.3431 15.5193L31.3862 14.9168C31.4488 14.8823 31.5219 14.8718 31.5918 14.8873C31.6616 14.9027 31.7234 14.9431 31.7657 15.0008C31.808 15.0585 31.8278 15.1296 31.8214 15.2008C31.8151 15.2721 31.7831 15.3386 31.7313 15.388L31.6047 15.5058L32.0794 15.2313C32.1417 15.1938 32.2157 15.1807 32.2871 15.1944C32.3585 15.2082 32.4222 15.2479 32.4661 15.3059C32.51 15.3639 32.5309 15.4361 32.5247 15.5085C32.5185 15.581 32.4858 15.6486 32.4328 15.6983L31.6506 16.4528L32.6978 15.8479C32.7606 15.8091 32.8356 15.7953 32.9081 15.8092C32.9805 15.823 33.0452 15.8636 33.0891 15.9228C33.1331 15.9821 33.1533 16.0557 33.1456 16.1291C33.1379 16.2024 33.103 16.2703 33.0476 16.3191L32.3303 16.997L33.2903 16.4428C33.354 16.4058 33.4293 16.394 33.5013 16.4098C33.5733 16.4256 33.6368 16.4678 33.6792 16.5281C33.7215 16.5883 33.7398 16.6623 33.7303 16.7354C33.7208 16.8085 33.6842 16.8754 33.6278 16.9228L33.4652 17.06L33.7456 16.8981C33.8059 16.863 33.8768 16.8505 33.9455 16.8628C34.0142 16.8751 34.0763 16.9114 34.1207 16.9653C34.1651 17.0191 34.189 17.0869 34.188 17.1567C34.187 17.2265 34.1613 17.2937 34.1154 17.3463L32.9693 18.6715L34.4105 17.8393C34.4713 17.8039 34.5428 17.7914 34.612 17.8042C34.6812 17.8169 34.7436 17.854 34.7878 17.9088C34.832 17.9635 34.8551 18.0323 34.853 18.1026C34.8509 18.1729 34.8237 18.2402 34.7763 18.2922L33.4959 19.7057C33.5179 19.7259 33.5366 19.7496 33.5512 19.7758C33.5901 19.8433 33.6007 19.9235 33.5806 19.9988C33.5605 20.0741 33.5114 20.1383 33.444 20.1775L32.6195 20.6551C32.5731 20.6803 32.5208 20.6924 32.4681 20.6899Z" fill="#CD4C60"/>
<path d="M20.77 29.442C20.7105 29.442 20.6525 29.4239 20.6035 29.3903C20.5545 29.3567 20.5168 29.309 20.4954 29.2536C20.474 29.1982 20.4699 29.1376 20.4836 29.0797C20.4972 29.0219 20.5281 28.9696 20.5721 28.9296L21.3377 28.2352L20.6463 28.6339C20.586 28.6686 20.5153 28.6808 20.4468 28.6684C20.3783 28.6559 20.3165 28.6196 20.2722 28.5659C20.228 28.5122 20.2042 28.4445 20.205 28.3749C20.2059 28.3053 20.2314 28.2383 20.277 28.1857L21.3112 27.0013L20.8772 27.2522C20.8164 27.2876 20.745 27.3001 20.6758 27.2874C20.6067 27.2747 20.5443 27.2377 20.5001 27.1831C20.4558 27.1285 20.4326 27.0598 20.4345 26.9895C20.4365 26.9192 20.4636 26.852 20.5108 26.7999L20.813 26.4642C20.7675 26.4557 20.7247 26.4367 20.688 26.4086C20.6513 26.3805 20.6217 26.3442 20.6017 26.3025C20.5816 26.2609 20.5716 26.2152 20.5725 26.1689C20.5734 26.1227 20.5852 26.0774 20.6068 26.0366L20.9325 25.4217C20.8987 25.3903 20.8727 25.3514 20.8567 25.3081C20.8407 25.2648 20.835 25.2184 20.8403 25.1726C20.8455 25.1267 20.8614 25.0827 20.8867 25.0441C20.9121 25.0056 20.9461 24.9735 20.9861 24.9505L21.3395 24.745C21.3948 24.7132 21.459 24.7003 21.5223 24.7082C21.5856 24.716 21.6446 24.7442 21.6905 24.7885C21.7364 24.8328 21.7667 24.8908 21.7768 24.9538C21.7869 25.0168 21.7762 25.0814 21.7465 25.1378L21.604 25.407L21.9721 25.1949C22.0327 25.1599 22.1039 25.1477 22.1728 25.1605C22.2417 25.1732 22.3038 25.2101 22.3479 25.2645C22.392 25.319 22.4153 25.3873 22.4136 25.4574C22.4118 25.5274 22.3852 25.5945 22.3384 25.6467L22.1894 25.8116L22.5487 25.6049C22.6091 25.5702 22.6798 25.558 22.7483 25.5706C22.8168 25.5831 22.8786 25.6195 22.9228 25.6733C22.967 25.7271 22.9907 25.7949 22.9897 25.8645C22.9887 25.9341 22.9631 26.0011 22.9174 26.0537L21.8855 27.2387L23.4227 26.3511C23.4854 26.3166 23.5584 26.3061 23.6283 26.3216C23.6981 26.337 23.7599 26.3774 23.8022 26.4351C23.8445 26.4928 23.8643 26.5639 23.858 26.6351C23.8516 26.7064 23.8196 26.7729 23.7678 26.8223L23.0033 27.5155L23.8939 27.0019C23.9554 26.9668 24.0275 26.9551 24.097 26.9688C24.1664 26.9826 24.2286 27.0209 24.2721 27.0768C24.3156 27.1327 24.3375 27.2024 24.3338 27.2731C24.3301 27.3438 24.3011 27.4108 24.252 27.4619L23.9575 27.767L24.3032 27.5673C24.3367 27.546 24.3742 27.5317 24.4134 27.5252C24.4526 27.5188 24.4927 27.5203 24.5312 27.5298C24.5698 27.5392 24.6061 27.5564 24.6379 27.5802C24.6696 27.6041 24.6963 27.6341 24.7161 27.6685C24.736 27.7028 24.7487 27.7409 24.7535 27.7803C24.7583 27.8197 24.7551 27.8597 24.744 27.8979C24.7329 27.936 24.7143 27.9715 24.6891 28.0023C24.664 28.033 24.6329 28.0584 24.5977 28.0768L22.4114 29.3413C22.3498 29.3768 22.2775 29.3889 22.2077 29.3752C22.1379 29.3615 22.0754 29.3231 22.0318 29.267C21.9881 29.2108 21.9663 29.1408 21.9702 29.0698C21.9742 28.9988 22.0037 28.9316 22.0533 28.8807L22.3478 28.578L20.9166 29.4025C20.8721 29.4286 20.8215 29.4422 20.77 29.442Z" fill="#DBB16E"/>
<path d="M24.557 28.3577C24.4969 28.3576 24.4382 28.3391 24.3889 28.3046C24.3396 28.2702 24.302 28.2214 24.2813 28.165C24.2605 28.1085 24.2575 28.0471 24.2727 27.9889C24.2879 27.9307 24.3205 27.8785 24.3662 27.8394L26.023 26.4259L23.9834 27.6038C23.9182 27.6406 23.8415 27.6512 23.7688 27.6334C23.696 27.6157 23.6328 27.5709 23.592 27.5082C23.5511 27.4455 23.5356 27.3696 23.5487 27.2959C23.5618 27.2222 23.6024 27.1563 23.6624 27.1115L26.672 24.9181L23.2619 26.8871C23.1962 26.9248 23.1184 26.9357 23.0448 26.9176C22.9712 26.8994 22.9075 26.8536 22.8668 26.7897C22.8262 26.7257 22.8117 26.6485 22.8265 26.5742C22.8413 26.4999 22.8842 26.4341 22.9462 26.3906L26.6567 23.8115L22.5504 26.1815C22.484 26.2186 22.4059 26.2285 22.3323 26.2093C22.2587 26.1901 22.1954 26.1431 22.1557 26.0782C22.116 26.0134 22.1029 25.9357 22.1191 25.8614C22.1354 25.7871 22.1798 25.722 22.243 25.6797L22.4603 25.5389L22.1069 25.7421C22.0416 25.7796 21.9643 25.7906 21.8911 25.7729C21.8179 25.7552 21.7542 25.7101 21.7132 25.6468C21.6722 25.5836 21.6571 25.5071 21.6708 25.433C21.6846 25.3589 21.7262 25.2929 21.7871 25.2485L26.4323 21.8944L22.5004 24.1643C22.4352 24.2019 22.358 24.2132 22.2847 24.1957C22.2115 24.1782 22.1477 24.1333 22.1065 24.0703C22.0653 24.0072 22.0499 23.9308 22.0633 23.8567C22.0767 23.7826 22.1181 23.7164 22.1788 23.6719L25.9782 20.8837L25.5112 21.1529C25.4461 21.1893 25.3696 21.1997 25.2971 21.182C25.2246 21.1642 25.1616 21.1196 25.1207 21.0571C25.0799 20.9947 25.0643 20.919 25.0771 20.8455C25.0899 20.772 25.1301 20.7061 25.1896 20.6611L26.9194 19.3877C26.8989 19.3708 26.8811 19.3509 26.8664 19.3288C26.8234 19.2702 26.8036 19.1978 26.8108 19.1255C26.818 19.0532 26.8516 18.9861 26.9053 18.9371L28.7052 17.2998C28.6974 17.2419 28.707 17.183 28.7328 17.1305C28.7586 17.0781 28.7994 17.0345 28.85 17.0053L29.3607 16.7108C29.4234 16.6759 29.4967 16.6651 29.5668 16.6803C29.6369 16.6956 29.699 16.736 29.7415 16.7939C29.7839 16.8517 29.8038 16.9231 29.7973 16.9946C29.7909 17.066 29.7585 17.1327 29.7064 17.182L29.3218 17.5354L29.8701 17.2185C29.9354 17.1809 30.0125 17.1696 30.0858 17.1871C30.159 17.2046 30.2228 17.2494 30.264 17.3125C30.3052 17.3756 30.3207 17.452 30.3072 17.5261C30.2938 17.6002 30.2524 17.6663 30.1917 17.7109L29.8295 17.9777L30.3384 17.6832C30.4035 17.6467 30.48 17.6363 30.5525 17.6541C30.6249 17.6719 30.688 17.7165 30.7288 17.779C30.7696 17.8414 30.7853 17.917 30.7725 17.9906C30.7597 18.0641 30.7195 18.13 30.66 18.175L26.8617 20.9661L31.1488 18.4925C31.2142 18.455 31.2914 18.4439 31.3646 18.4617C31.4379 18.4794 31.5015 18.5245 31.5425 18.5877C31.5835 18.651 31.5987 18.7275 31.5849 18.8016C31.5712 18.8757 31.5295 18.9417 31.4686 18.986L26.8216 22.3432L32.0087 19.3488C32.0752 19.3102 32.1541 19.2991 32.2287 19.3178C32.3032 19.3366 32.3675 19.3838 32.4077 19.4493C32.4479 19.5149 32.4609 19.5935 32.4439 19.6685C32.4269 19.7435 32.3813 19.8089 32.3167 19.8506L32.0988 19.992L32.4522 19.7882C32.5179 19.7515 32.5951 19.7413 32.6681 19.7598C32.741 19.7783 32.8042 19.8239 32.8445 19.8875C32.8848 19.951 32.8993 20.0276 32.8849 20.1015C32.8706 20.1753 32.8285 20.2409 32.7673 20.2847L29.0521 22.8626L31.1724 21.6376C31.2375 21.6008 31.3143 21.5902 31.387 21.608C31.4597 21.6257 31.5229 21.6705 31.5638 21.7332C31.6047 21.7959 31.6201 21.8718 31.607 21.9455C31.594 22.0192 31.5533 22.0852 31.4933 22.13L28.4861 24.3215L28.5096 24.3086C28.5731 24.2731 28.6475 24.2624 28.7184 24.2785C28.7893 24.2945 28.8517 24.3363 28.8937 24.3957C28.9357 24.455 28.9542 24.5278 28.9457 24.6001C28.9372 24.6723 28.9023 24.7388 28.8477 24.7868L26.2168 27.0319C26.231 27.0474 26.2435 27.0643 26.2539 27.0826C26.2927 27.1502 26.3032 27.2304 26.283 27.3057C26.2628 27.381 26.2136 27.4452 26.1461 27.4843L24.7013 28.3183C24.6575 28.3438 24.6078 28.3574 24.557 28.3577Z" fill="#FDE05E"/>
<path d="M4.40074 34.7009C4.34408 34.7011 4.28859 34.6847 4.24113 34.6537C4.19543 34.6242 4.1588 34.5826 4.1353 34.5336C4.1118 34.4845 4.10236 34.4299 4.10802 34.3758L4.18046 33.6731L3.78585 33.901C3.72997 33.9331 3.66512 33.9459 3.60125 33.9376C3.53737 33.9292 3.47799 33.9002 3.43221 33.8549C3.38642 33.8096 3.35676 33.7505 3.34777 33.6867C3.33877 33.6229 3.35094 33.5579 3.38241 33.5017L3.74816 32.8539L3.10736 33.2231C3.05016 33.257 2.98309 33.2703 2.91729 33.2608C2.85149 33.2512 2.79095 33.2195 2.74573 33.1707C2.70017 33.1224 2.6723 33.0601 2.66663 32.9939C2.66096 32.9277 2.67784 32.8615 2.71452 32.8061L3.36238 31.819L2.31284 32.4263C2.25238 32.4613 2.18143 32.4737 2.11267 32.4612C2.04392 32.4488 1.98183 32.4123 1.9375 32.3583C1.89318 32.3042 1.86951 32.2362 1.87073 32.1664C1.87195 32.0965 1.89797 32.0293 1.94414 31.9769L2.22449 31.6588L1.79396 31.9068C1.74002 31.9379 1.67761 31.9511 1.61568 31.9446C1.55376 31.938 1.49551 31.912 1.44931 31.8702C1.40311 31.8285 1.37133 31.7731 1.35854 31.7122C1.34576 31.6513 1.35262 31.5878 1.37814 31.531L1.53245 31.1877L1.24209 31.3561C1.2066 31.3761 1.16738 31.3886 1.12686 31.3929C1.08634 31.3971 1.04538 31.393 1.0065 31.3808C0.967783 31.3683 0.932089 31.3478 0.901677 31.3207C0.871264 31.2937 0.846795 31.2606 0.829814 31.2236L0.673148 30.8849C0.604296 30.9024 0.53146 30.8943 0.468061 30.8623C0.404663 30.8303 0.354973 30.7764 0.32815 30.7107C0.301327 30.6449 0.299177 30.5717 0.322097 30.5044C0.345017 30.4372 0.391461 30.3805 0.452873 30.3448L0.663135 30.2235C0.698373 30.2029 0.737569 30.1899 0.778165 30.1854C0.81876 30.181 0.85984 30.1851 0.898723 30.1976C0.937445 30.2102 0.973139 30.2306 1.00355 30.2577C1.03396 30.2848 1.05843 30.3179 1.07541 30.3549L1.22737 30.6841L2.02483 30.2247C2.07877 30.1936 2.14118 30.1803 2.20311 30.1869C2.26503 30.1935 2.32328 30.2195 2.36948 30.2613C2.41568 30.303 2.44746 30.3583 2.46025 30.4193C2.47303 30.4802 2.46617 30.5437 2.44065 30.6005L2.28692 30.9432L3.47782 30.2541C3.53828 30.2191 3.60923 30.2067 3.67799 30.2192C3.74675 30.2316 3.80883 30.2681 3.85316 30.3221C3.89748 30.3762 3.92115 30.4442 3.91993 30.5141C3.91872 30.5839 3.89269 30.6511 3.84652 30.7035L3.56676 31.0216L4.14925 30.6853C4.20667 30.6523 4.27353 30.6396 4.33903 30.6493C4.40454 30.659 4.46487 30.6905 4.51028 30.7387C4.55568 30.7869 4.58352 30.849 4.58929 30.9149C4.59507 30.9809 4.57844 31.0469 4.54209 31.1023L3.89422 32.0894L4.38837 31.8037C4.44425 31.7717 4.5091 31.7588 4.57298 31.7672C4.63685 31.7755 4.69623 31.8046 4.74202 31.8499C4.7878 31.8952 4.81746 31.9543 4.82646 32.0181C4.83545 32.0819 4.82328 32.1468 4.79181 32.203L4.42312 32.8568C4.46737 32.8393 4.51512 32.8325 4.56249 32.8369C4.60986 32.8413 4.65553 32.8568 4.69581 32.8821C4.7414 32.9117 4.77792 32.9534 4.80131 33.0024C4.8247 33.0515 4.83405 33.1061 4.82833 33.1601L4.72762 34.1084C4.75112 34.1291 4.77102 34.1536 4.78651 34.1808C4.82581 34.2481 4.83684 34.3282 4.81719 34.4036C4.79754 34.479 4.74881 34.5435 4.68168 34.5831L4.55092 34.6608C4.50542 34.6875 4.45351 34.7014 4.40074 34.7009Z" fill="#B0CCDD"/>
<path d="M0.128945 27.9089C0.128945 28.6563 -0.0548139 29.6905 0.178418 30.4415C0.165581 30.4666 0.158192 30.4941 0.156734 30.5223C0.155275 30.5504 0.159781 30.5786 0.169956 30.6049C0.180131 30.6312 0.195745 30.655 0.215777 30.6749C0.235809 30.6947 0.259807 30.7101 0.2862 30.72C1.00887 32.1194 2.95718 33.808 4.21345 34.599C4.20226 34.814 4.41606 34.8487 4.60865 34.7704C10.4294 35.1461 16.5058 34.7863 22.3773 34.907C26.6997 35.7269 25.6266 30.9303 25.4682 28.1669C28.4643 25.1042 31.6111 22.1299 34.5472 19.026C35.3352 17.119 32.368 13.9933 30.5221 15.3155C28.6724 16.7486 26.9772 18.3708 25.4641 20.1557C25.4376 14.2872 25.51 8.41575 25.4641 2.54549C25.8345 -0.398773 23.1936 -0.0571701 21.101 0.0983179C14.6441 0.187252 8.13422 -0.0359672 1.70032 0.0977289C-0.667931 0.599531 0.128945 4.05502 0.128945 5.83783V27.9089ZM1.06246 30.7442C4.2429 30.5946 4.39132 30.6818 4.21345 33.8799C3.01013 33.0005 1.94763 31.9432 1.06246 30.7442ZM21.5097 31.3555C20.0821 31.4403 18.4712 31.4203 17.0394 31.3555C15.8156 31.034 16.08 29.8495 16.08 28.9885C15.4775 24.1395 17.0872 24.7255 21.0668 24.8421C20.1274 26.4877 19.0184 30.4998 22.4803 29.5309C22.5057 30.3089 22.5039 31.1441 21.5097 31.3555ZM22.948 28.7334C20.1863 29.2924 20.6987 27.2681 21.5221 25.4658L22.7448 26.6909C23.2601 27.2251 23.8344 27.7675 24.3633 28.31C23.913 28.5149 23.4368 28.6574 22.948 28.7334ZM25.1678 27.7758C25.05 27.8088 24.9799 27.9266 24.8828 27.9955L23.5158 26.632L31.1282 19.0166L32.4728 20.3612C29.9821 22.8008 27.6026 25.2774 25.1678 27.7758ZM30.564 16.0735C31.8726 14.9545 34.3552 17.3375 34.076 18.7581L32.9269 19.9071L29.7235 16.7037C29.9813 16.4654 30.2629 16.2542 30.564 16.0735ZM29.26 17.1496L30.7189 18.6091L23.1064 26.2197L21.8213 24.9346C22.7354 23.6051 23.8309 22.4099 25.0759 21.3837C25.1636 21.3694 25.2454 21.3304 25.3116 21.2712C25.3779 21.2121 25.4259 21.1352 25.4499 21.0497C26.8179 19.8491 28.0917 18.5452 29.26 17.1496ZM1.61315 0.747952C7.05464 0.6172 12.6269 0.83453 18.1108 0.747952C20.3253 0.901084 25.0989 -0.558384 24.8657 3.02668V20.8189C23.7625 22.0675 22.6924 23.16 21.5221 24.2879C15.1023 24.2013 15.2107 23.5605 15.4027 30.2159C15.4875 32.5405 18.2674 31.9209 19.9065 31.9209C21.8873 32.1524 23.4769 31.7666 23.1583 29.3825C23.7447 29.2689 24.3043 29.045 24.8074 28.7228C24.8312 28.7342 24.8575 28.7397 24.8839 28.7387C25.1484 32.2726 25.7957 35.0254 21.1734 34.258C15.7661 34.1649 10.2616 34.3999 4.89135 34.258C5.06098 30.1287 4.88723 30.0174 0.786824 30.177C0.601887 23.0617 0.80037 15.8921 0.727927 8.75735C0.727338 7.20718 -0.265076 1.49771 1.61315 0.747952Z" fill="#262626"/>
<path d="M15.7255 20.7505C16.9111 22.0504 19.9189 21.1222 21.6152 21.3848C23.7784 21.0356 23.0793 17.8098 23.0793 16.2573C23.0793 15.4669 23.2254 14.4904 22.531 13.9332C21.9379 13.4555 20.959 13.6216 20.2535 13.6216C18.698 13.6216 15.6842 12.9579 15.4698 15.1971C15.5488 16.9882 15.1253 19.0531 15.7255 20.7505ZM16.9034 14.3166C17.6388 14.2259 18.3825 14.2259 19.1179 14.3166C21.9821 13.9874 22.9062 14.3455 22.5375 17.3899C22.5375 18.2362 22.9627 20.4766 21.6458 20.6881C18.6356 20.5114 15.2708 21.866 16.0117 17.331C16.0123 16.3839 15.6236 14.6871 16.904 14.3166H16.9034ZM15.6671 9.98297C16.6778 11.5308 19.9596 10.513 21.6523 10.7881C23.7678 10.4471 23.0734 7.23366 23.0734 5.71294C23.0734 4.9514 23.2095 4.05499 22.6264 3.4619C22.0133 2.83759 21.0132 3.01428 20.2175 3.01428C18.678 3.01428 15.6459 2.3511 15.4769 4.58153C15.5446 6.34137 15.1966 8.28674 15.6671 9.98297ZM16.9405 3.72104C17.7235 3.63594 18.5134 3.63594 19.2964 3.72104C22.1152 3.45071 23.0316 3.92601 22.5445 6.91797C22.5445 7.80437 22.9568 9.86577 21.6099 10.0831C18.5166 9.72971 15.2054 11.6474 16.0058 6.88617C16.0058 5.91496 15.5847 4.05558 16.9405 3.72104Z" fill="#262626"/>
<path d="M18.3976 18.7987C19.1815 19.4307 20.1598 16.954 20.7659 16.4752C20.9897 16.1766 20.3436 15.8992 20.1404 16.1701L18.6173 18.2009C18.4406 17.8098 17.4871 17.7032 17.8086 18.2097L18.3976 18.7987ZM18.5019 8.35685C18.5288 8.38264 18.5614 8.40182 18.597 8.41285C18.6326 8.42389 18.6703 8.42648 18.7071 8.42042C18.7439 8.41437 18.7788 8.39983 18.809 8.37796C18.8392 8.35609 18.8639 8.32748 18.8812 8.29442L20.6481 5.93854C20.8689 5.64405 20.5356 5.1393 20.2582 5.50859L18.6809 7.6118L18.2816 7.21307C17.9924 6.92388 17.6767 7.5317 17.9129 7.76788L18.5019 8.35685ZM10.3859 4.85307H12.7417C13.0857 4.85307 13.2918 4.23818 12.8513 4.23818H10.4954C10.1514 4.23818 9.94531 4.85307 10.3859 4.85307ZM3.26285 4.86013C3.85182 4.7123 9.42819 5.33131 8.19489 4.23111C7.60592 4.37894 2.02955 3.75994 3.26285 4.86013ZM3.40892 7.17125C4.06503 6.96688 15.0658 7.71016 12.7606 6.63175C12.1045 6.83613 1.10369 6.09285 3.40892 7.17125ZM10.5337 8.95936C9.88582 9.13605 1.69089 8.44343 3.27935 9.5554C3.92721 9.37518 12.1227 10.0713 10.5337 8.95936ZM10.4689 15.494C10.986 15.4157 14.104 15.8474 12.7659 14.8002C12.2511 14.8785 9.13312 14.445 10.4689 15.494ZM3.40538 15.4174C3.87656 15.2908 9.88052 15.825 8.05295 14.8767C7.58354 15.0034 1.57722 14.4686 3.40538 15.4174ZM3.3618 17.768C4.02969 17.5695 14.938 18.2922 12.8077 17.2379C12.1398 17.4364 1.2315 16.7137 3.3618 17.768ZM3.33294 20.2046C4.04501 19.9866 12.1852 20.8183 10.4807 19.5131C9.76862 19.731 1.62846 18.8994 3.33294 20.2046ZM12.8784 25.47H10.5225C10.1603 25.47 9.89701 26.0271 10.3588 26.0271H12.7146C13.0769 26.0271 13.3401 25.47 12.8784 25.47ZM7.97697 26.043C9.99949 25.0023 3.99966 25.6019 3.48077 25.4541C1.45825 26.4959 7.45809 25.8964 7.97697 26.043ZM12.7824 27.7569C12.0167 28.0102 1.19086 27.0826 3.38713 28.4519C4.15455 28.1987 14.9786 29.1263 12.7824 27.7569ZM10.5078 30.1552C10.0307 30.2506 5.51802 29.7853 6.83967 30.7654C7.31909 30.67 11.8294 31.1353 10.5078 30.1552Z" fill="#262626"/>
</svg>
