<svg width="32" height="35" viewBox="0 0 32 35" fill="none" xmlns="http://www.w3.org/2000/svg">
<path d="M3.57583 5.88672C3.51066 5.88685 3.44727 5.86545 3.39551 5.82585C3.34374 5.78625 3.3065 5.73067 3.28957 5.66773C3.27264 5.6048 3.27696 5.53803 3.30187 5.47781C3.32678 5.41758 3.37088 5.36727 3.42732 5.33468L6.8431 3.36319C6.90039 3.32949 6.96735 3.31605 7.0332 3.32505C7.09906 3.33405 7.15996 3.36497 7.2061 3.41281C7.25223 3.46066 7.28091 3.52265 7.28751 3.58878C7.29412 3.65492 7.27825 3.72135 7.24249 3.77737L6.64075 4.74655L6.90523 4.59389C6.9389 4.57249 6.97655 4.55811 7.01593 4.55164C7.0553 4.54516 7.09557 4.54672 7.13432 4.55621C7.17308 4.5657 7.20951 4.58294 7.24143 4.60688C7.27335 4.63081 7.3001 4.66096 7.32007 4.69551C7.34004 4.73005 7.35281 4.76828 7.35762 4.80788C7.36243 4.84749 7.35918 4.88767 7.34807 4.92599C7.33695 4.96431 7.3182 4.99998 7.29293 5.03086C7.26767 5.06175 7.23642 5.0872 7.20107 5.1057L5.91771 5.8453C5.86043 5.87901 5.79346 5.89244 5.72761 5.88344C5.66176 5.87444 5.60085 5.84352 5.55472 5.79568C5.50858 5.74784 5.4799 5.68585 5.4733 5.61971C5.4667 5.55358 5.48256 5.48714 5.51833 5.43112L6.12007 4.46313L3.72316 5.8453C3.67866 5.87208 3.62777 5.88639 3.57583 5.88672Z" fill="#F4AA51"/>
<path d="M7.30991 15.9452C7.25387 15.9454 7.19894 15.9296 7.1515 15.8998C7.10407 15.87 7.06608 15.8273 7.04197 15.7767C7.01785 15.7261 7.0086 15.6697 7.01529 15.6141C7.02198 15.5584 7.04433 15.5058 7.07975 15.4624L7.9152 14.4352L5.52481 15.815C5.46396 15.8502 5.39257 15.8626 5.32343 15.8499C5.25429 15.8373 5.19192 15.8004 5.14749 15.7459C5.10306 15.6915 5.07948 15.6229 5.08096 15.5527C5.08245 15.4824 5.10891 15.4149 5.1556 15.3624L5.93603 14.4838L4.26808 15.4476C4.21045 15.4805 4.14343 15.4931 4.07778 15.4833C4.01214 15.4736 3.95169 15.442 3.90615 15.3937C3.8606 15.3455 3.83262 15.2833 3.82668 15.2172C3.82075 15.1511 3.83721 15.0849 3.87342 15.0293L4.50475 14.0607L3.164 14.8352C3.10268 14.8707 3.03068 14.8829 2.96108 14.8698C2.89148 14.8567 2.82891 14.819 2.78473 14.7636C2.74043 14.7082 2.71756 14.6386 2.72027 14.5677C2.72299 14.4968 2.75111 14.4292 2.79952 14.3773L3.06637 14.0915L2.58356 14.3702C2.52571 14.4034 2.45834 14.4161 2.39237 14.4062C2.32641 14.3963 2.26571 14.3644 2.22015 14.3157C2.17458 14.267 2.14682 14.2043 2.14136 14.1378C2.13591 14.0713 2.15308 14.005 2.19009 13.9495L2.80366 13.0335L1.85697 13.5797C1.79647 13.6146 1.72558 13.6269 1.65685 13.6146C1.58811 13.6022 1.52597 13.5659 1.48141 13.5122C1.43684 13.4584 1.41274 13.3906 1.41336 13.3207C1.41398 13.2509 1.43929 13.1836 1.4848 13.1306L1.92738 12.6164L1.41617 12.9123C1.35708 12.9463 1.28806 12.9589 1.22077 12.9479C1.15348 12.9368 1.09205 12.9029 1.04689 12.8519C1.00172 12.8008 0.975588 12.7357 0.972905 12.6675C0.970223 12.5994 0.991157 12.5324 1.03217 12.478L1.79366 11.4662L0.974182 11.9395C0.912741 11.9747 0.840727 11.9867 0.771215 11.9733C0.701702 11.9599 0.6393 11.922 0.595339 11.8665C0.551377 11.811 0.528771 11.7416 0.531624 11.6708C0.534477 11.6001 0.562601 11.5327 0.610889 11.481L1.24162 10.8094L0.751118 11.0928C0.690554 11.1281 0.619447 11.1407 0.550459 11.1284C0.481472 11.1161 0.419084 11.0797 0.374406 11.0258C0.329729 10.9718 0.305663 10.9037 0.306495 10.8336C0.307327 10.7636 0.333003 10.6961 0.37895 10.6432L1.46469 9.38583L0.646982 9.85917C0.586072 9.89435 0.514623 9.90666 0.445451 9.89392C0.37628 9.88118 0.313911 9.84421 0.269531 9.78965C0.225151 9.73508 0.201664 9.66649 0.203283 9.59617C0.204902 9.52585 0.23152 9.45841 0.278364 9.40594L1.37948 8.17465L0.646982 8.59712C0.581909 8.63471 0.50497 8.64612 0.431786 8.62905C0.358602 8.61197 0.294659 8.56769 0.252939 8.50518C0.211219 8.44268 0.194849 8.36664 0.207154 8.29251C0.219458 8.21837 0.259515 8.1517 0.31919 8.10602L3.15926 5.93396L0.646982 7.38358C0.581773 7.42094 0.50479 7.43208 0.431664 7.41474C0.358539 7.39741 0.294752 7.35289 0.253256 7.29023C0.21176 7.22757 0.195665 7.15147 0.208241 7.07738C0.220816 7.00328 0.261119 6.93675 0.320965 6.8913L1.60965 5.92035L0.646982 6.47594C0.584329 6.51428 0.509654 6.52794 0.437485 6.51427C0.365316 6.50059 0.300815 6.46056 0.256531 6.40196C0.212247 6.34335 0.191347 6.27037 0.197898 6.19721C0.204449 6.12405 0.237982 6.05594 0.291973 6.00614L1.61734 4.7429L0.646982 5.30263C0.589724 5.33521 0.523231 5.34774 0.458042 5.33825C0.392854 5.32875 0.332699 5.29777 0.287112 5.25022C0.241526 5.20266 0.213117 5.14125 0.206387 5.07572C0.199658 5.01019 0.214993 4.94428 0.249963 4.88845L0.749934 4.11394C0.680494 4.13379 0.606191 4.12755 0.541032 4.09641C0.475872 4.06526 0.424358 4.01135 0.396198 3.94484C0.368039 3.87834 0.36518 3.80383 0.38816 3.73536C0.411141 3.66689 0.458373 3.60919 0.520953 3.57314L1.50255 3.00513C1.5598 2.97283 1.62618 2.96051 1.69121 2.97012C1.75623 2.97974 1.81621 3.01073 1.86166 3.05822C1.90711 3.10571 1.93545 3.16698 1.94221 3.23237C1.94897 3.29775 1.93376 3.36353 1.89898 3.41931L1.41025 4.17903L3.45747 2.99566C3.52012 2.95732 3.5948 2.94366 3.66697 2.95733C3.73914 2.97101 3.80364 3.01104 3.84792 3.06964C3.89221 3.12825 3.91311 3.20123 3.90656 3.27439C3.9 3.34755 3.86647 3.41566 3.81248 3.46546L2.48652 4.73107L5.5041 2.99093C5.56931 2.95357 5.64629 2.94243 5.71942 2.95976C5.79254 2.9771 5.85633 3.02162 5.89783 3.08427C5.93932 3.14693 5.95542 3.22303 5.94284 3.29713C5.93026 3.37122 5.88996 3.43775 5.83012 3.48321L4.54025 4.45298L6.83124 3.13057C6.89632 3.09298 6.97325 3.08156 7.04644 3.09863C7.11962 3.11571 7.18357 3.15999 7.22529 3.2225C7.26701 3.285 7.28338 3.36104 7.27107 3.43518C7.25877 3.50931 7.21871 3.57599 7.15903 3.62166L3.03146 6.77592C3.04153 6.78539 3.05101 6.79547 3.05986 6.80609C3.10432 6.86069 3.12784 6.92935 3.12622 6.99973C3.12459 7.07012 3.09792 7.13761 3.05099 7.1901L1.94927 8.42257L2.68237 7.99952C2.74293 7.96427 2.81404 7.95167 2.88303 7.96395C2.95201 7.97623 3.0144 8.01261 3.05908 8.06659C3.10376 8.12057 3.12782 8.18866 3.12699 8.25872C3.12616 8.32879 3.10048 8.39629 3.05454 8.4492L1.96939 9.70593L2.68237 9.29175C2.74388 9.25616 2.81614 9.2439 2.88595 9.25721C2.95576 9.27052 3.01844 9.30852 3.06253 9.36425C3.10663 9.41998 3.12919 9.48972 3.12609 9.56071C3.12299 9.63171 3.09444 9.69922 3.04566 9.7509L2.41552 10.4248L2.75869 10.2266C2.81772 10.1929 2.88657 10.1805 2.95366 10.1915C3.02075 10.2026 3.08199 10.2364 3.12707 10.2873C3.17214 10.3382 3.1983 10.4031 3.20115 10.471C3.204 10.539 3.18335 10.6058 3.1427 10.6603L2.38061 11.6709L3.13796 11.2342C3.19846 11.1994 3.26935 11.187 3.33809 11.1994C3.40682 11.2117 3.46897 11.248 3.51353 11.3018C3.55809 11.3555 3.58219 11.4233 3.58157 11.4932C3.58095 11.563 3.55564 11.6304 3.51013 11.6833L3.06755 12.1981L3.60894 11.8851C3.66679 11.8516 3.73429 11.8386 3.80043 11.8484C3.86657 11.8582 3.92746 11.89 3.97316 11.9388C4.01887 11.9876 4.0467 12.0505 4.05212 12.1171C4.05754 12.1837 4.04022 12.2502 4.003 12.3058L3.38943 13.2217L4.48345 12.5904C4.54477 12.5552 4.61665 12.5432 4.68608 12.5564C4.75551 12.5697 4.8179 12.6074 4.86195 12.6627C4.906 12.7179 4.9288 12.7872 4.92623 12.8578C4.92366 12.9284 4.89588 12.9958 4.84792 13.0477L4.58167 13.3341L5.28754 12.9265C5.34518 12.8932 5.41232 12.8804 5.47813 12.8901C5.54395 12.8997 5.60459 12.9313 5.65027 12.9796C5.69595 13.028 5.724 13.0903 5.7299 13.1566C5.7358 13.2228 5.71921 13.2891 5.68279 13.3448L5.04791 14.3134L7.21998 13.059C7.28076 13.0242 7.35193 13.0121 7.4208 13.0248C7.48968 13.0376 7.5518 13.0743 7.59611 13.1286C7.64042 13.1828 7.66404 13.251 7.66278 13.3211C7.66151 13.3911 7.63543 13.4584 7.58919 13.511L6.81231 14.3909L9.00863 13.1229C9.0685 13.0884 9.13854 13.076 9.2066 13.0878C9.27467 13.0995 9.33647 13.1348 9.3813 13.1873C9.42612 13.2399 9.45115 13.3064 9.45203 13.3755C9.45291 13.4446 9.42959 13.5118 9.38612 13.5655L8.55067 14.5938L9.54292 14.0211C9.5953 13.9911 9.6556 13.9778 9.71572 13.9831C9.77584 13.9884 9.83291 14.0119 9.87928 14.0505C9.92564 14.0892 9.95908 14.1411 9.9751 14.1993C9.99113 14.2575 9.98898 14.3191 9.96893 14.3761L9.74528 14.9861L10.0228 14.8258C10.0564 14.8043 10.0941 14.79 10.1335 14.7835C10.1728 14.777 10.2131 14.7786 10.2519 14.7881C10.2906 14.7976 10.3271 14.8148 10.359 14.8387C10.3909 14.8627 10.4176 14.8928 10.4376 14.9274C10.4576 14.9619 10.4704 15.0001 10.4752 15.0397C10.48 15.0794 10.4767 15.1195 10.4656 15.1578C10.4545 15.1962 10.4357 15.2318 10.4105 15.2627C10.3852 15.2936 10.354 15.3191 10.3186 15.3376L9.33524 15.905C9.28287 15.9348 9.22266 15.9478 9.16266 15.9425C9.10266 15.9371 9.04572 15.9135 8.99947 15.8749C8.95322 15.8363 8.91985 15.7845 8.90383 15.7265C8.88781 15.6684 8.8899 15.6068 8.90982 15.55L9.13288 14.9411L7.45783 15.9038C7.41303 15.9304 7.36201 15.9447 7.30991 15.9452ZM23.7883 15.9452C23.729 15.9452 23.6711 15.9275 23.622 15.8942C23.573 15.8609 23.535 15.8136 23.5132 15.7585C23.4913 15.7034 23.4865 15.643 23.4993 15.5852C23.5122 15.5273 23.5422 15.4746 23.5853 15.434L24.4089 14.6559L22.2446 15.9038C22.1833 15.9386 22.1117 15.9503 22.0425 15.937C21.9734 15.9236 21.9112 15.8861 21.8673 15.831C21.8234 15.776 21.8005 15.707 21.8029 15.6367C21.8052 15.5663 21.8326 15.499 21.8801 15.447L22.7084 14.5548L21.8872 15.0281C21.8276 15.0624 21.7579 15.0749 21.6901 15.0634C21.6224 15.0519 21.5607 15.0171 21.5157 14.9651C21.4708 14.9131 21.4454 14.8471 21.4438 14.7783C21.4423 14.7096 21.4647 14.6425 21.5073 14.5885L22.1919 13.7264V13.7229C22.1724 13.6892 22.1597 13.652 22.1546 13.6134C22.1495 13.5748 22.152 13.5356 22.1621 13.498C22.1721 13.4604 22.1895 13.4252 22.2132 13.3943C22.2369 13.3635 22.2665 13.3376 22.3002 13.3181L22.7493 13.0596C22.8089 13.0253 22.8786 13.0129 22.9464 13.0245C23.0142 13.0361 23.0759 13.0709 23.1207 13.123C23.1656 13.1751 23.191 13.2412 23.1924 13.31C23.1938 13.3788 23.1712 13.4459 23.1285 13.4998L22.9392 13.7365L24.1119 13.0637C24.1732 13.0286 24.245 13.0165 24.3144 13.0297C24.3838 13.0429 24.4461 13.0804 24.4902 13.1356C24.5343 13.1908 24.5572 13.2599 24.5548 13.3305C24.5524 13.4011 24.5248 13.4685 24.477 13.5205L23.6486 14.4128L26.3017 12.8821C26.3648 12.8444 26.4396 12.8314 26.5116 12.8458C26.5836 12.8602 26.6477 12.9009 26.6914 12.96C26.7351 13.019 26.7553 13.0922 26.748 13.1653C26.7407 13.2384 26.7065 13.3062 26.652 13.3554L25.8296 14.1287L30.8133 11.252C30.8779 11.2158 30.9537 11.2052 31.0258 11.2222C31.0979 11.2392 31.1609 11.2826 31.2026 11.3438C31.2442 11.405 31.2613 11.4797 31.2506 11.5529C31.2399 11.6262 31.2021 11.6928 31.1446 11.7395L29.088 13.3732L30.0536 12.8158C30.0872 12.7944 30.1249 12.78 30.1643 12.7736C30.2036 12.7671 30.2439 12.7686 30.2827 12.7781C30.3214 12.7876 30.3579 12.8049 30.3898 12.8288C30.4217 12.8527 30.4485 12.8829 30.4684 12.9174C30.4884 12.952 30.5012 12.9902 30.506 13.0298C30.5108 13.0694 30.5075 13.1096 30.4964 13.1479C30.4853 13.1862 30.4665 13.2219 30.4413 13.2528C30.416 13.2837 30.3848 13.3091 30.3494 13.3276L25.9148 15.8878C25.8502 15.924 25.7743 15.9347 25.7023 15.9177C25.6302 15.9007 25.5671 15.8573 25.5255 15.796C25.4839 15.7348 25.4667 15.6601 25.4775 15.5869C25.4882 15.5136 25.526 15.447 25.5834 15.4003L27.6395 13.7666L23.9362 15.9038C23.8915 15.9306 23.8404 15.9449 23.7883 15.9452ZM28.6276 11.4112C28.5694 11.4111 28.5125 11.394 28.4641 11.3618C28.4156 11.3296 28.3777 11.2839 28.3551 11.2303C28.3324 11.1766 28.3262 11.1176 28.337 11.0604C28.3478 11.0032 28.3752 10.9505 28.4158 10.9088L29.5264 9.76865L29.0454 10.0461C28.9835 10.0814 28.911 10.0932 28.8411 10.0793C28.7713 10.0654 28.7088 10.0268 28.6651 9.97053C28.6215 9.91428 28.5996 9.84416 28.6034 9.77306C28.6073 9.70196 28.6367 9.63463 28.6862 9.58345L29.5146 8.73557L29.0477 9.00479C28.9848 9.03898 28.9116 9.04918 28.8417 9.03348C28.7718 9.01779 28.71 8.97728 28.6677 8.91946C28.6254 8.86164 28.6055 8.79044 28.6118 8.71908C28.618 8.64772 28.6499 8.58105 28.7016 8.53144L28.9779 8.28234C28.9165 8.29916 28.8514 8.29575 28.7921 8.27262C28.7329 8.24949 28.6826 8.20787 28.6489 8.15393C28.6151 8.1 28.5997 8.03662 28.6048 7.9732C28.6099 7.90979 28.6354 7.84972 28.6773 7.8019L29.8287 6.48718L29.0483 6.93745C28.9868 6.97262 28.9147 6.98456 28.8452 6.97108C28.7756 6.95761 28.7132 6.91962 28.6693 6.86403C28.6254 6.80843 28.6029 6.73892 28.6059 6.66813C28.6089 6.59735 28.6372 6.52999 28.6856 6.4783L29.6003 5.51386L28.8057 5.97182C28.7466 6.00548 28.6777 6.01773 28.6106 6.00651C28.5434 5.99528 28.4823 5.96127 28.4373 5.91019C28.3923 5.85912 28.3664 5.79412 28.3637 5.72613C28.3611 5.65814 28.382 5.59132 28.4229 5.53694L29.343 4.32695L26.6928 5.85585C26.6299 5.89005 26.5567 5.90025 26.4868 5.88455C26.4169 5.86886 26.3551 5.82834 26.3128 5.77052C26.2705 5.7127 26.2506 5.64151 26.2569 5.57015C26.2631 5.49879 26.295 5.43212 26.3467 5.38251L26.8573 4.92218L25.2225 5.86591C25.1607 5.90159 25.0881 5.91371 25.018 5.90005C24.948 5.8864 24.8852 5.84788 24.8413 5.7916C24.7974 5.73532 24.7754 5.66507 24.7792 5.59381C24.783 5.52254 24.8125 5.45506 24.8622 5.40381L25.6627 4.57545L24.8385 5.0488C24.7885 5.0775 24.7313 5.09098 24.6737 5.08759C24.6162 5.0842 24.5609 5.06408 24.5147 5.02971C24.4684 4.99534 24.4332 4.9482 24.4134 4.8941C24.3935 4.83999 24.3899 4.78127 24.403 4.72515L24.6397 3.70805C24.5876 3.68792 24.5422 3.65344 24.5088 3.6086C24.4755 3.56376 24.4555 3.51039 24.4513 3.45467C24.447 3.39895 24.4586 3.34316 24.4847 3.29376C24.5108 3.24436 24.5504 3.20337 24.5989 3.17553L24.9012 2.99803C24.9512 2.96914 25.0085 2.95551 25.0662 2.95881C25.1238 2.96211 25.1792 2.98221 25.2256 3.01661C25.2719 3.05101 25.3072 3.09823 25.327 3.15244C25.3469 3.20664 25.3505 3.26548 25.3373 3.32168L25.1367 4.19678L27.2034 3.00513C27.2652 2.9699 27.3375 2.95809 27.4073 2.97184C27.477 2.9856 27.5395 3.024 27.5832 3.08003C27.627 3.13606 27.6491 3.20596 27.6455 3.27696C27.6419 3.34795 27.6129 3.41529 27.5638 3.46664L26.7632 4.295L28.9945 3.00513C29.0574 2.97094 29.1306 2.96074 29.2005 2.97643C29.2704 2.99212 29.3322 3.03264 29.3745 3.09046C29.4168 3.14828 29.4366 3.21947 29.4304 3.29083C29.4242 3.36219 29.3923 3.42886 29.3406 3.47848L28.83 3.9394L30.3216 3.0785C30.3807 3.04484 30.4497 3.03259 30.5168 3.04382C30.5839 3.05504 30.6451 3.08906 30.69 3.14013C30.735 3.1912 30.761 3.25621 30.7636 3.3242C30.7662 3.39218 30.7453 3.459 30.7044 3.51338L29.7838 4.72397L31.0677 3.98318C31.1292 3.94759 31.2015 3.93533 31.2713 3.94864C31.3411 3.96195 31.4038 3.99995 31.4479 4.05568C31.492 4.11141 31.5145 4.18115 31.5114 4.25214C31.5083 4.32314 31.4798 4.39065 31.431 4.44233L30.5169 5.40677L31.0831 5.07957C31.1438 5.04473 31.2148 5.03253 31.2836 5.04512C31.3525 5.05771 31.4146 5.09428 31.459 5.14833C31.5034 5.20239 31.5272 5.27044 31.5262 5.34039C31.5252 5.41034 31.4994 5.47767 31.4535 5.53043L30.3021 6.84278L31.0819 6.39251C31.1449 6.35831 31.2181 6.34812 31.288 6.36381C31.3578 6.3795 31.4197 6.42002 31.462 6.47784C31.5042 6.53566 31.5241 6.60685 31.5179 6.67821C31.5116 6.74957 31.4797 6.81624 31.4281 6.86585L31.1506 7.11614C31.2132 7.09886 31.2798 7.10268 31.3401 7.12703C31.4003 7.15138 31.4509 7.19488 31.4839 7.25083C31.517 7.30678 31.5307 7.37206 31.523 7.43659C31.5152 7.50111 31.4864 7.56129 31.4411 7.60782L30.6127 8.45452L31.0813 8.18412C31.1432 8.14843 31.2159 8.13632 31.286 8.15005C31.3561 8.16377 31.4189 8.20239 31.4627 8.25879C31.5066 8.31518 31.5285 8.38553 31.5245 8.45686C31.5206 8.52818 31.4909 8.59565 31.4411 8.64682L30.3317 9.78936L31.0831 9.35624C31.1507 9.32088 31.2294 9.313 31.3027 9.33426C31.3759 9.35552 31.4382 9.40427 31.4764 9.47033C31.5145 9.53639 31.5257 9.61466 31.5076 9.68877C31.4894 9.76288 31.4433 9.82711 31.3789 9.86805L28.7755 11.3709C28.7307 11.3974 28.6796 11.4113 28.6276 11.4112ZM15.155 25.8855C15.0942 25.8856 15.0348 25.8669 14.985 25.832C14.9351 25.7972 14.8973 25.7478 14.8765 25.6906C14.8557 25.6334 14.8531 25.5712 14.869 25.5125C14.8848 25.4538 14.9184 25.4014 14.9651 25.3624L15.0751 25.2701L14.3527 25.6873C14.289 25.7239 14.2139 25.7355 14.1421 25.7197C14.0703 25.704 14.0069 25.6621 13.9643 25.6022C13.9216 25.5424 13.9029 25.4687 13.9115 25.3957C13.9202 25.3228 13.9558 25.2556 14.0113 25.2074L15.0763 24.2826L13.025 25.466C12.9609 25.5033 12.8851 25.5153 12.8126 25.4994C12.7401 25.4835 12.6763 25.441 12.6337 25.3802C12.5911 25.3195 12.5729 25.2449 12.5827 25.1714C12.5925 25.0978 12.6295 25.0307 12.6865 24.9832L14.5971 23.3767L13.8711 23.7956C13.8082 23.8294 13.7351 23.8393 13.6655 23.8234C13.5959 23.8076 13.5343 23.7671 13.4922 23.7094C13.4501 23.6517 13.4303 23.5808 13.4364 23.5096C13.4426 23.4385 13.4742 23.3719 13.5255 23.3223L14.8864 22.0981L14.3509 22.4076C14.2893 22.4432 14.2169 22.4554 14.147 22.4419C14.0771 22.4285 14.0144 22.3903 13.9704 22.3343C13.9264 22.2784 13.904 22.2084 13.9074 22.1373C13.9108 22.0662 13.9397 21.9987 13.9888 21.9472L15.4509 20.4166L14.6515 20.8787C14.6003 20.9083 14.5414 20.9219 14.4824 20.9177C14.4234 20.9135 14.367 20.8917 14.3205 20.8551C14.274 20.8186 14.2395 20.7689 14.2216 20.7126C14.2036 20.6562 14.2029 20.5958 14.2196 20.539L14.5113 19.5438C14.4625 19.5206 14.4211 19.4845 14.3914 19.4394C14.3617 19.3944 14.3449 19.342 14.3429 19.2881C14.3408 19.2342 14.3535 19.1807 14.3797 19.1335C14.4058 19.0862 14.4444 19.0471 14.4912 19.0202L14.803 18.8427C14.8542 18.813 14.9132 18.7993 14.9723 18.8035C15.0314 18.8077 15.0878 18.8296 15.1344 18.8662C15.1809 18.9029 15.2154 18.9527 15.2333 19.0091C15.2512 19.0656 15.2518 19.1261 15.2349 19.1829L14.9953 19.9994L16.9348 18.88C16.9964 18.8448 17.0685 18.8329 17.1381 18.8464C17.2077 18.86 17.2701 18.898 17.314 18.9538C17.3579 19.0095 17.3803 19.0791 17.3772 19.1499C17.374 19.2207 17.3455 19.2881 17.2969 19.3397L15.8408 20.868L17.0537 20.1639C17.1167 20.1301 17.1897 20.1203 17.2593 20.1361C17.3289 20.152 17.3905 20.1925 17.4326 20.2502C17.4747 20.3078 17.4945 20.3788 17.4884 20.4499C17.4823 20.5211 17.4506 20.5876 17.3993 20.6373L16.0354 21.8614L17.2147 21.1804C17.2788 21.1423 17.3549 21.1299 17.4278 21.1455C17.5007 21.1612 17.565 21.2038 17.6078 21.2648C17.6507 21.3258 17.6689 21.4007 17.6589 21.4746C17.6488 21.5485 17.6113 21.6159 17.5537 21.6632L15.642 23.2702L17.4644 22.2182C17.5281 22.1816 17.6032 22.17 17.675 22.1857C17.7468 22.2014 17.8102 22.2433 17.8528 22.3032C17.8954 22.3631 17.9142 22.4367 17.9055 22.5097C17.8968 22.5827 17.8613 22.6499 17.8058 22.6981L16.7407 23.6229L17.7531 23.0389C17.8172 23.0028 17.8924 22.9918 17.9641 23.0081C18.0358 23.0244 18.0988 23.0669 18.1409 23.1272C18.1831 23.1875 18.2012 23.2613 18.1919 23.3342C18.1825 23.4071 18.1463 23.474 18.0904 23.5217L17.9803 23.6134L18.0146 23.5939C18.0752 23.559 18.1461 23.5467 18.2149 23.5591C18.2836 23.5716 18.3458 23.608 18.3903 23.6618C18.4348 23.7157 18.4588 23.7836 18.4581 23.8534C18.4573 23.9233 18.4319 23.9907 18.3862 24.0436L18.046 24.437L18.4229 24.2199C18.4693 24.193 18.5222 24.1793 18.5759 24.1802C18.6295 24.1811 18.6819 24.1966 18.7274 24.225C18.773 24.2534 18.8099 24.2936 18.8343 24.3414C18.8587 24.3892 18.8697 24.4427 18.8661 24.4962L18.8501 24.7275L18.9063 24.6962C18.9739 24.6608 19.0526 24.6529 19.1258 24.6742C19.1991 24.6955 19.2614 24.7442 19.2995 24.8103C19.3377 24.8763 19.3489 24.9546 19.3308 25.0287C19.3126 25.1028 19.2665 25.1671 19.2021 25.208L18.6649 25.518C18.6186 25.5452 18.5657 25.5591 18.5121 25.5582C18.4584 25.5572 18.4061 25.5415 18.3608 25.5127C18.3152 25.4844 18.2782 25.4442 18.2537 25.3965C18.2292 25.3487 18.2181 25.2953 18.2217 25.2417L18.2383 25.0098L16.8248 25.8251C16.7642 25.86 16.6933 25.8723 16.6245 25.8599C16.5557 25.8474 16.4936 25.8111 16.4491 25.7572C16.4046 25.7033 16.3806 25.6354 16.3813 25.5656C16.3821 25.4957 16.4075 25.4283 16.4532 25.3754L16.7928 24.9826L15.3029 25.8441C15.2583 25.8709 15.2072 25.8852 15.155 25.8855Z" fill="#F4AA51"/>
<path d="M16.668 19.4338C16.6068 19.4337 16.5471 19.4146 16.4972 19.3791C16.4473 19.3437 16.4096 19.2936 16.3893 19.2358C16.3691 19.178 16.3672 19.1154 16.3841 19.0565C16.4009 18.9977 16.4356 18.9455 16.4834 18.9072L19.427 16.5487L14.6734 19.293C14.6078 19.3312 14.53 19.3428 14.4561 19.3253C14.3822 19.3078 14.3179 19.2625 14.2764 19.1988C14.235 19.1352 14.2196 19.0581 14.2335 18.9834C14.2474 18.9087 14.2894 18.8422 14.351 18.7977L18.8773 15.5044L13.2427 18.7587C13.1766 18.796 13.0987 18.8065 13.0251 18.788C12.9515 18.7695 12.8878 18.7234 12.8473 18.6592C12.8067 18.5951 12.7923 18.5178 12.8071 18.4434C12.8219 18.3689 12.8647 18.303 12.9268 18.2593L17.949 14.7932L12.2097 18.1066C12.1431 18.1433 12.0649 18.1529 11.9914 18.1335C11.9179 18.1141 11.8547 18.0672 11.8149 18.0024C11.7751 17.9376 11.7617 17.86 11.7776 17.7857C11.7935 17.7113 11.8374 17.646 11.9002 17.6031L15.1314 15.4973L11.5517 17.5605C11.4854 17.5972 11.4076 17.6071 11.3342 17.5881C11.2609 17.5691 11.1976 17.5227 11.1574 17.4584C11.1173 17.3942 11.1034 17.3169 11.1185 17.2427C11.1336 17.1684 11.1766 17.1028 11.2387 17.0594L17.6839 12.7087L10.731 16.7245C10.6642 16.7618 10.5854 16.7718 10.5114 16.7523C10.4373 16.7328 10.3737 16.6853 10.3339 16.6199C10.2941 16.5544 10.2813 16.4761 10.2981 16.4013C10.3149 16.3266 10.36 16.2613 10.424 16.2192L13.5599 14.2187L10.2465 16.1322C10.18 16.1689 10.102 16.1786 10.0286 16.1594C9.95518 16.1402 9.89195 16.0935 9.85199 16.029C9.81202 15.9645 9.79837 15.8871 9.81386 15.8128C9.82936 15.7385 9.87281 15.673 9.93523 15.6299L17.0484 10.9118L9.60093 15.2121C9.53385 15.2491 9.45506 15.2586 9.38113 15.2386C9.3072 15.2187 9.24388 15.1708 9.2045 15.1052C9.16511 15.0395 9.15272 14.9611 9.16994 14.8865C9.18715 14.8119 9.23263 14.7468 9.2968 14.7051L9.75832 14.4181L9.28497 14.6932C9.21832 14.7311 9.13956 14.7416 9.06529 14.7226C8.99102 14.7036 8.92704 14.6564 8.88684 14.5912C8.84664 14.5259 8.83336 14.4475 8.84979 14.3726C8.86622 14.2977 8.91109 14.2322 8.97493 14.1897L16.5289 9.22904L8.75837 13.7146C8.69183 13.7518 8.61349 13.7619 8.53968 13.7427C8.46588 13.7236 8.40232 13.6767 8.36225 13.6118C8.32219 13.547 8.30871 13.4691 8.32464 13.3946C8.34057 13.32 8.38467 13.2545 8.44774 13.2116L16.5005 7.92556L8.28207 12.6709C8.21486 12.7087 8.13552 12.7188 8.06097 12.699C7.98641 12.6792 7.92253 12.6311 7.88294 12.5649C7.84336 12.4987 7.8312 12.4197 7.84905 12.3446C7.86691 12.2696 7.91337 12.2045 7.97854 12.1632L8.5927 11.7833L8.0519 12.0951C7.98492 12.1334 7.90562 12.144 7.83093 12.1247C7.75624 12.1053 7.69207 12.0576 7.65209 11.9916C7.61211 11.9256 7.59949 11.8466 7.61692 11.7714C7.63436 11.6963 7.68047 11.6309 7.74541 11.5893L12.9297 8.30187L7.76316 11.2845C7.69643 11.3245 7.61664 11.3366 7.54107 11.3181C7.4655 11.2997 7.40023 11.2523 7.35939 11.1861C7.31854 11.1199 7.30542 11.0402 7.32285 10.9644C7.34029 10.8886 7.38687 10.8227 7.45253 10.781L15.2592 5.64759L7.43005 10.1645C7.36346 10.2012 7.2853 10.2108 7.2118 10.1914C7.1383 10.172 7.07509 10.125 7.03528 10.0602C6.99548 9.99548 6.98213 9.91787 6.99802 9.84353C7.0139 9.76919 7.0578 9.70381 7.1206 9.66096L12.88 5.89609L7.18568 9.18348C7.11999 9.21662 7.0443 9.22409 6.97339 9.20443C6.90248 9.18477 6.84144 9.13939 6.80219 9.07716C6.76294 9.01492 6.74829 8.94028 6.76111 8.86782C6.77392 8.79537 6.81328 8.73028 6.8715 8.68528L12.0582 5.23577L6.97504 8.17052C6.90891 8.209 6.83043 8.22037 6.75609 8.20222C6.68176 8.18408 6.61734 8.13784 6.57638 8.07321C6.53541 8.00858 6.52108 7.93059 6.53639 7.85562C6.5517 7.78065 6.59546 7.71453 6.65849 7.67114L11.7943 4.10566L6.79103 6.99366C6.7241 7.03462 6.64364 7.04731 6.56736 7.02895C6.49107 7.01058 6.42521 6.96267 6.38425 6.89574C6.34329 6.82881 6.3306 6.74835 6.34896 6.67207C6.36733 6.59578 6.41524 6.52991 6.48217 6.48896L6.82535 6.26649L6.71115 6.33275C6.64572 6.37023 6.56845 6.38131 6.49513 6.36373C6.4218 6.34615 6.35796 6.30123 6.31664 6.23816C6.27532 6.17509 6.25964 6.09861 6.27281 6.02437C6.28598 5.95012 6.32701 5.88371 6.3875 5.8387L9.93759 3.22879L6.61708 5.14584C6.55187 5.1832 6.47488 5.19434 6.40176 5.17701C6.32863 5.15967 6.26485 5.11515 6.22335 5.0525C6.18185 4.98984 6.16576 4.91373 6.17833 4.83964C6.19091 4.76555 6.23121 4.69902 6.29106 4.65356L8.50809 2.98443L6.57566 4.09797C6.51201 4.13391 6.4373 4.14502 6.36595 4.12914C6.2946 4.11327 6.23165 4.07154 6.18924 4.01201C6.14683 3.95247 6.12796 3.87934 6.13627 3.80672C6.14459 3.7341 6.17949 3.66712 6.23426 3.61871L7.97735 2.10992L6.57566 2.91875C6.51321 2.95525 6.43956 2.96761 6.36862 2.9535C6.29768 2.93938 6.23437 2.89976 6.19065 2.84213C6.14694 2.7845 6.12585 2.71286 6.13138 2.64074C6.13691 2.56862 6.16866 2.50102 6.22065 2.45073L6.94546 1.74663L6.61175 1.93892C6.55149 1.97353 6.48096 1.98582 6.41254 1.97363C6.34413 1.96144 6.28218 1.92555 6.23758 1.87227C6.19297 1.81898 6.16855 1.75169 6.16859 1.68219C6.16863 1.6127 6.19314 1.54544 6.23781 1.4922L6.53365 1.13719C6.47352 1.11265 6.42333 1.0687 6.39105 1.01235C6.35201 0.944454 6.34148 0.863848 6.36178 0.788204C6.38208 0.71256 6.43154 0.648052 6.49933 0.608822L7.4762 0.0467238C7.53641 0.0120921 7.60688 -0.000250841 7.67528 0.0118573C7.74367 0.0239654 7.80562 0.0597524 7.85028 0.112949C7.89494 0.166146 7.91946 0.233361 7.91954 0.302819C7.91963 0.372277 7.89527 0.43955 7.85073 0.492852L7.77381 0.584563L8.70571 0.0467238C8.76816 0.0102209 8.84181 -0.00214044 8.91275 0.0119766C8.98369 0.0260937 9.047 0.0657109 9.09072 0.123339C9.13443 0.180967 9.15552 0.252613 9.14999 0.324733C9.14446 0.396853 9.11271 0.46445 9.06072 0.514744L8.33769 1.21707L10.3677 0.0467238C10.4314 0.0102244 10.5064 -0.00130836 10.5781 0.0143655C10.6498 0.0300394 10.7131 0.071801 10.7557 0.131539C10.7983 0.191276 10.8172 0.264726 10.8087 0.33762C10.8002 0.410514 10.765 0.47765 10.7097 0.525986L8.96724 2.03478L12.4114 0.0467238C12.4766 0.00936318 12.5536 -0.00178014 12.6267 0.0155566C12.6999 0.0328933 12.7636 0.0774104 12.8051 0.140069C12.8466 0.202727 12.8627 0.278829 12.8502 0.352922C12.8376 0.427015 12.7973 0.493545 12.7374 0.539003L10.5204 2.20695L14.2675 0.0467238C14.3329 0.0100748 14.4098 -0.000380091 14.4826 0.0174721C14.5554 0.0353243 14.6187 0.0801523 14.6598 0.142896C14.7008 0.205639 14.7165 0.281618 14.7036 0.355476C14.6908 0.429335 14.6504 0.495564 14.5906 0.540778L11.0446 3.1501L16.4177 0.0467238C16.4844 0.00945593 16.5629 -0.000561146 16.6368 0.0187702C16.7108 0.0381015 16.7743 0.085282 16.8143 0.150432C16.8542 0.215582 16.8673 0.293649 16.851 0.368285C16.8346 0.442921 16.79 0.508337 16.7266 0.550837L16.3745 0.778634L17.6437 0.0467238C17.7097 0.00984735 17.7873 -0.000365703 17.8606 0.0181815C17.9338 0.0367286 17.9972 0.0826286 18.0378 0.146458C18.0783 0.210287 18.0928 0.287203 18.0784 0.361413C18.064 0.435623 18.0217 0.501498 17.9602 0.545512L12.8256 4.1098L19.866 0.0467238C19.9323 0.0113505 20.0096 0.00252405 20.0821 0.0220359C20.1547 0.0415478 20.2171 0.087936 20.2567 0.151785C20.2963 0.215635 20.3101 0.292161 20.2954 0.365833C20.2806 0.439505 20.2384 0.504801 20.1772 0.54847L14.99 3.99738L21.8357 0.0467238C21.9023 0.0100503 21.9805 0.000418948 22.054 0.0198278C22.1275 0.0392366 22.1907 0.0861959 22.2305 0.150964C22.2703 0.215732 22.2836 0.293337 22.2678 0.367681C22.2519 0.442024 22.208 0.5074 22.1452 0.550245L16.3899 4.31098L23.7788 0.0467238C23.8453 0.0105451 23.9231 0.0012267 23.9963 0.0206862C24.0694 0.0401457 24.1323 0.0869028 24.172 0.151336C24.2118 0.215769 24.2253 0.292976 24.2098 0.367069C24.1943 0.441163 24.151 0.506507 24.0889 0.549654L16.284 5.68131L24.9663 0.668582C25.0332 0.631787 25.1118 0.622288 25.1855 0.642072C25.2593 0.661856 25.3225 0.70939 25.362 0.774732C25.4015 0.840074 25.4143 0.918162 25.3975 0.992664C25.3808 1.06717 25.3359 1.13231 25.2722 1.17447L20.0849 4.46422L25.1261 1.55374C25.1933 1.51588 25.2726 1.50576 25.3472 1.52555C25.4217 1.54534 25.4856 1.59347 25.5252 1.65967C25.5648 1.72588 25.5769 1.80493 25.5591 1.87997C25.5412 1.95502 25.4948 2.02012 25.4296 2.0614L24.8338 2.43002L25.1539 2.24541C25.2206 2.20545 25.3004 2.19338 25.376 2.21181C25.4515 2.23024 25.5168 2.27769 25.5577 2.34389C25.5985 2.4101 25.6116 2.48972 25.5942 2.56553C25.5768 2.64133 25.5302 2.70722 25.4645 2.74894L17.4094 8.03443L25.1545 3.56368C25.2212 3.52372 25.301 3.51164 25.3766 3.53008C25.4521 3.54851 25.5174 3.59596 25.5583 3.66216C25.5991 3.72836 25.6122 3.80799 25.5948 3.88379C25.5774 3.9596 25.5308 4.02549 25.4651 4.0672L17.9093 9.02846L25.1 4.87781C25.1671 4.84086 25.2459 4.83137 25.3198 4.85132C25.3938 4.87127 25.4571 4.91911 25.4965 4.98478C25.5359 5.05045 25.5482 5.12883 25.531 5.20345C25.5138 5.27807 25.4683 5.3431 25.4042 5.38488L24.9397 5.67362L25.0361 5.61859C25.1026 5.58192 25.1806 5.57217 25.254 5.59138C25.3274 5.61058 25.3906 5.65727 25.4306 5.72178C25.4706 5.78629 25.4842 5.8637 25.4687 5.93799C25.4532 6.01228 25.4098 6.07777 25.3474 6.12093L18.2318 10.8396L24.8586 7.0126C24.9257 6.97187 25.0062 6.95947 25.0825 6.97811C25.1587 6.99675 25.2244 7.04491 25.2651 7.112C25.3058 7.17908 25.3182 7.2596 25.2996 7.33583C25.281 7.41206 25.2328 7.47776 25.1657 7.51848L22.0298 9.51659L24.687 7.98295C24.7532 7.9475 24.8303 7.9385 24.9029 7.95779C24.9754 7.97708 25.0379 8.02321 25.0777 8.08684C25.1175 8.15047 25.1316 8.22685 25.1172 8.3005C25.1027 8.37415 25.0609 8.43958 25 8.48352L18.5602 12.8336L24.3433 9.49411C24.4101 9.453 24.4906 9.44012 24.5669 9.45832C24.6433 9.47652 24.7092 9.5243 24.7504 9.59115C24.7915 9.658 24.8043 9.73844 24.7861 9.81478C24.7679 9.89112 24.7202 9.95711 24.6533 9.99822L21.4162 12.107L24.0196 10.6047C24.0857 10.5674 24.1636 10.5569 24.2372 10.5754C24.3108 10.5939 24.3745 10.64 24.4151 10.7041C24.4557 10.7683 24.47 10.8455 24.4552 10.92C24.4405 10.9944 24.3976 11.0603 24.3356 11.1041L19.3169 14.5684L23.4386 12.1892C23.5042 12.1519 23.5815 12.1411 23.6548 12.1589C23.7281 12.1767 23.7918 12.2219 23.8329 12.2852C23.874 12.3484 23.8894 12.425 23.876 12.4992C23.8625 12.5734 23.8212 12.6397 23.7605 12.6845L19.2335 15.9784L22.5008 14.0927C22.5653 14.056 22.6413 14.045 22.7136 14.0617C22.7859 14.0785 22.8493 14.1218 22.8912 14.1831C22.933 14.2444 22.9503 14.3192 22.9396 14.3926C22.9289 14.4661 22.8909 14.5328 22.8333 14.5796L19.8885 16.9381L20.8518 16.3825C20.9194 16.3471 20.998 16.3392 21.0713 16.3605C21.1446 16.3817 21.2068 16.4305 21.245 16.4966C21.2832 16.5626 21.2944 16.6409 21.2762 16.715C21.2581 16.7891 21.212 16.8533 21.1476 16.8943L16.8159 19.3947C16.771 19.4207 16.7199 19.4342 16.668 19.4338Z" fill="#F9C55D"/>
<path d="M12.4794 13.3756C12.4168 13.3756 12.3558 13.3558 12.3052 13.3189C12.2546 13.2821 12.217 13.2301 12.1978 13.1705C12.1786 13.1109 12.1787 13.0467 12.1983 12.9873C12.2179 12.9278 12.2558 12.8761 12.3067 12.8395L16.0467 10.1586L12.5711 12.1656C12.5053 12.2031 12.4277 12.214 12.3541 12.1959C12.2805 12.1779 12.2167 12.1323 12.1757 12.0686C12.1347 12.0049 12.1198 11.9279 12.1339 11.8534C12.148 11.779 12.1902 11.7129 12.2516 11.6686L14.7959 9.86336L12.77 11.0331C12.7043 11.0719 12.6261 11.0838 12.5519 11.0663C12.4776 11.0489 12.413 11.0034 12.3715 10.9394C12.3299 10.8754 12.3147 10.7979 12.329 10.723C12.3433 10.648 12.3859 10.5815 12.4481 10.5373L14.0308 9.38824L12.9427 10.016C12.8778 10.0531 12.8013 10.0642 12.7285 10.0471C12.6558 10.03 12.5921 9.98605 12.5505 9.924C12.5088 9.86195 12.4922 9.78643 12.5039 9.71261C12.5157 9.6388 12.5549 9.57216 12.6137 9.5261L14.1036 8.37054L12.3877 9.35984C12.3224 9.39788 12.2449 9.40943 12.1713 9.39213C12.0976 9.37482 12.0334 9.32997 11.9918 9.2668C11.9502 9.20362 11.9344 9.12691 11.9477 9.05244C11.9609 8.97797 12.0021 8.91138 12.0629 8.86637L13.1037 8.09127L11.8457 8.81786C11.7855 8.85246 11.715 8.86475 11.6465 8.85256C11.5781 8.84037 11.5162 8.80449 11.4716 8.7512C11.427 8.69791 11.4025 8.63062 11.4026 8.56113C11.4026 8.49163 11.4271 8.42437 11.4718 8.37114L12.4185 7.24694L11.0635 8.03447C11.0112 8.06445 10.9509 8.07769 10.8907 8.07242C10.8306 8.06715 10.7736 8.04362 10.7272 8.00498C10.6808 7.96635 10.6474 7.91445 10.6314 7.85627C10.6153 7.79808 10.6175 7.73639 10.6375 7.67946L10.8275 7.15227L10.747 7.19842C10.6791 7.23704 10.5987 7.24722 10.5233 7.22675C10.4479 7.20628 10.3836 7.15682 10.3446 7.08917C10.3055 7.02151 10.2948 6.94115 10.3148 6.86563C10.3347 6.7901 10.3838 6.72554 10.4512 6.68603L11.2322 6.23576C11.2846 6.20578 11.3448 6.19253 11.405 6.1978C11.4651 6.20307 11.5222 6.22661 11.5685 6.26524C11.6149 6.30388 11.6483 6.35577 11.6644 6.41396C11.6804 6.47214 11.6782 6.53384 11.6582 6.59077L11.4683 7.11855L13.5835 5.89731C13.6438 5.86271 13.7143 5.85042 13.7827 5.86261C13.8511 5.8748 13.9131 5.91068 13.9577 5.96397C14.0023 6.01726 14.0267 6.08455 14.0267 6.15404C14.0266 6.22354 14.0021 6.2908 13.9575 6.34403L13.0108 7.46823L17.2088 5.04056C17.2741 5.00252 17.3516 4.99096 17.4252 5.00827C17.4988 5.02557 17.5631 5.07042 17.6046 5.1336C17.6462 5.19678 17.662 5.27348 17.6488 5.34796C17.6356 5.42243 17.5944 5.48901 17.5336 5.53402L16.4922 6.30972L17.5632 5.69141C17.6281 5.65357 17.705 5.64187 17.7783 5.65868C17.8515 5.67548 17.9156 5.71954 17.9576 5.7819C17.9995 5.84426 18.0162 5.92024 18.0041 5.99443C17.9921 6.06861 17.9523 6.13543 17.8927 6.18132L16.4029 7.33688L18.6874 6.01802C18.753 5.98124 18.8302 5.97083 18.9032 5.98893C18.9762 6.00702 19.0396 6.05225 19.0804 6.11542C19.1213 6.17858 19.1365 6.25494 19.1231 6.32895C19.1096 6.40297 19.0685 6.46908 19.0081 6.51385L17.4247 7.66171L19.9607 6.20026C20.0264 6.16363 20.1037 6.15345 20.1767 6.17178C20.2497 6.19012 20.313 6.23559 20.3536 6.29894C20.3943 6.3623 20.4092 6.43876 20.3955 6.51277C20.3817 6.58677 20.3403 6.65275 20.2796 6.69727L17.7353 8.50426L20.963 6.64047C21.0287 6.60333 21.1061 6.59272 21.1794 6.61079C21.2527 6.62887 21.3163 6.67427 21.3572 6.7377C21.3981 6.80113 21.4132 6.8778 21.3994 6.95201C21.3856 7.02622 21.344 7.09236 21.2831 7.13689L17.5454 9.81307L19.5199 8.67349C19.5848 8.63644 19.6613 8.62533 19.7341 8.6424C19.8068 8.65947 19.8704 8.70345 19.9121 8.7655C19.9538 8.82755 19.9704 8.90307 19.9587 8.97689C19.9469 9.0507 19.9077 9.11733 19.8488 9.1634L19.0507 9.7823C19.0994 9.79421 19.1443 9.81832 19.1811 9.85235C19.218 9.88638 19.2456 9.92923 19.2613 9.97685C19.277 10.0245 19.2804 10.0753 19.2711 10.1246C19.2618 10.1739 19.2401 10.22 19.208 10.2586L18.3069 11.342L19.0294 10.9278C19.0854 10.8955 19.1506 10.8825 19.2148 10.8908C19.2789 10.8991 19.3386 10.9282 19.3847 10.9736C19.4308 11.0191 19.4607 11.0784 19.4698 11.1425C19.4789 11.2066 19.4668 11.2718 19.4353 11.3284L18.9276 12.2354L19.2299 12.0615C19.2978 12.0228 19.3783 12.0127 19.4537 12.0331C19.5291 12.0536 19.5933 12.1031 19.6324 12.1707C19.6714 12.2384 19.6821 12.3187 19.6622 12.3943C19.6422 12.4698 19.5932 12.5343 19.5258 12.5739L18.2933 13.2839C18.2372 13.3164 18.172 13.3296 18.1076 13.3214C18.0433 13.3133 17.9834 13.2842 17.9372 13.2387C17.891 13.1932 17.8611 13.1337 17.852 13.0695C17.8429 13.0053 17.8551 12.9399 17.8868 12.8833L18.3945 11.9757L17.1673 12.6857C17.1072 12.7204 17.0369 12.7328 16.9685 12.7209C16.9002 12.7089 16.8382 12.6733 16.7934 12.6203C16.7486 12.5673 16.7239 12.5002 16.7236 12.4309C16.7233 12.3615 16.7474 12.2942 16.7916 12.2407L17.6927 11.158L16.065 12.0975C16.0001 12.1346 15.9236 12.1457 15.8508 12.1286C15.7781 12.1116 15.7144 12.0676 15.6728 12.0055C15.6311 11.9435 15.6145 11.868 15.6262 11.7942C15.638 11.7203 15.6772 11.6537 15.7361 11.6076L16.0579 11.3579L12.6262 13.3389C12.5813 13.3636 12.5307 13.3763 12.4794 13.3756ZM14.5598 5.25771C14.5036 5.25768 14.4485 5.24165 14.4011 5.21147C14.3537 5.1813 14.3158 5.13824 14.292 5.08733C14.2681 5.03642 14.2593 4.97977 14.2665 4.92402C14.2737 4.86827 14.2966 4.81572 14.3326 4.77253L15.0521 3.91104C15.0284 3.88986 15.0084 3.86486 14.9929 3.83708C14.9537 3.76913 14.943 3.68838 14.9633 3.61259C14.9837 3.53681 15.0332 3.47219 15.1012 3.43296L15.8266 3.01405C15.8867 2.97975 15.957 2.96763 16.0252 2.9798C16.0933 2.99197 16.1551 3.02766 16.1996 3.08066C16.2442 3.13366 16.2687 3.20061 16.269 3.26985C16.2693 3.33909 16.2452 3.40623 16.2011 3.45958L15.8573 3.87376L16.4029 3.55899C16.4366 3.53758 16.4742 3.52321 16.5136 3.51673C16.5529 3.51026 16.5932 3.51181 16.632 3.52131C16.6707 3.5308 16.7072 3.54803 16.7391 3.57197C16.771 3.59591 16.7978 3.62606 16.8177 3.6606C16.8377 3.69514 16.8505 3.73337 16.8553 3.77298C16.8601 3.81259 16.8568 3.85276 16.8457 3.89108C16.8346 3.9294 16.8158 3.96507 16.7906 3.99596C16.7653 4.02684 16.7341 4.0523 16.6987 4.07079L14.7077 5.21806C14.6628 5.24427 14.6118 5.25796 14.5598 5.25771Z" fill="#F4AA51"/>
<path d="M10.8085 28.98C10.7492 28.9799 10.6912 28.962 10.6421 28.9285C10.5931 28.895 10.5553 28.8475 10.5336 28.7923C10.5119 28.737 10.5073 28.6765 10.5205 28.6186C10.5336 28.5606 10.5639 28.508 10.6074 28.4676L12.4883 26.7221L10.1139 28.0925C10.0498 28.1293 9.97413 28.1408 9.90191 28.1247C9.8297 28.1086 9.76616 28.0659 9.72382 28.0053C9.68148 27.9446 9.66342 27.8702 9.6732 27.7969C9.68298 27.7235 9.71989 27.6565 9.77665 27.6091L10.3305 27.1481L10.1139 27.2736C10.0566 27.3076 9.98954 27.3212 9.92351 27.3124C9.85749 27.3035 9.7964 27.2726 9.75012 27.2247C9.70384 27.1768 9.67509 27.1146 9.66853 27.0483C9.66196 26.982 9.67796 26.9155 9.71394 26.8594L10.2506 25.9896C10.1813 26.0185 10.1037 26.02 10.0334 25.9938C9.96314 25.9676 9.90543 25.9157 9.87197 25.8485C9.83851 25.7814 9.83181 25.704 9.85322 25.6321C9.87463 25.5602 9.92255 25.4992 9.98729 25.4613L10.9671 24.8956C11.0244 24.8619 11.0914 24.8485 11.1572 24.8575C11.2231 24.8665 11.284 24.8974 11.3301 24.9452C11.3762 24.9931 11.4049 25.0551 11.4115 25.1212C11.4181 25.1873 11.4023 25.2538 11.3665 25.3098L10.834 26.176L13.0475 24.8974C13.1116 24.8605 13.1873 24.849 13.2595 24.8651C13.3317 24.8813 13.3952 24.9239 13.4376 24.9846C13.4799 25.0453 13.498 25.1196 13.4882 25.1929C13.4784 25.2663 13.4415 25.3333 13.3847 25.3808L12.8297 25.8417L14.4663 24.895C14.5293 24.8584 14.6037 24.8464 14.675 24.8612C14.7464 24.876 14.8097 24.9166 14.853 24.9752C14.8962 25.0339 14.9163 25.1064 14.9094 25.179C14.9025 25.2515 14.869 25.319 14.8154 25.3684L12.9351 27.1138L16.7763 24.8974C16.8408 24.8607 16.9168 24.8497 16.9891 24.8664C17.0614 24.8832 17.1248 24.9265 17.1666 24.9878C17.2085 25.0491 17.2258 25.1239 17.2151 25.1974C17.2043 25.2708 17.1664 25.3376 17.1088 25.3843L15.7745 26.4494L18.4608 24.8992C18.5252 24.8622 18.6011 24.8509 18.6736 24.8673C18.746 24.8838 18.8095 24.9269 18.8516 24.9881C18.8937 25.0493 18.9113 25.124 18.9008 25.1975C18.8903 25.2711 18.8526 25.3379 18.7951 25.3849L17.3525 26.5541L20.2204 24.8974C20.2834 24.8627 20.3568 24.8522 20.427 24.8677C20.4971 24.8833 20.5592 24.9238 20.6017 24.9818C20.6442 25.0397 20.6641 25.1112 20.6577 25.1827C20.6514 25.2543 20.6192 25.3211 20.5672 25.3707L18.7329 27.0405L21.4547 25.4689C21.5194 25.4303 21.5965 25.4178 21.6701 25.434C21.7438 25.4503 21.8085 25.494 21.8509 25.5564C21.8934 25.6187 21.9104 25.6949 21.8986 25.7694C21.8867 25.8438 21.8469 25.911 21.7872 25.9571L21.2032 26.421L21.6209 26.1801C21.6799 26.1463 21.7486 26.1337 21.8157 26.1446C21.8828 26.1555 21.9441 26.1891 21.9893 26.2399C22.0345 26.2906 22.0608 26.3554 22.0639 26.4233C22.067 26.4912 22.0466 26.558 22.0061 26.6127L21.1961 27.6966L21.6263 27.4481C21.6776 27.4185 21.7365 27.405 21.7956 27.4093C21.8547 27.4136 21.9111 27.4355 21.9575 27.4722C22.004 27.509 22.0383 27.5588 22.0562 27.6152C22.074 27.6717 22.0745 27.7322 22.0576 27.7889L21.9233 28.2368C21.9707 28.263 22.01 28.3017 22.0369 28.3487C22.0759 28.4166 22.0865 28.4972 22.0662 28.5728C22.0459 28.6484 21.9964 28.713 21.9286 28.7522L21.6328 28.9226C21.5815 28.952 21.5226 28.9653 21.4637 28.9609C21.4047 28.9566 21.3484 28.9346 21.3021 28.8979C21.2557 28.8613 21.2214 28.8115 21.2036 28.7552C21.1858 28.6988 21.1852 28.6384 21.202 28.5818L21.276 28.3333L20.2512 28.925C20.1923 28.9588 20.1235 28.9714 20.0564 28.9605C19.9893 28.9496 19.9281 28.916 19.8829 28.8652C19.8377 28.8145 19.8113 28.7497 19.8083 28.6818C19.8052 28.6139 19.8256 28.5471 19.866 28.4924L20.6731 27.4073L18.0383 28.9279C17.9737 28.9655 17.8972 28.9772 17.8243 28.9607C17.7513 28.9441 17.6874 28.9006 17.6452 28.8388C17.6031 28.7771 17.5859 28.7016 17.5972 28.6277C17.6084 28.5538 17.6472 28.4868 17.7058 28.4404L18.2874 27.9789L16.639 28.9303C16.576 28.9654 16.5024 28.9763 16.4319 28.9609C16.3615 28.9456 16.2991 28.905 16.2564 28.8469C16.2138 28.7888 16.1938 28.7171 16.2003 28.6452C16.2068 28.5734 16.2393 28.5065 16.2917 28.4569L18.1294 26.7878L14.4089 28.9356C14.3445 28.9725 14.2686 28.9839 14.1961 28.9674C14.1237 28.951 14.0602 28.9078 14.0181 28.8467C13.976 28.7855 13.9584 28.7107 13.9689 28.6372C13.9794 28.5637 14.0171 28.4968 14.0746 28.4498L15.5177 27.2795L12.6439 28.9362C12.5792 28.9715 12.5037 28.9814 12.4321 28.9639C12.3605 28.9465 12.2979 28.9029 12.2568 28.8417C12.2156 28.7806 12.1988 28.7063 12.2095 28.6333C12.2203 28.5604 12.2579 28.4941 12.315 28.4475L13.6474 27.3824L10.9541 28.9392C10.91 28.9653 10.8598 28.9794 10.8085 28.98Z" fill="#F9C55D"/>
<path d="M7.8519 33.7136C7.78831 33.7136 7.7264 33.6931 7.67536 33.6552C7.62432 33.6172 7.58686 33.5639 7.56854 33.503C7.55021 33.4421 7.55199 33.3769 7.57361 33.3171C7.59524 33.2573 7.63556 33.2061 7.68859 33.171L8.29329 32.7716L7.74717 33.087C7.68155 33.1237 7.60438 33.1341 7.53136 33.1161C7.45834 33.098 7.39496 33.0527 7.35411 32.9896C7.31325 32.9264 7.29799 32.85 7.31144 32.776C7.32488 32.702 7.36602 32.6359 7.42648 32.5911L9.95355 30.7788L7.74717 32.0527C7.68289 32.0893 7.60725 32.1005 7.53514 32.084C7.46304 32.0676 7.3997 32.0248 7.3576 31.964C7.31551 31.9032 7.29771 31.8288 7.30772 31.7555C7.31773 31.6823 7.35482 31.6154 7.41168 31.5681L9.83285 29.5824L7.74717 30.7865C7.68541 30.8226 7.61266 30.8351 7.5424 30.8217C7.47213 30.8083 7.40911 30.7698 7.365 30.7135C7.32089 30.6572 7.29868 30.5868 7.30247 30.5154C7.30627 30.4439 7.33582 30.3763 7.38565 30.325L8.83349 28.8209L7.74717 29.4481C7.68906 29.4816 7.62129 29.4944 7.55498 29.4843C7.48868 29.4742 7.42776 29.4419 7.38223 29.3926C7.3367 29.3434 7.30925 29.2801 7.30439 29.2132C7.29953 29.1463 7.31754 29.0798 7.35547 29.0245L7.79805 28.3801C7.74151 28.3844 7.68488 28.373 7.63444 28.3471C7.584 28.3212 7.54171 28.2819 7.51227 28.2334C7.47323 28.1655 7.4627 28.0849 7.483 28.0092C7.5033 27.9336 7.55276 27.8691 7.62055 27.8299L8.60037 27.2642C8.65843 27.231 8.72603 27.2184 8.79217 27.2285C8.8583 27.2386 8.91905 27.2708 8.9645 27.3199C9.00996 27.369 9.03743 27.4321 9.04243 27.4988C9.04744 27.5655 9.02968 27.6319 8.99207 27.6873L8.58321 28.2825L10.3494 27.2642C10.4111 27.2286 10.4836 27.2164 10.5535 27.2299C10.6234 27.2434 10.6862 27.2818 10.7301 27.3378C10.7741 27.3939 10.7964 27.4639 10.7928 27.5351C10.7893 27.6062 10.7602 27.6737 10.7109 27.7251L9.26306 29.2286L12.67 27.2642C12.7342 27.2276 12.8099 27.2165 12.882 27.2329C12.9541 27.2493 13.0174 27.2921 13.0595 27.3529C13.1016 27.4137 13.1194 27.4881 13.1094 27.5614C13.0994 27.6347 13.0623 27.7015 13.0054 27.7488L10.5849 29.7339L14.8592 27.2642C14.9249 27.2261 15.0028 27.2147 15.0767 27.2325C15.1506 27.2503 15.2148 27.2958 15.2561 27.3596C15.2973 27.4235 15.3124 27.5007 15.2982 27.5754C15.284 27.65 15.2417 27.7164 15.1799 27.7606L12.6528 29.5718L16.6532 27.2642C16.7196 27.2285 16.7971 27.2194 16.8699 27.2389C16.9428 27.2584 17.0054 27.305 17.0451 27.3691C17.0847 27.4332 17.0984 27.5101 17.0833 27.5839C17.0682 27.6578 17.0254 27.7231 16.9638 27.7666L16.3609 28.1642L17.9211 27.2642C17.9868 27.2262 18.0645 27.2148 18.1383 27.2324C18.212 27.25 18.2762 27.2953 18.3176 27.3589C18.359 27.4225 18.3744 27.4997 18.3605 27.5744C18.3466 27.6491 18.3046 27.7155 18.243 27.76L14.7261 30.3084L19.9997 27.2642C20.066 27.227 20.144 27.2166 20.2176 27.2354C20.2913 27.2541 20.3549 27.3004 20.3953 27.3648C20.4357 27.4292 20.4498 27.5066 20.4346 27.5811C20.4195 27.6555 20.3762 27.7213 20.3139 27.7648L18.5353 28.9665L21.486 27.2642C21.5518 27.2276 21.629 27.2174 21.702 27.2357C21.775 27.2541 21.8383 27.2996 21.879 27.3629C21.9196 27.4263 21.9346 27.5027 21.9208 27.5767C21.9071 27.6507 21.8656 27.7167 21.8049 27.7612L18.6436 30.0055L23.2475 27.3482C23.3138 27.311 23.392 27.3008 23.4657 27.3198C23.5395 27.3387 23.603 27.3853 23.6433 27.4499C23.6835 27.5145 23.6973 27.5922 23.6817 27.6667C23.6662 27.7412 23.6226 27.8068 23.5599 27.85L22.1694 28.7837L23.8172 27.8328C23.8833 27.7969 23.9606 27.7875 24.0334 27.8066C24.1062 27.8256 24.1689 27.8717 24.209 27.9354C24.249 27.9991 24.2632 28.0756 24.2488 28.1494C24.2344 28.2233 24.1925 28.2888 24.1314 28.3328L22.867 29.1949L23.9853 28.5499C24.051 28.5141 24.1279 28.5045 24.2004 28.5231C24.2729 28.5417 24.3357 28.5871 24.376 28.6501C24.4164 28.7132 24.4314 28.7892 24.4179 28.8628C24.4045 28.9364 24.3637 29.0022 24.3036 29.047L23.0664 29.9215L23.9888 29.3889C24.053 29.3521 24.1286 29.3406 24.2008 29.3567C24.273 29.3728 24.3366 29.4155 24.3789 29.4761C24.4213 29.5368 24.4393 29.6112 24.4295 29.6845C24.4198 29.7579 24.3829 29.8249 24.3261 29.8724L22.4676 31.4196L23.9924 30.5392C24.0533 30.5044 24.1246 30.4924 24.1935 30.5053C24.2624 30.5182 24.3246 30.5551 24.3688 30.6096C24.413 30.664 24.4364 30.7324 24.4349 30.8025C24.4334 30.8726 24.407 30.9399 24.3604 30.9924L23.2611 32.2142L23.9977 31.7894C24.0477 31.7604 24.105 31.7467 24.1627 31.7499C24.2203 31.7531 24.2758 31.7731 24.3222 31.8074C24.3687 31.8418 24.404 31.8889 24.4239 31.9432C24.4439 31.9974 24.4475 32.0562 24.4344 32.1125L24.2427 32.9361C24.2969 32.9539 24.3449 32.9871 24.3807 33.0315C24.4165 33.076 24.4387 33.1299 24.4446 33.1867C24.4505 33.2435 24.4398 33.3008 24.4138 33.3516C24.3879 33.4025 24.3477 33.4448 24.2983 33.4733L23.9794 33.6567C23.9294 33.6856 23.872 33.6993 23.8144 33.696C23.7568 33.6927 23.7014 33.6726 23.655 33.6382C23.6087 33.6038 23.5734 33.5565 23.5535 33.5023C23.5337 33.4481 23.5301 33.3893 23.5433 33.3331L23.7036 32.642L21.9428 33.6585C21.8819 33.6933 21.8106 33.7053 21.7417 33.6924C21.6727 33.6795 21.6106 33.6426 21.5664 33.5881C21.5222 33.5337 21.4988 33.4653 21.5003 33.3952C21.5018 33.3251 21.5282 33.2578 21.5748 33.2053L22.6694 31.9823L19.7625 33.6609C19.6983 33.6978 19.6227 33.7093 19.5505 33.6931C19.4782 33.677 19.4147 33.6344 19.3724 33.5737C19.33 33.513 19.312 33.4387 19.3217 33.3653C19.3315 33.292 19.3684 33.225 19.4252 33.1775L21.2854 31.6291L17.7643 33.6627C17.6985 33.6997 17.621 33.7101 17.5477 33.6918C17.4744 33.6734 17.4109 33.6278 17.3702 33.5642C17.3295 33.5005 17.3147 33.4238 17.3288 33.3495C17.3429 33.2753 17.3848 33.2093 17.446 33.1651L18.6797 32.2935L16.3047 33.6644C16.2384 33.7029 16.1597 33.7142 16.0853 33.6958C16.0109 33.6775 15.9465 33.6309 15.9057 33.5661C15.8649 33.5012 15.8509 33.423 15.8666 33.348C15.8823 33.273 15.9265 33.207 15.9899 33.1639L17.2519 32.3042L14.8917 33.665C14.8253 33.7022 14.7472 33.7124 14.6734 33.6935C14.5997 33.6746 14.5362 33.628 14.4959 33.5633C14.4557 33.4987 14.4419 33.4211 14.4574 33.3466C14.473 33.2721 14.5166 33.2064 14.5793 33.1633L15.9739 32.2267L13.4806 33.6674C13.4148 33.704 13.3376 33.7142 13.2646 33.6959C13.1915 33.6775 13.1283 33.6321 13.0876 33.5687C13.047 33.5054 13.032 33.4289 13.0458 33.3549C13.0595 33.2809 13.101 33.2149 13.1616 33.1704L16.3224 30.9261L11.5694 33.6698C11.5031 33.7076 11.4247 33.7183 11.3507 33.6996C11.2766 33.681 11.2127 33.6344 11.1722 33.5697C11.1317 33.5049 11.1178 33.4271 11.1333 33.3523C11.1489 33.2776 11.1928 33.2117 11.2558 33.1686L13.0309 31.9675L10.0796 33.6715C10.0139 33.7103 9.93576 33.7222 9.86151 33.7047C9.78726 33.6873 9.72262 33.6418 9.68109 33.5778C9.63955 33.5139 9.62434 33.4363 9.63861 33.3614C9.65289 33.2865 9.69555 33.2199 9.7577 33.1757L13.2741 30.6267L7.99627 33.6739C7.95243 33.6995 7.90266 33.7132 7.8519 33.7136Z" fill="#416572"/>
<path d="M22.2446 34.8791C22.1836 34.8791 22.1241 34.8603 22.0743 34.8252C22.0244 34.7902 21.9866 34.7406 21.966 34.6832C21.9454 34.6258 21.9431 34.5635 21.9592 34.5047C21.9754 34.4459 22.0094 34.3936 22.0564 34.3549L22.1398 34.2862L21.1813 34.8388C21.1201 34.874 21.0484 34.8861 20.979 34.873C20.9097 34.8599 20.8473 34.8224 20.8031 34.7673C20.759 34.7123 20.736 34.6432 20.7383 34.5727C20.7406 34.5021 20.768 34.4347 20.8157 34.3827L21.6499 33.4774L19.2903 34.8383C19.2289 34.8734 19.1568 34.8854 19.0873 34.872C19.0178 34.8586 18.9554 34.8207 18.9115 34.7652C18.8675 34.7097 18.8449 34.6403 18.8477 34.5696C18.8506 34.4988 18.8787 34.4315 18.927 34.3797L19.7429 33.5129L17.446 34.8377C17.3862 34.8722 17.3162 34.8846 17.2482 34.873C17.1801 34.8613 17.1183 34.8262 17.0734 34.7737C17.0285 34.7212 17.0034 34.6547 17.0024 34.5857C17.0014 34.5166 17.0246 34.4494 17.0679 34.3957L17.9513 33.3023L15.2888 34.8377C15.2279 34.8725 15.1567 34.8845 15.0878 34.8717C15.0189 34.8589 14.9568 34.822 14.9125 34.7677C14.8682 34.7133 14.8447 34.645 14.8461 34.5749C14.8475 34.5049 14.8737 34.4376 14.9201 34.385L15.7751 33.4265L13.3309 34.8377C13.2716 34.8718 13.2023 34.8844 13.1347 34.8732C13.0672 34.862 13.0057 34.8277 12.9606 34.7762C12.9155 34.7247 12.8897 34.6591 12.8875 34.5907C12.8853 34.5223 12.9069 34.4553 12.9487 34.401L13.8326 33.2579L11.0955 34.8377C11.0325 34.8728 10.9589 34.8837 10.8885 34.8683C10.818 34.8529 10.7556 34.8124 10.713 34.7543C10.6703 34.6961 10.6504 34.6244 10.6568 34.5526C10.6633 34.4808 10.6958 34.4139 10.7482 34.3643L11.302 33.8555L9.60033 34.8377C9.54001 34.8722 9.46943 34.8845 9.40099 34.8722C9.33255 34.8599 9.27062 34.824 9.22607 34.7706C9.18151 34.7172 9.15718 34.6498 9.15735 34.5803C9.15751 34.5108 9.18217 34.4435 9.22698 34.3904L10.1009 33.3632L7.54601 34.8377C7.48394 34.8718 7.41169 34.8825 7.3424 34.8678C7.2731 34.8532 7.21136 34.8142 7.16839 34.7579C7.12541 34.7016 7.10406 34.6318 7.10821 34.5611C7.11236 34.4904 7.14173 34.4235 7.191 34.3726L7.93415 33.6289L6.14076 34.6637C6.07956 34.6989 6.0078 34.711 5.93845 34.6979C5.8691 34.6847 5.80673 34.6473 5.76258 34.5922C5.71844 34.5371 5.69544 34.4681 5.69774 34.3975C5.70003 34.327 5.72747 34.2596 5.7751 34.2075L6.44962 33.475L5.97627 33.7496C5.91988 33.7821 5.85431 33.7952 5.78975 33.7867C5.72518 33.7782 5.66523 33.7486 5.61918 33.7025C5.57313 33.6565 5.54357 33.5965 5.53506 33.532C5.52656 33.4674 5.5396 33.4018 5.57216 33.3454L5.80883 32.9384C5.74916 32.9277 5.69422 32.8989 5.65144 32.8559C5.60866 32.813 5.58011 32.7579 5.56965 32.6982C5.5592 32.6385 5.56733 32.577 5.59297 32.5221C5.6186 32.4671 5.6605 32.4214 5.71298 32.3911L6.39814 31.9976C6.45454 31.9653 6.51999 31.9525 6.5844 31.9611C6.64881 31.9697 6.70859 31.9993 6.75451 32.0453C6.80042 32.0913 6.82992 32.1511 6.83845 32.2155C6.84697 32.2799 6.83405 32.3454 6.80167 32.4017L6.63718 32.6875L7.82824 31.9976C7.88944 31.9624 7.9612 31.9503 8.03055 31.9634C8.0999 31.9766 8.16228 32.014 8.20642 32.0691C8.25056 32.1242 8.27356 32.1932 8.27127 32.2638C8.26897 32.3343 8.24153 32.4017 8.1939 32.4538L7.52234 33.1851L9.57962 31.9976C9.64169 31.9635 9.71393 31.9528 9.78323 31.9674C9.85252 31.9821 9.91427 32.0211 9.95724 32.0774C10.0002 32.1337 10.0216 32.2035 10.0174 32.2742C10.0133 32.3449 9.98389 32.4118 9.93463 32.4627L9.19148 33.207L11.2884 31.9976C11.3487 31.963 11.4193 31.9508 11.4877 31.963C11.5562 31.9753 11.6181 32.0113 11.6627 32.0647C11.7072 32.1181 11.7315 32.1854 11.7314 32.255C11.7312 32.3245 11.7066 32.3917 11.6617 32.4449L10.7878 33.4709L13.3427 31.9976C13.4057 31.962 13.4796 31.9507 13.5503 31.9659C13.621 31.9811 13.6837 32.0217 13.7266 32.08C13.7694 32.1383 13.7894 32.2102 13.7828 32.2823C13.7762 32.3543 13.7434 32.4214 13.6906 32.4709L13.1362 32.9798L14.8379 31.9976C14.8972 31.9634 14.9665 31.9509 15.034 31.9621C15.1016 31.9733 15.1631 32.0076 15.2082 32.0591C15.2533 32.1106 15.2791 32.1761 15.2813 32.2445C15.2835 32.3129 15.2618 32.38 15.2201 32.4343L14.3362 33.5774L17.0733 31.9976C17.1341 31.9628 17.2053 31.9507 17.2742 31.9636C17.3432 31.9764 17.4053 32.0132 17.4495 32.0676C17.4938 32.1219 17.5173 32.1902 17.5159 32.2603C17.5145 32.3304 17.4883 32.3977 17.4419 32.4502L16.5875 33.4088L19.0329 31.9976C19.0926 31.9631 19.1625 31.9506 19.2304 31.9622C19.2984 31.9737 19.3601 32.0086 19.4051 32.0609C19.4501 32.1134 19.4753 32.1801 19.4763 32.2493C19.4773 32.3185 19.454 32.3858 19.4104 32.4396L18.5276 33.5318L21.1902 31.9976C21.2516 31.9624 21.3237 31.9505 21.3932 31.9639C21.4627 31.9773 21.5251 32.0151 21.569 32.0706C21.613 32.1261 21.6356 32.1955 21.6328 32.2663C21.6299 32.337 21.6018 32.4044 21.5535 32.4561L20.7376 33.3224L23.0321 31.9976C23.0933 31.9624 23.1651 31.9503 23.2344 31.9634C23.3038 31.9766 23.3661 32.014 23.4103 32.0691C23.4544 32.1242 23.4774 32.1932 23.4751 32.2638C23.4728 32.3343 23.4454 32.4017 23.3978 32.4538L22.5641 33.3585L24.9243 31.9976C24.9885 31.9612 25.064 31.9501 25.136 31.9665C25.2079 31.9829 25.2712 32.0256 25.3133 32.0862C25.3554 32.1468 25.3733 32.221 25.3635 32.2941C25.3537 32.3673 25.3169 32.4342 25.2604 32.4816L25.1758 32.5508L25.6669 32.268C25.7282 32.2324 25.8003 32.2201 25.8699 32.2332C25.9396 32.2463 26.0023 32.2839 26.0465 32.3394C26.0907 32.3948 26.1136 32.4642 26.1109 32.5351C26.1082 32.6059 26.0802 32.6734 26.0319 32.7254L25.4568 33.3431L25.758 33.1697C25.8153 33.136 25.8822 33.1226 25.9481 33.1316C26.0139 33.1406 26.0748 33.1715 26.121 33.2193C26.1671 33.2672 26.1958 33.3292 26.2024 33.3953C26.209 33.4614 26.1931 33.5279 26.1574 33.5839L25.9574 33.9064C26.013 33.9226 26.0627 33.9548 26.1002 33.999C26.1376 34.0432 26.1613 34.0974 26.1683 34.155C26.1752 34.2125 26.1651 34.2708 26.1391 34.3227C26.1132 34.3745 26.0727 34.4176 26.0225 34.4466L25.3361 34.843C25.2788 34.8767 25.2119 34.8901 25.146 34.8811C25.0802 34.8721 25.0193 34.8412 24.9731 34.7934C24.927 34.7455 24.8983 34.6835 24.8917 34.6174C24.8851 34.5513 24.901 34.4848 24.9367 34.4288L25.0349 34.2702L24.0462 34.8406C23.9849 34.8758 23.913 34.8878 23.8436 34.8746C23.7742 34.8613 23.7118 34.8236 23.6677 34.7683C23.6237 34.7131 23.6009 34.6438 23.6035 34.5732C23.606 34.5026 23.6338 34.4352 23.6818 34.3833L24.2575 33.7649L22.3925 34.8377C22.3478 34.8644 22.2967 34.8787 22.2446 34.8791Z" fill="#324E56"/>
<path d="M10.9801 8.43151L12.3582 9.81013C12.3629 10.7811 11.2399 13.0768 12.4339 13.4857C13.6439 13.7223 14.6823 12.5703 15.7538 12.1538C16.9041 12.5822 17.9898 13.8957 19.285 13.3898C20.4814 12.7668 19.382 10.7397 19.3743 9.65748C22.5174 6.68131 22.6227 6.37719 18.1851 5.89379C17.5123 5.02224 17.1969 3.00105 15.9242 3.00519C14.5202 3.20637 14.3433 4.94295 13.6167 5.92692C12.0505 6.14111 8.43946 6.25412 10.9801 8.43151ZM11.3819 6.70084C14.9083 6.31506 14.048 6.55055 15.6822 3.59747C16.01 3.35488 16.5467 4.67847 16.6526 4.87491C17.0484 5.37311 17.1313 6.44168 17.8827 6.39376C19.1607 6.68368 22.2156 6.40559 19.94 8.25874C19.1779 9.04923 18.1259 9.51015 18.6756 10.7829C18.7448 11.6272 19.6767 13.8478 18.0247 12.591C17.4537 12.284 16.8887 11.9295 16.2976 11.6633C15.8308 11.4532 15.3811 11.8082 14.974 12.0272C14.3273 12.323 13.6977 12.81 13.0546 13.0579C12.2653 12.7431 13.2469 10.3953 13.2262 9.63026C13.093 9.05278 9.80033 6.94106 11.3819 6.70084Z" fill="#262626"/>
<path d="M0.244652 3.81342C-0.228693 5.79083 0.147025 7.99425 0.0570893 10.0397C0.344055 15.2287 5.25975 16.4506 9.63465 15.9234C10.7519 17.5084 12.354 18.6874 14.1995 19.283C14.0279 21.1846 13.8445 23.4247 12.4079 24.8241C10.7097 24.6418 9.21278 25.1761 9.50862 27.1784C6.52536 26.8346 7.21171 29.9338 7.15076 31.8751C6.02124 31.7686 5.26389 32.2538 5.37572 33.4455C5.37572 34.2271 5.45915 34.885 6.40761 34.9329C9.38614 35.0838 12.4114 34.9329 15.3929 34.9329H25.3036C26.3485 34.7767 26.4645 33.7934 26.3639 32.8218C26.3118 31.8426 25.3231 31.8846 24.5888 31.8976C24.4592 29.9184 25.3752 26.7015 22.2304 27.1979C22.5375 25.182 21.3221 24.6537 19.5394 24.8241C17.9188 23.5224 17.7596 21.1639 17.5525 19.2386C19.3715 18.6488 20.9508 17.4865 22.0546 15.9252C29.0294 16.6352 32.5032 13.4206 31.6849 6.3689C31.6778 5.07134 32.0505 2.99927 30.1731 2.99631C28.7093 2.94602 27.2372 2.98921 25.7716 2.99631C25.7828 1.79697 25.8852 0.160971 24.3445 0.0183759C22.557 -0.0123915 20.7719 0.0154175 18.9897 0.00595062C15.1627 0.0231094 11.3298 -0.0265919 7.50637 0.021926C5.93782 0.232565 5.97864 1.74195 5.96799 2.98684C4.24738 3.23476 1.40612 2.29517 0.244652 3.81342ZM6.47684 15.4104C5.21481 15.3713 4.00083 14.9174 3.0228 14.1188C2.04476 13.3203 1.35719 12.2216 1.0665 10.9929C0.777329 8.6194 0.769783 6.22005 1.04402 3.84478C1.25051 3.50042 1.47594 3.49687 1.80788 3.49687H5.97332C5.97805 4.114 5.99817 4.73231 6.04314 5.35061C4.65505 5.46895 1.98183 4.7258 2.41849 7.0162C2.01437 11.4597 3.24093 14.0874 8.15781 13.5608C8.48098 14.2047 8.84954 14.8247 9.2607 15.4163C8.33294 15.421 7.404 15.4305 6.47447 15.411L6.47684 15.4104ZM7.71937 12.6005C7.78268 12.7508 7.85013 12.9011 7.91877 13.0508C2.96639 13.5241 3.10425 9.7693 3.293 6.04466C3.29951 5.81272 3.30957 5.86715 3.55334 5.86715H6.09757C6.28847 8.18132 6.83365 10.4524 7.71405 12.6011L7.71937 12.6005ZM25.1503 32.5662C25.3527 32.6041 25.4142 32.6011 25.4882 32.8768C25.5278 33.0254 25.5805 34.2342 25.3651 34.2691C19.1264 34.2637 12.8806 34.2768 6.64369 34.2691C6.09047 34.2016 6.24194 33.5768 6.24194 33.1052C6.24194 32.6461 6.29578 32.5662 6.69339 32.5662C12.8422 32.5757 19.0128 32.5532 25.1503 32.5662ZM23.7155 29.5125V31.8923C18.4803 31.8988 13.2498 31.9355 8.01462 31.8769C8.20159 30.871 7.4401 27.9399 8.756 27.8038C9.04296 27.77 9.33644 27.7541 9.63287 27.7446C9.71198 27.7838 9.79898 27.8044 9.88725 27.8049C9.97552 27.8054 10.0627 27.7858 10.1423 27.7476C13.9427 27.8511 17.7081 27.799 21.5067 27.7671C21.6365 27.8158 21.7792 27.8177 21.9103 27.7724C23.3315 27.6783 23.8125 28.0848 23.7155 29.5125ZM21.1423 25.7814C21.3725 26.2168 21.4492 26.7171 21.36 27.2014C17.6963 27.1931 14.0391 27.2263 10.3742 27.173C9.93108 24.6915 12.2085 25.5932 13.7587 25.4424H20.1488C20.3296 25.4082 20.516 25.4214 20.6901 25.4807C20.8642 25.54 21.02 25.6434 21.1423 25.7808V25.7814ZM17.62 23.7105C17.8061 24.1189 18.0555 24.4953 18.359 24.8258C16.6431 24.8258 14.9308 24.8134 13.2167 24.8175C14.6036 23.4295 14.8403 21.3095 15.029 19.4463C15.5795 19.5159 16.137 19.5091 16.6857 19.4261C16.7275 20.9011 17.0444 22.3554 17.62 23.7141V23.7105ZM29.1602 3.49155C29.8631 3.49155 30.6743 3.46078 30.8092 4.37907C30.8654 6.17719 30.8092 7.99543 30.8198 9.80125C30.5417 14.7986 26.7183 15.8003 22.4179 15.4163C22.8101 14.846 23.1635 14.25 23.4759 13.6324C27.9644 14.1057 29.7761 11.7153 29.3175 7.41973C29.7625 4.47966 27.6425 5.41925 25.6728 5.27961C25.7189 4.68419 25.7467 4.08749 25.7562 3.49037L29.1602 3.49155ZM25.6207 5.93638H27.7194C28.0383 5.93638 28.3821 5.83579 28.4466 6.2482C28.5874 10.0645 28.7827 13.5188 23.78 12.9727C24.7749 10.7439 25.3967 8.36681 25.6207 5.93638ZM7.24129 0.657984C12.7013 0.381669 18.2785 0.651476 23.7758 0.560948C25.148 0.609466 24.8959 2.30108 24.9 3.28269C25.455 11.2887 18.5927 25.6074 10.3222 15.5051C7.77795 11.9662 6.86025 7.49309 6.83126 3.19808C6.82948 2.56261 6.61411 1.06684 7.24129 0.657984Z" fill="#262626"/>
</svg>
