<svg width="20" height="36" viewBox="0 0 20 36" fill="none" xmlns="http://www.w3.org/2000/svg">
<path d="M4.53149 10.8959C4.46807 10.8959 4.40631 10.8756 4.35526 10.838C4.30422 10.8003 4.26657 10.7473 4.24786 10.6867C4.22914 10.6261 4.23033 10.5611 4.25125 10.5012C4.27218 10.4414 4.31173 10.3898 4.36412 10.354L8.58577 7.46836L3.04238 10.6686C2.97593 10.7045 2.89829 10.7137 2.82527 10.6944C2.75225 10.6751 2.68935 10.6286 2.6494 10.5645C2.60944 10.5004 2.59543 10.4235 2.61022 10.3494C2.62501 10.2753 2.66749 10.2097 2.729 10.1659L6.55596 7.59596L3.04238 9.6234C2.97622 9.65953 2.89879 9.66912 2.82582 9.65024C2.75285 9.63137 2.68979 9.58543 2.64945 9.52175C2.60912 9.45807 2.59452 9.38143 2.60864 9.30739C2.62275 9.23334 2.66451 9.16744 2.72544 9.12307L8.53591 5.10559L3.04238 8.27732C2.97535 8.31547 2.89611 8.32603 2.82143 8.30676C2.74676 8.28749 2.68252 8.23991 2.64232 8.1741C2.60212 8.10828 2.58912 8.0294 2.60608 7.95417C2.62303 7.87894 2.66861 7.81326 2.73316 7.77105L4.07568 6.90452L3.04238 7.49804C2.97652 7.53583 2.89867 7.54694 2.82487 7.52908C2.75106 7.51123 2.68691 7.46575 2.64562 7.40203C2.60433 7.3383 2.58904 7.26117 2.60289 7.18651C2.61674 7.11185 2.65869 7.04534 2.7201 7.00067L7.31803 3.67701L3.07264 6.12821C3.00696 6.16528 2.92962 6.17595 2.85636 6.15805C2.78309 6.14015 2.71938 6.09502 2.67819 6.03184C2.637 5.96865 2.62142 5.89216 2.6346 5.8179C2.64779 5.74363 2.68876 5.67718 2.74918 5.63204L5.62533 3.53042L3.33854 4.84979C3.27248 4.8869 3.19474 4.89734 3.12123 4.87897C3.04773 4.86059 2.98404 4.81481 2.94321 4.75098C2.90238 4.68716 2.88751 4.61014 2.90164 4.5357C2.91578 4.46127 2.95785 4.39506 3.01923 4.35065L3.64301 3.91145C3.5909 3.9156 3.53861 3.90612 3.49126 3.88396C3.44392 3.8618 3.40315 3.82771 3.37296 3.78503C3.33064 3.7237 3.31294 3.64868 3.32339 3.5749C3.33384 3.50112 3.37166 3.43396 3.42934 3.38679L4.66919 2.37188C4.62046 2.34855 4.57902 2.31235 4.54935 2.26719C4.51968 2.22203 4.5029 2.16963 4.50082 2.11564C4.49875 2.06165 4.51145 2.00811 4.53756 1.96081C4.56368 1.9135 4.60221 1.87423 4.64901 1.84722L6.92097 0.535559C6.98544 0.498868 7.06132 0.487653 7.13365 0.504126C7.20598 0.520599 7.26951 0.563564 7.31174 0.624556C7.35396 0.685548 7.37181 0.760143 7.36177 0.833642C7.35173 0.907141 7.31453 0.974214 7.25749 1.02164L6.6343 1.53206L8.81961 0.27204C8.88566 0.234932 8.96341 0.224493 9.03691 0.242864C9.11042 0.261235 9.17411 0.307024 9.21494 0.370847C9.25577 0.434669 9.27064 0.511691 9.2565 0.586126C9.24237 0.66056 9.2003 0.726769 9.13892 0.771183L8.77094 1.02995L10.085 0.27204C10.1506 0.235754 10.2276 0.225676 10.3004 0.243834C10.3731 0.261991 10.4363 0.307037 10.4773 0.36991C10.5182 0.432782 10.5338 0.508815 10.5209 0.582713C10.508 0.656611 10.4676 0.722889 10.4078 0.768216L7.53228 2.87102L12.0364 0.27204C12.1023 0.234244 12.1801 0.223132 12.2539 0.240991C12.3278 0.258851 12.3919 0.304323 12.4332 0.368049C12.4745 0.431775 12.4898 0.508906 12.4759 0.583566C12.4621 0.658226 12.4201 0.724734 12.3587 0.769403L7.76197 4.09306L14.1755 0.390743C14.2424 0.35336 14.3211 0.343312 14.3953 0.362703C14.4694 0.382094 14.5332 0.42942 14.5732 0.494771C14.6133 0.560123 14.6265 0.638431 14.6101 0.713297C14.5937 0.788164 14.549 0.853783 14.4853 0.896414L13.1392 1.76235L14.5606 0.942114C14.6269 0.904682 14.7051 0.89416 14.7789 0.912724C14.8527 0.931289 14.9166 0.977519 14.9573 1.04186C14.998 1.10619 15.0125 1.18371 14.9976 1.25838C14.9828 1.33305 14.9398 1.39916 14.8776 1.44304L9.06651 5.46111L13.884 2.67932C13.9506 2.64199 14.029 2.63176 14.103 2.65076C14.1769 2.66975 14.2407 2.71652 14.2811 2.78132C14.3214 2.84613 14.3352 2.924 14.3197 2.99874C14.3041 3.07347 14.2603 3.13933 14.1974 3.18262L10.3728 5.74896L15.0515 3.04789C15.118 3.0093 15.1968 2.99802 15.2715 3.01643C15.3461 3.03484 15.4107 3.0815 15.4516 3.14658C15.4926 3.21166 15.5066 3.29009 15.4909 3.36534C15.4751 3.44059 15.4308 3.50679 15.3672 3.55L11.145 6.43565L15.9138 3.68295C15.9799 3.64715 16.0571 3.63774 16.1298 3.65663C16.2026 3.67551 16.2654 3.72128 16.3057 3.78471C16.346 3.84813 16.3607 3.92448 16.3469 3.99834C16.3331 4.0722 16.2918 4.13808 16.2314 4.18268L12.4816 6.7882L16.5068 4.4646C16.5727 4.42636 16.6508 4.41497 16.725 4.43279C16.7991 4.45061 16.8635 4.49627 16.9049 4.5603C16.9462 4.62433 16.9614 4.70183 16.9472 4.77672C16.9329 4.85161 16.8904 4.91816 16.8284 4.96256L13.4864 7.36628L16.8694 5.41422C16.9356 5.37773 17.0133 5.36791 17.0866 5.38678C17.1598 5.40564 17.2231 5.45175 17.2635 5.5157C17.3039 5.57965 17.3183 5.6566 17.3039 5.73084C17.2894 5.80508 17.2472 5.87101 17.1857 5.91514L16.2783 6.53833L16.9549 6.14839C17.0199 6.11147 17.0965 6.10046 17.1693 6.11757C17.2421 6.13469 17.3057 6.17865 17.3475 6.24068C17.3893 6.30271 17.4061 6.37822 17.3946 6.45212C17.3831 6.52601 17.3441 6.59284 17.2854 6.63923L15.2907 8.19422L16.9614 7.23036C17.0235 7.19697 17.0955 7.18678 17.1644 7.20163C17.2333 7.21647 17.2947 7.25538 17.3376 7.31138C17.3804 7.36737 17.402 7.4368 17.3983 7.50722C17.3946 7.57764 17.366 7.64445 17.3175 7.69567L15.8052 9.22515L16.9638 8.55626C17.0212 8.52274 17.0883 8.5095 17.1542 8.51865C17.22 8.52781 17.2809 8.55883 17.3271 8.60675C17.3732 8.65467 17.4019 8.7167 17.4086 8.78289C17.4152 8.84907 17.3995 8.91558 17.3638 8.97172L16.889 9.73023L16.9691 9.68453C17.0029 9.66306 17.0407 9.64864 17.0801 9.64215C17.1196 9.63565 17.16 9.63721 17.1989 9.64673C17.2378 9.65625 17.2743 9.67354 17.3064 9.69755C17.3384 9.72156 17.3652 9.75181 17.3852 9.78646C17.4053 9.82111 17.4181 9.85945 17.4229 9.89918C17.4277 9.93891 17.4245 9.97921 17.4133 10.0176C17.4022 10.0561 17.3834 10.0919 17.358 10.1229C17.3327 10.1538 17.3013 10.1794 17.2659 10.1979L16.153 10.8395C16.0956 10.873 16.0285 10.8863 15.9626 10.8771C15.8967 10.868 15.8358 10.8369 15.7897 10.789C15.7436 10.7411 15.7149 10.6791 15.7082 10.6129C15.7016 10.5467 15.7173 10.4802 15.753 10.424L16.2278 9.66494L14.1903 10.8407C14.1282 10.8741 14.0562 10.8843 13.9873 10.8694C13.9183 10.8546 13.8569 10.8157 13.8141 10.7597C13.7712 10.7037 13.7497 10.6342 13.7534 10.5638C13.7571 10.4934 13.7857 10.4266 13.8342 10.3754L15.3459 8.84709L11.8875 10.8437C11.8224 10.8813 11.7455 10.8929 11.6722 10.876C11.5989 10.8592 11.5348 10.8152 11.4928 10.7528C11.4507 10.6905 11.4339 10.6146 11.4457 10.5403C11.4575 10.4661 11.497 10.399 11.5563 10.3528L13.5511 8.79723L9.99832 10.8472C9.93193 10.8852 9.85345 10.896 9.77925 10.8775C9.70505 10.859 9.64086 10.8126 9.60006 10.7479C9.55926 10.6832 9.545 10.6053 9.56027 10.5304C9.57553 10.4554 9.61913 10.3893 9.68198 10.3457L10.5918 9.7237L8.64274 10.8514C8.57679 10.8896 8.49866 10.901 8.42454 10.8832C8.35042 10.8654 8.286 10.8197 8.24463 10.7557C8.20326 10.6916 8.18813 10.6141 8.20236 10.5393C8.21659 10.4644 8.25909 10.3978 8.32106 10.3534L11.6602 7.94673L6.62837 10.8514C6.56217 10.8884 6.48432 10.8986 6.41081 10.88C6.33729 10.8614 6.27369 10.8154 6.23306 10.7513C6.19242 10.6873 6.17784 10.6101 6.19231 10.5357C6.20677 10.4613 6.24919 10.3952 6.31084 10.351L10.06 7.74612L4.6775 10.8537C4.63338 10.8804 4.58302 10.8949 4.53149 10.8959Z" fill="#AA6352"/>
<path d="M5.05735 35.2121C4.99319 35.2121 4.93074 35.1913 4.87937 35.1529C4.828 35.1144 4.79048 35.0604 4.77243 34.9988C4.75438 34.9372 4.75677 34.8715 4.77925 34.8114C4.80173 34.7513 4.84308 34.7001 4.89711 34.6655L8.14598 32.5882L3.67388 35.1705C3.60713 35.2079 3.52855 35.218 3.45452 35.1988C3.38049 35.1796 3.31673 35.1325 3.27654 35.0675C3.23635 35.0024 3.22283 34.9243 3.23881 34.8495C3.25479 34.7747 3.29902 34.709 3.36229 34.666L10.3877 30.0562L1.75981 35.0394C1.69265 35.0787 1.61272 35.0901 1.53724 35.0711C1.46177 35.0521 1.39678 35.0042 1.3563 34.9377C1.31582 34.8712 1.30308 34.7915 1.32083 34.7157C1.33858 34.6399 1.38539 34.5741 1.45118 34.5325L8.05637 30.2948L0.968065 34.3865C0.900902 34.4229 0.822296 34.432 0.748605 34.4119C0.674915 34.3918 0.611814 34.344 0.572436 34.2786C0.533058 34.2131 0.520435 34.135 0.537193 34.0605C0.553951 33.9859 0.5988 33.9207 0.662407 33.8785L4.55109 31.4385L0.687928 33.6689C0.620986 33.7043 0.543057 33.7128 0.470093 33.6926C0.397128 33.6723 0.334646 33.625 0.295437 33.5602C0.256227 33.4955 0.243256 33.4182 0.259178 33.3442C0.275099 33.2701 0.31871 33.205 0.381083 33.1621L5.71674 29.7755L0.668342 32.6897C0.601531 32.7284 0.522249 32.7396 0.447338 32.7208C0.372426 32.702 0.307786 32.6548 0.267147 32.5891C0.226507 32.5234 0.213071 32.4445 0.22969 32.3691C0.24631 32.2936 0.291677 32.2277 0.356155 32.1852L8.4368 26.8365L0.668342 31.3216C0.601131 31.3575 0.522687 31.3662 0.449259 31.3458C0.375831 31.3255 0.313047 31.2776 0.273911 31.2123C0.234775 31.1469 0.222288 31.069 0.239035 30.9946C0.255782 30.9203 0.30048 30.8553 0.363871 30.813L0.601275 30.6658C0.533057 30.6848 0.460293 30.6788 0.396127 30.6488C0.331961 30.6188 0.280623 30.5669 0.251385 30.5024C0.222146 30.4379 0.216936 30.3651 0.236694 30.2971C0.256452 30.2291 0.299876 30.1704 0.359123 30.1316L5.26686 26.9267L0.668342 29.5779C0.601148 29.6163 0.52161 29.6269 0.446689 29.6075C0.371768 29.5881 0.307393 29.5402 0.26729 29.474C0.227188 29.4078 0.21453 29.3286 0.232018 29.2532C0.249506 29.1778 0.295756 29.1122 0.360904 29.0704L1.17223 28.5553L0.668342 28.8455C0.601497 28.8818 0.523273 28.891 0.449817 28.8713C0.376362 28.8515 0.313284 28.8044 0.273606 28.7395C0.233927 28.6746 0.220677 28.597 0.236591 28.5226C0.252504 28.4482 0.296367 28.3828 0.359123 28.3398L1.94024 27.3148L0.668342 28.0484C0.602467 28.0848 0.525219 28.0948 0.452237 28.0764C0.379255 28.058 0.315993 28.0126 0.275258 27.9493C0.234522 27.886 0.219358 27.8096 0.232835 27.7355C0.246312 27.6615 0.287424 27.5953 0.347846 27.5504L4.38372 24.6761L0.668342 26.8216C0.602048 26.859 0.523905 26.8696 0.450071 26.851C0.376238 26.8324 0.312363 26.7862 0.271658 26.7219C0.230952 26.6575 0.21653 26.58 0.231373 26.5053C0.246217 26.4307 0.289191 26.3646 0.351408 26.3207L1.95033 25.2156L0.683773 25.9468C0.619573 25.9835 0.543989 25.9949 0.471826 25.9787C0.399663 25.9626 0.33612 25.9201 0.293642 25.8596C0.251164 25.7991 0.232811 25.7249 0.242179 25.6515C0.251547 25.5782 0.287959 25.511 0.344285 25.4631L2.97294 23.2611L1.08499 24.3508C1.02098 24.3877 0.94553 24.3994 0.873377 24.3836C0.801224 24.3678 0.737557 24.3256 0.694822 24.2654C0.652087 24.2051 0.633354 24.1311 0.642287 24.0578C0.651219 23.9845 0.687175 23.9171 0.743125 23.8689L1.84409 22.9193C1.78086 22.8952 1.72799 22.8499 1.69452 22.7911C1.65512 22.723 1.64437 22.642 1.66462 22.566C1.68488 22.49 1.73449 22.4252 1.80254 22.3857L3.82819 21.2165C3.89211 21.1803 3.96717 21.1692 4.03885 21.1851C4.11053 21.2011 4.17375 21.2431 4.21627 21.3029C4.2588 21.3628 4.27761 21.4363 4.26907 21.5093C4.26054 21.5822 4.22526 21.6494 4.17006 21.6978L3.51719 22.2605L5.62772 21.045C5.6919 21.0089 5.76721 20.9979 5.83901 21.0143C5.91081 21.0306 5.97398 21.073 6.01623 21.1333C6.05848 21.1937 6.0768 21.2675 6.06763 21.3406C6.05846 21.4136 6.02246 21.4807 5.96661 21.5287L3.33795 23.7306L7.99108 21.045C8.05723 21.0088 8.13466 20.9992 8.20763 21.0181C8.28061 21.037 8.34366 21.0829 8.384 21.1466C8.42434 21.2103 8.43893 21.2869 8.42482 21.361C8.4107 21.435 8.36894 21.5009 8.30801 21.5453L6.71088 22.6475L9.49088 21.045C9.55688 21.0073 9.63481 20.9964 9.70861 21.0145C9.78241 21.0326 9.84645 21.0783 9.88754 21.1423C9.92863 21.2062 9.94364 21.2834 9.92947 21.3581C9.9153 21.4327 9.87303 21.4991 9.81138 21.5435L5.7755 24.4173L11.6162 21.045C11.6831 21.0087 11.7613 20.9995 11.8348 21.0192C11.9082 21.0389 11.9713 21.0861 12.011 21.151C12.0507 21.2159 12.0639 21.2935 12.048 21.3679C12.0321 21.4422 11.9882 21.5077 11.9255 21.5506L10.3467 22.5739L12.9962 21.045C13.0632 21.0087 13.1416 20.9995 13.2151 21.0194C13.2887 21.0394 13.3518 21.0868 13.3913 21.152C13.4308 21.2171 13.4437 21.295 13.4274 21.3694C13.4111 21.4439 13.3668 21.5092 13.3036 21.5518L12.4905 22.0682L14.2639 21.045C14.3308 21.007 14.4098 20.9964 14.4843 21.0155C14.5588 21.0346 14.6229 21.0819 14.6633 21.1474C14.7036 21.2128 14.7169 21.2914 14.7004 21.3666C14.6839 21.4417 14.6389 21.5075 14.5749 21.55L9.67131 24.755L15.8195 21.2052C15.8869 21.1672 15.9665 21.1571 16.0413 21.1769C16.1161 21.1968 16.1801 21.2451 16.2198 21.3115C16.2596 21.3779 16.2718 21.4572 16.2538 21.5325C16.2359 21.6077 16.1893 21.673 16.124 21.7145L16.118 21.718L16.5507 21.4687C16.6173 21.4319 16.6956 21.4222 16.7692 21.4414C16.8429 21.4607 16.9063 21.5075 16.9464 21.5722C16.9865 21.637 17.0002 21.7146 16.9846 21.7891C16.9691 21.8636 16.9255 21.9293 16.8629 21.9726L8.78282 27.3196L17.6766 22.1851C17.7436 22.1488 17.822 22.1397 17.8955 22.1596C17.9691 22.1795 18.0322 22.227 18.0717 22.2921C18.1112 22.3573 18.1242 22.4351 18.1078 22.5096C18.0915 22.584 18.0472 22.6493 17.984 22.692L12.6472 26.0797L18.2903 22.8219C18.3574 22.7856 18.436 22.7765 18.5097 22.7966C18.5834 22.8167 18.6465 22.8644 18.6859 22.9299C18.7253 22.9953 18.7379 23.0735 18.7211 23.148C18.7044 23.2225 18.6595 23.2877 18.5959 23.33L14.7138 25.7634L18.7176 23.4517C18.7848 23.4107 18.8656 23.398 18.9421 23.4166C19.0186 23.4351 19.0846 23.4833 19.1256 23.5505C19.1666 23.6177 19.1793 23.6984 19.1607 23.775C19.1422 23.8515 19.094 23.9175 19.0268 23.9585L12.4234 28.1968L19.1028 24.339C19.1696 24.3009 19.2486 24.2904 19.3231 24.3095C19.3976 24.3286 19.4618 24.3759 19.5021 24.4413C19.5425 24.5068 19.5558 24.5854 19.5393 24.6605C19.5228 24.7357 19.4778 24.8014 19.4138 24.844L12.3837 29.4586L19.3165 25.4571C19.3836 25.4178 19.4635 25.4064 19.539 25.4254C19.6145 25.4444 19.6795 25.4923 19.72 25.5588C19.7604 25.6253 19.7732 25.705 19.7554 25.7808C19.7377 25.8566 19.6909 25.9224 19.6251 25.964L16.3768 28.0413L19.3307 26.3361C19.3973 26.3007 19.475 26.292 19.5478 26.3118C19.6206 26.3316 19.6832 26.3784 19.7227 26.4427C19.7623 26.5069 19.7758 26.5839 19.7607 26.6578C19.7455 26.7317 19.7028 26.7971 19.6411 26.8406L15.7619 29.3779L19.3283 27.319C19.3952 27.2827 19.4734 27.2735 19.5468 27.2932C19.6203 27.3129 19.6834 27.3601 19.7231 27.425C19.7627 27.4899 19.776 27.5675 19.7601 27.6419C19.7442 27.7163 19.7003 27.7817 19.6375 27.8246L18.1217 28.8063L19.3283 28.1077C19.3944 28.0706 19.4721 28.0602 19.5456 28.0786C19.6191 28.0969 19.6828 28.1427 19.7236 28.2066C19.7645 28.2704 19.7794 28.3474 19.7652 28.4218C19.7511 28.4963 19.709 28.5625 19.6476 28.6069L15.6984 31.3964L19.3283 29.3013C19.3946 29.2653 19.4721 29.2559 19.5451 29.275C19.6181 29.2941 19.6811 29.3403 19.7212 29.4042C19.7614 29.4681 19.7757 29.5448 19.7612 29.6189C19.7468 29.6929 19.7047 29.7587 19.6435 29.8028L18.4013 30.6486L19.3283 30.1144C19.3945 30.0769 19.4725 30.0662 19.5463 30.0845C19.6201 30.1029 19.6841 30.1488 19.725 30.2129C19.7659 30.2771 19.7806 30.3544 19.7661 30.4291C19.7516 30.5038 19.709 30.57 19.647 30.6141L18.6197 31.3364L19.3283 30.9275C19.3938 30.8897 19.4713 30.8784 19.5449 30.8957C19.6185 30.9131 19.6826 30.9579 19.7243 31.021C19.766 31.0841 19.782 31.1608 19.769 31.2353C19.7561 31.3098 19.7152 31.3765 19.6548 31.4219L18.6238 32.1935L19.3283 31.7875C19.3911 31.7517 19.4648 31.7401 19.5356 31.7548C19.6064 31.7695 19.6694 31.8095 19.7128 31.8674C19.7561 31.9252 19.7769 31.9969 19.7711 32.069C19.7653 32.1411 19.7335 32.2085 19.6815 32.2588L18.4636 33.422L19.3265 32.9241C19.3878 32.8888 19.4597 32.8766 19.5292 32.8896C19.5986 32.9026 19.6612 32.94 19.7056 32.995C19.75 33.0501 19.7732 33.1191 19.7712 33.1898C19.7692 33.2605 19.742 33.3281 19.6945 33.3805L19.2102 33.9147C19.2475 33.9247 19.2825 33.942 19.313 33.9657C19.3436 33.9893 19.3692 34.0188 19.3883 34.0524C19.4275 34.1204 19.4381 34.2012 19.4179 34.2771C19.3976 34.3529 19.3481 34.4177 19.2802 34.4571L18.0636 35.1598C18.0023 35.1951 17.9304 35.2073 17.8609 35.1943C17.7914 35.1813 17.7289 35.1439 17.6845 35.0889C17.6401 35.0339 17.6169 34.9648 17.6189 34.8941C17.6209 34.8235 17.6481 34.7558 17.6956 34.7034L17.9828 34.3865L16.6178 35.1729C16.5549 35.2087 16.4812 35.2204 16.4104 35.2057C16.3397 35.1909 16.2767 35.1509 16.2333 35.0931C16.19 35.0352 16.1692 34.9635 16.175 34.8914C16.1807 34.8194 16.2126 34.7519 16.2646 34.7017L17.4819 33.539L14.6515 35.1705C14.586 35.2083 14.5085 35.2197 14.4349 35.2023C14.3613 35.1849 14.2971 35.1401 14.2555 35.077C14.2138 35.0139 14.1978 34.9373 14.2107 34.8628C14.2237 34.7883 14.2645 34.7215 14.325 34.6761L15.3554 33.9046L13.1594 35.1717C13.0934 35.208 13.016 35.2178 12.9431 35.1991C12.8701 35.1805 12.8069 35.1348 12.7664 35.0713C12.7259 35.0078 12.711 34.9313 12.7248 34.8573C12.7386 34.7832 12.78 34.7172 12.8407 34.6726L13.868 33.9503L11.751 35.1705C11.6847 35.2065 11.6071 35.216 11.5342 35.1968C11.4612 35.1777 11.3982 35.1315 11.358 35.0677C11.3179 35.0038 11.3036 34.927 11.318 34.8529C11.3325 34.7789 11.3746 34.7131 11.4358 34.669L12.6774 33.8239L10.3438 35.1705C10.2778 35.2065 10.2007 35.2161 10.128 35.1974C10.0553 35.1788 9.9923 35.1333 9.9518 35.07C9.9113 35.0068 9.89628 34.9306 9.90976 34.8567C9.92324 34.7828 9.96422 34.7168 10.0244 34.672L13.9749 31.8866L8.2819 35.1705C8.21505 35.2068 8.13683 35.216 8.06337 35.1963C7.98992 35.1766 7.92684 35.1294 7.88716 35.0645C7.84748 34.9996 7.83423 34.922 7.85015 34.8476C7.86606 34.7733 7.90992 34.7078 7.97268 34.6649L9.49088 33.6868L6.91208 35.1705C6.84538 35.2068 6.76732 35.2162 6.69394 35.1966C6.62057 35.1771 6.55747 35.1302 6.51762 35.0656C6.47778 35.001 6.46423 34.9235 6.47975 34.8492C6.49527 34.7749 6.53869 34.7093 6.60108 34.666L10.4797 32.1252L5.20573 35.1705C5.16079 35.1972 5.10961 35.2115 5.05735 35.2121Z" fill="#5FC77D"/>
<path d="M9.36031 35.2174C9.29866 35.2175 9.23852 35.1983 9.18823 35.1627C9.13795 35.127 9.10003 35.0766 9.07973 35.0183C9.05943 34.9601 9.05777 34.897 9.07498 34.8378C9.09218 34.7786 9.12739 34.7263 9.17573 34.688L10.2387 33.8482L8.6665 34.7551C8.60087 34.7926 8.52335 34.8038 8.4498 34.7861C8.37625 34.7685 8.31221 34.7234 8.27076 34.6602C8.22931 34.5969 8.21359 34.5202 8.2268 34.4457C8.24001 34.3712 8.28116 34.3046 8.34185 34.2595L10.4642 32.6938L8.14302 34.0333C8.07697 34.0705 7.99922 34.0809 7.92572 34.0625C7.85221 34.0441 7.78852 33.9984 7.74769 33.9345C7.70686 33.8707 7.69199 33.7937 7.70613 33.7193C7.72026 33.6448 7.76233 33.5786 7.82371 33.5342L10.5978 31.5821L7.61361 33.3033C7.54755 33.3404 7.46981 33.3509 7.3963 33.3325C7.3228 33.3141 7.25911 33.2683 7.21828 33.2045C7.17745 33.1407 7.16258 33.0637 7.17671 32.9892C7.19085 32.9148 7.23292 32.8486 7.2943 32.8042L11.5171 29.8289L6.98805 32.4439C6.92123 32.4856 6.84061 32.4989 6.76392 32.4811C6.68723 32.4633 6.62075 32.4158 6.57912 32.349C6.53748 32.2821 6.5241 32.2015 6.54191 32.1248C6.55972 32.0481 6.60726 31.9817 6.67408 31.94L9.03982 30.3589L6.52748 31.8089C6.46165 31.8445 6.38476 31.854 6.31225 31.8353C6.23973 31.8167 6.17694 31.7713 6.13647 31.7083C6.096 31.6453 6.08084 31.5694 6.09403 31.4957C6.10722 31.422 6.14778 31.356 6.20758 31.3109L10.9123 27.9694L5.858 30.8871C5.79156 30.9265 5.71238 30.9384 5.63729 30.9204C5.5622 30.9023 5.49711 30.8557 5.45585 30.7904C5.41459 30.7251 5.40041 30.6463 5.41633 30.5707C5.43224 30.4951 5.47699 30.4287 5.54107 30.3856L9.5354 27.6329L5.27992 30.0901C5.21294 30.129 5.13339 30.1402 5.05826 30.1213C4.98312 30.1024 4.91837 30.0548 4.87784 29.9888C4.8373 29.9227 4.8242 29.8435 4.84133 29.7679C4.85846 29.6923 4.90447 29.6265 4.96952 29.5844L5.8948 28.9838L4.89533 29.5601C4.82848 29.5963 4.75026 29.6056 4.6768 29.5858C4.60335 29.5661 4.54027 29.5189 4.50059 29.4541C4.46091 29.3892 4.44766 29.3115 4.46358 29.2371C4.47949 29.1628 4.52335 29.0974 4.58611 29.0544L5.25025 28.6229L4.51964 29.0443C4.45345 29.083 4.37486 29.0945 4.30035 29.0765C4.22583 29.0585 4.16117 29.0124 4.11989 28.9478C4.07862 28.8832 4.06394 28.8052 4.07894 28.73C4.09393 28.6548 4.13743 28.5884 4.20033 28.5446L9.21312 25.0215L3.84838 28.119C3.78124 28.1602 3.7005 28.173 3.62393 28.1546C3.54735 28.1362 3.4812 28.0882 3.44004 28.0211C3.39888 27.9539 3.38607 27.8732 3.40444 27.7966C3.4228 27.72 3.47083 27.6539 3.53797 27.6127L4.01575 27.3035L3.48159 27.6121C3.41492 27.654 3.33436 27.6677 3.25761 27.6502C3.18087 27.6326 3.11423 27.5853 3.07236 27.5187C3.03049 27.452 3.01682 27.3714 3.03435 27.2947C3.05188 27.218 3.09918 27.1513 3.16584 27.1094L5.37785 25.6073L3.05782 26.9468C2.99138 26.9862 2.9122 26.9981 2.83711 26.98C2.76202 26.962 2.69693 26.9153 2.65567 26.8501C2.61441 26.7848 2.60023 26.706 2.61614 26.6304C2.63205 26.5548 2.6768 26.4884 2.74088 26.4453L4.36651 25.3283L3.4252 25.8714C3.35919 25.9076 3.28186 25.9174 3.20888 25.8988C3.13591 25.8802 3.07276 25.8345 3.03223 25.771C2.99169 25.7075 2.97681 25.631 2.9906 25.5569C3.00439 25.4829 3.04582 25.4169 3.10649 25.3722L3.85194 24.8434C3.78652 24.8652 3.71556 24.8635 3.65125 24.8387C3.58694 24.8138 3.53328 24.7673 3.49951 24.7072C3.46573 24.6471 3.45394 24.5771 3.46616 24.5093C3.47838 24.4414 3.51384 24.3799 3.56646 24.3354L4.92857 23.1745L4.5689 23.3822C4.51144 23.416 4.44427 23.4295 4.37821 23.4205C4.31215 23.4114 4.25106 23.3804 4.20478 23.3324C4.1585 23.2844 4.12974 23.2223 4.12311 23.1559C4.11649 23.0896 4.1324 23.0229 4.16828 22.9667L4.93984 21.7322C4.92442 21.7154 4.9107 21.6971 4.89889 21.6776C4.87934 21.6438 4.86665 21.6065 4.86156 21.5678C4.85647 21.529 4.85907 21.4897 4.86921 21.452C4.87936 21.4143 4.89685 21.3789 4.92068 21.348C4.94451 21.317 4.97422 21.2911 5.0081 21.2717L5.41346 21.0384C5.47092 21.0049 5.53797 20.9917 5.60386 21.0008C5.66975 21.01 5.73065 21.041 5.77678 21.0889C5.82292 21.1368 5.85162 21.1989 5.85828 21.265C5.86494 21.3312 5.84916 21.3977 5.81349 21.4539L5.30188 22.2747L7.44446 21.0378C7.50853 21.0008 7.58412 20.9891 7.6564 21.0049C7.72868 21.0208 7.79243 21.063 7.83516 21.1234C7.87789 21.1839 7.8965 21.2581 7.88736 21.3315C7.87821 21.4049 7.84197 21.4723 7.78573 21.5204L6.42065 22.6819L9.2695 21.036C9.33565 20.9985 9.41368 20.9878 9.48749 21.0062C9.5613 21.0245 9.62525 21.0705 9.66614 21.1346C9.70704 21.1987 9.72175 21.2761 9.70725 21.3507C9.69275 21.4254 9.65014 21.4916 9.58822 21.5358L8.90271 22.0177L10.6061 21.0343C10.6725 20.9949 10.7517 20.983 10.8268 21.001C10.9019 21.0191 10.967 21.0657 11.0082 21.131C11.0495 21.1963 11.0637 21.2751 11.0478 21.3507C11.0319 21.4263 10.9871 21.4927 10.923 21.5358L9.29799 22.6563L12.1059 21.036C12.1725 20.9966 12.2519 20.9847 12.3271 21.003C12.4023 21.0212 12.4675 21.0681 12.5086 21.1337C12.5497 21.1993 12.5636 21.2784 12.5472 21.3541C12.5309 21.4297 12.4856 21.496 12.421 21.5388L10.2102 23.0397L13.6846 21.0343C13.7518 20.9932 13.8325 20.9805 13.909 20.9989C13.9855 21.0173 14.0516 21.0654 14.0927 21.1325C14.1338 21.1996 14.1465 21.2803 14.1281 21.3569C14.1096 21.4334 14.0616 21.4994 13.9944 21.5405L13.5196 21.8498L14.658 21.1927C14.724 21.1556 14.8018 21.1452 14.8753 21.1636C14.9488 21.1819 15.0125 21.2277 15.0533 21.2915C15.0941 21.3554 15.109 21.4324 15.0949 21.5068C15.0807 21.5813 15.0387 21.6475 14.9773 21.6919L9.96629 25.2173L15.134 22.232C15.2009 22.1946 15.2797 22.1845 15.3538 22.2039C15.428 22.2233 15.4917 22.2706 15.5318 22.336C15.5718 22.4014 15.585 22.4797 15.5686 22.5545C15.5522 22.6294 15.5075 22.695 15.4438 22.7376L14.785 23.1638L15.3999 22.8077C15.4668 22.7703 15.5456 22.7602 15.6197 22.7796C15.6939 22.799 15.7576 22.8464 15.7977 22.9117C15.8377 22.9771 15.8509 23.0554 15.8345 23.1302C15.8181 23.2051 15.7734 23.2707 15.7097 23.3134L14.7791 23.9175L15.6735 23.4018C15.7399 23.3624 15.8191 23.3505 15.8942 23.3686C15.9693 23.3866 16.0344 23.4333 16.0756 23.4985C16.1169 23.5638 16.1311 23.6426 16.1152 23.7182C16.0993 23.7938 16.0545 23.8602 15.9904 23.9033L11.9937 26.6572L16.0848 24.2956C16.1508 24.2589 16.2282 24.2487 16.3015 24.267C16.3747 24.2854 16.4382 24.3311 16.4789 24.3946C16.5197 24.4582 16.5347 24.5349 16.5209 24.6091C16.5071 24.6833 16.4656 24.7495 16.4047 24.7942L11.6993 28.1356L16.5608 25.3295C16.6276 25.2898 16.7072 25.2779 16.7826 25.2963C16.8581 25.3147 16.9233 25.362 16.9643 25.4279C17.0053 25.4939 17.0189 25.5733 17.002 25.6491C16.9852 25.7249 16.9393 25.791 16.8742 25.8334L14.509 27.4157L16.8866 26.0429C16.9525 26.007 17.0296 25.9973 17.1024 26.016C17.1751 26.0346 17.2381 26.0802 17.2786 26.1434C17.3191 26.2066 17.3341 26.2829 17.3206 26.3567C17.3071 26.4306 17.2662 26.4966 17.2059 26.5415L12.9849 29.5185L16.0367 27.757C16.1029 27.7183 16.1815 27.7068 16.256 27.7247C16.3305 27.7427 16.3952 27.7888 16.4365 27.8534C16.4777 27.918 16.4924 27.9961 16.4774 28.0713C16.4624 28.1464 16.4189 28.2129 16.356 28.2567L13.582 30.2088L14.7494 29.5351C14.815 29.4975 14.8925 29.4864 14.9661 29.504C15.0396 29.5217 15.1037 29.5667 15.1451 29.63C15.1866 29.6933 15.2023 29.77 15.1891 29.8445C15.1759 29.9189 15.1347 29.9856 15.074 30.0307L12.9534 31.5958L13.4739 31.2949C13.5388 31.2577 13.6154 31.2464 13.6883 31.2632C13.7611 31.2801 13.825 31.3238 13.867 31.3857C13.909 31.4476 13.9261 31.5231 13.9148 31.597C13.9036 31.671 13.8648 31.7379 13.8063 31.7845L12.5006 32.8166C12.5573 32.8187 12.6123 32.837 12.6589 32.8694C12.7056 32.9017 12.742 32.9468 12.7638 32.9992C12.7856 33.0517 12.7919 33.1092 12.7819 33.1651C12.772 33.221 12.7462 33.2729 12.7077 33.3146L11.6987 34.4001V34.4043C11.7183 34.4381 11.731 34.4754 11.7361 34.5142C11.7412 34.5529 11.7386 34.5922 11.7284 34.6299C11.7183 34.6677 11.7008 34.703 11.677 34.7339C11.6531 34.7649 11.6234 34.7908 11.5895 34.8102L10.9598 35.1735C10.8983 35.2087 10.8262 35.2208 10.7566 35.2075C10.6869 35.1942 10.6243 35.1564 10.5802 35.101C10.536 35.0455 10.5131 34.9761 10.5157 34.9052C10.5183 34.8344 10.5461 34.7668 10.5942 34.7147L10.9272 34.3544L9.50275 35.1776C9.45948 35.2029 9.41042 35.2166 9.36031 35.2174Z" fill="#4AA361"/>
<path d="M9.86064 32.1103C9.80236 32.1109 9.7452 32.0944 9.69627 32.0627C9.64735 32.031 9.60884 31.9856 9.58555 31.9322C9.56225 31.8788 9.55521 31.8197 9.56529 31.7623C9.57537 31.7049 9.60213 31.6517 9.64223 31.6094L10.8465 30.3161L9.19709 31.2658C9.13304 31.3022 9.05772 31.3135 8.98581 31.2974C8.9139 31.2814 8.85053 31.2391 8.80803 31.1789C8.76553 31.1187 8.74695 31.0449 8.75589 30.9718C8.76484 30.8986 8.80067 30.8314 8.85642 30.7832L10.6085 29.2935L8.54305 30.4865C8.47831 30.5253 8.40123 30.538 8.32748 30.522C8.25373 30.5059 8.18885 30.4624 8.14605 30.4003C8.10324 30.3381 8.08573 30.262 8.09708 30.1873C8.10843 30.1127 8.14777 30.0452 8.20712 29.9986L10.8358 27.8703L7.89018 29.5707C7.82505 29.6067 7.74876 29.6169 7.67645 29.5993C7.60414 29.5817 7.54109 29.5375 7.49979 29.4756C7.45849 29.4137 7.44196 29.3386 7.45348 29.265C7.465 29.1915 7.50372 29.125 7.56197 29.0787L10.5355 26.8002L7.34 28.6448C7.27414 28.6826 7.1963 28.6937 7.12249 28.6759C7.04869 28.658 6.98454 28.6125 6.94325 28.5488C6.90195 28.4851 6.88666 28.408 6.90051 28.3333C6.91437 28.2586 6.95632 28.1921 7.01772 28.1475L9.69386 26.2126L6.92217 27.8109C6.85662 27.8482 6.77935 27.8591 6.70604 27.8415C6.63274 27.8238 6.5689 27.7789 6.5275 27.7159C6.48609 27.6529 6.47022 27.5765 6.48312 27.5022C6.49602 27.4279 6.5367 27.3613 6.59692 27.3159L10.4304 24.4671L6.47703 26.7491C6.41112 26.7864 6.33346 26.797 6.25996 26.7789C6.18645 26.7608 6.12266 26.7152 6.08163 26.6516C6.0406 26.588 6.02544 26.5111 6.03926 26.4366C6.05307 26.3622 6.09482 26.2959 6.15594 26.2512L8.47776 24.5894L6.18562 25.9117C6.12018 25.9501 6.04254 25.9619 5.96863 25.9448C5.89473 25.9277 5.83017 25.883 5.78824 25.8198C5.7463 25.7566 5.73016 25.6797 5.74314 25.605C5.75611 25.5302 5.79721 25.4633 5.858 25.4179L7.78513 23.9632L5.93457 25.0315C5.86969 25.068 5.79346 25.0788 5.72101 25.0617C5.64855 25.0447 5.58516 25.001 5.54341 24.9393C5.50165 24.8777 5.48458 24.8026 5.49558 24.729C5.50658 24.6554 5.54485 24.5886 5.60279 24.5419L6.78685 23.6077L5.74286 24.2095C5.67905 24.2466 5.60372 24.2586 5.53156 24.2431C5.4594 24.2276 5.3956 24.1858 5.3526 24.1258C5.3096 24.0659 5.29049 23.992 5.299 23.9187C5.30751 23.8454 5.34303 23.7779 5.39863 23.7294L6.15594 23.0658L5.5933 23.3905C5.53088 23.4256 5.45788 23.4369 5.38775 23.4224C5.31763 23.4079 5.25511 23.3686 5.21173 23.3116C5.16835 23.2546 5.14704 23.1839 5.15171 23.1124C5.15639 23.041 5.18675 22.9736 5.23719 22.9228L5.46213 22.6996C5.41571 22.7181 5.36541 22.7248 5.31578 22.719C5.26615 22.7132 5.21874 22.6951 5.17784 22.6664C5.1318 22.6334 5.09616 22.5879 5.07512 22.5354C5.05409 22.4828 5.04854 22.4253 5.05914 22.3696L5.17784 21.75C5.10978 21.7272 5.05252 21.68 5.017 21.6177C4.97784 21.5495 4.96728 21.4687 4.98764 21.3928C5.008 21.3169 5.05761 21.2522 5.12561 21.2129L5.41762 21.0443C5.46681 21.016 5.5231 21.0023 5.57982 21.005C5.63653 21.0077 5.69129 21.0266 5.73759 21.0594C5.78388 21.0923 5.81978 21.1378 5.84102 21.1904C5.86226 21.2431 5.86795 21.3007 5.85741 21.3565L5.76423 21.8438L7.14948 21.0449C7.2119 21.0098 7.2849 20.9985 7.35502 21.013C7.42515 21.0275 7.48767 21.0668 7.53105 21.1238C7.57443 21.1808 7.59574 21.2515 7.59106 21.323C7.58639 21.3944 7.55603 21.4618 7.50559 21.5126L7.28777 21.728L8.47479 21.0449C8.53852 21.0085 8.61346 20.997 8.68516 21.0127C8.75686 21.0283 8.82022 21.07 8.86301 21.1296C8.9058 21.1892 8.92499 21.2625 8.91686 21.3355C8.90874 21.4084 8.87389 21.4757 8.81903 21.5245L8.06112 22.188L10.0393 21.0449C10.1042 21.0077 10.1807 20.9964 10.2536 21.0133C10.3265 21.0301 10.3903 21.0738 10.4323 21.1357C10.4744 21.1976 10.4914 21.2731 10.4802 21.347C10.4689 21.421 10.4302 21.488 10.3717 21.5346L9.18463 22.4705L11.6536 21.0461C11.7191 21.0077 11.7967 20.9959 11.8706 21.013C11.9445 21.0301 12.0091 21.0748 12.051 21.138C12.093 21.2012 12.1091 21.2781 12.0961 21.3529C12.0831 21.4276 12.042 21.4945 11.9813 21.5399L10.0577 22.991L13.4288 21.0443C13.4947 21.0071 13.5724 20.9964 13.6459 21.0146C13.7194 21.0327 13.7832 21.0782 13.8242 21.1419C13.8653 21.2055 13.8804 21.2824 13.8666 21.3568C13.8528 21.4313 13.811 21.4976 13.7499 21.5423L11.4263 23.2041L14.5684 21.3939C14.6339 21.3557 14.7116 21.3442 14.7855 21.3615C14.8594 21.3789 14.9238 21.4239 14.9655 21.4872C15.0072 21.5506 15.0231 21.6275 15.0098 21.7022C14.9965 21.7769 14.9552 21.8437 14.8942 21.8889L11.0619 24.7377L14.4164 22.8011C14.4822 22.7645 14.5593 22.7543 14.6323 22.7724C14.7053 22.7906 14.7687 22.8358 14.8097 22.8989C14.8506 22.962 14.8661 23.0383 14.8529 23.1124C14.8397 23.1865 14.7989 23.2528 14.7387 23.2979L12.0638 25.2321L14.1873 24.0065C14.2525 23.9705 14.3288 23.9603 14.4011 23.9779C14.4734 23.9955 14.5364 24.0397 14.5777 24.1016C14.619 24.1635 14.6356 24.2387 14.624 24.3122C14.6125 24.3857 14.5738 24.4522 14.5155 24.4986L11.5415 26.7794L13.7855 25.4838C13.8501 25.4467 13.9263 25.4353 13.999 25.4519C14.0716 25.4684 14.1354 25.5116 14.1776 25.573C14.2198 25.6344 14.2374 25.7094 14.2269 25.7831C14.2164 25.8568 14.1786 25.9239 14.1209 25.9711L11.4958 28.1018L13.1439 27.1474C13.208 27.111 13.2833 27.0997 13.3552 27.1158C13.4271 27.1318 13.4905 27.174 13.533 27.2342C13.5755 27.2944 13.5941 27.3683 13.5851 27.4414C13.5762 27.5145 13.5404 27.5817 13.4846 27.6299L11.7302 29.1214L12.2608 28.8152C12.3224 28.7791 12.3949 28.7664 12.4651 28.7794C12.5353 28.7924 12.5984 28.8304 12.6429 28.8862C12.6874 28.942 12.7103 29.012 12.7074 29.0833C12.7045 29.1547 12.6759 29.2225 12.627 29.2745L10.8061 31.2331C10.8123 31.2412 10.8178 31.2497 10.8227 31.2586C10.8619 31.3267 10.8724 31.4076 10.8521 31.4835C10.8317 31.5594 10.7821 31.6241 10.7141 31.6634L10.0072 32.0723C9.96257 32.0977 9.912 32.1108 9.86064 32.1103Z" fill="white"/>
<path d="M9.07068 24.5336C9.01233 24.5337 8.95524 24.5166 8.90655 24.4845C8.85787 24.4523 8.81974 24.4065 8.79694 24.3528C8.77414 24.2991 8.76767 24.2399 8.77836 24.1825C8.78904 24.1251 8.8164 24.0722 8.85701 24.0303L9.25645 23.6148L8.51159 24.0445C8.45266 24.0784 8.3839 24.0909 8.31682 24.0801C8.24974 24.0693 8.1884 24.0359 8.14303 23.9853C8.09767 23.9347 8.07103 23.8701 8.06757 23.8022C8.06411 23.7344 8.08404 23.6674 8.12403 23.6125L9.41076 21.8598C9.40309 21.8499 9.39615 21.8393 9.38999 21.8284C9.37041 21.7946 9.35769 21.7573 9.35255 21.7186C9.34742 21.6799 9.34997 21.6406 9.36006 21.6029C9.37015 21.5651 9.38758 21.5298 9.41135 21.4988C9.43512 21.4679 9.46477 21.4419 9.4986 21.4224L9.9556 21.1595C10.0146 21.1254 10.0835 21.1127 10.1508 21.1234C10.2181 21.1342 10.2796 21.1677 10.325 21.2185C10.3705 21.2692 10.3971 21.3341 10.4004 21.4021C10.4037 21.4701 10.3835 21.5373 10.3432 21.5922L9.43865 22.8255L10.7942 22.0426C10.8562 22.0073 10.9288 21.9954 10.9987 22.0092C11.0687 22.023 11.1313 22.0616 11.1752 22.1178C11.2191 22.174 11.2413 22.2441 11.2377 22.3153C11.2341 22.3865 11.205 22.4541 11.1557 22.5056L10.7562 22.921L11.3183 22.597C11.3786 22.5626 11.4491 22.5504 11.5175 22.5626C11.5859 22.5748 11.6478 22.6106 11.6925 22.6638C11.7372 22.717 11.7618 22.7841 11.7621 22.8536C11.7624 22.923 11.7383 22.9904 11.694 23.0439L11.6109 23.1436L11.7575 23.0593C11.8253 23.0238 11.9042 23.0159 11.9777 23.0373C12.0512 23.0586 12.1137 23.1075 12.152 23.1738C12.1903 23.24 12.2015 23.3185 12.1833 23.3929C12.1651 23.4672 12.1189 23.5316 12.0543 23.5727L10.4631 24.4915C10.4027 24.5262 10.3321 24.5387 10.2635 24.5266C10.1949 24.5145 10.1327 24.4787 10.0879 24.4255C10.043 24.3722 10.0184 24.3048 10.0181 24.2352C10.0179 24.1656 10.0422 24.0981 10.0868 24.0445L10.1705 23.9442L9.22084 24.4938C9.1752 24.5202 9.12337 24.5339 9.07068 24.5336Z" fill="#CD4C60"/>
<path d="M12.2264 23.8986C12.1679 23.8986 12.1107 23.8813 12.062 23.8488C12.0133 23.8164 11.9752 23.7703 11.9526 23.7163C11.9301 23.6624 11.9239 23.6029 11.9351 23.5455C11.9462 23.488 11.974 23.4352 12.0151 23.3935L12.8555 22.5436L11.7201 23.1964C11.6602 23.2311 11.5901 23.2438 11.5219 23.2322C11.4536 23.2207 11.3916 23.1856 11.3465 23.1332C11.3013 23.0807 11.2759 23.0141 11.2747 22.945C11.2735 22.8758 11.2964 22.8083 11.3397 22.7543L12.3724 21.4551L10.8827 22.3163C10.8213 22.3511 10.7496 22.363 10.6803 22.3498C10.611 22.3365 10.5487 22.2991 10.5045 22.244C10.4604 22.189 10.4373 22.1201 10.4394 22.0496C10.4414 21.9791 10.4686 21.9116 10.5159 21.8593L11.2583 21.0491L10.2387 21.6379C10.1706 21.6766 10.0899 21.6868 10.0143 21.6663C9.93864 21.6458 9.87421 21.5962 9.83503 21.5283C9.79584 21.4604 9.78509 21.3798 9.80512 21.3041C9.82515 21.2283 9.87434 21.1635 9.94194 21.1239L12.6335 19.5701C12.6949 19.5344 12.7671 19.522 12.8369 19.5349C12.9067 19.5479 12.9695 19.5855 13.014 19.6409C13.0584 19.6963 13.0816 19.7658 13.0792 19.8367C13.0768 19.9077 13.049 19.9754 13.0009 20.0277L12.2584 20.8372L13.4312 20.16C13.4911 20.125 13.5614 20.1121 13.6298 20.1235C13.6982 20.1349 13.7605 20.1699 13.8058 20.2225C13.8511 20.2751 13.8765 20.3418 13.8777 20.4112C13.8789 20.4806 13.8557 20.5481 13.8122 20.6022L12.7765 21.9038L14.4686 20.9263C14.5309 20.8899 14.6043 20.8775 14.675 20.8913C14.7458 20.9051 14.8091 20.9441 14.8532 21.0012C14.8972 21.0583 14.919 21.1294 14.9144 21.2014C14.9099 21.2733 14.8792 21.3411 14.8283 21.3922L13.1861 23.054C13.2237 23.122 13.2332 23.2021 13.2124 23.277C13.1917 23.3519 13.1424 23.4157 13.0751 23.4546L12.3724 23.8588C12.3281 23.8847 12.2777 23.8985 12.2264 23.8986Z" fill="#E1EFFF"/>
<path d="M7.22782 23.6641C7.16698 23.6641 7.10759 23.6455 7.05771 23.6107C7.00782 23.5758 6.96985 23.5265 6.94893 23.4694C6.92801 23.4122 6.92515 23.3501 6.94074 23.2913C6.95634 23.2325 6.98963 23.1799 7.03611 23.1406L9.05405 21.4331L6.62481 22.835C6.56267 22.8708 6.48965 22.8829 6.41928 22.869C6.3489 22.8552 6.28592 22.8163 6.242 22.7596C6.19801 22.7028 6.17611 22.632 6.18037 22.5603C6.18462 22.4886 6.21474 22.4208 6.26514 22.3696L7.74299 20.8728L5.81764 21.9844C5.75507 22.0205 5.6815 22.0326 5.6107 22.0183C5.5399 22.004 5.47674 21.9644 5.43306 21.9069C5.38938 21.8493 5.36817 21.7779 5.37341 21.7058C5.37865 21.6338 5.40998 21.5662 5.46153 21.5156L6.48237 20.5173C6.43855 20.4904 6.40247 20.4526 6.37765 20.4076C6.35283 20.3626 6.34013 20.3119 6.34079 20.2605C6.34144 20.2091 6.35544 20.1588 6.3814 20.1144C6.40737 20.0701 6.44441 20.0332 6.4889 20.0075L7.77919 19.2644C7.84175 19.2283 7.91533 19.2163 7.98613 19.2306C8.05693 19.2448 8.12008 19.2845 8.16377 19.342C8.20745 19.3995 8.22866 19.471 8.22342 19.543C8.21818 19.615 8.18685 19.6827 8.1353 19.7333L7.56137 20.2947L9.34546 19.2644C9.40766 19.2281 9.48095 19.2156 9.55165 19.2293C9.62235 19.2431 9.68565 19.282 9.72974 19.339C9.77384 19.3959 9.79571 19.467 9.79129 19.5389C9.78687 19.6108 9.75646 19.6786 9.70573 19.7297L8.23026 21.223L11.634 19.259C11.6982 19.2225 11.7736 19.2112 11.8457 19.2273C11.9177 19.2433 11.9811 19.2857 12.0236 19.3461C12.0661 19.4064 12.0846 19.4804 12.0754 19.5537C12.0663 19.6269 12.0302 19.6941 11.9741 19.7422L9.13952 22.1388C9.16823 22.1616 9.19222 22.1898 9.21014 22.2219C9.2495 22.29 9.26016 22.371 9.23979 22.447C9.21942 22.5231 9.16969 22.5879 9.10153 22.6272L7.3762 23.6231C7.33131 23.6499 7.28006 23.664 7.22782 23.6641Z" fill="#E1EFFF"/>
<path d="M9.39234 21.1043C9.33382 21.1041 9.27664 21.0867 9.22799 21.0541C9.17935 21.0216 9.14141 20.9754 9.11895 20.9214C9.0965 20.8673 9.09052 20.8078 9.10179 20.7504C9.11305 20.693 9.14104 20.6401 9.18224 20.5986L10.5746 19.1979L8.58161 20.3487C8.51657 20.3856 8.44 20.3966 8.3672 20.3795C8.29439 20.3624 8.23074 20.3185 8.18896 20.2564C8.14719 20.1944 8.13037 20.1189 8.14187 20.045C8.15338 19.9711 8.19236 19.9043 8.25102 19.8579L8.63443 19.5611L8.00768 19.9226C7.946 19.9574 7.87388 19.9691 7.80435 19.9554C7.73483 19.9418 7.67249 19.9037 7.62861 19.848C7.58473 19.7924 7.56221 19.7229 7.56512 19.6521C7.56802 19.5813 7.59616 19.5139 7.64446 19.462L8.60119 18.453L7.79046 18.9213C7.741 18.9499 7.68435 18.9635 7.62732 18.9607C7.57029 18.9578 7.51529 18.9386 7.46893 18.9052C7.42256 18.8719 7.3868 18.8259 7.36593 18.7727C7.34506 18.7196 7.33996 18.6615 7.35126 18.6056L7.54653 17.6358C7.49244 17.6175 7.44479 17.5839 7.40928 17.5392C7.37377 17.4945 7.35192 17.4405 7.34634 17.3837C7.34077 17.3268 7.3517 17.2696 7.37784 17.2188C7.40398 17.1681 7.44421 17.1259 7.4937 17.0975L7.79046 16.9247C7.83992 16.8962 7.89656 16.8825 7.9536 16.8854C8.01063 16.8883 8.06563 16.9075 8.11199 16.9408C8.15836 16.9742 8.19412 17.0202 8.21499 17.0733C8.23586 17.1265 8.24095 17.1845 8.22966 17.2405L8.06288 18.0773L10.0767 16.9147C10.1383 16.8798 10.2105 16.8681 10.28 16.8818C10.3495 16.8955 10.4119 16.9336 10.4557 16.9892C10.4996 17.0448 10.5221 17.1144 10.5192 17.1851C10.5163 17.2559 10.4882 17.3234 10.4399 17.3752L9.48315 18.3842L12.0418 16.9075C12.1068 16.8699 12.1838 16.8583 12.257 16.8751C12.3303 16.892 12.3944 16.936 12.4365 16.9984C12.4785 17.0607 12.4954 17.1366 12.4836 17.2109C12.4718 17.2851 12.4322 17.3521 12.373 17.3984L11.9937 17.6951L12.2086 17.5717C12.2707 17.5379 12.343 17.5274 12.4122 17.5422C12.4814 17.557 12.543 17.596 12.586 17.6522C12.629 17.7084 12.6505 17.7782 12.6466 17.8488C12.6426 17.9195 12.6136 17.9864 12.5647 18.0376L11.1729 19.4377L12.2091 18.8394C12.2429 18.8179 12.2807 18.8035 12.3202 18.797C12.3597 18.7905 12.4001 18.7921 12.439 18.8016C12.4778 18.8111 12.5144 18.8284 12.5464 18.8524C12.5784 18.8764 12.6052 18.9067 12.6253 18.9413C12.6453 18.976 12.6581 19.0143 12.6629 19.0541C12.6678 19.0938 12.6645 19.1341 12.6534 19.1725C12.6422 19.211 12.6234 19.2468 12.5981 19.2777C12.5727 19.3087 12.5414 19.3342 12.5059 19.3528L9.53835 21.0669C9.49382 21.092 9.44346 21.1049 9.39234 21.1043Z" fill="#DAAB94"/>
<path d="M9.71344 31.9744C9.6546 31.9746 9.59705 31.9572 9.54811 31.9245C9.49918 31.8918 9.46106 31.8453 9.43861 31.7909C9.41615 31.7366 9.41037 31.6767 9.422 31.619C9.43363 31.5614 9.46215 31.5084 9.50393 31.467L9.79534 31.178L9.35496 31.432C9.2941 31.4669 9.22283 31.4792 9.1538 31.4665C9.08477 31.4539 9.02244 31.4172 8.9779 31.363C8.93335 31.3088 8.90946 31.2405 8.91047 31.1704C8.91149 31.1002 8.93733 31.0326 8.98342 30.9797L10.117 29.6817L8.59764 30.5595C8.53441 30.5974 8.45936 30.6103 8.3871 30.5959C8.31484 30.5814 8.25054 30.5406 8.20671 30.4814C8.16287 30.4222 8.14265 30.3487 8.14996 30.2754C8.15728 30.2021 8.19161 30.1341 8.24628 30.0847L9.36149 29.0372L8.56499 29.4971C8.50236 29.5337 8.42847 29.5461 8.35731 29.532C8.28615 29.5178 8.22265 29.4781 8.1788 29.4203C8.13495 29.3625 8.1138 29.2906 8.11934 29.2183C8.12489 29.1459 8.15674 29.0781 8.20889 29.0277L9.43983 27.8264L8.66826 28.2739C8.60633 28.3092 8.53375 28.3211 8.46379 28.3073C8.39383 28.2935 8.33119 28.255 8.2873 28.1988C8.24342 28.1426 8.22125 28.0725 8.22483 28.0012C8.22841 27.93 8.25752 27.8625 8.30682 27.811L9.52351 26.5646L8.77213 26.999C8.70889 27.0375 8.63357 27.0509 8.56094 27.0367C8.48831 27.0225 8.42361 26.9817 8.37954 26.9222C8.33546 26.8628 8.3152 26.789 8.32272 26.7153C8.33024 26.6417 8.365 26.5736 8.42018 26.5242L9.11993 25.8648L8.85225 26.0186C8.80117 26.048 8.7425 26.0615 8.6837 26.0574C8.6249 26.0534 8.56864 26.0319 8.5221 25.9957C8.47556 25.9596 8.44084 25.9104 8.42237 25.8544C8.4039 25.7984 8.40252 25.7382 8.4184 25.6815L8.69141 24.7146C8.6414 24.6923 8.59853 24.6567 8.56755 24.6115C8.53656 24.5664 8.51867 24.5136 8.51584 24.4589C8.51301 24.4042 8.52537 24.3498 8.55154 24.3017C8.5777 24.2536 8.61667 24.2137 8.66411 24.1864L8.97926 24.0048C9.03036 23.9752 9.08911 23.9616 9.148 23.9656C9.20688 23.9696 9.26324 23.9911 9.30985 24.0273C9.35647 24.0635 9.39126 24.1127 9.40976 24.1688C9.42826 24.2248 9.42964 24.2851 9.41371 24.3419L9.18818 25.1402L11.0281 24.079C11.0913 24.0405 11.1666 24.0271 11.2393 24.0413C11.3119 24.0555 11.3766 24.0964 11.4207 24.1558C11.4647 24.2153 11.485 24.289 11.4775 24.3627C11.47 24.4363 11.4352 24.5045 11.38 24.5538L10.6803 25.2132L11.1023 24.9698C11.1643 24.934 11.2372 24.9219 11.3076 24.9357C11.3779 24.9494 11.4408 24.9882 11.4848 25.0447C11.5288 25.1013 11.5508 25.1719 11.5468 25.2434C11.5429 25.315 11.5131 25.3826 11.4631 25.434L10.2452 26.6803L11.199 26.1301C11.2616 26.0935 11.3355 26.0811 11.4067 26.0953C11.4778 26.1095 11.5413 26.1492 11.5852 26.207C11.629 26.2648 11.6502 26.3367 11.6446 26.409C11.6391 26.4814 11.6072 26.5492 11.5551 26.5996L10.3248 27.7991L11.2922 27.2412C11.3554 27.2034 11.4305 27.1904 11.5027 27.2048C11.575 27.2193 11.6393 27.2601 11.6831 27.3193C11.7269 27.3786 11.7472 27.452 11.7398 27.5253C11.7325 27.5986 11.6982 27.6666 11.6435 27.716L10.526 28.7606L11.3741 28.2703C11.4349 28.2354 11.5062 28.2232 11.5752 28.2358C11.6443 28.2484 11.7066 28.2851 11.7511 28.3393C11.7957 28.3936 11.8196 28.4618 11.8186 28.532C11.8176 28.6021 11.7917 28.6697 11.7456 28.7226L10.6102 30.0206L11.4779 29.5197C11.5403 29.485 11.613 29.474 11.6828 29.4886C11.7526 29.5032 11.8149 29.5424 11.8581 29.5992C11.9013 29.6559 11.9227 29.7263 11.9183 29.7974C11.9139 29.8686 11.884 29.9358 11.8341 29.9868L11.161 30.6598C11.2081 30.6844 11.2477 30.7212 11.2758 30.7663C11.3038 30.8115 11.3192 30.8633 11.3203 30.9164C11.3215 30.9696 11.3084 31.022 11.2823 31.0683C11.2563 31.1147 11.2183 31.1531 11.1723 31.1797L9.86181 31.9341C9.81676 31.9603 9.76558 31.9743 9.71344 31.9744Z" fill="#A53C50"/>
<path d="M10.9978 17.9035C10.9379 17.9035 10.8794 17.8853 10.8301 17.8514C10.7807 17.8175 10.7427 17.7695 10.7212 17.7136C10.6996 17.6578 10.6954 17.5967 10.7092 17.5384C10.723 17.4802 10.7541 17.4274 10.7984 17.3871L12.8632 15.5093L8.88668 17.8067C8.82082 17.8445 8.74298 17.8557 8.66917 17.8378C8.59537 17.8199 8.53122 17.7745 8.48992 17.7107C8.44863 17.647 8.43334 17.5699 8.44719 17.4952C8.46105 17.4206 8.503 17.3541 8.5644 17.3094L11.6922 15.0422L7.68779 17.3569C7.62102 17.3965 7.54137 17.4084 7.46592 17.39C7.39048 17.3716 7.32525 17.3244 7.28424 17.2584C7.24322 17.1925 7.2297 17.1131 7.24656 17.0373C7.26342 16.9615 7.30932 16.8953 7.37441 16.853L9.15495 15.666L6.98922 16.9165C6.92317 16.9536 6.84542 16.964 6.77192 16.9457C6.69842 16.9273 6.63472 16.8815 6.5939 16.8177C6.55307 16.7538 6.5382 16.6768 6.55233 16.6024C6.56647 16.528 6.60853 16.4618 6.66992 16.4173L11.304 13.1429L6.1316 16.1289C6.0655 16.1655 5.98792 16.1755 5.91469 16.1569C5.84146 16.1382 5.77809 16.0924 5.73751 16.0286C5.69694 15.9649 5.6822 15.8881 5.69632 15.8138C5.71043 15.7396 5.75234 15.6736 5.81348 15.6292L10.0666 12.6616L5.52741 15.2819C5.46116 15.32 5.38282 15.331 5.30866 15.3127C5.23451 15.2944 5.17026 15.2482 5.12928 15.1838C5.0883 15.1193 5.07374 15.0416 5.08865 14.9667C5.10355 14.8918 5.14676 14.8255 5.20929 14.7816L9.46357 11.8081L5.09771 14.3282C5.03086 14.3645 4.95264 14.3737 4.87918 14.354C4.80573 14.3342 4.74265 14.2871 4.70297 14.2222C4.66329 14.1573 4.65004 14.0796 4.66595 14.0053C4.68187 13.9309 4.72573 13.8655 4.78849 13.8225L5.08524 13.6302L4.93568 13.7169C4.90259 13.7375 4.86577 13.7514 4.82731 13.7578C4.78886 13.7641 4.74952 13.7629 4.71155 13.7541C4.67357 13.7453 4.63771 13.729 4.606 13.7064C4.57429 13.6837 4.54736 13.655 4.52675 13.6219C4.50613 13.5888 4.49224 13.552 4.48585 13.5135C4.47947 13.4751 4.48072 13.4357 4.48954 13.3978C4.49836 13.3598 4.51457 13.3239 4.53724 13.2922C4.55992 13.2605 4.58862 13.2336 4.62171 13.213L7.10199 11.5511L4.78255 12.8901C4.71585 12.928 4.63705 12.9387 4.56268 12.9198C4.48832 12.9008 4.42417 12.8539 4.3837 12.7887C4.34323 12.7235 4.32959 12.6451 4.34564 12.5701C4.36168 12.4951 4.40617 12.4291 4.46977 12.3862L6.06097 11.3321L4.09705 12.4657C4.03055 12.5026 3.95246 12.5125 3.87888 12.4934C3.8053 12.4744 3.74183 12.4278 3.70156 12.3633C3.6613 12.2989 3.64731 12.2214 3.66247 12.1469C3.67764 12.0724 3.72081 12.0066 3.78308 11.963L6.12626 10.3902L3.42401 11.95C3.35756 11.9873 3.27929 11.9977 3.20541 11.9789C3.13153 11.9601 3.06772 11.9136 3.0272 11.8491C2.98667 11.7845 2.97255 11.7068 2.98775 11.6321C3.00295 11.5574 3.04631 11.4915 3.10885 11.4479L5.77965 9.6341L3.07739 11.1938C3.01249 11.231 2.93594 11.2423 2.86306 11.2255C2.79018 11.2087 2.72635 11.1649 2.68434 11.103C2.64233 11.0411 2.62524 10.9657 2.63649 10.8917C2.64775 10.8178 2.68651 10.7508 2.74503 10.7042L5.43601 8.58477L3.44003 9.74212C3.37502 9.77836 3.29877 9.78884 3.22639 9.7715C3.15401 9.75416 3.0908 9.71025 3.04927 9.64849C3.00775 9.58672 2.99094 9.51161 3.0022 9.43804C3.01346 9.36447 3.05194 9.29781 3.11004 9.25129L4.82469 7.91589C4.76777 7.90911 4.71404 7.88599 4.66998 7.84933C4.62592 7.81266 4.59342 7.76402 4.5764 7.70929C4.55939 7.65455 4.5586 7.59606 4.57412 7.54088C4.58963 7.4857 4.6208 7.43619 4.66385 7.39835L5.51138 6.64874C5.44717 6.62471 5.3934 6.57892 5.35944 6.51936C5.32004 6.45127 5.30929 6.37032 5.32954 6.29431C5.3498 6.2183 5.39941 6.15344 5.46746 6.11399L7.3667 5.01955C7.43035 4.98327 7.50518 4.97183 7.57677 4.98742C7.64837 5.00301 7.71166 5.04453 7.75447 5.10399C7.79728 5.16345 7.81658 5.23665 7.80865 5.30949C7.80072 5.38233 7.76613 5.44966 7.71153 5.49852L7.26877 5.89023L7.91273 5.5181C7.97787 5.48015 8.05501 5.46841 8.12849 5.48527C8.20197 5.50213 8.26627 5.54632 8.30835 5.60887C8.35043 5.67142 8.36713 5.74765 8.35505 5.82206C8.34297 5.89647 8.30302 5.9635 8.24331 6.00953L6.87171 7.07785L8.72287 6.00953C8.78775 5.97304 8.86397 5.96226 8.93643 5.97933C9.00888 5.99641 9.07227 6.04009 9.11403 6.10171C9.15579 6.16334 9.17286 6.23841 9.16186 6.31203C9.15086 6.38565 9.11259 6.45245 9.05464 6.49918L6.36366 8.61801L12.5166 5.06347C12.5832 5.02401 12.6626 5.01214 12.7378 5.03039C12.813 5.04864 12.8782 5.09556 12.9193 5.16116C12.9604 5.22675 12.9743 5.30581 12.9579 5.38148C12.9416 5.45714 12.8963 5.52342 12.8317 5.56618L10.1609 7.37817L13.4407 5.48605C13.5071 5.45013 13.5848 5.44089 13.6578 5.46022C13.7308 5.47956 13.7937 5.52601 13.8337 5.59011C13.8736 5.65421 13.8876 5.73113 13.8728 5.8052C13.8581 5.87928 13.8156 5.94492 13.7541 5.98876L11.4109 7.56215L14.1191 5.99885C14.1858 5.96026 14.2649 5.94916 14.3397 5.96788C14.4145 5.9866 14.479 6.03368 14.5197 6.09915C14.5605 6.16471 14.5742 6.2436 14.5578 6.31907C14.5414 6.39453 14.4962 6.46064 14.4319 6.50333L12.8389 7.55859L14.5862 6.54963C14.6528 6.511 14.7319 6.4998 14.8066 6.5184C14.8814 6.537 14.946 6.58395 14.9868 6.64931C15.0275 6.71467 15.0413 6.79332 15.0251 6.86864C15.009 6.94396 14.9641 7.01005 14.9001 7.05292L12.421 8.71119L14.9482 7.25234C15.0152 7.21419 15.0945 7.20363 15.1691 7.2229C15.2438 7.24216 15.3081 7.28974 15.3483 7.35556C15.3885 7.42137 15.4015 7.50025 15.3845 7.57549C15.3675 7.65072 15.322 7.7164 15.2574 7.75861L14.9607 7.9509L15.1132 7.86366C15.1793 7.82705 15.2569 7.81705 15.3301 7.83568C15.4033 7.85431 15.4667 7.90017 15.5073 7.96391C15.5479 8.02766 15.5626 8.10448 15.5485 8.17871C15.5344 8.25294 15.4925 8.31899 15.4313 8.36339L11.1764 11.3375L15.7767 8.68211C15.8429 8.64458 15.9209 8.63388 15.9947 8.65222C16.0685 8.67055 16.1325 8.71653 16.1734 8.78065C16.2143 8.84477 16.229 8.92214 16.2145 8.9968C16.2 9.07146 16.1574 9.13769 16.0955 9.18185L11.843 12.1494L16.6593 9.3694C16.7254 9.33229 16.8031 9.32185 16.8766 9.34022C16.9501 9.35859 17.0138 9.40438 17.0546 9.4682C17.0955 9.53202 17.1103 9.60905 17.0962 9.68348C17.0821 9.75791 17.04 9.82412 16.9786 9.86854L12.3368 13.1423L16.9424 10.4804C17.0089 10.4441 17.0869 10.4346 17.1602 10.4539C17.2335 10.4732 17.2966 10.5199 17.3367 10.5843C17.3767 10.6487 17.3905 10.7259 17.3754 10.8002C17.3602 10.8745 17.3172 10.9402 17.2552 10.9837L15.4782 12.1666L16.3513 11.6627C16.4171 11.6249 16.495 11.6138 16.5688 11.6317C16.6426 11.6495 16.7067 11.695 16.748 11.7587C16.7893 11.8225 16.8046 11.8996 16.7908 11.9742C16.7769 12.0489 16.7349 12.1154 16.6735 12.1601L13.5434 14.4285L14.9541 13.6142C15.0173 13.5794 15.0909 13.5689 15.1613 13.5844C15.2317 13.6 15.294 13.6407 15.3366 13.6988C15.3792 13.757 15.3992 13.8286 15.3928 13.9004C15.3864 13.9722 15.3541 14.0393 15.3019 14.089L13.2377 15.9657L13.8692 15.6013C13.903 15.5798 13.9407 15.5654 13.9802 15.5589C14.0197 15.5524 14.0601 15.5539 14.099 15.5635C14.1379 15.573 14.1744 15.5903 14.2064 15.6143C14.2385 15.6383 14.2653 15.6685 14.2853 15.7032C14.3054 15.7378 14.3182 15.7762 14.323 15.8159C14.3278 15.8556 14.3246 15.8959 14.3134 15.9344C14.3023 15.9728 14.2834 16.0086 14.2581 16.0396C14.2328 16.0706 14.2014 16.0961 14.166 16.1146L11.1438 17.8596C11.0999 17.8869 11.0495 17.902 10.9978 17.9035Z" fill="#EABEA3"/>
<path d="M0.21371 26.0779C-0.579814 37.011 0.43865 35.2993 10.193 35.2684C12.7374 35.2684 19.1995 36.7124 19.7829 33.0416C20.1046 28.6864 20.8815 21.277 14.8141 20.9517C14.8056 20.9465 14.7969 20.9418 14.788 20.9375L12.7142 19.3831C12.7487 18.7231 12.7089 18.0073 12.7231 17.3361C13.7418 16.759 14.5572 15.8811 15.0574 14.8226C15.2568 14.3982 15.458 12.8901 15.8883 12.6456C16.2995 12.5094 16.6608 12.2537 16.9259 11.9111C17.1911 11.5686 17.3481 11.1548 17.3769 10.7226C17.5638 8.40789 18.1781 3.77198 15.1269 2.88112C15.1726 2.89358 14.036 2.57724 14.1565 2.77903C13.811 2.99032 13.8431 2.92286 14.2526 2.57664C15.5934 1.44126 15.2094 0.147404 13.4051 0.212691C5.12679 -0.7577 1.56573 2.52738 2.62633 10.8365C2.67889 11.2623 2.85384 11.6636 3.12996 11.9918C3.40608 12.3201 3.7715 12.5612 4.18192 12.6859C5.06804 14.3009 5.29535 16.501 7.26818 17.3628C7.2842 18.0554 7.24206 18.7279 7.26818 19.4235L5.23244 20.9535C3.90453 21.0193 2.65026 21.5834 1.71998 22.5333C0.789692 23.4832 0.251818 24.7489 0.21371 26.0779ZM7.54238 19.9054C8.24094 20.4241 8.89381 20.817 9.54667 21.3452C8.9312 21.9672 8.5377 22.4729 7.87059 23.2101C7.82231 23.2174 7.77602 23.2344 7.7345 23.2601C7.69299 23.2858 7.65711 23.3197 7.62903 23.3596C6.99873 22.8255 6.33874 21.8462 5.71556 21.2752L7.54238 19.9054ZM12.3896 19.8911L14.2835 21.3108C13.7333 21.8396 12.859 22.9436 12.3783 23.4018C12.3658 23.3594 12.3423 23.3212 12.3102 23.2909C12.2781 23.2607 12.2385 23.2395 12.1955 23.2296C11.6298 22.5714 11.0467 21.9282 10.447 21.3007C11.0756 20.7933 11.7343 20.3968 12.3896 19.8911ZM11.9664 29.506L11.5438 24.3692C11.7384 24.2112 11.9147 24.032 12.0697 23.835C13.138 24.1644 13.703 22.6136 14.4396 22.0735C14.1031 24.8386 13.6104 26.4459 11.9664 29.5048V29.506ZM7.26818 27.9433C6.34463 26.1242 5.76628 24.1497 5.56243 22.1198C6.28592 22.645 6.86281 24.2339 7.92045 23.8321C8.07522 24.0264 8.25076 24.2034 8.44392 24.3597L8.02847 29.3944C7.72222 28.8555 7.46048 28.3142 7.26818 27.9433ZM9.97874 21.7215C10.5224 22.302 11.0275 22.826 11.5545 23.4427C11.3913 23.6154 11.2103 23.7691 11.05 23.9448C10.2684 23.9614 9.6992 23.9602 8.96621 23.9579C8.78816 23.7739 8.6018 23.6053 8.42434 23.4237C8.9401 22.8071 9.4434 22.2972 9.97874 21.7215ZM11.1658 23.9804C11.1323 23.9588 11.0939 23.9457 11.0542 23.9424C11.0747 23.9383 11.0959 23.9396 11.1157 23.9463C11.1355 23.953 11.1532 23.9647 11.167 23.9804H11.1658ZM11.0293 23.9674C10.8512 24.2261 10.9195 23.9727 11.0512 23.943C11.0429 23.9531 11.0334 23.9585 11.0275 23.9674H11.0293ZM8.68074 30.2052L9.14486 24.5561C9.71798 24.5186 10.2929 24.5186 10.866 24.5561C11.0583 26.4856 11.1213 28.4555 11.3794 30.366C10.4245 31.6444 9.44102 31.4972 8.63682 30.3257C8.66251 30.2906 8.67718 30.2486 8.67896 30.2052H8.68074ZM0.790602 33.0416C0.389389 31.7697 0.790602 29.7114 0.790602 28.3766C0.790602 25.3497 1.10398 22.2248 4.74279 21.68C3.83828 23.397 2.08802 25.812 2.97947 27.4964C4.32615 30.0414 6.46279 32.3875 8.21364 34.7236C5.51495 34.9491 1.47492 35.2114 0.790602 33.0416ZM10.1004 34.5977C9.8274 34.5977 9.46239 34.6221 9.04456 34.6571L4.03176 27.7498C2.42335 26.0542 4.50183 24.1887 5.04073 22.4118C5.29616 25.2176 6.31257 27.9006 7.98039 30.1713C7.98615 30.2165 8.00349 30.2595 8.03074 30.296C8.05798 30.3325 8.09421 30.3613 8.13589 30.3797C10.1081 32.8398 9.88972 32.7858 11.8525 30.3654C11.8904 30.3431 11.9235 30.3135 11.9498 30.2782C11.9761 30.2429 11.995 30.2028 12.0056 30.1601C13.6758 27.878 14.695 25.1852 14.9541 22.369L16.3139 25.3224C16.886 26.5652 16.7839 26.6655 16.0011 27.7445L10.9972 34.6363C10.6988 34.6138 10.3997 34.6009 10.1004 34.5977ZM19.2061 27.6727C20.0601 34.3336 18.8517 35.31 11.7789 34.6957C13.538 32.381 15.8432 29.9743 17.0516 27.4097C17.8232 25.7734 16.1732 23.3857 15.2598 21.6996C18.3324 22.2319 19.2061 24.7894 19.2061 27.6727ZM8.98936 0.806202C10.0773 0.730232 12.1908 0.441786 13.1974 0.806202C13.8852 1.05488 13.5036 0.331393 13.9262 1.36826C14.4396 2.62887 13.5339 1.67451 13.487 2.53154H11.7195C11.3747 2.53154 11.4821 3.23425 11.8382 3.23425C12.4489 3.21942 13.0733 3.26334 13.6781 3.21764C16.8308 3.6687 16.8985 6.53002 16.8237 9.11773C16.5566 8.68743 15.7667 8.66369 15.5666 8.21975C15.478 7.55487 15.2194 6.92408 14.8158 6.38833C14.4122 5.85259 13.8773 5.43 13.2626 5.16138C11.697 4.53404 11.25 6.44455 9.40482 6.03325C7.9982 5.72047 8.00117 4.5287 6.61116 5.23557C6.03545 5.52744 5.5378 5.95263 5.15964 6.47573C4.78149 6.99883 4.53378 7.6047 4.43713 8.24289C4.20507 8.70702 3.4982 8.64885 3.21035 9.11832C3.2418 5.1139 3.67863 1.17596 8.98936 0.806202ZM4.61697 12.2254C4.11248 11.7577 3.224 11.4799 3.14625 10.7006C3.25961 10.535 3.1872 10.3184 3.2056 10.1285C3.4709 9.24652 4.66089 9.35691 4.92322 8.49573C5.10483 7.46539 5.70131 6.23623 6.79812 5.88013C7.49431 5.65519 7.38748 5.83324 7.91867 6.07005C8.7757 6.45227 9.30036 6.87544 10.3443 6.76505C11.2536 6.6689 11.7213 5.90565 12.4673 5.74421C13.8965 5.45933 14.874 7.57341 15.1168 8.65242C15.3257 9.14622 15.7631 9.1474 16.21 9.45781C16.4141 9.5968 16.5769 9.78823 16.6814 10.012C16.7858 10.2357 16.828 10.4834 16.8035 10.7291C16.7644 11.0264 16.6384 11.3055 16.4414 11.5315C16.2444 11.7575 15.9852 11.9204 15.696 11.9998C15.2367 12.2627 15.274 12.3363 15.055 12.7969C14.309 17.1479 9.59118 18.9237 6.33043 15.806C5.30425 14.7406 5.36895 13.3459 4.61697 12.2254ZM9.98883 18.0726C10.6852 18.0707 11.3749 17.9369 12.0216 17.6785C11.9879 18.2477 11.9991 18.8186 12.0548 19.3861C11.4152 19.9353 10.7412 20.4432 10.0369 20.9066C9.3514 20.3909 8.68073 19.8454 7.97149 19.3671C7.98217 18.808 7.97149 18.2477 7.97446 17.688C8.61611 17.9405 9.29928 18.071 9.98883 18.0726Z" fill="#262626"/>
</svg>
