<svg width="31" height="40" viewBox="0 0 31 40" fill="none" xmlns="http://www.w3.org/2000/svg">
<path d="M3.9035 38.6609C3.83015 38.661 3.75876 38.6372 3.70003 38.5933C3.64131 38.5493 3.59841 38.4875 3.57777 38.4171C3.55714 38.3467 3.55987 38.2716 3.58557 38.2029C3.61127 38.1341 3.65854 38.0756 3.72031 38.036L8.03693 35.2766L2.76023 38.3217C2.68344 38.3633 2.59358 38.3737 2.50934 38.3507C2.4251 38.3277 2.35296 38.2731 2.30794 38.1983C2.26293 38.1235 2.24849 38.0342 2.26765 37.949C2.28681 37.8638 2.33808 37.7892 2.4108 37.7409L3.80308 36.8663L2.76023 37.4675C2.6841 37.5085 2.59519 37.5188 2.51167 37.4965C2.42814 37.4741 2.3563 37.4207 2.31083 37.3472C2.26535 37.2737 2.24967 37.1855 2.26699 37.1008C2.28431 37.0161 2.33332 36.9412 2.40401 36.8914L7.72686 33.372L2.76023 36.238C2.68421 36.2821 2.59404 36.295 2.50871 36.274C2.42337 36.2529 2.34954 36.1996 2.30275 36.1252C2.25596 36.0508 2.23988 35.9611 2.25788 35.8751C2.27588 35.7891 2.32657 35.7134 2.39926 35.664L7.45071 32.2036L2.76023 34.9149C2.68403 34.9591 2.59365 34.9719 2.50819 34.9506C2.42273 34.9294 2.34889 34.8757 2.30227 34.801C2.25566 34.7263 2.23993 34.6363 2.25841 34.5502C2.27689 34.4641 2.32813 34.3886 2.4013 34.3396L4.81948 32.7112L2.76023 33.9006C2.68454 33.9414 2.59619 33.9519 2.51304 33.93C2.42989 33.9082 2.35814 33.8556 2.3123 33.7828C2.26645 33.7101 2.24993 33.6227 2.26608 33.5382C2.28222 33.4538 2.32982 33.3786 2.39926 33.3279L4.09552 32.1629L2.76023 32.9351C2.68421 32.9792 2.59404 32.9921 2.50871 32.971C2.42337 32.95 2.34954 32.8966 2.30275 32.8222C2.25596 32.7478 2.23988 32.6582 2.25788 32.5722C2.27588 32.4861 2.32657 32.4105 2.39926 32.3611L2.68152 32.169C2.6136 32.1866 2.54193 32.183 2.4761 32.1588C2.41026 32.1345 2.3534 32.0908 2.31309 32.0333C2.26441 31.964 2.2434 31.8791 2.2542 31.7951C2.265 31.7111 2.30682 31.6342 2.37144 31.5794L4.639 29.6552L2.76023 30.7408C2.68629 30.7826 2.59936 30.7952 2.51661 30.776C2.43386 30.7568 2.36132 30.7073 2.31332 30.6372C2.26533 30.5671 2.24536 30.4816 2.25738 30.3975C2.2694 30.3134 2.31252 30.2369 2.37823 30.1831L2.73105 29.8988C2.65849 29.9144 2.58279 29.9059 2.51556 29.8744C2.44833 29.8429 2.39328 29.7903 2.35886 29.7245C2.32443 29.6587 2.31253 29.5835 2.32497 29.5103C2.33742 29.4371 2.37353 29.37 2.42776 29.3193L3.03841 28.7474C2.99023 28.718 2.95031 28.6769 2.92239 28.6279C2.87735 28.5501 2.86505 28.4576 2.88821 28.3707C2.91136 28.2838 2.96807 28.2096 3.04588 28.1645L4.65867 27.2336C4.73096 27.1897 4.81707 27.1743 4.9001 27.1906C4.98314 27.2068 5.0571 27.2535 5.10748 27.3215C5.15787 27.3894 5.18103 27.4738 5.17244 27.558C5.16384 27.6421 5.12411 27.72 5.06102 27.7764L5.01624 27.8192L6.10185 27.1929C6.17581 27.1503 6.2631 27.1372 6.34632 27.1561C6.42954 27.175 6.50257 27.2246 6.55086 27.295C6.59914 27.3654 6.61913 27.4513 6.60683 27.5358C6.59454 27.6202 6.55086 27.697 6.48452 27.7506L6.21312 27.9684L7.55452 27.1943C7.62773 27.1533 7.71352 27.1409 7.79534 27.1595C7.87716 27.178 7.94919 27.2263 7.99752 27.2949C8.04585 27.3634 8.06706 27.4475 8.05705 27.5308C8.04703 27.6141 8.00651 27.6907 7.9433 27.7459L5.67575 29.6701L9.96591 27.1943C10.0418 27.1509 10.1315 27.1385 10.2164 27.1596C10.3012 27.1808 10.3746 27.2339 10.4212 27.3078C10.4678 27.3818 10.4841 27.4708 10.4667 27.5565C10.4492 27.6422 10.3994 27.7178 10.3276 27.7676L10.1647 27.8782L11.3501 27.1943C11.4258 27.1526 11.5146 27.1413 11.5983 27.1629C11.6821 27.1845 11.7544 27.2372 11.8006 27.3103C11.8467 27.3834 11.8632 27.4714 11.8467 27.5562C11.8302 27.6411 11.7819 27.7165 11.7117 27.7669L10.0154 28.9312L13.0246 27.1943C13.1007 27.1509 13.1906 27.1387 13.2755 27.16C13.3604 27.1814 13.4337 27.2348 13.4802 27.3091C13.5266 27.3833 13.5426 27.4726 13.5247 27.5583C13.5068 27.644 13.4565 27.7195 13.3842 27.769L10.9653 29.3974L14.7792 27.1943C14.855 27.1521 14.9442 27.1406 15.0282 27.1621C15.1123 27.1836 15.1849 27.2366 15.2312 27.31C15.2774 27.3834 15.2937 27.4718 15.2768 27.5569C15.2599 27.6421 15.211 27.7174 15.1402 27.7676L10.0908 31.2239L17.0705 27.1943C17.1466 27.1533 17.2355 27.1429 17.3191 27.1652C17.4026 27.1876 17.4744 27.241 17.5199 27.3145C17.5654 27.3881 17.581 27.4762 17.5637 27.5609C17.5464 27.6456 17.4974 27.7205 17.4267 27.7703L12.1045 31.2904L19.2003 27.1943C19.2771 27.1527 19.367 27.1423 19.4512 27.1653C19.5354 27.1883 19.6076 27.2428 19.6526 27.3177C19.6976 27.3925 19.712 27.4818 19.6929 27.567C19.6737 27.6522 19.6225 27.7267 19.5497 27.7751L18.1554 28.6497L20.6794 27.1943C20.756 27.1522 20.8458 27.1412 20.9302 27.1637C21.0146 27.1862 21.0871 27.2404 21.1326 27.3149C21.1781 27.3895 21.193 27.4788 21.1743 27.5641C21.1556 27.6494 21.1048 27.7243 21.0323 27.773L16.7143 30.5345L22.4999 27.1943C22.5765 27.1507 22.6671 27.1386 22.7524 27.1606C22.8378 27.1826 22.9113 27.237 22.9572 27.3123C23.0032 27.3875 23.018 27.4777 22.9986 27.5637C22.9793 27.6497 22.9272 27.7248 22.8534 27.773L17.9926 30.8941L24.4058 27.1943C24.4821 27.1538 24.571 27.144 24.6544 27.1669C24.7377 27.1898 24.8091 27.2436 24.8542 27.3173C24.8992 27.3911 24.9144 27.4792 24.8966 27.5638C24.8788 27.6483 24.8295 27.7229 24.7586 27.7724L19.6325 31.0753L26.1821 27.292C26.2587 27.2484 26.3493 27.2363 26.4347 27.2583C26.52 27.2803 26.5935 27.3347 26.6394 27.41C26.6854 27.4852 26.7003 27.5754 26.6809 27.6614C26.6615 27.7474 26.6094 27.8225 26.5356 27.8707L21.4326 31.1635L27.2046 27.8314C27.281 27.7871 27.3716 27.7743 27.4572 27.7958C27.5429 27.8173 27.6168 27.8713 27.6632 27.9464C27.7097 28.0214 27.7251 28.1117 27.7061 28.1979C27.6871 28.2841 27.6352 28.3595 27.5615 28.4081L21.3383 32.5334L27.9021 28.744C27.9779 28.6998 28.0679 28.6868 28.1532 28.7076C28.2384 28.7284 28.3123 28.7814 28.3593 28.8556C28.4062 28.9297 28.4227 29.0191 28.4051 29.1051C28.3876 29.191 28.3374 29.2669 28.2651 29.3166L21.6246 33.9223L28.1613 30.1478C28.2368 30.1042 28.3263 30.0914 28.411 30.1121C28.4958 30.1327 28.5693 30.1852 28.6164 30.2586C28.6634 30.3321 28.6804 30.4208 28.6638 30.5064C28.6471 30.592 28.5981 30.668 28.527 30.7184L23.4274 34.3233L28.1654 31.5882C28.2405 31.5455 28.3292 31.533 28.4133 31.5535C28.4973 31.5739 28.5704 31.6257 28.6175 31.6983C28.6647 31.7708 28.6823 31.8586 28.6669 31.9437C28.6514 32.0288 28.6041 32.1048 28.5345 32.1561L24.9248 34.7786L28.1681 32.9066C28.2419 32.8642 28.329 32.8512 28.4121 32.8701C28.4951 32.889 28.568 32.9384 28.6163 33.0086C28.6646 33.0787 28.6847 33.1644 28.6727 33.2487C28.6607 33.3331 28.6174 33.4098 28.5514 33.4636L25.6013 35.8492L28.1715 34.366C28.2442 34.3247 28.3296 34.3116 28.4113 34.3294C28.493 34.3472 28.5653 34.3945 28.6143 34.4623C28.6632 34.5301 28.6854 34.6136 28.6766 34.6968C28.6677 34.7799 28.6285 34.8569 28.5663 34.9129L26.9522 36.354L28.1776 35.6464C28.2468 35.6067 28.3278 35.5928 28.4063 35.6069C28.4848 35.6211 28.5558 35.6625 28.6068 35.7238C28.6579 35.7851 28.6857 35.8624 28.6853 35.9422C28.685 36.022 28.6566 36.0991 28.605 36.16L27.8695 37.0203L28.181 36.8405C28.2396 36.8065 28.307 36.7909 28.3746 36.7956C28.4422 36.8002 28.5069 36.8251 28.5602 36.8668C28.6136 36.9086 28.6532 36.9653 28.674 37.0298C28.6948 37.0943 28.6958 37.1636 28.6769 37.2286L28.5094 37.8047C28.5632 37.8328 28.6085 37.8748 28.6406 37.9264C28.6726 37.9781 28.6902 38.0373 28.6915 38.098C28.6928 38.1588 28.6778 38.2187 28.648 38.2717C28.6183 38.3246 28.5748 38.3686 28.5222 38.399L28.183 38.5951C28.1244 38.6288 28.0572 38.6442 27.9898 38.6395C27.9224 38.6347 27.858 38.6099 27.8048 38.5683C27.7516 38.5267 27.7121 38.4701 27.6912 38.4059C27.6703 38.3416 27.6691 38.2726 27.6877 38.2077L27.7908 37.8495L26.4956 38.5958C26.4263 38.6358 26.345 38.6501 26.2662 38.636C26.1874 38.6219 26.1162 38.5804 26.065 38.5189C26.0138 38.4573 25.9861 38.3797 25.9867 38.2996C25.9872 38.2196 26.0161 38.1423 26.0681 38.0815L26.8036 37.2218L24.418 38.5978C24.3459 38.6356 24.2626 38.6462 24.1833 38.6277C24.1041 38.6091 24.0341 38.5627 23.9862 38.4969C23.9383 38.4311 23.9157 38.3502 23.9225 38.2691C23.9293 38.188 23.965 38.112 24.0231 38.055L25.6393 36.6112L22.1973 38.5999C22.1234 38.6422 22.0363 38.6553 21.9532 38.6364C21.8702 38.6175 21.7973 38.568 21.749 38.4979C21.7008 38.4277 21.6806 38.342 21.6927 38.2577C21.7047 38.1734 21.7479 38.0967 21.8139 38.0428L24.7647 35.6559L19.661 38.6019C19.5859 38.6437 19.4976 38.6554 19.4142 38.6347C19.3307 38.6139 19.2583 38.5622 19.2115 38.4901C19.1647 38.418 19.147 38.3307 19.1621 38.2461C19.1771 38.1614 19.2238 38.0856 19.2926 38.034L22.8995 35.413L17.3724 38.6019C17.2969 38.6455 17.2074 38.6583 17.1227 38.6376C17.0379 38.617 16.9644 38.5645 16.9173 38.4911C16.8703 38.4176 16.8533 38.3289 16.87 38.2433C16.8866 38.1577 16.9356 38.0817 17.0067 38.0313L22.1043 34.4285L14.8715 38.606C14.7956 38.6501 14.7056 38.6631 14.6204 38.6423C14.5352 38.6215 14.4613 38.5685 14.4143 38.4944C14.3673 38.4203 14.3509 38.3309 14.3685 38.2449C14.386 38.1589 14.4362 38.0831 14.5085 38.0333L21.1517 33.4256L12.1758 38.608C12.0994 38.6523 12.0088 38.6651 11.9231 38.6436C11.8375 38.6221 11.7636 38.5681 11.7171 38.4931C11.6707 38.418 11.6553 38.3277 11.6743 38.2415C11.6933 38.1553 11.7452 38.0799 11.8189 38.0313L18.0414 33.906L9.89806 38.6101C9.82131 38.657 9.72905 38.6716 9.64157 38.6505C9.55409 38.6295 9.47856 38.5745 9.43159 38.4978C9.38462 38.421 9.37007 38.3288 9.39113 38.2413C9.41219 38.1538 9.46713 38.0783 9.54388 38.0313L14.6476 34.7372L7.93584 38.6114C7.85929 38.6535 7.76946 38.6645 7.68505 38.642C7.60064 38.6195 7.52815 38.5653 7.48268 38.4907C7.43721 38.4162 7.42226 38.3269 7.44095 38.2416C7.45964 38.1562 7.51053 38.0814 7.58301 38.0327L12.7104 34.7256L5.98107 38.6107C5.9043 38.6557 5.81292 38.6688 5.72664 38.647C5.64035 38.6253 5.56606 38.5705 5.51978 38.4945C5.47351 38.4185 5.45894 38.3273 5.47923 38.2407C5.49952 38.154 5.55304 38.0788 5.62825 38.0313L10.4904 34.9102L4.07313 38.6148C4.0217 38.645 3.96314 38.6609 3.9035 38.6609Z" fill="#416572"/>
<path d="M10.4863 39.9976C10.4163 39.9975 10.3481 39.9758 10.291 39.9355C10.2338 39.8951 10.1906 39.8381 10.1671 39.7722C10.1436 39.7063 10.1411 39.6348 10.1598 39.5674C10.1786 39.5 10.2177 39.4401 10.2719 39.3958L10.3024 39.3707L9.29481 39.9515C9.22602 39.9913 9.14543 40.0057 9.06709 39.9922C8.98876 39.9787 8.91766 39.9381 8.8662 39.8775C8.81474 39.8169 8.78619 39.7402 8.78553 39.6607C8.78487 39.5812 8.81215 39.504 8.86261 39.4426L9.87425 38.2125L6.85967 39.9501C6.79017 39.9897 6.70894 40.0034 6.63032 39.9889C6.55169 39.9743 6.48072 39.9325 6.42992 39.8708C6.37913 39.809 6.35177 39.7313 6.35269 39.6514C6.3536 39.5714 6.38273 39.4944 6.43493 39.4338L7.42554 38.3007L4.56701 39.9501C4.49476 39.9915 4.40982 40.0049 4.32836 39.9877C4.2469 39.9705 4.17461 39.9239 4.12525 39.8569C4.07588 39.7898 4.0529 39.707 4.06067 39.6241C4.06844 39.5412 4.10642 39.464 4.16738 39.4073L4.82824 38.7967L2.83005 39.9501C2.75785 39.9898 2.67367 40.0019 2.59321 39.9841C2.51275 39.9663 2.44153 39.9198 2.39283 39.8534C2.34414 39.7869 2.3213 39.705 2.32859 39.6229C2.33588 39.5408 2.3728 39.4642 2.43245 39.4073L3.02885 38.8645L1.1969 39.9203C1.12615 39.9611 1.04304 39.9751 0.96283 39.9596C0.882618 39.9441 0.810695 39.9002 0.760276 39.8359C0.709856 39.7716 0.684328 39.6913 0.68838 39.6097C0.692432 39.5281 0.725793 39.4507 0.782333 39.3917L1.66438 38.4771L0.723982 39.0199C0.66143 39.0554 0.589216 39.0701 0.517766 39.0619C0.446316 39.0536 0.379328 39.0229 0.326474 38.9742C0.27362 38.9254 0.237635 38.8611 0.223715 38.7905C0.209795 38.7199 0.218661 38.6468 0.249031 38.5816L0.629671 37.7789C0.563949 37.7864 0.497463 37.7746 0.438393 37.7448C0.379324 37.715 0.330248 37.6686 0.297205 37.6113C0.252434 37.5335 0.240364 37.441 0.263639 37.3543C0.286915 37.2675 0.343638 37.1936 0.42137 37.1486L1.20911 36.694C1.27166 36.6585 1.34388 36.6438 1.41533 36.652C1.48678 36.6602 1.55376 36.691 1.60662 36.7397C1.65947 36.7885 1.69546 36.8528 1.70938 36.9234C1.7233 36.9939 1.71443 37.0671 1.68406 37.1323L1.32446 37.8943L3.40542 36.6933C3.47616 36.6525 3.55928 36.6385 3.63949 36.654C3.7197 36.6695 3.79162 36.7134 3.84204 36.7777C3.89246 36.842 3.91799 36.9223 3.91394 37.0039C3.90989 37.0855 3.87652 37.1629 3.81998 37.2219L2.93793 38.1358L5.43957 36.6933C5.51174 36.6541 5.59569 36.6424 5.67584 36.6604C5.75598 36.6784 5.82688 36.7249 5.87536 36.7912C5.92385 36.8575 5.94663 36.9391 5.93948 37.0209C5.93233 37.1028 5.89574 37.1792 5.83649 37.2361L5.24144 37.7789L7.12089 36.6933C7.19314 36.6519 7.27808 36.6386 7.35955 36.6558C7.44101 36.673 7.5133 36.7195 7.56266 36.7866C7.61202 36.8536 7.63501 36.9365 7.62724 37.0194C7.61947 37.1023 7.58149 37.1794 7.52053 37.2361L6.85967 37.8468L8.85853 36.6933C8.92803 36.6538 9.00926 36.6401 9.08789 36.6546C9.16652 36.6691 9.23749 36.7109 9.28828 36.7727C9.33908 36.8344 9.36643 36.9121 9.36552 36.9921C9.3646 37.072 9.33547 37.1491 9.28328 37.2097L8.29266 38.3428L11.1512 36.6933C11.22 36.6535 11.3006 36.639 11.3789 36.6526C11.4572 36.6661 11.5283 36.7067 11.5798 36.7673C11.6313 36.8278 11.6598 36.9046 11.6605 36.9841C11.6611 37.0636 11.6339 37.1408 11.5834 37.2022L10.5724 38.4323L13.5857 36.6933C13.6594 36.6514 13.7461 36.6385 13.8288 36.6574C13.9115 36.6762 13.9841 36.7253 14.0324 36.7951C14.0807 36.8648 14.1011 36.9501 14.0896 37.0341C14.0781 37.1181 14.0356 37.1948 13.9704 37.249L13.9398 37.2741L14.9467 36.6933C15.017 36.653 15.0995 36.6392 15.1791 36.6544C15.2587 36.6696 15.3303 36.7128 15.3808 36.7762C15.4313 36.8396 15.4574 36.919 15.4545 37C15.4515 37.081 15.4197 37.1583 15.3647 37.2178L14.4182 38.2355L17.0901 36.6933C17.1624 36.6486 17.2489 36.6327 17.3323 36.6486C17.4158 36.6646 17.4903 36.7113 17.541 36.7796C17.5916 36.8478 17.6148 36.9326 17.606 37.0172C17.5971 37.1017 17.5569 37.1798 17.4931 37.2361L16.7665 37.9228L18.8922 36.6933C18.9615 36.6537 19.0426 36.6398 19.1211 36.6541C19.1996 36.6683 19.2706 36.7098 19.3216 36.7712C19.3726 36.8326 19.4003 36.9101 19.3998 36.9899C19.3993 37.0697 19.3707 37.1468 19.319 37.2076L18.3202 38.3692L21.229 36.6933C21.302 36.6521 21.3876 36.6394 21.4694 36.6576C21.5513 36.6758 21.6235 36.7236 21.6721 36.7919C21.7207 36.8602 21.7424 36.944 21.7328 37.0273C21.7233 37.1106 21.6833 37.1874 21.6205 37.2429L21.2297 37.5822L22.7671 36.6933C22.8382 36.6547 22.9208 36.6427 22.9999 36.6596C23.079 36.6765 23.1495 36.7211 23.1987 36.7854C23.2478 36.8497 23.2723 36.9294 23.2679 37.0102C23.2634 37.091 23.2302 37.1675 23.1742 37.2259L22.3146 38.0958L24.7456 36.6933C24.8174 36.6524 24.9017 36.6391 24.9826 36.6559C25.0636 36.6727 25.1356 36.7185 25.1851 36.7846C25.2347 36.8507 25.2584 36.9327 25.2518 37.0151C25.2452 37.0975 25.2088 37.1746 25.1494 37.232L24.3894 37.9594L26.5837 36.6933C26.6538 36.6535 26.7358 36.6399 26.815 36.655C26.8942 36.6701 26.9655 36.713 27.016 36.7759C27.0664 36.8388 27.0929 36.9176 27.0905 36.9982C27.0881 37.0788 27.0571 37.1559 27.003 37.2158L26.0463 38.2593L28.7603 36.692C28.8319 36.6501 28.9164 36.6359 28.9978 36.6521C29.0791 36.6683 29.1517 36.7137 29.2018 36.7798C29.252 36.8459 29.2761 36.9281 29.2698 37.0108C29.2635 37.0935 29.227 37.171 29.1674 37.2287L28.3688 38.0055L30.099 37.0075C30.1689 36.9676 30.2506 36.9538 30.3297 36.9686C30.4087 36.9834 30.4799 37.0258 30.5306 37.0882C30.5813 37.1506 30.6082 37.229 30.6064 37.3095C30.6047 37.3899 30.5744 37.467 30.521 37.5272L29.8303 38.2959L30.2001 38.0822C30.2659 38.0443 30.3426 38.0296 30.4177 38.0404C30.4929 38.0513 30.5622 38.087 30.6147 38.1419C30.6674 38.1969 30.7001 38.268 30.7075 38.3438C30.7149 38.4197 30.6965 38.4958 30.6554 38.5599L30.4471 38.8835C30.5074 38.9056 30.5603 38.9443 30.5995 38.9952C30.6387 39.0461 30.6626 39.1071 30.6685 39.171C30.6744 39.235 30.662 39.2993 30.6328 39.3565C30.6036 39.4137 30.5587 39.4615 30.5034 39.4942L29.7163 39.9488C29.6507 39.9861 29.5744 40.0005 29.4997 39.9896C29.4249 39.9787 29.3559 39.9432 29.3037 39.8887C29.2514 39.8341 29.2188 39.7637 29.2111 39.6886C29.2034 39.6134 29.221 39.5378 29.2611 39.4738L29.3289 39.3673L28.3173 39.9508C28.2474 39.9907 28.1657 40.0045 28.0866 39.9897C28.0076 39.9749 27.9364 39.9325 27.8857 39.8701C27.835 39.8076 27.8081 39.7292 27.8099 39.6488C27.8116 39.5684 27.8419 39.4912 27.8952 39.4311L28.586 38.661L26.3537 39.9501C26.2821 39.992 26.1976 40.0062 26.1163 39.99C26.0349 39.9738 25.9623 39.9283 25.9122 39.8623C25.8621 39.7962 25.8379 39.714 25.8442 39.6313C25.8506 39.5486 25.887 39.4711 25.9466 39.4134L26.7459 38.6359L24.4681 39.9501C24.398 39.99 24.316 40.0036 24.2368 39.9884C24.1576 39.9733 24.0864 39.9304 24.0359 39.8676C23.9854 39.8047 23.959 39.7258 23.9614 39.6452C23.9637 39.5646 23.9947 39.4875 24.0488 39.4277L25.0075 38.3828L22.2935 39.9501C22.2217 39.9941 22.1361 40.0098 22.0533 39.9941C21.9705 39.9784 21.8966 39.9325 21.8458 39.8653C21.795 39.7981 21.771 39.7144 21.7786 39.6305C21.7861 39.5466 21.8245 39.4685 21.8864 39.4114L22.6464 38.684L20.4534 39.9501C20.3824 39.9888 20.2998 40.0007 20.2207 39.9838C20.1415 39.9669 20.0711 39.9223 20.0219 39.8581C19.9728 39.7938 19.9482 39.7141 19.9527 39.6333C19.9572 39.5525 19.9904 39.476 20.0463 39.4175L20.9101 38.547L18.4756 39.9501C18.4026 39.9913 18.317 40.0041 18.2351 39.9859C18.1533 39.9677 18.0811 39.9198 18.0325 39.8515C17.9839 39.7833 17.9622 39.6994 17.9718 39.6161C17.9813 39.5329 18.0213 39.4561 18.0841 39.4005L18.4749 39.0613L16.9361 39.9501C16.8668 39.9897 16.7857 40.0036 16.7072 39.9894C16.6287 39.9751 16.5577 39.9336 16.5067 39.8722C16.4557 39.8108 16.428 39.7334 16.4285 39.6535C16.429 39.5737 16.4576 39.4966 16.5093 39.4358L17.5081 38.2729L14.6007 39.9501C14.5284 39.9941 14.4423 40.0094 14.3593 39.9932C14.2762 39.9769 14.2023 39.9303 14.1519 39.8623C14.1015 39.7943 14.0783 39.71 14.0869 39.6258C14.0955 39.5416 14.1353 39.4637 14.1983 39.4073L14.9257 38.7207L12.7986 39.9501C12.7283 39.9904 12.6458 40.0042 12.5662 39.989C12.4866 39.9738 12.4151 39.9306 12.3646 39.8672C12.314 39.8038 12.2879 39.7245 12.2908 39.6435C12.2938 39.5625 12.3256 39.4852 12.3806 39.4256L13.3271 38.4079L10.6559 39.9501C10.6046 39.9808 10.546 39.9972 10.4863 39.9976Z" fill="#324E56"/>
<path d="M7.1318 27.7784C7.05866 27.7784 6.98748 27.7548 6.92885 27.7111C6.87023 27.6674 6.82731 27.6059 6.80648 27.5358C6.78565 27.4657 6.78804 27.3907 6.81328 27.3221C6.83853 27.2534 6.88528 27.1948 6.94657 27.1549L15.879 21.3381L6.62224 26.6826C6.54513 26.7291 6.45274 26.743 6.36539 26.7213C6.27803 26.6996 6.20288 26.6441 6.15645 26.567C6.11002 26.4899 6.09613 26.3975 6.11782 26.3101C6.13952 26.2228 6.19503 26.1476 6.27213 26.1012L12.1371 22.4271L6.69009 25.5719C6.61328 25.6158 6.52235 25.628 6.4367 25.6058C6.35105 25.5836 6.27746 25.5289 6.23161 25.4532C6.18576 25.3775 6.17129 25.2869 6.19129 25.2007C6.21128 25.1145 6.26415 25.0396 6.33863 24.9918L16.4028 18.5773L6.7844 24.1315C6.70748 24.1782 6.61515 24.1924 6.52773 24.171C6.44031 24.1497 6.36497 24.0944 6.31827 24.0175C6.27158 23.9406 6.25735 23.8482 6.27873 23.7608C6.30011 23.6734 6.35533 23.5981 6.43226 23.5514L14.8871 18.1702L6.86854 22.8009C6.79151 22.8454 6.70013 22.8578 6.61405 22.8355C6.52797 22.8132 6.45409 22.758 6.40829 22.6818C6.36249 22.6056 6.34844 22.5144 6.36917 22.428C6.38989 22.3415 6.44374 22.2666 6.51911 22.2195L9.60222 20.3007L6.9296 21.8443C6.85276 21.8911 6.76045 21.9056 6.67297 21.8844C6.58549 21.8632 6.51001 21.8081 6.46313 21.7313C6.41626 21.6544 6.40182 21.5621 6.42301 21.4746C6.4442 21.3872 6.49926 21.3117 6.5761 21.2648L13.6135 16.7406L7.01102 20.5531C6.93382 20.5994 6.84138 20.6132 6.75403 20.5914C6.66668 20.5695 6.59157 20.5139 6.54523 20.4367C6.49889 20.3595 6.48512 20.2671 6.50694 20.1797C6.52877 20.0924 6.5844 20.0172 6.6616 19.9709L7.39098 19.517L7.06462 19.7056C6.988 19.7492 6.89741 19.7613 6.81205 19.7393C6.72668 19.7173 6.65324 19.6629 6.60728 19.5876C6.56132 19.5124 6.54646 19.4222 6.56585 19.3362C6.58523 19.2502 6.63734 19.1751 6.71113 19.1269L11.6696 15.9311L7.13858 18.5467C7.06165 18.5937 6.96922 18.6082 6.88161 18.587C6.794 18.5658 6.7184 18.5107 6.67143 18.4338C6.62447 18.3568 6.60998 18.2644 6.63117 18.1768C6.65235 18.0892 6.70748 18.0136 6.7844 17.9666L11.1573 15.123L6.67041 17.7135C6.59367 17.7605 6.5014 17.7751 6.41392 17.754C6.32644 17.7329 6.25091 17.678 6.20395 17.6012C6.15698 17.5245 6.14242 17.4322 6.16348 17.3448C6.18454 17.2573 6.23949 17.1817 6.31624 17.1348L9.70874 14.9337L6.09844 17.0167C6.0222 17.0582 5.93295 17.0689 5.84907 17.0466C5.76519 17.0243 5.69305 16.9706 5.6475 16.8968C5.60195 16.8229 5.58646 16.7343 5.6042 16.6494C5.62195 16.5644 5.67159 16.4895 5.7429 16.44L10.0941 13.5862L5.46743 16.2568C5.39089 16.2989 5.30106 16.3098 5.21665 16.2874C5.13224 16.2649 5.05975 16.2107 5.01428 16.1361C4.96881 16.0615 4.95386 15.9723 4.97255 15.8869C4.99124 15.8016 5.04213 15.7268 5.11461 15.678L7.02391 14.4567L4.95856 15.6502C4.88254 15.6943 4.79237 15.7072 4.70704 15.6862C4.6217 15.6651 4.54787 15.6118 4.50108 15.5374C4.45429 15.463 4.43821 15.3733 4.45621 15.2873C4.47421 15.2013 4.5249 15.1256 4.59759 15.0762L11.4233 10.4258L4.12061 14.642C4.04436 14.6853 3.95427 14.6975 3.86925 14.6759C3.78424 14.6542 3.7109 14.6005 3.66464 14.526C3.61837 14.4515 3.60278 14.3619 3.62113 14.2761C3.63947 14.1903 3.69033 14.115 3.76304 14.0659L9.65718 10.1306L3.38443 13.7524C3.31056 13.7948 3.22346 13.8078 3.14042 13.7889C3.05739 13.77 2.9845 13.7206 2.93622 13.6505C2.88795 13.5803 2.86782 13.4946 2.87983 13.4103C2.89185 13.326 2.93513 13.2493 3.00108 13.1954L6.17443 10.6225L2.53156 12.7259C2.46031 12.7671 2.37648 12.7811 2.29571 12.7651C2.21494 12.7491 2.14274 12.7043 2.09257 12.639C2.04224 12.5735 2.01757 12.4918 2.02319 12.4093C2.02881 12.3269 2.06434 12.2493 2.1231 12.1912L3.4801 10.8485L1.78385 11.8255C1.72204 11.8613 1.65053 11.8766 1.57949 11.8694C1.50845 11.8621 1.44151 11.8326 1.38821 11.7851C1.33491 11.7376 1.29795 11.6745 1.28262 11.6047C1.26728 11.535 1.27434 11.4622 1.30279 11.3967L1.51516 10.9088L1.43238 10.9563C1.35485 10.9969 1.26465 11.0059 1.18061 10.9816C1.09658 10.9572 1.02521 10.9013 0.981422 10.8255C0.937632 10.7498 0.924807 10.66 0.945624 10.575C0.966442 10.49 1.01929 10.4164 1.09313 10.3694L2.06746 9.80696C2.12927 9.7712 2.20078 9.75585 2.27182 9.7631C2.34286 9.77036 2.4098 9.79984 2.4631 9.84736C2.5164 9.89487 2.55336 9.95799 2.56869 10.0277C2.58403 10.0975 2.57697 10.1703 2.54852 10.2358L2.33547 10.7236L5.40501 8.95272C5.47636 8.9126 5.55982 8.89963 5.63999 8.9162C5.72015 8.93277 5.79162 8.97778 5.84121 9.04291C5.89081 9.10804 5.91518 9.1889 5.90983 9.27059C5.90448 9.35228 5.86977 9.42928 5.81211 9.48738L4.4585 10.8295L9.54726 7.89087C9.62126 7.84651 9.70938 7.83201 9.7937 7.85032C9.87801 7.86863 9.95218 7.91838 10.0011 7.98944C10.05 8.06051 10.0701 8.14754 10.0571 8.23284C10.0441 8.31814 9.99914 8.39529 9.93129 8.4486L6.75794 11.0222L18.3529 4.32874C18.4291 4.28537 18.5192 4.27322 18.6042 4.29484C18.6892 4.31646 18.7626 4.37017 18.8088 4.4447C18.8551 4.51924 18.8707 4.60879 18.8523 4.69457C18.834 4.78036 18.7831 4.8557 18.7104 4.90479L12.8156 8.84009L18.9628 5.29085C19.0388 5.24814 19.1283 5.23629 19.2127 5.25776C19.2972 5.27924 19.3701 5.33239 19.4165 5.4062C19.4628 5.48001 19.4789 5.56882 19.4616 5.65421C19.4442 5.7396 19.3946 5.81503 19.3231 5.86486L12.4974 10.5167L19.6563 6.38188C19.7327 6.34094 19.822 6.33085 19.9057 6.35368C19.9893 6.37651 20.0611 6.43053 20.1062 6.50463C20.1513 6.57874 20.1663 6.66729 20.1481 6.75211C20.1299 6.83692 20.0799 6.91155 20.0084 6.96064L18.1086 8.17788L20.0756 7.04274C20.152 6.99929 20.2423 6.98721 20.3275 7.00904C20.4127 7.03088 20.486 7.08492 20.5321 7.15979C20.5782 7.23466 20.5934 7.3245 20.5746 7.41037C20.5558 7.49625 20.5043 7.57146 20.4311 7.62015L16.0792 10.4726L20.693 7.80809C20.731 7.78484 20.7732 7.76929 20.8172 7.76235C20.8612 7.75541 20.9062 7.7572 20.9495 7.76763C20.9928 7.77806 21.0336 7.79691 21.0697 7.82312C21.1057 7.84933 21.1362 7.88238 21.1595 7.92038C21.1827 7.95839 21.1983 8.0006 21.2052 8.04461C21.2122 8.08862 21.2104 8.13356 21.1999 8.17688C21.1895 8.22019 21.1707 8.26103 21.1444 8.29706C21.1182 8.33309 21.0852 8.3636 21.0472 8.38685L17.6547 10.5886L21.9292 8.12224C22.0058 8.07771 22.0968 8.0649 22.1826 8.08653C22.2685 8.10817 22.3426 8.16254 22.3889 8.23803C22.4352 8.31352 22.4502 8.40413 22.4306 8.49052C22.411 8.5769 22.3585 8.6522 22.2841 8.70032L17.9044 11.5446L23.2469 8.46013C23.3235 8.41652 23.4141 8.40445 23.4995 8.42647C23.5848 8.4485 23.6583 8.50289 23.7042 8.57813C23.7502 8.65337 23.765 8.74355 23.7457 8.82955C23.7263 8.91556 23.6742 8.99064 23.6004 9.03889L18.6392 12.2394L24.5917 8.80685C24.6299 8.7839 24.6723 8.76871 24.7164 8.76214C24.7605 8.75557 24.8054 8.75775 24.8487 8.76856C24.8919 8.77937 24.9326 8.79858 24.9684 8.82512C25.0043 8.85165 25.0345 8.88499 25.0575 8.92321C25.0804 8.96144 25.0956 9.0038 25.1022 9.0479C25.1087 9.092 25.1066 9.13695 25.0958 9.18021C25.0849 9.22346 25.0657 9.26416 25.0392 9.29998C25.0127 9.33581 24.9793 9.36606 24.9411 9.389L24.2219 9.83613L25.5721 9.05654C25.6489 9.00966 25.7413 8.99523 25.8287 9.01641C25.9162 9.0376 25.9917 9.09267 26.0386 9.16951C26.0855 9.24635 26.0999 9.33866 26.0787 9.42614C26.0575 9.51362 26.0024 9.5891 25.9256 9.63598L18.8923 14.1541L27.0641 9.43514C27.141 9.3941 27.2306 9.38419 27.3146 9.40746C27.3985 9.43073 27.4703 9.4854 27.515 9.56014C27.5598 9.63488 27.5741 9.72397 27.5549 9.80894C27.5358 9.89392 27.4847 9.96828 27.4122 10.0166L24.3209 11.9415L28.1728 9.71807C28.2495 9.67522 28.3398 9.66377 28.4247 9.68614C28.5097 9.70851 28.5826 9.76295 28.6282 9.83802C28.6739 9.91308 28.6886 10.0029 28.6693 10.0886C28.6501 10.1743 28.5983 10.2492 28.5249 10.2975L20.0756 15.676L29.4497 10.2636C29.5267 10.2169 29.619 10.2027 29.7064 10.224C29.7938 10.2454 29.8692 10.3006 29.9159 10.3776C29.9626 10.4545 29.9768 10.5468 29.9554 10.6343C29.934 10.7217 29.8788 10.797 29.8019 10.8437L19.7363 17.2576L28.1993 12.3724C28.2761 12.3293 28.3667 12.3178 28.4519 12.3404C28.5371 12.3629 28.6102 12.4177 28.6556 12.4932C28.7011 12.5686 28.7155 12.6588 28.6956 12.7447C28.6758 12.8305 28.6234 12.9053 28.5494 12.9532L22.6831 16.6266L26.5003 14.4228C26.5768 14.3801 26.6668 14.3686 26.7516 14.3907C26.8364 14.4129 26.9093 14.467 26.955 14.5417C27.0008 14.6164 27.0159 14.706 26.9972 14.7915C26.9784 14.8771 26.9273 14.9522 26.8545 15.0009L17.9227 20.8163L24.2076 17.1884C24.2829 17.1462 24.3714 17.1343 24.4551 17.155C24.5388 17.1758 24.6115 17.2276 24.6584 17.3001C24.7052 17.3725 24.7227 17.4601 24.7073 17.5449C24.6919 17.6298 24.6447 17.7056 24.5754 17.757L20.3422 20.8048L23.8331 18.7896C23.9088 18.7462 23.9984 18.7336 24.0832 18.7545C24.168 18.7754 24.2414 18.8282 24.2883 18.9019C24.3351 18.9755 24.3517 19.0644 24.3347 19.1501C24.3177 19.2357 24.2683 19.3115 24.1968 19.3616L23.0155 20.1853L23.8901 19.6798C23.9658 19.6364 24.0554 19.6238 24.1402 19.6447C24.2249 19.6656 24.2984 19.7184 24.3452 19.792C24.3921 19.8657 24.4087 19.9546 24.3917 20.0403C24.3747 20.1259 24.3253 20.2017 24.2538 20.2518L23.8467 20.5347L23.9403 20.4811C24.0142 20.4388 24.1013 20.4258 24.1843 20.4447C24.2674 20.4635 24.3402 20.513 24.3885 20.5831C24.4368 20.6533 24.4569 20.739 24.4449 20.8233C24.4329 20.9076 24.3896 20.9843 24.3237 21.0382L22.0283 22.8959L24.0217 21.7425C24.0949 21.7003 24.1812 21.687 24.2636 21.7051C24.3461 21.7231 24.4189 21.7713 24.4678 21.8402C24.5166 21.909 24.538 21.9937 24.5278 22.0775C24.5176 22.1613 24.4765 22.2383 24.4125 22.2934L22.7054 23.7644L24.0991 22.9597C24.1693 22.9189 24.2518 22.9047 24.3316 22.9195C24.4114 22.9344 24.4832 22.9774 24.534 23.0407C24.5848 23.104 24.6113 23.1834 24.6085 23.2645C24.6058 23.3457 24.5741 23.4231 24.5191 23.4828L23.0535 25.0766L24.1934 24.4198C24.2657 24.3773 24.3512 24.3629 24.4334 24.3797C24.5156 24.3964 24.5887 24.4431 24.6385 24.5105C24.6884 24.578 24.7114 24.6616 24.7033 24.7451C24.6951 24.8286 24.6563 24.9061 24.5944 24.9626L24.4037 25.1397C24.4913 25.145 24.5751 25.177 24.6439 25.2313C24.6971 25.2811 24.7328 25.3465 24.7459 25.4181C24.759 25.4897 24.7487 25.5636 24.7165 25.6289L24.2918 26.492L24.3243 26.473C24.363 26.4484 24.4061 26.432 24.4513 26.4245C24.4964 26.4171 24.5426 26.4189 24.5871 26.4298C24.6315 26.4407 24.6733 26.4604 24.7099 26.4879C24.7465 26.5153 24.7772 26.5499 24.8001 26.5895C24.823 26.6291 24.8376 26.673 24.8431 26.7184C24.8486 26.7638 24.8449 26.8099 24.8322 26.8538C24.8194 26.8978 24.7979 26.9387 24.7689 26.9741C24.74 27.0095 24.7041 27.0387 24.6636 27.0599L23.6628 27.638C23.5998 27.6744 23.5267 27.6896 23.4543 27.6813C23.382 27.673 23.3143 27.6416 23.2611 27.5918C23.2082 27.5421 23.1727 27.4767 23.1598 27.4052C23.1468 27.3338 23.1571 27.2601 23.1892 27.1949L23.614 26.3319L22.2916 27.0945C22.2193 27.1365 22.1341 27.1503 22.0523 27.1333C21.9704 27.1163 21.8977 27.0697 21.8481 27.0025C21.7985 26.9352 21.7755 26.852 21.7835 26.7689C21.7914 26.6857 21.8298 26.6083 21.8912 26.5517L21.9482 26.4995L21.4733 26.7709C21.4032 26.8107 21.3212 26.8243 21.242 26.8092C21.1627 26.794 21.0915 26.7512 21.041 26.6883C20.9906 26.6254 20.9641 26.5466 20.9665 26.466C20.9689 26.3854 20.9999 26.3082 21.054 26.2484L22.5182 24.6539L19.9188 26.1548C19.8463 26.1907 19.7632 26.1995 19.6847 26.1796C19.6062 26.1597 19.5375 26.1123 19.4908 26.0461C19.4442 25.9799 19.4228 25.8992 19.4305 25.8186C19.4382 25.738 19.4745 25.6627 19.5328 25.6065L21.2412 24.1342L18.6263 25.6432C18.5524 25.6848 18.4657 25.6973 18.3831 25.6781C18.3005 25.659 18.2281 25.6096 18.1801 25.5397C18.1321 25.4698 18.112 25.3845 18.1238 25.3006C18.1355 25.2166 18.1783 25.1401 18.2436 25.0861L20.5376 23.2298L17.2808 25.1099C17.2052 25.1517 17.1166 25.1632 17.0328 25.1419C16.9491 25.1206 16.8767 25.0681 16.8303 24.9953C16.7839 24.9224 16.7671 24.8346 16.7832 24.7497C16.7993 24.6649 16.8472 24.5893 16.9171 24.5386L17.3181 24.2584L16.4273 24.7727C16.3515 24.8161 16.262 24.8287 16.1772 24.8078C16.0924 24.7869 16.019 24.7341 15.9721 24.6605C15.9253 24.5868 15.9086 24.4979 15.9257 24.4122C15.9427 24.3266 15.9921 24.2508 16.0636 24.2007L17.2489 23.3756L14.8382 24.7666C14.763 24.8087 14.6745 24.8207 14.5907 24.7999C14.507 24.7792 14.4343 24.7273 14.3875 24.6549C14.3406 24.5824 14.3231 24.4949 14.3386 24.41C14.354 24.3251 14.4011 24.2493 14.4705 24.198L18.7016 21.1515L7.30278 27.733C7.25081 27.763 7.19181 27.7787 7.1318 27.7784Z" fill="#F4AA51"/>
<path d="M10.4259 8.08297C10.3535 8.08315 10.283 8.06019 10.2246 8.01744C10.1662 7.97468 10.1231 7.91438 10.1014 7.84534C10.0797 7.77629 10.0807 7.70213 10.1041 7.63367C10.1276 7.56522 10.1724 7.50607 10.2319 7.46486L11.255 6.75107C11.1862 6.74867 11.1197 6.72535 11.0644 6.68422C11.0091 6.64309 10.9676 6.5861 10.9455 6.52083C10.9234 6.45556 10.9217 6.38511 10.9407 6.31885C10.9596 6.25259 10.9982 6.19367 11.0515 6.14992L13.4181 4.19652L12.8013 4.55205C12.7291 4.59531 12.6433 4.61012 12.5607 4.59362C12.478 4.57711 12.4045 4.53046 12.3544 4.46274C12.3043 4.39503 12.2812 4.31109 12.2896 4.22727C12.2979 4.14345 12.3372 4.06573 12.3997 4.00925L13.9222 2.5844C13.8695 2.58497 13.8172 2.57411 13.7691 2.55255C13.721 2.531 13.6781 2.49927 13.6434 2.45955C13.5924 2.39674 13.5655 2.31778 13.5676 2.23691C13.5698 2.15604 13.6007 2.07859 13.6549 2.01853L14.5451 1.02588C14.5357 1.01313 14.5269 1.00001 14.5186 0.986525C14.4736 0.908606 14.4614 0.816009 14.4847 0.729102C14.508 0.642195 14.5649 0.568097 14.6428 0.523108L15.4285 0.0705477C15.4984 0.0302236 15.5804 0.0161464 15.6598 0.0308441C15.7391 0.0455418 15.8107 0.0880516 15.8615 0.150739C15.9123 0.213427 15.9391 0.292185 15.9371 0.372869C15.9351 0.453554 15.9044 0.530879 15.8505 0.590958L15.5859 0.885428L16.0127 0.639811C16.085 0.597215 16.1705 0.582911 16.2527 0.59966C16.3349 0.616409 16.408 0.663023 16.4578 0.730501C16.5076 0.797978 16.5307 0.881533 16.5226 0.96503C16.5144 1.04853 16.4756 1.12604 16.4137 1.18261L15.0153 2.49212L16.6057 1.57411C16.6793 1.53235 16.7659 1.51962 16.8484 1.53841C16.9309 1.55721 17.0035 1.60617 17.0517 1.6757C17.1 1.74522 17.1206 1.83028 17.1093 1.91417C17.0981 1.99806 17.0559 2.07473 16.9911 2.12912L14.6231 4.08388L17.2394 2.57354C17.315 2.53169 17.4037 2.52025 17.4874 2.54155C17.5711 2.56285 17.6436 2.61528 17.6899 2.68815C17.7363 2.76102 17.7532 2.84884 17.737 2.93371C17.7209 3.01857 17.673 3.09408 17.6031 3.14484L17.0806 3.50987L17.6316 3.19233C17.6702 3.16779 17.7134 3.15131 17.7585 3.14388C17.8037 3.13645 17.8499 3.13824 17.8943 3.14912C17.9387 3.16001 17.9805 3.17977 18.0171 3.20722C18.0537 3.23467 18.0844 3.26924 18.1073 3.30886C18.1302 3.34847 18.1448 3.3923 18.1504 3.43772C18.1559 3.48314 18.1522 3.52921 18.1394 3.57315C18.1267 3.6171 18.1052 3.65801 18.0762 3.69342C18.0472 3.72884 18.0114 3.75803 17.9708 3.77924L10.5955 8.03683C10.544 8.06685 10.4855 8.08276 10.4259 8.08297Z" fill="#F4AA51"/>
<path d="M20.7201 23.6498C20.6649 23.6498 20.6105 23.6363 20.5617 23.6106C20.5128 23.5848 20.471 23.5475 20.4398 23.5019C20.4087 23.4563 20.3891 23.4038 20.3829 23.3489C20.3766 23.294 20.3839 23.2385 20.404 23.187L20.7683 22.2541L19.4161 23.035C19.3479 23.0745 19.2681 23.0889 19.1904 23.0759C19.1127 23.0629 19.0419 23.0233 18.9902 22.9639C18.9386 22.9044 18.9092 22.8288 18.9072 22.7501C18.9051 22.6713 18.9306 22.5943 18.9791 22.5323L20.0077 21.2139L17.8955 22.4352C17.8243 22.4748 17.7411 22.4875 17.6613 22.4708C17.5815 22.4541 17.5104 22.4092 17.461 22.3444C17.4115 22.2796 17.3871 22.1991 17.3921 22.1177C17.3972 22.0363 17.4314 21.9595 17.4884 21.9013L19.165 20.2369L16.39 21.8382C16.3166 21.8794 16.2305 21.8919 16.1484 21.8733C16.0663 21.8546 15.9941 21.8061 15.9458 21.7371C15.8975 21.6682 15.8766 21.5837 15.887 21.5002C15.8975 21.4167 15.9387 21.3401 16.0025 21.2852L17.9858 19.6208L12.5578 22.7548C12.4817 22.7982 12.3918 22.8104 12.3069 22.789C12.222 22.7676 12.1487 22.7142 12.1022 22.64C12.0558 22.5658 12.0398 22.4765 12.0577 22.3908C12.0756 22.3051 12.1259 22.2296 12.1982 22.1801L14.0586 20.9235L9.75896 23.4062C9.68276 23.4503 9.59238 23.4631 9.50692 23.4419C9.42146 23.4206 9.34762 23.3669 9.30101 23.2922C9.2544 23.2175 9.23867 23.1276 9.25714 23.0415C9.27562 22.9554 9.32686 22.8798 9.40003 22.8308L16.2115 18.238L9.63954 22.0322C9.563 22.0743 9.47317 22.0853 9.38876 22.0628C9.30435 22.0403 9.23186 21.9861 9.18639 21.9115C9.14092 21.837 9.12597 21.7477 9.14466 21.6624C9.16335 21.577 9.21424 21.5022 9.28672 21.4534L12.2877 19.5272L9.70332 21.0199C9.62704 21.0571 9.53957 21.0644 9.45818 21.0403C9.37679 21.0162 9.30739 20.9625 9.26368 20.8897C9.21997 20.817 9.20513 20.7304 9.22208 20.6473C9.23903 20.5641 9.28655 20.4903 9.35525 20.4404L9.79899 20.1582L9.75964 20.1813C9.68374 20.2246 9.59402 20.2371 9.50919 20.2159C9.42437 20.1948 9.35098 20.1417 9.30434 20.0677C9.2577 19.9938 9.2414 19.9047 9.25885 19.819C9.2763 19.7334 9.32615 19.6577 9.398 19.6079L14.8979 15.8246L9.85056 18.7422C9.77403 18.788 9.68253 18.8018 9.59587 18.7807C9.50921 18.7596 9.43436 18.7051 9.38753 18.6292C9.3407 18.5533 9.32565 18.462 9.34564 18.3751C9.36563 18.2881 9.41905 18.2126 9.49434 18.1648L11.1906 17.0479L9.90687 17.7834C9.83195 17.8238 9.74459 17.8346 9.6621 17.8136C9.57962 17.7926 9.50804 17.7414 9.46158 17.67C9.41511 17.5987 9.39716 17.5125 9.41127 17.4286C9.42538 17.3447 9.47053 17.2691 9.53777 17.2169L14.0091 13.9479L9.31929 16.6551C9.24394 16.6977 9.15516 16.7098 9.07113 16.6891C8.9871 16.6684 8.91416 16.6163 8.86726 16.5436C8.82035 16.4708 8.80303 16.3829 8.81882 16.2978C8.83461 16.2127 8.88234 16.1369 8.95222 16.0858L12.5971 13.4838L8.60211 15.7907C8.52688 15.8346 8.43766 15.8478 8.35291 15.8277C8.26817 15.8077 8.19439 15.7557 8.14687 15.6828C8.09935 15.6098 8.08172 15.5213 8.09762 15.4357C8.11353 15.35 8.16176 15.2738 8.23233 15.2228L12.5333 12.0827L7.7947 14.8177C7.71923 14.8592 7.63082 14.8704 7.5474 14.849C7.46398 14.8277 7.39178 14.7755 7.34544 14.7029C7.29911 14.6304 7.2821 14.5429 7.29786 14.4582C7.31363 14.3736 7.36099 14.2981 7.43034 14.2471L10.7991 11.8832L7.12162 14.0062C7.05053 14.0449 6.96798 14.0568 6.88885 14.0399C6.80972 14.023 6.73923 13.9784 6.6901 13.9142C6.64096 13.8499 6.61642 13.7701 6.6209 13.6894C6.62538 13.6086 6.65858 13.5321 6.71452 13.4736L7.60879 12.5732L6.47705 13.2266C6.41136 13.2649 6.33471 13.2801 6.25939 13.2696C6.18407 13.2592 6.11444 13.2237 6.0617 13.1689C6.00895 13.1141 5.97614 13.0432 5.96853 12.9675C5.96092 12.8919 5.97896 12.8159 6.01974 12.7517L6.13644 12.5658C6.07387 12.5699 6.0114 12.5562 5.95628 12.5263C5.90116 12.4964 5.85565 12.4515 5.82501 12.3968C5.78002 12.3189 5.76783 12.2263 5.79112 12.1394C5.8144 12.0525 5.87126 11.9784 5.94917 11.9334L6.93707 11.3635C7.00275 11.3255 7.07926 11.3106 7.1544 11.3212C7.22953 11.3318 7.29893 11.3673 7.35152 11.422C7.40411 11.4767 7.43684 11.5474 7.44449 11.6229C7.45213 11.6984 7.43425 11.7743 7.3937 11.8384L7.31907 11.9585L9.47467 10.7141C9.54576 10.6755 9.62831 10.6635 9.70744 10.6804C9.78657 10.6973 9.85706 10.7419 9.90619 10.8062C9.95532 10.8705 9.97987 10.9502 9.97539 11.031C9.97091 11.1118 9.9377 11.1883 9.88177 11.2468L8.98818 12.1464L17.118 7.44986C17.1937 7.40566 17.2835 7.39246 17.3687 7.41301C17.4539 7.43357 17.5278 7.48629 17.575 7.56013C17.6222 7.63398 17.6389 7.72322 17.6218 7.80916C17.6047 7.89509 17.5549 7.97107 17.483 8.02116L14.1129 10.3857L17.6764 8.33191C17.7516 8.28803 17.8408 8.27475 17.9256 8.29484C18.0103 8.31493 18.0841 8.36684 18.1316 8.43983C18.1792 8.51282 18.1968 8.60128 18.1809 8.68691C18.165 8.77254 18.1167 8.84877 18.0462 8.89982L13.7458 12.0392L18.3447 9.38427C18.4202 9.33996 18.5099 9.32655 18.5951 9.34685C18.6802 9.36714 18.7542 9.41956 18.8016 9.49316C18.849 9.56676 18.8662 9.65583 18.8494 9.74175C18.8327 9.82767 18.7834 9.9038 18.7118 9.95421L15.0648 12.5569L19.1257 10.2093C19.2008 10.1669 19.2892 10.1547 19.3729 10.1752C19.4567 10.1957 19.5295 10.2473 19.5766 10.3195C19.6237 10.3917 19.6415 10.4792 19.6264 10.5641C19.6114 10.649 19.5645 10.7249 19.4955 10.7766L15.0255 14.0435L20.8898 10.6592C20.9662 10.6157 21.0565 10.6036 21.1417 10.6255C21.2269 10.6473 21.3002 10.7014 21.3463 10.7762C21.3924 10.8511 21.4076 10.9409 21.3888 11.0268C21.37 11.1127 21.3185 11.1879 21.2453 11.2366L19.5409 12.3581L21.9957 10.9414C22.0716 10.898 22.1613 10.8856 22.2462 10.9068C22.331 10.9279 22.4044 10.981 22.451 11.055C22.4977 11.1289 22.514 11.218 22.4965 11.3037C22.4791 11.3893 22.4292 11.465 22.3574 11.5148L16.8615 15.2954L23.6648 11.3675C23.7416 11.3253 23.8316 11.3144 23.9162 11.3371C24.0008 11.3598 24.0733 11.4143 24.1186 11.4893C24.1639 11.5642 24.1785 11.6537 24.1593 11.7392C24.1401 11.8246 24.0886 11.8993 24.0156 11.9476L23.5678 12.2319L24.4967 11.6959C24.5732 11.6538 24.6631 11.6429 24.7475 11.6654C24.8319 11.6878 24.9044 11.742 24.9498 11.8166C24.9953 11.8912 25.0103 11.9804 24.9916 12.0658C24.9729 12.1511 24.922 12.2259 24.8495 12.2747L21.8532 14.1969L24.3556 12.7523C24.4319 12.7047 24.524 12.6892 24.6116 12.7095C24.6993 12.7297 24.7754 12.7839 24.823 12.8602C24.8707 12.9365 24.8862 13.0286 24.8659 13.1163C24.8457 13.204 24.7915 13.28 24.7152 13.3277L17.8996 17.9191L22.0717 15.5105C22.1478 15.4671 22.2377 15.4548 22.3226 15.4762C22.4075 15.4976 22.4808 15.551 22.5273 15.6252C22.5737 15.6995 22.5897 15.7888 22.5718 15.8745C22.5539 15.9602 22.5036 16.0357 22.4313 16.0851L20.5702 17.3417L21.0044 17.0914C21.0778 17.0501 21.1639 17.0376 21.246 17.0563C21.3281 17.0749 21.4003 17.1235 21.4486 17.1924C21.4969 17.2613 21.5178 17.3458 21.5073 17.4293C21.4969 17.5128 21.4557 17.5895 21.3919 17.6443L19.4072 19.3094L21.0845 18.3418C21.1559 18.3005 21.2399 18.2865 21.3209 18.3026C21.4018 18.3187 21.4741 18.3638 21.5242 18.4294C21.5741 18.4948 21.5986 18.5762 21.593 18.6583C21.5873 18.7405 21.552 18.8178 21.4936 18.8758L19.8177 20.5402L21.1747 19.7565C21.2429 19.7174 21.3225 19.7032 21.3999 19.7162C21.4774 19.7293 21.5479 19.7688 21.5995 19.8281C21.651 19.8873 21.6804 19.9626 21.6827 20.0412C21.6849 20.1197 21.6598 20.1965 21.6117 20.2586L20.5844 21.5769L21.267 21.1834C21.3278 21.1486 21.398 21.1334 21.4677 21.14C21.5375 21.1466 21.6035 21.1747 21.6567 21.2204C21.7099 21.266 21.7476 21.3271 21.7647 21.395C21.7818 21.463 21.7774 21.5346 21.7521 21.6L21.3824 22.5499C21.4617 22.5278 21.5464 22.5354 21.6207 22.5711C21.6949 22.6069 21.7535 22.6685 21.7857 22.7443C21.8178 22.8202 21.8213 22.9052 21.7954 22.9834C21.7695 23.0616 21.716 23.1277 21.6449 23.1694L20.8898 23.6043C20.8382 23.6341 20.7797 23.6498 20.7201 23.6498Z" fill="#F9C55D"/>
<path d="M12.268 10.2466C12.1984 10.2467 12.1304 10.2254 12.0733 10.1855C12.0162 10.1456 11.9728 10.0891 11.9489 10.0236C11.9251 9.95818 11.9219 9.88698 11.9399 9.81969C11.9579 9.75241 11.9962 9.6923 12.0496 9.64752L13.3998 8.51171C13.333 8.51856 13.2656 8.50543 13.2063 8.47396C13.1469 8.4425 13.0983 8.39413 13.0664 8.33498C13.0346 8.27583 13.0211 8.20856 13.0275 8.1417C13.0339 8.07484 13.0601 8.0114 13.1026 7.95941L14.5709 6.17224C14.5436 6.14802 14.5207 6.11934 14.503 6.08742C14.4583 6.00957 14.4462 5.91713 14.4695 5.83039C14.4927 5.74365 14.5495 5.66967 14.6272 5.62469L15.4305 5.16059C15.4993 5.12075 15.5799 5.10632 15.6583 5.11984C15.7366 5.13335 15.8077 5.17395 15.8592 5.23454C15.9106 5.29512 15.9392 5.37186 15.9398 5.45135C15.9405 5.53084 15.9132 5.60804 15.8628 5.66947L14.8124 6.94844L16.2671 6.10846C16.3406 6.06561 16.4275 6.05193 16.5106 6.07015C16.5938 6.08836 16.667 6.13714 16.7158 6.2068C16.7646 6.27647 16.7855 6.36194 16.7743 6.44627C16.7631 6.5306 16.7206 6.60764 16.6552 6.66212L15.4339 7.68801L16.7753 6.91316C16.8139 6.88861 16.8571 6.87213 16.9023 6.86471C16.9474 6.85728 16.9936 6.85906 17.038 6.86995C17.0825 6.88084 17.1243 6.9006 17.1609 6.92805C17.1975 6.9555 17.2282 6.99007 17.251 7.02968C17.2739 7.0693 17.2886 7.11313 17.2941 7.15855C17.2996 7.20397 17.2959 7.25004 17.2832 7.29398C17.2704 7.33792 17.2489 7.37883 17.2199 7.41425C17.191 7.44967 17.1551 7.47886 17.1146 7.50006L12.437 10.2012C12.3857 10.2311 12.3274 10.2468 12.268 10.2466Z" fill="#F9C55D"/>
<path d="M29.3357 36.7801H28.8513C28.491 33.1841 30.6154 26.6664 24.8617 27.1013C25.2315 26.1969 24.88 24.6587 24.8318 23.9083C24.7118 21.9806 24.7253 19.9825 24.4532 18.0732C32.0735 8.56192 32.9494 10.9584 21.1137 7.75315C14.4325 -2.67067 16.527 -2.50783 9.87768 7.78368C-1.81087 10.9313 -1.22939 8.76615 6.46685 18.1654C6.34404 21.1366 5.94847 24.141 5.96272 27.0993C0.499428 26.7804 2.39652 33.3245 2.07355 36.7659C0.609346 36.7082 -0.205534 37.173 0.0448325 38.7803C0.0448325 39.5945 0.470253 39.8605 1.20236 39.8659C5.90437 39.8849 10.6071 39.8659 15.3098 39.8659C19.9175 39.8659 24.5272 39.9073 29.1342 39.8659C29.8806 39.8761 30.8373 39.6624 30.8814 38.7708C31.0259 37.4478 30.9363 36.5576 29.3357 36.7801ZM15.3715 24.5786L21.7284 27.1013H9.12454C11.2231 26.3068 13.2905 25.4111 15.3715 24.5786ZM24.3739 18.1369C24.3926 18.1234 24.4103 18.1084 24.4268 18.0922C24.412 18.1101 24.394 18.1253 24.3739 18.1369ZM24.4512 18.0487C24.441 17.8852 24.4872 17.9619 24.4512 18.0487V18.0487ZM6.01429 16.1096L2.29203 11.624C2.06948 11.356 1.45883 10.8098 1.89103 10.5099C4.35603 9.77034 6.97979 9.28113 9.476 8.57278C10.5304 8.53411 11.0148 7.71312 11.4491 6.87653L14.6781 1.78098L15.1666 1.0102C15.3023 0.793083 15.3254 0.565785 15.5622 0.8399L19.5253 7.09365C19.7201 7.5094 19.9668 7.89879 20.2594 8.25253C21.5296 8.80483 23.0175 8.93781 24.3508 9.36323C25.8435 9.81512 27.4549 10.0336 28.9157 10.5289C29.5705 10.936 28.8275 11.5168 28.5405 11.8628C21.6544 20.1609 23.6669 16.0818 24.0115 26.7023C23.9722 27.2526 23.7272 27.0246 23.3052 26.857C13.3991 22.8539 17.2055 23.303 7.25052 27.0999H7.05647C6.86784 26.9826 6.91602 26.6555 6.92077 26.471C7.07275 23.8099 7.27291 21.1495 7.43236 18.4884C7.6108 17.4639 6.54013 16.8485 6.01429 16.1096ZM3.27654 29.1307C4.41777 26.933 7.62301 28.1211 9.63816 27.83H20.0192C29.6723 27.4304 27.6395 28.2588 27.8586 36.7801C19.5952 36.7618 11.3351 36.8201 3.07163 36.7503C3.20733 34.2269 2.77377 31.6045 3.27654 29.1307ZM19.4785 39.4941H1.95142C1.09719 39.6631 0.943847 38.8448 1.02662 38.19C1.02662 38.0001 0.943169 37.158 0.954703 37.1492C1.30956 37.1044 1.73769 37.175 2.10816 37.1492C2.24386 37.4077 2.74255 37.3677 2.95968 37.1492H27.8939C28.0296 37.4084 28.531 37.3677 28.7468 37.1492C29.2706 37.1404 29.7747 37.0712 29.9003 37.7762C29.9602 38.3497 29.9357 38.929 29.8277 39.4955L19.4785 39.4941Z" fill="#262626"/>
<path d="M9.24124 17.2603C8.62109 24.9585 8.26284 24.677 15.3844 21.6773C22.6138 24.5854 22.4408 25.118 21.6795 17.1503C26.6563 11.1687 27.0892 11.9842 19.4188 10.1082C15.1951 3.42019 15.8132 3.32317 11.6011 10.119C3.94825 11.9815 4.23254 11.3383 9.24124 17.2603ZM6.686 12.6655C6.39832 12.0283 6.84816 12.0691 7.24373 11.968C8.80021 11.5066 10.4686 11.2942 11.9932 10.7548C13.0978 9.99419 13.5328 8.39361 14.368 7.3555C14.6455 7.03186 15.1944 5.35053 15.6694 6.08806C16.6193 7.47356 17.4219 8.97644 18.3793 10.3626C18.7525 10.9156 19.4215 10.9203 20.0504 11.0812L23.5895 11.9856C23.9647 12.0813 24.5082 12.1593 24.2721 12.7319C23.295 14.0068 22.1511 15.2248 21.1428 16.5017C20.9385 16.6868 20.7795 16.9164 20.6781 17.1727C20.6828 18.8927 21.0953 20.6948 21.0173 22.4318C21.0105 22.5967 21.1109 22.8613 20.8816 22.9597C20.1909 22.7415 19.5168 22.4739 18.8644 22.159C17.7035 21.8144 16.5691 21.0056 15.3796 20.931C13.8652 21.467 12.382 22.119 10.8778 22.6951C10.5385 22.8308 10.0636 23.2114 9.90481 22.6951C9.92313 20.8475 10.1979 18.9267 10.2481 17.0744C9.26905 15.5063 7.77499 14.167 6.686 12.6655ZM11.1872 31.0949H19.3292C19.5117 31.0949 19.8849 31.023 19.9826 30.8439C20.0803 30.6647 19.8951 30.6213 19.7336 30.6213H12.6019C12.0706 30.679 11.3487 30.4463 10.9395 30.8724C10.8371 31.0617 11.0271 31.0949 11.1872 31.0949ZM18.2137 33.1922H12.7857C12.6629 33.1906 12.5432 33.2304 12.4458 33.3051C12.3483 33.3798 12.2788 33.485 12.2484 33.604C12.2246 33.8652 12.5035 33.9521 12.7097 33.9521H17.4654C17.8786 33.9324 18.5584 34.0878 18.6751 33.5402C18.6989 33.279 18.42 33.1922 18.2137 33.1922Z" fill="#262626"/>
<path d="M12.9547 13.2735L15.6687 12.1105C15.8254 12.0427 16.0602 11.8391 15.915 11.6546C15.7698 11.47 15.4353 11.5324 15.2548 11.6098L12.5408 12.7734C11.8874 13.1099 12.4825 13.5299 12.9547 13.2735ZM17.2937 17.2454L14.5797 18.409C14.4325 18.4721 14.1828 18.6689 14.3293 18.8467C14.4759 19.0244 14.8117 18.9566 14.9868 18.8813L17.3656 17.8635C18.1663 17.6749 18.2165 16.9394 17.2937 17.2454ZM12.5727 16.1876C11.8386 16.5031 12.5795 16.6524 12.9228 16.4502L19.0293 13.8332C19.125 13.7925 19.4364 13.6751 19.3156 13.5293C19.2098 13.399 18.7891 13.5232 18.6792 13.5707L12.5727 16.1876Z" fill="#262626"/>
</svg>
