<svg width="32" height="31" viewBox="0 0 32 31" fill="none" xmlns="http://www.w3.org/2000/svg">
<path d="M26.057 30.9208C26.0019 30.921 25.9481 30.9036 25.9035 30.8712C25.8589 30.8388 25.8257 30.7931 25.8087 30.7407C25.7918 30.6882 25.7919 30.6317 25.8091 30.5793C25.8263 30.5269 25.8597 30.4814 25.9045 30.4492L26.4183 30.078L25.019 30.8844C24.9611 30.9166 24.8931 30.9256 24.8289 30.9095C24.7647 30.8933 24.709 30.8533 24.6733 30.7976C24.6375 30.7418 24.6243 30.6746 24.6364 30.6095C24.6485 30.5443 24.685 30.4863 24.7384 30.4471L25.9227 29.609L23.7128 30.8844C23.6559 30.917 23.5888 30.9269 23.5248 30.9122C23.4609 30.8974 23.4049 30.859 23.3681 30.8047C23.3312 30.7505 23.3162 30.6843 23.3261 30.6194C23.336 30.5545 23.37 30.4958 23.4213 30.4549L23.8471 30.1202L22.5238 30.8844C22.4664 30.9181 22.3983 30.9285 22.3335 30.9135C22.2687 30.8985 22.2121 30.8592 22.1753 30.8038C22.1385 30.7483 22.1243 30.6809 22.1357 30.6154C22.1471 30.5498 22.1832 30.4911 22.2365 30.4513L22.2724 30.4247L21.4754 30.8844C21.42 30.9149 21.3554 30.9242 21.2937 30.9105C21.232 30.8968 21.1773 30.8612 21.1399 30.8102C21.1026 30.7592 21.0851 30.6963 21.0907 30.6333C21.0962 30.5704 21.1246 30.5116 21.1703 30.4679L22.1527 29.5955L19.9142 30.8875C19.8584 30.9188 19.7931 30.9285 19.7307 30.9147C19.6682 30.9009 19.6131 30.8646 19.5757 30.8127C19.5383 30.7609 19.5213 30.6971 19.528 30.6335C19.5346 30.5699 19.5644 30.511 19.6117 30.4679L20.5857 29.6048L18.3623 30.8844C18.3069 30.9166 18.2415 30.9272 18.1787 30.9142C18.116 30.9012 18.0602 30.8654 18.0221 30.8138C17.9841 30.7622 17.9664 30.6984 17.9725 30.6346C17.9786 30.5707 18.0081 30.5114 18.0552 30.4679L19.1292 29.4736L16.6856 30.8844C16.6302 30.9137 16.5662 30.9221 16.5051 30.9081C16.4441 30.894 16.3902 30.8584 16.3533 30.8077C16.3164 30.7571 16.299 30.6949 16.3043 30.6325C16.3096 30.5701 16.3372 30.5116 16.3821 30.4679L17.3712 29.583L15.1155 30.8844C15.0613 30.9154 14.9979 30.9258 14.9366 30.9139C14.8754 30.902 14.8205 30.8685 14.7819 30.8195C14.7433 30.7705 14.7235 30.7092 14.7263 30.6469C14.7291 30.5846 14.7541 30.5253 14.7969 30.4799L16.0015 29.2186L13.1128 30.8844C13.0579 30.9165 12.9931 30.9274 12.9307 30.915C12.8683 30.9026 12.8126 30.8677 12.7741 30.817C12.7356 30.7663 12.7171 30.7033 12.7219 30.6398C12.7268 30.5764 12.7547 30.5169 12.8005 30.4726L13.9458 29.3628L11.308 30.8844C11.2507 30.917 11.1831 30.9267 11.119 30.9114C11.0549 30.8962 10.9989 30.8571 10.9624 30.8022C10.9259 30.7473 10.9117 30.6806 10.9225 30.6155C10.9333 30.5505 10.9683 30.492 11.0206 30.4518L11.0888 30.3998L10.2497 30.8839C10.1942 30.9161 10.1288 30.9267 10.066 30.9137C10.0033 30.9006 9.94751 30.8649 9.90945 30.8133C9.87139 30.7617 9.85372 30.6979 9.85982 30.634C9.86592 30.5702 9.89537 30.5109 9.94251 30.4674L11.0191 29.4726L8.57235 30.8844C8.5153 30.9168 8.44814 30.9264 8.38428 30.9114C8.32043 30.8964 8.26459 30.8579 8.22795 30.8035C8.19131 30.7491 8.17656 30.6828 8.18665 30.618C8.19674 30.5532 8.23093 30.4946 8.28239 30.4539L8.58692 30.2175L7.42708 30.8844C7.3704 30.9169 7.30357 30.9269 7.23986 30.9124C7.17615 30.8979 7.12023 30.86 7.08319 30.8062C7.04615 30.7523 7.0307 30.6866 7.03992 30.6219C7.04914 30.5572 7.08235 30.4983 7.13295 30.457L7.74775 29.9588L6.14489 30.8844C6.08803 30.9168 6.02104 30.9266 5.95727 30.9119C5.8935 30.8971 5.83763 30.8589 5.80079 30.8048C5.76396 30.7507 5.74886 30.6847 5.7585 30.6199C5.76815 30.5552 5.80184 30.4965 5.85285 30.4555L6.33438 30.0733L4.9283 30.8844C4.87164 30.9163 4.80508 30.9259 4.74172 30.9112C4.67837 30.8965 4.62281 30.8586 4.58598 30.805C4.54915 30.7514 4.53373 30.686 4.54275 30.6216C4.55176 30.5571 4.58456 30.4984 4.63469 30.457L5.22139 29.9833L3.66746 30.8813C3.61033 30.9146 3.54267 30.9249 3.47822 30.9101C3.41377 30.8953 3.35736 30.8565 3.32045 30.8017C3.28354 30.7468 3.2689 30.6799 3.2795 30.6147C3.29009 30.5494 3.32513 30.4906 3.3775 30.4502L3.68985 30.2092L2.78925 30.7298C2.73592 30.7605 2.67345 30.7712 2.61293 30.7602C2.55241 30.7492 2.49774 30.7171 2.45862 30.6697C2.41951 30.6222 2.39847 30.5624 2.39924 30.5009C2.40001 30.4394 2.42255 30.3801 2.46284 30.3336L3.54148 29.0947L1.73716 30.1358C1.68398 30.1665 1.62165 30.1774 1.5612 30.1666C1.50075 30.1558 1.44607 30.124 1.40681 30.0768C1.36756 30.0296 1.34627 29.97 1.34671 29.9086C1.34714 29.8472 1.36928 29.7879 1.40919 29.7412L2.23275 28.7797L1.1234 29.42C1.0697 29.451 1.00673 29.4617 0.945815 29.4504C0.884896 29.439 0.830021 29.4063 0.791059 29.3581C0.752097 29.31 0.731604 29.2495 0.733264 29.1875C0.734924 29.1256 0.758629 29.0662 0.800117 29.0202L1.78921 27.927L0.743894 28.5278C0.689996 28.557 0.627498 28.5663 0.567421 28.554C0.507345 28.5416 0.453549 28.5085 0.41552 28.4604C0.377491 28.4123 0.357671 28.3523 0.359556 28.291C0.36144 28.2297 0.384908 28.171 0.425821 28.1253L1.64866 26.84L0.649149 27.4174C0.594773 27.4484 0.531044 27.4587 0.469641 27.4466C0.408238 27.4344 0.353274 27.4005 0.314822 27.3511C0.27637 27.3018 0.257005 27.2402 0.260278 27.1776C0.26355 27.1151 0.289239 27.0559 0.332638 27.0108L1.58775 25.7229L0.650711 26.2648C0.594479 26.2963 0.528539 26.3059 0.465665 26.2916C0.402791 26.2773 0.34746 26.2402 0.310389 26.1874C0.273318 26.1347 0.257147 26.0701 0.265008 26.0061C0.272869 25.9421 0.304203 25.8833 0.35294 25.841L0.686631 25.5594L0.650711 25.5797C0.596388 25.6107 0.532723 25.6211 0.471363 25.609C0.410004 25.5969 0.355053 25.5631 0.316564 25.5138C0.278075 25.4645 0.258623 25.403 0.261766 25.3406C0.264909 25.2781 0.290436 25.2189 0.333679 25.1737L1.35818 24.1169L0.649149 24.5266C0.601516 24.5542 0.546358 24.566 0.491605 24.5603C0.436851 24.5545 0.385321 24.5316 0.344421 24.4948C0.303522 24.4579 0.275359 24.409 0.263981 24.3552C0.252604 24.3013 0.258597 24.2452 0.2811 24.195L0.59605 23.4896C0.535772 23.501 0.473415 23.4907 0.419981 23.4606C0.366546 23.4304 0.325466 23.3824 0.303989 23.325C0.282513 23.2675 0.282019 23.2043 0.302594 23.1465C0.32317 23.0887 0.363493 23.0401 0.416451 23.0091L1.02032 22.6603C1.06791 22.6328 1.12298 22.6211 1.17763 22.6268C1.23229 22.6326 1.28373 22.6554 1.32458 22.6922C1.36544 22.729 1.39362 22.7777 1.40507 22.8314C1.41653 22.8852 1.41069 22.9412 1.38837 22.9914L1.08331 23.6749L2.71324 22.7337C2.76763 22.7023 2.83152 22.6917 2.89315 22.7037C2.95479 22.7157 3.01 22.7496 3.04861 22.7991C3.08722 22.8486 3.10663 22.9104 3.10326 22.9731C3.09989 23.0358 3.07397 23.0952 3.03027 23.1403L2.00525 24.196L2.96052 23.6442C3.01683 23.612 3.08312 23.602 3.14642 23.6162C3.20971 23.6303 3.26545 23.6676 3.30271 23.7207C3.33996 23.7738 3.35606 23.8388 3.34785 23.9032C3.33963 23.9675 3.30769 24.0265 3.25829 24.0685L2.9246 24.3501L2.96052 24.3298C3.01489 24.2988 3.07862 24.2884 3.14002 24.3006C3.20143 24.3128 3.25639 24.3466 3.29484 24.396C3.3333 24.4454 3.35266 24.507 3.34939 24.5695C3.34612 24.632 3.32043 24.6913 3.27703 24.7364L2.02087 26.0243L2.95791 25.4824C3.01219 25.451 3.07596 25.4403 3.1375 25.4522C3.19904 25.4641 3.25423 25.4978 3.29291 25.5471C3.33159 25.5964 3.35118 25.6581 3.34807 25.7207C3.34496 25.7833 3.31937 25.8427 3.27599 25.8879L2.05419 27.1701L2.96052 26.6495C3.01415 26.6189 3.07691 26.6084 3.1376 26.6198C3.19828 26.6312 3.25293 26.6638 3.29179 26.7118C3.33064 26.7598 3.35117 26.82 3.34971 26.8818C3.34824 26.9435 3.32488 27.0027 3.28379 27.0488L2.2947 28.142L3.28952 27.5694C3.34269 27.539 3.40488 27.5283 3.46513 27.5392C3.52539 27.5502 3.57987 27.582 3.61897 27.6291C3.65808 27.6763 3.67932 27.7357 3.67895 27.7969C3.67858 27.8582 3.65664 27.9173 3.61696 27.964L2.79393 28.9244L4.62949 27.8651C4.68276 27.8347 4.74504 27.8241 4.80534 27.8352C4.86564 27.8463 4.9201 27.8783 4.95912 27.9256C4.99814 27.9729 5.01921 28.0324 5.01862 28.0937C5.01803 28.155 4.99581 28.2142 4.95589 28.2607L3.87673 29.4986L6.70972 27.864C6.76676 27.8316 6.83393 27.822 6.89778 27.837C6.96164 27.852 7.01747 27.8906 7.05412 27.945C7.09076 27.9994 7.10551 28.0656 7.09542 28.1304C7.08532 28.1952 7.05113 28.2538 6.99968 28.2945L6.68733 28.5361L7.85343 27.8651C7.91011 27.8326 7.97694 27.8226 8.04064 27.8371C8.10435 27.8516 8.16028 27.8895 8.19732 27.9433C8.23436 27.9971 8.2498 28.0629 8.24058 28.1276C8.23136 28.1923 8.19816 28.2511 8.14756 28.2925L7.55982 28.7667L9.12156 27.8651C9.1784 27.8332 9.24511 27.8238 9.30852 27.8388C9.37193 27.8538 9.42743 27.8919 9.46405 27.9458C9.50067 27.9997 9.51575 28.0654 9.50632 28.1298C9.49688 28.1943 9.46361 28.2529 9.41308 28.294L8.93155 28.6761L10.3371 27.8651C10.3938 27.8331 10.4603 27.8236 10.5237 27.8383C10.587 27.853 10.6426 27.8908 10.6794 27.9444C10.7163 27.998 10.7317 28.0635 10.7227 28.1279C10.7136 28.1923 10.6808 28.251 10.6307 28.2925L10.0159 28.7906L11.6224 27.8651C11.6795 27.8327 11.7466 27.823 11.8105 27.838C11.8743 27.853 11.9302 27.8916 11.9668 27.946C12.0035 28.0004 12.0182 28.0666 12.0081 28.1315C11.998 28.1963 11.9638 28.2549 11.9124 28.2956L11.6078 28.5319L12.764 27.8651C12.8195 27.8329 12.8849 27.8223 12.9476 27.8353C13.0104 27.8483 13.0662 27.884 13.1042 27.9356C13.1423 27.9872 13.16 28.0511 13.1539 28.1149C13.1478 28.1787 13.1183 28.2381 13.0712 28.2815L11.9946 29.2789L14.4413 27.8656C14.4986 27.833 14.5662 27.8233 14.6303 27.8386C14.6945 27.8538 14.7504 27.8928 14.7869 27.9478C14.8234 28.0027 14.8377 28.0694 14.8269 28.1344C14.8161 28.1995 14.781 28.258 14.7287 28.2982L14.6605 28.3502L15.5002 27.8661C15.5551 27.8343 15.6198 27.8237 15.682 27.8363C15.7443 27.8488 15.7997 27.8837 15.8381 27.9343C15.8763 27.985 15.8947 28.0478 15.8898 28.1111C15.8849 28.1744 15.8571 28.2337 15.8115 28.2779L14.6662 29.3877L17.3066 27.8651C17.3608 27.8337 17.4244 27.823 17.4859 27.8347C17.5473 27.8465 17.6025 27.88 17.6413 27.9292C17.68 27.9783 17.6998 28.0397 17.6969 28.1023C17.6941 28.1648 17.6688 28.2242 17.6257 28.2695L16.4221 29.5309L19.3108 27.8651C19.3662 27.8357 19.4302 27.8273 19.4913 27.8414C19.5523 27.8555 19.6062 27.8911 19.6431 27.9417C19.68 27.9924 19.6974 28.0546 19.6921 28.117C19.6868 28.1794 19.6592 28.2378 19.6143 28.2815L18.6252 29.1665L20.8809 27.8651C20.9363 27.8333 21.0015 27.8231 21.064 27.8363C21.1265 27.8495 21.182 27.8852 21.2198 27.9366C21.2577 27.9881 21.2753 28.0516 21.2694 28.1152C21.2634 28.1788 21.2343 28.238 21.1875 28.2815L20.1136 29.2758L22.5561 27.8651C22.6119 27.8338 22.6772 27.8241 22.7396 27.8379C22.8021 27.8517 22.8572 27.888 22.8946 27.9399C22.932 27.9917 22.949 28.0555 22.9423 28.1191C22.9357 28.1827 22.9059 28.2416 22.8586 28.2846L21.8846 29.1483L24.108 27.8651C24.1637 27.8333 24.2293 27.8233 24.292 27.8369C24.3547 27.8506 24.4101 27.8869 24.4477 27.9389C24.4853 27.9909 24.5023 28.055 24.4955 28.1188C24.4887 28.1826 24.4586 28.2417 24.4109 28.2846L23.4291 29.1566L25.6676 27.8651C25.725 27.8314 25.7931 27.821 25.8579 27.836C25.9228 27.851 25.9794 27.8902 26.0162 27.9457C26.0529 28.0011 26.0671 28.0686 26.0557 28.1341C26.0443 28.1997 26.0083 28.2584 25.955 28.2982L25.917 28.3258L26.7166 27.8651C26.7735 27.833 26.8403 27.8236 26.9039 27.8386C26.9674 27.8535 27.023 27.8919 27.0597 27.9459C27.0963 28 27.1113 28.0658 27.1016 28.1304C27.092 28.195 27.0584 28.2535 27.0076 28.2945L26.5833 28.6287L30.5517 26.3382C30.6096 26.3048 30.6783 26.295 30.7433 26.3108C30.8083 26.3266 30.8647 26.3669 30.9008 26.4232C30.937 26.4796 30.95 26.5477 30.9372 26.6134C30.9244 26.679 30.8869 26.7373 30.8323 26.776L29.648 27.6136L30.5517 27.093C30.6094 27.0599 30.6777 27.0501 30.7425 27.0658C30.8072 27.0815 30.8635 27.1214 30.8997 27.1772C30.9359 27.2331 30.9493 27.3008 30.9372 27.3663C30.925 27.4318 30.8882 27.4901 30.8343 27.5293L30.3185 27.9025L30.5137 27.7896C30.5691 27.7546 30.6357 27.7419 30.7002 27.7539C30.7646 27.766 30.8221 27.8019 30.8613 27.8545C30.9004 27.9071 30.9182 27.9725 30.9112 28.0377C30.9042 28.1028 30.8728 28.163 30.8234 28.206L29.6412 29.3305L29.9665 29.1431C30.026 29.112 30.0952 29.105 30.1597 29.1237C30.2242 29.1424 30.2789 29.1853 30.3125 29.2435C30.3461 29.3016 30.356 29.3704 30.34 29.4356C30.324 29.5008 30.2835 29.5574 30.2268 29.5934L28.0066 30.875C27.9514 30.9094 27.8853 30.9219 27.8214 30.91C27.7575 30.8982 27.7003 30.8628 27.6612 30.8109C27.622 30.759 27.6037 30.6944 27.6098 30.6296C27.6159 30.5649 27.646 30.5048 27.6942 30.4612L28.877 29.3367L26.1871 30.8844C26.1477 30.9078 26.1028 30.9204 26.057 30.9208Z" fill="#AA6352"/>
<path d="M28.1096 27.2851C28.0572 27.2851 28.006 27.2692 27.9627 27.2395C27.9194 27.2099 27.8861 27.1679 27.8672 27.1189C27.8482 27.07 27.8445 27.0165 27.8564 26.9655C27.8684 26.9144 27.8955 26.8681 27.9342 26.8327L28.7297 26.1076L28.2398 26.3902C28.1838 26.4228 28.1178 26.4333 28.0545 26.4197C27.9912 26.4061 27.9352 26.3695 27.8975 26.3169C27.8598 26.2642 27.843 26.1995 27.8505 26.1352C27.8579 26.0709 27.8891 26.0117 27.9379 25.9691L28.5334 25.4485L28.2398 25.6177C28.1854 25.6487 28.1217 25.6591 28.0603 25.6469C27.9989 25.6348 27.9439 25.6009 27.9055 25.5515C27.867 25.5021 27.8477 25.4405 27.8509 25.378C27.8542 25.3155 27.8799 25.2562 27.9233 25.2111L29.181 23.9206L28.2398 24.461C28.1852 24.4925 28.121 24.5031 28.0592 24.4908C27.9974 24.4786 27.9421 24.4443 27.9036 24.3944C27.8651 24.3445 27.8461 24.2823 27.85 24.2194C27.8539 24.1565 27.8805 24.0971 27.9248 24.0523L29.1352 22.8264L28.2382 23.3438C28.1823 23.3757 28.1166 23.3858 28.0537 23.3721C27.9908 23.3584 27.9353 23.3219 27.8977 23.2696C27.8602 23.2173 27.8434 23.1529 27.8505 23.089C27.8576 23.025 27.8882 22.9659 27.9363 22.9232L28.5449 22.387L28.2382 22.564C28.1838 22.595 28.1199 22.6054 28.0584 22.5931C27.9969 22.5808 27.9419 22.5467 27.9035 22.4972C27.8651 22.4476 27.846 22.3858 27.8495 22.3232C27.853 22.2606 27.879 22.2013 27.9228 22.1564L29.1539 20.9028L28.2398 21.4312C28.185 21.4624 28.1207 21.4727 28.0589 21.46C27.9971 21.4474 27.942 21.4128 27.9038 21.3626C27.8656 21.3124 27.847 21.25 27.8513 21.1871C27.8557 21.1242 27.8827 21.065 27.9274 21.0205L29.0524 19.9111L28.2403 20.3797C28.1854 20.4113 28.1209 20.4219 28.0588 20.4093C27.9967 20.3968 27.9413 20.3621 27.903 20.3116C27.8647 20.2612 27.8461 20.1985 27.8507 20.1353C27.8553 20.0721 27.8828 20.0128 27.928 19.9684L29.0165 18.9049L28.2398 19.3531C28.1836 19.385 28.1176 19.3949 28.0545 19.3808C27.9914 19.3667 27.9358 19.3297 27.8985 19.2769C27.8613 19.2241 27.845 19.1593 27.8528 19.0952C27.8607 19.031 27.8921 18.9721 27.941 18.9298L28.3371 18.5925L28.2398 18.6482C28.1849 18.6799 28.1204 18.6904 28.0583 18.6779C27.9962 18.6654 27.9408 18.6306 27.9025 18.5802C27.8642 18.5297 27.8456 18.467 27.8502 18.4038C27.8548 18.3407 27.8822 18.2813 27.9274 18.237L29.0134 17.1776L28.2393 17.6242C28.1839 17.6547 28.1193 17.664 28.0576 17.6503C27.9958 17.6367 27.9412 17.601 27.9038 17.55C27.8665 17.499 27.8489 17.4361 27.8545 17.3732C27.8601 17.3102 27.8885 17.2514 27.9342 17.2078L28.7015 16.5123L28.2393 16.7788C28.1837 16.8083 28.1193 16.8167 28.058 16.8024C27.9968 16.7881 27.9427 16.7521 27.906 16.701C27.8692 16.65 27.8522 16.5873 27.858 16.5247C27.8639 16.462 27.8922 16.4036 27.9379 16.3603L28.6037 15.7684L28.2393 15.9766C28.1842 16.0098 28.1188 16.0214 28.0557 16.0092C27.9926 15.997 27.9362 15.9619 27.8974 15.9107C27.8587 15.8594 27.8402 15.7956 27.8457 15.7316C27.8511 15.6675 27.8801 15.6078 27.9269 15.5638L28.9587 14.571L28.2372 14.9875C28.1827 15.0186 28.1188 15.0289 28.0574 15.0166C27.9959 15.0043 27.9409 14.9703 27.9025 14.9207C27.8641 14.8711 27.8449 14.8093 27.8485 14.7467C27.852 14.6841 27.878 14.6249 27.9217 14.5799L29.1555 13.3232L28.2398 13.8511C28.183 13.8844 28.1158 13.895 28.0515 13.8807C27.9873 13.8664 27.9308 13.8283 27.8935 13.774C27.8562 13.7198 27.8409 13.6535 27.8506 13.5884C27.8602 13.5232 27.8942 13.4642 27.9457 13.4232L28.1185 13.2837C28.0763 13.286 28.0343 13.2777 27.9961 13.2595C27.958 13.2413 27.9251 13.2138 27.9004 13.1795C27.8625 13.128 27.8449 13.0644 27.851 13.0007C27.857 12.9371 27.8863 12.8779 27.9332 12.8344L28.7791 12.0535L28.2398 12.3659C28.1844 12.3968 28.1196 12.4063 28.0576 12.3928C27.9957 12.3793 27.9407 12.3436 27.9032 12.2925C27.8657 12.2414 27.8481 12.1783 27.8538 12.1151C27.8595 12.0519 27.8881 11.993 27.9342 11.9494L28.7203 11.2341L28.2398 11.5116C28.185 11.5428 28.1207 11.5531 28.0589 11.5404C27.9971 11.5278 27.942 11.4932 27.9038 11.443C27.8656 11.3928 27.847 11.3304 27.8513 11.2675C27.8557 11.2046 27.8827 11.1454 27.9274 11.1009L29.0373 10.0077L28.2398 10.4684C28.1844 10.4993 28.1196 10.5088 28.0576 10.4953C27.9957 10.4818 27.9407 10.4461 27.9032 10.395C27.8657 10.3438 27.8481 10.2808 27.8538 10.2176C27.8595 10.1544 27.8881 10.0955 27.9342 10.0519L28.7255 9.33091L28.2398 9.61098C28.1834 9.64276 28.1173 9.65241 28.0542 9.63805C27.9911 9.62369 27.9356 9.58635 27.8986 9.53331C27.8615 9.48026 27.8455 9.41532 27.8538 9.35115C27.862 9.28697 27.8938 9.22816 27.9431 9.18618L28.2065 8.9665C28.1489 8.98983 28.0848 8.99177 28.0259 8.97195C27.9669 8.95214 27.917 8.9119 27.8852 8.85849C27.8534 8.80509 27.8417 8.74206 27.8523 8.6808C27.8629 8.61955 27.8951 8.56411 27.9431 8.52453L28.2065 8.30485C28.1506 8.32718 28.0888 8.32949 28.0314 8.31137C27.9741 8.29325 27.9247 8.25583 27.8919 8.20546C27.859 8.1551 27.8446 8.0949 27.851 8.0351C27.8575 7.9753 27.8845 7.9196 27.9274 7.87745L29.0446 6.77747L28.2398 7.24183C28.1848 7.27239 28.1206 7.28199 28.059 7.26885C27.9975 7.25571 27.9428 7.22071 27.9051 7.17035C27.8673 7.11998 27.8491 7.05765 27.8538 6.99489C27.8585 6.93214 27.8858 6.87321 27.9306 6.82901L28.9285 5.87635L28.2398 6.27355C28.185 6.30476 28.1207 6.315 28.0589 6.30237C27.9971 6.28975 27.942 6.25511 27.9038 6.20491C27.8656 6.1547 27.847 6.09235 27.8513 6.02942C27.8557 5.9665 27.8827 5.9073 27.9274 5.86281L29.0451 4.76127L28.2398 5.22563C28.1849 5.25774 28.1201 5.26862 28.0576 5.2562C27.9952 5.24378 27.9395 5.20892 27.9011 5.15822C27.8626 5.10752 27.844 5.04448 27.8489 4.98103C27.8538 4.91757 27.8817 4.8581 27.9274 4.81385L28.8468 3.91846L28.2335 4.27245C28.1781 4.30618 28.112 4.31796 28.0483 4.3055C27.9846 4.29303 27.9279 4.2572 27.8892 4.20505C27.8505 4.1529 27.8328 4.08819 27.8394 4.02361C27.846 3.95903 27.8764 3.89925 27.9248 3.85599L28.4407 3.37029L27.9644 3.64515C27.9104 3.67609 27.8471 3.68665 27.786 3.67492C27.7249 3.66319 27.67 3.62995 27.6312 3.58122C27.5925 3.53249 27.5725 3.4715 27.5749 3.40931C27.5773 3.34712 27.6019 3.28784 27.6443 3.24223L28.3543 2.48374L26.9488 3.29376C26.8944 3.32515 26.8305 3.33582 26.7688 3.3238C26.7072 3.31179 26.652 3.2779 26.6134 3.22838C26.5748 3.17886 26.5554 3.11706 26.5587 3.05436C26.5621 2.99165 26.588 2.93228 26.6317 2.88719L27.4902 2.00898L25.2621 3.29376C25.2061 3.32577 25.1403 3.33588 25.0773 3.32213C25.0143 3.30837 24.9587 3.27174 24.9212 3.21932C24.8837 3.1669 24.8669 3.10242 24.8742 3.03837C24.8815 2.97432 24.9123 2.91525 24.9607 2.87261L25.8332 2.11465L23.7894 3.29376C23.7348 3.32483 23.6709 3.33514 23.6094 3.3228C23.5478 3.31046 23.4928 3.2763 23.4545 3.22661C23.4161 3.17692 23.397 3.11505 23.4007 3.05239C23.4044 2.98973 23.4305 2.93051 23.4744 2.88563L24.6561 1.6883L21.8794 3.29376C21.8228 3.32408 21.7571 3.33245 21.6948 3.31727C21.6325 3.30209 21.5779 3.26443 21.5417 3.21152C21.5054 3.15861 21.49 3.09417 21.4983 3.03057C21.5066 2.96696 21.5381 2.90868 21.5868 2.86689L22.1594 2.40462L20.6175 3.29376C20.5609 3.32652 20.4941 3.3368 20.4303 3.32255C20.3665 3.3083 20.3104 3.27057 20.2732 3.21686C20.2359 3.16314 20.2202 3.09738 20.2292 3.03263C20.2383 2.96789 20.2713 2.90891 20.3218 2.86741L20.9986 2.31456L19.2994 3.29376C19.244 3.3255 19.1788 3.33575 19.1163 3.32256C19.0538 3.30936 18.9983 3.27365 18.9604 3.22221C18.9226 3.17076 18.9049 3.10719 18.9109 3.04359C18.9169 2.97999 18.946 2.92081 18.9928 2.8773L20.0678 1.88091L17.621 3.29376C17.5663 3.32455 17.5023 3.3345 17.4408 3.32179C17.3792 3.30907 17.3244 3.27454 17.2864 3.22457C17.2483 3.1746 17.2296 3.11255 17.2337 3.04988C17.2378 2.98721 17.2645 2.92813 17.3087 2.88355L18.4727 1.73203L15.7657 3.29376C15.7103 3.32424 15.6457 3.33351 15.584 3.31985C15.5223 3.30619 15.4676 3.27053 15.4302 3.21952C15.3929 3.16852 15.3754 3.10566 15.381 3.04268C15.3866 2.97971 15.4149 2.92092 15.4606 2.8773L16.4851 1.94703L14.1519 3.29376C14.0968 3.32565 14.0318 3.33619 13.9694 3.3234C13.907 3.31062 13.8514 3.27538 13.8133 3.22438C13.7751 3.17337 13.7569 3.11013 13.7623 3.04665C13.7676 2.98316 13.796 2.92383 13.8422 2.8799L14.9635 1.81116L12.3944 3.29376C12.3384 3.32538 12.2727 3.33515 12.2099 3.32119C12.1472 3.30722 12.0918 3.27051 12.0545 3.21813C12.0171 3.16575 12.0005 3.10141 12.0079 3.03751C12.0152 2.97361 12.0459 2.91469 12.0941 2.87209L12.9973 2.08967L10.9103 3.29376C10.8536 3.32569 10.787 3.33525 10.7237 3.32056C10.6603 3.30586 10.6048 3.26799 10.5679 3.21438C10.5311 3.16077 10.5157 3.09532 10.5247 3.03091C10.5337 2.9665 10.5665 2.9078 10.6167 2.86637L11.2164 2.38119L9.63485 3.29376C9.58074 3.32471 9.51732 3.33521 9.45613 3.32336C9.39493 3.3115 9.34002 3.27808 9.30138 3.22916C9.26274 3.18025 9.24294 3.11909 9.24557 3.05681C9.24821 2.99453 9.27311 2.93527 9.31574 2.88979L10.5214 1.6149L7.61241 3.29376C7.55726 3.32522 7.49252 3.33543 7.43037 3.32248C7.36821 3.30953 7.31294 3.27432 7.27494 3.22346C7.23694 3.1726 7.21883 3.10961 7.22404 3.04633C7.22924 2.98306 7.25739 2.92387 7.30318 2.8799L8.42295 1.81376L5.85806 3.29376C5.80268 3.32385 5.73827 3.33282 5.67678 3.31901C5.61529 3.30521 5.56089 3.26956 5.52369 3.21869C5.48649 3.16782 5.46901 3.10518 5.4745 3.04239C5.47998 2.97961 5.50806 2.92095 5.55352 2.8773L6.57021 1.96108L4.2552 3.29689C4.22557 3.31572 4.19244 3.32836 4.1578 3.33406C4.12316 3.33976 4.08773 3.33839 4.05363 3.33004C4.01954 3.32169 3.98748 3.30652 3.9594 3.28546C3.93131 3.2644 3.90778 3.23788 3.89021 3.20748C3.87264 3.17709 3.8614 3.14346 3.85717 3.10861C3.85294 3.07376 3.8558 3.03842 3.86558 3.0047C3.87536 2.97099 3.89186 2.9396 3.91408 2.91243C3.93631 2.88525 3.9638 2.86286 3.99491 2.84659L8.45262 0.27441C8.50798 0.244703 8.57222 0.236023 8.63348 0.24997C8.69473 0.263917 8.74888 0.299551 8.78592 0.350295C8.82297 0.401039 8.84041 0.463469 8.83503 0.526065C8.82964 0.588661 8.8018 0.647197 8.75664 0.690872L7.73943 1.60761L10.0524 0.27441C10.1078 0.240102 10.1741 0.227866 10.2382 0.240125C10.3023 0.252384 10.3594 0.288243 10.3983 0.340606C10.4371 0.392969 10.4549 0.45802 10.4482 0.522885C10.4414 0.587749 10.4105 0.6477 10.3616 0.690872L9.24182 1.75337L11.8067 0.27441C11.8608 0.243463 11.9242 0.232962 11.9854 0.244817C12.0466 0.256672 12.1015 0.290095 12.1402 0.339009C12.1788 0.387923 12.1986 0.44908 12.196 0.511359C12.1933 0.573638 12.1685 0.632903 12.1258 0.678378L10.9202 1.95223L13.8302 0.27441C13.8869 0.242482 13.9534 0.232924 14.0168 0.247616C14.0801 0.262308 14.1357 0.300186 14.1725 0.353793C14.2093 0.407399 14.2248 0.472851 14.2157 0.53726C14.2067 0.601669 14.1739 0.66037 14.1238 0.701804L13.5241 1.18698L15.1046 0.27441C15.1606 0.242788 15.2263 0.233018 15.2891 0.246984C15.3519 0.26095 15.4072 0.297663 15.4445 0.350045C15.4819 0.402426 15.4985 0.466767 15.4911 0.530662C15.4838 0.594558 15.4531 0.653483 15.4049 0.696078L14.5002 1.47851L16.5893 0.27441C16.6445 0.23299 16.7139 0.215205 16.7822 0.224968C16.8506 0.234731 16.9122 0.271241 16.9537 0.326468C16.9951 0.381694 17.0129 0.451112 17.0031 0.519452C16.9933 0.587791 16.9568 0.649453 16.9016 0.690872L15.7772 1.75545L18.3452 0.27441C18.4006 0.243933 18.4652 0.23466 18.5269 0.248321C18.5886 0.261982 18.6433 0.297645 18.6806 0.348649C18.718 0.399653 18.7355 0.462512 18.7299 0.525488C18.7243 0.588464 18.696 0.647251 18.6502 0.690872L17.6231 1.62115L19.9579 0.27441C20.0127 0.242663 20.0772 0.231969 20.1393 0.24433C20.2014 0.256691 20.2568 0.29126 20.2953 0.341564C20.3337 0.391881 20.3524 0.454468 20.348 0.517613C20.3436 0.580758 20.3163 0.640132 20.2713 0.684625L19.1063 1.83614L21.8133 0.27441C21.8687 0.24221 21.9341 0.231607 21.9969 0.244634C22.0596 0.257661 22.1154 0.293401 22.1535 0.345002C22.1915 0.396603 22.2092 0.460435 22.2031 0.52426C22.197 0.588086 22.1675 0.647415 22.1204 0.690872L21.047 1.6857L23.4932 0.27441C23.5497 0.242227 23.6163 0.232391 23.6797 0.246839C23.7431 0.261288 23.7989 0.298974 23.8359 0.352471C23.8729 0.405967 23.8886 0.471396 23.8798 0.535863C23.871 0.60033 23.8384 0.659161 23.7883 0.700763L23.1116 1.25414L24.8113 0.27441C24.868 0.241738 24.935 0.231653 24.9988 0.246167C25.0627 0.260682 25.1187 0.298728 25.1558 0.35272C25.1928 0.406712 25.2081 0.472683 25.1987 0.53748C25.1893 0.602276 25.1558 0.661137 25.1049 0.702325L24.5322 1.1646L26.0731 0.27441C26.1277 0.242957 26.1918 0.232342 26.2536 0.244534C26.3153 0.256725 26.3706 0.290896 26.4091 0.340714C26.4476 0.390532 26.4668 0.45262 26.463 0.515473C26.4592 0.578326 26.4328 0.637682 26.3886 0.682543L25.2069 1.87675L27.9139 0.315015C27.9699 0.283487 28.0355 0.273749 28.0982 0.287675C28.1608 0.301601 28.2162 0.338206 28.2535 0.390455C28.2908 0.442703 28.3075 0.506907 28.3004 0.570722C28.2932 0.634537 28.2628 0.69346 28.2148 0.736163L27.3439 1.49204L28.8603 0.61695C28.9147 0.585942 28.9784 0.575569 29.0398 0.58773C29.1012 0.599891 29.1562 0.633773 29.1947 0.683166C29.2331 0.732559 29.2525 0.794155 29.2492 0.856665C29.2459 0.919176 29.2202 0.978413 29.1768 1.02352L28.32 1.9033L29.612 1.15939C29.666 1.12846 29.7293 1.1179 29.7905 1.12963C29.8516 1.14136 29.9065 1.1746 29.9452 1.22333C29.9839 1.27205 30.0039 1.33304 30.0015 1.39523C29.9991 1.45742 29.9745 1.5167 29.9322 1.56232L29.2216 2.31976L30.1175 1.80283C30.173 1.76964 30.2388 1.75827 30.3022 1.77094C30.3656 1.7836 30.422 1.81939 30.4604 1.87135C30.4989 1.9233 30.5166 1.9877 30.5102 2.05201C30.5038 2.11633 30.4737 2.17595 30.4257 2.21929L29.9098 2.70499L30.3986 2.42336C30.4536 2.39124 30.5184 2.38036 30.5808 2.39278C30.6432 2.40521 30.6989 2.44006 30.7374 2.49076C30.7758 2.54147 30.7944 2.6045 30.7895 2.66796C30.7847 2.73141 30.7567 2.79088 30.711 2.83513L29.7911 3.72688L30.5465 3.29376C30.6013 3.26256 30.6656 3.25231 30.7274 3.26494C30.7892 3.27757 30.8443 3.3122 30.8824 3.3624C30.9206 3.41261 30.9393 3.47497 30.9349 3.53789C30.9306 3.60081 30.9035 3.66002 30.8588 3.7045L29.7411 4.80344L30.5512 4.33492C30.6062 4.30392 30.6707 4.29402 30.7326 4.30707C30.7944 4.32012 30.8494 4.35523 30.8872 4.40583C30.9251 4.45644 30.9433 4.51909 30.9383 4.5821C30.9334 4.64511 30.9057 4.70417 30.8604 4.74826L29.864 5.70039L30.5517 5.30423C30.6065 5.27303 30.6708 5.26279 30.7326 5.27541C30.7944 5.28804 30.8495 5.32267 30.8877 5.37288C30.9258 5.42308 30.9445 5.48544 30.9401 5.54836C30.9358 5.61129 30.9087 5.67049 30.864 5.71497L29.7469 6.81495L30.5517 6.35008C30.6081 6.31763 30.6747 6.3075 30.7382 6.3217C30.8017 6.33591 30.8576 6.3734 30.8949 6.42679C30.9321 6.48018 30.948 6.5456 30.9394 6.61013C30.9308 6.67466 30.8983 6.73362 30.8484 6.77539L30.585 6.99507C30.6425 6.97212 30.7063 6.97043 30.765 6.99029C30.8236 7.01016 30.8733 7.05028 30.905 7.10345C30.9367 7.15662 30.9484 7.21937 30.9381 7.28041C30.9277 7.34146 30.8959 7.39681 30.8484 7.43652L30.585 7.65621C30.6387 7.63528 30.6979 7.63261 30.7533 7.64861C30.8087 7.6646 30.8573 7.69836 30.8916 7.7447C30.9295 7.79644 30.9469 7.86032 30.9405 7.92411C30.9342 7.98789 30.9045 8.04709 30.8573 8.09037L30.0655 8.81189L30.5512 8.53182C30.606 8.50061 30.6703 8.49037 30.732 8.503C30.7938 8.51562 30.849 8.55026 30.8871 8.60046C30.9253 8.65067 30.944 8.71302 30.9396 8.77595C30.9353 8.83887 30.9082 8.89807 30.8635 8.94255L29.7526 10.0358L30.5512 9.57506C30.6066 9.54417 30.6713 9.53459 30.7333 9.5481C30.7953 9.56161 30.8502 9.59729 30.8877 9.64843C30.9253 9.69958 30.9428 9.76266 30.9371 9.82584C30.9314 9.88901 30.9028 9.94793 30.8567 9.99152L30.0722 10.7047L30.5512 10.4278C30.6066 10.396 30.6718 10.3858 30.7343 10.399C30.7968 10.4122 30.8522 10.4479 30.8901 10.4993C30.928 10.5508 30.9456 10.6143 30.9397 10.6779C30.9337 10.7415 30.9046 10.8007 30.8578 10.8442L30.0103 11.6251L30.5512 11.3127C30.6078 11.2802 30.6747 11.2703 30.7384 11.2847C30.8021 11.2992 30.858 11.3372 30.8951 11.391C30.9321 11.4448 30.9475 11.5106 30.9383 11.5753C30.9291 11.64 30.8959 11.6988 30.8453 11.7401L30.6725 11.8802C30.7133 11.8807 30.7535 11.89 30.7905 11.9073C30.8275 11.9246 30.8604 11.9496 30.8869 11.9806C30.9255 12.0305 30.9447 12.0926 30.941 12.1555C30.9373 12.2184 30.9108 12.2778 30.8666 12.3227L29.6329 13.5793L30.5512 13.0499C30.6062 13.0168 30.6716 13.0052 30.7347 13.0173C30.7978 13.0295 30.8542 13.0646 30.893 13.1159C30.9318 13.1671 30.9502 13.2309 30.9448 13.2949C30.9393 13.359 30.9104 13.4188 30.8635 13.4627L29.8328 14.4544L30.5532 14.038C30.6091 14.0057 30.6749 13.9952 30.738 14.0087C30.8011 14.0222 30.857 14.0587 30.8947 14.111C30.9324 14.1633 30.9494 14.2278 30.9423 14.292C30.9352 14.3561 30.9045 14.4153 30.8562 14.4581L30.1894 15.051L30.5538 14.8428C30.6092 14.8123 30.6737 14.803 30.7355 14.8167C30.7972 14.8304 30.8519 14.866 30.8892 14.917C30.9266 14.968 30.9441 15.0309 30.9385 15.0939C30.9329 15.1568 30.9046 15.2156 30.8588 15.2592L30.0915 15.9547L30.5538 15.6882C30.6086 15.6566 30.6732 15.646 30.7353 15.6585C30.7974 15.6711 30.8528 15.7058 30.8911 15.7563C30.9294 15.8067 30.948 15.8694 30.9434 15.9326C30.9388 15.9958 30.9113 16.0551 30.8661 16.0995L29.7802 17.1588L30.5543 16.7127C30.6105 16.6808 30.6765 16.6709 30.7396 16.685C30.8027 16.699 30.8583 16.7361 30.8955 16.7889C30.9328 16.8417 30.9491 16.9064 30.9413 16.9706C30.9334 17.0347 30.902 17.0937 30.8531 17.1359L30.4569 17.4733L30.5543 17.417C30.6092 17.3854 30.6737 17.3748 30.7358 17.3874C30.7979 17.3999 30.8533 17.4346 30.8916 17.4851C30.9299 17.5355 30.9485 17.5982 30.9439 17.6614C30.9393 17.7246 30.9118 17.7839 30.8666 17.8283L29.7786 18.8908L30.5548 18.4431C30.6096 18.4119 30.6739 18.4017 30.7357 18.4143C30.7975 18.4269 30.8526 18.4615 30.8908 18.5117C30.929 18.562 30.9476 18.6243 30.9433 18.6872C30.9389 18.7502 30.9119 18.8094 30.8672 18.8538L29.7391 19.9648L30.5512 19.4962C30.6057 19.4648 30.6698 19.4542 30.7316 19.4664C30.7934 19.4785 30.8486 19.5127 30.8871 19.5625C30.9256 19.6124 30.9448 19.6744 30.941 19.7373C30.9372 19.8001 30.9108 19.8595 30.8666 19.9044L29.6355 21.1579L30.5512 20.629C30.6071 20.5971 30.6728 20.587 30.7357 20.6007C30.7986 20.6145 30.8541 20.651 30.8917 20.7033C30.9292 20.7556 30.946 20.8199 30.9389 20.8839C30.9318 20.9478 30.9012 21.0069 30.8531 21.0496L30.2445 21.5858L30.5512 21.4088C30.6057 21.3778 30.6696 21.3675 30.7312 21.3798C30.7927 21.3921 30.8477 21.4263 30.8861 21.476C30.9244 21.5257 30.9435 21.5876 30.9398 21.6502C30.9362 21.7129 30.91 21.7721 30.8661 21.817L29.6558 23.044L30.5532 22.526C30.6076 22.495 30.6713 22.4846 30.7328 22.4968C30.7942 22.5089 30.8491 22.5428 30.8876 22.5922C30.926 22.6416 30.9454 22.7032 30.9421 22.7657C30.9388 22.8282 30.9132 22.8875 30.8698 22.9326L29.6105 24.221L30.5512 23.678C30.6071 23.6461 30.6728 23.6361 30.7357 23.6498C30.7986 23.6635 30.8541 23.7 30.8917 23.7523C30.9292 23.8046 30.946 23.8689 30.9389 23.9329C30.9318 23.9969 30.9012 24.0559 30.8531 24.0987L30.256 24.6234L30.5512 24.4532C30.6066 24.4223 30.6713 24.4127 30.7333 24.4262C30.7953 24.4397 30.8502 24.4754 30.8877 24.5266C30.9253 24.5777 30.9428 24.6408 30.9371 24.704C30.9314 24.7671 30.9028 24.8261 30.8567 24.8696L30.0613 25.5948L30.5512 25.3121C30.6106 25.281 30.6799 25.2741 30.7443 25.2928C30.8088 25.3115 30.8636 25.3544 30.8972 25.4125C30.9308 25.4706 30.9406 25.5395 30.9246 25.6047C30.9087 25.6699 30.8681 25.7264 30.8115 25.7624L28.2398 27.2471C28.2006 27.2713 28.1557 27.2845 28.1096 27.2851Z" fill="#AA6352"/>
<path d="M2.4592 8.53598C2.41434 8.53603 2.37023 8.52449 2.33114 8.50248C2.29206 8.48046 2.25932 8.44872 2.23612 8.41032C2.21292 8.37193 2.20003 8.32819 2.19871 8.28335C2.19739 8.23851 2.20768 8.19409 2.22859 8.1544L2.44098 7.75095L1.1437 8.49954C1.08861 8.53094 1.02395 8.54116 0.961861 8.52826C0.899773 8.51537 0.844528 8.48025 0.8065 8.4295C0.768472 8.37875 0.750278 8.31587 0.755334 8.25266C0.760389 8.18945 0.788347 8.13026 0.833957 8.0862L1.35714 7.5854L0.649152 7.99354C0.593692 8.02673 0.527867 8.03809 0.464488 8.02543C0.401108 8.01276 0.344708 7.97697 0.306262 7.92502C0.267815 7.87306 0.250074 7.80866 0.256489 7.74435C0.262905 7.68004 0.293018 7.62041 0.34097 7.57707L1.2525 6.72489L0.649152 7.07315C0.594722 7.10418 0.530928 7.11453 0.469481 7.10231C0.408033 7.09009 0.353055 7.05612 0.314639 7.00662C0.276223 6.95713 0.256947 6.89545 0.26035 6.83289C0.263752 6.77033 0.289604 6.7111 0.333161 6.66606L1.58255 5.38336L0.645508 5.9232C0.587489 5.95611 0.519047 5.9655 0.454309 5.94942C0.389571 5.93333 0.333479 5.89301 0.29761 5.83677C0.261741 5.78053 0.248834 5.71266 0.261552 5.64718C0.27427 5.5817 0.311644 5.5236 0.365958 5.48487L2.95011 3.6743L0.649152 5.00386C0.591828 5.0372 0.523937 5.04741 0.45934 5.0324C0.394744 5.01739 0.338315 4.97828 0.301574 4.92307C0.264833 4.86786 0.250552 4.80071 0.261647 4.73532C0.272742 4.66994 0.308376 4.61126 0.361272 4.57126L2.76322 2.73466L0.649152 3.95489C0.592667 3.98693 0.526245 3.9967 0.462927 3.98228C0.399608 3.96786 0.343968 3.93029 0.306929 3.87695C0.26989 3.82361 0.254129 3.75835 0.262738 3.69398C0.271348 3.62961 0.303708 3.57079 0.353464 3.52906L1.86314 2.28332L0.790749 2.90176C0.735296 2.93444 0.6697 2.94542 0.606628 2.93257C0.543557 2.91972 0.487484 2.88395 0.449237 2.83218C0.410991 2.78041 0.393284 2.7163 0.399535 2.65224C0.405787 2.58818 0.435554 2.5287 0.483088 2.4853L1.30508 1.72005C1.25561 1.7064 1.21129 1.67843 1.17767 1.63966C1.14405 1.60089 1.12264 1.55305 1.11613 1.50215C1.10962 1.45125 1.1183 1.39956 1.14109 1.35358C1.16387 1.3076 1.19973 1.26938 1.24417 1.24372L2.77207 0.361341C2.82752 0.32866 2.89312 0.317685 2.95619 0.330536C3.01926 0.343387 3.07533 0.379151 3.11358 0.430923C3.15183 0.482695 3.16953 0.546802 3.16328 0.610865C3.15703 0.674928 3.12726 0.734403 3.07973 0.777804L2.5071 1.31088L4.30361 0.274405C4.3601 0.242365 4.42652 0.232596 4.48984 0.247017C4.55315 0.261439 4.60879 0.299008 4.64583 0.352349C4.68287 0.40569 4.69863 0.47095 4.69002 0.535317C4.68141 0.599683 4.64905 0.658506 4.5993 0.700238L3.09275 1.94338L5.98508 0.274405C6.04233 0.241332 6.11002 0.231288 6.17441 0.24631C6.2388 0.261332 6.29506 0.300295 6.33177 0.355289C6.36847 0.410282 6.38287 0.477184 6.37205 0.54241C6.36122 0.607636 6.32598 0.666298 6.27348 0.706485L3.87101 2.54308L7.80241 0.274405C7.86032 0.242602 7.92815 0.234006 7.99215 0.250358C8.05616 0.26671 8.11155 0.306788 8.1471 0.362467C8.18265 0.418145 8.1957 0.485259 8.18361 0.550204C8.17151 0.615148 8.13518 0.673064 8.08196 0.712211L3.30306 4.06421C3.33831 4.11399 3.35496 4.17456 3.35011 4.23535C3.34525 4.29615 3.31921 4.35331 3.27651 4.39686L2.02712 5.67853L2.96416 5.13869C3.01962 5.1055 3.08545 5.09413 3.14883 5.10679C3.21221 5.11946 3.26861 5.15525 3.30705 5.20721C3.3455 5.25916 3.36324 5.32356 3.35683 5.38787C3.35041 5.45219 3.3203 5.51181 3.27234 5.55515L2.35717 6.40629L2.96052 6.05803C3.01564 6.02429 3.08134 6.01227 3.14484 6.0243C3.20834 6.03634 3.26509 6.07156 3.30405 6.12312C3.34301 6.17468 3.3614 6.23889 3.35564 6.30326C3.34987 6.36763 3.32037 6.42755 3.27287 6.47137L2.75229 6.9732L2.9652 6.84983C3.01403 6.82184 3.07061 6.81042 3.12646 6.8173C3.18232 6.82418 3.23444 6.84897 3.27501 6.88796C3.31559 6.92696 3.34244 6.97805 3.35153 7.03359C3.36062 7.08913 3.35147 7.14611 3.32544 7.19601L3.07817 7.66453C3.13443 7.66689 3.18841 7.68744 3.23201 7.72309C3.2756 7.75873 3.30646 7.80756 3.31995 7.86223C3.33344 7.9169 3.32884 7.97447 3.30683 8.02631C3.28483 8.07814 3.24661 8.12144 3.1979 8.14971L2.59403 8.4985C2.55335 8.52307 2.50672 8.53603 2.4592 8.53598Z" fill="#AA6352"/>
<path d="M15.4127 12.8501C15.3598 12.85 15.3082 12.8338 15.2647 12.8037C15.2212 12.7735 15.188 12.7308 15.1694 12.6813C15.1508 12.6317 15.1477 12.5777 15.1606 12.5264C15.1735 12.4751 15.2017 12.4289 15.2415 12.394L16.3607 11.4148L15.0072 12.1957C14.9502 12.2279 14.8832 12.2374 14.8195 12.2224C14.7558 12.2074 14.7001 12.169 14.6635 12.1148C14.6269 12.0605 14.612 11.9945 14.6219 11.9298C14.6317 11.8651 14.6656 11.8065 14.7167 11.7657L15.0551 11.5002L14.7802 11.6564C14.7248 11.6877 14.6599 11.6976 14.5976 11.6842C14.5354 11.6709 14.4802 11.6352 14.4425 11.5839C14.4048 11.5326 14.3872 11.4693 14.393 11.4059C14.3989 11.3425 14.4277 11.2835 14.4741 11.2399L15.4258 10.3674L14.7391 10.7641C14.6845 10.7941 14.6209 10.8035 14.56 10.7906C14.499 10.7778 14.4447 10.7434 14.4069 10.6939C14.3691 10.6444 14.3503 10.5829 14.3539 10.5207C14.3576 10.4585 14.3834 10.3997 14.4268 10.3549L14.964 9.8182C14.9179 9.80095 14.8776 9.77097 14.8479 9.73175C14.8181 9.69253 14.8001 9.64567 14.7959 9.59661C14.7917 9.54756 14.8015 9.49832 14.8242 9.45461C14.8468 9.41091 14.8814 9.37452 14.9239 9.34968L16.1629 8.63441C16.2175 8.6044 16.2811 8.59498 16.342 8.60786C16.403 8.62074 16.4573 8.65506 16.4951 8.70459C16.5329 8.75413 16.5517 8.81558 16.5481 8.87778C16.5444 8.93999 16.5186 8.99882 16.4752 9.04358L16.1947 9.32418L17.2244 8.72968C17.2798 8.69837 17.3447 8.68846 17.407 8.70182C17.4692 8.71517 17.5244 8.75087 17.5621 8.80216C17.5998 8.85345 17.6174 8.91677 17.6116 8.98015C17.6057 9.04354 17.5769 9.10259 17.5305 9.14614L16.5778 10.0191L17.9787 9.21069C18.0357 9.17787 18.103 9.16784 18.1671 9.18262C18.2312 9.1974 18.2873 9.2359 18.3241 9.29037C18.361 9.34484 18.3759 9.41124 18.3658 9.47623C18.3557 9.54122 18.3213 9.59998 18.2697 9.64069L17.9318 9.90566L18.4003 9.63392C18.4563 9.60191 18.5221 9.5918 18.5851 9.60556C18.6481 9.61931 18.7037 9.65594 18.7413 9.70836C18.7788 9.76079 18.7955 9.82526 18.7882 9.88931C18.7809 9.95336 18.7501 10.0124 18.7018 10.0551L17.583 11.0343L18.9886 10.2227C19.0481 10.1916 19.1173 10.1846 19.1818 10.2033C19.2462 10.2221 19.301 10.2649 19.3346 10.3231C19.3682 10.3812 19.378 10.4501 19.3621 10.5153C19.3461 10.5805 19.3055 10.637 19.2489 10.673L15.5429 12.8147C15.5035 12.8379 15.4585 12.8501 15.4127 12.8501Z" fill="#5FC77D"/>
<path d="M16.3977 21.5244C16.3428 21.5251 16.2891 21.5084 16.2443 21.4767C16.1994 21.445 16.1658 21.3999 16.1481 21.3479C16.1304 21.2959 16.1297 21.2397 16.1459 21.1873C16.1621 21.1348 16.1945 21.0888 16.2384 21.0559L18.2713 19.4775L15.5018 21.0762C15.4435 21.1095 15.3747 21.119 15.3096 21.1028C15.2445 21.0865 15.1882 21.0458 15.1525 20.9891C15.1167 20.9323 15.1042 20.864 15.1176 20.7983C15.1309 20.7325 15.1692 20.6745 15.2243 20.6363L16.9693 19.4426L15.0312 20.5608C14.9728 20.5927 14.9045 20.601 14.8402 20.5841C14.7759 20.5671 14.7205 20.5262 14.6854 20.4697C14.6503 20.4133 14.6381 20.3455 14.6514 20.2803C14.6647 20.2152 14.7024 20.1576 14.7568 20.1194L16.1015 19.2234L14.7787 19.9871C14.7206 20.0205 14.6519 20.0301 14.5868 20.0141C14.5218 19.9981 14.4654 19.9576 14.4295 19.901C14.3935 19.8445 14.3808 19.7763 14.3939 19.7106C14.4069 19.6449 14.4448 19.5868 14.4997 19.5483L17.4961 17.4608L14.7454 19.0485C14.6867 19.0837 14.6165 19.0943 14.55 19.0781C14.4835 19.0619 14.4261 19.0201 14.3901 18.9619C14.3542 18.9036 14.3426 18.8336 14.358 18.7669C14.3733 18.7002 14.4143 18.6422 14.4721 18.6055L15.0447 18.2312C14.9941 18.2401 14.9419 18.234 14.8947 18.2135C14.8475 18.1931 14.8074 18.1592 14.7792 18.1162C14.743 18.0601 14.7297 17.9922 14.7421 17.9267C14.7545 17.8611 14.7917 17.8027 14.8458 17.7637L17.4378 15.8949L14.9166 17.3525C14.8595 17.3847 14.7923 17.3941 14.7285 17.3788C14.6647 17.3636 14.609 17.3248 14.5726 17.2703C14.5361 17.2157 14.5216 17.1495 14.5319 17.0847C14.5423 17.0199 14.5767 16.9614 14.6282 16.9209L17.6997 14.5669L12.8703 17.3494C12.8124 17.3816 12.7444 17.3905 12.6802 17.3744C12.616 17.3583 12.5603 17.3183 12.5245 17.2625C12.4888 17.2068 12.4756 17.1395 12.4877 17.0744C12.4998 17.0093 12.5363 16.9512 12.5897 16.9121L15.696 14.7074L11.119 17.3494C11.0607 17.3826 10.9917 17.392 10.9266 17.3756C10.8614 17.3592 10.8051 17.3182 10.7695 17.2613C10.7339 17.2043 10.7216 17.1358 10.7353 17.0701C10.7491 17.0043 10.7877 16.9464 10.8431 16.9084L13.3867 15.1983L9.65985 17.3494C9.60248 17.3822 9.53475 17.392 9.47041 17.3768C9.40607 17.3615 9.34995 17.3224 9.31344 17.2672C9.27693 17.2121 9.26277 17.1452 9.27383 17.08C9.2849 17.0148 9.32036 16.9562 9.37301 16.9162L11.446 15.3545L7.994 17.3494C7.93594 17.3818 7.86765 17.3908 7.80317 17.3745C7.73869 17.3582 7.68291 17.3178 7.64726 17.2616C7.61162 17.2055 7.59884 17.1378 7.61152 17.0725C7.62421 17.0072 7.66141 16.9492 7.71549 16.9105L8.52863 16.3462L6.7899 17.3494C6.73196 17.3808 6.66426 17.389 6.60046 17.3725C6.53667 17.3559 6.48154 17.3157 6.44619 17.2601C6.41085 17.2045 6.39792 17.1375 6.41002 17.0727C6.42212 17.0079 6.45835 16.9502 6.51139 16.911L7.37868 16.3072L5.57279 17.3483C5.51556 17.3807 5.4482 17.3902 5.38424 17.375C5.32027 17.3597 5.26445 17.3208 5.22799 17.2661C5.19153 17.2114 5.17714 17.1449 5.1877 17.08C5.19825 17.0151 5.23299 16.9566 5.28491 16.9162L7.48904 15.2327L3.82313 17.3494C3.76498 17.381 3.69698 17.3892 3.63296 17.3725C3.56893 17.3557 3.5137 17.3152 3.47849 17.2591C3.44328 17.2031 3.43073 17.1358 3.4434 17.0708C3.45607 17.0059 3.49301 16.9482 3.5467 16.9095L3.75806 16.7653L2.74605 17.3494C2.68912 17.382 2.62198 17.3919 2.55806 17.3771C2.49413 17.3624 2.43814 17.324 2.40129 17.2697C2.36445 17.2154 2.34946 17.1492 2.35933 17.0844C2.3692 17.0195 2.4032 16.9608 2.45453 16.9199L4.87626 15.0068L1.50395 16.9548C1.44751 16.9872 1.38097 16.9973 1.31743 16.9831C1.2539 16.9689 1.19799 16.9314 1.16074 16.8781C1.12349 16.8247 1.1076 16.7592 1.11621 16.6947C1.12481 16.6302 1.15728 16.5712 1.20722 16.5295L3.36658 14.7303L0.858957 16.1775C0.802407 16.2097 0.735854 16.2196 0.672413 16.2051C0.608971 16.1907 0.553241 16.153 0.516205 16.0995C0.479169 16.046 0.463512 15.9806 0.472319 15.9161C0.481127 15.8516 0.51376 15.7928 0.563789 15.7512L1.70906 14.8142L0.659575 15.4175C0.607387 15.4484 0.545954 15.4599 0.486133 15.4499C0.42631 15.4399 0.371949 15.409 0.332652 15.3628C0.292989 15.3171 0.27051 15.259 0.269085 15.1984C0.267659 15.1379 0.287377 15.0788 0.324843 15.0312L1.19421 13.9271L1.1281 13.9656C1.06861 13.9967 0.999399 14.0037 0.934923 13.985C0.870447 13.9662 0.815692 13.9234 0.782095 13.8652C0.748498 13.8071 0.738658 13.7383 0.75463 13.673C0.770602 13.6078 0.811151 13.5513 0.867806 13.5153L2.1047 12.8011C2.15708 12.7709 2.21834 12.7598 2.27796 12.7699C2.33759 12.7799 2.39186 12.8104 2.43146 12.8561C2.47105 12.9018 2.49351 12.9598 2.49496 13.0203C2.49642 13.0807 2.47678 13.1398 2.43943 13.1873L1.57007 14.292L4.20888 12.7683C4.26543 12.7361 4.33198 12.7263 4.39542 12.7407C4.45886 12.7552 4.51459 12.7928 4.55163 12.8463C4.58866 12.8998 4.60432 12.9653 4.59551 13.0297C4.58671 13.0942 4.55407 13.153 4.50404 13.1946L3.35877 14.1317L5.72376 12.7683C5.78013 12.736 5.84655 12.7259 5.90997 12.7401C5.97338 12.7543 6.0292 12.7916 6.06645 12.8449C6.1037 12.8981 6.1197 12.9634 6.11129 13.0278C6.10288 13.0922 6.07068 13.1512 6.02101 13.1931L3.86425 14.9911L7.71653 12.7672C7.77346 12.7346 7.8406 12.7247 7.90453 12.7395C7.96845 12.7543 8.02444 12.7926 8.06129 12.8469C8.09814 12.9012 8.11312 12.9674 8.10325 13.0322C8.09338 13.0971 8.05938 13.1558 8.00806 13.1967L5.58737 15.1109L9.64788 12.7683C9.70603 12.7367 9.77403 12.7284 9.83805 12.7452C9.90207 12.762 9.9573 12.8025 9.99251 12.8585C10.0277 12.9145 10.0403 12.9819 10.0276 13.0468C10.0149 13.1118 9.97799 13.1695 9.9243 13.2082L9.71295 13.3524L10.7223 12.7683C10.7796 12.7352 10.8473 12.7252 10.9117 12.7402C10.9761 12.7552 11.0323 12.7942 11.069 12.8492C11.1057 12.9042 11.1201 12.9711 11.1093 13.0363C11.0985 13.1015 11.0633 13.1602 11.0107 13.2004L8.8061 14.8839L12.472 12.7683C12.53 12.7369 12.5977 12.7286 12.6615 12.7452C12.7252 12.7618 12.7804 12.8019 12.8157 12.8575C12.8511 12.9132 12.864 12.9801 12.8519 13.0449C12.8398 13.1097 12.8036 13.1675 12.7505 13.2066L11.8853 13.8094L13.6886 12.7683C13.7467 12.7358 13.8149 12.7268 13.8794 12.7432C13.9439 12.7595 13.9997 12.7999 14.0353 12.856C14.071 12.9122 14.0838 12.9799 14.0711 13.0452C14.0584 13.1104 14.0212 13.1684 13.9671 13.2071L13.1534 13.7704L14.8922 12.7672C14.9496 12.7341 15.0175 12.7241 15.082 12.7393C15.1465 12.7545 15.2028 12.7937 15.2394 12.849C15.2759 12.9043 15.2899 12.9714 15.2786 13.0367C15.2673 13.102 15.2315 13.1605 15.1785 13.2004L13.1061 14.7621L19.7127 10.9463C19.7711 10.913 19.8401 10.9036 19.9052 10.92C19.9704 10.9364 20.0266 10.9774 20.0623 11.0343C20.0979 11.0913 20.1101 11.1598 20.0964 11.2256C20.0827 11.2913 20.0441 11.3492 19.9886 11.3872L17.442 13.0994L20.2474 11.4804C20.3053 11.4469 20.374 11.4371 20.439 11.453C20.504 11.4688 20.5604 11.5091 20.5965 11.5654C20.6326 11.6217 20.6457 11.6898 20.6329 11.7555C20.6201 11.8212 20.5825 11.8795 20.528 11.9182L17.4222 14.1218L20.8892 12.1202C20.9465 12.0871 21.0142 12.077 21.0786 12.0921C21.143 12.1071 21.1992 12.1461 21.2359 12.201C21.2726 12.256 21.287 12.3229 21.2762 12.3882C21.2654 12.4534 21.2301 12.5121 21.1776 12.5522L18.1062 14.9058L21.6368 12.8682C21.6945 12.8359 21.7624 12.8267 21.8267 12.8426C21.8909 12.8586 21.9467 12.8984 21.9826 12.9539C22.0186 13.0095 22.032 13.0767 22.0202 13.1418C22.0083 13.2069 21.9721 13.2651 21.9189 13.3045L19.3259 15.1739L22.2448 13.4888C22.3035 13.4536 22.3737 13.443 22.4402 13.4592C22.5067 13.4754 22.5641 13.5172 22.6001 13.5754C22.636 13.6337 22.6476 13.7037 22.6322 13.7704C22.6169 13.8371 22.5759 13.8951 22.5181 13.9318L22.1751 14.1577L22.5442 13.9443C22.6023 13.9109 22.671 13.9013 22.736 13.9173C22.8011 13.9333 22.8574 13.9738 22.8934 14.0304C22.9293 14.0869 22.9421 14.1551 22.929 14.2208C22.9159 14.2865 22.878 14.3446 22.8232 14.3831L19.8215 16.4748L22.7404 14.7897C22.7989 14.7564 22.868 14.7471 22.9333 14.7637C22.9985 14.7803 23.0548 14.8215 23.0903 14.8787C23.1258 14.9358 23.1377 15.0046 23.1236 15.0704C23.1096 15.1362 23.0705 15.194 23.0148 15.2317L21.668 16.1312L22.5947 15.5966C22.653 15.5627 22.7222 15.5528 22.7876 15.569C22.8531 15.5851 22.9098 15.6261 22.9456 15.6831C22.9815 15.7402 22.9939 15.809 22.9801 15.875C22.9663 15.941 22.9274 15.9991 22.8716 16.037L21.1318 17.227L21.3078 17.126C21.3648 17.0937 21.432 17.084 21.4958 17.099C21.5597 17.114 21.6155 17.1526 21.6522 17.207C21.6888 17.2614 21.7036 17.3276 21.6935 17.3924C21.6834 17.4573 21.6492 17.5159 21.5977 17.5566L19.1307 19.4718C19.1807 19.4847 19.2258 19.5122 19.2601 19.5508C19.2944 19.5895 19.3165 19.6374 19.3235 19.6886C19.3305 19.7398 19.322 19.7919 19.2993 19.8383C19.2766 19.8847 19.2405 19.9233 19.1958 19.9491L16.5278 21.4895C16.4883 21.5124 16.4434 21.5244 16.3977 21.5244Z" fill="#5FC77D"/>
<path d="M30.9499 3.56449C30.6725 0.0443388 27.6047 0.170319 24.9326 0.188539H12.0962C8.7124 0.552944 2.226 -1.39714 0.510691 2.35466C-0.0202986 4.12671 -0.899034 9.71928 2.49618 8.58546C3.47799 8.23563 3.35929 7.60053 3.35929 6.63382C3.35929 4.98098 3.06048 3.6332 4.88146 3.37968C6.36511 3.17145 8.04294 3.37968 9.53908 3.37968H22.5717C24.6093 3.37968 27.5761 2.54259 27.841 5.09759C28.2315 8.86397 27.841 12.8771 27.841 16.6622C27.6911 19.9976 28.1013 23.462 27.841 26.7667C27.3048 28.6928 22.2896 27.7802 20.7357 27.7802C15.3014 27.6761 9.77334 27.9406 4.3739 27.7802C1.70334 26.9603 5.54989 21.6239 1.08072 22.5744C-0.0255045 22.9576 0.247799 23.9748 0.247799 24.9967C0.247799 28.0301 0.383149 30.8792 4.13548 30.9708C11.5428 31.0547 18.9563 30.9266 26.3642 30.9708C28.7734 30.9708 30.737 30.1244 30.9452 27.4158C31.5424 19.5436 30.85 11.4575 30.9499 3.56449ZM27.4308 30.3821C20.6534 30.685 13.7776 30.2098 6.982 30.3821C3.32337 30.6762 0.503403 30.2816 0.756404 25.9441C0.756404 25.5115 0.479977 23.7577 0.756404 23.4282C1.32227 22.7514 2.56697 23.1705 2.85329 23.7473C3.40458 24.8577 2.30096 26.6714 3.05007 27.7912C3.91996 29.0926 7.88624 28.3674 9.09346 28.3674H21.4827C27.1128 28.7147 29.207 29.6756 28.3476 22.8087V10.9687C28.3476 8.87907 28.8463 6.09346 28.3476 4.04863C27.8686 2.08813 24.9117 2.79143 23.3677 2.79143H11.6063C9.09971 3.04703 2.25046 0.982421 2.85329 5.26313C2.85329 5.69001 3.14169 7.38085 2.85329 7.72755C-0.423747 10.0311 -0.203542 1.00324 3.76951 0.777313C9.42871 0.691417 15.1327 0.829371 20.808 0.777313C23.6816 0.777313 30.015 -0.406482 30.4439 3.70869V22.7254C30.4439 25.3736 31.3404 29.8781 27.4308 30.3821Z" fill="#262626"/>
<path d="M14.368 12.7376H2.61436C1.98898 12.7409 1.38889 12.9849 0.938556 13.4188C0.488227 13.8528 0.222233 14.4434 0.195755 15.0682C0.206157 15.6867 0.459839 16.2762 0.901835 16.7089C1.34383 17.1417 1.93854 17.3828 2.5571 17.3801C6.82792 17.3843 11.0996 17.3824 15.3722 17.3744C12.4569 19.1871 15.7527 23.1575 18.315 20.8571C19.3296 19.8492 20.3452 18.8268 21.3593 17.8148C23.7811 15.8465 23.7576 14.1958 21.3406 12.2347C19.5961 10.7678 17.5924 7.11746 15.0307 9.20289C14.7764 9.42871 14.5761 9.70865 14.4444 10.0221C14.3126 10.3356 14.2528 10.6746 14.2694 11.0142C14.286 11.3539 14.3785 11.6855 14.5402 11.9846C14.7018 12.2838 14.9285 12.5429 15.2035 12.7428C14.9234 12.7433 14.6454 12.7376 14.368 12.7376ZM15.253 9.72295C16.9828 7.7838 18.7101 10.572 19.9611 11.6808C24.8181 15.2629 21.0194 17.6363 17.9079 20.5406C16.1176 22.1747 13.786 19.5457 15.4206 17.8601C15.6205 17.6055 16.5138 17.0407 15.8048 16.9022H2.61436C0.340996 16.7799 0.232196 13.341 2.5571 13.2155H15.7485C15.9615 13.2155 16.2009 12.988 16.012 12.799C15.0921 12.0583 14.4091 10.7933 15.254 9.72295H15.253Z" fill="#262626"/>
</svg>
