<svg width="100" height="101" viewBox="0 0 100 101" fill="none" xmlns="http://www.w3.org/2000/svg">
<path d="M50.5238 100.046C50.3395 100.046 50.1603 99.9857 50.0131 99.8748C49.8659 99.7639 49.7588 99.6081 49.708 99.431C49.6572 99.2538 49.6655 99.065 49.7315 98.8929C49.7975 98.7209 49.9177 98.575 50.074 98.4773L53.2192 96.5085L47.4398 99.8454C47.2482 99.9568 47.0207 99.9888 46.8058 99.9347C46.591 99.8806 46.4058 99.7446 46.2899 99.5557C46.174 99.3669 46.1365 99.1402 46.1855 98.9241C46.2345 98.708 46.366 98.5197 46.5521 98.3993L69.9751 83.0894L42.0287 99.2259C41.8369 99.3331 41.611 99.3617 41.3985 99.3058C41.186 99.2498 41.0035 99.1136 40.8894 98.9258C40.7753 98.7381 40.7384 98.5133 40.7866 98.299C40.8348 98.0846 40.9643 97.8972 41.1478 97.7764L65.6452 82.105L37.6479 98.2669C37.4554 98.3713 37.2299 98.3972 37.0187 98.3392C36.8075 98.2812 36.6268 98.1438 36.5146 97.9557C36.4024 97.7676 36.3672 97.5434 36.4164 97.33C36.4657 97.1166 36.5956 96.9305 36.7789 96.8106L46.8168 90.6272L34.9712 97.4658C34.7795 97.5682 34.5557 97.5932 34.3461 97.5355C34.1365 97.4779 33.957 97.3419 33.8446 97.1558C33.7323 96.9696 33.6957 96.7475 33.7423 96.5351C33.789 96.3228 33.9154 96.1364 34.0954 96.0145L61.1694 78.9548L31.4103 96.135C31.2183 96.2406 30.993 96.2679 30.7814 96.2111C30.5699 96.1543 30.3884 96.018 30.2751 95.8305C30.1618 95.6431 30.1253 95.4191 30.1733 95.2054C30.2213 94.9917 30.3501 94.8048 30.5327 94.6838L62.3966 74.5638L27.8951 94.4836C27.7018 94.5937 27.4729 94.6236 27.2577 94.5666C27.0426 94.5097 26.8585 94.3705 26.745 94.1791C26.6315 93.9877 26.5977 93.7593 26.6509 93.5433C26.7041 93.3272 26.84 93.1407 27.0295 93.0239L40.8304 84.5882L25.7395 93.3005C25.5471 93.4065 25.3211 93.4337 25.109 93.3765C24.8969 93.3193 24.7153 93.182 24.6023 92.9937C24.4893 92.8053 24.4538 92.5804 24.5031 92.3664C24.5525 92.1523 24.683 91.9658 24.8671 91.8459L53.7487 73.9086L23.0509 91.6321C22.858 91.7387 22.6312 91.7661 22.4184 91.7085C22.2056 91.6508 22.0236 91.5127 21.9109 91.3232C21.7983 91.1338 21.7637 90.9079 21.8146 90.6934C21.8655 90.4789 21.9978 90.2927 22.1836 90.174L41.1393 78.5796L21.0192 90.1961C20.8266 90.3072 20.5979 90.3382 20.3826 90.2825C20.1673 90.2268 19.9825 90.0887 19.8679 89.898C19.7533 89.7074 19.7182 89.4794 19.77 89.2631C19.8219 89.0468 19.9566 88.8595 20.1451 88.7415L54.835 67.1346L18.4614 88.1339C18.2685 88.2405 18.0416 88.2679 17.8288 88.2103C17.6161 88.1527 17.4341 88.0145 17.3214 87.825C17.2087 87.6356 17.1741 87.4097 17.225 87.1953C17.2759 86.9808 17.4083 86.7945 17.594 86.6759L40.8474 72.4421L16.5892 86.4484C16.3967 86.5528 16.1712 86.5788 15.96 86.5208C15.7488 86.4628 15.5682 86.3254 15.4559 86.1373C15.3437 85.9492 15.3085 85.725 15.3578 85.5116C15.407 85.2981 15.5369 85.112 15.7202 84.9921L47.4737 65.3931L14.5457 84.4032C14.353 84.5061 14.128 84.5308 13.9176 84.4721C13.7071 84.4134 13.5274 84.2758 13.4159 84.0879C13.3044 83.9001 13.2696 83.6764 13.3188 83.4636C13.368 83.2507 13.4974 83.065 13.68 82.9452L34.4383 70.2984L13.0045 82.6719C12.8105 82.7862 12.579 82.8188 12.3609 82.7625C12.1429 82.7061 11.9562 82.5655 11.8418 82.3715C11.7275 82.1774 11.6949 81.9459 11.7512 81.7279C11.8076 81.5099 11.9482 81.3231 12.1422 81.2088L12.7448 80.8473L11.8961 81.3344C11.8001 81.3909 11.6938 81.4279 11.5834 81.4434C11.4731 81.4588 11.3607 81.4524 11.2528 81.4244C11.1449 81.3964 11.0436 81.3475 10.9547 81.2803C10.8657 81.2132 10.7908 81.1292 10.7343 81.0331C10.6778 80.9371 10.6408 80.8308 10.6253 80.7204C10.6099 80.61 10.6164 80.4977 10.6443 80.3898C10.6723 80.2819 10.7213 80.1806 10.7884 80.0916C10.8555 80.0027 10.9395 79.9278 11.0356 79.8713L14.527 77.77L10.8115 79.912C10.6178 80.0266 10.3864 80.0595 10.1683 80.0035C9.9503 79.9474 9.76344 79.8071 9.64888 79.6133C9.53431 79.4195 9.50142 79.1881 9.55745 78.9701C9.61347 78.7521 9.75381 78.5652 9.94761 78.4506L25.9432 68.7538L9.58947 78.1994C9.39613 78.3147 9.16493 78.3484 8.94672 78.2932C8.72852 78.2379 8.5412 78.0983 8.42596 77.905C8.31072 77.7116 8.277 77.4804 8.33223 77.2622C8.38745 77.044 8.5271 76.8567 8.72044 76.7414L41.3617 56.6468L8.1111 75.8385C7.91889 75.9411 7.69456 75.9659 7.48457 75.9077C7.27458 75.8495 7.09503 75.7127 6.98311 75.5258C6.87119 75.3388 6.83548 75.1159 6.88337 74.9034C6.93126 74.6908 7.05909 74.5048 7.24038 74.3839L43.6395 51.8587L6.65989 73.2093C6.46734 73.3137 6.24188 73.3396 6.03066 73.2816C5.81945 73.2237 5.63883 73.0863 5.52659 72.8982C5.41435 72.7101 5.37917 72.4859 5.42843 72.2724C5.47768 72.059 5.60755 71.8729 5.79086 71.753L38.2301 51.7772L5.45819 70.699C5.26485 70.8142 5.03364 70.8479 4.81544 70.7927C4.59724 70.7375 4.40991 70.5978 4.29467 70.4045C4.17943 70.2111 4.14572 69.9799 4.20094 69.7617C4.25617 69.5435 4.39582 69.3562 4.58916 69.241L34.4994 50.8691L4.4364 68.226C4.24306 68.3412 4.01185 68.3749 3.79365 68.3197C3.57545 68.2645 3.38813 68.1248 3.27288 67.9315C3.15764 67.7381 3.12393 67.5069 3.17916 67.2887C3.23438 67.0705 3.37403 66.8832 3.56737 66.768L34.6284 47.6493L3.51985 65.607C3.32716 65.71 3.10219 65.7347 2.89175 65.676C2.68131 65.6173 2.50162 65.4797 2.39008 65.2918C2.27854 65.1039 2.24376 64.8803 2.29295 64.6674C2.34215 64.4546 2.47155 64.2689 2.65421 64.149L22.0393 52.3441L2.88335 63.4039C2.69031 63.5089 2.46407 63.5349 2.25224 63.4764C2.04041 63.418 1.8595 63.2797 1.74757 63.0906C1.63565 62.9015 1.60144 62.6763 1.65214 62.4625C1.70284 62.2487 1.8345 62.0629 2.01941 61.9442L9.03105 57.7009L2.43016 61.5199C2.23737 61.6285 2.00978 61.6575 1.7959 61.6007C1.58202 61.5439 1.39877 61.4059 1.28522 61.216C1.17166 61.026 1.13678 60.7993 1.188 60.584C1.23923 60.3687 1.37251 60.182 1.55944 60.0635L34.793 39.4513L1.84289 58.4749C1.64977 58.5905 1.41861 58.6248 1.20025 58.57C0.981886 58.5153 0.794218 58.376 0.678528 58.1829C0.562837 57.9898 0.528601 57.7586 0.58335 57.5403C0.638099 57.3219 0.777349 57.1342 0.970467 57.0186L31.8516 37.8778L1.46439 55.4231C1.27218 55.5257 1.04784 55.5505 0.837854 55.4923C0.627865 55.4341 0.448313 55.2973 0.336393 55.1104C0.224473 54.9234 0.18876 54.7006 0.236654 54.488C0.284547 54.2754 0.412376 54.0894 0.593661 53.9685L36.5158 31.3941L1.27259 51.7501C1.0799 51.8612 0.851299 51.8922 0.635972 51.8364C0.420646 51.7807 0.23581 51.6426 0.121243 51.452C0.00667491 51.2613 -0.0284665 51.0333 0.0233808 50.817C0.0752281 50.6007 0.20992 50.4134 0.398469 50.2955L30.991 31.1649L1.30314 48.3045C1.1098 48.4147 0.880914 48.4445 0.66579 48.3876C0.450667 48.3306 0.266519 48.1914 0.15301 48C0.0395012 47.8086 0.00571445 47.5803 0.0589275 47.3642C0.112141 47.1481 0.248095 46.9616 0.437508 46.8448L10.5111 40.7039L1.48306 45.9079C1.2909 46.0177 1.06343 46.0481 0.849175 45.9926C0.634916 45.9371 0.450816 45.8001 0.33613 45.6108C0.221444 45.4215 0.185248 45.1949 0.23526 44.9793C0.285272 44.7637 0.417535 44.5761 0.603845 44.4567L31.9211 24.5793L2.05506 41.8156C1.86237 41.9267 1.63376 41.9578 1.41844 41.902C1.20311 41.8463 1.01828 41.7082 0.903708 41.5176C0.789141 41.3269 0.753999 41.0989 0.805847 40.8826C0.857694 40.6663 0.992385 40.479 1.18094 40.361L21.3366 27.7686L2.80018 38.4702C2.60871 38.5755 2.38399 38.6029 2.17282 38.5467C1.96166 38.4904 1.78033 38.3549 1.66658 38.1683C1.55284 37.9817 1.51545 37.7585 1.5622 37.545C1.60896 37.3315 1.73625 37.1443 1.91757 37.0224L28.3075 20.0492L4.19199 33.974C4.09659 34.0317 3.99075 34.0701 3.88052 34.0869C3.77029 34.1038 3.65783 34.0987 3.54955 34.0721C3.33087 34.0183 3.14252 33.8798 3.02592 33.6872C2.90933 33.4945 2.87405 33.2634 2.92785 33.0447C2.98164 32.826 3.1201 32.6377 3.31277 32.5211L19.7327 22.1029L5.7654 30.1669C5.57386 30.2783 5.34634 30.3104 5.13148 30.2562C4.91661 30.2021 4.73143 30.0661 4.61551 29.8772C4.49959 29.6884 4.46213 29.4617 4.51112 29.2456C4.56011 29.0295 4.69168 28.8412 4.8777 28.7208L22.7607 17.0398L8.28932 25.394C8.09885 25.5069 7.87183 25.5408 7.65667 25.4886C7.44152 25.4365 7.25528 25.3023 7.13769 25.1147C7.02009 24.9271 6.98045 24.701 7.02722 24.4846C7.074 24.2682 7.20348 24.0787 7.38804 23.9564L21.9273 14.1119L12.351 19.6435C12.1636 19.7501 11.9426 19.7813 11.7329 19.7308C11.5233 19.6804 11.3407 19.552 11.2223 19.3718C11.1039 19.1916 11.0585 18.973 11.0954 18.7606C11.1323 18.5481 11.2487 18.3577 11.4209 18.2279L19.9805 11.8766C19.8016 11.8588 19.6329 11.7848 19.4988 11.665C19.3647 11.5453 19.2721 11.386 19.2344 11.2103C19.1966 11.0345 19.2156 10.8513 19.2887 10.687C19.3618 10.5228 19.4852 10.386 19.641 10.2964L30.8298 3.83634C31.0176 3.72605 31.2405 3.69217 31.4526 3.74171C31.6647 3.79124 31.8496 3.92041 31.9691 4.10248C32.0886 4.28455 32.1335 4.50558 32.0946 4.71985C32.0556 4.93411 31.9358 5.12521 31.7599 5.25361L24.3002 10.7852L41.6332 0.777766C41.8235 0.669312 42.0484 0.638636 42.2608 0.692155C42.4732 0.745673 42.6567 0.879241 42.7729 1.06492C42.889 1.2506 42.9289 1.47402 42.8842 1.68844C42.8395 1.90286 42.7136 2.09167 42.5328 2.2154L27.9952 12.0599L48.6075 0.156546C48.7987 0.0478465 49.0247 0.0176224 49.2377 0.0722432C49.4508 0.126864 49.6343 0.262063 49.7496 0.449347C49.8649 0.636631 49.903 0.86137 49.8559 1.0762C49.8088 1.29103 49.6801 1.47917 49.4969 1.60097L31.6088 13.287L54.044 0.334764C54.236 0.229214 54.4613 0.201966 54.6729 0.258719C54.8844 0.315472 55.0659 0.45183 55.1792 0.639273C55.2925 0.826715 55.329 1.05072 55.281 1.26444C55.233 1.47816 55.1042 1.66503 54.9216 1.78598L38.5118 12.199L58.1159 0.879605C58.3081 0.762339 58.5391 0.726234 58.7579 0.779232C58.9767 0.832231 59.1656 0.969992 59.2828 1.16221C59.4001 1.35443 59.4362 1.58536 59.3832 1.80419C59.3302 2.02303 59.1925 2.21185 59.0002 2.32912L32.6069 19.3023L62.7157 1.91497C62.9084 1.80387 63.137 1.77285 63.3523 1.82859C63.5676 1.88433 63.7525 2.02239 63.867 2.21304C63.9816 2.40368 64.0167 2.63169 63.9649 2.84799C63.913 3.06429 63.7783 3.25159 63.5898 3.36958L43.446 15.9586L65.9762 2.95034C66.1682 2.84479 66.3935 2.81754 66.605 2.87429C66.8166 2.93105 66.998 3.0674 67.1114 3.25485C67.2247 3.44229 67.2612 3.6663 67.2132 3.88001C67.1652 4.09373 67.0364 4.28061 66.8537 4.40155L35.5331 24.2891L69.819 4.4983C70.0123 4.38812 70.2412 4.35829 70.4563 4.41524C70.6714 4.47219 70.8556 4.61135 70.9691 4.80276C71.0826 4.99417 71.1164 5.2225 71.0632 5.43858C71.01 5.65466 70.874 5.84119 70.6846 5.95799L60.6195 12.1023L71.9814 5.54215C72.174 5.43104 72.4026 5.40002 72.618 5.45577C72.8333 5.51151 73.0181 5.64956 73.1327 5.84021C73.2473 6.03086 73.2824 6.25887 73.2306 6.47517C73.1787 6.69147 73.044 6.87876 72.8555 6.99676L42.246 26.129L75.0043 7.21741C75.1972 7.10127 75.4283 7.06651 75.6468 7.12078C75.8653 7.17505 76.0534 7.31391 76.1695 7.5068C76.2856 7.69969 76.3204 7.93082 76.2661 8.14934C76.2119 8.36786 76.073 8.55587 75.8801 8.67201L39.9614 31.2379L78.0561 9.24231C78.1517 9.18503 78.2577 9.14714 78.3679 9.13081C78.4782 9.11448 78.5906 9.12003 78.6987 9.14713C78.8068 9.17424 78.9086 9.22238 78.9981 9.28881C79.0876 9.35523 79.1631 9.43863 79.2204 9.53425C79.2777 9.62988 79.3156 9.73584 79.3319 9.84611C79.3483 9.95637 79.3427 10.0688 79.3156 10.1769C79.2885 10.285 79.2404 10.3867 79.1739 10.4763C79.1075 10.5658 79.0241 10.6413 78.9285 10.6986L48.0406 29.841L80.5053 11.0992C80.6984 10.9835 80.9296 10.9493 81.148 11.004C81.3663 11.0588 81.554 11.198 81.6697 11.3911C81.7854 11.5842 81.8196 11.8154 81.7648 12.0338C81.7101 12.2521 81.5708 12.4398 81.3777 12.5555L48.1408 33.1695L82.8544 13.1275C82.9504 13.0708 83.0565 13.0335 83.1669 13.0178C83.2773 13.0021 83.3896 13.0083 83.4976 13.0361C83.6056 13.0638 83.707 13.1125 83.7961 13.1795C83.8853 13.2464 83.9603 13.3303 84.0171 13.4262C84.0738 13.5222 84.1111 13.6284 84.1268 13.7387C84.1424 13.8491 84.1362 13.9615 84.1085 14.0694C84.0808 14.1774 84.032 14.2788 83.9651 14.368C83.8981 14.4571 83.8143 14.5322 83.7183 14.5889L76.6863 18.8322L84.2564 14.4633C84.4497 14.3531 84.6786 14.3233 84.8937 14.3802C85.1089 14.4372 85.293 14.5763 85.4065 14.7677C85.52 14.9592 85.5538 15.1875 85.5006 15.4036C85.4474 15.6196 85.3114 15.8062 85.122 15.923L65.7471 27.7194L85.8417 16.1182C86.035 16.0029 86.2662 15.9692 86.4844 16.0244C86.7026 16.0797 86.89 16.2193 87.0052 16.4127C87.1204 16.606 87.1542 16.8372 87.0989 17.0554C87.0437 17.2736 86.9041 17.4609 86.7107 17.5762L55.6497 36.6931L87.6561 18.2195C87.8495 18.1042 88.0807 18.0705 88.2989 18.1257C88.5171 18.181 88.7044 18.3206 88.8196 18.5139C88.9349 18.7073 88.9686 18.9385 88.9134 19.1567C88.8581 19.3749 88.7185 19.5622 88.5252 19.6775L58.6302 38.0408L89.2873 20.336C89.4806 20.2208 89.7118 20.1871 89.93 20.2423C90.1482 20.2975 90.3355 20.4372 90.4508 20.6305C90.566 20.8238 90.5997 21.055 90.5445 21.2732C90.4893 21.4914 90.3496 21.6788 90.1563 21.794L57.7204 41.7698L90.8624 22.6342C91.0557 22.5187 91.287 22.4848 91.5054 22.5399C91.7237 22.5949 91.9113 22.7345 92.0267 22.9278C92.1422 23.1212 92.1761 23.3525 92.1211 23.5708C92.066 23.7892 91.9264 23.9767 91.7331 24.0922L55.3357 46.6157L92.4188 25.2073C92.5145 25.1503 92.6206 25.1126 92.7309 25.0965C92.8411 25.0805 92.9535 25.0863 93.0616 25.1136C93.1696 25.1409 93.2712 25.1893 93.3606 25.2559C93.4499 25.3225 93.5253 25.4061 93.5823 25.5018C93.6394 25.5975 93.677 25.7036 93.6931 25.8139C93.7092 25.9242 93.7034 26.0365 93.6761 26.1446C93.6487 26.2526 93.6004 26.3542 93.5337 26.4436C93.4671 26.5329 93.3836 26.6083 93.2878 26.6653L60.6212 46.7803L93.719 27.6684C93.9124 27.5607 94.1403 27.5328 94.354 27.5907C94.5677 27.6487 94.7504 27.7879 94.8629 27.9786C94.9754 28.1693 95.0089 28.3964 94.9563 28.6115C94.9037 28.8266 94.7691 29.0126 94.5812 29.1298L78.64 38.7944L94.5948 29.5796C94.7882 29.4719 95.0161 29.444 95.2299 29.5019C95.4436 29.5599 95.6262 29.6991 95.7387 29.8898C95.8512 30.0805 95.8848 30.3076 95.8321 30.5227C95.7795 30.7378 95.6449 30.9238 95.457 31.041L91.9283 33.1661L95.2788 31.2294C95.4728 31.1151 95.7043 31.0825 95.9224 31.1388C96.1404 31.1952 96.3271 31.3358 96.4415 31.5299C96.5558 31.7239 96.5884 31.9554 96.5321 32.1734C96.4757 32.3914 96.3351 32.5782 96.141 32.6925L95.5368 33.0659L95.9034 32.8538C96.0965 32.7488 96.3227 32.7228 96.5345 32.7812C96.7464 32.8396 96.9273 32.978 97.0392 33.1671C97.1511 33.3562 97.1853 33.5813 97.1346 33.7951C97.0839 34.0089 96.9523 34.1947 96.7674 34.3135L76.0261 46.9517L96.6265 35.0569C96.8193 34.9483 97.0469 34.9193 97.2607 34.976C97.4746 35.0328 97.6579 35.1709 97.7714 35.3608C97.885 35.5507 97.9199 35.7775 97.8686 35.9927C97.8174 36.208 97.6841 36.3948 97.4972 36.5132L65.7352 56.1139L97.3767 37.8473C97.5696 37.7406 97.7965 37.7132 98.0092 37.7709C98.222 37.8285 98.404 37.9667 98.5167 38.1561C98.6294 38.3456 98.6639 38.5714 98.6131 38.7859C98.5622 39.0004 98.4298 39.1867 98.244 39.3053L74.9907 53.5407L97.9046 40.3118C98.097 40.2058 98.323 40.1786 98.5351 40.2358C98.7472 40.293 98.9288 40.4303 99.0418 40.6187C99.1548 40.8071 99.1903 41.0319 99.1409 41.246C99.0915 41.46 98.9611 41.6466 98.777 41.7664L64.0735 63.3818L98.3934 43.569C98.5861 43.466 98.8111 43.4413 99.0215 43.5C99.2319 43.5587 99.4116 43.6963 99.5232 43.8842C99.6347 44.072 99.6695 44.2957 99.6203 44.5085C99.5711 44.7214 99.4417 44.9071 99.259 45.027L80.3169 56.6129L98.6157 46.0471C98.8089 45.9314 99.04 45.8971 99.2584 45.9519C99.4767 46.0066 99.6644 46.1459 99.7801 46.339C99.8958 46.5321 99.93 46.7633 99.8753 46.9816C99.8205 47.2 99.6813 47.3877 99.4882 47.5034L70.615 65.4322L98.7312 49.199C98.9245 49.0888 99.1534 49.059 99.3685 49.1159C99.5836 49.1729 99.7678 49.312 99.8813 49.5034C99.9948 49.6949 100.029 49.9232 99.9754 50.1393C99.9222 50.3553 99.7862 50.5419 99.5968 50.6587L85.7874 59.1012L98.6751 51.6601C98.8674 51.5524 99.0941 51.5237 99.3072 51.5801C99.5202 51.6365 99.703 51.7736 99.8168 51.9623C99.9306 52.1511 99.9665 52.3767 99.9169 52.5915C99.8672 52.8063 99.736 52.9933 99.551 53.113L67.6854 73.2331L98.3323 55.5385C98.5259 55.4223 98.7576 55.3879 98.9766 55.4426C99.1956 55.4974 99.3839 55.6369 99.5 55.8304C99.6162 56.024 99.6507 56.2558 99.5959 56.4748C99.5412 56.6938 99.4017 56.882 99.2081 56.9982L72.1545 74.041L97.706 59.2862C97.8993 59.1709 98.1305 59.1372 98.3487 59.1924C98.5669 59.2477 98.7542 59.3873 98.8695 59.5807C98.9847 59.774 99.0184 60.0052 98.9632 60.2234C98.908 60.4416 98.7683 60.6289 98.575 60.7442L88.5235 66.9343L97.0712 62.0002C97.2627 61.8949 97.4874 61.8675 97.6985 61.9237C97.9097 61.98 98.091 62.1155 98.2048 62.3021C98.3185 62.4887 98.3559 62.7119 98.3092 62.9254C98.2624 63.1389 98.1351 63.3261 97.9538 63.448L73.436 79.1347L95.7252 66.2673C95.9164 66.1586 96.1423 66.1283 96.3554 66.183C96.5684 66.2376 96.752 66.3728 96.8673 66.5601C96.9826 66.7474 97.0207 66.9721 96.9736 67.1869C96.9264 67.4017 96.7977 67.5899 96.6146 67.7117L73.1915 83.0181L93.5594 71.2608C93.7517 71.153 93.9784 71.1243 94.1914 71.1807C94.4045 71.2372 94.5873 71.3743 94.7011 71.563C94.8149 71.7518 94.8507 71.9774 94.8011 72.1922C94.7515 72.4069 94.6203 72.594 94.4352 72.7137L91.2918 74.6809L91.8808 74.3414C92.0712 74.2286 92.2983 74.1946 92.5134 74.2468C92.7286 74.299 92.9148 74.4332 93.0324 74.6208C93.15 74.8083 93.1896 75.0345 93.1429 75.2508C93.0961 75.4672 92.9666 75.6568 92.782 75.7791L77.3619 86.2481L87.7783 80.2362C87.9695 80.1275 88.1955 80.0973 88.4085 80.1519C88.6216 80.2066 88.8051 80.3418 88.9204 80.529C89.0357 80.7163 89.0738 80.941 89.0267 81.1559C88.9796 81.3707 88.8509 81.5588 88.6677 81.6806L84.6722 84.3013C84.8318 84.3479 84.9743 84.4403 85.0818 84.5671C85.1893 84.6939 85.2573 84.8494 85.2772 85.0145C85.297 85.1796 85.268 85.3468 85.1937 85.4955C85.1193 85.6442 85.0029 85.7678 84.8589 85.851L63.5372 98.16C63.346 98.2687 63.12 98.2989 62.907 98.2443C62.6939 98.1896 62.5104 98.0544 62.3951 97.8672C62.2798 97.6799 62.2417 97.4551 62.2888 97.2403C62.3359 97.0255 62.4646 96.8373 62.6478 96.7155L62.8039 96.612L58.0667 99.3481C57.8761 99.4678 57.6457 99.5069 57.4262 99.4568C57.2067 99.4067 57.0161 99.2714 56.8964 99.0808C56.7767 98.8901 56.7376 98.6597 56.7877 98.4402C56.8378 98.2208 56.9731 98.0302 57.1637 97.9104L72.5839 87.4397L50.9481 99.9405C50.8183 100.012 50.672 100.048 50.5238 100.046Z" fill="#C67D01"/>
<path d="M50.0754 93.268C49.8928 93.2684 49.715 93.21 49.5683 93.1013C49.4216 92.9926 49.3139 92.8395 49.2611 92.6648C49.2083 92.49 49.2133 92.3029 49.2752 92.1312C49.3372 91.9594 49.453 91.8123 49.6052 91.7116L65.9403 80.8674L45.2329 92.8267C45.0412 92.9292 44.8174 92.9542 44.6078 92.8965C44.3981 92.8388 44.2186 92.7029 44.1063 92.5167C43.994 92.3306 43.9573 92.1084 44.004 91.8961C44.0507 91.6837 44.1771 91.4974 44.3571 91.3755L52.3464 86.3446L42.0046 92.3124C41.8128 92.4196 41.5869 92.4483 41.3744 92.3923C41.1619 92.3363 40.9794 92.2001 40.8653 92.0124C40.7512 91.8246 40.7143 91.5999 40.7625 91.3855C40.8107 91.1711 40.9402 90.9838 41.1237 90.8629L57.0276 80.757L38.5166 91.4502C38.3247 91.5557 38.0994 91.583 37.8878 91.5262C37.6762 91.4695 37.4948 91.3331 37.3815 91.1457C37.2681 90.9582 37.2316 90.7342 37.2797 90.5205C37.3277 90.3068 37.4565 90.1199 37.6391 89.999L56.9444 77.7375L35.1712 90.3113C34.979 90.4211 34.7516 90.4515 34.5373 90.396C34.323 90.3405 34.1389 90.2035 34.0243 90.0142C33.9096 89.8249 33.8734 89.5983 33.9234 89.3827C33.9734 89.1671 34.1057 88.9795 34.292 88.8601L58.2751 73.613L31.8512 88.8669C31.659 88.9695 31.4347 88.9943 31.2247 88.9361C31.0147 88.8779 30.8351 88.7411 30.7232 88.5542C30.6113 88.3672 30.5756 88.1443 30.6235 87.9318C30.6714 87.7192 30.7992 87.5332 30.9805 87.4122L45.4637 78.4385L29.5327 87.6346C29.3407 87.7402 29.1154 87.7674 28.9039 87.7106C28.6923 87.6539 28.5109 87.5175 28.3975 87.3301C28.2842 87.1426 28.2477 86.9186 28.2957 86.7049C28.3437 86.4912 28.4725 86.3043 28.6552 86.1834L56.0075 68.8945L26.6438 85.8524C26.4509 85.9685 26.2198 86.0033 26.0013 85.949C25.7828 85.8948 25.5948 85.7559 25.4786 85.563C25.3625 85.3701 25.3277 85.139 25.382 84.9205C25.4363 84.702 25.5751 84.5139 25.768 84.3978L50.868 68.6925L24.2336 84.0685C24.041 84.1796 23.8123 84.2106 23.597 84.1549C23.3817 84.0992 23.1969 83.9611 23.0823 83.7705C22.9677 83.5798 22.9326 83.3518 22.9844 83.1355C23.0363 82.9192 23.171 82.7319 23.3595 82.6139L49.4083 66.3451L21.9796 82.1811C21.7863 82.2913 21.5574 82.3211 21.3422 82.2642C21.1271 82.2072 20.943 82.068 20.8295 81.8766C20.716 81.6852 20.6822 81.4569 20.7354 81.2408C20.7886 81.0247 20.9246 80.8382 21.114 80.7214L26.4554 77.4744L20.5912 80.8589C20.3986 80.9633 20.1732 80.9892 19.962 80.9312C19.7507 80.8732 19.5701 80.7358 19.4579 80.5477C19.3456 80.3596 19.3105 80.1354 19.3597 79.922C19.409 79.7086 19.5388 79.5225 19.7222 79.4026L35.879 69.4868L19.0178 79.221C18.826 79.3234 18.6022 79.3484 18.3926 79.2908C18.183 79.2331 18.0035 79.0971 17.8912 78.911C17.7788 78.7249 17.7422 78.5027 17.7889 78.2903C17.8355 78.078 17.9619 77.8917 18.142 77.7698L50.5778 57.3798L16.9708 76.7785C16.7779 76.8947 16.5468 76.9294 16.3283 76.8751C16.1097 76.8209 15.9217 76.682 15.8056 76.4891C15.6894 76.2962 15.6547 76.0651 15.709 75.8466C15.7632 75.6281 15.9021 75.4401 16.095 75.3239L47.3189 55.7826L15.1903 74.3293C14.9972 74.445 14.766 74.4792 14.5477 74.4245C14.3293 74.3697 14.1416 74.2305 14.0259 74.0373C13.9103 73.8442 13.876 73.6131 13.9308 73.3947C13.9855 73.1763 14.1248 72.9887 14.3179 72.873L40.7774 56.4565L13.7781 72.0481C13.5853 72.1567 13.3577 72.1857 13.1439 72.1289C12.93 72.0722 12.7467 71.9341 12.6332 71.7442C12.5196 71.5543 12.4847 71.3275 12.536 71.1122C12.5872 70.897 12.7205 70.7102 12.9074 70.5918L37.2793 55.5195L12.5527 69.794C12.3598 69.9007 12.1329 69.9281 11.9201 69.8705C11.7074 69.8128 11.5254 69.6747 11.4127 69.4852C11.3 69.2958 11.2654 69.0699 11.3163 68.8554C11.3672 68.6409 11.4995 68.4547 11.6853 68.336L32.6914 55.399L11.5275 67.6198C11.3355 67.7253 11.1102 67.7526 10.8987 67.6958C10.6871 67.6391 10.5057 67.5027 10.3923 67.3153C10.279 67.1278 10.2425 66.9038 10.2905 66.6901C10.3385 66.4764 10.4673 66.2895 10.65 66.1686L44.2145 45.0216L10.3461 64.5748C10.1544 64.6772 9.93063 64.7022 9.721 64.6446C9.51137 64.5869 9.33187 64.4509 9.21953 64.2648C9.10719 64.0787 9.07058 63.8565 9.11724 63.6441C9.16391 63.4318 9.2903 63.2455 9.47033 63.1236L42.7854 42.0971L9.37358 61.3872C9.18001 61.5022 8.94869 61.5356 8.73048 61.4801C8.51228 61.4245 8.32508 61.2846 8.21007 61.091C8.09505 60.8974 8.06164 60.6661 8.11719 60.4479C8.17273 60.2297 8.31268 60.0425 8.50625 59.9275L19.0636 53.4777L8.90003 59.347C8.70774 59.4548 8.48108 59.4835 8.26801 59.427C8.05494 59.3706 7.87217 59.2335 7.75838 59.0448C7.64459 58.856 7.6087 58.6304 7.65831 58.4156C7.70793 58.2009 7.83915 58.0138 8.02421 57.8941L35.8467 40.4507L8.40102 56.2969C8.20812 56.4131 7.977 56.4478 7.75848 56.3935C7.53996 56.3393 7.35195 56.2004 7.23581 56.0075C7.11966 55.8146 7.08491 55.5835 7.13918 55.365C7.19345 55.1465 7.33231 54.9585 7.5252 54.8423L33.961 38.2459L8.10059 53.1823C7.90725 53.2925 7.67836 53.3223 7.46324 53.2654C7.24812 53.2084 7.06397 53.0693 6.95046 52.8779C6.83695 52.6865 6.80316 52.4581 6.85638 52.2421C6.90959 52.026 7.04554 51.8394 7.23496 51.7226L8.40781 51.0081L8.03949 51.2219C7.84637 51.3378 7.61511 51.3723 7.39659 51.3177C7.17808 51.2631 6.99019 51.124 6.87428 50.9308C6.75836 50.7377 6.72391 50.5065 6.7785 50.2879C6.83309 50.0694 6.97225 49.8815 7.16537 49.7656L26.8543 37.477L8.10568 48.2906C7.9134 48.3984 7.68674 48.4271 7.47366 48.3707C7.26059 48.3143 7.07782 48.1772 6.96403 47.9884C6.85024 47.7996 6.81435 47.574 6.86397 47.3593C6.91358 47.1445 7.0448 46.9575 7.22986 46.8377L28.7502 33.2592L8.43157 44.9978C8.238 45.1131 8.00658 45.1467 7.78822 45.0913C7.56986 45.0359 7.38245 44.8961 7.26721 44.7025C7.15196 44.5089 7.11834 44.2775 7.17372 44.0592C7.22911 43.8408 7.36897 43.6534 7.56254 43.5381L9.22422 42.5198L8.7948 42.7693C8.69906 42.8263 8.59303 42.864 8.48274 42.88C8.37246 42.8961 8.26009 42.8903 8.15205 42.863C8.04401 42.8356 7.94241 42.7873 7.85305 42.7207C7.7637 42.6541 7.68834 42.5705 7.63128 42.4748C7.57422 42.379 7.53657 42.273 7.52049 42.1627C7.50441 42.0524 7.51021 41.9401 7.53755 41.832C7.5649 41.724 7.61326 41.6224 7.67987 41.533C7.74648 41.4437 7.83003 41.3683 7.92577 41.3113L11.9264 38.8366L9.33115 40.3353C9.13948 40.4444 8.91286 40.4746 8.6993 40.4195C8.48575 40.3644 8.30203 40.2283 8.18707 40.0401C8.07211 39.8519 8.03493 39.6263 8.08342 39.4112C8.13191 39.196 8.26226 39.0082 8.44684 38.8875L27.3058 26.7584L10.5244 36.4501C10.4292 36.5082 10.3235 36.5469 10.2134 36.5642C10.1032 36.5814 9.99074 36.5767 9.88238 36.5505C9.77403 36.5243 9.6719 36.4769 9.58183 36.4112C9.49176 36.3455 9.41552 36.2627 9.35746 36.1675C9.29939 36.0723 9.26064 35.9667 9.24342 35.8565C9.2262 35.7464 9.23084 35.6339 9.25709 35.5255C9.28333 35.4172 9.33066 35.3151 9.39637 35.225C9.46208 35.1349 9.54489 35.0587 9.64006 35.0006L22.7366 26.5955L12.057 32.7601C11.8652 32.8674 11.6393 32.896 11.4268 32.84C11.2144 32.7841 11.0319 32.6479 10.9177 32.4601C10.8036 32.2723 10.7668 32.0476 10.815 31.8332C10.8632 31.6188 10.9926 31.4315 11.1761 31.3106L18.6274 26.5293L13.9241 29.245C13.7348 29.3556 13.5101 29.3886 13.297 29.3372C13.0839 29.2857 12.8989 29.1539 12.7809 28.9691C12.6629 28.7844 12.6209 28.5612 12.6638 28.3462C12.7067 28.1312 12.8311 27.9412 13.0109 27.8158L26.1194 18.5841L18.3999 23.0515C18.2108 23.1642 17.9853 23.1989 17.771 23.1485C17.5567 23.098 17.3704 22.9662 17.2514 22.7809C17.1325 22.5957 17.0902 22.3714 17.1335 22.1556C17.1767 21.9397 17.3022 21.7491 17.4834 21.624L23.424 17.3807C23.3162 17.309 23.2267 17.2131 23.1626 17.1006C23.0501 16.9057 23.0196 16.6741 23.0779 16.4567C23.1361 16.2393 23.2783 16.0539 23.4732 15.9414L33.8269 9.9651C34.0157 9.85743 34.2385 9.82627 34.4496 9.87803C34.6606 9.9298 34.8438 10.0605 34.9613 10.2433C35.0788 10.4261 35.1217 10.647 35.0812 10.8605C35.0407 11.074 34.9198 11.2638 34.7435 11.3909L32.8374 12.7487L41.6193 7.67711C41.8086 7.56654 42.0333 7.53351 42.2464 7.58493C42.4595 7.63636 42.6445 7.76824 42.7625 7.95297C42.8805 8.1377 42.9225 8.36093 42.8796 8.57592C42.8368 8.7909 42.7123 8.98095 42.5325 9.10626L29.4207 18.3397L49.1775 6.92689C49.3695 6.81434 49.5981 6.78176 49.814 6.83616C50.0298 6.89056 50.2157 7.02759 50.3314 7.21772C50.4472 7.40785 50.4836 7.63585 50.4329 7.85259C50.3821 8.06933 50.2483 8.25745 50.0601 8.37641L42.6004 13.1663L53.1357 7.08305C53.3279 6.96578 53.5588 6.92968 53.7776 6.98267C53.9965 7.03567 54.1853 7.17343 54.3026 7.36565C54.4198 7.55787 54.4559 7.7888 54.4029 8.00764C54.3499 8.22647 54.2122 8.4153 54.02 8.53256L40.9217 16.9411L57.0904 7.60582C57.2819 7.50052 57.5066 7.47313 57.7178 7.52936C57.9289 7.58559 58.1103 7.72111 58.224 7.9077C58.3378 8.09428 58.3751 8.31756 58.3284 8.53102C58.2816 8.74448 58.1543 8.93168 57.973 9.05364L39.1226 21.1844L61.052 8.52238C61.2453 8.40714 61.4765 8.37342 61.6947 8.42865C61.9129 8.48388 62.1002 8.62352 62.2155 8.81686C62.3307 9.01021 62.3644 9.24141 62.3092 9.45961C62.254 9.67781 62.1143 9.86514 61.921 9.98038L57.9 12.4568L63.4299 9.26411C63.6233 9.14887 63.8545 9.11515 64.0727 9.17038C64.2909 9.22561 64.4782 9.36525 64.5934 9.55859C64.7087 9.75194 64.7424 9.98314 64.6871 10.2013C64.6319 10.4195 64.4923 10.6069 64.2989 10.7221L62.644 11.7405L65.5465 10.0652C65.7391 9.94888 65.9701 9.91382 66.1887 9.96777C66.4072 10.0217 66.5953 10.1603 66.7117 10.3529C66.828 10.5456 66.8631 10.7766 66.8092 10.9951C66.7552 11.2137 66.6167 11.4018 66.424 11.5182L44.9036 25.0967L68.5507 11.4316C68.7438 11.3157 68.9751 11.2812 69.1936 11.3358C69.4121 11.3904 69.6 11.5296 69.7159 11.7227C69.8319 11.9158 69.8663 12.1471 69.8117 12.3656C69.7571 12.5841 69.618 12.772 69.4249 12.8879L49.7359 25.1782L71.1222 12.8353C71.3155 12.7251 71.5444 12.6953 71.7595 12.7522C71.9746 12.8092 72.1588 12.9483 72.2723 13.1397C72.3858 13.3311 72.4196 13.5595 72.3664 13.7756C72.3132 13.9916 72.1772 14.1782 71.9878 14.295L70.8133 15.0095L72.7822 13.8723C72.9748 13.7612 73.2034 13.7302 73.4188 13.786C73.6341 13.8417 73.8189 13.9798 73.9335 14.1704C74.0481 14.3611 74.0832 14.5891 74.0314 14.8054C73.9795 15.0217 73.8448 15.209 73.6563 15.3269L47.2137 31.9285L75.3349 15.6919C75.5276 15.5808 75.7562 15.5497 75.9715 15.6055C76.1869 15.6612 76.3717 15.7993 76.4863 15.9899C76.6008 16.1806 76.636 16.4086 76.5841 16.6249C76.5323 16.8412 76.3976 17.0285 76.2091 17.1465L48.395 34.5933L77.7129 17.6659C77.9064 17.5508 78.1378 17.5174 78.356 17.573C78.5742 17.6285 78.7614 17.7685 78.8764 17.962C78.9914 18.1556 79.0248 18.3869 78.9693 18.6051C78.9137 18.8233 78.7738 19.0105 78.5802 19.1256L68.0313 25.5754L79.2422 19.1018C79.4348 18.9854 79.6658 18.9504 79.8844 19.0043C80.1029 19.0583 80.291 19.1968 80.4074 19.3895C80.5237 19.5822 80.5588 19.8132 80.5049 20.0317C80.4509 20.2502 80.3123 20.4383 80.1197 20.5547L46.7928 41.5743L81.5268 21.5239C81.7194 21.4075 81.9504 21.3724 82.1689 21.4264C82.3875 21.4803 82.5756 21.6189 82.692 21.8116C82.8083 22.0042 82.8434 22.2352 82.7894 22.4538C82.7355 22.6723 82.5969 22.8604 82.4043 22.9768L48.8414 44.1135L83.5805 24.058C83.7739 23.9427 84.0051 23.909 84.2233 23.9642C84.4415 24.0195 84.6288 24.1591 84.744 24.3525C84.8593 24.5458 84.893 24.777 84.8378 24.9952C84.7825 25.2134 84.6429 25.4007 84.4496 25.516L63.4622 38.4411L84.9503 26.0303C85.1436 25.915 85.3748 25.8813 85.593 25.9365C85.8112 25.9918 85.9985 26.1314 86.1138 26.3247C86.229 26.5181 86.2627 26.7493 86.2075 26.9675C86.1523 27.1857 86.0126 27.373 85.8193 27.4883L61.4254 42.5792L86.3081 28.2181C86.4994 28.1251 86.7185 28.1073 86.9223 28.1682C87.126 28.2291 87.2995 28.3643 87.4083 28.547C87.5171 28.7296 87.5534 28.9465 87.51 29.1547C87.4666 29.3628 87.3466 29.5471 87.1738 29.671L60.7227 46.0841L87.5726 30.5825C87.7653 30.4714 87.9939 30.4404 88.2092 30.4961C88.4246 30.5518 88.6094 30.6899 88.724 30.8805C88.8385 31.0712 88.8737 31.2992 88.8218 31.5155C88.77 31.7318 88.6353 31.9191 88.4467 32.0371L57.2466 51.5665L88.8168 33.3406C89.0097 33.2245 89.2408 33.1897 89.4593 33.244C89.6778 33.2983 89.8658 33.4371 89.982 33.63C90.0981 33.8229 90.1329 34.054 90.0786 34.2726C90.0243 34.4911 89.8855 34.6791 89.6926 34.7952L57.2534 55.1886L89.9064 36.3364C90.0994 36.2297 90.3262 36.2023 90.539 36.26C90.7517 36.3176 90.9337 36.4558 91.0464 36.6452C91.1591 36.8347 91.1937 37.0605 91.1428 37.275C91.0919 37.4895 90.9596 37.6758 90.7738 37.7944L74.5966 47.7204L90.5514 38.5124C90.7448 38.4022 90.9737 38.3724 91.1888 38.4293C91.4039 38.4863 91.588 38.6254 91.7016 38.8168C91.8151 39.0082 91.8489 39.2366 91.7956 39.4527C91.7424 39.6687 91.6065 39.8553 91.4171 39.9721L86.1095 43.197L90.9944 40.3777C91.1871 40.2666 91.4157 40.2356 91.631 40.2913C91.8464 40.3471 92.0312 40.4851 92.1458 40.6758C92.2603 40.8664 92.2955 41.0945 92.2436 41.3107C92.1918 41.527 92.0571 41.7143 91.8685 41.8323L65.8011 58.1097L91.507 43.2683C91.6025 43.2108 91.7084 43.1726 91.8187 43.1561C91.9289 43.1395 92.0414 43.1448 92.1496 43.1716C92.2578 43.1985 92.3596 43.2464 92.4493 43.3127C92.539 43.3789 92.6147 43.4622 92.6722 43.5577C92.7297 43.6532 92.7679 43.7591 92.7844 43.8693C92.801 43.9796 92.7957 44.092 92.7689 44.2002C92.742 44.3084 92.6941 44.4103 92.6278 44.4999C92.5616 44.5896 92.4783 44.6654 92.3828 44.7229L67.2777 60.4265L91.821 46.2573C92.0137 46.1407 92.2448 46.1054 92.4635 46.1592C92.6821 46.213 92.8705 46.3514 92.9871 46.5441C93.1037 46.7368 93.139 46.9679 93.0852 47.1865C93.0314 47.4052 92.8929 47.5936 92.7002 47.7102L65.3496 64.9974L91.9347 49.6485C92.1279 49.5328 92.359 49.4986 92.5774 49.5533C92.7958 49.6081 92.9834 49.7473 93.0991 49.9404C93.2148 50.1336 93.249 50.3647 93.1943 50.5831C93.1395 50.8015 93.0003 50.9891 92.8072 51.1048L78.3307 60.0735L91.8261 52.2811C92.0186 52.1642 92.2495 52.1287 92.4682 52.1821C92.6869 52.2356 92.8754 52.3738 92.9922 52.5662C93.109 52.7586 93.1446 52.9896 93.0911 53.2083C93.0376 53.427 92.8995 53.6154 92.707 53.7323L68.7391 68.9708L91.4323 55.8692C91.6239 55.7654 91.8482 55.7392 92.0585 55.7962C92.2689 55.8532 92.4493 55.9889 92.5623 56.1752C92.6753 56.3616 92.7123 56.5842 92.6657 56.7971C92.619 57.01 92.4922 57.1968 92.3115 57.3187L72.9858 69.5768L90.7347 59.33C90.9263 59.2262 91.1506 59.2001 91.3609 59.257C91.5713 59.314 91.7517 59.4497 91.8647 59.636C91.9777 59.8224 92.0147 60.0451 91.9681 60.258C91.9214 60.4708 91.7946 60.6576 91.614 60.7795L75.6965 70.8956L89.7282 62.796C89.9202 62.6904 90.1455 62.6632 90.357 62.7199C90.5686 62.7767 90.75 62.913 90.8634 63.1005C90.9767 63.2879 91.0132 63.5119 90.9652 63.7257C90.9172 63.9394 90.7884 64.1262 90.6057 64.2472L82.6283 69.2713L88.5859 65.8325C88.7767 65.724 89.002 65.6936 89.2147 65.7477C89.4274 65.8018 89.6108 65.9361 89.7266 66.1226C89.8423 66.309 89.8813 66.5331 89.8354 66.7477C89.7895 66.9622 89.6623 67.1507 89.4804 67.2735L73.1505 78.116L86.1876 70.5884C86.3765 70.4823 86.5988 70.4524 86.8091 70.5049C87.0193 70.5575 87.2014 70.6884 87.3182 70.871C87.4349 71.0535 87.4775 71.2737 87.437 71.4866C87.3966 71.6995 87.2763 71.8888 87.1008 72.0158L73.5307 81.5819L81.7338 76.8464C81.9224 76.7371 82.1459 76.7045 82.3579 76.7554C82.5698 76.8064 82.7541 76.937 82.8724 77.1201C82.9907 77.3032 83.0339 77.5248 82.9932 77.739C82.9526 77.9532 82.831 78.1435 82.6538 78.2705L76.5163 82.6835C76.642 82.7601 76.7457 82.8681 76.8171 82.9969C76.8885 83.1258 76.9251 83.2709 76.9234 83.4182C76.9217 83.5655 76.8817 83.7097 76.8073 83.8368C76.733 83.964 76.6268 84.0695 76.4993 84.1432L66.1456 90.1195C65.957 90.2288 65.7336 90.2614 65.5216 90.2104C65.3096 90.1595 65.1254 90.0289 65.0071 89.8458C64.8888 89.6627 64.8455 89.4411 64.8862 89.2269C64.9269 89.0127 65.0485 88.8224 65.2257 88.6954L67.7462 86.8878L58.1173 92.4465C57.9288 92.5493 57.7083 92.5768 57.5003 92.5235C57.2922 92.4702 57.1122 92.34 56.9964 92.1591C56.8806 91.9783 56.8376 91.7603 56.8761 91.549C56.9147 91.3378 57.0319 91.149 57.2041 91.0208L70.7827 81.4512L50.4946 93.1509C50.3674 93.2257 50.2229 93.2661 50.0754 93.268Z" fill="#F2A726"/>
<path d="M60.4241 99.1309C107.583 90.2233 113.491 19.6962 68.3455 3.26949C-14.4295 -22.2447 -24.6644 110.294 60.4241 99.1309ZM49.9431 1.81828C113.206 3.21688 113.457 96.9362 50.0246 98.2601C-13.4332 96.6952 -13.6844 3.29835 49.9431 1.81828Z" fill="#262626"/>
<path d="M49.7107 93.2614C88.481 92.4586 109.022 43.3601 78.2852 17.1959C14.3046 -27.4946 -29.449 85.413 49.7107 93.2614ZM49.838 8.4547C104.152 9.95004 104.614 89.6207 50.1775 91.6761C-4.18434 89.9432 -4.69014 10.0892 49.838 8.4547Z" fill="#262626"/>
<path d="M49.7328 15.3666C50.6985 15.3395 51.2943 13.396 50.242 13.4249C42.0479 13.5521 34.122 16.3645 27.6805 21.4306C21.239 26.4967 16.6377 33.5365 14.5829 41.4697C14.2299 42.758 15.8372 42.7529 16.1427 41.6395C18.1077 34.1948 22.4542 27.5973 28.519 22.8537C34.5838 18.11 42.034 15.4806 49.7328 15.3666ZM14.3215 47.5597C13.0214 47.7447 12.7939 51.2056 14.4013 50.822C15.6997 50.6455 15.9238 47.1694 14.3215 47.5597Z" fill="#262626"/>
<mask id="path-6-outside-1_261_3603" maskUnits="userSpaceOnUse" x="21.2787" y="33.0262" width="58" height="33" fill="black">
<rect fill="white" x="21.2787" y="33.0262" width="58" height="33"/>
<path d="M36.0592 61.5256C36.3722 61.7492 36.6405 62.0622 36.7299 62.4199C36.9535 63.0459 36.8194 63.5825 36.2828 64.0744C35.8804 64.3874 35.4779 64.6109 34.9414 64.7898C34.4495 64.9687 33.9129 65.1028 33.3763 65.1922C32.7951 65.2817 32.2138 65.3264 31.6325 65.3264C31.0512 65.3264 30.5146 65.3711 29.978 65.3711C29.8439 65.3711 29.665 65.3711 29.4862 65.3711C29.352 65.3711 29.2179 65.3711 29.039 65.3711C28.9496 65.3711 28.8602 65.3711 28.726 65.3711C28.5919 65.3711 28.5025 65.3711 28.3683 65.4158C28.1448 65.4158 27.9212 65.4158 27.6529 65.4158C27.4293 65.4605 27.2058 65.4605 26.9822 65.4605C26.5797 65.4605 26.1773 65.4158 25.7302 65.3711C25.2383 65.3264 24.8359 65.2369 24.4335 65.1028C24.031 64.9687 23.6286 64.7451 23.3156 64.4321C23.0026 64.1638 22.779 63.7614 22.6449 63.2695C22.3766 62.2411 22.2424 61.2126 22.2872 60.0948C22.3319 58.9769 22.3766 57.9038 22.5107 56.8306C22.5554 56.2941 22.5554 55.8022 22.6002 55.3103C22.6449 54.8185 22.6896 54.3266 22.6896 53.8348C22.6896 53.2535 22.7343 52.7169 22.7343 52.1356C22.7343 51.5543 22.7343 51.0177 22.7343 50.4812C22.779 48.2902 22.8237 46.0992 22.8237 43.9081C22.8237 41.7171 22.7343 39.5261 22.5554 37.2904C22.5554 37.2457 22.5554 37.1115 22.5107 36.9327C22.466 36.7538 22.466 36.575 22.466 36.3514C22.4213 36.0831 22.466 35.8595 22.466 35.5913C22.5107 35.323 22.6002 35.0994 22.7343 34.8758C22.8684 34.6075 23.1367 34.4287 23.5392 34.3392C23.9416 34.2498 24.3887 34.2051 24.8806 34.2051C25.3277 34.2051 25.7749 34.2051 26.222 34.2051C26.7139 34.2498 27.0269 34.2945 27.2952 34.2945C27.5635 34.2945 28.0106 34.2498 28.6366 34.2498C29.2626 34.2051 29.9333 34.2051 30.6488 34.2051C31.4089 34.2051 32.0796 34.1604 32.7951 34.1604C33.4658 34.1604 33.9576 34.1604 34.2706 34.1604C34.8519 34.2051 35.2544 34.4287 35.5226 34.7864C35.7909 35.1888 35.9251 35.5913 35.8804 36.0384C35.8804 36.4408 35.7462 36.7985 35.4779 37.1563C35.2096 37.4693 34.8072 37.6481 34.2259 37.6034C33.5552 37.5587 32.8845 37.5587 32.2138 37.6034C31.4983 37.6481 30.8276 37.6928 30.1569 37.7375C29.6203 37.7823 29.0838 37.827 28.5919 37.8717C28.0553 37.9164 27.5188 37.9164 26.9822 37.9164C26.8033 37.9164 26.6692 37.9164 26.4903 37.9164C26.3562 37.9164 26.1773 37.9164 25.9985 37.8717C26.1326 39.7497 26.222 41.5383 26.222 43.2821C26.222 45.026 26.222 46.591 26.1773 47.9772C26.6692 47.8877 27.2505 47.843 27.8318 47.7983C28.3683 47.7983 28.9943 47.7536 29.665 47.7536C30.0675 47.7536 30.4699 47.7536 30.8723 47.7536C31.2301 47.7536 31.6325 47.7983 32.0349 47.7983C32.3926 47.843 32.7056 47.843 33.0186 47.843C33.3316 47.843 33.6446 47.843 34.0024 47.8877C34.5389 47.8877 34.9414 48.0666 35.2096 48.4243C35.5226 48.782 35.6568 49.1845 35.6568 49.5869C35.6568 49.9893 35.5226 50.3917 35.2544 50.7495C34.9861 51.1072 34.5389 51.286 34.0024 51.286C33.6446 51.286 33.2869 51.286 32.9739 51.286C32.6162 51.2413 32.2585 51.2413 31.9008 51.2413C31.5431 51.1966 31.1406 51.1966 30.7829 51.1966C30.3805 51.1519 29.978 51.1519 29.5756 51.1519C28.9049 51.1519 28.2789 51.1966 27.6976 51.2413C27.1163 51.286 26.5797 51.3755 26.0879 51.5096H26.0432L25.9985 53.3429C25.9537 54.416 25.909 55.5339 25.8643 56.6965C25.8196 57.8143 25.8196 58.9322 25.7749 60.0948V60.4972C25.7302 60.7208 25.7302 60.9444 25.7302 61.1679C25.7302 61.3915 25.7749 61.6151 25.8196 61.8834C26.2667 61.9281 26.8033 61.9728 27.474 61.9728H28.5472C29.352 61.9281 30.0675 61.8834 30.6488 61.8386C31.2748 61.8386 31.8561 61.7939 32.3926 61.7045C32.7951 61.7045 33.1975 61.6151 33.6446 61.5256C33.6894 61.5256 33.7341 61.5256 33.7788 61.4809C33.8682 61.4809 33.9129 61.4362 34.0024 61.4362C34.0918 61.3468 34.1812 61.3468 34.2706 61.3468H34.3601C34.5836 61.2126 34.8072 61.1679 35.0308 61.1679C35.3885 61.1679 35.7462 61.3021 36.0592 61.5256Z"/>
<path d="M57.423 57.7696C57.4677 58.5298 57.4677 59.3346 57.4677 60.0948C57.423 60.8549 57.3335 61.6151 57.1994 62.3752C57.11 62.9118 56.9758 63.4484 56.797 63.9402C56.797 64.1191 56.7522 64.2979 56.6628 64.4321C56.6181 64.4768 56.6181 64.5662 56.6181 64.6109C56.4392 65.0134 56.1262 65.2817 55.5897 65.3264C55.5449 65.3264 55.4555 65.3264 55.3661 65.3264C55.1425 65.3711 54.9189 65.3711 54.6507 65.2817C54.2482 65.1922 53.9799 64.8792 53.8458 64.3874C53.0409 62.1964 51.6548 57.8143 50.7605 55.668C49.8662 53.477 48.9272 51.286 47.9882 49.1397C47.0492 46.9487 46.0655 44.8024 45.1265 42.6561C44.7688 41.8513 44.411 41.0017 44.0533 40.1968L44.098 41.8513C44.098 42.4326 44.098 42.9691 44.098 43.5504C44.098 44.1317 44.098 44.6683 44.098 45.1601V45.2049C44.098 45.8756 44.098 46.5463 44.098 47.2617C44.098 47.9772 44.098 48.6479 44.1428 49.3633C44.1428 50.0787 44.1875 50.7495 44.2769 51.4202C44.3216 52.1356 44.3663 52.8063 44.411 53.477C44.4558 53.9689 44.5005 54.5055 44.5452 55.042C44.5899 55.5339 44.6346 56.0705 44.6346 56.6071C44.724 57.5461 44.724 58.4851 44.724 59.4241C44.6793 60.3184 44.6793 61.2574 44.6346 62.1964V62.3752C44.6346 62.6882 44.6346 62.9565 44.5899 63.2248C44.5899 63.5378 44.5899 63.8061 44.5899 64.1191C44.5899 64.3427 44.5005 64.5215 44.411 64.6557C44.3216 64.7898 44.2322 64.9239 44.1428 64.9687C43.8745 65.2369 43.5615 65.3711 43.2038 65.4158C42.7566 65.4605 42.4436 65.4158 42.1753 65.1922C41.9517 65.0134 41.8623 64.7898 41.8176 64.4768C41.8623 64.1638 41.8623 63.8955 41.8623 63.5825C41.8623 63.3142 41.8623 63.0459 41.907 62.7777C41.907 61.7939 41.907 60.8549 41.9517 59.8712C41.9517 58.9322 41.9517 57.9485 41.907 56.9648C41.8623 56.2941 41.8176 55.6681 41.7729 54.9973C41.7282 54.3713 41.6835 53.7453 41.6387 53.1193C41.594 52.4486 41.5493 51.7779 41.5046 51.1072C41.4152 50.4365 41.4152 49.7657 41.3705 49.095C41.3257 48.3796 41.3257 47.7089 41.3257 47.0382C41.3257 46.3227 41.3257 45.652 41.3257 44.9813C41.3257 44.4447 41.3257 43.8634 41.3257 43.2821C41.3257 42.7009 41.3257 42.1196 41.3257 41.5383C41.281 40.4651 41.281 39.392 41.3705 38.3188C41.4152 37.201 41.6387 36.1278 42.0412 35.0994C42.1306 34.8311 42.3095 34.6075 42.533 34.384C42.8013 34.2051 43.0696 34.071 43.3379 34.0262C43.472 34.0262 43.5615 34.0262 43.6956 34.0262C43.8745 34.0262 44.098 34.0262 44.3216 34.1157C44.724 34.2051 44.9923 34.4734 45.2159 34.9652C46.1102 37.1115 47.0492 39.2578 48.0329 41.4488C48.9719 43.5951 49.9556 45.7414 50.8946 47.9324C51.8336 50.0787 52.7279 52.2697 53.6222 54.416C53.8905 55.0868 54.2482 55.9811 54.5612 56.9201C54.5165 56.1599 54.4718 55.3998 54.4271 54.6396C54.3824 53.6112 54.2929 52.538 54.2482 51.4649C54.2035 50.7495 54.2035 50.034 54.1588 49.3186C54.1141 48.6032 54.0694 47.843 53.9799 47.0829C53.9799 45.026 53.9799 43.0586 53.9352 41.1358C53.7564 39.1684 53.5775 37.2457 53.7117 35.3677C53.8011 34.7864 54.1588 34.4734 54.7848 34.384C55.3214 34.3392 55.7238 34.4287 56.0815 34.7417C56.3498 34.9652 56.4392 35.2335 56.3945 35.636C56.2604 37.4693 56.4392 39.3473 56.5287 41.27C56.6181 43.1927 56.6628 45.1601 56.7522 47.1276C56.8864 48.1113 56.9311 49.095 56.9311 50.034C56.9758 50.973 57.0205 51.8673 57.0652 52.8063C57.11 53.6559 57.1547 54.5502 57.2441 55.4892C57.3335 56.2493 57.3782 57.0095 57.423 57.7696Z"/>
<path d="M77.8547 52.4933C78.3912 52.9405 78.7042 53.6559 78.749 54.6843C78.7937 55.668 78.7937 56.6071 78.8384 57.5461C78.8831 58.4403 78.7937 59.3346 78.6595 60.1842C78.4807 61.0338 78.2124 61.8386 77.7652 62.5988C77.2734 63.3589 76.6027 64.0297 75.7084 64.6557C75.5742 64.7451 75.4401 64.8345 75.3954 64.8345C75.2612 64.9239 75.1718 64.9687 75.0377 65.0134C74.8141 65.1028 74.6352 65.1475 74.4117 65.1475C74.2328 65.1922 74.0539 65.1922 73.9198 65.1922L73.6068 65.1475C73.5621 65.1475 73.5174 65.1922 73.4727 65.1922C73.3385 65.1922 73.1597 65.1922 72.9808 65.2369C72.8019 65.2369 72.6678 65.2817 72.4889 65.2817C72.3548 65.3264 72.2206 65.3264 72.1312 65.3264C71.9971 65.3264 71.9076 65.3711 71.7735 65.3711C71.5946 65.4158 71.3711 65.4158 71.1922 65.4158C70.9686 65.4605 70.7898 65.4605 70.5662 65.4605C70.2532 65.4605 69.9402 65.4158 69.6272 65.4158C69.3142 65.4158 68.9565 65.3711 68.6435 65.3264C67.8386 65.2369 67.0785 65.0134 66.3631 64.7004C65.6923 64.3874 64.9769 63.8508 64.3062 63.0907C63.9485 62.6435 63.6355 62.1964 63.4119 61.7045C63.1883 61.2126 63.0095 60.7208 62.8753 60.2289C62.7412 59.7371 62.6517 59.2452 62.607 58.7086C62.5623 58.2168 62.5176 57.7249 62.5176 57.2331C62.4729 56.3388 62.4282 55.3998 62.3387 54.416C62.294 53.4323 62.2493 52.3592 62.1152 51.1519C62.0257 50.0787 61.981 49.0056 61.9363 47.9324C61.8916 46.8146 61.8916 45.7414 61.981 44.6236C62.0705 43.5504 62.2493 42.4773 62.5176 41.4041C62.7412 40.3757 63.1436 39.3026 63.6802 38.3188C63.859 37.9611 64.0826 37.5587 64.3509 37.1563C64.5745 36.7985 64.8875 36.4408 65.2005 36.0831C65.5582 35.7701 65.9159 35.4571 66.3183 35.1888C66.7655 34.9205 67.2573 34.697 67.7939 34.5628C68.1963 34.4287 68.5093 34.384 68.8223 34.2945C69.1353 34.2498 69.4931 34.2051 69.8061 34.1604C70.1638 34.1604 70.5215 34.1604 70.9239 34.1604C71.3264 34.2051 71.7735 34.2498 72.3101 34.2945C72.8466 34.3392 73.2044 34.5181 73.4727 34.8758C73.6962 35.2335 73.8304 35.636 73.7857 35.9937C73.7409 36.4408 73.6068 36.7985 73.2938 37.0221C72.9808 37.2904 72.6231 37.3798 72.1759 37.3351C71.9971 37.3351 71.8629 37.2904 71.7735 37.2904C71.6841 37.2457 71.5946 37.2457 71.5052 37.2457C71.4158 37.2457 71.3264 37.201 71.2369 37.201C71.1475 37.201 71.0134 37.201 70.8345 37.201C69.9849 37.201 69.2695 37.2904 68.6882 37.4693C67.9728 37.7375 67.3915 38.1847 66.9891 38.8107C66.5866 39.4814 66.2736 40.1521 66.0053 40.8228C65.737 41.6724 65.5135 42.522 65.3346 43.3716C65.2005 44.2211 65.111 45.0707 65.0663 45.9203C65.0663 46.8146 65.0663 47.6642 65.111 48.5137C65.1558 49.3633 65.2452 50.2129 65.2899 51.0177L65.3346 51.7332C65.424 52.4486 65.4688 53.2088 65.5135 53.9242C65.5582 54.6843 65.6029 55.4445 65.6476 56.2046V56.6965C65.6476 57.4119 65.6923 58.1721 65.7818 58.8875C65.8712 59.6029 66.0948 60.2289 66.4525 60.7655C66.8549 61.3021 67.3021 61.7045 67.7045 61.8834C68.1516 62.1069 68.6882 62.2411 69.3142 62.2858C69.8061 62.3305 70.2979 62.3752 70.7451 62.3752C71.1922 62.3752 71.6394 62.3305 72.1312 62.2858C72.2654 62.2411 72.3995 62.1964 72.5336 62.1964C72.7125 62.1964 72.8466 62.1964 72.9808 62.1964C73.1597 62.1964 73.3385 62.1964 73.4727 62.1964C73.6068 62.1964 73.7409 62.1516 73.8304 62.1516C73.9198 62.1069 74.0092 62.0175 74.0987 61.9281C74.7247 61.5256 75.1271 61.0785 75.3507 60.5419C75.5742 60.0054 75.7084 59.4241 75.7531 58.8428C75.7978 58.2168 75.7531 57.6355 75.7084 57.0095C75.6189 56.3835 75.5742 55.7575 75.5742 55.1762C75.4848 54.9079 75.4848 54.729 75.5295 54.6843C75.4401 54.6843 75.3507 54.6843 75.3059 54.6843C75.2165 54.6843 75.1271 54.6843 75.0377 54.6843C74.8141 54.6396 74.5458 54.6396 74.3222 54.6396C74.0539 54.6396 73.7857 54.5949 73.5621 54.5949C73.1149 54.6396 72.7125 54.6396 72.3101 54.6396C71.9076 54.6843 71.5052 54.6843 71.0581 54.6843C70.5662 54.6843 70.2085 54.5055 69.9402 54.1925C69.6719 53.8795 69.5378 53.5218 69.5378 53.1193C69.5378 52.7169 69.6719 52.3592 69.9402 52.0015C70.1638 51.6885 70.5662 51.5096 71.0581 51.5096C71.7735 51.5096 72.5784 51.4649 73.4279 51.4202C74.3222 51.3755 75.1271 51.4202 75.8872 51.5543C76.6921 51.7332 77.3181 52.0015 77.8547 52.4933Z"/>
</mask>
<path d="M36.0592 61.5256C36.3722 61.7492 36.6405 62.0622 36.7299 62.4199C36.9535 63.0459 36.8194 63.5825 36.2828 64.0744C35.8804 64.3874 35.4779 64.6109 34.9414 64.7898C34.4495 64.9687 33.9129 65.1028 33.3763 65.1922C32.7951 65.2817 32.2138 65.3264 31.6325 65.3264C31.0512 65.3264 30.5146 65.3711 29.978 65.3711C29.8439 65.3711 29.665 65.3711 29.4862 65.3711C29.352 65.3711 29.2179 65.3711 29.039 65.3711C28.9496 65.3711 28.8602 65.3711 28.726 65.3711C28.5919 65.3711 28.5025 65.3711 28.3683 65.4158C28.1448 65.4158 27.9212 65.4158 27.6529 65.4158C27.4293 65.4605 27.2058 65.4605 26.9822 65.4605C26.5797 65.4605 26.1773 65.4158 25.7302 65.3711C25.2383 65.3264 24.8359 65.2369 24.4335 65.1028C24.031 64.9687 23.6286 64.7451 23.3156 64.4321C23.0026 64.1638 22.779 63.7614 22.6449 63.2695C22.3766 62.2411 22.2424 61.2126 22.2872 60.0948C22.3319 58.9769 22.3766 57.9038 22.5107 56.8306C22.5554 56.2941 22.5554 55.8022 22.6002 55.3103C22.6449 54.8185 22.6896 54.3266 22.6896 53.8348C22.6896 53.2535 22.7343 52.7169 22.7343 52.1356C22.7343 51.5543 22.7343 51.0177 22.7343 50.4812C22.779 48.2902 22.8237 46.0992 22.8237 43.9081C22.8237 41.7171 22.7343 39.5261 22.5554 37.2904C22.5554 37.2457 22.5554 37.1115 22.5107 36.9327C22.466 36.7538 22.466 36.575 22.466 36.3514C22.4213 36.0831 22.466 35.8595 22.466 35.5913C22.5107 35.323 22.6002 35.0994 22.7343 34.8758C22.8684 34.6075 23.1367 34.4287 23.5392 34.3392C23.9416 34.2498 24.3887 34.2051 24.8806 34.2051C25.3277 34.2051 25.7749 34.2051 26.222 34.2051C26.7139 34.2498 27.0269 34.2945 27.2952 34.2945C27.5635 34.2945 28.0106 34.2498 28.6366 34.2498C29.2626 34.2051 29.9333 34.2051 30.6488 34.2051C31.4089 34.2051 32.0796 34.1604 32.7951 34.1604C33.4658 34.1604 33.9576 34.1604 34.2706 34.1604C34.8519 34.2051 35.2544 34.4287 35.5226 34.7864C35.7909 35.1888 35.9251 35.5913 35.8804 36.0384C35.8804 36.4408 35.7462 36.7985 35.4779 37.1563C35.2096 37.4693 34.8072 37.6481 34.2259 37.6034C33.5552 37.5587 32.8845 37.5587 32.2138 37.6034C31.4983 37.6481 30.8276 37.6928 30.1569 37.7375C29.6203 37.7823 29.0838 37.827 28.5919 37.8717C28.0553 37.9164 27.5188 37.9164 26.9822 37.9164C26.8033 37.9164 26.6692 37.9164 26.4903 37.9164C26.3562 37.9164 26.1773 37.9164 25.9985 37.8717C26.1326 39.7497 26.222 41.5383 26.222 43.2821C26.222 45.026 26.222 46.591 26.1773 47.9772C26.6692 47.8877 27.2505 47.843 27.8318 47.7983C28.3683 47.7983 28.9943 47.7536 29.665 47.7536C30.0675 47.7536 30.4699 47.7536 30.8723 47.7536C31.2301 47.7536 31.6325 47.7983 32.0349 47.7983C32.3926 47.843 32.7056 47.843 33.0186 47.843C33.3316 47.843 33.6446 47.843 34.0024 47.8877C34.5389 47.8877 34.9414 48.0666 35.2096 48.4243C35.5226 48.782 35.6568 49.1845 35.6568 49.5869C35.6568 49.9893 35.5226 50.3917 35.2544 50.7495C34.9861 51.1072 34.5389 51.286 34.0024 51.286C33.6446 51.286 33.2869 51.286 32.9739 51.286C32.6162 51.2413 32.2585 51.2413 31.9008 51.2413C31.5431 51.1966 31.1406 51.1966 30.7829 51.1966C30.3805 51.1519 29.978 51.1519 29.5756 51.1519C28.9049 51.1519 28.2789 51.1966 27.6976 51.2413C27.1163 51.286 26.5797 51.3755 26.0879 51.5096H26.0432L25.9985 53.3429C25.9537 54.416 25.909 55.5339 25.8643 56.6965C25.8196 57.8143 25.8196 58.9322 25.7749 60.0948V60.4972C25.7302 60.7208 25.7302 60.9444 25.7302 61.1679C25.7302 61.3915 25.7749 61.6151 25.8196 61.8834C26.2667 61.9281 26.8033 61.9728 27.474 61.9728H28.5472C29.352 61.9281 30.0675 61.8834 30.6488 61.8386C31.2748 61.8386 31.8561 61.7939 32.3926 61.7045C32.7951 61.7045 33.1975 61.6151 33.6446 61.5256C33.6894 61.5256 33.7341 61.5256 33.7788 61.4809C33.8682 61.4809 33.9129 61.4362 34.0024 61.4362C34.0918 61.3468 34.1812 61.3468 34.2706 61.3468H34.3601C34.5836 61.2126 34.8072 61.1679 35.0308 61.1679C35.3885 61.1679 35.7462 61.3021 36.0592 61.5256Z" fill="#FFD183"/>
<path d="M57.423 57.7696C57.4677 58.5298 57.4677 59.3346 57.4677 60.0948C57.423 60.8549 57.3335 61.6151 57.1994 62.3752C57.11 62.9118 56.9758 63.4484 56.797 63.9402C56.797 64.1191 56.7522 64.2979 56.6628 64.4321C56.6181 64.4768 56.6181 64.5662 56.6181 64.6109C56.4392 65.0134 56.1262 65.2817 55.5897 65.3264C55.5449 65.3264 55.4555 65.3264 55.3661 65.3264C55.1425 65.3711 54.9189 65.3711 54.6507 65.2817C54.2482 65.1922 53.9799 64.8792 53.8458 64.3874C53.0409 62.1964 51.6548 57.8143 50.7605 55.668C49.8662 53.477 48.9272 51.286 47.9882 49.1397C47.0492 46.9487 46.0655 44.8024 45.1265 42.6561C44.7688 41.8513 44.411 41.0017 44.0533 40.1968L44.098 41.8513C44.098 42.4326 44.098 42.9691 44.098 43.5504C44.098 44.1317 44.098 44.6683 44.098 45.1601V45.2049C44.098 45.8756 44.098 46.5463 44.098 47.2617C44.098 47.9772 44.098 48.6479 44.1428 49.3633C44.1428 50.0787 44.1875 50.7495 44.2769 51.4202C44.3216 52.1356 44.3663 52.8063 44.411 53.477C44.4558 53.9689 44.5005 54.5055 44.5452 55.042C44.5899 55.5339 44.6346 56.0705 44.6346 56.6071C44.724 57.5461 44.724 58.4851 44.724 59.4241C44.6793 60.3184 44.6793 61.2574 44.6346 62.1964V62.3752C44.6346 62.6882 44.6346 62.9565 44.5899 63.2248C44.5899 63.5378 44.5899 63.8061 44.5899 64.1191C44.5899 64.3427 44.5005 64.5215 44.411 64.6557C44.3216 64.7898 44.2322 64.9239 44.1428 64.9687C43.8745 65.2369 43.5615 65.3711 43.2038 65.4158C42.7566 65.4605 42.4436 65.4158 42.1753 65.1922C41.9517 65.0134 41.8623 64.7898 41.8176 64.4768C41.8623 64.1638 41.8623 63.8955 41.8623 63.5825C41.8623 63.3142 41.8623 63.0459 41.907 62.7777C41.907 61.7939 41.907 60.8549 41.9517 59.8712C41.9517 58.9322 41.9517 57.9485 41.907 56.9648C41.8623 56.2941 41.8176 55.6681 41.7729 54.9973C41.7282 54.3713 41.6835 53.7453 41.6387 53.1193C41.594 52.4486 41.5493 51.7779 41.5046 51.1072C41.4152 50.4365 41.4152 49.7657 41.3705 49.095C41.3257 48.3796 41.3257 47.7089 41.3257 47.0382C41.3257 46.3227 41.3257 45.652 41.3257 44.9813C41.3257 44.4447 41.3257 43.8634 41.3257 43.2821C41.3257 42.7009 41.3257 42.1196 41.3257 41.5383C41.281 40.4651 41.281 39.392 41.3705 38.3188C41.4152 37.201 41.6387 36.1278 42.0412 35.0994C42.1306 34.8311 42.3095 34.6075 42.533 34.384C42.8013 34.2051 43.0696 34.071 43.3379 34.0262C43.472 34.0262 43.5615 34.0262 43.6956 34.0262C43.8745 34.0262 44.098 34.0262 44.3216 34.1157C44.724 34.2051 44.9923 34.4734 45.2159 34.9652C46.1102 37.1115 47.0492 39.2578 48.0329 41.4488C48.9719 43.5951 49.9556 45.7414 50.8946 47.9324C51.8336 50.0787 52.7279 52.2697 53.6222 54.416C53.8905 55.0868 54.2482 55.9811 54.5612 56.9201C54.5165 56.1599 54.4718 55.3998 54.4271 54.6396C54.3824 53.6112 54.2929 52.538 54.2482 51.4649C54.2035 50.7495 54.2035 50.034 54.1588 49.3186C54.1141 48.6032 54.0694 47.843 53.9799 47.0829C53.9799 45.026 53.9799 43.0586 53.9352 41.1358C53.7564 39.1684 53.5775 37.2457 53.7117 35.3677C53.8011 34.7864 54.1588 34.4734 54.7848 34.384C55.3214 34.3392 55.7238 34.4287 56.0815 34.7417C56.3498 34.9652 56.4392 35.2335 56.3945 35.636C56.2604 37.4693 56.4392 39.3473 56.5287 41.27C56.6181 43.1927 56.6628 45.1601 56.7522 47.1276C56.8864 48.1113 56.9311 49.095 56.9311 50.034C56.9758 50.973 57.0205 51.8673 57.0652 52.8063C57.11 53.6559 57.1547 54.5502 57.2441 55.4892C57.3335 56.2493 57.3782 57.0095 57.423 57.7696Z" fill="#FFD183"/>
<path d="M77.8547 52.4933C78.3912 52.9405 78.7042 53.6559 78.749 54.6843C78.7937 55.668 78.7937 56.6071 78.8384 57.5461C78.8831 58.4403 78.7937 59.3346 78.6595 60.1842C78.4807 61.0338 78.2124 61.8386 77.7652 62.5988C77.2734 63.3589 76.6027 64.0297 75.7084 64.6557C75.5742 64.7451 75.4401 64.8345 75.3954 64.8345C75.2612 64.9239 75.1718 64.9687 75.0377 65.0134C74.8141 65.1028 74.6352 65.1475 74.4117 65.1475C74.2328 65.1922 74.0539 65.1922 73.9198 65.1922L73.6068 65.1475C73.5621 65.1475 73.5174 65.1922 73.4727 65.1922C73.3385 65.1922 73.1597 65.1922 72.9808 65.2369C72.8019 65.2369 72.6678 65.2817 72.4889 65.2817C72.3548 65.3264 72.2206 65.3264 72.1312 65.3264C71.9971 65.3264 71.9076 65.3711 71.7735 65.3711C71.5946 65.4158 71.3711 65.4158 71.1922 65.4158C70.9686 65.4605 70.7898 65.4605 70.5662 65.4605C70.2532 65.4605 69.9402 65.4158 69.6272 65.4158C69.3142 65.4158 68.9565 65.3711 68.6435 65.3264C67.8386 65.2369 67.0785 65.0134 66.3631 64.7004C65.6923 64.3874 64.9769 63.8508 64.3062 63.0907C63.9485 62.6435 63.6355 62.1964 63.4119 61.7045C63.1883 61.2126 63.0095 60.7208 62.8753 60.2289C62.7412 59.7371 62.6517 59.2452 62.607 58.7086C62.5623 58.2168 62.5176 57.7249 62.5176 57.2331C62.4729 56.3388 62.4282 55.3998 62.3387 54.416C62.294 53.4323 62.2493 52.3592 62.1152 51.1519C62.0257 50.0787 61.981 49.0056 61.9363 47.9324C61.8916 46.8146 61.8916 45.7414 61.981 44.6236C62.0705 43.5504 62.2493 42.4773 62.5176 41.4041C62.7412 40.3757 63.1436 39.3026 63.6802 38.3188C63.859 37.9611 64.0826 37.5587 64.3509 37.1563C64.5745 36.7985 64.8875 36.4408 65.2005 36.0831C65.5582 35.7701 65.9159 35.4571 66.3183 35.1888C66.7655 34.9205 67.2573 34.697 67.7939 34.5628C68.1963 34.4287 68.5093 34.384 68.8223 34.2945C69.1353 34.2498 69.4931 34.2051 69.8061 34.1604C70.1638 34.1604 70.5215 34.1604 70.9239 34.1604C71.3264 34.2051 71.7735 34.2498 72.3101 34.2945C72.8466 34.3392 73.2044 34.5181 73.4727 34.8758C73.6962 35.2335 73.8304 35.636 73.7857 35.9937C73.7409 36.4408 73.6068 36.7985 73.2938 37.0221C72.9808 37.2904 72.6231 37.3798 72.1759 37.3351C71.9971 37.3351 71.8629 37.2904 71.7735 37.2904C71.6841 37.2457 71.5946 37.2457 71.5052 37.2457C71.4158 37.2457 71.3264 37.201 71.2369 37.201C71.1475 37.201 71.0134 37.201 70.8345 37.201C69.9849 37.201 69.2695 37.2904 68.6882 37.4693C67.9728 37.7375 67.3915 38.1847 66.9891 38.8107C66.5866 39.4814 66.2736 40.1521 66.0053 40.8228C65.737 41.6724 65.5135 42.522 65.3346 43.3716C65.2005 44.2211 65.111 45.0707 65.0663 45.9203C65.0663 46.8146 65.0663 47.6642 65.111 48.5137C65.1558 49.3633 65.2452 50.2129 65.2899 51.0177L65.3346 51.7332C65.424 52.4486 65.4688 53.2088 65.5135 53.9242C65.5582 54.6843 65.6029 55.4445 65.6476 56.2046V56.6965C65.6476 57.4119 65.6923 58.1721 65.7818 58.8875C65.8712 59.6029 66.0948 60.2289 66.4525 60.7655C66.8549 61.3021 67.3021 61.7045 67.7045 61.8834C68.1516 62.1069 68.6882 62.2411 69.3142 62.2858C69.8061 62.3305 70.2979 62.3752 70.7451 62.3752C71.1922 62.3752 71.6394 62.3305 72.1312 62.2858C72.2654 62.2411 72.3995 62.1964 72.5336 62.1964C72.7125 62.1964 72.8466 62.1964 72.9808 62.1964C73.1597 62.1964 73.3385 62.1964 73.4727 62.1964C73.6068 62.1964 73.7409 62.1516 73.8304 62.1516C73.9198 62.1069 74.0092 62.0175 74.0987 61.9281C74.7247 61.5256 75.1271 61.0785 75.3507 60.5419C75.5742 60.0054 75.7084 59.4241 75.7531 58.8428C75.7978 58.2168 75.7531 57.6355 75.7084 57.0095C75.6189 56.3835 75.5742 55.7575 75.5742 55.1762C75.4848 54.9079 75.4848 54.729 75.5295 54.6843C75.4401 54.6843 75.3507 54.6843 75.3059 54.6843C75.2165 54.6843 75.1271 54.6843 75.0377 54.6843C74.8141 54.6396 74.5458 54.6396 74.3222 54.6396C74.0539 54.6396 73.7857 54.5949 73.5621 54.5949C73.1149 54.6396 72.7125 54.6396 72.3101 54.6396C71.9076 54.6843 71.5052 54.6843 71.0581 54.6843C70.5662 54.6843 70.2085 54.5055 69.9402 54.1925C69.6719 53.8795 69.5378 53.5218 69.5378 53.1193C69.5378 52.7169 69.6719 52.3592 69.9402 52.0015C70.1638 51.6885 70.5662 51.5096 71.0581 51.5096C71.7735 51.5096 72.5784 51.4649 73.4279 51.4202C74.3222 51.3755 75.1271 51.4202 75.8872 51.5543C76.6921 51.7332 77.3181 52.0015 77.8547 52.4933Z" fill="#FFD183"/>
<path d="M36.0592 61.5256C36.3722 61.7492 36.6405 62.0622 36.7299 62.4199C36.9535 63.0459 36.8194 63.5825 36.2828 64.0744C35.8804 64.3874 35.4779 64.6109 34.9414 64.7898C34.4495 64.9687 33.9129 65.1028 33.3763 65.1922C32.7951 65.2817 32.2138 65.3264 31.6325 65.3264C31.0512 65.3264 30.5146 65.3711 29.978 65.3711C29.8439 65.3711 29.665 65.3711 29.4862 65.3711C29.352 65.3711 29.2179 65.3711 29.039 65.3711C28.9496 65.3711 28.8602 65.3711 28.726 65.3711C28.5919 65.3711 28.5025 65.3711 28.3683 65.4158C28.1448 65.4158 27.9212 65.4158 27.6529 65.4158C27.4293 65.4605 27.2058 65.4605 26.9822 65.4605C26.5797 65.4605 26.1773 65.4158 25.7302 65.3711C25.2383 65.3264 24.8359 65.2369 24.4335 65.1028C24.031 64.9687 23.6286 64.7451 23.3156 64.4321C23.0026 64.1638 22.779 63.7614 22.6449 63.2695C22.3766 62.2411 22.2424 61.2126 22.2872 60.0948C22.3319 58.9769 22.3766 57.9038 22.5107 56.8306C22.5554 56.2941 22.5554 55.8022 22.6002 55.3103C22.6449 54.8185 22.6896 54.3266 22.6896 53.8348C22.6896 53.2535 22.7343 52.7169 22.7343 52.1356C22.7343 51.5543 22.7343 51.0177 22.7343 50.4812C22.779 48.2902 22.8237 46.0992 22.8237 43.9081C22.8237 41.7171 22.7343 39.5261 22.5554 37.2904C22.5554 37.2457 22.5554 37.1115 22.5107 36.9327C22.466 36.7538 22.466 36.575 22.466 36.3514C22.4213 36.0831 22.466 35.8595 22.466 35.5913C22.5107 35.323 22.6002 35.0994 22.7343 34.8758C22.8684 34.6075 23.1367 34.4287 23.5392 34.3392C23.9416 34.2498 24.3887 34.2051 24.8806 34.2051C25.3277 34.2051 25.7749 34.2051 26.222 34.2051C26.7139 34.2498 27.0269 34.2945 27.2952 34.2945C27.5635 34.2945 28.0106 34.2498 28.6366 34.2498C29.2626 34.2051 29.9333 34.2051 30.6488 34.2051C31.4089 34.2051 32.0796 34.1604 32.7951 34.1604C33.4658 34.1604 33.9576 34.1604 34.2706 34.1604C34.8519 34.2051 35.2544 34.4287 35.5226 34.7864C35.7909 35.1888 35.9251 35.5913 35.8804 36.0384C35.8804 36.4408 35.7462 36.7985 35.4779 37.1563C35.2096 37.4693 34.8072 37.6481 34.2259 37.6034C33.5552 37.5587 32.8845 37.5587 32.2138 37.6034C31.4983 37.6481 30.8276 37.6928 30.1569 37.7375C29.6203 37.7823 29.0838 37.827 28.5919 37.8717C28.0553 37.9164 27.5188 37.9164 26.9822 37.9164C26.8033 37.9164 26.6692 37.9164 26.4903 37.9164C26.3562 37.9164 26.1773 37.9164 25.9985 37.8717C26.1326 39.7497 26.222 41.5383 26.222 43.2821C26.222 45.026 26.222 46.591 26.1773 47.9772C26.6692 47.8877 27.2505 47.843 27.8318 47.7983C28.3683 47.7983 28.9943 47.7536 29.665 47.7536C30.0675 47.7536 30.4699 47.7536 30.8723 47.7536C31.2301 47.7536 31.6325 47.7983 32.0349 47.7983C32.3926 47.843 32.7056 47.843 33.0186 47.843C33.3316 47.843 33.6446 47.843 34.0024 47.8877C34.5389 47.8877 34.9414 48.0666 35.2096 48.4243C35.5226 48.782 35.6568 49.1845 35.6568 49.5869C35.6568 49.9893 35.5226 50.3917 35.2544 50.7495C34.9861 51.1072 34.5389 51.286 34.0024 51.286C33.6446 51.286 33.2869 51.286 32.9739 51.286C32.6162 51.2413 32.2585 51.2413 31.9008 51.2413C31.5431 51.1966 31.1406 51.1966 30.7829 51.1966C30.3805 51.1519 29.978 51.1519 29.5756 51.1519C28.9049 51.1519 28.2789 51.1966 27.6976 51.2413C27.1163 51.286 26.5797 51.3755 26.0879 51.5096H26.0432L25.9985 53.3429C25.9537 54.416 25.909 55.5339 25.8643 56.6965C25.8196 57.8143 25.8196 58.9322 25.7749 60.0948V60.4972C25.7302 60.7208 25.7302 60.9444 25.7302 61.1679C25.7302 61.3915 25.7749 61.6151 25.8196 61.8834C26.2667 61.9281 26.8033 61.9728 27.474 61.9728H28.5472C29.352 61.9281 30.0675 61.8834 30.6488 61.8386C31.2748 61.8386 31.8561 61.7939 32.3926 61.7045C32.7951 61.7045 33.1975 61.6151 33.6446 61.5256C33.6894 61.5256 33.7341 61.5256 33.7788 61.4809C33.8682 61.4809 33.9129 61.4362 34.0024 61.4362C34.0918 61.3468 34.1812 61.3468 34.2706 61.3468H34.3601C34.5836 61.2126 34.8072 61.1679 35.0308 61.1679C35.3885 61.1679 35.7462 61.3021 36.0592 61.5256Z" stroke="#262626" stroke-width="0.558999" mask="url(#path-6-outside-1_261_3603)"/>
<path d="M57.423 57.7696C57.4677 58.5298 57.4677 59.3346 57.4677 60.0948C57.423 60.8549 57.3335 61.6151 57.1994 62.3752C57.11 62.9118 56.9758 63.4484 56.797 63.9402C56.797 64.1191 56.7522 64.2979 56.6628 64.4321C56.6181 64.4768 56.6181 64.5662 56.6181 64.6109C56.4392 65.0134 56.1262 65.2817 55.5897 65.3264C55.5449 65.3264 55.4555 65.3264 55.3661 65.3264C55.1425 65.3711 54.9189 65.3711 54.6507 65.2817C54.2482 65.1922 53.9799 64.8792 53.8458 64.3874C53.0409 62.1964 51.6548 57.8143 50.7605 55.668C49.8662 53.477 48.9272 51.286 47.9882 49.1397C47.0492 46.9487 46.0655 44.8024 45.1265 42.6561C44.7688 41.8513 44.411 41.0017 44.0533 40.1968L44.098 41.8513C44.098 42.4326 44.098 42.9691 44.098 43.5504C44.098 44.1317 44.098 44.6683 44.098 45.1601V45.2049C44.098 45.8756 44.098 46.5463 44.098 47.2617C44.098 47.9772 44.098 48.6479 44.1428 49.3633C44.1428 50.0787 44.1875 50.7495 44.2769 51.4202C44.3216 52.1356 44.3663 52.8063 44.411 53.477C44.4558 53.9689 44.5005 54.5055 44.5452 55.042C44.5899 55.5339 44.6346 56.0705 44.6346 56.6071C44.724 57.5461 44.724 58.4851 44.724 59.4241C44.6793 60.3184 44.6793 61.2574 44.6346 62.1964V62.3752C44.6346 62.6882 44.6346 62.9565 44.5899 63.2248C44.5899 63.5378 44.5899 63.8061 44.5899 64.1191C44.5899 64.3427 44.5005 64.5215 44.411 64.6557C44.3216 64.7898 44.2322 64.9239 44.1428 64.9687C43.8745 65.2369 43.5615 65.3711 43.2038 65.4158C42.7566 65.4605 42.4436 65.4158 42.1753 65.1922C41.9517 65.0134 41.8623 64.7898 41.8176 64.4768C41.8623 64.1638 41.8623 63.8955 41.8623 63.5825C41.8623 63.3142 41.8623 63.0459 41.907 62.7777C41.907 61.7939 41.907 60.8549 41.9517 59.8712C41.9517 58.9322 41.9517 57.9485 41.907 56.9648C41.8623 56.2941 41.8176 55.6681 41.7729 54.9973C41.7282 54.3713 41.6835 53.7453 41.6387 53.1193C41.594 52.4486 41.5493 51.7779 41.5046 51.1072C41.4152 50.4365 41.4152 49.7657 41.3705 49.095C41.3257 48.3796 41.3257 47.7089 41.3257 47.0382C41.3257 46.3227 41.3257 45.652 41.3257 44.9813C41.3257 44.4447 41.3257 43.8634 41.3257 43.2821C41.3257 42.7009 41.3257 42.1196 41.3257 41.5383C41.281 40.4651 41.281 39.392 41.3705 38.3188C41.4152 37.201 41.6387 36.1278 42.0412 35.0994C42.1306 34.8311 42.3095 34.6075 42.533 34.384C42.8013 34.2051 43.0696 34.071 43.3379 34.0262C43.472 34.0262 43.5615 34.0262 43.6956 34.0262C43.8745 34.0262 44.098 34.0262 44.3216 34.1157C44.724 34.2051 44.9923 34.4734 45.2159 34.9652C46.1102 37.1115 47.0492 39.2578 48.0329 41.4488C48.9719 43.5951 49.9556 45.7414 50.8946 47.9324C51.8336 50.0787 52.7279 52.2697 53.6222 54.416C53.8905 55.0868 54.2482 55.9811 54.5612 56.9201C54.5165 56.1599 54.4718 55.3998 54.4271 54.6396C54.3824 53.6112 54.2929 52.538 54.2482 51.4649C54.2035 50.7495 54.2035 50.034 54.1588 49.3186C54.1141 48.6032 54.0694 47.843 53.9799 47.0829C53.9799 45.026 53.9799 43.0586 53.9352 41.1358C53.7564 39.1684 53.5775 37.2457 53.7117 35.3677C53.8011 34.7864 54.1588 34.4734 54.7848 34.384C55.3214 34.3392 55.7238 34.4287 56.0815 34.7417C56.3498 34.9652 56.4392 35.2335 56.3945 35.636C56.2604 37.4693 56.4392 39.3473 56.5287 41.27C56.6181 43.1927 56.6628 45.1601 56.7522 47.1276C56.8864 48.1113 56.9311 49.095 56.9311 50.034C56.9758 50.973 57.0205 51.8673 57.0652 52.8063C57.11 53.6559 57.1547 54.5502 57.2441 55.4892C57.3335 56.2493 57.3782 57.0095 57.423 57.7696Z" stroke="#262626" stroke-width="0.558999" mask="url(#path-6-outside-1_261_3603)"/>
<path d="M77.8547 52.4933C78.3912 52.9405 78.7042 53.6559 78.749 54.6843C78.7937 55.668 78.7937 56.6071 78.8384 57.5461C78.8831 58.4403 78.7937 59.3346 78.6595 60.1842C78.4807 61.0338 78.2124 61.8386 77.7652 62.5988C77.2734 63.3589 76.6027 64.0297 75.7084 64.6557C75.5742 64.7451 75.4401 64.8345 75.3954 64.8345C75.2612 64.9239 75.1718 64.9687 75.0377 65.0134C74.8141 65.1028 74.6352 65.1475 74.4117 65.1475C74.2328 65.1922 74.0539 65.1922 73.9198 65.1922L73.6068 65.1475C73.5621 65.1475 73.5174 65.1922 73.4727 65.1922C73.3385 65.1922 73.1597 65.1922 72.9808 65.2369C72.8019 65.2369 72.6678 65.2817 72.4889 65.2817C72.3548 65.3264 72.2206 65.3264 72.1312 65.3264C71.9971 65.3264 71.9076 65.3711 71.7735 65.3711C71.5946 65.4158 71.3711 65.4158 71.1922 65.4158C70.9686 65.4605 70.7898 65.4605 70.5662 65.4605C70.2532 65.4605 69.9402 65.4158 69.6272 65.4158C69.3142 65.4158 68.9565 65.3711 68.6435 65.3264C67.8386 65.2369 67.0785 65.0134 66.3631 64.7004C65.6923 64.3874 64.9769 63.8508 64.3062 63.0907C63.9485 62.6435 63.6355 62.1964 63.4119 61.7045C63.1883 61.2126 63.0095 60.7208 62.8753 60.2289C62.7412 59.7371 62.6517 59.2452 62.607 58.7086C62.5623 58.2168 62.5176 57.7249 62.5176 57.2331C62.4729 56.3388 62.4282 55.3998 62.3387 54.416C62.294 53.4323 62.2493 52.3592 62.1152 51.1519C62.0257 50.0787 61.981 49.0056 61.9363 47.9324C61.8916 46.8146 61.8916 45.7414 61.981 44.6236C62.0705 43.5504 62.2493 42.4773 62.5176 41.4041C62.7412 40.3757 63.1436 39.3026 63.6802 38.3188C63.859 37.9611 64.0826 37.5587 64.3509 37.1563C64.5745 36.7985 64.8875 36.4408 65.2005 36.0831C65.5582 35.7701 65.9159 35.4571 66.3183 35.1888C66.7655 34.9205 67.2573 34.697 67.7939 34.5628C68.1963 34.4287 68.5093 34.384 68.8223 34.2945C69.1353 34.2498 69.4931 34.2051 69.8061 34.1604C70.1638 34.1604 70.5215 34.1604 70.9239 34.1604C71.3264 34.2051 71.7735 34.2498 72.3101 34.2945C72.8466 34.3392 73.2044 34.5181 73.4727 34.8758C73.6962 35.2335 73.8304 35.636 73.7857 35.9937C73.7409 36.4408 73.6068 36.7985 73.2938 37.0221C72.9808 37.2904 72.6231 37.3798 72.1759 37.3351C71.9971 37.3351 71.8629 37.2904 71.7735 37.2904C71.6841 37.2457 71.5946 37.2457 71.5052 37.2457C71.4158 37.2457 71.3264 37.201 71.2369 37.201C71.1475 37.201 71.0134 37.201 70.8345 37.201C69.9849 37.201 69.2695 37.2904 68.6882 37.4693C67.9728 37.7375 67.3915 38.1847 66.9891 38.8107C66.5866 39.4814 66.2736 40.1521 66.0053 40.8228C65.737 41.6724 65.5135 42.522 65.3346 43.3716C65.2005 44.2211 65.111 45.0707 65.0663 45.9203C65.0663 46.8146 65.0663 47.6642 65.111 48.5137C65.1558 49.3633 65.2452 50.2129 65.2899 51.0177L65.3346 51.7332C65.424 52.4486 65.4688 53.2088 65.5135 53.9242C65.5582 54.6843 65.6029 55.4445 65.6476 56.2046V56.6965C65.6476 57.4119 65.6923 58.1721 65.7818 58.8875C65.8712 59.6029 66.0948 60.2289 66.4525 60.7655C66.8549 61.3021 67.3021 61.7045 67.7045 61.8834C68.1516 62.1069 68.6882 62.2411 69.3142 62.2858C69.8061 62.3305 70.2979 62.3752 70.7451 62.3752C71.1922 62.3752 71.6394 62.3305 72.1312 62.2858C72.2654 62.2411 72.3995 62.1964 72.5336 62.1964C72.7125 62.1964 72.8466 62.1964 72.9808 62.1964C73.1597 62.1964 73.3385 62.1964 73.4727 62.1964C73.6068 62.1964 73.7409 62.1516 73.8304 62.1516C73.9198 62.1069 74.0092 62.0175 74.0987 61.9281C74.7247 61.5256 75.1271 61.0785 75.3507 60.5419C75.5742 60.0054 75.7084 59.4241 75.7531 58.8428C75.7978 58.2168 75.7531 57.6355 75.7084 57.0095C75.6189 56.3835 75.5742 55.7575 75.5742 55.1762C75.4848 54.9079 75.4848 54.729 75.5295 54.6843C75.4401 54.6843 75.3507 54.6843 75.3059 54.6843C75.2165 54.6843 75.1271 54.6843 75.0377 54.6843C74.8141 54.6396 74.5458 54.6396 74.3222 54.6396C74.0539 54.6396 73.7857 54.5949 73.5621 54.5949C73.1149 54.6396 72.7125 54.6396 72.3101 54.6396C71.9076 54.6843 71.5052 54.6843 71.0581 54.6843C70.5662 54.6843 70.2085 54.5055 69.9402 54.1925C69.6719 53.8795 69.5378 53.5218 69.5378 53.1193C69.5378 52.7169 69.6719 52.3592 69.9402 52.0015C70.1638 51.6885 70.5662 51.5096 71.0581 51.5096C71.7735 51.5096 72.5784 51.4649 73.4279 51.4202C74.3222 51.3755 75.1271 51.4202 75.8872 51.5543C76.6921 51.7332 77.3181 52.0015 77.8547 52.4933Z" stroke="#262626" stroke-width="0.558999" mask="url(#path-6-outside-1_261_3603)"/>
</svg>
