<svg width="34" height="28" viewBox="0 0 34 28" fill="none" xmlns="http://www.w3.org/2000/svg">
<path d="M1 10.252C1 8.66757 2.22922 7.36225 3.79681 7.27775C10.5687 6.91274 15.4969 6.90402 22.2111 7.27216C23.7746 7.35789 25 8.66131 25 10.2434V24C25 25.6569 23.6569 27 22 27H4C2.34315 27 1 25.6569 1 24V10.252Z" stroke="#898C99" stroke-width="2"/>
<path fill-rule="evenodd" clip-rule="evenodd" d="M11.8506 2.2763C18.5878 1.91316 23.4797 1.90458 30.1563 2.27066C31.1815 2.32688 32 3.1842 32 4.24337V18C32 19.1046 31.1046 20 30 20H28V21C28 21.3453 27.9562 21.6804 27.874 22H30C32.2091 22 34 20.2091 34 18V4.24337C34 2.13842 32.3676 0.388905 30.2658 0.273663C23.514 -0.0965395 18.5496 -0.087679 11.743 0.279204C9.63756 0.392688 8 2.14348 8 4.25196V5H10V4.25196C10 3.19166 10.8209 2.33181 11.8506 2.2763Z" fill="#898C99"/>
</svg>
