<svg width="11" height="13" viewBox="0 0 11 13" fill="none" xmlns="http://www.w3.org/2000/svg">
<path d="M7.12983 12.0166C7.11001 12.0167 7.09068 12.0105 7.07465 11.9988C7.05861 11.9872 7.04669 11.9707 7.04062 11.9519C7.03454 11.933 7.03463 11.9127 7.04086 11.8939C7.04709 11.875 7.05914 11.8587 7.07528 11.8472L7.37027 11.6351L6.73115 12.0036C6.71049 12.0154 6.68609 12.0189 6.66294 12.0133C6.63979 12.0078 6.61963 11.9936 6.60658 11.9737C6.59354 11.9538 6.58859 11.9296 6.59274 11.9062C6.5969 11.8827 6.60986 11.8618 6.62896 11.8476L7.05529 11.533L6.23999 12.0036C6.21951 12.0154 6.1953 12.0191 6.17224 12.0138C6.14917 12.0085 6.12898 11.9946 6.11575 11.975C6.10251 11.9554 6.09722 11.9314 6.10093 11.9081C6.10464 11.8847 6.11708 11.8636 6.13575 11.8491L6.74591 11.373L5.65337 12.0036C5.63283 12.0152 5.60866 12.0186 5.5857 12.0131C5.56275 12.0077 5.54272 11.9937 5.52963 11.9741C5.51655 11.9544 5.51138 11.9306 5.51517 11.9073C5.51896 11.884 5.53142 11.863 5.55006 11.8485L6.09016 11.4375L5.10916 12.0036C5.08879 12.0153 5.06476 12.0189 5.04184 12.0137C5.01893 12.0085 4.99882 11.9948 4.98552 11.9755C4.97223 11.9561 4.96673 11.9324 4.97011 11.9092C4.9735 11.8859 4.98552 11.8648 5.00379 11.85L5.6728 11.3129L4.47714 12.0041C4.4565 12.0159 4.43218 12.0193 4.40911 12.0137C4.38603 12.0082 4.36594 11.994 4.3529 11.9742C4.33987 11.9544 4.33488 11.9303 4.33894 11.9069C4.34299 11.8836 4.3558 11.8626 4.37476 11.8483L4.82911 11.5107L3.97309 12.0036C3.95252 12.0155 3.92815 12.0192 3.90497 12.0138C3.88179 12.0084 3.86154 11.9944 3.84835 11.9746C3.83517 11.9548 3.83004 11.9307 3.83402 11.9072C3.83801 11.8837 3.85079 11.8627 3.86978 11.8483L4.40558 11.441L3.43093 12.0036C3.41025 12.0152 3.38591 12.0186 3.36285 12.013C3.33979 12.0073 3.31973 11.9931 3.30677 11.9732C3.2938 11.9533 3.2889 11.9293 3.29305 11.9059C3.2972 11.8825 3.31009 11.8616 3.32911 11.8474L3.70463 11.5739L2.95939 12.0036C2.93869 12.0153 2.91427 12.0188 2.89112 12.0131C2.86798 12.0075 2.84786 11.9932 2.83488 11.9733C2.8219 11.9533 2.81704 11.9291 2.82129 11.9057C2.82555 11.8823 2.83859 11.8613 2.85776 11.8472L3.20805 11.5926L2.49495 12.0036C2.47483 12.0149 2.4512 12.0185 2.42864 12.0134C2.40608 12.0084 2.38618 11.9952 2.37279 11.9764C2.35941 11.9575 2.35348 11.9344 2.35617 11.9114C2.35886 11.8884 2.36996 11.8673 2.38734 11.852L3.14266 11.2002L1.7514 12.0036C1.73122 12.0153 1.7074 12.019 1.68462 12.014C1.66184 12.009 1.64174 11.9957 1.62828 11.9767C1.61482 11.9576 1.60901 11.9341 1.61198 11.9109C1.61495 11.8878 1.6265 11.8666 1.64435 11.8515L2.38398 11.2245L1.19354 11.912C1.17323 11.9234 1.14939 11.9268 1.1267 11.9216C1.10401 11.9163 1.0841 11.9028 1.07089 11.8836C1.05767 11.8644 1.0521 11.841 1.05526 11.8179C1.05843 11.7948 1.0701 11.7737 1.08799 11.7588L1.66396 11.2897L1.06613 11.6344C1.04623 11.6461 1.02269 11.6501 1.00006 11.6455C0.977421 11.6408 0.957297 11.628 0.943572 11.6094C0.929846 11.5908 0.923491 11.5678 0.925735 11.5449C0.927978 11.5219 0.938661 11.5005 0.95572 11.4849L1.35066 11.1178L1.06688 11.2817C1.04798 11.2924 1.02591 11.2963 1.00449 11.2925C0.983059 11.2888 0.963616 11.2776 0.949512 11.2611C0.935407 11.2445 0.927526 11.2236 0.927226 11.2018C0.926927 11.1801 0.93423 11.1589 0.947873 11.1419L1.30284 10.7044C1.29762 10.6846 1.29906 10.6636 1.30693 10.6447C1.31479 10.6258 1.32865 10.61 1.34637 10.5998L1.43978 10.5458C1.45868 10.5349 1.48079 10.531 1.50229 10.5347C1.52378 10.5384 1.54329 10.5495 1.55744 10.5661C1.5716 10.5827 1.5795 10.6037 1.57978 10.6256C1.58006 10.6474 1.57269 10.6686 1.55897 10.6855L1.41194 10.8664L1.9683 10.5463C1.9882 10.5346 2.01174 10.5307 2.03437 10.5353C2.05701 10.5399 2.07713 10.5527 2.09086 10.5713C2.10458 10.5899 2.11094 10.6129 2.10869 10.6359C2.10645 10.6589 2.09577 10.6802 2.07871 10.6958L1.68414 11.0622L2.58089 10.545C2.6012 10.5336 2.62504 10.5302 2.64773 10.5355C2.67042 10.5408 2.69033 10.5543 2.70355 10.5735C2.71676 10.5927 2.72234 10.6161 2.71917 10.6392C2.71601 10.6623 2.70433 10.6833 2.68644 10.6982L2.11047 11.1673L3.18937 10.5447C3.20956 10.5332 3.2333 10.5296 3.25598 10.5347C3.27865 10.5397 3.29863 10.5531 3.312 10.5721C3.32538 10.5911 3.33119 10.6144 3.32831 10.6374C3.32543 10.6605 3.31406 10.6816 3.29642 10.6967L2.55679 11.3237L3.90733 10.5441C3.92745 10.5325 3.95116 10.5289 3.97384 10.5338C3.99651 10.5388 4.01652 10.552 4.02998 10.5709C4.04343 10.5899 4.04937 10.6131 4.04662 10.6361C4.04388 10.6592 4.03265 10.6804 4.01512 10.6956L3.2598 11.3473L4.65182 10.5439C4.67252 10.5321 4.69694 10.5287 4.72008 10.5343C4.74322 10.54 4.76334 10.5542 4.77632 10.5742C4.7893 10.5942 4.79416 10.6184 4.78991 10.6418C4.78566 10.6652 4.77262 10.6861 4.75345 10.7003L4.40241 10.9557L5.11588 10.5447C5.13656 10.533 5.1609 10.5296 5.18396 10.5353C5.20703 10.5409 5.22708 10.5551 5.24005 10.575C5.25301 10.5949 5.25792 10.619 5.25377 10.6423C5.24962 10.6657 5.23672 10.6866 5.2177 10.7008L4.84256 10.9751L5.58873 10.5443C5.6093 10.5323 5.63367 10.5287 5.65685 10.534C5.68003 10.5394 5.70028 10.5535 5.71347 10.5733C5.72665 10.5931 5.73178 10.6172 5.7278 10.6407C5.72381 10.6641 5.71103 10.6852 5.69204 10.6995L5.15642 11.1068L6.13164 10.5439C6.15227 10.5322 6.17659 10.5288 6.19967 10.5343C6.22274 10.5399 6.24284 10.554 6.25587 10.5738C6.2689 10.5937 6.2739 10.6177 6.26984 10.6411C6.26578 10.6645 6.25297 10.6854 6.23401 10.6997L5.77985 11.0373L6.63531 10.5435C6.65567 10.532 6.6796 10.5286 6.70239 10.5339C6.72517 10.5391 6.74515 10.5528 6.75836 10.5721C6.77158 10.5914 6.77707 10.6149 6.77377 10.6381C6.77046 10.6612 6.75858 10.6823 6.74049 10.6971L6.07129 11.2344L7.2692 10.5432C7.28973 10.5318 7.3138 10.5285 7.33661 10.5341C7.35943 10.5396 7.37932 10.5536 7.39232 10.5731C7.40532 10.5927 7.41049 10.6164 7.40678 10.6396C7.40308 10.6628 7.39077 10.6837 7.37232 10.6982L6.83241 11.1092L7.81397 10.5428C7.83444 10.5312 7.85855 10.5277 7.88146 10.5331C7.90438 10.5385 7.92442 10.5523 7.93757 10.5718C7.95072 10.5914 7.95601 10.6151 7.95239 10.6384C7.94877 10.6617 7.9365 10.6827 7.91803 10.6973L7.30843 11.1731L8.40116 10.5422C8.42182 10.5304 8.44621 10.5269 8.46937 10.5325C8.49252 10.538 8.51268 10.5522 8.52572 10.5721C8.53877 10.592 8.54372 10.6162 8.53956 10.6396C8.5354 10.6631 8.52245 10.684 8.50335 10.6982L8.07627 11.0117L8.89213 10.5406C8.91288 10.5285 8.93748 10.5249 8.96081 10.5305C8.98414 10.5361 9.00442 10.5505 9.01744 10.5707C9.03046 10.5908 9.03523 10.6152 9.03075 10.6388C9.02627 10.6624 9.01289 10.6833 8.99338 10.6973L8.69764 10.9101L9.33807 10.5404C9.35864 10.529 9.38272 10.5259 9.40552 10.5315C9.42832 10.5371 9.44816 10.5511 9.46109 10.5707C9.47403 10.5903 9.4791 10.6141 9.47531 10.6373C9.47152 10.6604 9.45914 10.6813 9.44064 10.6958L8.94612 11.0674L9.5602 10.7124C9.58063 10.7007 9.60473 10.6972 9.62767 10.7025C9.65061 10.7078 9.6707 10.7215 9.68393 10.741C9.69715 10.7605 9.70253 10.7843 9.69899 10.8075C9.69545 10.8308 9.68324 10.8519 9.66482 10.8666L9.24858 11.1948L9.83483 10.8565C9.8553 10.8448 9.87941 10.8414 9.90232 10.8468C9.92524 10.8522 9.94528 10.866 9.95843 10.8855C9.97158 10.905 9.97687 10.9288 9.97325 10.9521C9.96963 10.9753 9.95736 10.9964 9.93889 11.011L9.73507 11.1698L9.92581 11.0599C9.94572 11.0476 9.96952 11.0432 9.99251 11.0476C10.0155 11.052 10.036 11.0649 10.05 11.0837C10.0639 11.1025 10.0703 11.1258 10.0679 11.1491C10.0654 11.1724 10.0543 11.1939 10.0368 11.2094L9.78663 11.4461L9.92918 11.3641C9.94835 11.3532 9.97075 11.3494 9.99242 11.3535C10.0141 11.3575 10.0336 11.3691 10.0476 11.3862C10.0615 11.4032 10.069 11.4247 10.0687 11.4467C10.0683 11.4688 10.0602 11.49 10.0458 11.5066L9.96038 11.6032C9.97958 11.606 9.99743 11.6147 10.0114 11.6282C10.0255 11.6416 10.0349 11.6591 10.0386 11.6781C10.0422 11.6972 10.0398 11.7169 10.0317 11.7346C10.0236 11.7522 10.0103 11.7669 9.99344 11.7766L9.59888 12.0036C9.5797 12.0144 9.5573 12.0182 9.53563 12.0141C9.51397 12.0101 9.49443 11.9985 9.48047 11.9814C9.46652 11.9644 9.45905 11.9429 9.45938 11.9209C9.45972 11.8989 9.46783 11.8776 9.4823 11.861L9.52583 11.8119L9.19328 12.0036C9.17338 12.0157 9.14967 12.0199 9.12681 12.0154C9.10394 12.0109 9.08358 11.9981 9.06971 11.9794C9.05583 11.9607 9.04945 11.9374 9.05182 11.9143C9.05419 11.8911 9.06513 11.8696 9.0825 11.8541L9.33228 11.6176L8.66495 12.0036C8.64448 12.0152 8.62037 12.0186 8.59746 12.0133C8.57454 12.0079 8.5545 11.994 8.54135 11.9745C8.5282 11.955 8.52291 11.9312 8.52653 11.908C8.53015 11.8847 8.54242 11.8637 8.56089 11.8491L8.7649 11.6899L8.22143 12.0036C8.20101 12.015 8.17702 12.0184 8.15421 12.0131C8.1314 12.0077 8.11145 11.9939 8.0983 11.9745C8.08516 11.9551 8.07979 11.9315 8.08325 11.9083C8.08671 11.8852 8.09876 11.8641 8.117 11.8494L8.53305 11.5212L7.6974 12.0036C7.67682 12.0149 7.65274 12.0181 7.62994 12.0124C7.60715 12.0068 7.5873 11.9928 7.57437 11.9732C7.56144 11.9536 7.55636 11.9298 7.56015 11.9067C7.56394 11.8835 7.57632 11.8626 7.59483 11.8481L8.08935 11.4767L7.17653 12.0036C7.16241 12.012 7.14629 12.0165 7.12983 12.0166Z" fill="#B58137"/>
<path d="M8.26461 5.52613C8.24582 5.52614 8.22747 5.52049 8.21194 5.50991C8.19641 5.49933 8.18443 5.48431 8.17757 5.46682C8.17071 5.44932 8.16929 5.43017 8.17348 5.41185C8.17768 5.39354 8.1873 5.37691 8.20109 5.36415L8.9411 4.67777C8.93741 4.65868 8.93976 4.63892 8.94783 4.62124C8.9559 4.60356 8.96929 4.58884 8.98612 4.57912L9.15669 4.48085C9.17659 4.4693 9.20005 4.46549 9.22258 4.47017C9.24511 4.47484 9.26512 4.48767 9.27878 4.50619C9.29244 4.52471 9.29878 4.54761 9.29659 4.57052C9.2944 4.59342 9.28383 4.61472 9.26692 4.63031L8.93568 4.9367L9.42796 4.65273C9.43859 4.64597 9.45048 4.64143 9.46291 4.63939C9.47534 4.63734 9.48806 4.63784 9.50029 4.64083C9.51253 4.64383 9.52403 4.64927 9.53411 4.65683C9.54419 4.66439 9.55264 4.67391 9.55894 4.68482C9.56525 4.69572 9.56928 4.70779 9.5708 4.7203C9.57232 4.7328 9.57129 4.74549 9.56778 4.75759C9.56427 4.76969 9.55835 4.78095 9.55037 4.7907C9.5424 4.80046 9.53253 4.80849 9.52137 4.81433L8.31132 5.51342C8.29716 5.52174 8.28104 5.52613 8.26461 5.52613ZM4.02636 6.02961C4.00641 6.02958 3.987 6.02316 3.97096 6.0113C3.95492 5.99943 3.94311 5.98275 3.93724 5.96368C3.93137 5.94461 3.93176 5.92417 3.93835 5.90534C3.94494 5.88651 3.95739 5.87029 3.97386 5.85904L4.23541 5.68025L4.21057 5.69445C4.18967 5.7064 4.16497 5.70982 4.14161 5.70399C4.11825 5.69817 4.09805 5.68355 4.0852 5.66319C4.07236 5.64283 4.06787 5.6183 4.07268 5.59471C4.07748 5.57112 4.09121 5.5503 4.11099 5.53659L4.29576 5.40955C4.27763 5.41347 4.25875 5.4119 4.24151 5.40504C4.22428 5.39819 4.20947 5.38636 4.19898 5.37106C4.18571 5.35163 4.18026 5.32791 4.18373 5.30463C4.18719 5.28135 4.19931 5.26024 4.21767 5.24552L5.11834 4.52644L4.52368 4.86982C4.50345 4.88141 4.47961 4.88502 4.45686 4.87994C4.4341 4.87485 4.41407 4.86144 4.4007 4.84233C4.38733 4.82322 4.38159 4.79981 4.38461 4.77669C4.38763 4.75356 4.39918 4.73241 4.41701 4.71737L5.14319 4.10833L4.72097 4.35232C4.70036 4.36396 4.67611 4.36734 4.6531 4.36178C4.6301 4.35622 4.61006 4.34214 4.59704 4.32239C4.58402 4.30263 4.57898 4.27866 4.58295 4.25533C4.58691 4.232 4.59958 4.21105 4.6184 4.1967L4.76524 4.08703C4.75285 4.08536 4.74093 4.08118 4.73021 4.07476C4.71948 4.06833 4.71017 4.0598 4.70284 4.04967C4.68938 4.03065 4.6835 4.00729 4.68637 3.98417C4.68924 3.96105 4.70064 3.93983 4.71835 3.92468L4.88929 3.7784C4.87352 3.77705 4.85835 3.77172 4.84521 3.7629C4.83206 3.75408 4.82138 3.74207 4.81415 3.72798C4.80692 3.7139 4.80339 3.69821 4.80389 3.68239C4.80438 3.66657 4.80889 3.65114 4.81699 3.63754L4.96645 3.38682C4.96154 3.38162 4.95728 3.37585 4.95375 3.36963C4.94136 3.34818 4.938 3.32268 4.94442 3.29875C4.95083 3.27482 4.96648 3.25442 4.98794 3.24203L5.10825 3.17254C5.12614 3.16222 5.14694 3.15812 5.16741 3.16087C5.18787 3.16363 5.20685 3.1731 5.22136 3.18778C5.23588 3.20247 5.24512 3.22156 5.24764 3.24205C5.25016 3.26255 5.24582 3.2833 5.23529 3.30107L5.16056 3.42493L5.60127 3.17048C5.62144 3.15883 5.64524 3.15514 5.66799 3.16012C5.69074 3.16511 5.71081 3.17842 5.72426 3.19743C5.73771 3.21645 5.74357 3.2398 5.74069 3.26292C5.73781 3.28603 5.7264 3.30723 5.7087 3.32237L5.60688 3.40961L5.90766 3.23587C5.92827 3.22423 5.95252 3.22085 5.97553 3.22641C5.99853 3.23197 6.01857 3.24605 6.03159 3.26581C6.04461 3.28556 6.04965 3.30953 6.04568 3.33286C6.04172 3.35619 6.02905 3.37714 6.01023 3.39149L5.99155 3.4055C6.01218 3.39839 6.03466 3.39873 6.05508 3.40646C6.07549 3.4142 6.09255 3.42884 6.1033 3.44784C6.11404 3.46684 6.11779 3.48901 6.11389 3.51049C6.11 3.53197 6.0987 3.55141 6.08197 3.56542L5.35598 4.17428L6.1014 3.74459C6.12178 3.73301 6.14577 3.72953 6.1686 3.73482C6.19143 3.7401 6.21144 3.75378 6.22466 3.77314C6.23788 3.7925 6.24334 3.81611 6.23995 3.83931C6.23657 3.8625 6.22459 3.88357 6.20639 3.89834L5.30535 4.61761L6.23161 4.08236C6.25251 4.07042 6.27721 4.067 6.30057 4.07282C6.32393 4.07865 6.34413 4.09326 6.35698 4.11362C6.36982 4.13398 6.37431 4.15852 6.3695 4.1821C6.3647 4.20569 6.35097 4.22651 6.33119 4.24023L6.19331 4.33495L6.30373 4.27124C6.3246 4.2599 6.349 4.25694 6.37197 4.26296C6.39495 4.26897 6.41477 4.28351 6.42741 4.30362C6.44004 4.32373 6.44455 4.3479 6.44 4.37121C6.43545 4.39452 6.4222 4.41522 6.40293 4.4291L6.14026 4.60827L6.37958 4.47021C6.40092 4.45904 6.42576 4.45655 6.4489 4.46326C6.47204 4.46998 6.49169 4.48537 6.50375 4.50623C6.5158 4.52709 6.51934 4.5518 6.5136 4.5752C6.50787 4.5986 6.49332 4.61888 6.47299 4.63181L4.07307 6.01691C4.05888 6.02517 4.04278 6.02956 4.02636 6.02961Z" fill="#E2AC4D"/>
<path d="M1.87851 10.1539C1.85814 10.154 1.83832 10.1474 1.82206 10.1351C1.8058 10.1229 1.79398 10.1056 1.78842 10.086C1.78286 10.0664 1.78385 10.0456 1.79124 10.0266C1.79863 10.0076 1.81202 9.99158 1.82937 9.98092L4.28721 8.46766L1.62723 10.0022C1.60602 10.0136 1.58126 10.0163 1.5581 10.0098C1.53493 10.0033 1.51516 9.9882 1.50288 9.96752C1.4906 9.94684 1.48677 9.92223 1.49219 9.8988C1.4976 9.87537 1.51185 9.85493 1.53195 9.84174L3.24156 8.79777L1.62349 9.73189C1.60233 9.74374 1.57738 9.7469 1.55393 9.74069C1.53048 9.73449 1.51036 9.7194 1.49783 9.69862C1.48531 9.67784 1.48136 9.65301 1.48682 9.62937C1.49228 9.60573 1.50672 9.58514 1.52709 9.57196L2.93219 8.68904L1.5936 9.46137C1.57247 9.4743 1.54707 9.47831 1.52298 9.47251C1.49889 9.46671 1.47809 9.45158 1.46516 9.43045C1.45223 9.40931 1.44822 9.38391 1.45402 9.35982C1.45982 9.33574 1.47495 9.31494 1.49608 9.30201L3.7542 7.8433L1.55624 9.11238C1.53506 9.12405 1.51018 9.12704 1.48684 9.12075C1.46349 9.11445 1.4435 9.09934 1.43107 9.07861C1.41863 9.05787 1.41472 9.03312 1.42015 9.00956C1.42559 8.986 1.43995 8.96547 1.46021 8.95228L2.30428 8.4245L1.53064 8.87138C1.50943 8.88361 1.48427 8.88702 1.46057 8.88089C1.43687 8.87475 1.41653 8.85956 1.40392 8.83857C1.39131 8.81759 1.38744 8.79249 1.39314 8.76868C1.39885 8.74488 1.41368 8.72426 1.43443 8.71127L2.06776 8.31633L1.5058 8.64066C1.48479 8.65241 1.46005 8.65559 1.43675 8.64955C1.41344 8.64351 1.39337 8.6287 1.38072 8.60822C1.36807 8.58773 1.36382 8.56316 1.36885 8.53962C1.37387 8.51607 1.3878 8.49538 1.40771 8.48186L3.93374 6.81914L1.46283 8.24553C1.44187 8.25681 1.41739 8.25967 1.39439 8.25352C1.37139 8.24736 1.35161 8.23266 1.33909 8.21241C1.32657 8.19216 1.32225 8.1679 1.32702 8.14457C1.33179 8.12125 1.34528 8.10062 1.36474 8.08691L3.84948 6.44773L1.42079 7.85021C1.39997 7.86202 1.37541 7.86539 1.35218 7.85962C1.32894 7.85385 1.30881 7.83938 1.29594 7.81919C1.28307 7.79901 1.27844 7.77465 1.283 7.75115C1.28756 7.72765 1.30098 7.7068 1.32047 7.6929L1.90335 7.2847L1.39146 7.58006C1.37055 7.59246 1.34562 7.59621 1.32199 7.59052C1.29835 7.58484 1.27786 7.57016 1.26487 7.54961C1.25189 7.52905 1.24742 7.50425 1.25243 7.48046C1.25744 7.45667 1.27153 7.43577 1.2917 7.4222L1.41126 7.34L1.36829 7.36466C1.3478 7.37636 1.32363 7.37986 1.30066 7.37447C1.27768 7.36908 1.2576 7.3552 1.24444 7.3356C1.23129 7.31601 1.22603 7.29217 1.22974 7.26886C1.23345 7.24555 1.24584 7.22451 1.26442 7.20997L1.99602 6.64576L1.33205 7.02894C1.31126 7.04062 1.28679 7.0439 1.26365 7.03812C1.24051 7.03234 1.22046 7.01793 1.20761 6.99784C1.19476 6.97775 1.19008 6.9535 1.19453 6.93007C1.19898 6.90664 1.21222 6.8858 1.23154 6.87182L1.28759 6.83203C1.26706 6.83777 1.24519 6.83633 1.2256 6.82793C1.20601 6.81954 1.18988 6.80469 1.17989 6.78587C1.1699 6.76704 1.16664 6.74536 1.17067 6.72443C1.1747 6.7035 1.18576 6.68458 1.20202 6.6708L1.92241 6.0569L1.26797 6.43503C1.24759 6.4466 1.2236 6.45009 1.20077 6.4448C1.17793 6.43951 1.15792 6.42583 1.14471 6.40648C1.13149 6.38712 1.12603 6.3635 1.12942 6.34031C1.1328 6.31712 1.14478 6.29605 1.16298 6.28127L1.5553 5.96629L1.23771 6.14994C1.21729 6.16122 1.19339 6.16447 1.17071 6.15902C1.14803 6.15358 1.1282 6.13985 1.11513 6.12052C1.10206 6.1012 1.0967 6.07769 1.10009 6.05461C1.10348 6.03153 1.11538 6.01056 1.13346 5.99581L1.32495 5.84523L1.21192 5.91024C1.19218 5.92195 1.16883 5.92598 1.14631 5.92156C1.12379 5.91715 1.10368 5.9046 1.08982 5.8863C1.07597 5.86801 1.06933 5.84526 1.07117 5.82238C1.07302 5.79951 1.08322 5.77811 1.09983 5.76228L1.55231 5.32456L1.17213 5.54407C1.15188 5.55572 1.12799 5.55935 1.10519 5.55425C1.08239 5.54916 1.06233 5.5357 1.04896 5.51654C1.03559 5.49738 1.02989 5.47391 1.03298 5.45075C1.03607 5.42759 1.04772 5.40643 1.06564 5.39144L1.12897 5.33894C1.11034 5.34431 1.0905 5.34383 1.07216 5.33754C1.05381 5.33126 1.03784 5.31949 1.02641 5.30382C1.0129 5.28505 1.00684 5.26193 1.00939 5.23895C1.01195 5.21596 1.02294 5.19474 1.04023 5.1794L1.11795 5.11046C1.09618 5.12052 1.07138 5.12182 1.04868 5.1141C1.02597 5.10637 1.00711 5.09022 0.995994 5.06897C0.984878 5.04772 0.982359 5.02301 0.98896 4.99995C0.995561 4.9769 1.01078 4.95727 1.03145 4.94512L1.82115 4.48927C1.84117 4.47788 1.86469 4.47429 1.88719 4.47918C1.90969 4.48407 1.9296 4.49711 1.94308 4.51578C1.95656 4.53445 1.96267 4.55744 1.96023 4.58034C1.9578 4.60324 1.94699 4.62443 1.92988 4.63985L1.8531 4.70804L1.97154 4.63966C1.99182 4.62797 2.01575 4.62431 2.0386 4.62941C2.06145 4.63452 2.08154 4.64802 2.09491 4.66723C2.10828 4.68645 2.11394 4.70999 2.11078 4.73318C2.10762 4.75638 2.09587 4.77754 2.07785 4.79249L2.02722 4.83452L2.11558 4.78371C2.13532 4.772 2.15868 4.76797 2.1812 4.77239C2.20372 4.7768 2.22383 4.78935 2.23769 4.80765C2.25154 4.82594 2.25818 4.84869 2.25634 4.87157C2.25449 4.89444 2.24429 4.91584 2.22768 4.93167L1.77482 5.36977L2.36256 5.0305C2.38298 5.01921 2.40688 5.01597 2.42956 5.02141C2.45224 5.02686 2.47207 5.04059 2.48514 5.05991C2.49821 5.07923 2.50357 5.10275 2.50018 5.12583C2.49679 5.14891 2.48489 5.16988 2.46681 5.18463L2.27625 5.33408L2.5236 5.19117C2.54399 5.17937 2.56808 5.17572 2.59105 5.18093C2.61402 5.18615 2.63417 5.19984 2.64747 5.21928C2.66077 5.23872 2.66623 5.26247 2.66277 5.28577C2.6593 5.30906 2.64717 5.33019 2.62879 5.34492L2.23496 5.66065L2.71454 5.38415C2.7347 5.37269 2.75841 5.36914 2.78104 5.37419C2.80368 5.37925 2.82363 5.39254 2.837 5.41149C2.85038 5.43043 2.85623 5.45368 2.85342 5.4767C2.8506 5.49972 2.83932 5.52087 2.82177 5.53604L2.10157 6.14975L2.97534 5.64533C2.99618 5.63316 3.02091 5.62952 3.04437 5.63518C3.06782 5.64084 3.08818 5.65536 3.10117 5.67569C3.11416 5.69603 3.11878 5.7206 3.11406 5.74426C3.10934 5.76792 3.09565 5.78884 3.07585 5.80263L3.04727 5.82262L3.11396 5.78414C3.13446 5.77244 3.15862 5.76894 3.1816 5.77433C3.20457 5.77972 3.22466 5.7936 3.23781 5.81319C3.25097 5.83279 3.25622 5.85663 3.25252 5.87994C3.24881 5.90324 3.23642 5.92428 3.21784 5.93883L2.48568 6.50359L3.35646 6.00104C3.37731 5.98955 3.40176 5.98646 3.42482 5.9924C3.44788 5.99834 3.46779 6.01286 3.48051 6.03298C3.49322 6.05311 3.49776 6.07734 3.49322 6.10071C3.48867 6.12408 3.47537 6.14483 3.45604 6.15872L3.33628 6.24129L3.65874 6.05447C3.67952 6.04306 3.70386 6.03997 3.72683 6.04584C3.7498 6.05171 3.76968 6.06609 3.78244 6.08607C3.7952 6.10606 3.79988 6.13014 3.79554 6.15345C3.7912 6.17676 3.77816 6.19754 3.75906 6.21159L3.17692 6.61942L6.47397 4.71738C6.49498 4.70563 6.51971 4.70244 6.54302 4.70849C6.56632 4.71453 6.58639 4.72934 6.59904 4.74982C6.61169 4.7703 6.61594 4.79488 6.61092 4.81842C6.60589 4.84196 6.59196 4.86266 6.57205 4.87618L4.08731 6.51518L6.6053 5.0617C6.62635 5.04973 6.65122 5.04641 6.67467 5.05242C6.69812 5.05843 6.71832 5.07331 6.73101 5.09393C6.7437 5.11454 6.7479 5.13928 6.74271 5.16292C6.73752 5.18657 6.72335 5.20728 6.7032 5.22068L4.17773 6.8834L6.7372 5.4062C6.75834 5.39475 6.78308 5.39189 6.80628 5.39821C6.82947 5.40454 6.84934 5.41957 6.86173 5.44018C6.87413 5.46078 6.8781 5.48537 6.87283 5.50883C6.86755 5.53228 6.85343 5.5528 6.83341 5.56612L6.19653 5.9633L6.81305 5.60703C6.83426 5.5948 6.85942 5.59139 6.88312 5.59752C6.90682 5.60366 6.92717 5.61885 6.93978 5.63984C6.95239 5.66082 6.95625 5.68592 6.95055 5.70973C6.94484 5.73354 6.93002 5.75415 6.90926 5.76714L6.06613 6.29323L6.89693 5.81366C6.91799 5.80189 6.94279 5.79873 6.96613 5.80483C6.98947 5.81094 7.00954 5.82583 7.02214 5.8464C7.03475 5.86697 7.0389 5.89162 7.03374 5.91519C7.02858 5.93876 7.0145 5.95941 6.99445 5.97283L4.73614 7.43191L7.1568 6.03429C7.16731 6.02796 7.17897 6.02377 7.19111 6.02194C7.20324 6.02012 7.21562 6.0207 7.22753 6.02366C7.23943 6.02662 7.25065 6.03189 7.26052 6.03918C7.27039 6.04647 7.27873 6.05564 7.28506 6.06615C7.29138 6.07666 7.29558 6.08832 7.29741 6.10045C7.29923 6.11259 7.29865 6.12496 7.29569 6.13687C7.29273 6.14878 7.28746 6.15999 7.28017 6.16986C7.27288 6.17973 7.26371 6.18807 7.2532 6.1944L5.84923 7.07658L9.7243 4.83938C9.74554 4.82764 9.77051 4.82462 9.79392 4.83097C9.81734 4.83731 9.83738 4.85252 9.84978 4.87337C9.86218 4.89422 9.86599 4.91908 9.86039 4.94269C9.85479 4.9663 9.84022 4.9868 9.81977 4.99986L8.11259 6.04214L9.85882 5.03498C9.88004 5.02303 9.90509 5.01983 9.92863 5.02608C9.95217 5.03233 9.97234 5.04753 9.98484 5.06843C9.99734 5.08934 10.0012 5.1143 9.99554 5.13799C9.9899 5.16168 9.97523 5.18224 9.95465 5.19528L7.49719 6.7091L9.82425 5.36547C9.84546 5.35264 9.8709 5.34875 9.89497 5.35468C9.91903 5.3606 9.93977 5.37584 9.9526 5.39704C9.96543 5.41825 9.96932 5.44369 9.9634 5.46776C9.95747 5.49183 9.94223 5.51256 9.92103 5.52539L6.56308 7.64732L9.77829 5.79105C9.79958 5.77837 9.82502 5.77466 9.84904 5.78074C9.87306 5.78681 9.89368 5.80218 9.90636 5.82347C9.91905 5.84475 9.92276 5.87019 9.91668 5.89421C9.9106 5.91823 9.89523 5.93885 9.87395 5.95153L8.97963 6.50023L9.75008 6.05559C9.76061 6.04929 9.77227 6.04512 9.78441 6.04332C9.79655 6.04152 9.80892 6.04213 9.82082 6.04512C9.83272 6.0481 9.84392 6.0534 9.85377 6.06071C9.86362 6.06802 9.87194 6.0772 9.87824 6.08773C9.88455 6.09825 9.88872 6.10991 9.89052 6.12205C9.89231 6.13419 9.8917 6.14656 9.88872 6.15846C9.88574 6.17036 9.88044 6.18156 9.87313 6.19141C9.86582 6.20126 9.85664 6.20958 9.84611 6.21589L8.42364 7.09974L9.71814 6.35245C9.73939 6.33972 9.76484 6.33595 9.78887 6.34198C9.81291 6.348 9.83356 6.36333 9.8463 6.38459C9.85903 6.40584 9.8628 6.43129 9.85677 6.45532C9.85075 6.47936 9.83542 6.50001 9.81416 6.51275L9.07846 6.96841L9.69011 6.6155C9.71114 6.60392 9.73582 6.60088 9.75903 6.60701C9.78223 6.61314 9.80219 6.62796 9.81476 6.64841C9.82733 6.66886 9.83154 6.69337 9.82653 6.71684C9.82151 6.74032 9.80765 6.76096 9.78782 6.77449L7.50672 8.26215L9.64565 7.02763C9.66671 7.01586 9.69151 7.0127 9.71485 7.0188C9.73819 7.02491 9.75826 7.0398 9.77086 7.06038C9.78347 7.08095 9.78762 7.1056 9.78246 7.12916C9.7773 7.15273 9.76322 7.17338 9.74317 7.1868L8.32127 8.10504L9.61034 7.36129C9.63135 7.35002 9.65587 7.3472 9.67889 7.35342C9.70191 7.35965 9.72167 7.37443 9.73414 7.39476C9.74661 7.41508 9.75083 7.4394 9.74595 7.46274C9.74106 7.48608 9.72744 7.50666 9.70786 7.52028L8.63475 8.21862L9.57671 7.6746C9.59785 7.66221 9.62301 7.65862 9.64677 7.66461C9.67053 7.6706 9.69098 7.68568 9.70373 7.70661C9.71647 7.72753 9.72048 7.75263 9.71489 7.77649C9.70931 7.80034 9.69457 7.82105 9.67386 7.83414L9.48312 7.95632L9.55075 7.91728C9.57182 7.90466 9.59701 7.90085 9.62087 7.90667C9.64473 7.91249 9.66534 7.92747 9.67824 7.94837C9.69113 7.96928 9.69528 7.99442 9.68977 8.01835C9.68427 8.04229 9.66956 8.06309 9.64883 8.07626L9.22941 8.35183L9.52235 8.18257C9.5431 8.17084 9.56754 8.16749 9.59068 8.1732C9.61382 8.1789 9.6339 8.19324 9.64681 8.21327C9.65973 8.2333 9.6645 8.2575 9.66015 8.28094C9.6558 8.30437 9.64266 8.32525 9.62342 8.33931L8.67231 9.02046L9.48274 8.55247C9.50347 8.54058 9.52798 8.53708 9.55121 8.5427C9.57444 8.54832 9.59463 8.56264 9.60763 8.5827C9.62063 8.60276 9.62544 8.62703 9.62108 8.65054C9.61672 8.67404 9.60351 8.69497 9.58419 8.70903L9.07977 9.07427L9.44911 8.86092C9.4695 8.84913 9.49359 8.84547 9.51656 8.85069C9.53953 8.8559 9.55968 8.8696 9.57298 8.88904C9.58628 8.90848 9.59174 8.93222 9.58828 8.95552C9.58481 8.97882 9.57267 8.99995 9.55429 9.01467L9.12087 9.36216L9.41362 9.19309C9.43348 9.18243 9.45654 9.17931 9.47852 9.18432C9.50051 9.18932 9.51994 9.20211 9.53323 9.22032C9.54653 9.23853 9.55278 9.26094 9.55085 9.2834C9.54892 9.30587 9.53893 9.32687 9.52272 9.34255L9.31965 9.52451L9.38186 9.48864C9.4008 9.47767 9.42299 9.4737 9.44456 9.47742C9.46613 9.48114 9.48571 9.49232 9.49987 9.509C9.51404 9.52569 9.5219 9.54681 9.52209 9.5687C9.52227 9.59059 9.51476 9.61184 9.50086 9.62876L9.41156 9.7373C9.43265 9.73581 9.45362 9.7415 9.47104 9.75347C9.48847 9.76543 9.50133 9.78295 9.50751 9.80316C9.51369 9.82338 9.51283 9.84509 9.50508 9.86476C9.49732 9.88442 9.48312 9.90087 9.46481 9.91142L9.07752 10.1356C9.05858 10.1466 9.03639 10.1506 9.01482 10.1468C8.99325 10.1431 8.97368 10.1319 8.95951 10.1152C8.94534 10.0986 8.93748 10.0774 8.93729 10.0555C8.93711 10.0337 8.94463 10.0124 8.95852 9.99549L9.03082 9.90768L8.63494 10.136C8.61507 10.1466 8.59202 10.1498 8.57004 10.1448C8.54805 10.1397 8.52862 10.127 8.51533 10.1087C8.50203 10.0905 8.49577 10.0681 8.49771 10.0457C8.49964 10.0232 8.50963 10.0022 8.52584 9.98652L8.72891 9.80437L8.15275 10.1369C8.13237 10.1485 8.10838 10.152 8.08555 10.1467C8.06272 10.1414 8.04271 10.1277 8.02949 10.1084C8.01627 10.089 8.01081 10.0654 8.0142 10.0422C8.01758 10.019 8.02956 9.99793 8.04776 9.98316L8.48044 9.63642L7.61209 10.1371C7.59136 10.149 7.56685 10.1525 7.54362 10.1469C7.52039 10.1413 7.5002 10.1269 7.4872 10.1069C7.4742 10.0868 7.46939 10.0625 7.47375 10.039C7.47811 10.0155 7.49131 9.99461 7.51064 9.98055L8.01506 9.61512L7.1101 10.1382C7.08935 10.1499 7.0649 10.1533 7.04177 10.1476C7.01863 10.1419 6.99855 10.1276 6.98563 10.1075C6.97272 10.0875 6.96795 10.0633 6.97229 10.0399C6.97664 10.0164 6.98978 9.99554 7.00903 9.98148L7.96051 9.30033L6.50834 10.1386C6.4873 10.1506 6.46243 10.1539 6.43898 10.1479C6.41553 10.1419 6.39533 10.127 6.38263 10.1064C6.36994 10.0858 6.36575 10.061 6.37093 10.0374C6.37612 10.0137 6.39029 9.99302 6.41045 9.97961L6.83005 9.70424L6.07734 10.1382C6.05627 10.1498 6.03153 10.1528 6.00829 10.1466C5.98505 10.1405 5.96509 10.1255 5.95257 10.105C5.94005 10.0845 5.93593 10.0599 5.94108 10.0364C5.94622 10.0129 5.96024 9.99229 5.98019 9.97886L6.17075 9.85687L5.68296 10.1384C5.6619 10.1502 5.6371 10.1533 5.61376 10.1472C5.59042 10.1411 5.57035 10.1262 5.55775 10.1057C5.54514 10.0851 5.54099 10.0604 5.54615 10.0369C5.55131 10.0133 5.56539 9.99266 5.58544 9.97924L6.65948 9.28052L5.17293 10.1388C5.1518 10.1517 5.1264 10.1557 5.10231 10.1499C5.07822 10.1441 5.05743 10.129 5.04449 10.1079C5.03156 10.0867 5.02755 10.0613 5.03335 10.0372C5.03915 10.0132 5.05428 9.99236 5.07541 9.97943L6.49788 9.06082L4.62965 10.1392C4.60855 10.1521 4.58315 10.1562 4.55904 10.1505C4.53494 10.1447 4.5141 10.1296 4.50112 10.1085C4.48814 10.0874 4.48407 10.062 4.48982 10.0379C4.49557 10.0138 4.51065 9.99297 4.53176 9.97999L6.81099 8.49325L3.95877 10.1397C3.93752 10.1525 3.91207 10.1562 3.88804 10.1502C3.86401 10.1442 3.84335 10.1288 3.83061 10.1076C3.81788 10.0863 3.81411 10.0609 3.82014 10.0369C3.82616 10.0128 3.84149 9.99216 3.86275 9.97943L4.59789 9.52414L3.53095 10.1407C3.50969 10.1534 3.48425 10.1572 3.46022 10.1511C3.43618 10.1451 3.41553 10.1298 3.40279 10.1085C3.39006 10.0873 3.38629 10.0618 3.39231 10.0378C3.39834 10.0137 3.41367 9.99309 3.43492 9.98036L4.85945 9.09519L3.0482 10.1414C3.02692 10.1541 3.00147 10.1578 2.97746 10.1517C2.95344 10.1456 2.93282 10.1303 2.92014 10.109C2.90745 10.0877 2.90374 10.0623 2.90982 10.0382C2.9159 10.0142 2.93127 9.9936 2.95255 9.98092L3.84687 9.43204L2.61758 10.142C2.60708 10.1483 2.59543 10.1525 2.58329 10.1544C2.57116 10.1562 2.55878 10.1557 2.54686 10.1528C2.53495 10.1498 2.52372 10.1446 2.51383 10.1373C2.50394 10.13 2.49558 10.1209 2.48923 10.1104C2.48287 10.0999 2.47865 10.0882 2.4768 10.0761C2.47495 10.064 2.4755 10.0516 2.47843 10.0397C2.48137 10.0278 2.48662 10.0165 2.49389 10.0066C2.50116 9.99675 2.5103 9.9884 2.5208 9.98204L5.87725 7.85955L1.92521 10.1412C1.91105 10.1495 1.89493 10.1539 1.87851 10.1539Z" fill="#E2AC4D"/>
<path d="M5.49494 3.42262C5.47578 3.4226 5.45708 3.41669 5.44139 3.40569C5.4257 3.39469 5.41377 3.37913 5.40723 3.36112C5.40068 3.34311 5.39983 3.32353 5.40479 3.30502C5.40976 3.28651 5.42029 3.26997 5.43497 3.25766L5.72043 3.0174L5.15997 3.34042C5.13959 3.35179 5.1157 3.35512 5.09299 3.34976C5.07028 3.34441 5.0504 3.33074 5.03726 3.31146C5.02412 3.29218 5.01867 3.26868 5.02198 3.24559C5.02529 3.22249 5.03713 3.20147 5.05516 3.18666L5.56743 2.77827L4.87039 3.18162C4.85 3.19365 4.82579 3.19749 4.80268 3.19236C4.77956 3.18723 4.75925 3.17351 4.74587 3.15397C4.73248 3.13444 4.72701 3.11055 4.73057 3.08714C4.73412 3.06373 4.74644 3.04254 4.76502 3.02786L5.51231 2.42555L4.63145 2.93408C4.61069 2.94612 4.58609 2.9497 4.56276 2.94409C4.53943 2.93848 4.51915 2.92411 4.50613 2.90396C4.49311 2.8838 4.48834 2.85941 4.49282 2.83583C4.4973 2.81226 4.51068 2.79131 4.53019 2.77734L4.82555 2.56454L4.52197 2.73978C4.50129 2.75145 4.47695 2.75481 4.45389 2.74918C4.43082 2.74354 4.41077 2.72934 4.3978 2.70945C4.38484 2.68956 4.37993 2.66548 4.38408 2.6421C4.38823 2.61873 4.40113 2.59781 4.42015 2.5836L4.76316 2.33363L4.45191 2.51298C4.43129 2.52446 4.40708 2.52772 4.38416 2.52208C4.36124 2.51644 4.3413 2.50234 4.32835 2.4826C4.31541 2.46286 4.31042 2.43896 4.31438 2.41569C4.31834 2.39242 4.33097 2.37151 4.34972 2.35717L4.66732 2.1214L4.43229 2.25685C4.41175 2.26872 4.38745 2.27232 4.36435 2.26693C4.34124 2.26154 4.32105 2.24756 4.30787 2.22782C4.2947 2.20808 4.28953 2.18408 4.29342 2.16067C4.2973 2.13726 4.30995 2.11621 4.32879 2.10179L4.55466 1.92916L4.47769 1.97344C4.45779 1.98575 4.43398 1.99014 4.41099 1.98574C4.38801 1.98134 4.36751 1.96847 4.35355 1.94968C4.3396 1.93089 4.33321 1.90754 4.33565 1.88427C4.33809 1.86099 4.34917 1.83947 4.36672 1.82398L4.67087 1.53683C4.65247 1.53281 4.63572 1.52332 4.62281 1.50961C4.6099 1.4959 4.60144 1.47861 4.59853 1.46001C4.59562 1.4414 4.5984 1.42236 4.60651 1.40536C4.61462 1.38836 4.62767 1.37422 4.64396 1.36477L5.19229 1.04717C5.21219 1.03486 5.23599 1.03047 5.25898 1.03487C5.28197 1.03927 5.30247 1.05214 5.31642 1.07093C5.33038 1.08972 5.33677 1.11307 5.33433 1.13634C5.33189 1.15962 5.3208 1.18114 5.30326 1.19663L5.07421 1.41353L5.7068 1.04848C5.72734 1.03661 5.75164 1.03301 5.77474 1.0384C5.79785 1.04379 5.81804 1.05777 5.83121 1.07751C5.84439 1.09724 5.84956 1.12125 5.84567 1.14466C5.84178 1.16807 5.82914 1.18912 5.8103 1.20354L5.58443 1.37635L5.97675 1.14974C5.99739 1.13801 6.02171 1.13457 6.04479 1.14013C6.06786 1.14568 6.08795 1.15981 6.10099 1.17965C6.11402 1.19948 6.11901 1.22354 6.11496 1.24692C6.1109 1.2703 6.09809 1.29127 6.07913 1.30555L5.76247 1.5415L6.18674 1.29677C6.20745 1.28499 6.23187 1.28157 6.25501 1.2872C6.27815 1.29283 6.29827 1.30709 6.31125 1.32706C6.32423 1.34703 6.32909 1.3712 6.32484 1.39464C6.32059 1.41807 6.30754 1.439 6.28837 1.45314L5.94537 1.70348L6.34722 1.47145C6.36794 1.45983 6.39231 1.45655 6.41536 1.46226C6.43842 1.46797 6.45843 1.48226 6.47133 1.5022C6.48423 1.52214 6.48905 1.54625 6.4848 1.56962C6.48056 1.59299 6.46757 1.61387 6.44848 1.628L6.15293 1.84042L6.46118 1.66238C6.48155 1.65065 6.50559 1.64703 6.5285 1.65224C6.55141 1.65745 6.57152 1.67111 6.58482 1.69048C6.59811 1.70986 6.60362 1.73353 6.60023 1.75679C6.59685 1.78004 6.58482 1.80117 6.56655 1.81595L5.81926 2.41845L6.55665 1.99268C6.57703 1.98111 6.60102 1.97762 6.62385 1.98291C6.64669 1.9882 6.6667 2.00188 6.67992 2.02123C6.69313 2.04059 6.69859 2.06421 6.69521 2.0874C6.69182 2.11059 6.67984 2.13166 6.66165 2.14644L6.14882 2.55483L6.54937 2.32373C6.56952 2.31245 6.59315 2.30903 6.61567 2.31415C6.6382 2.31926 6.65804 2.33254 6.67134 2.35143C6.68465 2.37031 6.69049 2.39345 6.68773 2.41639C6.68498 2.43933 6.67382 2.46043 6.65641 2.47562L6.37058 2.71606L6.41766 2.68878C6.439 2.67761 6.46384 2.67513 6.48698 2.68184C6.51012 2.68855 6.52977 2.70395 6.54183 2.7248C6.55388 2.74566 6.55741 2.77037 6.55168 2.79378C6.54595 2.81718 6.5314 2.83746 6.51107 2.85038L5.54164 3.40973C5.52751 3.41812 5.51138 3.42257 5.49494 3.42262ZM1.20363 5.08366C1.1851 5.08365 1.16699 5.07814 1.1516 5.06782C1.13622 5.0575 1.12425 5.04283 1.11722 5.02569C1.11019 5.00854 1.10841 4.9897 1.11212 4.97154C1.11583 4.95339 1.12486 4.93675 1.13805 4.92374L1.33085 4.73411L0.785892 5.04872C0.765379 5.06027 0.741264 5.06364 0.71837 5.05817C0.695477 5.0527 0.675492 5.03879 0.662414 5.01922C0.649335 4.99965 0.644127 4.97586 0.647832 4.95262C0.651536 4.92937 0.663879 4.90838 0.682392 4.89385L0.759176 4.83481L0.563947 4.9469C0.5434 4.95877 0.519107 4.96238 0.495999 4.95699C0.472892 4.9516 0.452702 4.93761 0.439529 4.91788C0.426356 4.89814 0.421187 4.87413 0.425072 4.85072C0.428957 4.82732 0.441605 4.80626 0.460447 4.79184L0.689118 4.61735L0.382356 4.79427C0.361809 4.80614 0.337516 4.80974 0.314408 4.80435C0.2913 4.79896 0.27111 4.78498 0.257937 4.76524C0.244764 4.74551 0.239596 4.7215 0.243481 4.69809C0.247366 4.67468 0.260013 4.65363 0.278856 4.63921L0.603366 4.39167L0.242799 4.59979C0.22263 4.61144 0.198836 4.61513 0.176085 4.61015C0.153333 4.60516 0.133265 4.59185 0.119815 4.57284C0.106366 4.55382 0.100506 4.53047 0.103385 4.50735C0.106264 4.48424 0.117673 4.46304 0.135376 4.4479L0.740307 3.93096L0.13986 4.27771C0.119629 4.2893 0.095792 4.29291 0.073035 4.28782C0.050278 4.28274 0.0302464 4.26932 0.0168772 4.25022C0.00350805 4.23111 -0.00223184 4.2077 0.000785663 4.18457C0.00380316 4.16145 0.0153598 4.14029 0.0331843 4.12526L0.407763 3.81121L0.155927 3.95637C0.136233 3.96773 0.113073 3.97152 0.0907877 3.96702C0.0685024 3.96252 0.0486216 3.95005 0.0348714 3.93195C0.0211211 3.91385 0.0144453 3.89135 0.0160951 3.86867C0.0177449 3.846 0.027607 3.82471 0.0438332 3.80878L0.302956 3.5547C0.284688 3.55049 0.268111 3.54088 0.25538 3.52712C0.24265 3.51335 0.234354 3.49608 0.231573 3.47754C0.228792 3.459 0.231654 3.44005 0.239787 3.42316C0.24792 3.40627 0.260947 3.39221 0.277174 3.38283L0.778232 3.09325C0.797926 3.08189 0.821086 3.07811 0.843371 3.0826C0.865656 3.0871 0.885537 3.09957 0.899288 3.11767C0.913038 3.13578 0.919714 3.15828 0.918064 3.18095C0.916414 3.20362 0.906552 3.22492 0.890326 3.24084L0.701822 3.42542L1.23987 3.11492C1.2601 3.10333 1.28394 3.09972 1.3067 3.10481C1.32945 3.10989 1.34948 3.12331 1.36285 3.14241C1.37622 3.16152 1.38196 3.18493 1.37894 3.20806C1.37593 3.23118 1.36437 3.25234 1.34655 3.26737L0.972901 3.58105L1.52683 3.26121C1.547 3.24956 1.57079 3.24586 1.59354 3.25085C1.6163 3.25583 1.63636 3.26914 1.64981 3.28816C1.66326 3.30717 1.66912 3.33053 1.66624 3.35364C1.66337 3.37675 1.65196 3.39796 1.63425 3.41309L1.02857 3.93059L1.75587 3.5108C1.77641 3.49918 1.80059 3.49576 1.82354 3.50124C1.8465 3.50671 1.86653 3.52067 1.87961 3.54031C1.8927 3.55994 1.89786 3.58381 1.89408 3.6071C1.89029 3.63039 1.87782 3.65138 1.85919 3.66586L1.53561 3.91415L1.85414 3.73013C1.87469 3.71826 1.89898 3.71466 1.92209 3.72005C1.9452 3.72544 1.96539 3.73942 1.97856 3.75916C1.99173 3.77889 1.9969 3.8029 1.99302 3.82631C1.98913 3.84972 1.97648 3.87077 1.95764 3.88519L1.72953 4.05931L1.89394 3.96441C1.91446 3.95263 1.93868 3.94907 1.96172 3.95446C1.98476 3.95986 2.0049 3.97379 2.01806 3.99345C2.03122 4.01311 2.03643 4.03704 2.03264 4.06039C2.02885 4.08375 2.01633 4.1048 1.99762 4.11928L1.89767 4.19606C1.91754 4.19118 1.93847 4.19295 1.95724 4.20112C1.976 4.20928 1.99157 4.22338 2.00154 4.24125C2.01151 4.25911 2.01534 4.27976 2.01244 4.30002C2.00954 4.32028 2.00007 4.33902 1.98548 4.35337L1.7243 4.60969C1.74277 4.61362 1.75962 4.62306 1.77262 4.63676C1.78562 4.65047 1.79416 4.66779 1.79711 4.68644C1.80007 4.7051 1.7973 4.72421 1.78917 4.74126C1.78104 4.75831 1.76793 4.77249 1.75158 4.78194L1.25033 5.07114C1.23617 5.07943 1.22004 5.08376 1.20363 5.08366ZM10.1558 5.08646C10.1377 5.08646 10.1201 5.08123 10.1049 5.0714C10.0898 5.06158 10.0778 5.04758 10.0705 5.0311C10.0631 5.01462 10.0607 4.99636 10.0635 4.97854C10.0663 4.96071 10.0742 4.94408 10.0863 4.93065L10.4465 4.52842L9.6282 5.00071C9.60832 5.01165 9.58514 5.01497 9.56299 5.01007C9.54083 5.00517 9.52122 4.99237 9.50781 4.97407C9.49441 4.95576 9.48812 4.9332 9.49013 4.9106C9.49213 4.888 9.5023 4.86691 9.51872 4.85125L10.1478 4.27976L9.31714 4.75859C9.29663 4.77013 9.27251 4.77351 9.24962 4.76804C9.22672 4.76257 9.20674 4.74865 9.19366 4.72908C9.18058 4.70951 9.17537 4.68573 9.17908 4.66248C9.18278 4.63924 9.19513 4.61825 9.21364 4.60371L9.5587 4.33842L9.18674 4.55327C9.16626 4.56513 9.14204 4.56877 9.11898 4.56347C9.09592 4.55816 9.07573 4.5443 9.06249 4.52468C9.04926 4.50506 9.04396 4.48115 9.04767 4.45778C9.05138 4.43441 9.06383 4.41332 9.08249 4.39877L9.46417 4.09985L9.11182 4.3033C9.09121 4.3152 9.06683 4.31878 9.04366 4.31331C9.0205 4.30784 9.00029 4.29373 8.98718 4.27387C8.97406 4.254 8.96903 4.22988 8.97309 4.20643C8.97716 4.18298 8.99003 4.16196 9.00907 4.14768L9.08044 4.09425C9.06113 4.09896 9.04082 4.09739 9.02246 4.08977C9.00411 4.08215 8.98866 4.06888 8.97837 4.05188C8.96808 4.03488 8.96347 4.01503 8.96523 3.99524C8.96699 3.97544 8.97502 3.95672 8.98815 3.9418L9.34124 3.54275L9.33825 3.54462C9.32762 3.55137 9.31573 3.55591 9.3033 3.55796C9.29087 3.56 9.27815 3.55951 9.26591 3.55651C9.25368 3.55352 9.24217 3.54807 9.23209 3.54052C9.22202 3.53296 9.21357 3.52344 9.20727 3.51253C9.20096 3.50162 9.19693 3.48955 9.19541 3.47705C9.19389 3.46454 9.19492 3.45186 9.19843 3.43976C9.20194 3.42766 9.20786 3.41639 9.21583 3.40664C9.22381 3.39689 9.23368 3.38885 9.24484 3.38301L9.7459 3.09344C9.76511 3.08233 9.78765 3.07843 9.80948 3.08243C9.83131 3.08643 9.85101 3.09807 9.86503 3.11526C9.87906 3.13246 9.88651 3.15409 9.88604 3.17628C9.88557 3.19847 9.87722 3.21977 9.86247 3.23636L9.50901 3.63541L10.3295 3.16163C10.3501 3.14999 10.3744 3.14661 10.3974 3.15217C10.4204 3.15773 10.4404 3.17181 10.4535 3.19156C10.4665 3.21132 10.4715 3.23529 10.4676 3.25862C10.4636 3.28195 10.4509 3.3029 10.4321 3.31725L10.3858 3.352L10.5165 3.27727C10.537 3.26515 10.5614 3.2613 10.5846 3.26652C10.6078 3.27174 10.6282 3.28562 10.6415 3.30535C10.6548 3.32507 10.6601 3.34914 10.6563 3.37263C10.6525 3.39613 10.6399 3.41729 10.621 3.43177L10.2395 3.73069L10.6942 3.46914C10.7147 3.45759 10.7388 3.45422 10.7617 3.45969C10.7846 3.46516 10.8046 3.47907 10.8177 3.49864C10.8308 3.51821 10.836 3.542 10.8323 3.56524C10.8286 3.58849 10.8162 3.60948 10.7977 3.62401L10.4523 3.88968L10.8072 3.68417C10.8271 3.67323 10.8503 3.66991 10.8724 3.67481C10.8946 3.67971 10.9142 3.69251 10.9276 3.71081C10.941 3.72912 10.9473 3.75168 10.9453 3.77428C10.9433 3.79688 10.9331 3.81797 10.9167 3.83363L10.2881 4.40512L10.8599 4.07426C10.8792 4.06315 10.9017 4.05928 10.9236 4.06332C10.9455 4.06737 10.9651 4.07908 10.9791 4.09634C10.9931 4.1136 11.0005 4.13528 11 4.1575C10.9994 4.17972 10.991 4.20101 10.9761 4.21755L10.6159 4.61978L10.6376 4.60745C10.6589 4.59628 10.6838 4.59379 10.7069 4.60051C10.7301 4.60722 10.7497 4.62261 10.7618 4.64347C10.7738 4.66433 10.7774 4.68904 10.7716 4.71244C10.7659 4.73584 10.7513 4.75612 10.731 4.76905L10.2031 5.07394C10.1887 5.08233 10.1724 5.08666 10.1558 5.08646Z" fill="#F7BC5C"/>
<path d="M4.17869 10.8958C4.1589 10.8959 4.13961 10.8897 4.1236 10.878C4.10759 10.8664 4.09568 10.85 4.08959 10.8312C4.0835 10.8124 4.08355 10.7921 4.08972 10.7733C4.0959 10.7545 4.10788 10.7381 4.12395 10.7266L4.17122 10.6924L3.84073 10.8828C3.82021 10.8945 3.79598 10.8981 3.77294 10.8927C3.7499 10.8873 3.72977 10.8734 3.7166 10.8537C3.70344 10.8341 3.69823 10.8101 3.70202 10.7868C3.70582 10.7634 3.71833 10.7424 3.73704 10.7279L4.05595 10.483L3.36321 10.8828C3.34315 10.8942 3.31956 10.8978 3.29699 10.8929C3.27442 10.888 3.25448 10.8749 3.24101 10.8561C3.22754 10.8374 3.2215 10.8143 3.22406 10.7913C3.22661 10.7684 3.23758 10.7472 3.25485 10.7318L3.80803 10.2461L2.70522 10.8828C2.68532 10.8947 2.66169 10.8988 2.63895 10.8942C2.6162 10.8897 2.59596 10.8768 2.58217 10.8582C2.56837 10.8395 2.562 10.8164 2.5643 10.7933C2.56661 10.7703 2.57741 10.7489 2.59462 10.7333L3.18648 10.1796L1.96877 10.8828C1.94825 10.8943 1.92414 10.8977 1.90124 10.8922C1.87835 10.8867 1.85837 10.8728 1.84529 10.8533C1.83221 10.8337 1.827 10.8099 1.83071 10.7867C1.83441 10.7634 1.84675 10.7424 1.86527 10.7279L2.18567 10.4817L1.49069 10.8828C1.47023 10.8945 1.44608 10.8981 1.42308 10.8928C1.40008 10.8875 1.37994 10.8737 1.36671 10.8542C1.35348 10.8346 1.34814 10.8108 1.35177 10.7875C1.3554 10.7642 1.36772 10.7431 1.38625 10.7285L1.7599 10.4366L1.1744 10.7744C1.15409 10.7858 1.13025 10.7892 1.10756 10.784C1.08486 10.7787 1.06496 10.7651 1.05174 10.746C1.03852 10.7268 1.03295 10.7034 1.03611 10.6803C1.03928 10.6572 1.05095 10.6361 1.06884 10.6212L1.39092 10.3597L1.06922 10.5452C1.04931 10.5573 1.0256 10.5615 1.00274 10.557C0.979877 10.5526 0.959511 10.5397 0.945638 10.521C0.931766 10.5023 0.925387 10.4791 0.927753 10.4559C0.93012 10.4327 0.941061 10.4112 0.958431 10.3957L1.19308 10.1749L1.06679 10.2476C1.0481 10.2582 1.02633 10.262 1.00513 10.2585C0.983942 10.2549 0.964629 10.2441 0.950453 10.228C0.936276 10.2118 0.928103 10.1913 0.92731 10.1698C0.926517 10.1483 0.933153 10.1272 0.9461 10.1101L1.05819 9.96342C1.03929 9.96018 1.02184 9.9512 1.00821 9.93769C0.994588 9.92419 0.985451 9.90682 0.982043 9.88794C0.978635 9.86907 0.981121 9.8496 0.989164 9.83218C0.997206 9.81477 1.01041 9.80025 1.02699 9.79061L1.33693 9.61238C1.35562 9.60176 1.3774 9.59792 1.39859 9.60149C1.41978 9.60506 1.43909 9.61583 1.45327 9.63198C1.46744 9.64814 1.47562 9.66868 1.47641 9.69016C1.4772 9.71163 1.47057 9.73273 1.45762 9.74988L1.37953 9.85207L1.79558 9.61238C1.81549 9.60047 1.83911 9.59639 1.86185 9.60093C1.8846 9.60548 1.90484 9.61832 1.91864 9.63697C1.93243 9.65561 1.9388 9.67872 1.9365 9.7018C1.9342 9.72489 1.92339 9.74628 1.90618 9.76184L1.67172 9.98154L2.31196 9.61238C2.33228 9.60077 2.35621 9.59722 2.37902 9.60241C2.40184 9.6076 2.42187 9.62117 2.43516 9.64043C2.44845 9.65968 2.45404 9.68323 2.4508 9.7064C2.44757 9.72957 2.43576 9.75069 2.4177 9.76557L2.09562 10.0271L2.81489 9.61219C2.83533 9.60064 2.85938 9.59721 2.88224 9.60259C2.9051 9.60797 2.92509 9.62177 2.93824 9.64123C2.95139 9.66069 2.95672 9.68439 2.95318 9.7076C2.94964 9.73082 2.93748 9.75185 2.91913 9.76651L2.54549 10.0585L3.31893 9.61219C3.33945 9.60041 3.36368 9.59686 3.38672 9.60225C3.40976 9.60764 3.42989 9.62158 3.44306 9.64124C3.45622 9.6609 3.46143 9.68482 3.45764 9.70818C3.45384 9.73154 3.44133 9.75258 3.42262 9.76707L3.10241 10.0129L3.79813 9.61238C3.81804 9.60047 3.84166 9.59639 3.8644 9.60093C3.88715 9.60548 3.90739 9.61832 3.92119 9.63697C3.93498 9.65561 3.94135 9.67872 3.93905 9.7018C3.93675 9.72489 3.92594 9.74628 3.90873 9.76184L3.31613 10.3148L4.53384 9.61238C4.5539 9.60092 4.57749 9.59731 4.60006 9.60223C4.62263 9.60715 4.64257 9.62026 4.65604 9.63903C4.66951 9.65779 4.67555 9.68088 4.67299 9.70384C4.67044 9.72679 4.65946 9.74799 4.6422 9.76333L4.08901 10.2491L5.19127 9.61238C5.21179 9.6006 5.23601 9.59705 5.25905 9.60244C5.28209 9.60783 5.30223 9.62176 5.31539 9.64142C5.32855 9.66109 5.33377 9.68501 5.32997 9.70837C5.32618 9.73172 5.31366 9.75277 5.29495 9.76725L4.97567 10.0124L5.66953 9.61238C5.69026 9.60048 5.71477 9.59698 5.738 9.6026C5.76123 9.60823 5.78142 9.62254 5.79442 9.6426C5.80742 9.66266 5.81223 9.68694 5.80787 9.71044C5.80351 9.73394 5.79031 9.75487 5.77098 9.76893L5.72352 9.80312L6.0542 9.61238C6.07409 9.60099 6.09748 9.59731 6.11991 9.60204C6.14234 9.60678 6.16225 9.6196 6.17584 9.63806C6.18943 9.65652 6.19576 9.67933 6.19362 9.70216C6.19148 9.72498 6.18102 9.74622 6.16424 9.76184L5.57556 10.3087L6.7815 9.61238C6.80136 9.60185 6.82435 9.59883 6.84626 9.60389C6.86816 9.60894 6.88751 9.62173 6.90074 9.63989C6.91398 9.65806 6.92023 9.68039 6.91833 9.70279C6.91643 9.72519 6.90652 9.74615 6.89042 9.76184L6.3236 10.2683L7.46191 9.61238C7.4824 9.6009 7.50645 9.59757 7.52929 9.60303C7.55213 9.6085 7.57207 9.62237 7.58514 9.64187C7.59821 9.66138 7.60346 9.68509 7.59984 9.70829C7.59622 9.73149 7.58399 9.75248 7.56559 9.76707L7.22801 10.0286L7.94821 9.61238C7.96809 9.60129 7.99134 9.59785 8.01358 9.6027C8.03582 9.60755 8.05553 9.62036 8.069 9.63871C8.08246 9.65706 8.08876 9.6797 8.08672 9.70238C8.08467 9.72505 8.07441 9.74619 8.05787 9.76184L7.47872 10.2913L8.65552 9.61238C8.67596 9.60082 8.70001 9.5974 8.72287 9.60278C8.74573 9.60816 8.76572 9.62195 8.77887 9.64141C8.79202 9.66088 8.79735 9.68457 8.79381 9.70779C8.79027 9.73101 8.77811 9.75204 8.75976 9.76669L8.3779 10.0665L9.16405 9.61238C9.18414 9.60103 9.20773 9.59752 9.23026 9.60254C9.25279 9.60755 9.27267 9.62072 9.28606 9.63952C9.29945 9.65832 9.30541 9.68141 9.30278 9.70434C9.30016 9.72727 9.28914 9.74842 9.27184 9.7637L8.73006 10.2341L9.73292 9.65497C9.75347 9.6431 9.77776 9.6395 9.80087 9.64489C9.82398 9.65028 9.84417 9.66426 9.85734 9.684C9.87051 9.70374 9.87568 9.72775 9.8718 9.75115C9.86791 9.77456 9.85526 9.79561 9.83642 9.81004L9.58664 10.001L9.89377 9.82367C9.91368 9.81114 9.93758 9.80657 9.96071 9.81089C9.98383 9.81521 10.0045 9.82809 10.0185 9.84696C10.0326 9.86584 10.039 9.88932 10.0364 9.91271C10.0339 9.9361 10.0227 9.95768 10.0049 9.97313L9.62961 10.3301L9.92983 10.157C9.94938 10.1458 9.9723 10.1421 9.99437 10.1465C10.0164 10.1509 10.0362 10.1632 10.0499 10.181C10.0637 10.1987 10.0706 10.2209 10.0693 10.2434C10.0681 10.2659 10.0587 10.2871 10.043 10.3032L9.95468 10.3933C9.97377 10.3898 9.99346 10.3923 10.0111 10.4004C10.0287 10.4085 10.0435 10.4218 10.0533 10.4385C10.0656 10.4599 10.069 10.4854 10.0626 10.5093C10.0562 10.5332 10.0405 10.5535 10.0191 10.5659L9.46745 10.8835C9.44789 10.8947 9.42498 10.8984 9.40291 10.894C9.38084 10.8896 9.3611 10.8773 9.34733 10.8595C9.33356 10.8417 9.32667 10.8196 9.32794 10.7971C9.32921 10.7746 9.33854 10.7534 9.35423 10.7372L9.42896 10.6605L9.0428 10.8828C9.02289 10.8953 8.99899 10.8999 8.97587 10.8956C8.95274 10.8912 8.9321 10.8784 8.91806 10.8595C8.90402 10.8406 8.89762 10.8171 8.90014 10.7937C8.90266 10.7703 8.9139 10.7488 8.93164 10.7333L9.30715 10.3763L8.43133 10.8828C8.41079 10.8944 8.38662 10.8978 8.36366 10.8923C8.34071 10.8869 8.32067 10.8729 8.30759 10.8533C8.29451 10.8336 8.28934 10.8098 8.29313 10.7865C8.29692 10.7632 8.30938 10.7422 8.32802 10.7277L8.57668 10.5377L7.97884 10.8828C7.95875 10.8941 7.93516 10.8976 7.91263 10.8926C7.8901 10.8876 7.87022 10.8744 7.85683 10.8556C7.84344 10.8368 7.83749 10.8137 7.84011 10.7908C7.84274 10.7679 7.85376 10.7467 7.87105 10.7314L8.41283 10.2608L7.33524 10.8828C7.31479 10.8945 7.29063 10.8981 7.26763 10.8928C7.24463 10.8875 7.22449 10.8737 7.21127 10.8542C7.19804 10.8346 7.1927 10.8108 7.19632 10.7875C7.19995 10.7642 7.21227 10.7431 7.23081 10.7285L7.6123 10.4295L6.82578 10.8835C6.8059 10.8945 6.78272 10.8978 6.76056 10.8929C6.73841 10.888 6.7188 10.8752 6.70539 10.8569C6.69198 10.8386 6.6857 10.816 6.6877 10.7934C6.68971 10.7708 6.69987 10.7497 6.7163 10.7341L7.29545 10.2046L6.11847 10.8837C6.09798 10.8952 6.07392 10.8985 6.05108 10.893C6.02825 10.8876 6.00831 10.8737 5.99523 10.8542C5.98216 10.8347 5.97691 10.811 5.98053 10.7878C5.98416 10.7646 5.99638 10.7436 6.01478 10.729L6.35274 10.4675L5.6331 10.8828C5.61324 10.8933 5.59025 10.8963 5.56835 10.8913C5.54644 10.8862 5.5271 10.8734 5.51386 10.8553C5.50062 10.8371 5.49437 10.8148 5.49627 10.7924C5.49817 10.77 5.50808 10.749 5.52418 10.7333L6.091 10.2268L4.95269 10.8828C4.9328 10.8943 4.90933 10.8981 4.8868 10.8935C4.86427 10.8888 4.84426 10.876 4.83061 10.8574C4.81695 10.8389 4.81061 10.816 4.8128 10.7931C4.81498 10.7702 4.82555 10.7489 4.84247 10.7333L5.43133 10.1865L4.22539 10.8828C4.21125 10.8912 4.19514 10.8957 4.17869 10.8958Z" fill="#C99541"/>
<path d="M0.920878 3.0419C-0.317007 3.14821 -0.262829 5.10611 0.984958 5.12703L1.46266 9.58517C0.776091 9.60255 0.668668 10.5284 1.18859 10.8163C1.03266 10.9181 0.922583 11.0767 0.881763 11.2583C0.840942 11.44 0.872603 11.6304 0.970012 11.7891C1.59923 12.344 3.61617 11.8913 4.54 12.0301C6.21954 12.0294 7.89932 12.0294 9.57935 12.0301C10.0879 11.9317 10.3696 11.0482 9.8409 10.7607C10.3285 10.4218 10.0838 9.53492 9.5149 9.6132L9.99559 5.12535C11.3017 5.13058 11.2882 3.04004 9.9855 3.03854C9.81479 3.04129 9.6474 3.0862 9.49825 3.16929C9.34909 3.25237 9.22279 3.37104 9.13059 3.51474C9.03839 3.65845 8.98315 3.82271 8.96979 3.99293C8.95643 4.16314 8.98536 4.33401 9.05401 4.49034C6.67314 7.19926 7.08508 5.72206 6.05084 3.31205C7.13609 2.77849 6.73741 0.965187 5.49037 0.983869C4.24165 0.954724 3.85941 2.76317 4.94653 3.30047C3.99187 5.65032 4.24352 7.13276 1.9441 4.48006C2.24993 3.80209 1.68367 2.95615 0.920878 3.0419ZM0.169105 4.07373C0.187787 2.99408 1.78792 3.0462 1.86265 4.08848C1.79203 5.14478 0.15117 5.14478 0.169105 4.07373ZM9.62101 11.828H2.31102C1.90674 11.828 1.53291 11.9388 1.26799 11.6326C0.812895 11.1068 1.20111 10.9626 1.6054 10.9234C3.19843 10.8967 4.80006 10.9127 6.39366 10.9088C7.4025 10.8649 8.40555 10.9875 9.41513 10.9189C9.74039 11.0271 10.2585 11.6501 9.62101 11.828ZM9.63334 10.6912C7.40063 10.7055 5.22433 10.7126 2.99535 10.707C2.5085 10.708 1.90637 10.6062 1.42773 10.7108C1.02755 10.5374 0.979354 9.88503 1.48676 9.75537C1.51273 9.80974 1.59157 9.78377 1.6379 9.73071C2.60546 9.77798 3.48987 9.77723 4.44603 9.77181C5.17345 9.78906 5.32561 9.78906 6.52107 9.77181C7.47685 9.77966 8.38033 9.77181 9.34396 9.73613C9.3481 9.74975 9.35599 9.76193 9.36671 9.77129C9.37744 9.78064 9.39058 9.7868 9.40463 9.78906C9.41869 9.79132 9.4331 9.78958 9.44622 9.78406C9.45933 9.77853 9.47064 9.76943 9.47884 9.7578C9.57823 9.77975 9.66877 9.83095 9.7388 9.90481C9.80882 9.97867 9.85513 10.0718 9.87175 10.1722C9.88838 10.2726 9.87455 10.3757 9.83206 10.4682C9.78957 10.5607 9.72036 10.6384 9.63334 10.6912ZM10.8309 4.06719C10.761 5.16682 9.10314 5.10723 9.13285 4.0967C9.12799 3.03873 10.7731 2.99557 10.8309 4.06756V4.06719ZM4.46938 2.23483C4.47872 0.933427 6.45101 0.882051 6.5319 2.19747C6.44428 3.46581 4.45967 3.56987 4.46938 2.23483ZM2.94697 5.80109C4.35393 7.33527 4.59997 4.18451 5.10757 3.37239C5.36137 3.46689 5.6402 3.46987 5.89596 3.3808C6.96346 5.91187 6.63764 7.55348 9.15975 4.67903C9.23672 4.79148 9.33548 4.88733 9.45017 4.96091C9.56486 5.0345 9.69316 5.08431 9.82745 5.10741L9.34657 9.60292C8.46103 9.60031 7.57176 9.60292 6.68641 9.60292C5.32561 9.6132 5.10757 9.57004 4.28368 9.60218C3.37853 9.60218 2.58995 9.61376 1.66424 9.57004L1.18598 5.1119C1.31695 5.08808 1.44175 5.03802 1.55287 4.96472C1.66398 4.89142 1.75913 4.7964 1.83257 4.68538L2.94697 5.80109Z" fill="#262626"/>
</svg>
