<svg width="8" height="12" viewBox="0 0 8 12" fill="none" xmlns="http://www.w3.org/2000/svg">
<path d="M1.95106 11.9657C1.86495 11.9287 1.7934 11.8635 1.74768 11.7805C1.70197 11.6975 1.6847 11.6013 1.6986 11.5071L2.4644 6.42864H0.432086C0.367655 6.43041 0.303688 6.41707 0.245119 6.38967C0.18655 6.36227 0.134945 6.32152 0.0942856 6.27058C0.0536263 6.21965 0.0249994 6.15988 0.010614 6.09588C-0.00377151 6.03189 -0.00353107 5.96539 0.0113166 5.90151L1.27362 0.330149C1.29584 0.234266 1.3498 0.149105 1.42644 0.0890007C1.50308 0.0288968 1.5977 -0.00247967 1.69439 0.000153174H5.90208C5.96494 -6.4525e-05 6.02705 0.014066 6.08385 0.0415065C6.14065 0.068947 6.19068 0.109 6.23028 0.158723C6.27045 0.209007 6.29889 0.267915 6.31346 0.331013C6.32804 0.394111 6.32837 0.459755 6.31444 0.523004L5.58651 3.85725H7.58516C7.66402 3.85709 7.74134 3.8795 7.8083 3.92194C7.87525 3.96437 7.92916 4.02512 7.96385 4.09724C7.99401 4.16647 8.00561 4.24261 7.99748 4.31789C7.98935 4.39317 7.96178 4.46491 7.91757 4.52581L2.44757 11.8114C2.4106 11.8672 2.36124 11.9134 2.30349 11.9462C2.24574 11.9789 2.18122 11.9974 2.11516 12C2.05887 11.9988 2.00326 11.9872 1.95106 11.9657ZM4.53458 4.71438L5.37612 0.857285H2.03101L0.962255 5.57151H3.449L2.77998 9.97717L6.74362 4.71438H4.53458Z" fill="#C69C5E"/>
</svg>
