<svg width="86" height="62" viewBox="0 0 86 62" fill="none" xmlns="http://www.w3.org/2000/svg">
<path d="M11.358 61.8833C11.2013 61.8834 11.0489 61.832 10.9242 61.7371C10.7995 61.6423 10.7093 61.5091 10.6676 61.3581C10.6258 61.2071 10.6347 61.0465 10.6929 60.901C10.7512 60.7556 10.8555 60.6332 10.9899 60.5527L12.322 59.7521L8.79854 61.7816C8.63606 61.8697 8.4458 61.8916 8.26756 61.8426C8.08933 61.7937 7.93691 61.6778 7.8422 61.519C7.74748 61.3603 7.7178 61.1711 7.75937 60.991C7.80093 60.8109 7.91052 60.6539 8.06521 60.5527L43.1262 38.8822L5.14621 60.8134C4.98248 60.9097 4.78721 60.937 4.60335 60.8893C4.41949 60.8416 4.2621 60.7229 4.1658 60.5591C4.06951 60.3954 4.0422 60.2001 4.08987 60.0163C4.13755 59.8324 4.25631 59.675 4.42004 59.5787L13.5179 54.1117L3.72538 59.7649C3.56306 59.8505 3.37411 59.8705 3.1975 59.8208C3.02088 59.7711 2.87008 59.6555 2.7762 59.4978C2.68232 59.3402 2.65252 59.1526 2.69295 58.9736C2.73337 58.7946 2.84095 58.638 2.99348 58.536L37.8568 37.1463L2.23293 57.7168C2.0694 57.8134 1.87416 57.8412 1.69017 57.7939C1.50617 57.7466 1.34849 57.6282 1.25182 57.4647C1.15514 57.3012 1.12739 57.1059 1.17466 56.9219C1.22194 56.7379 1.34037 56.5802 1.5039 56.4836L27.6661 40.6052L1.61705 55.6442C1.45381 55.7352 1.26149 55.7587 1.08115 55.7098C0.9008 55.6609 0.746707 55.5435 0.651754 55.3825C0.556801 55.2216 0.52851 55.0299 0.572918 54.8484C0.617326 54.6669 0.730917 54.51 0.889446 54.411L14.4274 46.2685L1.45806 53.7608C1.29483 53.8517 1.10251 53.8752 0.922163 53.8264C0.741816 53.7775 0.587723 53.66 0.49277 53.4991C0.397817 53.3381 0.369526 53.1465 0.413934 52.965C0.458342 52.7835 0.571933 52.6265 0.730463 52.5276L10.5015 46.6624L1.45806 51.8773C1.29602 51.9617 1.10786 51.981 0.93208 51.9312C0.756301 51.8814 0.606201 51.7663 0.5125 51.6095C0.4188 51.4526 0.388584 51.2659 0.428038 51.0875C0.467492 50.9091 0.573631 50.7526 0.724733 50.6499L39.7288 26.5387L1.45806 48.6303C1.29491 48.7276 1.09981 48.756 0.915682 48.7094C0.731552 48.6628 0.573477 48.545 0.476231 48.3818C0.378986 48.2187 0.350535 48.0236 0.397138 47.8395C0.443741 47.6553 0.561581 47.4972 0.724733 47.4L34.3176 26.6977L1.45806 45.6684C1.29516 45.757 1.10425 45.7789 0.9255 45.7296C0.746746 45.6803 0.594086 45.5636 0.49964 45.404C0.405193 45.2444 0.376325 45.0544 0.419108 44.874C0.461891 44.6936 0.572991 44.5368 0.72903 44.4366L15.1679 35.691L1.45806 43.6044C1.29535 43.6902 1.10587 43.7101 0.928894 43.66C0.751916 43.6099 0.601012 43.4936 0.507461 43.3352C0.41391 43.1768 0.384885 42.9885 0.426402 42.8093C0.467919 42.6301 0.576795 42.4738 0.730463 42.3727L6.22902 39.0541L1.45806 41.8084C1.29667 41.8891 1.11072 41.906 0.937422 41.8556C0.76412 41.8052 0.616246 41.6912 0.523386 41.5364C0.430526 41.3817 0.399529 41.1975 0.436596 41.0209C0.473663 40.8443 0.57606 40.6881 0.723301 40.5837L26.2467 24.7699L1.45806 39.0784C1.29547 39.1722 1.10256 39.1983 0.920854 39.1513C0.73915 39.1043 0.583176 38.9878 0.486498 38.8269C0.38982 38.666 0.360166 38.4736 0.403918 38.2911C0.447669 38.1086 0.561329 37.9505 0.720437 37.8509L26.0948 21.9783L1.45806 36.2038C1.29575 36.2893 1.1068 36.3093 0.930187 36.2596C0.753573 36.2099 0.60277 36.0943 0.508888 35.9367C0.415005 35.7791 0.385205 35.5914 0.425634 35.4125C0.466063 35.2335 0.573637 35.0769 0.726166 34.9749L12.9278 27.4683L1.45806 34.0898C1.29663 34.1762 1.10823 34.1975 0.931578 34.1493C0.754925 34.1011 0.603442 33.9871 0.508264 33.8306C0.413087 33.6742 0.381444 33.4873 0.41984 33.3082C0.458237 33.1292 0.563755 32.9717 0.714707 32.868L24.79 17.4666L1.45806 30.9301C1.29587 31.0168 1.10656 31.0377 0.929364 30.9886C0.752164 30.9394 0.600649 30.824 0.506205 30.6663C0.411761 30.5085 0.381625 30.3204 0.42204 30.141C0.462455 29.9617 0.570323 29.8047 0.723301 29.7027L9.85127 24.0423L1.45663 28.8877C1.29437 28.9786 1.1031 29.0028 0.923301 28.9552C0.743499 28.9076 0.589269 28.7919 0.493246 28.6326C0.397224 28.4733 0.366943 28.2829 0.40881 28.1017C0.450677 27.9205 0.561408 27.7627 0.717572 27.6616L13.2014 19.7841L1.45663 26.5645C1.295 26.6585 1.10301 26.6856 0.921691 26.6399C0.740375 26.5942 0.584113 26.4794 0.486294 26.3201C0.388476 26.1607 0.356861 25.9694 0.398203 25.7871C0.439546 25.6047 0.550568 25.4458 0.707546 25.3442L17.0528 14.6593L1.45663 23.6584C1.29544 23.7472 1.10625 23.7705 0.928322 23.7235C0.750395 23.6765 0.597382 23.5628 0.501027 23.4061C0.404672 23.2493 0.37237 23.0614 0.410823 22.8815C0.449275 22.7015 0.55553 22.5432 0.707546 22.4395L12.4623 14.7639L1.45663 21.1175C1.29478 21.208 1.10414 21.2322 0.924834 21.1849C0.745524 21.1377 0.59152 21.0228 0.495222 20.8643C0.398924 20.7059 0.367839 20.5162 0.408507 20.3353C0.449175 20.1544 0.558426 19.9963 0.713275 19.8943L5.04022 17.12L1.4595 19.1882C1.29854 19.2798 1.10837 19.3054 0.9289 19.2598C0.749434 19.2141 0.594625 19.1008 0.496964 18.9434C0.399303 18.7861 0.366382 18.597 0.405111 18.416C0.443841 18.2349 0.551209 18.0758 0.704681 17.9722L8.19984 12.985L1.45663 16.8765C1.297 16.9671 1.1087 16.9929 0.93058 16.9487C0.752463 16.9044 0.598134 16.7935 0.499446 16.6387C0.400759 16.484 0.365246 16.2973 0.400239 16.1171C0.435231 15.9369 0.538058 15.7771 0.687494 15.6705L8.90023 9.91989L1.45234 14.2168C1.29175 14.3044 1.10371 14.3273 0.926782 14.2807C0.749858 14.2341 0.597475 14.1216 0.500904 13.9662C0.404333 13.8108 0.370898 13.6243 0.40746 13.4451C0.444021 13.2658 0.547808 13.1073 0.69752 13.0022L1.29622 12.6011C1.13439 12.6476 0.961359 12.6356 0.807524 12.5671C0.65369 12.4987 0.528884 12.3783 0.455027 12.2269C0.38117 12.0756 0.362984 11.9032 0.403664 11.7398C0.444343 11.5764 0.541287 11.4326 0.677468 11.3336L3.9216 9.01039L1.45377 10.4341C1.29769 10.5224 1.11418 10.5489 0.939508 10.5084C0.764832 10.4679 0.611701 10.3633 0.510378 10.2154C0.409055 10.0675 0.366914 9.88691 0.392283 9.70941C0.417652 9.5319 0.508684 9.37037 0.64739 9.25674L4.23527 6.37212L1.61132 7.88748C1.46299 7.97457 1.28826 8.00537 1.11908 7.97423C0.949911 7.9431 0.797598 7.85211 0.689993 7.71791C0.582388 7.58371 0.526682 7.41526 0.533061 7.24336C0.53944 7.07146 0.607478 6.90761 0.724733 6.78175L3.13098 4.15494C2.99028 4.17219 2.8476 4.14805 2.72041 4.08547C2.59321 4.02289 2.48702 3.92459 2.41483 3.80259C2.31987 3.63811 2.29414 3.44264 2.34329 3.25918C2.39245 3.07573 2.51246 2.91931 2.67694 2.82434L6.32211 0.724605C6.47013 0.639512 6.64367 0.610097 6.81146 0.641663C6.97924 0.673229 7.13023 0.7637 7.2372 0.896764C7.34417 1.02983 7.40008 1.19673 7.39486 1.36738C7.38963 1.53803 7.32361 1.7012 7.2087 1.82747L4.9242 4.32251L11.5858 0.479685C11.7418 0.391415 11.9254 0.364905 12.1 0.405395C12.2747 0.445885 12.4278 0.550428 12.5292 0.698363C12.6305 0.846298 12.6726 1.02686 12.6473 1.20436C12.6219 1.38187 12.5309 1.54339 12.3921 1.65702L8.8014 4.54165L15.8425 0.479685C16.0016 0.389791 16.189 0.364093 16.3664 0.407849C16.5438 0.451605 16.6977 0.561505 16.7967 0.715057C16.8958 0.868609 16.9323 1.0542 16.899 1.23384C16.8657 1.41348 16.7649 1.57358 16.6174 1.68137L13.3747 3.99882L19.4805 0.479685C19.6412 0.389596 19.8305 0.364907 20.0089 0.410753C20.1874 0.456598 20.3413 0.569449 20.4387 0.725845C20.536 0.882242 20.5694 1.07015 20.5318 1.25051C20.4942 1.43087 20.3885 1.5898 20.2368 1.69426L19.8945 1.922L22.3981 0.479685C22.5575 0.390132 22.7451 0.364939 22.9225 0.409273C23.0999 0.453607 23.2536 0.564108 23.3521 0.718128C23.4507 0.872148 23.4866 1.05802 23.4524 1.23765C23.4183 1.41728 23.3168 1.57706 23.1687 1.68424L14.9502 7.43201L27.0015 0.479685C27.1622 0.389596 27.3514 0.364907 27.5299 0.410753C27.7083 0.456598 27.8622 0.569449 27.9596 0.725845C28.057 0.882242 28.0903 1.07015 28.0527 1.25051C28.0152 1.43087 27.9095 1.5898 27.7577 1.69426L20.2683 6.67719L31.0105 0.479685C31.172 0.390822 31.3617 0.367709 31.5399 0.415161C31.718 0.462612 31.8711 0.576971 31.967 0.734422C32.063 0.891873 32.0946 1.08028 32.0551 1.26041C32.0157 1.44054 31.9083 1.59851 31.7552 1.70143L27.4111 4.49009L34.3534 0.479685C34.5148 0.387959 34.7054 0.362453 34.8852 0.408545C35.065 0.454637 35.2198 0.568725 35.3172 0.726765C35.4145 0.884804 35.4466 1.07445 35.4069 1.25574C35.3671 1.43702 35.2585 1.59578 35.1039 1.69856L23.3592 9.37276L38.7491 0.479685C38.9105 0.387959 39.1011 0.362453 39.2809 0.408545C39.4607 0.454637 39.6155 0.568725 39.7129 0.726765C39.8102 0.884804 39.8423 1.07445 39.8025 1.25574C39.7628 1.43702 39.6542 1.59578 39.4996 1.69856L23.1529 12.3791L43.7779 0.476819C43.9398 0.38775 44.13 0.364757 44.3085 0.412649C44.487 0.46054 44.6401 0.575605 44.7358 0.733779C44.8314 0.891952 44.8622 1.08098 44.8217 1.26133C44.7812 1.44167 44.6725 1.59937 44.5184 1.70143L32.0575 9.56755L47.8126 0.475387C47.9748 0.388756 48.1641 0.367835 48.3413 0.416957C48.5185 0.466079 48.67 0.581478 48.7645 0.739253C48.8589 0.897029 48.8891 1.08509 48.8487 1.26447C48.8082 1.44386 48.7004 1.60083 48.5474 1.70286L39.428 7.35466L51.3561 0.479685C51.5177 0.390822 51.7073 0.367709 51.8855 0.415161C52.0637 0.462612 52.2167 0.576971 52.3127 0.734422C52.4087 0.891873 52.4402 1.08028 52.4008 1.26041C52.3613 1.44054 52.2539 1.59851 52.1009 1.70143L28.017 17.1028L56.8189 0.479685C56.9812 0.394143 57.1701 0.374161 57.3467 0.42386C57.5233 0.473559 57.6741 0.589148 57.768 0.746783C57.8619 0.904417 57.8917 1.09207 57.8513 1.27103C57.8109 1.45 57.7033 1.60662 57.5508 1.70859L45.3663 9.20375L60.4769 0.479685C60.6377 0.401684 60.8219 0.38662 60.9932 0.43745C61.1645 0.48828 61.3106 0.601331 61.4029 0.754399C61.4951 0.907467 61.5268 1.08949 61.4917 1.26472C61.4566 1.43995 61.3572 1.59571 61.2131 1.70143L35.8229 17.5841L65.4584 0.479685C65.6208 0.390257 65.8115 0.367271 65.9905 0.415564C66.1694 0.463856 66.3227 0.579662 66.4181 0.738631C66.5134 0.897599 66.5434 1.08735 66.5017 1.26797C66.46 1.44859 66.35 1.60602 66.1946 1.70715L40.6798 17.5096L70.1864 0.479685C70.3489 0.396141 70.5373 0.377899 70.7128 0.428698C70.8884 0.479497 71.0379 0.595492 71.1307 0.752926C71.2235 0.910361 71.2526 1.09732 71.2121 1.27552C71.1715 1.45373 71.0644 1.60968 70.9126 1.71145L65.4111 5.03149L73.2973 0.479685C73.46 0.393897 73.6495 0.374007 73.8265 0.424136C74.0035 0.474266 74.1544 0.59057 74.2479 0.748945C74.3415 0.907319 74.3705 1.09562 74.329 1.27481C74.2875 1.45401 74.1786 1.61036 74.0249 1.71145L59.586 10.4541L76.815 0.50833C76.9782 0.411084 77.1733 0.382633 77.3574 0.429237C77.5415 0.47584 77.6996 0.593679 77.7969 0.756832C77.8941 0.919984 77.9226 1.11509 77.876 1.29921C77.8293 1.48334 77.7115 1.64142 77.5484 1.73867L43.9469 22.4467L80.1838 1.52382C80.3465 1.43217 80.5385 1.40768 80.719 1.45559C80.8995 1.50349 81.0541 1.61999 81.1499 1.78026C81.2458 1.94053 81.2752 2.13189 81.232 2.31354C81.1887 2.4952 81.0763 2.65279 80.9185 2.75273L41.9245 26.861L82.411 3.48749C82.492 3.43971 82.5817 3.40837 82.6749 3.39526C82.7681 3.38214 82.8629 3.38751 82.954 3.41105C83.0451 3.43459 83.1307 3.47585 83.2059 3.53246C83.281 3.58907 83.3443 3.65994 83.3921 3.741C83.4399 3.82207 83.4712 3.91175 83.4843 4.00493C83.4974 4.09811 83.4921 4.19296 83.4685 4.28407C83.445 4.37517 83.4037 4.46075 83.3471 4.53591C83.2905 4.61107 83.2196 4.67435 83.1386 4.72212L73.3432 10.5945L83.1601 4.92694C83.3233 4.836 83.5156 4.81248 83.696 4.86137C83.8763 4.91027 84.0304 5.02772 84.1254 5.18865C84.2203 5.34958 84.2486 5.54126 84.2042 5.72276C84.1598 5.90426 84.0462 6.06122 83.8877 6.16014L70.3611 14.3013L83.5797 6.67003C83.7429 6.57706 83.936 6.55189 84.1176 6.59995C84.2991 6.648 84.4545 6.76544 84.5503 6.92695C84.646 7.08847 84.6746 7.28115 84.6297 7.46349C84.5847 7.64583 84.47 7.80323 84.3102 7.9018L58.128 23.8002L83.7287 9.01325C83.891 8.92771 84.0799 8.90773 84.2566 8.95743C84.4332 9.00713 84.584 9.12272 84.6779 9.28035C84.7717 9.43799 84.8015 9.62564 84.7611 9.80461C84.7207 9.98357 84.6131 10.1402 84.4606 10.2422L49.6202 31.6148L83.7287 11.9222C83.8919 11.8313 84.0842 11.8078 84.2646 11.8567C84.4449 11.9056 84.599 12.023 84.694 12.1839C84.7889 12.3449 84.8172 12.5366 84.7728 12.7181C84.7284 12.8996 84.6148 13.0565 84.4563 13.1554L75.281 18.6697L83.7315 13.8C83.894 13.7119 84.0843 13.69 84.2625 13.7389C84.4408 13.7879 84.5932 13.9038 84.6879 14.0625C84.7826 14.2213 84.8123 14.4104 84.7707 14.5905C84.7291 14.7706 84.6196 14.9277 84.4649 15.0289L49.4268 36.675L83.7287 16.8722C83.8919 16.7813 84.0842 16.7578 84.2646 16.8067C84.4449 16.8555 84.599 16.973 84.694 17.1339C84.7889 17.2949 84.8172 17.4865 84.7728 17.668C84.7284 17.8495 84.6148 18.0065 84.4563 18.1054L83.087 18.9261L83.7287 18.558C83.8911 18.4735 84.0797 18.4544 84.2558 18.5047C84.4319 18.5549 84.582 18.6707 84.6753 18.8282C84.7687 18.9858 84.7981 19.1731 84.7577 19.3516C84.7172 19.5302 84.6099 19.6865 84.4577 19.7884L69.4674 28.902L83.7287 20.6749C83.8914 20.5833 84.0834 20.5588 84.2639 20.6067C84.4444 20.6546 84.599 20.7711 84.6948 20.9314C84.7907 21.0917 84.8201 21.283 84.7769 21.4647C84.7337 21.6463 84.6212 21.8039 84.4634 21.9038L57.9661 38.3637L83.7287 23.4851C83.8911 23.3957 84.0818 23.3727 84.2607 23.421C84.4397 23.4693 84.593 23.5851 84.6883 23.744C84.7837 23.903 84.8137 24.0928 84.772 24.2734C84.7303 24.454 84.6202 24.6114 84.4649 24.7126L60.4784 39.6828L83.7287 26.2609C83.8916 26.1723 84.0825 26.1503 84.2612 26.1996C84.44 26.2489 84.5927 26.3657 84.6871 26.5252C84.7815 26.6848 84.8104 26.8748 84.7676 27.0552C84.7249 27.2357 84.6138 27.3925 84.4577 27.4926L83.12 28.3047L83.7287 27.9538C83.8914 27.8622 84.0834 27.8377 84.2639 27.8856C84.4444 27.9335 84.599 28.05 84.6948 28.2103C84.7907 28.3705 84.8201 28.5619 84.7769 28.7436C84.7337 28.9252 84.6212 29.0828 84.4634 29.1827L70.4514 37.8724L83.7287 30.2068C83.8906 30.1178 84.0808 30.0948 84.2593 30.1426C84.4378 30.1905 84.5909 30.3056 84.6866 30.4638C84.7822 30.622 84.813 30.811 84.7725 30.9913C84.732 31.1717 84.6233 31.3294 84.4692 31.4314L65.4842 43.4813L83.7301 32.9496C83.8924 32.8641 84.0814 32.8441 84.258 32.8938C84.4346 32.9435 84.5854 33.0591 84.6793 33.2167C84.7732 33.3744 84.803 33.562 84.7625 33.741C84.7221 33.92 84.6145 34.0766 84.462 34.1786L83.8519 34.5538C84.0174 34.4953 84.1987 34.4997 84.3613 34.5661C84.5238 34.6325 84.6563 34.7563 84.7336 34.914C84.8108 35.0717 84.8274 35.2522 84.7803 35.4214C84.7331 35.5905 84.6255 35.7365 84.4778 35.8314L67.6942 46.7168L83.7358 37.4599C83.8976 37.3679 84.0888 37.3424 84.269 37.3889C84.4492 37.4354 84.6043 37.5502 84.7013 37.709C84.7983 37.8678 84.8297 38.0582 84.7887 38.2398C84.7478 38.4213 84.6378 38.5798 84.4821 38.6817L72.279 46.5865L83.7373 39.9736C83.8982 39.886 84.0866 39.8635 84.2637 39.9106C84.4408 39.9577 84.593 40.0709 84.6892 40.2268C84.7853 40.3828 84.818 40.5697 84.7806 40.7491C84.7431 40.9284 84.6383 41.0866 84.4878 41.191L73.6597 48.3181L83.7301 42.5059C83.8902 42.4168 84.0784 42.3925 84.2558 42.438C84.4333 42.4834 84.5866 42.5952 84.6842 42.7502C84.7818 42.9052 84.8163 43.0918 84.7806 43.2714C84.7448 43.4511 84.6416 43.6103 84.4921 43.7162L73.7184 51.071L83.7301 45.2931C83.8905 45.2064 84.0778 45.1841 84.254 45.2308C84.4303 45.2774 84.582 45.3895 84.6785 45.5442C84.7749 45.6989 84.8087 45.8845 84.773 46.0633C84.7373 46.242 84.6348 46.4005 84.4864 46.5063L79.3917 49.9251L83.7301 47.4215C83.8901 47.3312 84.0787 47.3058 84.2569 47.3506C84.435 47.3954 84.5892 47.5069 84.6874 47.6622C84.7856 47.8174 84.8204 48.0045 84.7846 48.1847C84.7488 48.3649 84.6451 48.5244 84.495 48.6303L79.8715 51.8315L83.7301 49.6072C83.8882 49.5159 84.0751 49.4885 84.2527 49.5304C84.4303 49.5724 84.5852 49.6805 84.6857 49.8328C84.7863 49.9851 84.8249 50.17 84.7937 50.3498C84.7625 50.5296 84.6638 50.6907 84.5179 50.8003L79.5278 54.5328L83.7301 52.1079C83.8826 52.0218 84.0614 51.9945 84.2326 52.0313C84.4038 52.068 84.5556 52.1662 84.6593 52.3074C84.7631 52.4485 84.8115 52.6227 84.7954 52.7971C84.7794 52.9715 84.7 53.1339 84.5723 53.2538L80.1637 57.3043L83.4136 55.4251C83.5661 55.3365 83.746 55.3073 83.9187 55.3432C84.0915 55.379 84.2449 55.4774 84.3496 55.6193C84.4543 55.7613 84.5029 55.9369 84.4861 56.1125C84.4693 56.2881 84.3883 56.4514 84.2586 56.5709L82.5098 58.1894C82.6193 58.2521 82.7104 58.3426 82.7737 58.4517C82.837 58.5609 82.8703 58.6848 82.8703 58.811C82.8703 58.9372 82.837 59.0612 82.7737 59.1703C82.7104 59.2795 82.6193 59.37 82.5098 59.4326L78.8661 61.5367C78.7135 61.6253 78.5336 61.6544 78.3609 61.6186C78.1882 61.5828 78.0348 61.4844 77.9301 61.3425C77.8253 61.2005 77.7767 61.0249 77.7935 60.8493C77.8103 60.6736 77.8913 60.5104 78.021 60.3909L78.604 59.8523L75.2495 61.7816C75.0971 61.8677 74.9183 61.895 74.7471 61.8582C74.5758 61.8215 74.424 61.7233 74.3203 61.5822C74.2166 61.4411 74.1682 61.2668 74.1842 61.0924C74.2002 60.9181 74.2796 60.7556 74.4074 60.6358L78.8131 56.5867L69.8183 61.7816C69.6602 61.8728 69.4733 61.9003 69.2957 61.8583C69.1181 61.8164 68.9633 61.7082 68.8627 61.5559C68.7622 61.4036 68.7235 61.2187 68.7547 61.0389C68.7859 60.8591 68.8846 60.698 69.0305 60.5885L74.0221 56.8545L65.4842 61.7816C65.3245 61.8688 65.1377 61.892 64.9616 61.8464C64.7855 61.8008 64.6333 61.69 64.536 61.5363C64.4386 61.3826 64.4034 61.1977 64.4375 61.019C64.4715 60.8403 64.5723 60.6813 64.7194 60.5742L69.3385 57.3745L61.7044 61.7816C61.5439 61.8705 61.3555 61.8944 61.1779 61.8484C61.0003 61.8024 60.8472 61.6901 60.75 61.5345C60.6528 61.3789 60.6191 61.192 60.6557 61.0122C60.6923 60.8325 60.7964 60.6736 60.9467 60.5685L66.0457 57.1467L58.0163 61.7816C57.856 61.8732 57.6666 61.8994 57.4876 61.8547C57.3085 61.8101 57.1536 61.698 57.0551 61.5419C56.9567 61.3858 56.9223 61.1978 56.9591 61.0169C56.9959 60.8361 57.1012 60.6765 57.2528 60.5713L68.0208 53.2194L53.1923 61.7816C53.0314 61.8692 52.843 61.8917 52.6659 61.8446C52.4888 61.7975 52.3365 61.6843 52.2404 61.5284C52.1442 61.3724 52.1115 61.1855 52.149 61.0061C52.1865 60.8268 52.2912 60.6686 52.4418 60.5642L63.2699 53.4371L48.8095 61.7816C48.648 61.8718 48.4579 61.8961 48.279 61.8493C48.1001 61.8025 47.9462 61.6883 47.8495 61.5306C47.7529 61.3728 47.7211 61.1839 47.7606 61.0032C47.8002 60.8225 47.9081 60.6642 48.0618 60.5613L60.2678 52.6536L44.4553 61.7816C44.2937 61.8756 44.1017 61.9026 43.9204 61.857C43.7391 61.8113 43.5828 61.6965 43.485 61.5372C43.3872 61.3778 43.3556 61.1865 43.3969 61.0042C43.4383 60.8218 43.5493 60.6629 43.7063 60.5613L60.4855 49.6759L39.5225 61.7816C39.3602 61.8671 39.1713 61.8871 38.9947 61.8374C38.8181 61.7877 38.6673 61.6721 38.5734 61.5145C38.4795 61.3569 38.4497 61.1692 38.4901 60.9902C38.5305 60.8113 38.6381 60.6547 38.7906 60.5527L38.9797 60.4367L36.6451 61.783C36.4834 61.8707 36.2942 61.8927 36.1167 61.8447C35.9391 61.7966 35.7869 61.6821 35.6916 61.5248C35.5962 61.3676 35.5649 61.1796 35.6043 61C35.6437 60.8204 35.7507 60.6628 35.9032 60.5599L54.8724 48.5186L31.897 61.7816C31.7348 61.8682 31.5455 61.8892 31.3683 61.84C31.1911 61.7909 31.0396 61.6755 30.9452 61.5177C30.8507 61.36 30.8206 61.1719 30.861 60.9925C30.9014 60.8131 31.0093 60.6562 31.1623 60.5541L45.1715 51.8659L27.984 61.7859C27.8209 61.8789 27.6277 61.904 27.4462 61.856C27.2647 61.8079 27.1093 61.6905 27.0135 61.529C26.9177 61.3675 26.8892 61.1748 26.9341 60.9924C26.979 60.8101 27.0937 60.6527 27.2536 60.5541L28.6329 59.7162L25.0521 61.7859C24.8901 61.8737 24.7004 61.8956 24.5225 61.8471C24.3447 61.7986 24.1924 61.6833 24.0974 61.5254C24.0024 61.3674 23.9719 61.1789 24.0123 60.9991C24.0528 60.8192 24.161 60.6619 24.3145 60.5599L48.2996 45.5967L20.2497 61.7816C20.0875 61.8682 19.8982 61.8892 19.721 61.84C19.5438 61.7909 19.3923 61.6755 19.2978 61.5177C19.2034 61.36 19.1732 61.1719 19.2137 60.9925C19.2541 60.8131 19.3619 60.6562 19.5149 60.5541L46.0122 44.0914L15.3799 61.7816C15.2173 61.8685 15.0275 61.8894 14.8499 61.8398C14.6723 61.7903 14.5207 61.6741 14.4265 61.5156C14.3324 61.3571 14.3031 61.1684 14.3446 60.9887C14.3861 60.8091 14.4953 60.6524 14.6494 60.5513L29.6541 51.429L11.7161 61.7816C11.6078 61.8465 11.4843 61.8815 11.358 61.8833Z" fill="#D94452"/>
<path d="M30.3014 61.9119C30.159 61.9119 30.0198 61.8694 29.9017 61.7899C29.7835 61.7104 29.6918 61.5975 29.6381 61.4656C29.5845 61.3337 29.5714 61.1888 29.6005 61.0494C29.6296 60.91 29.6996 60.7824 29.8015 60.683L33.6745 56.9118L27.2392 60.6357C27.0832 60.7268 26.8985 60.7556 26.7222 60.7164C26.5459 60.6771 26.3909 60.5726 26.2884 60.4238C26.1858 60.2751 26.1433 60.0931 26.1693 59.9143C26.1953 59.7356 26.2879 59.5732 26.4285 59.4598L30.9789 55.7445L27.2392 57.8972C27.0809 57.9919 26.8921 58.0218 26.7123 57.9807C26.5324 57.9397 26.3754 57.8308 26.2738 57.6768C26.1723 57.5228 26.134 57.3356 26.1671 57.1541C26.2002 56.9726 26.3021 56.8109 26.4514 56.7027L28.3335 55.2919L27.2392 55.9235C27.0837 56.0132 26.9003 56.0413 26.7251 56.0021C26.5499 55.963 26.3959 55.8595 26.2934 55.7122C26.1909 55.5648 26.1475 55.3844 26.1717 55.2065C26.1959 55.0287 26.286 54.8664 26.4242 54.7519L31.3441 50.6656L27.2392 53.0346C27.0833 53.1224 26.9002 53.1487 26.7258 53.1083C26.5515 53.0679 26.3987 52.9637 26.2973 52.8162C26.196 52.6687 26.1536 52.4886 26.1784 52.3114C26.2032 52.1342 26.2934 51.9727 26.4314 51.8587L30.7282 48.3825L27.2392 50.3963C27.0827 50.4855 26.8984 50.5125 26.723 50.4719C26.5475 50.4313 26.3938 50.3261 26.2925 50.1772C26.1911 50.0284 26.1496 49.8468 26.1761 49.6687C26.2026 49.4905 26.2953 49.329 26.4357 49.2161L30.3229 46.1224L27.2392 47.9013C27.0817 47.9904 26.8964 48.0166 26.7204 47.9746C26.5444 47.9326 26.3908 47.8256 26.2905 47.6751C26.1902 47.5245 26.1506 47.3416 26.1797 47.163C26.2087 46.9844 26.3043 46.8235 26.4471 46.7125L28.9966 44.766L27.2392 45.78C27.0824 45.8703 26.8972 45.8979 26.7209 45.8573C26.5445 45.8166 26.3901 45.7107 26.2887 45.5608C26.1873 45.411 26.1464 45.2283 26.1742 45.0494C26.202 44.8706 26.2964 44.709 26.4385 44.597L30.045 41.7524L27.2392 43.3724C27.0818 43.4598 26.8973 43.4847 26.7223 43.4421C26.5474 43.3996 26.3949 43.2927 26.2953 43.1428C26.1956 42.9929 26.156 42.811 26.1844 42.6332C26.2128 42.4555 26.3071 42.2949 26.4486 42.1836L28.8834 40.333L27.2435 41.2784C27.0862 41.3669 26.9013 41.3927 26.7258 41.3508C26.5503 41.3089 26.3971 41.2022 26.2968 41.0522C26.1966 40.9021 26.1566 40.7198 26.185 40.5416C26.2134 40.3634 26.3081 40.2024 26.45 40.091L29.2659 37.9225L27.2435 39.0913C27.0891 39.1788 26.9076 39.2059 26.7344 39.1673C26.5611 39.1286 26.4084 39.027 26.3058 38.8822C26.2032 38.7373 26.1581 38.5595 26.1792 38.3832C26.2002 38.207 26.286 38.0448 26.4199 37.9282L31.9772 33.1573L27.2506 35.8887C27.0931 35.9766 26.9081 36.0018 26.7327 35.9592C26.5573 35.9167 26.4045 35.8095 26.3048 35.6591C26.2051 35.5087 26.1658 35.3261 26.1948 35.148C26.2239 34.9699 26.3191 34.8094 26.4614 34.6984L28.693 33.0083L27.2506 33.8405C27.0923 33.9312 26.9052 33.958 26.7277 33.9155C26.5502 33.8729 26.3957 33.7642 26.2956 33.6115C26.1956 33.4588 26.1577 33.2737 26.1895 33.094C26.2214 32.9143 26.3207 32.7535 26.4672 32.6445L27.4898 31.8911L27.2506 32.0344C27.0934 32.1229 26.9085 32.1488 26.733 32.1068C26.5575 32.0649 26.4043 31.9582 26.304 31.8082C26.2037 31.6581 26.1638 31.4758 26.1922 31.2976C26.2206 31.1194 26.3152 30.9585 26.4572 30.847L29.273 28.6656L27.2392 29.8415C27.0806 29.9332 26.8929 29.9605 26.7148 29.918C26.5366 29.8755 26.3815 29.7664 26.2814 29.613C26.1812 29.4597 26.1436 29.2738 26.1763 29.0936C26.209 28.9134 26.3095 28.7525 26.4572 28.6442L27.2578 28.0583L27.2392 28.0669C27.0824 28.1555 26.8981 28.1818 26.7228 28.1405C26.5475 28.0993 26.3943 27.9935 26.2935 27.8443C26.1927 27.6951 26.1518 27.5134 26.1789 27.3355C26.2061 27.1575 26.2993 26.9962 26.44 26.8839L29.8216 24.2356L27.2435 25.7266C27.0869 25.8163 26.9021 25.8436 26.7262 25.803C26.5504 25.7623 26.3963 25.6568 26.2949 25.5074C26.1936 25.358 26.1523 25.1759 26.1795 24.9975C26.2066 24.819 26.3002 24.6574 26.4414 24.5449L30.1482 21.6116L27.2392 23.2831C27.0819 23.3734 26.8961 23.4006 26.7195 23.3593C26.5429 23.318 26.3885 23.2111 26.2876 23.0604C26.1867 22.9097 26.1467 22.7262 26.1758 22.5472C26.2049 22.3681 26.3008 22.2068 26.4443 22.0957L29.3088 19.8843L27.2335 21.0817C27.0767 21.1702 26.8923 21.1965 26.7171 21.1553C26.5418 21.114 26.3885 21.0082 26.2877 20.8591C26.187 20.7099 26.1461 20.5282 26.1732 20.3502C26.2004 20.1722 26.2936 20.011 26.4342 19.8986L29.8159 17.2517L27.2377 18.7413C27.0826 18.8318 26.8991 18.8606 26.7237 18.8222C26.5483 18.7837 26.3937 18.6808 26.2906 18.5337C26.1875 18.3867 26.1435 18.2062 26.1671 18.0282C26.1908 17.8502 26.2805 17.6876 26.4185 17.5726L31.5948 13.2127L27.2392 15.7292C27.0846 15.8171 26.9028 15.8443 26.7293 15.8056C26.5558 15.7668 26.4028 15.6649 26.3003 15.5197C26.1977 15.3744 26.1529 15.1962 26.1745 15.0197C26.196 14.8432 26.2825 14.681 26.417 14.5648L31.7752 10.0101L27.2392 12.6283C27.0805 12.7186 26.8932 12.7448 26.7158 12.7017C26.5384 12.6585 26.3841 12.5492 26.2846 12.3961C26.1851 12.243 26.1479 12.0576 26.1805 11.878C26.2131 11.6983 26.3131 11.5379 26.46 11.4295L27.0329 11.017C26.8959 11.0481 26.7526 11.0375 26.6216 10.9864C26.4906 10.9354 26.378 10.8462 26.2982 10.7305C26.196 10.5831 26.1528 10.4027 26.1772 10.2251C26.2016 10.0474 26.2918 9.88529 26.4299 9.7709L31.0591 5.92234L27.2392 8.13236C27.0897 8.21763 26.9146 8.24623 26.7457 8.21294C26.5769 8.17965 26.4257 8.08668 26.3198 7.95105C26.2139 7.81542 26.1604 7.6462 26.1691 7.47434C26.1777 7.30249 26.2479 7.13949 26.3669 7.01517L29.041 4.25372L27.2392 5.29356C27.1199 5.36229 26.9834 5.39519 26.8459 5.38834C26.7085 5.38148 26.5759 5.33517 26.4641 5.25493C26.3523 5.17469 26.2659 5.06392 26.2154 4.93589C26.1649 4.80787 26.1524 4.66799 26.1793 4.53302L26.6505 2.18693C26.52 2.14275 26.405 2.06185 26.3193 1.95393C26.2336 1.84602 26.1809 1.71568 26.1674 1.57854C26.154 1.4414 26.1804 1.30329 26.2434 1.18078C26.3065 1.05827 26.4036 0.956559 26.523 0.887847L27.2392 0.472484C27.3585 0.403614 27.4952 0.370643 27.6329 0.37753C27.7705 0.384416 27.9032 0.430866 28.0151 0.511307C28.127 0.591747 28.2133 0.702761 28.2637 0.831031C28.314 0.959302 28.3263 1.09938 28.2991 1.23446L27.8909 3.26115L32.7607 0.452432C32.9101 0.367162 33.0853 0.338557 33.2541 0.371851C33.4229 0.405145 33.5741 0.498112 33.68 0.633741C33.7859 0.76937 33.8394 0.938593 33.8308 1.11045C33.8221 1.2823 33.7519 1.4453 33.6329 1.56962L30.9588 4.3325L37.7135 0.433812C37.8689 0.345658 38.0517 0.318782 38.2259 0.35846C38.4001 0.398138 38.5532 0.501504 38.6551 0.648264C38.757 0.795023 38.8003 0.974576 38.7767 1.15167C38.753 1.32876 38.6639 1.49061 38.527 1.60542L33.8965 5.43966L37.8983 3.12938C38.057 3.03909 38.2442 3.01285 38.4216 3.05601C38.5991 3.09918 38.7533 3.20849 38.8528 3.3616C38.9523 3.5147 38.9896 3.70004 38.957 3.87971C38.9244 4.05938 38.8244 4.21981 38.6774 4.3282L38.1045 4.7407C38.2414 4.71307 38.3832 4.72538 38.5133 4.77618C38.6433 4.82697 38.756 4.91409 38.8379 5.02716C38.9409 5.17309 38.9858 5.3523 38.9635 5.52959C38.9412 5.70688 38.8535 5.86944 38.7175 5.98536L33.3636 10.5357L37.9011 7.92754C38.0561 7.83901 38.2385 7.81151 38.4126 7.85042C38.5868 7.88934 38.7401 7.99187 38.8426 8.13793C38.9451 8.28399 38.9894 8.46305 38.9668 8.64006C38.9442 8.81706 38.8563 8.97925 38.7204 9.09486L33.5398 13.4576L37.904 10.9353C38.061 10.8444 38.2467 10.8165 38.4235 10.8572C38.6003 10.8979 38.7551 11.0041 38.8565 11.1545C38.958 11.3049 38.9986 11.4882 38.9702 11.6674C38.9417 11.8466 38.8463 12.0083 38.7032 12.1198L35.3244 14.7653L37.9026 13.2757C38.0599 13.1854 38.2456 13.1582 38.4223 13.1995C38.5989 13.2408 38.7533 13.3477 38.8542 13.4984C38.9551 13.6491 38.995 13.8326 38.966 14.0116C38.9369 14.1907 38.8409 14.352 38.6975 14.4631L35.8329 16.6717L37.9069 15.4757C38.0635 15.386 38.2482 15.3587 38.4241 15.3993C38.6 15.44 38.754 15.5455 38.8554 15.6949C38.9568 15.8442 38.998 16.0264 38.9709 16.2048C38.9437 16.3833 38.8502 16.5449 38.7089 16.6573L35.0022 19.5849L37.9054 17.9106C38.0622 17.822 38.2466 17.7957 38.4218 17.837C38.5971 17.8783 38.7504 17.984 38.8511 18.1332C38.9519 18.2824 38.9928 18.4641 38.9657 18.6421C38.9385 18.8201 38.8453 18.9813 38.7046 19.0937L35.3187 21.7448L37.9083 20.2452C38.0669 20.1536 38.2546 20.1262 38.4327 20.1687C38.6109 20.2112 38.766 20.3204 38.8661 20.4737C38.9663 20.6271 39.0039 20.813 38.9712 20.9932C38.9385 21.1734 38.838 21.3342 38.6903 21.4426L37.8954 22.0255H37.9097C38.0671 21.9352 38.2528 21.908 38.4294 21.9493C38.6061 21.9907 38.7604 22.0975 38.8613 22.2482C38.9623 22.399 39.0022 22.5824 38.9731 22.7615C38.944 22.9405 38.8481 23.1019 38.7046 23.2129L35.8759 25.39L37.9112 24.2155C38.0695 24.1248 38.2566 24.098 38.4341 24.1405C38.6116 24.1831 38.7661 24.2918 38.8662 24.4445C38.9662 24.5972 39.0041 24.7823 38.9722 24.962C38.9404 25.1417 38.8411 25.3025 38.6946 25.4115L37.6748 26.1606L37.9126 26.0259C38.0702 25.9362 38.2561 25.9096 38.4326 25.9516C38.609 25.9936 38.763 26.101 38.8634 26.2521C38.9638 26.4032 39.003 26.5867 38.9733 26.7657C38.9436 26.9446 38.8471 27.1056 38.7032 27.2162L36.4674 28.9091L37.914 28.0741C38.0685 27.9851 38.2506 27.957 38.4247 27.9951C38.5988 28.0332 38.7525 28.1349 38.8556 28.2803C38.9587 28.4257 39.0039 28.6043 38.9824 28.7813C38.9608 28.9582 38.874 29.1207 38.739 29.2371L33.1817 34.0095L37.9169 31.2738C38.0742 31.1835 38.26 31.1563 38.4366 31.1976C38.6132 31.239 38.7676 31.3458 38.8685 31.4965C38.9694 31.6473 39.0094 31.8307 38.9803 32.0097C38.9512 32.1888 38.8553 32.3502 38.7118 32.4612L35.8974 34.6254L37.9183 33.4595C38.0758 33.3704 38.2611 33.3442 38.4371 33.3862C38.6131 33.4281 38.7667 33.5351 38.867 33.6857C38.9673 33.8363 39.0069 34.0192 38.9778 34.1978C38.9488 34.3763 38.8532 34.5373 38.7104 34.6483L36.2755 36.5017L37.9183 35.5535C38.0749 35.4638 38.2597 35.4365 38.4356 35.4771C38.6114 35.5178 38.7655 35.6233 38.8669 35.7727C38.9682 35.922 39.0095 36.1042 38.9823 36.2826C38.9552 36.4611 38.8616 36.6227 38.7204 36.7351L35.1211 39.5811L37.9212 37.9641C38.0787 37.8731 38.265 37.8454 38.4421 37.8867C38.6193 37.9281 38.7741 38.0353 38.875 38.1866C38.976 38.3379 39.0157 38.522 38.9859 38.7014C38.9561 38.8809 38.8591 39.0423 38.7147 39.1529L36.1566 41.0993L37.9241 40.0795C38.0805 39.9886 38.2657 39.9602 38.4422 40.0002C38.6188 40.0403 38.7736 40.1456 38.8756 40.2952C38.9776 40.4447 39.0192 40.6273 38.992 40.8063C38.9648 40.9852 38.8708 41.1473 38.729 41.2597L34.8446 44.3521L37.9255 42.5731C38.0817 42.4815 38.2668 42.4524 38.4435 42.4917C38.6203 42.531 38.7756 42.6359 38.8782 42.7851C38.9807 42.9343 39.023 43.1169 38.9964 43.296C38.9697 43.4751 38.8763 43.6375 38.7347 43.7505L34.4379 47.2267L37.9298 45.2114C38.0851 45.1221 38.2682 45.0943 38.443 45.1334C38.6178 45.1724 38.7716 45.2756 38.8741 45.4225C38.9766 45.5694 39.0203 45.7494 38.9966 45.9269C38.9729 46.1045 38.8836 46.2667 38.7462 46.3816L33.8248 50.4665L37.9298 48.0975C38.0878 48.0063 38.2747 47.9788 38.4523 48.0208C38.6299 48.0627 38.7848 48.1709 38.8854 48.3232C38.9859 48.4754 39.0245 48.6604 38.9934 48.8402C38.9622 49.02 38.8635 49.1811 38.7175 49.2906L36.8326 50.7057L37.9312 50.0712C38.087 49.9806 38.2713 49.952 38.4472 49.9913C38.6231 50.0306 38.7777 50.1347 38.8803 50.283C38.9828 50.4312 39.0256 50.6127 39.0002 50.7911C38.9748 50.9696 38.8831 51.1319 38.7433 51.2457L34.1944 54.961L37.9326 52.8026C38.0838 52.7142 38.2621 52.6843 38.4338 52.7184C38.6056 52.7526 38.7588 52.8485 38.8646 52.988C38.9704 53.1275 39.0215 53.301 39.0081 53.4755C38.9947 53.6501 38.9179 53.8137 38.792 53.9355L34.9248 57.7053L37.9427 55.9622C38.0952 55.8761 38.2739 55.8488 38.4451 55.8855C38.6164 55.9223 38.7682 56.0205 38.8719 56.1616C38.9756 56.3027 39.024 56.4769 39.008 56.6513C38.992 56.8257 38.9126 56.9882 38.7849 57.108L38.2893 57.5592C38.4487 57.5586 38.6042 57.6088 38.7333 57.7024C38.8454 57.787 38.9302 57.9027 38.9771 58.0352C39.0239 58.1676 39.0308 58.3109 38.9968 58.4472L38.5829 60.0958C38.7048 60.1484 38.8096 60.2338 38.8858 60.3426C38.9619 60.4513 39.0063 60.5791 39.014 60.7116C39.0218 60.8441 38.9925 60.9762 38.9295 61.093C38.8665 61.2099 38.7723 61.307 38.6574 61.3734L37.9412 61.7887C37.8195 61.859 37.6798 61.8918 37.5395 61.8832C37.3992 61.8746 37.2646 61.8249 37.1523 61.7403C37.0401 61.6557 36.9553 61.5399 36.9083 61.4075C36.8614 61.275 36.8545 61.1316 36.8885 60.9952L37.1993 59.742L33.6258 61.8045C33.473 61.8927 33.2932 61.9214 33.1206 61.8852C32.948 61.849 32.7949 61.7504 32.6905 61.6083C32.5858 61.466 32.5374 61.29 32.5546 61.1142C32.5717 60.9384 32.6533 60.7751 32.7836 60.6558L32.9712 60.4853L30.6666 61.8159C30.556 61.8808 30.4296 61.914 30.3014 61.9119Z" fill="#FFDE95"/>
<path d="M4.11196 36.1435C3.95985 36.1434 3.81176 36.0947 3.68913 36.0048C3.5665 35.9148 3.47571 35.7881 3.42992 35.643C3.38412 35.498 3.3857 35.3421 3.43442 35.198C3.48314 35.0539 3.57647 34.9291 3.70089 34.8416L6.63422 32.7848L1.45793 35.7712C1.29968 35.8632 1.11216 35.8912 0.933924 35.8493C0.755686 35.8074 0.600261 35.6989 0.499589 35.5459C0.398917 35.393 0.360645 35.2073 0.392637 35.027C0.424629 34.8468 0.524456 34.6856 0.671603 34.5766L5.74333 30.8054L1.45793 33.279C1.29878 33.3712 1.11022 33.3987 0.931345 33.3557C0.752473 33.3127 0.597007 33.2026 0.497181 33.048C0.397355 32.8935 0.360825 32.7065 0.395166 32.5257C0.429507 32.345 0.532083 32.1844 0.681629 32.0773L1.25454 31.6676C1.09692 31.704 0.931623 31.6859 0.785582 31.6163C0.639541 31.5468 0.521357 31.4298 0.450278 31.2845C0.379199 31.1392 0.359411 30.9741 0.394139 30.8161C0.428866 30.6581 0.516062 30.5165 0.641525 30.4144L2.61235 28.7673L1.45793 29.4333C1.30677 29.5216 1.12847 29.5516 0.956747 29.5174C0.785022 29.4832 0.631765 29.3873 0.525949 29.2478C0.420133 29.1083 0.36909 28.9349 0.382468 28.7603C0.395847 28.5857 0.47272 28.4221 0.598557 28.3003L1.41496 27.5083C1.29235 27.5691 1.15489 27.5935 1.01884 27.5786C0.882799 27.5637 0.753874 27.5101 0.64733 27.4242C0.540787 27.3383 0.461088 27.2237 0.417668 27.0939C0.374249 26.9641 0.368927 26.8246 0.402333 26.6919L0.807671 25.0748C0.668378 25.0147 0.552652 24.9106 0.478245 24.7783C0.383616 24.6142 0.357918 24.4192 0.406778 24.2361C0.455638 24.053 0.575073 23.8967 0.738921 23.8015L1.45506 23.3876C1.57672 23.3171 1.71643 23.284 1.85679 23.2923C1.99714 23.3007 2.13193 23.3502 2.24434 23.4347C2.35675 23.5191 2.44181 23.6348 2.48892 23.7673C2.53602 23.8998 2.54309 24.0432 2.50923 24.1796L2.20272 25.4014L5.6975 23.3962C5.84866 23.3078 6.02696 23.2779 6.19868 23.3121C6.37041 23.3462 6.52367 23.4421 6.62948 23.5816C6.7353 23.7211 6.78634 23.8946 6.77296 24.0692C6.75958 24.2437 6.68271 24.4074 6.55687 24.5291L5.7419 25.3197L9.0777 23.3962C9.23276 23.3087 9.41483 23.2822 9.5884 23.3217C9.76197 23.3612 9.91461 23.4639 10.0165 23.6099C10.1185 23.7558 10.1624 23.9345 10.1398 24.1111C10.1171 24.2876 10.0296 24.4494 9.8941 24.5649L7.93187 26.2006L12.8016 23.3862C12.9608 23.2939 13.1494 23.2664 13.3282 23.3094C13.5071 23.3524 13.6626 23.4626 13.7624 23.6171C13.8622 23.7716 13.8988 23.9586 13.8644 24.1394C13.8301 24.3201 13.7275 24.4807 13.5779 24.5878L13.2915 24.7955L15.7378 23.3847C15.8961 23.2926 16.0836 23.2647 16.2618 23.3066C16.4401 23.3484 16.5955 23.457 16.6962 23.6099C16.7969 23.7629 16.8351 23.9486 16.8031 24.1288C16.7711 24.3091 16.6713 24.4703 16.5242 24.5793L11.4424 28.3548L20.0533 23.3833C20.2129 23.2927 20.4013 23.2669 20.5794 23.3112C20.7575 23.3554 20.9118 23.4664 21.0105 23.6211C21.1092 23.7758 21.1447 23.9626 21.1097 24.1427C21.0747 24.3229 20.9719 24.4827 20.8225 24.5893L17.8863 26.646L23.5438 23.3819C23.7041 23.2917 23.893 23.2667 24.0713 23.312C24.2496 23.3573 24.4036 23.4695 24.5014 23.6254C24.5992 23.7812 24.6333 23.9686 24.5966 24.1489C24.5599 24.3292 24.4553 24.4884 24.3043 24.5936L23.6312 25.0519L26.5287 23.379C26.6857 23.2881 26.8714 23.2601 27.0482 23.3008C27.225 23.3415 27.3797 23.4478 27.4812 23.5982C27.5827 23.7486 27.6233 23.9319 27.5949 24.1111C27.5664 24.2902 27.471 24.4519 27.3279 24.5635L20.8225 29.6352L31.6634 23.3776C31.8207 23.2891 32.0056 23.2632 32.1811 23.3051C32.3566 23.3471 32.5098 23.4537 32.6101 23.6038C32.7104 23.7538 32.7503 23.9362 32.7219 24.1144C32.6935 24.2926 32.5989 24.4535 32.4569 24.5649L26.2652 29.3015L36.5304 23.3747C36.6879 23.2868 36.8729 23.2615 37.0483 23.3041C37.2237 23.3467 37.3765 23.4539 37.4762 23.6043C37.5759 23.7547 37.6152 23.9372 37.5862 24.1153C37.5571 24.2934 37.4619 24.454 37.3195 24.5649L31.367 29.0766L41.2497 23.3718C41.4081 23.2811 41.5952 23.2543 41.7727 23.2968C41.9502 23.3394 42.1047 23.4481 42.2048 23.6008C42.3048 23.7535 42.3427 23.9386 42.3108 24.1183C42.279 24.2981 42.1796 24.4588 42.0332 24.5678L36.8641 28.382L45.5452 23.369C45.7042 23.2791 45.8916 23.2534 46.069 23.2971C46.2464 23.3409 46.4004 23.4508 46.4994 23.6043C46.5984 23.7579 46.635 23.9435 46.6017 24.1231C46.5683 24.3028 46.4676 24.4629 46.32 24.5707L42.3096 27.4352L49.3579 23.3661C49.5171 23.2738 49.7056 23.2463 49.8845 23.2893C50.0634 23.3323 50.2189 23.4425 50.3187 23.597C50.4185 23.7516 50.455 23.9386 50.4207 24.1193C50.3864 24.3001 50.2838 24.4606 50.1342 24.5678L45.8875 27.6257L53.2652 23.3661C53.4229 23.2744 53.6097 23.2463 53.7874 23.2876C53.9652 23.3289 54.1204 23.4365 54.2215 23.5884C54.3226 23.7403 54.3619 23.925 54.3314 24.1049C54.3008 24.2848 54.2028 24.4463 54.0573 24.5563L48.0417 29.1397L58.0376 23.369C58.1975 23.2772 58.3865 23.2507 58.5655 23.2948C58.7444 23.3389 58.8995 23.4503 58.9984 23.6058C59.0973 23.7614 59.1324 23.9491 59.0964 24.1298C59.0605 24.3106 58.9562 24.4705 58.8053 24.5764L56.2272 26.3682L61.4278 23.3604C61.5882 23.2654 61.7792 23.2366 61.9604 23.2802C62.1417 23.3238 62.2987 23.4363 62.3983 23.5939C62.4979 23.7514 62.5321 23.9416 62.4937 24.124C62.4553 24.3064 62.3473 24.4666 62.1927 24.5707L60.4324 25.7824L64.6304 23.3589C64.7865 23.2691 64.9708 23.2413 65.1465 23.2812C65.3222 23.3212 65.4763 23.4258 65.5783 23.5744C65.6802 23.723 65.7224 23.9045 65.6964 24.0827C65.6705 24.261 65.5783 24.423 65.4382 24.5363L58.3928 30.2482L70.3295 23.3561C70.4881 23.2645 70.6757 23.2371 70.8539 23.2796C71.0321 23.3221 71.1872 23.4312 71.2873 23.5846C71.3875 23.7379 71.4251 23.9238 71.3924 24.104C71.3597 24.2843 71.2592 24.4451 71.1115 24.5535L66.1372 28.1972L74.5332 23.3546C74.6935 23.2631 74.8829 23.2369 75.0619 23.2815C75.241 23.3262 75.3959 23.4382 75.4944 23.5943C75.5928 23.7504 75.6272 23.9385 75.5904 24.1193C75.5536 24.3002 75.4483 24.4598 75.2967 24.5649L73.5679 25.7552L77.7301 23.3518C77.8867 23.2589 78.0727 23.229 78.2504 23.2684C78.4282 23.3077 78.5843 23.4133 78.687 23.5636C78.7896 23.7139 78.8313 23.8977 78.8033 24.0776C78.7754 24.2574 78.68 24.4199 78.5365 24.532L71.63 30.0606L83.2559 23.3489C83.4146 23.2586 83.6018 23.2324 83.7792 23.2756C83.9567 23.3187 84.1109 23.428 84.2104 23.5811C84.3099 23.7342 84.3472 23.9196 84.3146 24.0993C84.282 24.2789 84.182 24.4394 84.035 24.5477L79.3973 27.9151L83.74 25.4085C83.8984 25.3178 84.0854 25.291 84.2629 25.3336C84.4404 25.3761 84.595 25.4848 84.695 25.6375C84.795 25.7902 84.833 25.9753 84.8011 26.1551C84.7692 26.3348 84.6699 26.4955 84.5235 26.6045L81.9811 28.4794L83.7371 27.4653C83.8915 27.3736 84.0746 27.3433 84.2503 27.3802C84.426 27.4172 84.5814 27.5188 84.6857 27.6649C84.79 27.811 84.8357 27.991 84.8136 28.1692C84.7915 28.3473 84.7033 28.5107 84.5664 28.6269L81.7906 31.0346L83.7472 29.9059C83.8853 29.8256 84.0464 29.7938 84.2047 29.8156C84.363 29.8374 84.5095 29.9116 84.6208 30.0262C84.7319 30.141 84.8014 30.2897 84.8182 30.4485C84.8351 30.6073 84.7984 30.7672 84.714 30.9028L83.2029 33.3377L83.7586 33.0169C83.923 32.9234 84.1177 32.8987 84.3002 32.9483C84.4827 32.9978 84.6382 33.1176 84.7328 33.2813C84.8273 33.4451 84.8533 33.6396 84.8049 33.8225C84.7566 34.0053 84.6379 34.1616 84.4748 34.2572L81.4598 36.0003C81.3211 36.0819 81.159 36.1144 80.9996 36.0926C80.8402 36.0709 80.6928 35.996 80.5811 35.8802C80.4694 35.7644 80.4 35.6143 80.384 35.4542C80.368 35.2941 80.4064 35.1333 80.493 34.9977L82.0041 32.5628L76.0443 36.0003C75.8902 36.0887 75.7087 36.1166 75.5352 36.0786C75.3616 36.0407 75.2084 35.9396 75.1052 35.795C75.002 35.6504 74.9562 35.4726 74.9768 35.2961C74.9974 35.1197 75.0828 34.9572 75.2165 34.8402L77.9922 32.4325L71.8119 36.0103C71.6534 36.1034 71.4653 36.132 71.2863 36.0902C71.1074 36.0484 70.9513 35.9394 70.8505 35.7858C70.7497 35.6321 70.7118 35.4456 70.7446 35.2648C70.7775 35.084 70.8786 34.9227 71.027 34.8144L73.5622 32.9395L68.2312 36.0118C68.0725 36.1021 67.8852 36.1283 67.7078 36.0851C67.5304 36.042 67.3761 35.9327 67.2766 35.7796C67.1771 35.6264 67.1399 35.4411 67.1725 35.2614C67.2051 35.0818 67.3051 34.9213 67.452 34.8129L72.0826 31.4528L64.1792 36.0146C64.023 36.1034 63.8391 36.1301 63.664 36.0896C63.489 36.049 63.3356 35.9441 63.2342 35.7957C63.1329 35.6473 63.091 35.4663 63.117 35.2885C63.1429 35.1107 63.2348 34.9491 63.3743 34.8359L70.2794 29.3072L58.6549 36.0175C58.4947 36.1091 58.3053 36.1353 58.1262 36.0906C57.9472 36.046 57.7923 35.9339 57.6938 35.7778C57.5953 35.6217 57.5609 35.4337 57.5978 35.2528C57.6346 35.072 57.7398 34.9124 57.8915 34.8072L59.6303 33.6098L55.4566 36.0189C55.2981 36.1084 55.1115 36.1341 54.9347 36.0909C54.7578 36.0477 54.6041 35.9388 54.5047 35.7864C54.4053 35.6339 54.3677 35.4493 54.3995 35.2701C54.4313 35.0909 54.5302 34.9305 54.676 34.8215L59.6375 31.1821L51.2557 36.0218C51.0998 36.1112 50.9159 36.1387 50.7406 36.0988C50.5653 36.0589 50.4115 35.9546 50.3096 35.8065C50.2076 35.6584 50.1652 35.4774 50.1905 35.2995C50.2159 35.1215 50.3073 34.9596 50.4465 34.8459L57.4919 29.1325L45.5552 36.0247C45.395 36.1163 45.2056 36.1424 45.0265 36.0978C44.8475 36.0531 44.6925 35.9411 44.5941 35.785C44.4956 35.6289 44.4612 35.4408 44.4981 35.26C44.5349 35.0792 44.6401 34.9195 44.7918 34.8144L46.5521 33.6041L42.354 36.0261C42.1942 36.1178 42.0051 36.1444 41.8262 36.1003C41.6472 36.0562 41.4921 35.9447 41.3932 35.7892C41.2944 35.6337 41.2592 35.446 41.2952 35.2652C41.3312 35.0845 41.4354 34.9245 41.5863 34.8187L44.1645 33.0197L38.9552 36.0275C38.7975 36.1193 38.6107 36.1474 38.433 36.1061C38.2553 36.0647 38.1 35.9572 37.9989 35.8053C37.8978 35.6534 37.8585 35.4686 37.8891 35.2887C37.9196 35.1088 38.0176 34.9474 38.1632 34.8373L44.1788 30.254L34.1828 36.0247C34.0237 36.1169 33.8351 36.1444 33.6563 36.1014C33.4774 36.0584 33.3219 35.9483 33.2221 35.7937C33.1223 35.6392 33.0857 35.4522 33.1201 35.2714C33.1544 35.0907 33.257 34.9301 33.4065 34.823L37.6561 31.7665L30.2784 36.0261C30.1194 36.116 29.932 36.1417 29.7546 36.0979C29.5772 36.0542 29.4232 35.9443 29.3242 35.7907C29.2252 35.6372 29.1886 35.4516 29.222 35.2719C29.2553 35.0923 29.356 34.9322 29.5036 34.8244L33.5039 31.9598L26.4614 36.0261C26.303 36.1168 26.1159 36.1436 25.9384 36.1011C25.7609 36.0585 25.6064 35.9498 25.5064 35.7971C25.4063 35.6444 25.3684 35.4593 25.4003 35.2796C25.4322 35.0999 25.5315 34.9391 25.6779 34.8301L30.8571 31.0131L22.1702 36.0261C22.0126 36.1158 21.8268 36.1424 21.6503 36.1004C21.4738 36.0585 21.3198 35.9511 21.2194 35.8C21.1191 35.6489 21.0798 35.4653 21.1095 35.2863C21.1392 35.1074 21.2358 34.9464 21.3796 34.8359L27.3322 30.3227L17.4494 36.029C17.2952 36.0961 17.1223 36.1069 16.9609 36.0593C16.7996 36.0118 16.6601 35.9089 16.567 35.7688C16.4739 35.6287 16.4331 35.4603 16.4517 35.2931C16.4703 35.126 16.5472 34.9707 16.6688 34.8545L22.8506 30.1179L12.5854 36.0419C12.4284 36.1328 12.2427 36.1607 12.0659 36.12C11.8891 36.0793 11.7343 35.9731 11.6328 35.8227C11.5314 35.6723 11.4908 35.489 11.5192 35.3098C11.5477 35.1306 11.6431 34.9689 11.7862 34.8574L18.293 29.7871L7.45492 36.0447C7.29458 36.1349 7.10568 36.1599 6.9274 36.1146C6.74911 36.0692 6.59511 35.957 6.49732 35.8012C6.39952 35.6454 6.36544 35.4579 6.40212 35.2777C6.43881 35.0974 6.54346 34.9382 6.69437 34.833L7.37901 34.3661L4.47003 36.0461C4.36146 36.1099 4.23785 36.1435 4.11196 36.1435Z" fill="#FFDE95"/>
<path d="M46.5766 50.2774C46.4528 50.2771 46.3312 50.2447 46.2237 50.1834C46.1162 50.1221 46.0264 50.034 45.9631 49.9277C45.8998 49.8214 45.8651 49.7005 45.8624 49.5768C45.8597 49.453 45.8891 49.3307 45.9478 49.2218L46.5751 48.0559L45.8275 48.4856C45.6855 48.5674 45.5198 48.5981 45.3579 48.5725C45.196 48.5469 45.0479 48.4665 44.9381 48.3449C44.8283 48.2232 44.7636 48.0676 44.7547 47.9039C44.7458 47.7403 44.7933 47.5786 44.8893 47.4457L46.7699 44.8519L44.5642 46.1252C44.4118 46.209 44.2341 46.2345 44.0642 46.197C43.8944 46.1594 43.744 46.0612 43.6412 45.9209C43.5385 45.7806 43.4902 45.6076 43.5056 45.4344C43.521 45.2611 43.599 45.0994 43.7249 44.9793L44.3923 44.3764L43.6576 44.806C43.5021 44.8942 43.3194 44.9211 43.1452 44.8814C42.971 44.8417 42.8179 44.7383 42.716 44.5916C42.6141 44.4448 42.5707 44.2653 42.5944 44.0882C42.6181 43.9111 42.7071 43.7492 42.844 43.6344L43.3124 43.2463L42.7996 43.5428C42.6443 43.632 42.4612 43.6599 42.2864 43.6208C42.1116 43.5817 41.9578 43.4786 41.8553 43.3317C41.7528 43.1848 41.7091 43.0048 41.7328 42.8273C41.7565 42.6497 41.8458 42.4875 41.9832 42.3726L43.8294 40.8372L41.681 42.0775C41.5257 42.1668 41.3426 42.1947 41.1678 42.1556C40.993 42.1165 40.8392 42.0134 40.7367 41.8665C40.6342 41.7196 40.5905 41.5396 40.6142 41.362C40.6378 41.1845 40.7272 41.0223 40.8646 40.9073L43.8194 38.4352L40.296 40.4691C40.1405 40.5588 39.957 40.5868 39.7819 40.5477C39.6067 40.5085 39.4527 40.405 39.3502 40.2577C39.2477 40.1104 39.2043 39.9299 39.2285 39.7521C39.2527 39.5743 39.3428 39.412 39.481 39.2975L43.5859 35.8972L38.6202 38.7618C38.4648 38.8499 38.282 38.8768 38.1078 38.8371C37.9336 38.7975 37.7805 38.6941 37.6786 38.5473C37.5767 38.4006 37.5334 38.221 37.557 38.0439C37.5807 37.8668 37.6698 37.705 37.8067 37.5902L43.3296 33.0484L36.5778 36.9528C36.4191 37.0411 36.2329 37.0658 36.0567 37.022C35.8805 36.9782 35.7276 36.8691 35.6288 36.7168C35.53 36.5645 35.4927 36.3803 35.5245 36.2016C35.5563 36.0229 35.6548 35.8629 35.8 35.754L38.583 33.7416L34.9235 35.8571C34.764 35.9491 34.5752 35.9761 34.3963 35.9325C34.2174 35.8889 34.0621 35.7781 33.9628 35.6231C33.8634 35.4681 33.8276 35.2808 33.8627 35.1001C33.8979 34.9193 34.0013 34.7591 34.1515 34.6525L37.1034 32.5628L33.2534 34.7857C33.1719 34.8376 33.0808 34.8724 32.9854 34.888C32.8901 34.9037 32.7927 34.8999 32.6988 34.877C32.605 34.854 32.5168 34.8123 32.4396 34.7543C32.3623 34.6964 32.2975 34.6234 32.2492 34.5398C32.2009 34.4562 32.1699 34.3636 32.1583 34.2677C32.1467 34.1719 32.1545 34.0746 32.1814 33.9819C32.2083 33.8891 32.2537 33.8027 32.3149 33.728C32.376 33.6532 32.4517 33.5916 32.5373 33.5468L49.9897 23.4692C50.1491 23.3797 50.3367 23.3545 50.5141 23.3988C50.6915 23.4432 50.8452 23.5537 50.9437 23.7077C51.0423 23.8617 51.0781 24.0476 51.044 24.2272C51.0099 24.4068 50.9084 24.5666 50.7603 24.6738L47.8183 26.7506L50.0584 25.4616C50.2174 25.3703 50.4052 25.3435 50.5833 25.3866C50.7615 25.4297 50.9163 25.5395 51.0159 25.6932C51.1156 25.847 51.1525 26.0332 51.119 26.2133C51.0856 26.3935 50.9844 26.554 50.8362 26.6618L48.0361 28.6785L50.1272 27.4725C50.2828 27.3839 50.4659 27.3569 50.6404 27.3966C50.815 27.4364 50.9683 27.5401 51.0702 27.6873C51.1721 27.8344 51.2152 28.0145 51.191 28.1918C51.1667 28.3692 51.077 28.5311 50.9393 28.6455L45.4221 33.1845L50.2303 30.4144C50.3856 30.3266 50.568 30.2999 50.7418 30.3395C50.9157 30.3791 51.0686 30.4822 51.1705 30.6285C51.2724 30.7748 51.3161 30.9539 51.2929 31.1308C51.2698 31.3076 51.1815 31.4694 51.0453 31.5846L46.9375 34.9877L50.3277 33.0283C50.483 32.9374 50.6669 32.9084 50.8427 32.9469C51.0185 32.9854 51.1733 33.0887 51.2764 33.2362C51.3795 33.3837 51.4233 33.5646 51.399 33.7429C51.3748 33.9212 51.2843 34.0839 51.1456 34.1985L48.1936 36.6578L50.4094 35.3801C50.5646 35.2924 50.747 35.2657 50.9209 35.3053C51.0948 35.3449 51.2476 35.4479 51.3495 35.5942C51.4515 35.7406 51.4951 35.9197 51.472 36.0965C51.4488 36.2733 51.3605 36.4352 51.2243 36.5503L49.3681 38.0886L50.0269 37.709C50.1824 37.6194 50.3659 37.5913 50.541 37.6304C50.7162 37.6696 50.8702 37.7731 50.9727 37.9204C51.0752 38.0677 51.1186 38.2482 51.0944 38.426C51.0702 38.6039 50.9801 38.7661 50.8419 38.8807L49.8851 39.6699C50.0284 39.6733 50.1673 39.7196 50.2839 39.8029C50.4006 39.8861 50.4895 40.0024 50.5394 40.1368C50.5892 40.2711 50.5976 40.4173 50.5634 40.5565C50.5292 40.6957 50.4541 40.8214 50.3478 40.9174L49.328 41.8398C49.4269 41.8408 49.5246 41.8623 49.6148 41.903C49.7051 41.9437 49.7859 42.0026 49.8522 42.0761C49.9626 42.1977 50.0279 42.3536 50.037 42.5177C50.0461 42.6817 49.9986 42.8439 49.9023 42.977L48.0217 45.568L48.0518 45.5508C48.1867 45.4737 48.3431 45.4425 48.4973 45.4621C48.6515 45.4816 48.7951 45.5508 48.9065 45.6591C49.0179 45.7675 49.0911 45.9091 49.1149 46.0627C49.1388 46.2163 49.112 46.3734 49.0387 46.5105L48.0633 48.318C48.1621 48.3794 48.2438 48.4646 48.301 48.5658C48.3957 48.73 48.4214 48.925 48.3725 49.1081C48.3236 49.2911 48.2042 49.4474 48.0404 49.5426L46.9346 50.1814C46.8261 50.245 46.7024 50.2781 46.5766 50.2774ZM37.2939 20.8424C37.1459 20.8426 37.0015 20.7969 36.8805 20.7117C36.7595 20.6265 36.6679 20.5058 36.6183 20.3664C36.5687 20.2269 36.5635 20.0756 36.6034 19.9331C36.6433 19.7905 36.7264 19.6639 36.8413 19.5706L39.544 17.3806C39.4304 17.3328 39.3316 17.2557 39.2576 17.1572C39.1526 17.0176 39.1022 16.8445 39.1159 16.6704C39.1297 16.4963 39.2065 16.3332 39.332 16.2118L41.4475 14.1723C41.4381 14.1598 41.4299 14.1463 41.4232 14.1322C41.3281 13.9678 41.3021 13.7725 41.351 13.5891C41.3999 13.4056 41.5196 13.2491 41.6839 13.1539L43.7822 11.9436C43.9335 11.8558 44.1117 11.8264 44.2832 11.8609C44.4547 11.8955 44.6077 11.9916 44.7131 12.1313C44.8185 12.2709 44.8691 12.4443 44.8554 12.6187C44.8417 12.7932 44.7646 12.9565 44.6387 13.078L44.5141 13.1969L45.2302 12.7858C45.3864 12.6941 45.5715 12.665 45.7482 12.7044C45.925 12.7437 46.0803 12.8485 46.1829 12.9978C46.2855 13.147 46.3277 13.3296 46.3011 13.5087C46.2745 13.6878 46.181 13.8502 46.0394 13.9631L44.7833 14.9815L46.134 14.2023C46.2976 14.1167 46.4881 14.0977 46.6655 14.1491C46.8429 14.2006 46.9935 14.3186 47.0859 14.4785C47.1784 14.6384 47.2055 14.8279 47.1615 15.0073C47.1176 15.1867 47.006 15.3422 46.8501 15.4413L37.6606 20.7407C37.55 20.8077 37.4231 20.8429 37.2939 20.8424Z" fill="#F5B945"/>
<path d="M17.2719 49.1688C17.1304 49.1688 16.992 49.1268 16.8743 49.0482C16.7566 48.9696 16.6648 48.8579 16.6106 48.7272C16.5563 48.5965 16.542 48.4526 16.5695 48.3138C16.597 48.1749 16.6649 48.0473 16.7649 47.9471L18.0725 46.6351L17.1501 47.1665C16.9949 47.2558 16.8118 47.2836 16.637 47.2446C16.4622 47.2055 16.3083 47.1023 16.2059 46.9554C16.1034 46.8085 16.0596 46.6285 16.0833 46.451C16.107 46.2735 16.1963 46.1112 16.3337 45.9963L19.3487 43.4884L16.6188 45.0639C16.457 45.156 16.2658 45.1814 16.0856 45.1349C15.9054 45.0885 15.7503 44.9736 15.6533 44.8148C15.5563 44.656 15.525 44.4656 15.5659 44.2841C15.6068 44.1025 15.7168 43.944 15.8725 43.8422L26.0547 37.2536L16.096 43.0043C15.9351 43.0975 15.7443 43.1245 15.5639 43.0796C15.3835 43.0347 15.2277 42.9214 15.1293 42.7637C15.0309 42.606 14.9977 42.4162 15.0367 42.2344C15.0757 42.0526 15.1838 41.8932 15.3383 41.7897L31.8053 30.7009L15.387 40.1726C15.2265 40.2615 15.0381 40.2854 14.8605 40.2394C14.6829 40.1935 14.5298 40.0811 14.4326 39.9255C14.3354 39.7699 14.3017 39.583 14.3383 39.4033C14.3749 39.2235 14.479 39.0647 14.6293 38.9595L30.2054 28.4837L14.6952 37.4327C14.5366 37.5209 14.3503 37.5457 14.1742 37.5018C13.998 37.458 13.845 37.3489 13.7462 37.1966C13.6474 37.0443 13.6101 36.8602 13.6419 36.6814C13.6737 36.5027 13.7722 36.3427 13.9175 36.2338L21.5616 30.6708L14.7783 34.591C14.6205 34.6796 14.435 34.7051 14.2592 34.6625C14.0834 34.6199 13.9302 34.5123 13.8304 34.3614C13.7306 34.2105 13.6917 34.0274 13.7214 33.8489C13.7511 33.6704 13.8472 33.5098 13.9905 33.3993L19.7412 29.0781L14.8714 31.8868C14.7158 31.9739 14.5334 31.9998 14.3598 31.9596C14.1861 31.9193 14.0338 31.8157 13.9324 31.6691C13.8311 31.5225 13.7881 31.3433 13.8118 31.1666C13.8355 30.99 13.9243 30.8285 14.0607 30.7138L20.685 25.2912L14.9917 28.5854C14.8346 28.6734 14.6502 28.699 14.4751 28.6571C14.3 28.6152 14.1471 28.5089 14.0469 28.3593C13.9467 28.2098 13.9064 28.028 13.9342 27.8501C13.962 27.6722 14.0557 27.5114 14.1968 27.3995L17.8419 24.5836L15.0791 26.1777C14.9215 26.2687 14.7353 26.2964 14.5581 26.255C14.381 26.2137 14.2262 26.1065 14.1252 25.9552C14.0242 25.8039 13.9846 25.6198 14.0144 25.4404C14.0441 25.2609 14.1411 25.0995 14.2856 24.9889L16.3824 23.3962L15.1664 24.0981C15.0108 24.1882 14.8269 24.2165 14.6514 24.1773C14.4759 24.1381 14.3215 24.0343 14.219 23.8865C14.1166 23.7387 14.0734 23.5577 14.0982 23.3796C14.123 23.2015 14.2139 23.0392 14.3529 22.925L17.2332 20.5617L15.5589 21.5285C15.4027 21.6157 15.2195 21.6413 15.0454 21.6002C14.8713 21.5591 14.7189 21.4544 14.6181 21.3066C14.5174 21.1587 14.4756 20.9786 14.501 20.8015C14.5264 20.6244 14.6171 20.4633 14.7554 20.3498L16.5787 18.8946C16.461 18.8666 16.3524 18.8094 16.2628 18.7281C16.1733 18.6468 16.1058 18.5442 16.0666 18.4298C16.0274 18.3154 16.0178 18.193 16.0387 18.0739C16.0597 17.9548 16.1104 17.8429 16.1862 17.7487L18.9076 14.3843C18.7985 14.321 18.7081 14.2301 18.6455 14.1207C18.5509 13.9564 18.5255 13.7613 18.5746 13.5782C18.6237 13.395 18.7435 13.2389 18.9076 13.1439L20.9128 11.9895C21.0575 11.9068 21.2266 11.8773 21.3908 11.9059C21.5551 11.9345 21.7042 12.0195 21.8124 12.1463C21.9207 12.2731 21.9813 12.4336 21.9839 12.6003C21.9865 12.767 21.9309 12.9294 21.8266 13.0594L19.7297 15.6519L23.1428 13.6825C23.2991 13.5937 23.483 13.567 23.6581 13.6076C23.8331 13.6481 23.9865 13.753 24.0879 13.9014C24.1892 14.0498 24.231 14.2308 24.2051 14.4086C24.1791 14.5864 24.0873 14.748 23.9478 14.8612L23.1428 15.5029L24.0953 14.9529C24.2512 14.8605 24.4362 14.8306 24.6133 14.8692C24.7903 14.9079 24.9461 15.0122 25.0493 15.1611C25.1524 15.3101 25.1953 15.4926 25.1693 15.6719C25.1432 15.8512 25.0501 16.014 24.9088 16.1274L22.0314 18.4864L25.3256 16.5886C25.4831 16.4995 25.6684 16.4733 25.8444 16.5152C26.0204 16.5572 26.174 16.6642 26.2743 16.8148C26.3746 16.9653 26.4142 17.1483 26.3852 17.3269C26.3561 17.5054 26.2606 17.6664 26.1177 17.7774L24.0165 19.3586L26.3712 18.0008C26.5283 17.9129 26.7127 17.8873 26.8878 17.9292C27.0629 17.9711 27.2158 18.0774 27.316 18.2269C27.4162 18.3765 27.4565 18.5583 27.4287 18.7361C27.4009 18.914 27.3072 19.0749 27.1661 19.1867L23.5267 21.9983L27.6016 19.6451C27.7574 19.5545 27.9416 19.5259 28.1175 19.5652C28.2934 19.6045 28.4481 19.7086 28.5506 19.8569C28.6531 20.0051 28.6959 20.1866 28.6706 20.365C28.6452 20.5435 28.5534 20.7058 28.4137 20.8196L21.785 26.2465L29.2974 21.9095C29.4552 21.821 29.6406 21.7954 29.8165 21.838C29.9923 21.8806 30.1455 21.9882 30.2453 22.1391C30.345 22.2901 30.384 22.4732 30.3543 22.6516C30.3246 22.8301 30.2284 22.9907 30.0851 23.1012L24.3316 27.4224L32.5974 22.6515C32.756 22.5632 32.9422 22.5385 33.1184 22.5823C33.2946 22.6261 33.4476 22.7352 33.5464 22.8875C33.6452 23.0398 33.6824 23.2239 33.6506 23.4027C33.6189 23.5814 33.5204 23.7414 33.3751 23.8503L25.7324 29.4118L47.5963 16.7891C47.7571 16.6959 47.9479 16.6689 48.1283 16.7138C48.3087 16.7586 48.4646 16.8719 48.563 17.0297C48.6614 17.1874 48.6946 17.3772 48.6556 17.559C48.6166 17.7407 48.5084 17.9002 48.354 18.0037L32.7807 28.4766L48.9412 19.1481C49.1017 19.0592 49.2901 19.0353 49.4677 19.0813C49.6453 19.1272 49.7984 19.2396 49.8956 19.3952C49.9928 19.5508 50.0265 19.7377 49.9899 19.9174C49.9533 20.0972 49.8492 20.256 49.6989 20.3612L33.2276 31.4615L49.9324 21.8207C50.0944 21.7216 50.2891 21.6909 50.4738 21.7353C50.6585 21.7798 50.8179 21.8958 50.917 22.0578C51.0162 22.2198 51.0469 22.4145 51.0025 22.5992C50.958 22.7839 50.842 22.9433 50.68 23.0425L26.904 38.4152C26.961 38.556 26.9717 38.7112 26.9346 38.8585C26.8975 39.0058 26.8146 39.1374 26.6978 39.2345L22.6158 42.6319C22.7321 42.6697 22.8368 42.7367 22.9199 42.8265C23.003 42.9163 23.0617 43.0259 23.0904 43.1448C23.1192 43.2637 23.117 43.388 23.084 43.5058C23.051 43.6236 22.9885 43.731 22.9022 43.8178L20.6106 46.1224C20.7184 46.1855 20.8079 46.2758 20.87 46.3842C20.9322 46.4926 20.9649 46.6154 20.9649 46.7404C20.9649 46.8654 20.9322 46.9882 20.87 47.0966C20.8079 47.205 20.7184 47.2953 20.6106 47.3584L17.6414 49.0772C17.529 49.1412 17.4012 49.1729 17.2719 49.1688Z" fill="#F5B945"/>
<path d="M9.80112 38.8335C9.65082 38.8335 9.50432 38.7862 9.38239 38.6983C9.26045 38.6104 9.16926 38.4864 9.12173 38.3438C9.0742 38.2012 9.07274 38.0473 9.11756 37.9038C9.16237 37.7603 9.25119 37.6346 9.37144 37.5444L15.3226 33.1273L8.67964 36.9615C8.5232 37.0507 8.33889 37.0777 8.16344 37.0371C7.98798 36.9965 7.83426 36.8913 7.73291 36.7424C7.63156 36.5936 7.59002 36.412 7.61656 36.2338C7.6431 36.0557 7.73578 35.8941 7.87613 35.7813L14.6852 30.3658L8.61949 33.8663C8.4619 33.9543 8.27693 33.9795 8.10156 33.9369C7.92619 33.8943 7.77336 33.7871 7.67364 33.6367C7.57391 33.4863 7.53464 33.3038 7.56369 33.1257C7.59274 32.9476 7.68795 32.787 7.8303 32.6761L10.8854 30.3629L8.61805 31.6721C8.46161 31.7613 8.2773 31.7883 8.10185 31.7477C7.92639 31.7071 7.77267 31.6018 7.67132 31.453C7.56997 31.3041 7.52843 31.1225 7.55497 30.9444C7.58151 30.7663 7.67419 30.6047 7.81454 30.4918L10.3583 28.468L8.61805 29.4706C8.46373 29.5607 8.28129 29.5899 8.10656 29.5524C7.93184 29.5149 7.77745 29.4134 7.67373 29.2678C7.57001 29.1223 7.52445 28.9433 7.546 28.7659C7.56755 28.5884 7.65465 28.4255 7.79019 28.309L9.99592 26.3941L8.61805 27.189C8.47231 27.2728 8.30171 27.3027 8.13615 27.2734C7.97058 27.2441 7.82061 27.1575 7.7125 27.0287C7.60439 26.8999 7.54504 26.7372 7.54484 26.5691C7.54464 26.4009 7.60361 26.2381 7.71142 26.109L9.98159 23.3963L8.61805 24.1826C8.48191 24.2608 8.32386 24.292 8.16822 24.2716C8.01258 24.2511 7.86797 24.1801 7.75665 24.0694C7.64532 23.9587 7.57345 23.8145 7.55208 23.659C7.5307 23.5035 7.56102 23.3453 7.63837 23.2087L8.5579 21.5973C8.42286 21.6105 8.28693 21.5838 8.16682 21.5207C8.04671 21.4576 7.94767 21.3608 7.88186 21.2421C7.78678 21.0778 7.76082 20.8825 7.8097 20.699C7.85859 20.5156 7.9783 20.3591 8.14254 20.2639L10.069 19.1524C10.2043 19.0731 10.3622 19.0411 10.5178 19.0613C10.6733 19.0815 10.8177 19.1529 10.9283 19.2641C11.0392 19.3748 11.1107 19.5188 11.132 19.674C11.1532 19.8292 11.1229 19.9871 11.0458 20.1235L10.1864 21.616L12.7645 20.1292C12.9103 20.0454 13.0809 20.0155 13.2464 20.0448C13.412 20.0742 13.562 20.1608 13.6701 20.2896C13.7782 20.4183 13.8375 20.581 13.8377 20.7492C13.8379 20.9173 13.779 21.0802 13.6712 21.2092L11.4082 23.9277L15.7322 21.4312C15.8863 21.3428 16.0678 21.3149 16.2414 21.3529C16.4149 21.3908 16.5682 21.4919 16.6713 21.6365C16.7745 21.7811 16.8203 21.9589 16.7997 22.1354C16.7792 22.3118 16.6938 22.4743 16.5601 22.5913L14.3529 24.5077L17.9809 22.4137C18.1374 22.3228 18.3225 22.2945 18.4991 22.3345C18.6756 22.3745 18.8305 22.4798 18.9324 22.6294C19.0344 22.7789 19.076 22.9615 19.0488 23.1405C19.0216 23.3194 18.9277 23.4815 18.7859 23.594L16.2393 25.6178L20.1465 23.3619C20.3042 23.2722 20.49 23.2456 20.6665 23.2876C20.843 23.3296 20.997 23.4369 21.0973 23.5881C21.1977 23.7392 21.237 23.9227 21.2073 24.1017C21.1775 24.2806 21.081 24.4416 20.9372 24.5522L17.8864 26.8639L22.3136 24.3072C22.4703 24.2157 22.6559 24.187 22.8329 24.227C23.0099 24.267 23.1651 24.3728 23.2671 24.5228C23.3692 24.6729 23.4105 24.8561 23.3826 25.0354C23.3548 25.2148 23.2599 25.3768 23.1171 25.4889L16.3066 30.9058L25.3973 25.6579C25.5555 25.568 25.742 25.5416 25.9189 25.5842C26.0958 25.6268 26.2498 25.7351 26.3497 25.8872C26.4497 26.0393 26.488 26.2236 26.4568 26.4029C26.4257 26.5822 26.3275 26.7429 26.1822 26.8524L20.2353 31.2739L28.0456 26.7636C28.2038 26.6737 28.3903 26.6473 28.5672 26.6899C28.7441 26.7325 28.8981 26.8408 28.998 26.9929C29.098 27.145 29.1363 27.3294 29.1051 27.5087C29.074 27.6879 28.9758 27.8486 28.8305 27.9581L28.4839 28.2145L30.999 26.7636C31.1376 26.6854 31.2982 26.6556 31.4557 26.6789C31.6131 26.7021 31.7582 26.7772 31.8683 26.8921C31.9783 27.0071 32.0469 27.1554 32.0633 27.3137C32.0796 27.472 32.0428 27.6312 31.9586 27.7662L31.4931 28.4823L34.4938 26.7507C34.6206 26.6781 34.7665 26.6461 34.9121 26.6588C35.0576 26.6716 35.1957 26.7286 35.308 26.8221C35.4202 26.9156 35.5012 27.0412 35.54 27.1821C35.5787 27.3229 35.5735 27.4723 35.525 27.6101L35.0309 28.9779L46.3459 22.4453C46.4986 22.3509 46.681 22.3172 46.8573 22.3509C47.0335 22.3847 47.1907 22.4833 47.2976 22.6274C47.4046 22.7715 47.4536 22.9504 47.4349 23.1289C47.4162 23.3074 47.3312 23.4723 47.1967 23.5911L43.0674 27.507L56.0769 19.996C56.234 19.9064 56.4193 19.8795 56.5954 19.9208C56.7716 19.9621 56.9256 20.0686 57.0264 20.2188C57.1273 20.369 57.1676 20.5518 57.1391 20.7305C57.1107 20.9092 57.0157 21.0705 56.8733 21.182L50.0198 26.4714L56.5152 22.7217C56.6734 22.6296 56.861 22.6016 57.0392 22.6435C57.2174 22.6854 57.3729 22.794 57.4735 22.9469C57.5742 23.0998 57.6125 23.2855 57.5805 23.4658C57.5485 23.6461 57.4487 23.8073 57.3015 23.9162L53.622 26.6633L56.5238 24.989C56.68 24.9018 56.8632 24.8763 57.0373 24.9173C57.2113 24.9584 57.3638 25.0632 57.4645 25.211C57.5653 25.3588 57.6071 25.539 57.5817 25.716C57.5563 25.8931 57.4655 26.0542 57.3273 26.1678L53.6922 29.0667L56.5238 27.4325C56.6787 27.3439 56.8611 27.3165 57.0353 27.3554C57.2094 27.3943 57.3628 27.4968 57.4653 27.6429C57.5678 27.7889 57.6121 27.968 57.5895 28.145C57.5669 28.322 57.479 28.4842 57.3431 28.5998L54.7248 30.7969L56.5166 29.7628C56.6725 29.675 56.8556 29.6487 57.03 29.6891C57.2043 29.7295 57.3571 29.8337 57.4585 29.9812C57.5598 30.1287 57.6022 30.3088 57.5774 30.486C57.5526 30.6632 57.4624 30.8247 57.3244 30.9387L56.836 31.3355C56.9501 31.325 57.0649 31.344 57.1694 31.3907C57.274 31.4373 57.3649 31.5101 57.4333 31.6019C57.5401 31.7356 57.5955 31.9031 57.5895 32.0742C57.5834 32.2452 57.5163 32.4085 57.4003 32.5343L55.7976 34.2731L56.5138 33.8592C56.6605 33.7748 56.8323 33.7451 56.9989 33.7754C57.1654 33.8057 57.3158 33.894 57.4234 34.0246C57.531 34.1552 57.5889 34.3198 57.5868 34.489C57.5847 34.6582 57.5227 34.8212 57.4118 34.9491L56.8962 35.5421C57.0471 35.557 57.1895 35.6195 57.3026 35.7206C57.4158 35.8216 57.4939 35.956 57.5258 36.1043C57.5576 36.2527 57.5416 36.4073 57.4799 36.5459C57.4182 36.6845 57.3141 36.7999 57.1826 36.8756L54.1619 38.6201C54.0152 38.7044 53.8433 38.7341 53.6768 38.7038C53.5103 38.6735 53.3599 38.5852 53.2523 38.4546C53.1447 38.324 53.0868 38.1595 53.0889 37.9902C53.091 37.821 53.153 37.658 53.2639 37.5301L53.5145 37.2437L52.4346 37.8653C52.2865 37.9494 52.1132 37.978 51.9459 37.9459C51.7786 37.9137 51.6282 37.823 51.5218 37.69C51.4153 37.557 51.3598 37.3904 51.3651 37.2201C51.3705 37.0499 51.4363 36.8871 51.5509 36.761L53.1536 35.0222L50.0498 36.8168C49.8937 36.9067 49.7094 36.9345 49.5338 36.8945C49.3581 36.8546 49.2039 36.7499 49.102 36.6014C49.0001 36.4528 48.9579 36.2713 48.9838 36.093C49.0098 35.9148 49.102 35.7528 49.242 35.6395L49.3452 35.5564L48.407 36.0978C48.2518 36.19 48.0676 36.2201 47.8911 36.1823C47.7146 36.1444 47.559 36.0413 47.4553 35.8936C47.3516 35.7459 47.3074 35.5645 47.3317 35.3857C47.356 35.2068 47.4469 35.0438 47.5863 34.9291L50.1959 32.7348L46.1111 35.0938C45.9546 35.183 45.7703 35.21 45.5948 35.1694C45.4194 35.1288 45.2657 35.0236 45.1643 34.8747C45.063 34.7259 45.0214 34.5443 45.048 34.3661C45.0745 34.188 45.1672 34.0264 45.3075 33.9136L48.9441 31.0146L43.7019 34.0396C43.5438 34.1296 43.3573 34.1559 43.1804 34.1133C43.0035 34.0707 42.8494 33.9624 42.7495 33.8103C42.6496 33.6583 42.6113 33.4739 42.6424 33.2946C42.6735 33.1153 42.7717 32.9546 42.917 32.8451L46.6038 30.1008L41.4704 33.0642C41.3131 33.1566 41.1264 33.1853 40.9485 33.1447C40.7706 33.104 40.6149 32.997 40.5133 32.8454C40.4117 32.6939 40.3717 32.5093 40.4016 32.3293C40.4315 32.1493 40.5289 31.9874 40.6741 31.8769L47.529 26.5874L38.5343 31.7795C38.3816 31.8739 38.1992 31.9075 38.0229 31.8738C37.8467 31.8401 37.6895 31.7414 37.5825 31.5973C37.4756 31.4533 37.4266 31.2743 37.4453 31.0958C37.464 30.9174 37.549 30.7524 37.6835 30.6336L41.8142 26.7192L34.0483 31.2008C33.9215 31.2739 33.7753 31.3064 33.6295 31.2938C33.4837 31.2813 33.3452 31.2244 33.2327 31.1308C33.1202 31.0372 33.0391 30.9113 33.0003 30.7702C32.9615 30.6291 32.9668 30.4794 33.0156 30.3415L33.5112 28.9736L29.644 31.208C29.5055 31.2862 29.3448 31.316 29.1874 31.2927C29.03 31.2695 28.8848 31.1944 28.7747 31.0795C28.6647 30.9645 28.5961 30.8162 28.5798 30.6579C28.5634 30.4996 28.6002 30.3404 28.6844 30.2054L29.1499 29.4892L18.4364 35.6739C18.2782 35.7638 18.0917 35.7901 17.9148 35.7475C17.7379 35.705 17.5839 35.5966 17.4839 35.4446C17.384 35.2925 17.3457 35.1081 17.3769 34.9288C17.408 34.7495 17.5062 34.5888 17.6515 34.4793L17.9881 34.2287L10.1592 38.7375C10.0503 38.8004 9.92684 38.8335 9.80112 38.8335Z" fill="#FDCD56"/>
<path d="M31.7952 34.5066C31.6527 34.5065 31.5133 34.464 31.3951 34.3843C31.2768 34.3046 31.1851 34.1915 31.1315 34.0593C31.078 33.9272 31.0651 33.782 31.0946 33.6425C31.124 33.503 31.1944 33.3755 31.2968 33.2762L32.1347 32.467L30.257 33.5498C30.1067 33.6364 29.9302 33.6656 29.7601 33.6319C29.59 33.5982 29.4379 33.5039 29.332 33.3665C29.2262 33.2292 29.1738 33.0581 29.1845 32.885C29.1952 32.7119 29.2684 32.5486 29.3904 32.4254L32.3581 29.4477L28.8992 31.4443C28.745 31.5341 28.5629 31.5631 28.3885 31.5257C28.214 31.4883 28.0599 31.3871 27.9561 31.2419C27.8524 31.0968 27.8065 30.9182 27.8276 30.741C27.8486 30.5639 27.935 30.401 28.0699 30.2842L29.9318 28.6585L28.67 29.3861C28.5177 29.4679 28.3409 29.4917 28.1724 29.4534C28.0039 29.415 27.8549 29.317 27.753 29.1773C27.651 29.0377 27.6031 28.866 27.6179 28.6937C27.6327 28.5215 27.7093 28.3605 27.8335 28.2403L29.0137 27.1775L28.6886 27.3652C28.5409 27.4493 28.3681 27.4782 28.201 27.4466C28.034 27.415 27.8836 27.3251 27.7768 27.1928C27.6701 27.0605 27.6138 26.8946 27.6182 26.7246C27.6225 26.5547 27.6872 26.3918 27.8006 26.2652L28.9865 24.9604C28.8602 24.9119 28.7501 24.8287 28.6691 24.7203C28.5881 24.6119 28.5394 24.4828 28.5288 24.3479C28.5182 24.213 28.546 24.0779 28.609 23.9581C28.672 23.8384 28.7676 23.7389 28.8848 23.6713L31.6592 22.07C31.8069 21.9858 31.9797 21.957 32.1468 21.9885C32.3138 22.0201 32.4642 22.1101 32.571 22.2424C32.6777 22.3747 32.734 22.5406 32.7296 22.7106C32.7253 22.8805 32.6606 23.0434 32.5472 23.17L31.9471 23.8303L34.2072 22.5269C34.3595 22.4452 34.5363 22.4213 34.7048 22.4597C34.8734 22.498 35.0223 22.5961 35.1243 22.7357C35.2262 22.8753 35.2742 23.0471 35.2593 23.2193C35.2445 23.3915 35.1679 23.5526 35.0437 23.6727L33.8649 24.7326L35.5837 23.7429C35.7376 23.6534 35.9194 23.6246 36.0936 23.6619C36.2677 23.6992 36.4217 23.8001 36.5255 23.9448C36.6292 24.0896 36.6753 24.2678 36.6548 24.4447C36.6343 24.6216 36.5485 24.7845 36.4144 24.9016L34.5524 26.5244L36.3184 25.5046C36.4686 25.418 36.6452 25.3889 36.8153 25.4226C36.9854 25.4563 37.1375 25.5505 37.2433 25.6879C37.3492 25.8252 37.4016 25.9963 37.3909 26.1694C37.3801 26.3425 37.307 26.5058 37.1849 26.629L34.2144 29.6096L36.4616 28.3133C36.613 28.2236 36.792 28.1927 36.9647 28.2266C37.1373 28.2604 37.2915 28.3566 37.3977 28.4969C37.504 28.6371 37.5549 28.8116 37.5407 28.9869C37.5266 29.1623 37.4484 29.3263 37.321 29.4477L36.3915 30.3472C36.5583 30.3097 36.733 30.3332 36.8841 30.4134C37.0351 30.4936 37.1525 30.6252 37.2149 30.7844C37.2774 30.9435 37.2808 31.1198 37.2246 31.2813C37.1684 31.4428 37.0563 31.5789 36.9085 31.6649L32.1533 34.4106C32.0447 34.4742 31.9211 34.5073 31.7952 34.5066Z" fill="#FFD67B"/>
<path d="M85.1809 9.04044C84.8186 0.720281 78.4993 0.282002 71.9652 0.282002H36.2712C27.189 0.282002 17.8534 -0.352502 8.78844 0.282002C-0.528589 0.93226 0.00565486 8.89435 0.00565486 16.0028V51.1053C0.00565486 58.4716 3.44314 61.9706 10.7851 61.9792C32.8165 62.0069 54.848 62.0069 76.8794 61.9792C77.0364 61.9789 77.1917 61.9472 77.3363 61.8861C87.1718 60.2261 85.1809 49.7575 85.1809 42.0891C85.1809 31.1077 85.6608 20.0103 85.1809 9.04044ZM51.8 36.3513C51.7341 36.2845 51.6499 36.2386 51.558 36.2195C51.2859 36.0763 51.0252 35.9331 50.7888 35.8314L37.7235 30.1108C37.8375 29.6155 37.8989 29.1094 37.9069 28.6012C37.9069 28.2503 37.9197 27.8965 37.9226 27.5456L50.1758 22.1817C50.541 22.1464 50.8824 21.9848 51.1412 21.7248C52.9416 20.7952 55.037 19.499 55.8806 22.1989C56.0418 22.7645 56.1308 23.3483 56.1456 23.9362C55.9035 24.174 55.8319 24.4146 56.1456 24.5091C56.1456 26.2064 55.8749 28.0899 55.8749 29.4878C56.0862 31.4963 56.1341 33.5186 56.0181 35.5349C55.9394 35.6466 55.8993 35.7526 55.9451 35.8371C55.9179 35.9417 55.9021 36.0563 55.8692 36.1536C55.1788 38.2018 53.3355 37.1849 51.8 36.3513ZM13.25 36.7165C11.5929 37.563 9.92281 38.229 9.25537 35.8185C9.21093 35.6423 9.17555 35.464 9.14938 35.2843C9.17225 35.2542 9.18895 35.2199 9.19852 35.1834C9.2081 35.1469 9.21035 35.1088 9.20516 35.0714C9.19997 35.034 9.18743 34.998 9.16827 34.9654C9.14911 34.9329 9.12371 34.9045 9.09352 34.8818C9.05465 33.0822 9.10868 31.2818 9.25537 29.4878C9.25537 27.9696 8.94599 25.8899 8.98037 24.0623C9.23818 23.7858 9.32842 23.4894 9.01474 23.3605C9.04276 22.8757 9.12344 22.3955 9.25537 21.9282C10.0918 19.234 12.2388 21.1576 14.0263 21.9396L27.232 27.7203C27.1805 28.6367 27.2006 29.5557 27.2922 30.4689L14.7611 35.9531L14.6866 35.9875C14.4007 35.94 14.1071 35.9851 13.8487 36.1163C13.5902 36.2474 13.3805 36.4577 13.25 36.7165ZM2.10109 33.0112V24.6395H7.16566C7.13129 25.844 7.18142 27.0615 7.18142 28.077C7.03516 30.3001 7.00265 32.5293 7.08402 34.7557H2.10109V33.0112ZM37.8567 26.2107C37.7903 25.4661 37.5445 24.7486 37.1406 24.1196C36.8591 23.7096 36.5087 23.3515 36.105 23.0611L38.9324 19.277C40.0395 17.7932 41.3186 15.1592 42.8239 14.0635C45.054 12.4421 47.7424 18.6769 48.9913 21.2135C45.2516 22.799 41.5606 24.555 37.8567 26.2107ZM33.2734 33.4566C33.1085 33.3377 32.9132 33.2683 32.7103 33.2563C32.5074 33.2444 32.3052 33.2905 32.1276 33.3893C30.0379 32.7591 29.0109 29.8931 29.1427 27.3265C29.3002 27.1832 29.3346 27.04 29.1842 26.9168C29.2397 25.7153 29.724 24.5735 30.5492 23.6985C30.7892 23.6188 31.0021 23.4734 31.1636 23.2788C31.4635 23.1223 31.7918 23.0278 32.129 23.0009C32.7607 22.9586 33.388 23.1323 33.9079 23.4937C33.9454 23.5993 34.0119 23.6924 34.0998 23.762C34.1877 23.8317 34.2934 23.8752 34.4049 23.8875C35.243 24.8369 35.7624 26.025 35.8902 27.2849C35.8672 27.3369 35.8585 27.394 35.865 27.4504C35.8716 27.5068 35.8931 27.5605 35.9274 27.6058C36.2125 30.2397 35.3416 33.0656 33.2834 33.4566H33.2734ZM37.258 1.82314V18.6797L34.5567 22.2977C34.053 22.1436 33.5295 22.064 33.0027 22.0614C32.2816 22.0699 31.5669 22.1971 30.8872 22.4381L27.8794 18.4062V1.82314H37.258ZM26.0933 19.4102L29.1212 23.465C28.3232 24.1665 27.7527 25.0901 27.4827 26.1176C23.6914 24.4118 19.9073 22.6071 16.0645 21.0058L18.9076 16.0071C19.7669 14.4946 20.3126 12.6341 22.2018 14.1981C23.7243 15.4571 24.9131 17.829 26.0933 19.4102ZM27.5543 31.5331C27.649 31.8054 27.7739 32.0663 27.9267 32.3108C28.5636 33.2798 29.5434 33.9721 30.6695 34.2487C26.9305 36.6234 23.7216 39.744 21.2436 43.4153C20.6564 44.2747 20.0978 45.1341 19.5793 46.0364C18.6827 47.5833 18.6125 48.6919 17.8448 46.5549C16.8665 43.3982 16.0594 40.1909 15.4271 36.9471C19.5063 35.2513 23.5224 33.3292 27.5543 31.5331ZM27.8407 60.4381C27.701 59.3011 27.7107 58.1508 27.8694 57.0164V38.3107C29.2726 37.0358 30.8059 35.912 32.4441 34.9577C34.1808 35.9909 35.8019 37.2072 37.2795 38.5857C37.2795 38.6043 37.2537 38.6215 37.2537 38.6415V60.4381H27.8407ZM34.2402 34.0167C35.463 33.6131 36.4928 32.7706 37.1306 31.652C41.3057 33.5139 45.4665 35.5063 49.7017 37.2379C49.1267 40.2962 48.3681 43.3171 47.4301 46.2842C46.6796 48.2823 46.7956 48.0588 45.8546 46.3616C45.3633 45.4821 44.852 44.6199 44.2891 43.7834C41.7149 39.817 38.2827 36.4792 34.2459 34.0167H34.2402ZM57.9575 29.2686C57.9575 27.9796 58.1121 26.2379 58.1007 24.5636H77.7517C79.2942 24.5636 80.9027 24.4476 82.4367 24.5636C82.6691 24.5856 82.9032 24.5856 83.1356 24.5636C83.09 24.6303 83.0621 24.7074 83.0546 24.7879C83.0471 24.8683 83.0602 24.9494 83.0927 25.0233C83.1356 25.1838 83.1571 25.3585 83.1915 25.5246C83.1242 26.5731 83.0783 27.5298 83.0783 28.3505V34.8402H57.9002C58.0244 32.9856 58.0436 31.1254 57.9575 29.2686ZM76.2664 1.82314C84.7026 3.2053 83.9234 15.1033 83.3376 23.3805H58.0434C57.8242 20.4701 56.7801 18.187 52.9344 19.6293C52.267 19.88 51.6096 20.1622 50.9464 20.4286C49.3365 17.2417 46.4748 9.6864 42.2725 12.3433C41.0738 13.2732 40.0748 14.435 39.3348 15.7593V1.82314H53.7737C60.9022 1.82314 69.2009 0.665855 76.2664 1.82314ZM2.10825 8.37013C3.94301 -0.843776 16.096 1.82314 22.2634 1.82314H25.7997V15.4299C25.0751 13.9917 23.9208 12.8148 22.4969 12.0626C20.3986 11.3765 18.8059 12.8346 17.8247 14.4688C16.6617 16.4067 15.5718 18.3904 14.4646 20.3627C13.8444 20.1163 13.2285 19.8514 12.6026 19.6208C8.64378 18.1627 7.53519 20.4443 7.2473 23.2931H1.70865C1.22976 18.3212 1.36397 13.3093 2.10825 8.37013ZM8.3473 60.4381C-0.00150663 58.7494 1.3649 44.3965 1.93638 36.0978H7.31319C7.82451 38.146 9.11357 39.392 12.183 38.2462C12.5998 38.0915 13.0108 37.9111 13.4262 37.7478L14.7525 43.0773C15.052 45.1415 15.5696 47.168 16.2965 49.123C16.3822 49.3898 16.525 49.6347 16.715 49.8407C16.905 50.0467 17.1376 50.2089 17.3966 50.3159C17.6556 50.4229 17.9348 50.4722 18.2148 50.4604C18.4948 50.4485 18.7688 50.3758 19.0178 50.2474C19.7999 49.9079 20.1236 48.9053 20.4917 48.2565C21.4472 46.4663 22.5046 44.7323 23.6585 43.063C24.3291 42.1457 25.0462 41.2632 25.8069 40.419V60.4567C20.2496 60.567 13.6897 61.518 8.3473 60.4381ZM77.057 60.4381H39.3334V40.6725C39.9149 41.3271 40.4792 41.9931 41.0192 42.6978C42.2559 44.3461 43.3575 46.0915 44.3135 47.917C44.6758 48.6031 45.0468 49.9494 45.9363 50.2445C46.4912 50.3797 47.076 50.3154 47.5884 50.063C48.1008 49.8106 48.5082 49.3861 48.7392 48.8638C49.4221 47.0803 49.9072 45.2273 50.1859 43.338C50.6356 41.5496 51.0815 39.7602 51.5236 37.9698C51.8631 38.1016 52.1982 38.2562 52.5391 38.3766C55.8448 39.6069 57.1768 38.2004 57.6953 36.0119H83.0783V45.8545C83.0783 50.5166 84.6753 59.414 77.057 60.4381Z" fill="#262626"/>
<path d="M73.6139 7.36891C74.5038 7.27581 75.401 7.27581 76.2909 7.36891C77.6086 7.67542 77.3637 8.86852 77.3637 9.92411C77.3637 10.56 79.4376 10.1733 79.4376 9.36839C79.4376 8.17386 79.5808 6.89053 78.2474 6.36058C77.449 6.16152 76.6213 6.10767 75.8039 6.2016H68.7785C67.9994 6.2016 66.5757 7.37607 67.9707 7.37607L73.6139 7.36891ZM60.815 7.39183H62.2473C62.5044 7.41237 62.7628 7.37108 63.0008 7.27142C63.2387 7.17175 63.4494 7.0166 63.6151 6.81891C63.8457 6.40355 63.4175 6.17438 63.0422 6.17438H61.6099C61.3528 6.15384 61.0944 6.19513 60.8565 6.2948C60.6185 6.39446 60.4078 6.54962 60.2421 6.7473C60.0129 7.16266 60.4412 7.39183 60.815 7.39183Z" fill="#262626"/>
</svg>
