<svg width="24" height="24" viewBox="0 0 24 24" fill="none" xmlns="http://www.w3.org/2000/svg">
<path d="M4.71694 3.5122L7.28919 2.02746L2.77176 5.41875L9.90124 1.30245L1.79937 6.84262L11.6146 1.17603L1.33385 7.74009L12.6241 1.22168L0.978759 8.59426L13.5376 1.34342L0.710296 9.42618L14.3925 1.52682L0.49061 10.3681L15.32 1.80621L0.392278 10.9706L15.8917 2.02239L0.334917 11.497L16.3759 2.23544L0.293945 12.3902L17.17 2.64672L0.305652 13.0254L17.7128 2.97566L0.360671 13.7161L18.2845 3.36782L0.441053 14.3077L18.7566 3.73344L0.540947 14.8415L19.1679 4.08697L0.674788 15.4003L19.585 4.48225L0.785997 15.7912L19.8652 4.77569L0.921399 16.2002L20.1528 5.09722L1.10987 16.702L20.4934 5.51084L1.28312 17.107L20.7588 5.8628L1.46184 17.4886L21.0011 6.20775L1.76269 18.0529L21.3398 6.75014L2.16382 18.7088L21.7073 7.42559L2.53608 19.2411L21.9824 8.01363L2.86775 19.6637L22.1826 8.51231L3.23884 20.0913L22.3684 9.0469L3.68992 20.5564L22.5479 9.66889L4.0333 20.8803L22.6544 10.1293L4.56828 21.3306L22.7777 10.8173L4.94405 21.6178L22.8374 11.2871L5.36235 21.9089L22.878 11.7963L5.90474 22.2457L22.8994 12.4335L6.65471 22.6487L22.8694 13.2873L7.45035 22.9968L22.7761 14.1485L7.95879 23.1837L22.6836 14.6823L8.8387 23.4428L22.471 15.5719L9.46889 23.5825L22.2751 16.1889L10.6672 23.7448L21.8197 17.306L11.5908 23.7842L21.3866 18.1286L12.7903 23.721L20.7311 19.1365L13.8966 23.5497L20.0232 20.0121L15.6162 23.046L18.7277 21.2495" fill="black"/>
<path d="M4.71694 3.5122L7.28919 2.02746L2.77176 5.41875L9.90124 1.30245L1.79937 6.84262L11.6146 1.17603L1.33385 7.74009L12.6241 1.22168L0.978759 8.59426L13.5376 1.34342L0.710296 9.42618L14.3925 1.52682L0.49061 10.3681L15.32 1.80621L0.392278 10.9706L15.8917 2.02238L0.334917 11.497L16.3759 2.23544L0.293945 12.3902L17.17 2.64672L0.305652 13.0254L17.7128 2.97566L0.360671 13.7161L18.2845 3.36782L0.441053 14.3077L18.7566 3.73344L0.540947 14.8415L19.1679 4.08697L0.674788 15.4003L19.585 4.48225L0.785997 15.7912L19.8652 4.77569L0.921399 16.2002L20.1528 5.09722L1.10987 16.702L20.4934 5.51084L1.28312 17.107L20.7588 5.8628L1.46184 17.4886L21.0011 6.20775L1.76269 18.0529L21.3398 6.75014L2.16382 18.7088L21.7073 7.42559L2.53608 19.2411L21.9824 8.01363L2.86775 19.6637L22.1826 8.51231L3.23884 20.0913L22.3684 9.0469L3.68992 20.5565L22.5479 9.66889L4.0333 20.8803L22.6544 10.1293L4.56828 21.3306L22.7777 10.8173L4.94405 21.6178L22.8374 11.2871L5.36235 21.9089L22.878 11.7963L5.90474 22.2457L22.8994 12.4335L6.65471 22.6487L22.8694 13.2873L7.45035 22.9968L22.7761 14.1485L7.95879 23.1837L22.6836 14.6823L8.8387 23.4428L22.471 15.5719L9.46889 23.5825L22.2751 16.1889L10.6672 23.7448L21.8197 17.306L11.5908 23.7842L21.3866 18.1286L12.7903 23.721L20.7311 19.1365L13.8966 23.5497L20.0232 20.0121L15.6162 23.046L18.7277 21.2495" stroke="#4684AA" stroke-width="0.390207" stroke-linecap="round" stroke-linejoin="round"/>
<path d="M10.1541 4.55402L11.201 3.94958L9.67334 5.60211L12.3443 4.05962L9.70768 6.28888L12.9214 4.43344L9.88756 6.75908L13.2426 4.82209L10.2341 7.22576L13.4712 5.35706L10.7605 7.59568L13.527 5.99856L11.624 7.78415L13.2597 6.83985M8.50701 10.022L8.96043 9.76016L8.48633 10.8762L10.4194 9.76016L9.04159 11.3116L11.7293 9.76016L9.73811 11.6862L12.9686 9.82103L10.0397 12.371L13.1454 10.578L10.0472 13.0824L13.1454 11.2937L10.0472 13.649L13.1454 11.8603L10.0472 14.3455L13.1454 12.5568L10.0472 14.9382L13.1454 13.1495L10.0472 15.4111L13.1454 13.6224L10.0472 15.998L13.1454 14.2093L10.0472 16.6684L13.1454 14.8797L10.0472 17.1456L13.1454 15.3569L9.95741 17.7259L13.1454 15.8852L8.48633 19.3265L13.1454 16.6364L8.48633 19.8084L13.1454 17.1187L8.84337 20.27L13.2371 17.7329L9.67568 20.2723L13.431 18.1044L10.6266 20.2723L13.7701 18.4575L11.7594 20.2723L14.403 18.7462L12.9866 20.2723L14.7062 19.2797L14.2329 20.2723L14.6856 20.0109" fill="black"/>
<path d="M10.1541 4.55402L11.201 3.94958L9.67334 5.60211L12.3443 4.05962L9.70768 6.28888L12.9214 4.43344L9.88756 6.75908L13.2426 4.82209L10.2341 7.22576L13.4712 5.35706L10.7605 7.59568L13.527 5.99856L11.624 7.78415L13.2597 6.83985M8.50701 10.022L8.96043 9.76016L8.48633 10.8762L10.4194 9.76016L9.04159 11.3116L11.7293 9.76016L9.73811 11.6862L12.9686 9.82103L10.0397 12.371L13.1454 10.578L10.0472 13.0824L13.1454 11.2937L10.0472 13.649L13.1454 11.8603L10.0472 14.3455L13.1454 12.5568L10.0472 14.9382L13.1454 13.1495L10.0472 15.4111L13.1454 13.6224L10.0472 15.998L13.1454 14.2093L10.0472 16.6684L13.1454 14.8797L10.0472 17.1456L13.1454 15.3569L9.95741 17.7259L13.1454 15.8852L8.48633 19.3265L13.1454 16.6364L8.48633 19.8084L13.1454 17.1187L8.84337 20.27L13.2371 17.7329L9.67568 20.2723L13.431 18.1044L10.6266 20.2723L13.7701 18.4575L11.7594 20.2723L14.403 18.7462L12.9866 20.2723L14.7062 19.2797L14.2329 20.2723L14.6856 20.0109" stroke="white" stroke-width="0.390207" stroke-linecap="round" stroke-linejoin="round"/>
<path d="M15.5646 1.65011C13.3216 0.874477 10.8972 0.790868 8.60606 1.41013C6.31491 2.0294 4.26276 3.32296 2.71588 5.12296C-4.30863 13.3384 3.32383 25.9737 13.8551 23.7394C25.2164 21.4594 26.5072 5.60526 15.5646 1.65011ZM22.6274 12.5104C22.6214 14.7682 21.9342 16.9716 20.6556 18.8326C19.3771 20.6935 17.5667 22.1252 15.4612 22.9406C5.82739 26.5754 -3.17157 15.531 2.10209 6.76573C7.83384 -2.90634 22.6059 1.39492 22.6282 12.5104H22.6274Z" fill="#262626"/>
<path d="M12.007 7.84736C14.1177 7.49891 14.5172 4.50368 12.3801 3.86491C8.79562 3.01309 8.17753 8.42175 12.007 7.84736ZM10.1731 4.84277C11.0175 3.21404 13.3447 4.29882 13.2639 5.92325C13.0399 9.1089 8.85805 7.38809 10.1734 4.8416L10.1731 4.84277ZM14.0576 18.3553C12.8616 17.4714 13.6557 13.6837 13.4395 12.1291C13.3162 11.4841 13.7754 9.85693 13.066 9.62476C11.9735 9.51238 10.8419 9.64739 9.74031 9.60018C9.34737 9.60018 8.80733 9.51823 8.46199 9.75197C8.0913 9.96619 8.08544 10.9971 8.32854 11.2987C8.6731 11.5594 9.187 11.4131 9.47029 11.8025C9.66707 12.0383 9.76793 12.3394 9.7528 12.6461C9.75943 13.8745 9.7489 15.1044 9.7528 16.3316C9.8605 17.5081 9.69895 18.413 8.43156 18.756C8.17285 18.9468 8.19197 19.1954 8.19197 19.4826C8.19197 20.0203 8.22358 20.414 8.85883 20.4323C10.2246 20.4714 11.6004 20.4323 12.9681 20.4323C13.6315 20.3765 14.7771 20.7199 14.9995 19.8548C15.0838 18.7736 15.0093 18.7552 14.0576 18.3553ZM14.2659 20.1358C12.5256 20.1814 10.7424 20.1104 8.99814 20.1358C8.66919 20.0261 8.75699 19.5946 8.75699 19.3308C8.73912 19.209 8.74414 19.085 8.77182 18.9651C9.93854 18.3674 10.4341 17.9826 10.3178 16.5459C10.2058 14.98 10.5601 13.3071 10.1489 11.797C9.46561 10.6908 8.44131 11.797 8.80108 9.89595C10.0396 9.91976 11.3628 9.82962 12.6037 9.89595C13.146 10.0634 12.7691 11.5848 12.8745 12.1034V16.2649C12.8838 16.956 12.7574 17.7337 13.2471 18.2998C13.9179 19.0822 14.616 18.5312 14.4349 19.9114C14.4372 20.1896 14.4649 20.1018 14.2659 20.1358Z" fill="#262626"/>
</svg>
