<svg width="18" height="24" viewBox="0 0 18 24" fill="none" xmlns="http://www.w3.org/2000/svg">
<path d="M14.123 22.0552C14.0829 22.0554 14.0437 22.0431 14.0108 22.0201C13.9801 21.999 13.9561 21.9695 13.9416 21.9352C13.927 21.9009 13.9225 21.8632 13.9285 21.8264L14.0072 21.3385L13.4371 21.6673C13.3978 21.69 13.3519 21.6985 13.3071 21.6913C13.2624 21.6841 13.2215 21.6616 13.1913 21.6278C13.1612 21.5939 13.1437 21.5506 13.1417 21.5053C13.1398 21.46 13.1536 21.4154 13.1807 21.3791L13.4 21.0853L12.8562 21.4004C12.8167 21.4231 12.7706 21.4314 12.7256 21.4239C12.6807 21.4163 12.6397 21.3935 12.6098 21.3591C12.5798 21.3248 12.5627 21.2811 12.5613 21.2356C12.5599 21.19 12.5744 21.1454 12.6023 21.1094L13.1626 20.3876L12.051 21.0294C12.0286 21.0425 12.0038 21.0511 11.9781 21.0546C11.9523 21.0582 11.9262 21.0565 11.9011 21.0499C11.876 21.0433 11.8524 21.0317 11.8318 21.016C11.8112 21.0002 11.7939 20.9805 11.7809 20.958C11.7679 20.9355 11.7595 20.9107 11.7562 20.8849C11.7528 20.8592 11.7546 20.833 11.7614 20.808C11.7682 20.7829 11.7799 20.7595 11.7958 20.7389C11.8117 20.7184 11.8315 20.7012 11.8541 20.6884L13.8359 19.5441C13.8754 19.5216 13.9215 19.5135 13.9663 19.5211C14.0111 19.5287 14.0519 19.5516 14.0818 19.5858C14.1117 19.6201 14.1288 19.6637 14.1302 19.7091C14.1316 19.7545 14.1172 19.7991 14.0895 19.8351L13.53 20.5565L14.0301 20.2679C14.0693 20.2453 14.1151 20.237 14.1597 20.2442C14.2043 20.2515 14.2451 20.2739 14.2752 20.3076C14.3053 20.3414 14.3228 20.3845 14.3249 20.4297C14.3269 20.4749 14.3133 20.5194 14.2864 20.5557L14.0671 20.8499L14.1703 20.7908C14.2025 20.7722 14.2394 20.7631 14.2767 20.7647C14.3139 20.7662 14.3499 20.7783 14.3805 20.7995C14.4112 20.8207 14.4352 20.8501 14.4497 20.8844C14.4643 20.9187 14.4688 20.9564 14.4628 20.9932L14.3841 21.4858C14.4303 21.4702 14.4806 21.4723 14.5253 21.4916C14.57 21.511 14.606 21.5462 14.6262 21.5906C14.6465 21.6349 14.6495 21.6852 14.6349 21.7317C14.6202 21.7781 14.5888 21.8175 14.5467 21.8422L14.2218 22.03C14.1916 22.0468 14.1576 22.0555 14.123 22.0552Z" fill="#C13A3A"/>
<path d="M9.91436 23.0845C9.87615 23.0845 9.83879 23.0734 9.80681 23.0524C9.77483 23.0315 9.74963 23.0018 9.73426 22.9668C9.7189 22.9318 9.71405 22.8931 9.7203 22.8555C9.72655 22.8178 9.74362 22.7827 9.76945 22.7546L10.4782 21.9804L9.80883 22.3671C9.7653 22.3915 9.71414 22.3984 9.66569 22.3865C9.61723 22.3747 9.57509 22.3448 9.54779 22.3031C9.52049 22.2613 9.51005 22.2108 9.5186 22.1616C9.52714 22.1124 9.55403 22.0684 9.59383 22.0383L10.8425 21.1172L9.65644 21.8016C9.61271 21.8263 9.56118 21.8334 9.51241 21.8214C9.46365 21.8093 9.42132 21.7791 9.3941 21.7369C9.36688 21.6947 9.35682 21.6437 9.36599 21.5943C9.37515 21.5449 9.40285 21.5009 9.44341 21.4712L10.229 20.9105L9.5261 21.3161C9.48225 21.3414 9.43034 21.3488 9.38116 21.3368C9.33198 21.3249 9.2893 21.2944 9.26198 21.2518C9.23467 21.2092 9.22482 21.1577 9.23448 21.108C9.24414 21.0583 9.27256 21.0142 9.31385 20.9849L9.93208 20.5482L9.40245 20.8538C9.35916 20.8783 9.30821 20.8855 9.25983 20.874C9.21144 20.8624 9.16922 20.833 9.14164 20.7916C9.11406 20.7502 9.10317 20.6999 9.11116 20.6508C9.11915 20.6017 9.14542 20.5575 9.1847 20.527L10.8385 19.2598L9.22329 20.1938C9.18012 20.2188 9.12908 20.2265 9.08047 20.2153C9.03186 20.2042 8.98931 20.1749 8.96141 20.1336C8.93351 20.0922 8.92235 20.0418 8.93017 19.9926C8.938 19.9433 8.96423 19.8989 9.00356 19.8682L10.8543 18.4179L9.07365 19.4457C9.03002 19.4705 8.97855 19.4777 8.92977 19.4658C8.88099 19.454 8.83858 19.4239 8.81122 19.3818C8.78387 19.3397 8.77362 19.2888 8.78258 19.2394C8.79154 19.19 8.81904 19.1459 8.85944 19.1161L9.84033 18.4049L9.15556 18.7987C9.11256 18.8228 9.0621 18.8299 9.01414 18.8186C8.96617 18.8073 8.92419 18.7784 8.89649 18.7376C8.86879 18.6969 8.85738 18.6472 8.86452 18.5984C8.87166 18.5497 8.89682 18.5054 8.93504 18.4742L10.2097 17.4626L9.25518 18.0139C9.21273 18.038 9.16285 18.0454 9.11521 18.0348C9.06758 18.0242 9.02559 17.9963 8.99739 17.9564C8.96918 17.9166 8.95678 17.8677 8.96257 17.8193C8.96837 17.7708 8.99196 17.7262 9.02876 17.6942L9.45994 17.324L9.33354 17.3969C9.29834 17.417 9.25778 17.4258 9.21739 17.422C9.17701 17.4183 9.13878 17.4021 9.10792 17.3758C9.07707 17.3495 9.0551 17.3142 9.04502 17.2749C9.03494 17.2357 9.03724 17.1942 9.0516 17.1563L9.25951 16.6105C9.22003 16.594 9.1872 16.5647 9.16619 16.5274C9.14005 16.4823 9.13291 16.4286 9.14635 16.3781C9.15979 16.3277 9.1927 16.2847 9.23786 16.2585L9.49853 16.1077C9.53377 16.0873 9.57446 16.0784 9.61499 16.0821C9.65552 16.0858 9.69391 16.102 9.72487 16.1284C9.75582 16.1548 9.77783 16.1902 9.78786 16.2296C9.79789 16.2691 9.79545 16.3107 9.78087 16.3487L9.61706 16.7791L11.0937 15.9265C11.1362 15.902 11.1864 15.8942 11.2343 15.9047C11.2823 15.9152 11.3246 15.9433 11.3529 15.9833C11.3813 16.0234 11.3936 16.0726 11.3876 16.1214C11.3815 16.1701 11.3574 16.2148 11.3201 16.2467L10.8909 16.6156L12.3266 15.7864C12.3696 15.7618 12.4203 15.7544 12.4685 15.7656C12.5168 15.7767 12.559 15.8057 12.5869 15.8466C12.6148 15.8875 12.6262 15.9374 12.6189 15.9864C12.6116 16.0354 12.5861 16.0798 12.5475 16.1108L11.2709 17.1224L12.9247 16.1675C12.9684 16.1427 13.0199 16.1355 13.0686 16.1474C13.1174 16.1592 13.1598 16.1893 13.1872 16.2314C13.2145 16.2735 13.2248 16.3244 13.2158 16.3738C13.2069 16.4232 13.1794 16.4673 13.139 16.4971L12.1589 17.2091L13.0708 16.6826C13.114 16.6576 13.165 16.6499 13.2137 16.6611C13.2623 16.6723 13.3048 16.7015 13.3327 16.7428C13.3606 16.7842 13.3718 16.8346 13.364 16.8838C13.3561 16.9331 13.3299 16.9776 13.2906 17.0082L11.4398 18.4585L13.2646 17.4052C13.3079 17.3801 13.3591 17.3725 13.4078 17.3839C13.4565 17.3953 13.499 17.4247 13.5268 17.4663C13.5546 17.5079 13.5655 17.5585 13.5573 17.6079C13.5491 17.6572 13.5224 17.7016 13.4827 17.732L11.8289 18.9991L13.4433 18.0675C13.4872 18.0422 13.5391 18.0348 13.5883 18.0467C13.6375 18.0587 13.6801 18.0892 13.7075 18.1318C13.7348 18.1744 13.7446 18.2259 13.735 18.2756C13.7253 18.3253 13.6969 18.3694 13.6556 18.3986L13.0366 18.8353L13.5662 18.5298C13.61 18.5041 13.6621 18.4963 13.7115 18.508C13.7609 18.5198 13.8039 18.5503 13.8314 18.593C13.8589 18.6357 13.8688 18.6874 13.8591 18.7372C13.8494 18.7871 13.8208 18.8313 13.7792 18.8605L12.9917 19.4224L13.6969 19.0157C13.7405 18.9913 13.7916 18.9843 13.8401 18.9962C13.8885 19.0081 13.9307 19.0379 13.958 19.0797C13.9853 19.1214 13.9957 19.172 13.9872 19.2212C13.9786 19.2703 13.9517 19.3144 13.9119 19.3445L11.6281 21.0279C11.6337 21.0335 11.6391 21.0394 11.6442 21.0456C11.6736 21.0823 11.6889 21.1283 11.6873 21.1754C11.6857 21.2224 11.6674 21.2673 11.6355 21.3019L10.6452 22.382C10.6643 22.3977 10.6804 22.4166 10.6928 22.438C10.7188 22.4831 10.7258 22.5368 10.7123 22.5871C10.6988 22.6375 10.6659 22.6804 10.6208 22.7065L10.0124 23.0581C9.98267 23.0756 9.94881 23.0847 9.91436 23.0845Z" fill="#C13A3A"/>
<path d="M7.48206 22.8876C7.44651 22.8875 7.41164 22.8778 7.38115 22.8595C7.35066 22.8412 7.32569 22.815 7.3089 22.7837C7.2921 22.7524 7.2841 22.7171 7.28575 22.6816C7.28739 22.6461 7.29862 22.6116 7.31825 22.582L7.80889 21.8437L7.13514 22.2323C7.09286 22.2565 7.04314 22.2641 6.99557 22.2537C6.94801 22.2433 6.90597 22.2157 6.87758 22.1762C6.84919 22.1366 6.83646 22.0879 6.84185 22.0396C6.84724 21.9912 6.87036 21.9465 6.90676 21.9142L6.95204 21.8748L6.90243 21.9031C6.86112 21.927 6.81259 21.935 6.76582 21.9257C6.71906 21.9164 6.67724 21.8905 6.64814 21.8528C6.61904 21.815 6.60462 21.768 6.60758 21.7204C6.61053 21.6728 6.63065 21.6279 6.66419 21.594L7.68406 20.5702L6.45825 21.279C6.41556 21.3036 6.36522 21.3112 6.31716 21.3005C6.2691 21.2897 6.22682 21.2614 6.19864 21.221C6.17046 21.1806 6.15844 21.1311 6.16495 21.0823C6.17146 21.0335 6.19603 20.9889 6.2338 20.9573L7.18358 20.1698L4.29132 21.839C4.24749 21.8627 4.19628 21.8689 4.14803 21.8564C4.09977 21.8439 4.05807 21.8135 4.03133 21.7714C4.0046 21.7294 3.99482 21.6787 4.00397 21.6297C4.01313 21.5807 4.04053 21.537 4.08065 21.5074L5.32576 20.6411L3.58725 21.6448C3.54337 21.6697 3.4916 21.6768 3.44263 21.6647C3.39366 21.6525 3.35123 21.622 3.3241 21.5794C3.29697 21.5369 3.2872 21.4856 3.29683 21.436C3.30645 21.3865 3.33472 21.3426 3.3758 21.3133L5.69079 19.6925L3.82116 20.7714C3.77726 20.7954 3.7259 20.8018 3.67748 20.7893C3.62906 20.7767 3.58723 20.7462 3.56047 20.704C3.53371 20.6618 3.52402 20.6109 3.53339 20.5618C3.54275 20.5127 3.57046 20.4689 3.61088 20.4395L5.24819 19.3098L4.02356 20.0185C3.97947 20.0433 3.92754 20.0502 3.87853 20.0377C3.82951 20.0253 3.78717 19.9944 3.76029 19.9516C3.7334 19.9088 3.72403 19.8572 3.73412 19.8077C3.7442 19.7581 3.77297 19.7143 3.81446 19.6854L4.64926 19.1172L4.19485 19.3795C4.15127 19.404 4.09996 19.4111 4.05135 19.3992C4.00274 19.3874 3.96047 19.3574 3.93314 19.3155C3.90582 19.2736 3.89547 19.2228 3.90422 19.1736C3.91297 19.1243 3.94015 19.0802 3.98024 19.0503L5.22614 18.1418L4.39921 18.6195C4.35613 18.6434 4.30566 18.6503 4.25774 18.6388C4.20983 18.6273 4.16797 18.5983 4.14042 18.5574C4.11288 18.5166 4.10165 18.4669 4.10895 18.4181C4.11626 18.3694 4.14157 18.3252 4.17988 18.2942L5.13754 17.546L4.60476 17.854C4.56179 17.8788 4.51101 17.8865 4.4626 17.8755C4.41419 17.8646 4.37171 17.8357 4.34369 17.7947C4.31566 17.7537 4.30414 17.7037 4.31144 17.6546C4.31875 17.6055 4.34433 17.5609 4.38307 17.5299L4.7099 17.2673C4.66794 17.276 4.62428 17.2707 4.58555 17.2524C4.54683 17.234 4.51515 17.2035 4.49533 17.1655C4.47551 17.1275 4.46862 17.0841 4.47572 17.0419C4.48282 16.9996 4.50352 16.9608 4.53467 16.9314L4.83039 16.653C4.79902 16.6522 4.76828 16.6439 4.74074 16.6289C4.7132 16.6138 4.68967 16.5924 4.6721 16.5664C4.65453 16.5403 4.64343 16.5105 4.63973 16.4793C4.63603 16.4482 4.63984 16.4166 4.65083 16.3872L4.86702 15.8071C4.84997 15.7926 4.83546 15.7753 4.82409 15.756C4.81118 15.7335 4.80282 15.7088 4.79947 15.6832C4.79612 15.6575 4.79787 15.6314 4.80459 15.6065C4.81132 15.5815 4.82291 15.5581 4.83868 15.5376C4.85446 15.5171 4.87413 15.4999 4.89655 15.487L5.07178 15.3858C5.1069 15.3654 5.14745 15.3564 5.18789 15.36C5.22832 15.3636 5.26667 15.3796 5.29766 15.4058C5.32866 15.432 5.3508 15.4672 5.36104 15.5064C5.37129 15.5457 5.36914 15.5872 5.3549 15.6252L5.21117 16.0119L6.00305 15.5473C6.045 15.5217 6.09498 15.5128 6.14317 15.5223C6.19135 15.5317 6.23428 15.5588 6.26352 15.5982C6.29276 15.6377 6.3062 15.6866 6.30122 15.7355C6.29623 15.7843 6.27317 15.8296 6.23656 15.8623L6.03219 16.0548L6.69373 15.6729C6.73663 15.6486 6.78709 15.6413 6.83511 15.6524C6.88313 15.6636 6.92523 15.6923 6.95309 15.733C6.98094 15.7737 6.99253 15.8233 6.98555 15.8721C6.97858 15.9209 6.95355 15.9653 6.91542 15.9966L6.63978 16.2198L7.37259 15.793C7.41569 15.7686 7.46637 15.7614 7.51455 15.7727C7.56274 15.7841 7.60488 15.8132 7.63259 15.8542C7.6603 15.8952 7.67154 15.9451 7.66408 15.9941C7.65661 16.043 7.63099 16.0873 7.59231 16.1182L6.63505 16.8664L8.22865 15.9465C8.27231 15.9211 8.32409 15.9134 8.37328 15.925C8.42246 15.9367 8.46527 15.9668 8.49285 16.0092C8.52043 16.0515 8.53067 16.1029 8.52143 16.1526C8.5122 16.2023 8.48421 16.2465 8.44326 16.2761L7.19815 17.1842L9.07762 16.0985C9.12171 16.0737 9.17364 16.0669 9.22265 16.0793C9.27167 16.0918 9.31401 16.1226 9.34089 16.1655C9.36778 16.2083 9.37715 16.2599 9.36706 16.3094C9.35698 16.359 9.32821 16.4028 9.28672 16.4317L8.45192 16.9995L9.29892 16.5108C9.34291 16.486 9.39475 16.479 9.44374 16.4913C9.49273 16.5036 9.5351 16.5343 9.56211 16.577C9.58912 16.6197 9.59869 16.6711 9.58884 16.7207C9.57899 16.7702 9.55048 16.8141 9.5092 16.8432L7.8715 17.9729L9.40012 17.0905C9.44395 17.0658 9.49553 17.0589 9.5443 17.0711C9.59306 17.0833 9.63532 17.1137 9.66241 17.156C9.6895 17.1984 9.69937 17.2495 9.68999 17.2988C9.68061 17.3482 9.6527 17.3921 9.61197 17.4216L7.29659 19.0428L9.17961 17.956C9.22353 17.9314 9.27518 17.9246 9.32396 17.937C9.37273 17.9493 9.41493 17.9799 9.44189 18.0223C9.46884 18.0648 9.47852 18.116 9.46892 18.1654C9.45932 18.2148 9.43119 18.2586 9.39028 18.2879L8.14241 19.1542L8.98863 18.6659C9.03137 18.6413 9.08181 18.6336 9.12997 18.6443C9.17812 18.6551 9.22048 18.6835 9.24866 18.724C9.27683 18.7645 9.28877 18.8142 9.28211 18.8631C9.27545 18.9119 9.25067 18.9566 9.21269 18.988L8.26409 19.7756L8.76812 19.4846C8.80943 19.4619 8.85751 19.4548 8.90362 19.4645C8.94974 19.4743 8.99083 19.5002 9.01943 19.5377C9.04803 19.5751 9.06224 19.6216 9.05948 19.6687C9.05672 19.7157 9.03717 19.7602 9.00438 19.7941L7.98491 20.8179L8.48539 20.5293C8.52767 20.5051 8.57739 20.4975 8.62496 20.5079C8.67253 20.5183 8.71457 20.5459 8.74296 20.5854C8.77135 20.625 8.78408 20.6737 8.77869 20.722C8.7733 20.7704 8.75017 20.8151 8.71378 20.8474L8.47751 21.0557C8.51717 21.0636 8.5533 21.0839 8.58068 21.1136C8.61099 21.146 8.62949 21.1876 8.63321 21.2317C8.63693 21.2759 8.62563 21.32 8.60116 21.357L8.10264 22.1071C8.14886 22.0942 8.19822 22.0985 8.24143 22.1194C8.28465 22.1403 8.31875 22.1762 8.33732 22.2205C8.3559 22.2648 8.35767 22.3143 8.34229 22.3598C8.32692 22.4052 8.29547 22.4435 8.25385 22.4674L7.57971 22.8565C7.55057 22.8755 7.51682 22.8862 7.48206 22.8876Z" fill="#E84646"/>
<path d="M8.53892 17.5682C8.49652 17.5682 8.45524 17.5546 8.42121 17.5293C8.38718 17.504 8.36223 17.4684 8.35006 17.4278C8.3379 17.3872 8.33916 17.3437 8.35368 17.3039C8.3682 17.264 8.39519 17.23 8.43063 17.2067L10.7933 15.6552L8.053 17.2374C8.00845 17.2635 7.95542 17.2711 7.90534 17.2585C7.85526 17.2458 7.81215 17.214 7.78529 17.1699C7.75843 17.1258 7.74998 17.0729 7.76176 17.0226C7.77353 16.9724 7.80459 16.9287 7.84824 16.9011L9.8616 15.6139L6.8516 17.3516C6.80719 17.3782 6.75409 17.3862 6.7038 17.374C6.6535 17.3617 6.61006 17.3301 6.58288 17.2861C6.5557 17.242 6.54697 17.189 6.55857 17.1386C6.57017 17.0881 6.60118 17.0443 6.64487 17.0165L11.3363 13.9388L6.20936 16.8988C6.16472 16.9234 6.11229 16.9297 6.06308 16.9164C6.01388 16.9031 5.97174 16.8713 5.94553 16.8276C5.91932 16.7839 5.91107 16.7317 5.92253 16.682C5.93399 16.6324 5.96425 16.5891 6.00696 16.5613L6.39758 16.3195L5.83016 16.6467C5.78569 16.6721 5.73312 16.6791 5.68357 16.6663C5.63403 16.6535 5.59141 16.6219 5.56474 16.5783C5.53806 16.5346 5.52944 16.4823 5.54069 16.4324C5.55194 16.3824 5.58218 16.3389 5.625 16.3109L11.0197 12.8169L4.70161 16.4644C4.6568 16.4913 4.60317 16.4992 4.55251 16.4865C4.50186 16.4738 4.45832 16.4415 4.43148 16.3967C4.40464 16.3519 4.3967 16.2983 4.4094 16.2476C4.4221 16.197 4.4544 16.1534 4.49921 16.1266L7.20876 14.4408L4.35036 16.0907C4.30595 16.1142 4.25424 16.1198 4.20584 16.1064C4.15743 16.093 4.11597 16.0616 4.08996 16.0186C4.06394 15.9757 4.05534 15.9244 4.0659 15.8753C4.07646 15.8261 4.1054 15.7829 4.14678 15.7545L9.10831 12.6063L3.97706 15.569C3.93272 15.5931 3.88082 15.5992 3.83208 15.5861C3.78335 15.573 3.7415 15.5417 3.71517 15.4987C3.68885 15.4556 3.68005 15.4041 3.69061 15.3548C3.70117 15.3054 3.73027 15.262 3.77191 15.2335L10.4562 10.9252L3.05131 15.2004C3.0066 15.2262 2.95357 15.2334 2.90361 15.2205C2.85366 15.2075 2.81078 15.1755 2.7842 15.1313C2.75762 15.087 2.74946 15.0341 2.76149 14.984C2.77352 14.9338 2.80477 14.8903 2.84851 14.863L7.98252 11.6395L2.68943 14.6952C2.64485 14.7207 2.59208 14.7277 2.54237 14.7149C2.49266 14.702 2.44995 14.6702 2.42335 14.6263C2.39674 14.5824 2.38834 14.5298 2.39994 14.4798C2.41155 14.4298 2.44223 14.3863 2.48545 14.3585L8.8689 10.2928L2.42836 14.0116C2.38372 14.0362 2.33128 14.0425 2.28208 14.0293C2.23288 14.016 2.19074 13.9841 2.16453 13.9404C2.13831 13.8967 2.13007 13.8446 2.14153 13.7949C2.15298 13.7452 2.18325 13.702 2.22596 13.6742L6.3649 11.0977L1.91527 13.6655C1.8706 13.6897 1.81829 13.6957 1.76929 13.6823C1.72029 13.6688 1.67839 13.6369 1.65235 13.5933C1.62631 13.5497 1.61815 13.4977 1.62958 13.4481C1.641 13.3986 1.67113 13.3555 1.71366 13.3276L3.86799 12.0073L1.57072 13.3339C1.52587 13.3595 1.47277 13.3664 1.42286 13.3532C1.37295 13.34 1.33023 13.3077 1.30389 13.2633C1.27756 13.2189 1.26972 13.1659 1.28207 13.1158C1.29441 13.0657 1.32595 13.0224 1.3699 12.9953L1.7743 12.7488L1.4329 12.9457C1.38845 12.9698 1.33643 12.9758 1.28763 12.9626C1.23882 12.9494 1.19697 12.9179 1.17075 12.8747C1.14453 12.8315 1.13594 12.7798 1.14677 12.7304C1.1576 12.681 1.18702 12.6377 1.22893 12.6094L7.95141 8.31767L1.35336 12.1266C1.30878 12.1521 1.25601 12.1592 1.2063 12.1463C1.15659 12.1334 1.11388 12.1016 1.08727 12.0577C1.06067 12.0138 1.05227 11.9612 1.06387 11.9112C1.07548 11.8612 1.10616 11.8177 1.14938 11.79L7.08787 8.02628L0.894613 11.6037C0.850058 11.6298 0.797027 11.6374 0.74695 11.6248C0.696873 11.6121 0.653759 11.5803 0.626901 11.5362C0.600043 11.4921 0.591591 11.4392 0.603366 11.3889C0.615141 11.3387 0.646201 11.295 0.689852 11.2674L7.43754 6.94656L0.662681 10.8579C0.618011 10.8821 0.565705 10.8881 0.516703 10.8747C0.467701 10.8612 0.425798 10.8293 0.399759 10.7857C0.373719 10.7421 0.365559 10.6901 0.376986 10.6405C0.388413 10.591 0.418541 10.5479 0.46107 10.52L1.47385 9.89907L0.811133 10.2814C0.766431 10.3072 0.713395 10.3144 0.663441 10.3015C0.613486 10.2885 0.570604 10.2565 0.544025 10.2123C0.517446 10.168 0.509293 10.1151 0.521321 10.065C0.53335 10.0148 0.564598 9.97133 0.60834 9.94395L3.93139 7.86877L0.702452 9.73329C0.657871 9.75876 0.605101 9.76582 0.555394 9.75294C0.505686 9.74007 0.462976 9.70828 0.436369 9.66437C0.409762 9.62045 0.401365 9.56788 0.412968 9.51786C0.42457 9.46784 0.455255 9.42433 0.498478 9.39661L5.4037 6.28502L0.414211 9.16468C0.369408 9.19152 0.315778 9.19946 0.26512 9.18676C0.214461 9.17406 0.170923 9.14175 0.144083 9.09695C0.117243 9.05215 0.1093 8.99852 0.122002 8.94786C0.134703 8.8972 0.167009 8.85366 0.211812 8.82682L2.14445 7.62857L0.481546 8.5882C0.4369 8.6153 0.383317 8.62355 0.332584 8.61115C0.281851 8.59874 0.238125 8.56669 0.211024 8.52204C0.183923 8.4774 0.175668 8.42381 0.188074 8.37308C0.20048 8.32235 0.232532 8.27862 0.277178 8.25152L4.17553 5.77075L0.816253 7.71126C0.771613 7.73585 0.719178 7.74217 0.669976 7.72889C0.620773 7.71562 0.578635 7.68378 0.552422 7.64007C0.52621 7.59637 0.517965 7.5442 0.529422 7.49454C0.540878 7.44489 0.571144 7.40161 0.613854 7.3738L1.38289 6.89537L0.703634 7.28914C0.659116 7.31262 0.607298 7.31816 0.558823 7.30462C0.510348 7.29108 0.468899 7.2595 0.44299 7.21635C0.417081 7.1732 0.408679 7.12177 0.419512 7.07262C0.430344 7.02347 0.459587 6.98033 0.501235 6.95207L1.41479 6.3811L0.675676 6.80559C0.631115 6.82973 0.578963 6.83575 0.530072 6.82241C0.481181 6.80907 0.439317 6.77739 0.413191 6.73397C0.387065 6.69055 0.378689 6.63872 0.389808 6.58927C0.400926 6.53983 0.430682 6.49658 0.472883 6.46852L1.19506 6.01607C1.15756 6.02071 1.11952 6.01471 1.08526 5.99877C1.05101 5.98282 1.02192 5.95757 1.00133 5.9259C0.974134 5.8829 0.964647 5.83104 0.97485 5.78119C0.985054 5.73135 1.01416 5.68739 1.05606 5.65853L5.11192 2.86274L1.43448 4.98557C1.39056 5.01011 1.33891 5.01691 1.29013 5.00457C1.24136 4.99222 1.19916 4.96168 1.1722 4.9192C1.14524 4.87672 1.13557 4.82553 1.14516 4.77614C1.15476 4.72675 1.1829 4.68291 1.22381 4.65362L3.43838 3.11988L2.62446 3.58965C2.58228 3.61331 2.53287 3.62061 2.48565 3.61018C2.43843 3.59974 2.3967 3.57229 2.36842 3.53306C2.34014 3.49383 2.32729 3.44557 2.33232 3.39747C2.33734 3.34937 2.3599 3.3048 2.39567 3.27227L4.14363 1.72592C4.14147 1.7229 4.1395 1.71974 4.13772 1.71647C4.11162 1.67125 4.10454 1.61751 4.11805 1.56707C4.13157 1.51664 4.16456 1.47363 4.20978 1.44753L4.9422 1.02461C4.98438 1.00096 5.03379 0.993648 5.08101 1.00408C5.12823 1.01452 5.16996 1.04197 5.19824 1.0812C5.22651 1.12043 5.23937 1.1687 5.23434 1.21679C5.22931 1.26489 5.20676 1.30946 5.17098 1.34199L4.12158 2.2709L7.38989 0.383158C7.43391 0.357545 7.48613 0.349983 7.5356 0.362058C7.58508 0.374133 7.62794 0.404908 7.65521 0.447919C7.68247 0.49093 7.69201 0.542832 7.68182 0.592726C7.67163 0.642621 7.64251 0.686626 7.60056 0.715502L5.3848 2.25122L9.18668 0.0559333C9.2308 0.027997 9.28421 0.0187329 9.33517 0.0301791C9.38612 0.0416254 9.43044 0.0728443 9.45838 0.116968C9.48631 0.161092 9.49558 0.214506 9.48413 0.26546C9.47269 0.316414 9.44147 0.360735 9.39734 0.388671L5.34149 3.18446L10.1416 0.411904C10.1863 0.384959 10.2399 0.376896 10.2906 0.389487C10.3413 0.402078 10.385 0.434292 10.4119 0.479042C10.4388 0.523792 10.4469 0.577413 10.4343 0.628109C10.4217 0.678805 10.3895 0.722422 10.3448 0.749367L9.95847 0.990749L11.1469 0.305191C11.1914 0.281053 11.2436 0.275026 11.2925 0.288366C11.3414 0.301706 11.3832 0.333384 11.4094 0.376809C11.4355 0.420234 11.4439 0.472061 11.4327 0.521505C11.4216 0.570948 11.3919 0.6142 11.3497 0.642261L10.4361 1.21402L11.5497 0.570988C11.5945 0.544148 11.6481 0.536205 11.6988 0.548907C11.7495 0.561608 11.793 0.593914 11.8198 0.638717C11.8467 0.683519 11.8546 0.737149 11.8419 0.787808C11.8292 0.838467 11.7969 0.882005 11.7521 0.908845L10.9787 1.38846L11.8635 0.876555C11.908 0.851682 11.9604 0.845038 12.0097 0.858021C12.059 0.871003 12.1014 0.9026 12.1279 0.946164C12.1543 0.989727 12.1629 1.04186 12.1517 1.0916C12.1405 1.14133 12.1105 1.1848 12.0679 1.21284L8.17271 3.69479L12.7909 1.02737C12.8355 1.00355 12.8875 0.997801 12.9362 1.01131C12.9849 1.02481 13.0266 1.05654 13.0526 1.09991C13.0785 1.14329 13.0868 1.19499 13.0757 1.24431C13.0646 1.29363 13.0349 1.33678 12.9929 1.36483L11.0583 2.56466L13.3229 1.25733C13.3673 1.23324 13.4193 1.22718 13.4681 1.24039C13.5169 1.25361 13.5588 1.2851 13.585 1.32833C13.6112 1.37156 13.6198 1.42322 13.609 1.47261C13.5982 1.522 13.5687 1.56532 13.5268 1.59361L8.62043 4.70836L13.6729 1.79168C13.7175 1.76754 13.7696 1.76152 13.8185 1.77486C13.8674 1.7882 13.9093 1.81988 13.9354 1.8633C13.9615 1.90673 13.9699 1.95855 13.9588 2.008C13.9477 2.05744 13.9179 2.10069 13.8757 2.12875L10.557 4.2L14.0872 2.16183C14.1319 2.13708 14.1846 2.13073 14.2339 2.1441C14.2833 2.15747 14.3255 2.18952 14.3516 2.23347C14.3778 2.27743 14.3858 2.32983 14.374 2.37959C14.3622 2.42935 14.3315 2.47256 14.2884 2.50008L13.2744 3.12185L14.6597 2.32249C14.7041 2.29873 14.7559 2.29287 14.8045 2.30612C14.853 2.31937 14.8947 2.35072 14.9208 2.39373C14.947 2.43673 14.9557 2.48813 14.9452 2.53735C14.9346 2.58657 14.9056 2.62988 14.8641 2.65838L8.11679 6.97924L15.1917 2.89464C15.2363 2.86916 15.2891 2.86211 15.3388 2.87498C15.3885 2.88786 15.4312 2.91964 15.4578 2.96356C15.4844 3.00748 15.4928 3.06005 15.4812 3.11007C15.4696 3.16009 15.4389 3.2036 15.3957 3.23131L9.45247 6.99617L15.4177 3.55263C15.4622 3.52854 15.5142 3.52248 15.563 3.53569C15.6118 3.54891 15.6537 3.5804 15.6799 3.62363C15.7061 3.66686 15.7147 3.71852 15.7039 3.76791C15.693 3.8173 15.6636 3.86062 15.6217 3.88892L8.89961 8.18104L16.0848 4.03107C16.1296 4.00551 16.1827 3.99859 16.2326 4.0118C16.2826 4.02501 16.3253 4.0573 16.3516 4.1017C16.3779 4.14611 16.3858 4.19908 16.3734 4.24921C16.3611 4.29934 16.3295 4.34261 16.2856 4.36971L15.8737 4.62094L16.3549 4.34293C16.3997 4.31819 16.4523 4.31183 16.5017 4.3252C16.551 4.33858 16.5932 4.37063 16.6194 4.41458C16.6455 4.45853 16.6535 4.51093 16.6417 4.56069C16.6299 4.61045 16.5992 4.65366 16.5561 4.68119L14.4124 5.99717L16.4719 4.80798C16.5167 4.78109 16.5703 4.7731 16.621 4.78576C16.6717 4.79842 16.7153 4.83071 16.7422 4.87551C16.7691 4.92031 16.7771 4.97397 16.7644 5.02466C16.7517 5.07536 16.7195 5.11895 16.6747 5.14584L12.54 7.71953L16.5112 5.42738C16.5559 5.40028 16.6095 5.39203 16.6602 5.40443C16.7109 5.41684 16.7547 5.44889 16.7818 5.49354C16.8089 5.53818 16.8171 5.59177 16.8047 5.6425C16.7923 5.69323 16.7603 5.73696 16.7156 5.76406L10.3259 9.83094L16.9735 5.99324C17.0181 5.9691 17.0702 5.96307 17.1191 5.97641C17.168 5.98975 17.2099 6.02143 17.236 6.06485C17.2621 6.10828 17.2705 6.1601 17.2594 6.20955C17.2483 6.25899 17.2185 6.30224 17.1763 6.3303L12.0466 9.55136L17.2314 6.55869C17.2759 6.53338 17.3285 6.52637 17.378 6.53916C17.4276 6.55194 17.4702 6.58351 17.4969 6.62717C17.5235 6.67084 17.5322 6.72317 17.5209 6.77309C17.5097 6.823 17.4794 6.86658 17.4366 6.89458L10.7531 11.2021L17.0885 7.5447C17.133 7.52021 17.1853 7.51389 17.2344 7.52706C17.2835 7.54022 17.3256 7.57186 17.3519 7.61534C17.3782 7.65883 17.3866 7.7108 17.3755 7.76038C17.3643 7.80996 17.3345 7.85332 17.2921 7.88137L12.3306 11.0284L17.3492 8.13103C17.3938 8.10644 17.4463 8.10012 17.4955 8.1134C17.5447 8.12667 17.5868 8.15851 17.613 8.20222C17.6392 8.24592 17.6475 8.29809 17.636 8.34775C17.6246 8.3974 17.5943 8.44069 17.5516 8.46849L14.8397 10.1558L17.498 8.62009C17.5424 8.59602 17.5943 8.58989 17.643 8.60298C17.6917 8.61607 17.7336 8.64737 17.7599 8.69042C17.7862 8.73347 17.795 8.78498 17.7845 8.83433C17.7739 8.88367 17.7448 8.92708 17.7032 8.95559L12.3065 12.4523L17.0921 9.68997C17.1366 9.66615 17.1887 9.6604 17.2374 9.67391C17.2861 9.68741 17.3278 9.71914 17.3537 9.76252C17.3797 9.80589 17.388 9.85759 17.3769 9.90691C17.3658 9.95623 17.3361 9.99938 17.2941 10.0274L16.9086 10.2665L17.1204 10.1444C17.1647 10.1203 17.2164 10.1141 17.2651 10.1271C17.3138 10.14 17.3557 10.1711 17.3821 10.214C17.4085 10.2569 17.4175 10.3083 17.4072 10.3576C17.3969 10.4069 17.3681 10.4504 17.3267 10.4791L12.6353 13.5568L17.1929 10.9256C17.2374 10.8995 17.2904 10.892 17.3405 10.9046C17.3906 10.9172 17.4337 10.949 17.4606 10.9931C17.4874 11.0372 17.4959 11.0901 17.4841 11.1404C17.4723 11.1907 17.4413 11.2343 17.3976 11.2619L15.3843 12.5492L16.4955 11.9077C16.5398 11.8825 16.5923 11.8755 16.6417 11.8881C16.6911 11.9008 16.7337 11.9322 16.7604 11.9756C16.7872 12.0191 16.796 12.0712 16.7851 12.1211C16.7742 12.1709 16.7443 12.2145 16.7018 12.2428L14.3423 13.7939L16.4687 12.5669C16.513 12.5421 16.5651 12.5354 16.6143 12.5481C16.6634 12.5609 16.7057 12.5921 16.7323 12.6352C16.759 12.6784 16.768 12.7302 16.7574 12.7798C16.7468 12.8295 16.7174 12.8731 16.6754 12.9016L15.4882 13.6848C15.5329 13.6729 15.5804 13.6771 15.6223 13.6968C15.6642 13.7164 15.6979 13.7501 15.7174 13.7921C15.7369 13.834 15.741 13.8815 15.729 13.9262C15.7169 13.9709 15.6896 14.0099 15.6516 14.0364L14.4046 14.9208L15.1551 14.4877C15.2001 14.4642 15.2524 14.4589 15.3012 14.4731C15.35 14.4872 15.3914 14.5197 15.4168 14.5636C15.4422 14.6076 15.4497 14.6597 15.4376 14.709C15.4255 14.7583 15.3948 14.8011 15.352 14.8283L10.9504 17.3697C10.9065 17.395 10.8546 17.4024 10.8054 17.3904C10.7563 17.3785 10.7136 17.348 10.6863 17.3054C10.659 17.2628 10.6491 17.2113 10.6588 17.1616C10.6684 17.1119 10.6968 17.0678 10.7381 17.0386L11.9856 16.1541L10.129 17.2244C10.0848 17.2482 10.0332 17.2542 9.98472 17.2413C9.93624 17.2283 9.89455 17.1973 9.86816 17.1546C9.84177 17.1119 9.83267 17.0608 9.84272 17.0116C9.85277 16.9625 9.88122 16.919 9.92224 16.8901L11.0079 16.1726L8.63579 17.5418C8.60636 17.5589 8.57296 17.568 8.53892 17.5682Z" fill="#E2B137"/>
<path d="M8.93591 15.2988C8.89398 15.2987 8.85316 15.2853 8.8194 15.2604C8.78565 15.2355 8.76071 15.2005 8.74824 15.1605C8.73576 15.1204 8.73638 15.0775 8.75002 15.0378C8.76366 14.9982 8.78961 14.9639 8.82408 14.94L10.7579 13.6012L8.01251 15.1861C7.96795 15.2123 7.91492 15.2198 7.86485 15.2072C7.81477 15.1946 7.77166 15.1628 7.7448 15.1187C7.71794 15.0746 7.70949 15.0217 7.72126 14.9714C7.73304 14.9211 7.7641 14.8775 7.80775 14.8499L7.81444 14.8455L7.43918 15.0621C7.395 15.0859 7.3434 15.0919 7.29493 15.079C7.24645 15.066 7.20476 15.035 7.17837 14.9923C7.15198 14.9496 7.14288 14.8985 7.15293 14.8493C7.16298 14.8002 7.19142 14.7567 7.23245 14.7278L9.54744 13.2L6.72724 14.8278C6.68286 14.8516 6.63106 14.8574 6.58249 14.8442C6.53393 14.8309 6.49228 14.7996 6.46611 14.7566C6.43995 14.7136 6.43125 14.6622 6.4418 14.6129C6.45236 14.5637 6.48137 14.5204 6.52287 14.4919L8.02117 13.5303L6.19131 14.5876C6.14696 14.6117 6.09506 14.6178 6.04633 14.6047C5.99759 14.5916 5.95574 14.5603 5.92942 14.5173C5.90309 14.4742 5.8943 14.4227 5.90486 14.3734C5.91542 14.324 5.94452 14.2806 5.98616 14.2521L8.30626 12.7558L5.66405 14.2832C5.61969 14.3084 5.56728 14.3155 5.51785 14.3028C5.46842 14.2901 5.42585 14.2587 5.39909 14.2153C5.37234 14.1718 5.3635 14.1197 5.37443 14.0699C5.38537 14.02 5.41523 13.9764 5.45771 13.9481L9.25801 11.4559L5.08402 13.8646C5.03957 13.8887 4.98755 13.8948 4.93875 13.8816C4.88995 13.8684 4.8481 13.8369 4.82188 13.7936C4.79565 13.7504 4.78707 13.6988 4.7979 13.6494C4.80873 13.6 4.83814 13.5567 4.88005 13.5284L7.39823 11.9245L4.67096 13.4996C4.62647 13.527 4.57293 13.5355 4.52212 13.5234C4.47132 13.5113 4.4274 13.4795 4.40004 13.435C4.37268 13.3905 4.36411 13.337 4.37622 13.2862C4.38833 13.2354 4.42013 13.1915 4.46462 13.1641L8.67799 10.4148L4.2067 12.9952C4.16209 13.0202 4.10951 13.0268 4.06007 13.0138C4.01064 13.0007 3.96824 12.9689 3.94184 12.9251C3.91544 12.8813 3.90712 12.8289 3.91863 12.7791C3.93014 12.7293 3.96058 12.6859 4.00351 12.6581L5.43842 11.7584L3.92633 12.631C3.88198 12.655 3.83008 12.6611 3.78135 12.6481C3.73262 12.635 3.69077 12.6037 3.66444 12.5606C3.63811 12.5176 3.62932 12.4661 3.63988 12.4167C3.65044 12.3674 3.67954 12.324 3.72118 12.2955L7.75931 9.68002L3.58139 12.0938C3.53708 12.1173 3.48548 12.123 3.43712 12.1097C3.38876 12.0965 3.34729 12.0652 3.32117 12.0224C3.29504 11.9796 3.28624 11.9285 3.29654 11.8794C3.30685 11.8303 3.33549 11.787 3.37663 11.7584L7.10014 9.36067L3.30654 11.5504C3.26229 11.5745 3.21049 11.5807 3.16181 11.5678C3.11313 11.5548 3.07127 11.5237 3.04483 11.4808C3.0184 11.4379 3.0094 11.3866 3.0197 11.3372C3.03 11.2879 3.05881 11.2444 3.1002 11.2157L7.57188 8.2904L3.05728 10.8968C3.01272 10.9209 2.96056 10.9269 2.91167 10.9136C2.86278 10.9003 2.82092 10.8686 2.79479 10.8252C2.76867 10.7817 2.76029 10.7299 2.77141 10.6805C2.78253 10.631 2.81228 10.5878 2.85448 10.5597L3.50972 10.1525L2.93993 10.481C2.89555 10.5047 2.84375 10.5106 2.79519 10.4973C2.74662 10.4841 2.70498 10.4527 2.67881 10.4097C2.65264 10.3667 2.64394 10.3153 2.6545 10.2661C2.66505 10.2169 2.69406 10.1736 2.73557 10.1451L5.52623 8.35852L2.8281 9.91589C2.78349 9.94168 2.73054 9.94895 2.68062 9.93614C2.63071 9.92333 2.58781 9.89146 2.56112 9.84737C2.53435 9.80328 2.52595 9.75044 2.53773 9.70022C2.54952 9.65 2.58054 9.60641 2.62413 9.57882L4.13464 8.62353L2.77179 9.41108C2.72747 9.43678 2.67487 9.44418 2.62516 9.43173C2.57546 9.41927 2.53258 9.38792 2.50561 9.34435C2.47865 9.30078 2.46974 9.24842 2.48076 9.19838C2.49179 9.14834 2.52189 9.10457 2.56467 9.07637L6.41813 6.51685L2.76825 8.62432C2.72413 8.64992 2.6718 8.6574 2.62228 8.64519C2.57275 8.63298 2.5299 8.60202 2.50275 8.55884C2.4756 8.51566 2.46626 8.46363 2.47671 8.4137C2.48716 8.36378 2.51657 8.31986 2.55876 8.29119L6.3689 5.70174L2.88953 7.70998C2.84538 7.73408 2.79368 7.74037 2.74504 7.72757C2.6964 7.71476 2.65451 7.68382 2.62796 7.64109C2.60141 7.59837 2.59222 7.54711 2.60227 7.49782C2.61232 7.44854 2.64085 7.40497 2.68201 7.37606L4.90013 5.89941L3.0998 6.93818C3.05588 6.96185 3.00461 6.96796 2.95635 6.95528C2.90809 6.94259 2.86645 6.91206 2.83985 6.86985C2.81324 6.82764 2.80365 6.7769 2.81302 6.72789C2.82239 6.67888 2.85002 6.63526 2.89032 6.60584L4.83989 5.26977L3.48491 6.0518C3.44099 6.07547 3.38972 6.08158 3.34146 6.0689C3.2932 6.05621 3.25156 6.02568 3.22496 5.98347C3.19835 5.94126 3.18876 5.89052 3.19813 5.84151C3.2075 5.7925 3.23513 5.74888 3.27543 5.71946L3.95193 5.25599C3.90759 5.26807 3.86042 5.26427 3.81859 5.24523C3.77676 5.2262 3.74291 5.19313 3.7229 5.15175C3.70289 5.11038 3.69799 5.06331 3.70903 5.0187C3.72008 4.97409 3.74639 4.93475 3.78339 4.9075L4.7946 4.15421C4.77269 4.13803 4.75433 4.11752 4.74065 4.09397C4.71455 4.04874 4.70747 3.99501 4.72099 3.94457C4.7345 3.89413 4.7675 3.85113 4.81272 3.82502L6.70715 2.73151C6.75064 2.70679 6.80191 2.69955 6.85055 2.71126C6.89918 2.72296 6.94153 2.75275 6.96901 2.79455C6.99648 2.83636 7.007 2.88706 6.99845 2.93635C6.98989 2.98563 6.96289 3.02981 6.92294 3.05992L6.72054 3.21073L8.12631 2.39917C8.17033 2.37469 8.22205 2.36801 8.27084 2.3805C8.31964 2.393 8.36178 2.42372 8.38862 2.46634C8.41545 2.50896 8.42493 2.56024 8.41511 2.60964C8.40528 2.65904 8.3769 2.7028 8.3358 2.73191L7.73333 3.1434L9.08908 2.36018C9.13313 2.33501 9.1852 2.3278 9.23443 2.34008C9.28366 2.35236 9.32625 2.38316 9.35332 2.42608C9.38039 2.46899 9.38984 2.5207 9.37972 2.57041C9.36959 2.62013 9.34066 2.66402 9.29896 2.69292L7.3494 4.02781L10.0503 2.47123C10.0944 2.44713 10.1461 2.44083 10.1948 2.45364C10.2434 2.46645 10.2853 2.49739 10.3119 2.54011C10.3384 2.58283 10.3476 2.6341 10.3375 2.68338C10.3275 2.73267 10.299 2.77624 10.2578 2.80515L8.03889 4.28258L10.826 2.67363C10.8701 2.64884 10.922 2.64196 10.971 2.65442C11.0201 2.66689 11.0624 2.69773 11.0893 2.74057C11.1162 2.78341 11.1255 2.83495 11.1155 2.8845C11.1054 2.93406 11.0766 2.97784 11.0351 3.00676L7.22615 5.59542L11.6766 3.02527C11.7208 3.00086 11.7727 2.99437 11.8215 3.00715C11.8704 3.01994 11.9125 3.05101 11.9391 3.09394C11.9657 3.13687 11.9748 3.18839 11.9645 3.23783C11.9541 3.28727 11.9252 3.33086 11.8837 3.35958L8.02866 5.9191L12.3539 3.4218C12.3984 3.39632 12.4512 3.38926 12.5009 3.40214C12.5506 3.41501 12.5933 3.4468 12.6199 3.49072C12.6465 3.53463 12.6549 3.58721 12.6433 3.63723C12.6317 3.68724 12.601 3.73075 12.5578 3.75847L11.0414 4.71849L12.763 3.72461C12.8075 3.6985 12.8606 3.69094 12.9106 3.70356C12.9607 3.71618 13.0038 3.74797 13.0307 3.79208C13.0576 3.83619 13.066 3.88908 13.0542 3.93937C13.0425 3.98965 13.0114 4.03329 12.9677 4.06089L10.1787 5.84665L13.1965 4.1042C13.2412 4.07843 13.2943 4.07123 13.3442 4.08416C13.3942 4.0971 13.4371 4.12912 13.4636 4.17335C13.4902 4.21758 13.4984 4.27048 13.4863 4.32066C13.4743 4.37084 13.4431 4.41429 13.3993 4.44167L12.7527 4.8445L13.5009 4.41135C13.5452 4.38694 13.5972 4.38053 13.6462 4.39345C13.6951 4.40636 13.7371 4.43761 13.7636 4.48072C13.7901 4.52382 13.799 4.57547 13.7884 4.62495C13.7779 4.67442 13.7486 4.71793 13.7069 4.74645L9.23399 7.67218L13.9415 4.95515C13.986 4.93072 14.0381 4.92436 14.0871 4.93741C14.1361 4.95045 14.1781 4.98189 14.2045 5.02518C14.2309 5.06847 14.2396 5.12027 14.2287 5.16979C14.2179 5.21931 14.1884 5.26274 14.1463 5.29103L10.4236 7.68832L14.2762 5.46666C14.3208 5.4394 14.3743 5.43095 14.4251 5.44317C14.4759 5.45539 14.5197 5.48728 14.547 5.53183C14.5742 5.57637 14.5827 5.62991 14.5705 5.68068C14.5582 5.73145 14.5263 5.77529 14.4818 5.80254L10.4441 8.41247L14.5665 6.03251C14.6111 6.00751 14.6637 6.00085 14.7131 6.01394C14.7625 6.02703 14.8049 6.05883 14.8313 6.10262C14.8577 6.14642 14.866 6.19877 14.8545 6.24859C14.843 6.29841 14.8126 6.3418 14.7696 6.36958L13.3316 7.27171L14.7429 6.45699C14.7872 6.43259 14.8392 6.42618 14.8881 6.43909C14.937 6.45201 14.9791 6.48326 15.0056 6.52637C15.0321 6.56947 15.041 6.62112 15.0304 6.6706C15.0198 6.72007 14.9906 6.76358 14.9488 6.79209L10.7354 9.54141L14.9457 7.11066C14.9902 7.08578 15.0426 7.07914 15.0919 7.09212C15.1412 7.1051 15.1835 7.1367 15.21 7.18026C15.2365 7.22383 15.245 7.27596 15.2338 7.3257C15.2226 7.37544 15.1926 7.4189 15.15 7.44694L12.6299 9.05471L15.0579 7.65327C15.1021 7.6292 15.1539 7.623 15.2026 7.63595C15.2513 7.6489 15.2932 7.68002 15.3196 7.7229C15.346 7.76578 15.355 7.81716 15.3447 7.86647C15.3344 7.91578 15.3056 7.95927 15.2642 7.98798L11.4643 10.4802L15.1299 8.36443C15.1744 8.33912 15.227 8.33211 15.2765 8.34489C15.3261 8.35767 15.3687 8.38924 15.3954 8.43291C15.422 8.47657 15.4307 8.52891 15.4194 8.57882C15.4082 8.62874 15.3779 8.67231 15.3351 8.70032L13.0166 10.1919L15.128 8.97123C15.1725 8.94512 15.2256 8.93756 15.2756 8.95018C15.3257 8.9628 15.3688 8.99459 15.3957 9.0387C15.4225 9.08281 15.431 9.13571 15.4192 9.18599C15.4075 9.23627 15.3764 9.27992 15.3327 9.30751L13.8305 10.2707L15.0677 9.55677C15.1119 9.53298 15.1635 9.52695 15.212 9.53992C15.2605 9.5529 15.3022 9.58389 15.3285 9.62657C15.3549 9.66925 15.364 9.72039 15.354 9.76956C15.3439 9.81872 15.3155 9.86219 15.2745 9.89108L12.9642 11.4189L14.9185 10.2908C14.9629 10.2663 15.015 10.26 15.064 10.273C15.113 10.2861 15.1551 10.3175 15.1815 10.3608C15.2079 10.4041 15.2165 10.4559 15.2057 10.5054C15.1949 10.5549 15.1653 10.5984 15.1233 10.6267L14.8157 10.8235C14.8524 10.8198 14.8894 10.8263 14.9226 10.8423C14.9558 10.8583 14.984 10.8831 15.0039 10.9141C15.0311 10.9571 15.0406 11.009 15.0304 11.0588C15.0202 11.1087 14.9911 11.1526 14.9492 11.1815L13.0134 12.5203L14.303 11.7769C14.3468 11.7515 14.3986 11.7439 14.4478 11.7558C14.497 11.7676 14.5397 11.7979 14.5672 11.8404C14.5946 11.8828 14.6046 11.9343 14.5952 11.9839C14.5858 12.0336 14.5576 12.0778 14.5164 12.1072L13.5155 12.8239L13.5765 12.7889C13.6215 12.7653 13.6739 12.7601 13.7226 12.7742C13.7714 12.7884 13.8128 12.8208 13.8382 12.8648C13.8636 12.9087 13.8711 12.9608 13.859 13.0102C13.8469 13.0595 13.8163 13.1022 13.7734 13.1295L10.2688 15.1523C10.2251 15.1776 10.1732 15.1852 10.1241 15.1734C10.0749 15.1616 10.0321 15.1313 10.0047 15.0888C9.97725 15.0463 9.9672 14.9949 9.97665 14.9452C9.98609 14.8955 10.0143 14.8514 10.0554 14.8219L11.0572 14.1029L9.03435 15.2716C9.0045 15.2892 8.97054 15.2985 8.93591 15.2988Z" fill="#F7D53F"/>
<path d="M0 8.85315C0 9.44972 0.581996 9.84467 0.342582 10.4558C0.266782 10.6501 0.248305 10.8621 0.289345 11.0666C0.330384 11.2711 0.429217 11.4595 0.57412 11.6096C1.1128 11.9553 1.01396 12.5074 1.08287 13.0535C1.25338 13.543 1.66999 13.5682 1.99525 13.8891C2.35791 14.2467 2.22796 14.7948 2.65403 15.1322C3.00842 15.4103 3.52033 15.3224 3.80069 15.7072C4.04838 16.047 4.17556 16.3628 4.52917 16.5132C4.28661 19.1235 0.906464 24.0736 5.97235 21.0231C7.71637 23.9709 8.26017 23.8051 8.93312 20.4824C9.62301 23.7307 9.9908 23.9587 11.8494 21.0451C16.8661 24.048 13.6816 18.966 13.3733 16.4285C13.7553 16.2829 13.8923 15.9166 14.0919 15.6016C14.3892 15.2248 14.9842 15.3118 15.3366 14.9405C15.4911 14.7665 15.5944 14.5533 15.6351 14.3242C15.8545 13.5272 17.0153 13.4327 16.8558 12.4392C16.8216 11.8824 17.1685 11.6726 17.5012 11.2579C17.8556 10.6243 17.2461 10.0408 17.6623 9.42215C17.8039 9.2305 17.8803 8.9985 17.8803 8.76022C17.8803 8.52194 17.8039 8.28994 17.6623 8.09829C17.2366 7.53638 17.804 6.96304 17.5591 6.3716C17.3874 5.9538 16.9117 5.79629 16.8503 5.31235C16.9373 4.41337 16.501 4.09795 15.8104 3.64118C15.569 3.02847 15.4445 2.36063 14.6684 2.26297C14.0356 2.10822 14.0683 1.57427 13.5997 1.23917C13.1311 0.904065 12.5389 1.16356 12.0849 0.81271C12.118 0.838305 11.9033 0.666227 11.8963 0.658745L11.8329 0.653232L11.8959 0.595742C11.2796 -0.0878475 10.3846 0.623306 9.68011 0.161017C8.90398 -0.337106 8.22315 0.496511 7.44624 0.3138C7.16985 0.241985 6.87875 0.250198 6.60685 0.337484C6.33495 0.42477 6.09346 0.587533 5.91052 0.806803C5.44784 1.20845 4.79812 0.876895 4.32953 1.30808C3.56246 2.75361 2.58079 2.02868 2.25947 3.30332C2.10629 4.07472 1.00412 4.12158 1.02696 5.00481C1.07165 5.20595 1.05613 5.41579 0.982319 5.60815C0.90851 5.80052 0.779686 5.96689 0.611923 6.0865C-0.0767855 6.65944 0.587508 7.40525 0.301236 8.08136C0.139168 8.31009 0.0357295 8.57511 0 8.85315ZM7.84513 22.4816C7.84119 22.4958 7.81678 22.5651 7.79276 22.6391C6.20822 20.115 6.2724 20.4931 3.74989 21.711C4.02239 20.0178 4.6603 18.2982 5.05683 16.5967C5.43642 16.4943 5.8109 16.8022 6.02551 17.0023C6.60593 17.7686 7.31905 16.9885 8.07312 17.3732C8.22773 17.4849 8.40466 17.5618 8.59178 17.5986C8.77891 17.6354 8.97178 17.6314 9.15718 17.5866C8.72035 19.2182 8.283 20.8498 7.84513 22.4816ZM14.0018 21.0503C14.0569 21.2471 14.1112 21.4421 14.1593 21.6409C11.7006 20.4265 11.6277 20.3568 10.1479 22.7297C9.80848 21.6149 9.53717 20.473 9.23908 19.3456C9.41681 18.6862 9.59414 18.0265 9.77107 17.3665C10.4098 17.1621 11.13 17.5803 11.712 17.0885C12.0364 16.7802 12.2955 16.5266 12.8039 16.5845L14.001 21.0503H14.0018ZM0.993488 7.56276C0.659963 6.61337 0.963955 6.31529 1.54477 5.59153C1.76016 5.05679 1.41994 4.53504 2.03895 4.16962C2.27656 4.06596 2.48154 3.89968 2.63197 3.68856C2.78241 3.47744 2.87265 3.22941 2.89305 2.97098C3.21791 2.34803 4.08854 2.59217 4.40316 1.91882C4.6347 1.56442 4.64218 1.36242 5.13125 1.3447C5.76129 1.427 6.23381 1.03874 6.639 0.621337C7.09184 0.488635 7.61359 0.886346 8.0869 0.653232C8.52517 0.514624 8.69056 0.174405 9.28673 0.472884C10.0109 1.0852 11.1528 0.147628 11.5576 1.03204C11.691 1.15632 11.8508 1.2488 12.025 1.30256C13.6198 1.1545 13.1449 2.3622 14.5239 2.61028C15.0697 2.82449 14.9614 3.33915 15.2099 3.75222C15.4879 4.21175 16.1084 4.22751 16.2628 4.78824C16.0612 6.20188 17.4784 6.18692 16.909 7.57497C16.8558 8.29242 17.6264 8.67989 17.1338 9.41979C16.6255 10.0305 17.3032 10.6826 16.935 11.3099C15.7639 12.3156 16.8917 12.9275 15.3685 13.7792C15.0712 14.0911 15.1472 14.5243 14.8925 14.8424C14.6286 15.1697 14.0656 15.1283 13.7356 15.4189C13.4406 15.6367 13.4257 16.0489 13.1099 16.2391C12.6322 16.3226 12.079 16.2261 11.6754 16.5935C11.3233 16.8743 11.3525 17.0889 10.7787 17.0023C9.99119 16.6404 9.25129 17.4807 8.46768 17.0649C7.76913 16.642 6.67877 17.4142 6.33777 16.5967C5.85343 16.0647 5.01981 16.5227 4.58981 15.9521C4.36339 15.1937 3.63728 15.1882 3.08836 14.831C2.79736 14.531 2.86588 14.0923 2.61268 13.7698C2.31066 13.3859 1.77946 13.376 1.63258 12.8417C1.7834 11.4497 0.63043 11.5052 0.888745 10.4436C1.25062 8.92836 0.0232327 9.64385 0.993488 7.56276Z" fill="#262626"/>
<path d="M10.3337 15.0972C16.6612 13.9423 17.2956 4.44687 11.0417 2.66347C0.334653 -0.0157568 -0.710025 16.8397 10.3337 15.0972ZM3.80458 5.57699C6.78189 0.268941 15.1531 2.9718 14.9625 8.89256C14.2356 19.3622 -0.9077 14.6468 3.80458 5.57699Z" fill="#262626"/>
</svg>
