<svg width="18" height="25" viewBox="0 0 18 25" fill="none" xmlns="http://www.w3.org/2000/svg">
<path d="M8.31489 23.9695C8.27332 23.9697 8.23262 23.9575 8.19795 23.9346C8.16328 23.9116 8.13621 23.8789 8.12017 23.8405C8.10412 23.8022 8.09982 23.7599 8.10781 23.7191C8.1158 23.6783 8.13573 23.6408 8.16506 23.6113L8.65455 23.1155L7.5817 23.7346C7.53655 23.7608 7.4833 23.7692 7.43229 23.7583C7.38128 23.7474 7.33614 23.7179 7.30563 23.6756C7.27511 23.6333 7.2614 23.5811 7.26715 23.5293C7.2729 23.4775 7.2977 23.4296 7.33674 23.395L8.14107 22.6812L7.5918 22.9981C7.54758 23.0242 7.49532 23.0332 7.44491 23.0234C7.3945 23.0136 7.34944 22.9856 7.31824 22.9448C7.28704 22.904 7.27186 22.8532 7.27558 22.802C7.2793 22.7508 7.30166 22.7027 7.33843 22.6669L8.45126 21.5595L7.69071 21.9981C7.6464 22.0233 7.59443 22.0316 7.54447 22.0214C7.4945 22.0112 7.44995 21.9831 7.41908 21.9426C7.38821 21.902 7.37313 21.8515 7.37665 21.8007C7.38016 21.7498 7.40203 21.7019 7.43818 21.666L8.33468 20.785L7.77952 21.1058C7.73608 21.1305 7.68524 21.1389 7.63613 21.1296C7.58702 21.1203 7.54283 21.0938 7.51149 21.0548C7.48014 21.0159 7.46368 20.9671 7.46506 20.9171C7.46643 20.8671 7.48555 20.8193 7.51899 20.7821L8.19199 20.0434L7.86622 20.2312C7.82332 20.2559 7.7731 20.2647 7.72433 20.2562C7.67556 20.2477 7.63134 20.2223 7.59938 20.1844C7.56772 20.1463 7.55045 20.0983 7.55061 20.0488C7.55076 19.9992 7.56832 19.9513 7.60022 19.9134L8.15369 19.2564C8.12907 19.2341 8.11006 19.2063 8.0982 19.1753C8.08635 19.1443 8.08199 19.1109 8.08547 19.0779C8.08896 19.0448 8.1002 19.0131 8.11827 18.9853C8.13634 18.9574 8.16074 18.9342 8.18947 18.9176L8.70674 18.6191C8.74978 18.5948 8.79994 18.5862 8.84863 18.5948C8.89732 18.6034 8.9415 18.6287 8.97359 18.6663C9.00525 18.7044 9.02251 18.7524 9.02236 18.802C9.02221 18.8515 9.00465 18.8994 8.97275 18.9373L8.69622 19.2656L9.15415 19.0013C9.19758 18.975 9.24907 18.9654 9.29907 18.9742C9.34907 18.983 9.39418 19.0096 9.42601 19.0492C9.45785 19.0887 9.47424 19.1385 9.47216 19.1892C9.47008 19.2399 9.44965 19.2882 9.41468 19.325L8.74168 20.0636L9.55779 19.5927C9.6021 19.5674 9.65407 19.5592 9.70403 19.5694C9.75399 19.5796 9.79855 19.6076 9.82942 19.6482C9.86029 19.6888 9.87536 19.7392 9.87185 19.79C9.86834 19.8409 9.84647 19.8888 9.81032 19.9247L8.9134 20.8061L9.63691 20.3886C9.68114 20.3634 9.73299 20.3551 9.78287 20.3652C9.83274 20.3753 9.87726 20.4032 9.90818 20.4436C9.9391 20.484 9.95433 20.5343 9.95104 20.5851C9.94775 20.6358 9.92617 20.6837 9.89029 20.7198L8.77829 21.8268L9.7253 21.28C9.77045 21.2539 9.8237 21.2455 9.87471 21.2564C9.92572 21.2673 9.97086 21.2968 10.0014 21.3391C10.0319 21.3814 10.0456 21.4335 10.0399 21.4854C10.0341 21.5372 10.0093 21.5851 9.97026 21.6197L9.16551 22.3339L9.79433 21.9711C9.83843 21.9457 9.89025 21.9371 9.9402 21.947C9.99014 21.9568 10.0348 21.9844 10.066 22.0247C10.0971 22.065 10.1126 22.1152 10.1095 22.166C10.1065 22.2168 10.0851 22.2648 10.0494 22.3011L9.55989 22.7969L9.85956 22.6243C9.89882 22.6019 9.94424 22.5927 9.98911 22.5981C10.034 22.6035 10.076 22.6231 10.1088 22.6542C10.1417 22.6852 10.1637 22.7259 10.1717 22.7704C10.1796 22.8149 10.173 22.8608 10.1529 22.9013L9.97363 23.2548C10.0212 23.2516 10.0684 23.2647 10.1075 23.2918C10.1466 23.319 10.1753 23.3588 10.1888 23.4044C10.2024 23.4501 10.1999 23.4991 10.1819 23.5432C10.1639 23.5873 10.1314 23.6239 10.0898 23.6471L9.59019 23.9354C9.55096 23.9581 9.50543 23.9676 9.46038 23.9624C9.41534 23.9571 9.3732 23.9375 9.34022 23.9064C9.30725 23.8752 9.28521 23.8343 9.27739 23.7896C9.26957 23.7449 9.27639 23.6989 9.29683 23.6585L9.45677 23.3428L8.41927 23.9417C8.38737 23.9604 8.35102 23.9701 8.31405 23.9699L8.31489 23.9695Z" fill="#71959E"/>
<path d="M8.13988 16.3488C8.09499 16.3488 8.05127 16.3344 8.01513 16.3078C7.979 16.2812 7.95232 16.2437 7.93902 16.2008C7.92571 16.1579 7.92647 16.1119 7.94118 16.0695C7.95589 16.027 7.98378 15.9904 8.02077 15.965L9.03764 15.2672L7.47235 16.1704C7.42555 16.1971 7.37028 16.2048 7.31795 16.192C7.26561 16.1791 7.2202 16.1467 7.19106 16.1014C7.16192 16.0561 7.15128 16.0013 7.16133 15.9483C7.17137 15.8954 7.20135 15.8483 7.24507 15.8168L10.0646 13.8058L6.57375 15.821C6.52614 15.8502 6.46891 15.8592 6.41464 15.8461C6.36038 15.8331 6.31352 15.799 6.28439 15.7514C6.25525 15.7038 6.24622 15.6465 6.25929 15.5923C6.27235 15.538 6.30644 15.4912 6.35405 15.462L6.53966 15.3421L6.13729 15.5744C6.08999 15.6013 6.0341 15.6088 5.98137 15.5954C5.92863 15.582 5.88314 15.5487 5.85444 15.5025C5.82574 15.4562 5.81607 15.4007 5.82745 15.3475C5.83883 15.2943 5.87038 15.2475 5.91548 15.2171L8.05529 13.7953L5.62296 15.1998C5.57569 15.2272 5.51963 15.2351 5.46661 15.222C5.4136 15.2088 5.3678 15.1755 5.33888 15.1291C5.30997 15.0828 5.30021 15.027 5.31167 14.9736C5.32314 14.9202 5.35492 14.8733 5.40031 14.8429L8.50816 12.7553L5.11494 14.7141C5.06733 14.7418 5.01074 14.7497 4.95736 14.7361C4.90398 14.7225 4.85809 14.6884 4.82958 14.6413C4.80114 14.5942 4.79222 14.5378 4.80472 14.4842C4.81722 14.4306 4.85015 14.3839 4.8965 14.3542L5.652 13.8719L4.81485 14.3551C4.76713 14.3841 4.70985 14.3929 4.65563 14.3796C4.6014 14.3664 4.55466 14.3321 4.5257 14.2844C4.49673 14.2367 4.4879 14.1794 4.50117 14.1252C4.51443 14.0709 4.54869 14.0242 4.59641 13.9952L5.32202 13.5339L4.55305 13.978C4.50579 14.0054 4.44972 14.0133 4.39671 14.0001C4.3437 13.9869 4.29789 13.9536 4.26898 13.9073C4.24006 13.8609 4.2303 13.8051 4.24177 13.7517C4.25323 13.6983 4.28502 13.6515 4.3304 13.6211L8.55025 10.783L4.19782 13.2957C4.15021 13.3234 4.09362 13.3313 4.04024 13.3177C3.98686 13.3041 3.94097 13.27 3.91246 13.2229C3.88402 13.1758 3.8751 13.1194 3.8876 13.0658C3.9001 13.0122 3.93303 12.9655 3.97938 12.9358L5.66463 11.86L4.02105 12.8092C3.97342 12.8371 3.91664 12.8451 3.86315 12.8313C3.80966 12.8175 3.76383 12.783 3.73568 12.7355C3.70713 12.6884 3.69823 12.6319 3.7109 12.5783C3.72358 12.5247 3.75682 12.4782 3.80345 12.4489L4.29084 12.142L3.90362 12.3655C3.85638 12.3913 3.80107 12.398 3.74903 12.3843C3.69698 12.3707 3.65214 12.3376 3.62368 12.2919C3.59522 12.2463 3.5853 12.1914 3.59595 12.1387C3.6066 12.0859 3.63702 12.0393 3.68097 12.0082L8.33139 8.89866L3.79966 11.5149C3.75188 11.5438 3.6946 11.5525 3.64041 11.5391C3.58623 11.5257 3.53957 11.4913 3.51072 11.4436C3.48186 11.3958 3.47317 11.3385 3.48655 11.2843C3.49993 11.2301 3.53428 11.1835 3.58206 11.1546L4.52485 10.5599L3.79293 10.9825C3.74554 11.0119 3.68841 11.0213 3.6341 11.0086C3.5798 10.9959 3.53277 10.9621 3.50335 10.9147C3.47394 10.8673 3.46455 10.8102 3.47726 10.7559C3.48997 10.7016 3.52373 10.6546 3.57112 10.6252L7.95343 7.71301L3.7925 10.1155C3.74482 10.1422 3.68862 10.1493 3.63578 10.1353C3.58294 10.1213 3.53762 10.0873 3.5094 10.0405C3.48119 9.9937 3.47229 9.93775 3.48459 9.88449C3.4969 9.83124 3.52943 9.78486 3.57532 9.75517L3.92046 9.53757L3.79208 9.61165C3.74446 9.63955 3.68778 9.64763 3.63425 9.63414C3.58073 9.62066 3.53464 9.58667 3.50594 9.53953C3.47723 9.49238 3.46819 9.43584 3.48078 9.3821C3.49337 9.32835 3.52656 9.2817 3.57322 9.2522L5.54594 7.98869L3.79208 9.00093C3.74489 9.02783 3.68913 9.03543 3.63646 9.02216C3.5838 9.00889 3.5383 8.97577 3.50949 8.92973C3.48067 8.88368 3.47078 8.82828 3.48187 8.77511C3.49297 8.72194 3.52419 8.67512 3.56901 8.64444L7.99552 5.64686L3.7925 8.07329C3.74506 8.1027 3.68788 8.11207 3.63353 8.09932C3.57919 8.08657 3.53213 8.05276 3.50272 8.00532C3.47331 7.95787 3.46394 7.90069 3.47669 7.84635C3.48944 7.792 3.52325 7.74495 3.5707 7.71553L6.73621 5.61992L3.79208 7.31947C3.74443 7.34671 3.68803 7.35425 3.6349 7.34048C3.58177 7.32672 3.53611 7.29275 3.50768 7.24581C3.47924 7.19887 3.47026 7.14267 3.48266 7.08921C3.49506 7.03574 3.52786 6.98924 3.57406 6.95961L3.76557 6.83798C3.71703 6.85775 3.66285 6.85869 3.61365 6.84063C3.56445 6.82257 3.52376 6.78679 3.49954 6.74031C3.47533 6.69382 3.46933 6.63998 3.48272 6.5893C3.49612 6.53863 3.52794 6.49478 3.57196 6.46633L5.11073 5.46503L3.79166 6.22684C3.74472 6.25693 3.68776 6.26713 3.63329 6.25521C3.57883 6.24329 3.53133 6.21023 3.50125 6.16329C3.47116 6.11635 3.46096 6.05938 3.47288 6.00492C3.4848 5.95046 3.51786 5.90296 3.5648 5.87287L7.24255 3.27261L3.79671 5.26174C3.7494 5.28687 3.6943 5.29305 3.6426 5.27902C3.5909 5.26499 3.54647 5.23182 3.51834 5.18622C3.49022 5.14063 3.4805 5.08604 3.49116 5.03354C3.50182 4.98104 3.53206 4.93457 3.57575 4.90356L4.36534 4.38502L3.8468 4.68428C3.79961 4.71117 3.74385 4.71878 3.69118 4.70551C3.63851 4.69224 3.59301 4.65912 3.5642 4.61307C3.53539 4.56703 3.5255 4.51163 3.53659 4.45846C3.54768 4.40529 3.57891 4.35846 3.62373 4.32778L4.91165 3.4557L4.00379 3.97971C3.95671 4.00662 3.90106 4.01432 3.84844 4.0012C3.79582 3.98808 3.75029 3.95515 3.72136 3.90928C3.69243 3.86341 3.68232 3.80814 3.69314 3.755C3.70397 3.70186 3.73489 3.65495 3.77946 3.62405L4.62376 3.04238L4.29631 3.23136C4.25117 3.25781 4.19775 3.26634 4.14661 3.25528C4.09548 3.24421 4.05037 3.21434 4.02021 3.1716C3.98971 3.12916 3.97614 3.07688 3.98213 3.02496C3.98813 2.97305 4.01326 2.92524 4.05261 2.89086L5.42935 1.68375C5.38015 1.69646 5.32802 1.69094 5.28257 1.66821C5.23712 1.64548 5.20144 1.60708 5.1821 1.56009C5.16276 1.5131 5.16107 1.4607 5.17735 1.41257C5.19363 1.36443 5.22678 1.32381 5.27067 1.29821L7.04515 0.273343C7.0904 0.246113 7.14425 0.236932 7.19597 0.24763C7.24769 0.258328 7.29348 0.288119 7.32422 0.331067C7.35496 0.374015 7.36839 0.426968 7.36183 0.479374C7.35528 0.53178 7.32922 0.579792 7.28884 0.613844L5.93905 1.79697L8.99345 0.0384859C9.04053 0.0115726 9.09619 0.00387401 9.14881 0.0169956C9.20143 0.0301173 9.24695 0.063046 9.27588 0.108915C9.30482 0.154783 9.31492 0.210051 9.3041 0.263191C9.29328 0.316331 9.26236 0.363241 9.21779 0.394139L8.37432 0.974968L9.78388 0.161386C9.83107 0.134492 9.88683 0.126886 9.9395 0.140157C9.99217 0.153428 10.0377 0.186549 10.0665 0.232593C10.0953 0.278637 10.1052 0.334038 10.0941 0.387208C10.083 0.440378 10.0518 0.4872 10.007 0.51788L8.72029 1.38912L10.4725 0.377724C10.52 0.348422 10.5772 0.339188 10.6315 0.352054C10.6858 0.36492 10.7327 0.398832 10.762 0.446329C10.7913 0.493826 10.8006 0.551019 10.7877 0.605324C10.7748 0.65963 10.7409 0.7066 10.6934 0.735902L9.89837 1.25823L10.9998 0.622261C11.0467 0.595234 11.1022 0.587298 11.1548 0.600101C11.2073 0.612904 11.2529 0.645462 11.2821 0.691015C11.3113 0.736568 11.3219 0.791615 11.3115 0.844726C11.3012 0.897838 11.2708 0.944932 11.2267 0.97623L7.55064 3.57565L11.7743 1.13701C11.8218 1.10939 11.8782 1.10144 11.9315 1.11486C11.9848 1.12828 12.0307 1.16201 12.0594 1.20884C12.0882 1.25566 12.0975 1.31188 12.0853 1.36546C12.0732 1.41905 12.0405 1.46576 11.9944 1.49561L10.4535 2.49817L12.1834 1.4994C12.231 1.47217 12.2874 1.46463 12.3406 1.47839C12.3937 1.49215 12.4394 1.52612 12.4678 1.57306C12.4962 1.62001 12.5052 1.6762 12.4928 1.72966C12.4804 1.78313 12.4476 1.82963 12.4014 1.85926L12.2537 1.95312L12.4784 1.82348C12.5019 1.80892 12.528 1.79912 12.5553 1.79466C12.5826 1.79019 12.6105 1.79114 12.6374 1.79745C12.6643 1.80377 12.6897 1.81532 12.7122 1.83145C12.7346 1.84757 12.7536 1.86797 12.7682 1.89146C12.7828 1.91495 12.7926 1.94108 12.797 1.96835C12.8015 1.99563 12.8006 2.02352 12.7942 2.05043C12.7879 2.07734 12.7764 2.10274 12.7602 2.12518C12.7441 2.14763 12.7237 2.16668 12.7002 2.18124L9.5343 4.27728L12.8678 2.35296C12.915 2.32338 12.9721 2.31379 13.0265 2.3263C13.0534 2.3325 13.0788 2.34393 13.1013 2.35995C13.1238 2.37597 13.1429 2.39627 13.1575 2.41968C13.1722 2.44308 13.1821 2.46915 13.1866 2.49638C13.1912 2.52361 13.1904 2.55147 13.1842 2.57838C13.178 2.60529 13.1666 2.63072 13.1505 2.65321C13.1345 2.6757 13.1142 2.69481 13.0908 2.70946L8.66642 5.70578L13.2457 3.06217C13.2933 3.03426 13.35 3.02618 13.4035 3.03967C13.4571 3.05316 13.5032 3.08714 13.5319 3.13428C13.5606 3.18143 13.5696 3.23797 13.557 3.29171C13.5444 3.34546 13.5112 3.39211 13.4646 3.42161L11.4902 4.6868L13.4313 3.56597C13.479 3.53925 13.5352 3.53214 13.588 3.54612C13.6409 3.56011 13.6862 3.59411 13.7144 3.64092C13.7426 3.68773 13.7515 3.74368 13.7392 3.79693C13.7269 3.85019 13.6944 3.89657 13.6485 3.92625L13.3046 4.14301L13.5475 4.00286C13.5948 3.97595 13.6507 3.96841 13.7034 3.98183C13.7561 3.99524 13.8016 4.02856 13.8303 4.07479C13.859 4.12103 13.8687 4.17658 13.8573 4.22979C13.8459 4.28301 13.8144 4.32974 13.7693 4.36019L9.38783 7.27149L13.6523 4.80928C13.7001 4.78043 13.7573 4.77173 13.8115 4.78511C13.8657 4.79849 13.9124 4.83285 13.9412 4.88062C13.9701 4.9284 13.9788 4.98568 13.9654 5.03987C13.952 5.09406 13.9177 5.14071 13.8699 5.16957L12.9204 5.76849L13.6611 5.34087C13.7084 5.3151 13.7637 5.30837 13.8157 5.32205C13.8678 5.33574 13.9126 5.3688 13.9411 5.41448C13.9695 5.46015 13.9794 5.51497 13.9688 5.56772C13.9581 5.62047 13.9277 5.66715 13.8838 5.6982L9.23462 8.8069L13.6616 6.25125C13.7093 6.2224 13.7666 6.2137 13.8208 6.22708C13.875 6.24046 13.9216 6.27482 13.9505 6.3226C13.9793 6.37037 13.988 6.42765 13.9747 6.48184C13.9613 6.53603 13.9269 6.58268 13.8792 6.61154L13.388 6.92047L13.6616 6.76264C13.7093 6.73367 13.7665 6.72485 13.8208 6.73811C13.875 6.75137 13.9217 6.78562 13.9507 6.83335C13.9797 6.88107 13.9885 6.93834 13.9752 6.99257C13.962 7.04679 13.9277 7.09353 13.88 7.1225L12.196 8.19703L13.6616 7.35104C13.7088 7.32365 13.7649 7.31571 13.8179 7.3289C13.8709 7.34209 13.9167 7.37538 13.9456 7.42173C13.9745 7.46808 13.9843 7.52386 13.9728 7.57728C13.9614 7.63069 13.9296 7.67755 13.8842 7.70796L9.66645 10.5448L13.6616 8.23828C13.7093 8.20931 13.7665 8.20049 13.8208 8.21375C13.875 8.22701 13.9217 8.26127 13.9507 8.30899C13.9797 8.35671 13.9885 8.41398 13.9752 8.46821C13.962 8.52244 13.9277 8.56917 13.88 8.59814L13.1468 9.06407L13.662 8.76692C13.6856 8.75257 13.7118 8.74303 13.7391 8.73882C13.7665 8.73461 13.7943 8.73582 13.8212 8.74239C13.848 8.74895 13.8733 8.76074 13.8956 8.77709C13.9179 8.79343 13.9368 8.814 13.9511 8.83763C13.9655 8.86126 13.975 8.88748 13.9792 8.9148C13.9834 8.94212 13.9822 8.97 13.9757 8.99685C13.9691 9.0237 13.9573 9.04899 13.941 9.07129C13.9246 9.09358 13.904 9.11244 13.8804 9.12678L13.1279 9.60702L13.6624 9.29892C13.7097 9.27153 13.7657 9.26359 13.8187 9.27678C13.8718 9.28997 13.9176 9.32326 13.9465 9.36962C13.9754 9.41597 13.9851 9.47174 13.9737 9.52516C13.9622 9.57857 13.9304 9.62543 13.885 9.65584L10.778 11.743L13.6624 10.078C13.7097 10.0511 13.7656 10.0436 13.8183 10.057C13.8711 10.0704 13.9165 10.1037 13.9452 10.1499C13.9739 10.1962 13.9836 10.2517 13.9722 10.3049C13.9609 10.3581 13.9293 10.4049 13.8842 10.4353L11.7419 11.8588L13.6624 10.7497C13.71 10.7206 13.7672 10.7116 13.8215 10.7246C13.8758 10.7377 13.9226 10.7718 13.9518 10.8194C13.9809 10.867 13.9899 10.9242 13.9769 10.9785C13.9638 11.0328 13.9297 11.0796 13.8821 11.1088L13.6746 11.2426C13.7223 11.2222 13.7758 11.2202 13.8249 11.2368C13.874 11.2535 13.9152 11.2876 13.9406 11.3328C13.9661 11.378 13.974 11.4309 13.9628 11.4815C13.9516 11.5322 13.9221 11.5769 13.88 11.6071L11.0596 13.6189L13.5046 12.2073C13.5516 12.1804 13.6073 12.1727 13.6599 12.1858C13.7125 12.1989 13.7581 12.2318 13.787 12.2777C13.8159 12.3236 13.826 12.3788 13.8152 12.432C13.8044 12.4851 13.7735 12.532 13.7289 12.5629L12.7112 13.2616L13.2529 12.9489C13.299 12.9227 13.3533 12.9149 13.4049 12.927C13.4565 12.9392 13.5017 12.9703 13.5313 13.0143C13.5609 13.0583 13.5729 13.1119 13.5647 13.1643C13.5565 13.2167 13.5289 13.2641 13.4873 13.297L12.066 14.4031L12.5306 14.1345C12.5545 14.1206 12.5809 14.1115 12.6084 14.1079C12.6358 14.1042 12.6637 14.106 12.6904 14.1132C12.7171 14.1203 12.7422 14.1327 12.7641 14.1496C12.786 14.1665 12.8043 14.1875 12.8181 14.2116C12.832 14.2355 12.8411 14.2619 12.8447 14.2893C12.8484 14.3167 12.8466 14.3446 12.8394 14.3713C12.8323 14.3981 12.8199 14.4231 12.803 14.445C12.7861 14.4669 12.7651 14.4853 12.7411 14.499L9.62984 16.2954C9.58372 16.3216 9.52941 16.3294 9.47779 16.3172C9.42616 16.3051 9.38102 16.2739 9.35139 16.2299C9.32176 16.186 9.30984 16.1324 9.318 16.08C9.32616 16.0276 9.3538 15.9802 9.3954 15.9473L10.8176 14.8408L8.24805 16.324C8.21611 16.3426 8.17979 16.3523 8.14283 16.3522L8.13988 16.3488Z" fill="#1E4E9B"/>
<path d="M13.9869 15.5681C13.9434 15.5681 13.9011 15.5546 13.8656 15.5295C13.8301 15.5044 13.8032 15.469 13.7887 15.428C13.7742 15.3871 13.7727 15.3426 13.7844 15.3008C13.7962 15.259 13.8206 15.2218 13.8543 15.1944L14.7832 14.4376C14.7364 14.4527 14.6858 14.4509 14.6401 14.4325C14.5945 14.4141 14.5568 14.3803 14.5334 14.337C14.5101 14.2937 14.5027 14.2436 14.5125 14.1954C14.5223 14.1472 14.5487 14.1039 14.5871 14.0731L14.9958 13.7465C14.9562 13.7397 14.9195 13.7217 14.8898 13.6946C14.8601 13.6676 14.8388 13.6326 14.8284 13.5939C14.8179 13.5551 14.8188 13.5142 14.8309 13.4759C14.8429 13.4376 14.8657 13.4036 14.8964 13.3778L15.2513 13.0794C15.1986 13.0899 15.122 13.0516 15.0804 12.9969C15.0494 12.9562 15.0343 12.9057 15.0378 12.8547C15.0413 12.8037 15.0631 12.7557 15.0993 12.7195L15.8317 11.9935L15.5248 12.1703C15.4817 12.1962 15.4307 12.2058 15.3811 12.1972C15.3315 12.1887 15.2866 12.1625 15.2547 12.1236C15.2228 12.0847 15.2059 12.0356 15.2072 11.9853C15.2085 11.9349 15.2279 11.8868 15.2618 11.8496L16.1284 10.8647L15.58 11.1812C15.5366 11.2062 15.4857 11.2149 15.4365 11.2059C15.3872 11.1969 15.3427 11.1707 15.311 11.1319C15.2796 11.093 15.2631 11.0441 15.2644 10.994C15.2657 10.944 15.2848 10.896 15.3182 10.8588L15.9104 10.1984L15.58 10.3891C15.5384 10.4131 15.4899 10.4222 15.4425 10.4149C15.3951 10.4076 15.3516 10.3843 15.3192 10.3489C15.2869 10.3135 15.2676 10.2681 15.2645 10.2202C15.2615 10.1723 15.2749 10.1248 15.3026 10.0856L15.6031 9.65882C15.565 9.65981 15.5272 9.65058 15.4939 9.63208C15.4605 9.61358 15.4327 9.58648 15.4133 9.55359C15.3994 9.52969 15.3903 9.50326 15.3866 9.47584C15.383 9.44842 15.3848 9.42054 15.3919 9.39382C15.3991 9.36709 15.4115 9.34205 15.4284 9.32013C15.4453 9.29822 15.4663 9.27986 15.4903 9.26612L16.1869 8.86375C16.2284 8.83972 16.2769 8.8306 16.3243 8.8379C16.3718 8.84521 16.4153 8.8685 16.4476 8.90392C16.48 8.93933 16.4993 8.98475 16.5023 9.03264C16.5054 9.08053 16.4919 9.12801 16.4643 9.16722L16.1966 9.54686L16.8431 9.17353C16.8864 9.14879 16.9371 9.14024 16.9861 9.14941C17.0352 9.15858 17.0794 9.18488 17.1108 9.22361C17.1423 9.26234 17.1589 9.31098 17.1578 9.36086C17.1567 9.41074 17.138 9.45861 17.1049 9.49593L16.5127 10.1563L17.0278 9.85916C17.071 9.8332 17.122 9.82363 17.1716 9.8322C17.2212 9.84076 17.2661 9.8669 17.298 9.90582C17.3299 9.94474 17.3468 9.99385 17.3455 10.0442C17.3442 10.0945 17.3248 10.1427 17.2909 10.1799L16.4243 11.1648L17.0278 10.8167C17.072 10.7908 17.1241 10.782 17.1743 10.792C17.2245 10.802 17.2693 10.8301 17.3002 10.871C17.3641 10.9552 17.3561 11.0734 17.2812 11.1483L16.5493 11.874L16.9988 11.6147C17.0444 11.5886 17.0981 11.5804 17.1493 11.5919C17.2006 11.6034 17.2457 11.6336 17.2759 11.6766C17.306 11.7197 17.3189 11.7724 17.3121 11.8245C17.3053 11.8766 17.2793 11.9243 17.2391 11.9581L16.9761 12.1791C17.0229 12.1646 17.0734 12.1669 17.1187 12.1857C17.1641 12.2045 17.2014 12.2385 17.2244 12.2819C17.2473 12.3253 17.2543 12.3753 17.2442 12.4233C17.2342 12.4713 17.2077 12.5143 17.1693 12.5449L16.9138 12.7494C16.9508 12.7465 16.988 12.7533 17.0216 12.7691C17.0553 12.7849 17.0842 12.8091 17.1057 12.8395C17.1356 12.8832 17.1479 12.9365 17.1404 12.9889C17.1328 13.0412 17.1059 13.0889 17.0649 13.1223L16.157 13.8618L16.5968 13.608C16.6207 13.594 16.6472 13.5849 16.6746 13.5812C16.702 13.5775 16.7299 13.5793 16.7567 13.5865C16.7834 13.5937 16.8085 13.6061 16.8304 13.623C16.8523 13.6399 16.8706 13.661 16.8843 13.6851C16.8982 13.709 16.9073 13.7354 16.911 13.7628C16.9146 13.7902 16.9128 13.8181 16.9057 13.8448C16.8985 13.8716 16.8861 13.8966 16.8692 13.9185C16.8524 13.9404 16.8313 13.9588 16.8073 13.9725L14.093 15.5399C14.061 15.5586 14.0247 15.5683 13.9877 15.5681H13.9869Z" fill="#ACC1C6"/>
<path d="M8.25818 19.739C8.21778 19.7391 8.17823 19.7275 8.14424 19.7057C8.11024 19.6839 8.08325 19.6527 8.06648 19.616C8.0497 19.5792 8.04386 19.5385 8.04964 19.4985C8.05542 19.4585 8.07258 19.421 8.09908 19.3905L8.77419 18.6102L7.1445 19.5509C7.10285 19.575 7.0542 19.5842 7.00664 19.5768C6.95908 19.5694 6.91549 19.5459 6.88315 19.5102C6.8508 19.4746 6.83165 19.4289 6.82889 19.3809C6.82613 19.3328 6.83993 19.2853 6.86797 19.2462L7.38567 18.5214L6.09606 19.266C6.0536 19.2903 6.00398 19.2991 5.95574 19.2908C5.9075 19.2825 5.86366 19.2576 5.83177 19.2205C5.79987 19.1834 5.78192 19.1363 5.78099 19.0874C5.78007 19.0384 5.79622 18.9907 5.82669 18.9524L6.24548 18.4301L5.33004 18.9583C5.28995 18.9815 5.24333 18.9909 5.19739 18.9849C5.15146 18.9789 5.10878 18.9579 5.07597 18.9252C5.04317 18.8925 5.02207 18.8499 5.01596 18.804C5.00984 18.758 5.01905 18.7114 5.04215 18.6712L5.4824 17.9048L4.45922 18.4949C4.41896 18.5178 4.37227 18.5268 4.32637 18.5205C4.28048 18.5142 4.23795 18.4929 4.20539 18.46C4.17282 18.427 4.15204 18.3842 4.14626 18.3383C4.14048 18.2923 4.15003 18.2457 4.17343 18.2057L4.60905 17.4717L3.71803 17.986C3.6741 18.0114 3.62249 18.02 3.5727 18.0104C3.52291 18.0007 3.47828 17.9734 3.44703 17.9334C3.41579 17.8935 3.40002 17.8436 3.40264 17.7929C3.40526 17.7423 3.42608 17.6943 3.46128 17.6577L3.57493 17.5407L3.33838 17.6771C3.29667 17.7011 3.24796 17.7102 3.2004 17.7026C3.15283 17.6951 3.10929 17.6715 3.07703 17.6357C3.04477 17.6 3.02575 17.5543 3.02314 17.5062C3.02054 17.4581 3.0345 17.4106 3.0627 17.3715L3.46255 16.8172L2.81901 17.1889C2.77482 17.214 2.72303 17.2223 2.67319 17.2123C2.62336 17.2022 2.57885 17.1744 2.54791 17.1341C2.51696 17.0937 2.50166 17.0436 2.50484 16.9928C2.50802 16.9421 2.52947 16.8942 2.56521 16.858L2.61277 16.8105L2.51807 16.8648C2.47529 16.8892 2.4253 16.8978 2.37681 16.8891C2.32833 16.8805 2.28441 16.8551 2.25272 16.8174C2.22103 16.7797 2.20356 16.7321 2.20337 16.6828C2.20317 16.6336 2.22025 16.5858 2.25164 16.5478L2.57236 16.164L2.14684 16.4094C2.10568 16.4335 2.05747 16.4428 2.01028 16.4357C1.96309 16.4286 1.91977 16.4055 1.88757 16.3702C1.85506 16.3354 1.83538 16.2905 1.83179 16.243C1.82819 16.1955 1.84089 16.1482 1.86779 16.1089L2.34803 15.4022L1.70491 15.7734C1.6626 15.7979 1.6131 15.8068 1.5649 15.7988C1.5167 15.7907 1.47281 15.7661 1.44076 15.7293C1.4087 15.6924 1.39048 15.6455 1.38922 15.5966C1.38796 15.5478 1.40374 15.5 1.43385 15.4615L1.86779 14.9089L1.37493 15.1934C1.33138 15.2189 1.28009 15.2278 1.23051 15.2184C1.18093 15.2091 1.13641 15.1821 1.10514 15.1425C1.07363 15.1032 1.05732 15.0539 1.05917 15.0036C1.06103 14.9533 1.08093 14.9053 1.11524 14.8685L1.38166 14.5814L1.14512 14.7174C1.10124 14.7427 1.04968 14.7514 0.999926 14.7418C0.950168 14.7322 0.905552 14.7049 0.874276 14.665C0.843 14.6252 0.827164 14.5753 0.829677 14.5247C0.832191 14.4741 0.852886 14.4261 0.887959 14.3895L1.1245 14.1437L0.951092 14.2435C0.908981 14.2678 0.859726 14.2769 0.811708 14.269C0.763691 14.2612 0.719878 14.2369 0.687726 14.2004C0.655574 14.1639 0.637069 14.1173 0.63536 14.0687C0.633652 14.0201 0.648845 13.9724 0.678355 13.9337L1.30127 13.1142L0.704451 13.4585C0.661279 13.4848 0.610071 13.4946 0.560254 13.4861C0.510438 13.4776 0.465368 13.4514 0.433345 13.4123C0.401322 13.3732 0.384501 13.3238 0.38598 13.2733C0.387459 13.2228 0.407138 13.1745 0.441394 13.1374L0.995707 12.5086L0.550405 12.7653C0.507536 12.7899 0.457368 12.7987 0.4087 12.79C0.360032 12.7813 0.315969 12.7558 0.284238 12.7179C0.252507 12.68 0.235134 12.6321 0.235164 12.5827C0.235194 12.5332 0.252625 12.4854 0.284402 12.4475L1.04116 11.551L0.447287 11.8936C0.403882 11.9184 0.353094 11.9269 0.304006 11.9176C0.254919 11.9083 0.210734 11.8819 0.179353 11.843C0.147973 11.8041 0.131444 11.7553 0.132723 11.7054C0.134002 11.6555 0.153006 11.6076 0.186334 11.5704L0.92163 10.7589L0.426242 11.0447C0.38292 11.0694 0.332216 11.078 0.283176 11.0688C0.234136 11.0596 0.18995 11.0333 0.158501 10.9946C0.127051 10.9559 0.110384 10.9072 0.111474 10.8574C0.112563 10.8075 0.131338 10.7596 0.164448 10.7223L0.69477 10.1318L0.426242 10.2867C0.384045 10.3113 0.334584 10.3204 0.286402 10.3124C0.23822 10.3044 0.194341 10.2798 0.162343 10.2429C0.130396 10.2061 0.112148 10.1594 0.11069 10.1107C0.109233 10.062 0.124656 10.0143 0.154347 9.97564L0.401409 9.65576C0.358959 9.64811 0.319905 9.62754 0.289575 9.59687C0.259244 9.5662 0.239116 9.52691 0.231935 9.48438C0.224754 9.44185 0.23087 9.39813 0.24945 9.35921C0.268029 9.32028 0.298167 9.28803 0.33575 9.26686L1.03317 8.86449C1.07541 8.84053 1.12463 8.83188 1.17251 8.84001C1.22039 8.84815 1.264 8.87256 1.29596 8.90912C1.32793 8.94569 1.34629 8.99217 1.34794 9.0407C1.3496 9.08924 1.33446 9.13686 1.30506 9.17553L1.14049 9.38808L1.62999 9.10566C1.67331 9.08091 1.72402 9.07237 1.77306 9.08154C1.8221 9.09071 1.86628 9.11701 1.89773 9.15574C1.92918 9.19447 1.94585 9.24311 1.94476 9.29299C1.94367 9.34287 1.92489 9.39074 1.89178 9.42806L1.36104 10.0186L1.87369 9.72311C1.91707 9.69681 1.96851 9.68715 2.01848 9.6959C2.06845 9.70465 2.11355 9.73123 2.14541 9.7707C2.17728 9.81017 2.19374 9.85986 2.19176 9.91054C2.18978 9.96123 2.16949 10.0095 2.13464 10.0463L1.39892 10.8582L1.87369 10.5847C1.91655 10.5601 1.96672 10.5513 2.01539 10.56C2.06406 10.5687 2.10812 10.5942 2.13985 10.6321C2.17158 10.67 2.18896 10.7179 2.18893 10.7673C2.1889 10.8167 2.17146 10.8646 2.13969 10.9024L1.38335 11.7985L1.8981 11.5014C1.9413 11.4766 1.99188 11.468 2.04085 11.477C2.08983 11.486 2.13402 11.5121 2.16557 11.5506C2.19713 11.5891 2.214 11.6376 2.21319 11.6874C2.21238 11.7371 2.19394 11.785 2.16115 11.8225L1.60642 12.4517L1.99616 12.227C2.03828 12.2026 2.08753 12.1936 2.13555 12.2014C2.18357 12.2093 2.22738 12.2335 2.25953 12.2701C2.29168 12.3066 2.31019 12.3531 2.3119 12.4017C2.31361 12.4504 2.29841 12.4981 2.2689 12.5368L1.6464 13.3558L2.20366 13.0338C2.24755 13.0085 2.2991 12.9998 2.34886 13.0094C2.39862 13.0191 2.44323 13.0463 2.47451 13.0862C2.50579 13.1261 2.52162 13.1759 2.51911 13.2265C2.5166 13.2771 2.4959 13.3251 2.46083 13.3617L2.22387 13.6083L2.38044 13.5179C2.42399 13.4912 2.47579 13.4813 2.5261 13.4901C2.57641 13.499 2.62177 13.5258 2.65365 13.5657C2.68554 13.6056 2.70176 13.6558 2.69927 13.7068C2.69678 13.7578 2.67575 13.8062 2.64013 13.8428L2.3737 14.1303L2.60014 13.9994C2.64245 13.9749 2.69195 13.9659 2.74015 13.974C2.78835 13.982 2.83224 14.0066 2.8643 14.0435C2.89635 14.0804 2.91457 14.1273 2.91583 14.1761C2.91709 14.225 2.90131 14.2727 2.8712 14.3112L2.43768 14.8634L2.93349 14.5772C2.97475 14.5535 3.02282 14.5445 3.06987 14.5517C3.11691 14.5588 3.16015 14.5817 3.19252 14.6165C3.2249 14.6514 3.24451 14.6962 3.24814 14.7436C3.25178 14.7911 3.23923 14.8384 3.21254 14.8778L2.73188 15.5849L3.38763 15.2069C3.4304 15.1818 3.48065 15.1727 3.52949 15.1812C3.57833 15.1896 3.62261 15.2151 3.65451 15.253C3.6864 15.2909 3.70385 15.3389 3.70376 15.3885C3.70368 15.4381 3.68607 15.486 3.65405 15.5238L3.33333 15.9077L3.78032 15.6501C3.8245 15.624 3.8767 15.615 3.92706 15.6248C3.97741 15.6346 4.02246 15.6624 4.05368 15.7031C4.0849 15.7438 4.10015 15.7946 4.09655 15.8457C4.09295 15.8969 4.07074 15.945 4.03412 15.9809L3.9874 16.0276L4.1023 15.9615C4.14402 15.9375 4.19273 15.9285 4.24029 15.936C4.28785 15.9435 4.3314 15.9671 4.36366 16.0029C4.39591 16.0387 4.41493 16.0844 4.41754 16.1325C4.42015 16.1806 4.40619 16.2281 4.37798 16.2671L3.97814 16.8214L4.67135 16.4212C4.71527 16.3958 4.76688 16.3872 4.81667 16.3968C4.86647 16.4065 4.91109 16.4338 4.94234 16.4738C4.97359 16.5137 4.98935 16.5636 4.98673 16.6143C4.98412 16.6649 4.96329 16.7129 4.92809 16.7495L4.81403 16.8665L5.09518 16.7044C5.13544 16.6815 5.18213 16.6725 5.22803 16.6788C5.27392 16.6851 5.31645 16.7064 5.34901 16.7394C5.38158 16.7723 5.40236 16.8151 5.40814 16.861C5.41392 16.907 5.40436 16.9536 5.38097 16.9936L4.94535 17.728L5.94791 17.1493C5.9879 17.1256 6.03467 17.1161 6.08075 17.1221C6.12683 17.1281 6.16956 17.1494 6.20212 17.1826C6.23474 17.2153 6.2557 17.2579 6.26178 17.3038C6.26786 17.3496 6.25873 17.3962 6.2358 17.4363L5.79554 18.2032L7.00561 17.505C7.04807 17.4806 7.09769 17.4718 7.14593 17.4801C7.19416 17.4884 7.238 17.5133 7.2699 17.5504C7.30179 17.5875 7.31975 17.6346 7.32067 17.6835C7.3216 17.7325 7.30544 17.7802 7.27498 17.8185L6.85619 18.3404L8.01532 17.6716C8.05697 17.6475 8.10563 17.6384 8.15318 17.6458C8.20074 17.6532 8.24433 17.6766 8.27667 17.7123C8.30902 17.7479 8.32817 17.7936 8.33093 17.8416C8.33369 17.8897 8.3199 17.9372 8.29185 17.9764L7.77415 18.7011L9.64417 17.622C9.68725 17.5972 9.73771 17.5884 9.78662 17.5972C9.83554 17.6061 9.87974 17.632 9.9114 17.6703C9.94306 17.7086 9.96014 17.7569 9.95961 17.8066C9.95907 17.8563 9.94097 17.9042 9.90849 17.9418L9.23338 18.7222L16.1234 14.7448C16.1702 14.7177 16.2257 14.7098 16.2783 14.7226C16.3308 14.7354 16.3765 14.768 16.4057 14.8135C16.4349 14.8591 16.4454 14.9141 16.4351 14.9672C16.4247 15.0203 16.3944 15.0674 16.3502 15.0987L13.6216 17.0344L15.2849 16.0743C15.3314 16.0455 15.3874 16.0359 15.4408 16.0476C15.4943 16.0593 15.541 16.0915 15.5711 16.1372C15.6013 16.1829 15.6124 16.2385 15.6021 16.2923C15.5918 16.346 15.5609 16.3936 15.516 16.4249L14.106 17.478C14.141 17.4942 14.1708 17.5197 14.1923 17.5517C14.2137 17.5837 14.2259 17.621 14.2275 17.6595C14.2291 17.698 14.2201 17.7362 14.2014 17.7699C14.1827 17.8036 14.1551 17.8315 14.1216 17.8505L11.8433 19.1658C11.7969 19.192 11.7423 19.1996 11.6904 19.1871C11.6386 19.1746 11.5935 19.1429 11.5641 19.0983C11.5348 19.0538 11.5234 18.9998 11.5324 18.9473C11.5413 18.8947 11.5699 18.8475 11.6123 18.8152L12.4056 18.2226L9.9308 19.6515C9.88386 19.6816 9.82689 19.6918 9.77243 19.6799C9.71796 19.6679 9.67046 19.6349 9.64038 19.5879C9.6103 19.541 9.60009 19.484 9.61201 19.4296C9.62393 19.3751 9.657 19.3276 9.70394 19.2975L12.4334 17.3614L8.36256 19.7113C8.33065 19.7299 8.2943 19.7397 8.25733 19.7395L8.25818 19.739ZM9.48381 24.8032C9.44242 24.8032 9.40195 24.791 9.36746 24.7681C9.33297 24.7452 9.306 24.7127 9.28992 24.6745C9.27384 24.6364 9.26936 24.5943 9.27705 24.5537C9.28473 24.513 9.30424 24.4755 9.33313 24.4459L9.88534 23.8798L8.33436 24.775C8.2927 24.7994 8.24391 24.8087 8.1962 24.8013C8.1485 24.7939 8.10479 24.7704 8.07243 24.7345C8.04007 24.6987 8.02103 24.6528 8.01853 24.6046C8.01602 24.5564 8.0302 24.5088 8.05867 24.4699L8.68033 23.607L6.65711 24.7746C6.61464 24.7992 6.56491 24.8081 6.51653 24.7999C6.46815 24.7918 6.42415 24.7669 6.39214 24.7297C6.36014 24.6925 6.34214 24.6453 6.34126 24.5962C6.34037 24.5472 6.35667 24.4993 6.38732 24.461L7.01613 23.6752L5.19199 24.7279C5.14668 24.7552 5.09272 24.7645 5.0409 24.7537C4.98907 24.743 4.9432 24.7131 4.91246 24.6701C4.88172 24.627 4.86837 24.5739 4.87509 24.5214C4.88182 24.4689 4.90811 24.4209 4.94871 24.3869L5.15242 24.2097L4.78667 24.4206C4.7474 24.4436 4.70171 24.4532 4.65652 24.4479C4.61132 24.4425 4.5691 24.4226 4.53624 24.3911C4.50343 24.3598 4.48158 24.3187 4.47392 24.274C4.46627 24.2293 4.47321 24.1833 4.49373 24.1428L4.83591 23.4736L4.75552 23.5195C4.7316 23.5334 4.70518 23.5424 4.67777 23.546C4.65036 23.5496 4.6225 23.5478 4.59579 23.5407C4.56908 23.5335 4.54405 23.5212 4.52213 23.5043C4.50021 23.4874 4.48183 23.4664 4.46806 23.4425C4.45413 23.4186 4.44507 23.3921 4.4414 23.3647C4.43773 23.3373 4.43953 23.3094 4.44669 23.2827C4.45385 23.256 4.46623 23.2309 4.48312 23.209C4.50001 23.1871 4.52106 23.1687 4.54508 23.155L5.24207 22.7526C5.28146 22.73 5.32706 22.7207 5.37215 22.726C5.41725 22.7313 5.45944 22.751 5.4925 22.7821C5.55985 22.8461 5.5771 22.9475 5.53501 23.0304L5.19283 23.7L6.83557 22.7518C6.88086 22.7258 6.93418 22.7176 6.98518 22.7288C7.03618 22.7399 7.08121 22.7696 7.11153 22.8121C7.14186 22.8546 7.1553 22.9069 7.14926 22.9587C7.14322 23.0106 7.11812 23.0583 7.07884 23.0927L6.87513 23.2699L7.77289 22.7522C7.81537 22.7282 7.86486 22.7197 7.91293 22.728C7.961 22.7364 8.00467 22.7613 8.03649 22.7982C8.06832 22.8352 8.08633 22.8821 8.08746 22.9309C8.08859 22.9797 8.07276 23.0273 8.04268 23.0658L7.41387 23.852L9.31924 22.7522C9.3609 22.7278 9.40969 22.7185 9.45739 22.7259C9.5051 22.7333 9.54881 22.7568 9.58117 22.7927C9.61353 22.8285 9.63256 22.8744 9.63507 22.9226C9.63757 22.9708 9.6234 23.0184 9.59492 23.0573L8.97327 23.9197L10.9961 22.7526C11.0401 22.7272 11.0918 22.7186 11.1417 22.7284C11.1915 22.7381 11.2362 22.7656 11.2674 22.8057C11.2986 22.8458 11.3142 22.8959 11.3114 22.9466C11.3085 22.9974 11.2874 23.0454 11.252 23.0818L10.6998 23.6479L12.1998 22.7821C12.2433 22.7571 12.2943 22.7484 12.3436 22.7577C12.3929 22.767 12.4373 22.7936 12.4687 22.8327C12.5002 22.8718 12.5166 22.9208 12.5151 22.971C12.5135 23.0211 12.4941 23.0691 12.4603 23.1062L11.8926 23.7245L12.7407 23.2354C12.7836 23.2099 12.8343 23.2005 12.8836 23.209C12.9328 23.2175 12.9775 23.2433 13.0094 23.2817C13.0414 23.3202 13.0586 23.3687 13.0579 23.4187C13.0572 23.4687 13.0388 23.5168 13.0058 23.5544L12.7983 23.7964C12.8472 23.773 12.9032 23.7694 12.9547 23.7863C13.0062 23.8032 13.0492 23.8393 13.0747 23.887C13.1003 23.9348 13.1064 23.9906 13.0919 24.0428C13.0773 24.095 13.0432 24.1396 12.9966 24.1672L11.9439 24.7746C11.9009 24.8001 11.8503 24.8095 11.801 24.801C11.7517 24.7925 11.7071 24.7667 11.6752 24.7282C11.6432 24.6898 11.626 24.6412 11.6267 24.5912C11.6273 24.5412 11.6458 24.4931 11.6788 24.4555L11.885 24.2152L10.9153 24.7746C10.8718 24.7999 10.8206 24.8087 10.7712 24.7994C10.7217 24.7902 10.6772 24.7634 10.6459 24.7241C10.6143 24.685 10.5979 24.6359 10.5995 24.5856C10.6011 24.5354 10.6207 24.4875 10.6547 24.4505L11.2225 23.8318L9.58861 24.7746C9.55671 24.7933 9.52036 24.803 9.48339 24.8028L9.48381 24.8032Z" fill="#ACC1C6"/>
<path d="M8.70209 16.4179C11.9598 16.4537 14.4153 13.4586 14.087 10.2901C13.9329 7.8376 14.518 5.25207 13.5604 2.9216C11.8752 -0.537702 7.00127 -0.996893 4.57821 1.92914C2.79573 4.08031 3.5062 6.99877 3.36646 9.56788C2.86771 12.9426 5.03193 16.5033 8.70209 16.4179ZM3.98601 10.1748C4.09124 8.04005 3.73053 5.83332 4.20908 3.73939C5.24658 0.0439694 10.5052 -0.722473 12.5882 2.4864C14.1211 5.35687 13.4657 9.37217 13.2759 12.5368C11.4471 18.3308 3.14465 16.0239 3.98601 10.1748Z" fill="#262626"/>
<path d="M17.1784 13.2642C17.3135 12.0293 18.1136 9.44501 16.6713 8.84019C15.8008 8.59734 15.1594 9.27666 15.151 10.0919C15.4667 13.1977 13.7646 16.431 10.6605 17.3464C6.03955 18.8603 1.63661 14.5298 2.30288 9.89789C-0.651348 4.6759 -2.36564 18.1861 7.47774 19.703L7.1688 22.7999C6.14562 22.7313 3.51463 22.6875 4.39682 24.3698C4.71753 24.7856 5.23649 24.7263 5.69905 24.7263H11.895C12.9405 24.8416 13.8403 23.4619 12.7086 22.8845C11.9409 22.6681 11.0818 22.8571 10.2897 22.7995L9.97867 19.6811C13.358 19.1554 16.2895 16.6835 17.1776 13.2633L17.1784 13.2642ZM10.1904 23.0432C10.9699 23.1639 12.2603 22.6521 12.6008 23.621C12.6698 23.8774 12.5886 24.4493 12.2359 24.4834C10.0119 24.483 7.78709 24.4843 5.56352 24.4834C5.07234 24.4493 4.72132 23.9636 4.84843 23.4847C5.18893 22.6025 6.43182 23.2123 7.17049 23.0432C7.24498 23.1968 7.54466 23.1757 7.69113 23.0432H9.7013C9.76233 23.1905 10.0355 23.1661 10.1904 23.0432ZM7.78372 22.7999L8.08676 19.7636C8.51113 19.7932 8.93709 19.7916 9.36122 19.7589L9.66468 22.8003H7.78414L7.78372 22.7999ZM9.55609 19.2779C4.28317 19.937 -0.725425 14.3307 0.90258 9.32043C1.86179 8.83009 1.67912 10.6984 1.68249 11.1122C1.81128 20.3511 15.622 20.2459 15.771 11.0734C15.7743 10.6702 15.6056 8.69246 16.5669 9.37767C17.9689 13.7751 14.1981 18.9399 9.55609 19.2779Z" fill="#262626"/>
</svg>
