<svg width="15" height="14" viewBox="0 0 15 14" fill="none" xmlns="http://www.w3.org/2000/svg">
<path d="M11.3911 13.7694C11.3463 13.7693 11.3025 13.7558 11.2654 13.7306C11.2283 13.7054 11.1996 13.6696 11.1829 13.6279C11.1662 13.5862 11.1624 13.5405 11.1718 13.4966C11.1813 13.4527 11.2036 13.4126 11.236 13.3816L12.1369 12.5195L10.9622 13.1992C10.9137 13.2272 10.8565 13.2361 10.8017 13.2241C10.747 13.2121 10.6987 13.18 10.6663 13.1342C10.634 13.0883 10.6199 13.032 10.6268 12.9763C10.6337 12.9206 10.6612 12.8695 10.7038 12.833L11.2383 12.3736L10.5401 12.7771C10.4921 12.8048 10.4355 12.8138 10.3812 12.8022C10.327 12.7906 10.2789 12.7594 10.2463 12.7144C10.2136 12.6695 10.1988 12.6141 10.2045 12.5588C10.2102 12.5035 10.2361 12.4523 10.2772 12.415L11.0247 11.7376L10.0582 12.2965C10.0102 12.3246 9.9534 12.3338 9.89896 12.3222C9.84452 12.3106 9.79634 12.2792 9.76381 12.2339C9.73135 12.1888 9.71665 12.1332 9.72254 12.0778C9.72843 12.0225 9.75449 11.9713 9.79573 11.934L10.5159 11.2867L9.58625 11.8245C9.53906 11.8514 9.48374 11.8603 9.43051 11.8496C9.37729 11.8388 9.32975 11.8091 9.2967 11.7659C9.26365 11.7227 9.24731 11.669 9.25071 11.6147C9.25411 11.5604 9.27701 11.5092 9.31518 11.4705L10.3208 10.4602L8.99018 11.23C8.942 11.2579 8.88522 11.2668 8.83082 11.2552C8.77642 11.2435 8.72826 11.2121 8.69566 11.1669C8.66306 11.1218 8.64833 11.0661 8.65432 11.0107C8.66031 10.9553 8.6866 10.9041 8.7281 10.867L9.42621 10.244L8.52492 10.7652C8.47681 10.7918 8.42064 10.7999 8.36697 10.788C8.31331 10.776 8.26587 10.7448 8.23358 10.7002C8.2013 10.6556 8.18641 10.6008 8.19172 10.5459C8.19702 10.4911 8.22216 10.4401 8.26239 10.4026L8.98928 9.7486L8.05022 10.2918C8.00131 10.321 7.94316 10.3304 7.88756 10.3182C7.83196 10.306 7.78305 10.2731 7.75076 10.2262C7.71847 10.1792 7.7052 10.1217 7.71364 10.0653C7.72208 10.0089 7.75161 9.95785 7.79623 9.92245L8.06055 9.70671L7.6825 9.92515C7.63412 9.95323 7.57701 9.96219 7.52238 9.95027C7.46775 9.93836 7.41953 9.90643 7.38716 9.86075C7.3549 9.81496 7.34071 9.75881 7.34735 9.70316C7.354 9.64751 7.38099 9.5963 7.42313 9.55942L7.99852 9.06218L7.25096 9.49457C7.2254 9.50935 7.19718 9.51895 7.16792 9.52281C7.13865 9.52667 7.10892 9.52472 7.08041 9.51707C7.0519 9.50941 7.02517 9.49621 7.00175 9.4782C6.97834 9.4602 6.95869 9.43775 6.94393 9.41214C6.92917 9.38653 6.91959 9.35826 6.91574 9.32894C6.91189 9.29962 6.91384 9.26982 6.92148 9.24126C6.92911 9.21269 6.94229 9.18591 6.96026 9.16245C6.97823 9.13899 7.00063 9.1193 7.02619 9.10452L9.83349 7.4808C9.88187 7.45273 9.93897 7.44377 9.99361 7.45568C10.0482 7.4676 10.0965 7.49952 10.1288 7.54521C10.1958 7.64024 10.1801 7.77041 10.0929 7.84653L9.51747 8.34378L10.2641 7.91184C10.313 7.88434 10.3704 7.87613 10.425 7.88882C10.4796 7.90151 10.5275 7.93418 10.5593 7.98042C10.5911 8.02667 10.6045 8.08315 10.5969 8.13879C10.5893 8.19443 10.5612 8.24521 10.5181 8.28117L10.2533 8.49737L10.6305 8.27937C10.6786 8.25158 10.7353 8.24262 10.7896 8.25423C10.844 8.26584 10.8921 8.29719 10.9247 8.34224C10.9573 8.38728 10.9721 8.44283 10.9663 8.49818C10.9604 8.55352 10.9343 8.60474 10.893 8.64195L10.1666 9.29504L11.1038 8.7532C11.152 8.7239 11.2095 8.71385 11.2647 8.72504C11.3199 8.73624 11.3689 8.76786 11.402 8.81361C11.435 8.85937 11.4496 8.91591 11.443 8.97198C11.4363 9.02805 11.4088 9.07955 11.3659 9.11623L10.6674 9.73959L11.5678 9.21892C11.6149 9.192 11.6703 9.1831 11.7235 9.19388C11.7767 9.20465 11.8242 9.23438 11.8573 9.27754C11.8904 9.32071 11.9067 9.37441 11.9033 9.42871C11.8999 9.48301 11.877 9.53424 11.8388 9.57294L10.8332 10.5827L12.162 9.81435C12.2102 9.78656 12.2668 9.7776 12.3212 9.78921C12.3755 9.80082 12.4236 9.83217 12.4562 9.87722C12.4888 9.92227 12.5036 9.97782 12.4978 10.0332C12.492 10.0885 12.4659 10.1397 12.4246 10.1769L11.7044 10.8237L12.6331 10.2868C12.6812 10.2578 12.7384 10.2478 12.7935 10.259C12.8485 10.2701 12.8974 10.3015 12.9304 10.347C12.9634 10.3925 12.9783 10.4488 12.9719 10.5047C12.9655 10.5606 12.9385 10.6121 12.8961 10.649L12.1481 11.3268L13.1132 10.7688C13.1618 10.7407 13.219 10.7318 13.2738 10.7438C13.3285 10.7558 13.3768 10.7879 13.4091 10.8337C13.4415 10.8796 13.4556 10.9359 13.4487 10.9916C13.4418 11.0473 13.4143 11.0985 13.3717 11.1349L12.8372 11.5939L13.5344 11.1908C13.582 11.1636 13.6378 11.1548 13.6915 11.1659C13.7451 11.1771 13.7928 11.2075 13.8256 11.2514C13.8585 11.2953 13.8742 11.3497 13.8698 11.4044C13.8654 11.4591 13.8413 11.5103 13.8019 11.5484L12.8862 12.4245C12.9394 12.4053 12.9978 12.407 13.0498 12.4292C13.1018 12.4514 13.1435 12.4924 13.1666 12.5441C13.1898 12.5957 13.1926 12.6542 13.1745 12.7079C13.1564 12.7615 13.1188 12.8064 13.0692 12.8334L11.5035 13.7392C11.4694 13.7592 11.4306 13.7696 11.3911 13.7694ZM8.591 3.4875C8.54347 3.48758 8.49714 3.47255 8.45867 3.44459C8.4202 3.41663 8.39156 3.37717 8.37688 3.33188C8.36219 3.28659 8.36221 3.2378 8.37694 3.19252C8.39167 3.14725 8.42034 3.10781 8.45884 3.07989L9.73324 2.1516C9.7076 2.13092 9.68679 2.10485 9.67228 2.07524C9.65778 2.04563 9.64993 2.0132 9.64928 1.98022C9.64864 1.94724 9.65522 1.91452 9.66856 1.88437C9.6819 1.85421 9.70168 1.82736 9.7265 1.80569L11.0041 0.694536C10.9889 0.645805 10.9908 0.593364 11.0095 0.545869C11.0281 0.498375 11.0623 0.458667 11.1065 0.4333L11.7148 0.0819836C11.7632 0.054931 11.8198 0.0467178 11.8739 0.0589156C11.928 0.0711133 11.9757 0.102865 12.0079 0.148094C12.04 0.193323 12.0544 0.248851 12.0483 0.304049C12.0421 0.359248 12.0159 0.410239 11.9746 0.447263L11.7894 0.608058L12.1058 0.425193C12.1557 0.392702 12.2165 0.3814 12.2747 0.393774C12.3329 0.406149 12.3838 0.441186 12.4162 0.491178C12.4487 0.54117 12.4599 0.602021 12.4476 0.660346C12.4352 0.718671 12.4003 0.769691 12.3504 0.802183L12.1836 0.924243L12.4497 0.770204C12.4753 0.755297 12.5035 0.745603 12.5328 0.74168C12.5621 0.737756 12.5918 0.739681 12.6204 0.747344C12.6489 0.755006 12.6757 0.768254 12.6991 0.786324C12.7225 0.804394 12.7421 0.826929 12.7568 0.852628C12.7716 0.878209 12.7813 0.906488 12.7852 0.935834C12.7891 0.965179 12.7872 0.995011 12.7796 1.02361C12.7719 1.05221 12.7587 1.07901 12.7407 1.10246C12.7226 1.12591 12.7001 1.14555 12.6745 1.16026L8.70383 3.45733C8.66973 3.47727 8.63048 3.4877 8.591 3.4875Z" fill="#DD4752"/>
<path d="M2.09978 13.7927C2.05291 13.7928 2.00719 13.7781 1.96904 13.7508C1.93088 13.7236 1.90219 13.685 1.88698 13.6406C1.87177 13.5962 1.8708 13.5481 1.88422 13.5031C1.89763 13.4581 1.92475 13.4184 1.96178 13.3896L2.16272 13.2329L1.85839 13.4085C1.80829 13.437 1.74919 13.4451 1.69328 13.4312C1.63738 13.4173 1.58895 13.3824 1.55797 13.3337C1.527 13.2851 1.51585 13.2264 1.52684 13.1697C1.53782 13.113 1.57009 13.0628 1.61699 13.0293L5.54091 10.2674L1.21916 12.7671C1.16843 12.7967 1.10818 12.8052 1.05127 12.7908C0.994362 12.7765 0.945319 12.7404 0.914618 12.6903C0.883918 12.6402 0.873996 12.58 0.886971 12.5227C0.899947 12.4653 0.934791 12.4153 0.984058 12.3834L2.11057 11.6501L0.838412 12.3861C0.787806 12.4133 0.728747 12.4201 0.673311 12.4051C0.617875 12.3901 0.570247 12.3544 0.540166 12.3054C0.510085 12.2564 0.499822 12.1978 0.511475 12.1414C0.523129 12.0851 0.555818 12.0353 0.602861 12.0023L3.58097 10.0512L0.447325 11.8636C0.422147 11.8791 0.394181 11.8894 0.365024 11.894C0.335867 11.8986 0.30609 11.8974 0.277392 11.8905C0.248694 11.8836 0.221638 11.871 0.197768 11.8536C0.173898 11.8362 0.153683 11.8143 0.138275 11.7891C0.122868 11.7639 0.11257 11.7358 0.10797 11.7066C0.103371 11.6774 0.104559 11.6476 0.111467 11.6188C0.118376 11.5901 0.130869 11.563 0.148234 11.539C0.165598 11.5151 0.187494 11.4949 0.212672 11.4794L4.64994 8.61034L2.05078 10.1138C2.00005 10.1434 1.9398 10.1519 1.88289 10.1375C1.82599 10.1231 1.77694 10.087 1.74624 10.0369C1.71554 9.98682 1.70562 9.92667 1.71859 9.86932C1.73157 9.81198 1.76641 9.762 1.81568 9.73005L6.42333 6.73305L4.04174 8.11084C3.99145 8.13964 3.93201 8.14788 3.87581 8.13384C3.81961 8.1198 3.77099 8.08456 3.74009 8.03547C3.70919 7.98639 3.69839 7.92725 3.70995 7.87038C3.72151 7.81351 3.75454 7.76331 3.80214 7.73025L8.25694 4.66929L4.57622 6.79836C4.5287 6.82549 4.47293 6.83433 4.41937 6.82322C4.36581 6.81211 4.31813 6.7818 4.28527 6.73799C4.25241 6.69418 4.23662 6.63987 4.24086 6.58523C4.2451 6.53059 4.26908 6.47938 4.3083 6.44119L5.23298 5.55073L4.02735 6.24796C3.98031 6.27556 3.92483 6.28498 3.87135 6.27445C3.81786 6.26391 3.77006 6.23415 3.73696 6.19076C3.70358 6.14777 3.68695 6.09409 3.69018 6.03972C3.6934 5.98535 3.71626 5.93402 3.75449 5.89529L4.78525 4.84765L3.41824 5.63811C3.37155 5.66439 3.31705 5.67314 3.2645 5.66279C3.21196 5.65245 3.16481 5.62368 3.13152 5.58165C3.09823 5.53962 3.08098 5.48708 3.08286 5.43345C3.08474 5.37983 3.10563 5.32863 3.14178 5.28905L4.23638 4.1261L2.76059 4.98007C2.71168 5.00924 2.65353 5.01869 2.59793 5.00651C2.54233 4.99433 2.49342 4.96143 2.46113 4.91447C2.42884 4.86751 2.41557 4.81 2.42401 4.75361C2.43245 4.69721 2.46198 4.64614 2.5066 4.61074L2.77227 4.39409L2.39377 4.61254C2.34654 4.64047 2.29072 4.65009 2.23689 4.63959C2.18305 4.62909 2.13492 4.59918 2.1016 4.55553C2.06827 4.51188 2.05206 4.45751 2.05604 4.4027C2.06001 4.34789 2.08389 4.29644 2.12316 4.25807L3.11481 3.26943L1.80804 4.02566C1.75892 4.05911 1.69855 4.07163 1.64021 4.06048C1.58188 4.04933 1.53035 4.01542 1.49697 3.96621C1.46359 3.91699 1.45108 3.8565 1.46221 3.79805C1.47334 3.7396 1.50719 3.68797 1.55631 3.65453L1.63003 3.59552L1.4709 3.6874C1.42187 3.71482 1.36438 3.72286 1.30974 3.70994C1.2551 3.69702 1.20726 3.66408 1.17564 3.6176C1.14402 3.57112 1.13091 3.51446 1.13888 3.45878C1.14685 3.4031 1.17533 3.35242 1.21871 3.31672L1.33154 3.22664L1.12791 3.3442C1.08118 3.37129 1.02627 3.38062 0.973237 3.37049C0.920202 3.36035 0.87258 3.33143 0.839079 3.28901C0.805578 3.24659 0.788437 3.1935 0.790791 3.13945C0.793145 3.08541 0.814837 3.03402 0.851898 2.99468L1.93436 1.8511L0.488231 2.68705C0.441316 2.71335 0.38656 2.72197 0.333858 2.71135C0.281155 2.70073 0.233982 2.67157 0.200865 2.62914C0.167748 2.58671 0.150871 2.53381 0.153284 2.48C0.155696 2.42619 0.17724 2.37502 0.21402 2.33574L1.72443 0.768775C1.70449 0.74341 1.69025 0.714029 1.68269 0.682643C1.67512 0.651257 1.67441 0.618604 1.6806 0.586916C1.68679 0.555229 1.69973 0.525253 1.71854 0.499038C1.73736 0.472824 1.7616 0.450989 1.78961 0.435024L2.39827 0.0828068C2.44514 0.055459 2.50033 0.0460923 2.55358 0.0564476C2.60682 0.066803 2.65451 0.096176 2.68776 0.139108C2.72131 0.181796 2.73825 0.235233 2.73544 0.289492C2.73263 0.343752 2.71026 0.395145 2.67248 0.434124L1.64981 1.49438L3.05008 0.684549C3.09681 0.65723 3.15183 0.647789 3.20497 0.657974C3.2581 0.668158 3.30576 0.697279 3.33913 0.739949C3.37263 0.782343 3.38976 0.83542 3.38736 0.889443C3.38497 0.943465 3.36321 0.994812 3.32609 1.03406L2.24363 2.1781L3.70189 1.33448C3.7509 1.30576 3.80898 1.2968 3.86434 1.30943C3.9197 1.32206 3.96818 1.35534 3.99993 1.4025C4.03197 1.44938 4.04506 1.50671 4.03655 1.56289C4.02804 1.61907 3.99856 1.66992 3.95408 1.70517L3.84215 1.7948L4.04533 1.67724C4.09441 1.64969 4.15202 1.64159 4.20678 1.65453C4.26153 1.66747 4.30946 1.70051 4.34108 1.74713C4.3727 1.79375 4.38572 1.85056 4.37757 1.90634C4.36943 1.96211 4.3407 2.01279 4.29707 2.04838L4.22379 2.10693L4.38338 2.0146C4.43061 1.98765 4.48599 1.97877 4.53926 1.9896C4.59253 2.00042 4.64008 2.03022 4.6731 2.07348C4.70613 2.11674 4.72239 2.17052 4.71887 2.22487C4.71536 2.27921 4.69231 2.33044 4.65399 2.36907L3.66189 3.35771L4.97091 2.60058C5.01981 2.56823 5.07943 2.55638 5.13696 2.56759C5.19448 2.57879 5.24533 2.61215 5.27858 2.6605C5.31183 2.70885 5.32483 2.76834 5.31479 2.82619C5.30475 2.88404 5.27248 2.93564 5.22489 2.96991L4.95922 3.187L5.33862 2.96766C5.38531 2.94138 5.43981 2.93263 5.49236 2.94297C5.54491 2.95332 5.59205 2.98209 5.62534 3.02412C5.65863 3.06615 5.67588 3.11869 5.674 3.17232C5.67212 3.22594 5.65123 3.27714 5.61508 3.31672L4.52048 4.47922L5.99762 3.62525C6.04468 3.59806 6.09997 3.58886 6.15327 3.59936C6.20657 3.60985 6.25427 3.63934 6.28756 3.68235C6.32084 3.72537 6.33744 3.779 6.33431 3.83334C6.33117 3.88768 6.3085 3.93904 6.27049 3.97792L5.23972 5.02601L6.60853 4.2342C6.65605 4.20706 6.71182 4.19823 6.76538 4.20934C6.81894 4.22045 6.86662 4.25075 6.89948 4.29456C6.93234 4.33837 6.94813 4.39268 6.94389 4.44732C6.93965 4.50196 6.91567 4.55318 6.87645 4.59137L5.95177 5.48182L13.0516 1.37502C13.1019 1.34622 13.1613 1.33798 13.2175 1.35202C13.2737 1.36607 13.3223 1.4013 13.3532 1.45039C13.3841 1.49947 13.3949 1.55862 13.3834 1.61548C13.3718 1.67235 13.3388 1.72255 13.2912 1.75561L8.83728 4.81612L13.658 2.02766C13.7087 1.9981 13.769 1.98959 13.8259 2.00396C13.8828 2.01832 13.9318 2.05441 13.9625 2.10452C13.9932 2.15463 14.0032 2.21479 13.9902 2.27213C13.9772 2.32948 13.9424 2.37946 13.8931 2.41141L9.28006 5.41201L12.2865 3.67299C12.3117 3.65755 12.3396 3.64724 12.3688 3.64263C12.398 3.63802 12.4277 3.63921 12.4564 3.64613C12.4851 3.65305 12.5122 3.66557 12.5361 3.68297C12.5599 3.70037 12.5801 3.72231 12.5955 3.74753C12.611 3.77276 12.6212 3.80078 12.6258 3.83C12.6304 3.85921 12.6293 3.88905 12.6224 3.9178C12.6154 3.94655 12.603 3.97366 12.5856 3.99758C12.5682 4.0215 12.5463 4.04175 12.5211 4.05719L8.09107 6.92177L10.3661 5.60568C10.3913 5.59019 10.4192 5.5798 10.4484 5.57513C10.4775 5.57045 10.5073 5.57158 10.536 5.57844C10.5647 5.5853 10.5918 5.59776 10.6157 5.61511C10.6397 5.63245 10.6599 5.65435 10.6754 5.67955C10.6909 5.70475 10.7012 5.73275 10.7059 5.76196C10.7106 5.79117 10.7094 5.82101 10.7026 5.84979C10.6957 5.87856 10.6833 5.9057 10.666 5.92966C10.6487 5.95362 10.6268 5.97393 10.6017 5.98943L7.62266 7.94104L9.31423 6.96276C9.36502 6.93152 9.42611 6.92178 9.48407 6.93567C9.54203 6.94957 9.5921 6.98596 9.62328 7.03685C9.65445 7.08774 9.66418 7.14895 9.65031 7.20702C9.63644 7.26509 9.60012 7.31526 9.54933 7.3465L8.42057 8.08111L9.69453 7.34425C9.74472 7.31218 9.80557 7.30139 9.8637 7.31427C9.92183 7.32716 9.97246 7.36265 10.0045 7.41294C10.0365 7.46323 10.0472 7.5242 10.0344 7.58244C10.0215 7.64068 9.98612 7.69142 9.93592 7.72349L4.98439 11.2092C5.01635 11.2276 5.0433 11.2536 5.06287 11.2849C5.08244 11.3162 5.09402 11.3518 5.09659 11.3887C5.09917 11.4255 5.09266 11.4625 5.07764 11.4962C5.06262 11.5299 5.03955 11.5594 5.01046 11.5821L3.72797 12.582C3.74888 12.6072 3.76403 12.6367 3.77236 12.6684C3.78068 12.7001 3.78198 12.7332 3.77615 12.7654C3.77032 12.7977 3.75751 12.8283 3.73863 12.855C3.71974 12.8818 3.69523 12.904 3.66683 12.9203L2.21126 13.7621C2.17717 13.782 2.13836 13.7925 2.09888 13.7923L2.09978 13.7927Z" fill="#DD4752"/>
<path d="M13.4058 3.24294C14.5368 2.43942 14.1286 1.88226 13.2094 1.15351C12.8839 0.827413 12.4339 0.155408 11.961 0.0324473C10.6062 0.152255 8.3846 3.39563 7.10166 4.3667C5.61732 2.96279 4.26425 1.36745 2.72147 0.0495627C2.16226 -0.173388 1.73791 0.408536 1.39852 0.748142C0.849197 1.36835 -0.68099 2.21421 0.427991 3.01999L4.43686 7.03671C3.00827 8.57484 1.32569 9.95038 0.0166744 11.5655C-0.12133 12.0529 0.634323 12.5596 0.920222 12.8465C1.24568 13.1726 1.69565 13.8446 2.16901 13.9676C3.52208 13.8495 5.74678 10.6026 7.02838 9.6333C8.51272 11.0372 9.86579 12.6326 11.4086 13.9504C11.9678 14.1734 12.3921 13.5915 12.7315 13.2519C13.2808 12.6316 14.811 11.7858 13.702 10.98L9.69317 6.96329L13.4058 3.24294ZM9.01619 6.90519C8.94606 6.97455 8.92134 7.06553 8.99012 7.1439C10.4214 8.61988 11.9471 10.0427 13.3568 11.5187C13.6072 12.0997 12.0896 12.9798 11.7457 13.4951C5.72296 7.66863 8.44394 7.79834 2.44591 13.4906C1.96088 12.8352 1.08924 12.3623 0.705348 11.6421C0.692761 11.3714 1.14004 11.0764 1.3239 10.8917L5.1125 7.09571C5.03114 6.32777 3.66323 5.5837 3.16471 4.87881C2.40186 4.05412 1.50326 3.31861 0.771878 2.4822C0.516547 1.90929 2.03954 1.01884 2.38298 0.505823C8.40573 6.33227 5.68475 6.20256 11.6828 0.510327C12.1678 1.16567 13.0394 1.63859 13.4233 2.35879C12.1961 3.98431 10.416 5.363 9.01619 6.90519Z" fill="#262626"/>
</svg>
