<svg width="11" height="11" viewBox="0 0 11 11" fill="none" xmlns="http://www.w3.org/2000/svg">
<path d="M5.39075 10.997C5.37085 10.9971 5.35148 10.9906 5.33551 10.9786C5.31954 10.9667 5.30782 10.9498 5.30209 10.9306C5.29635 10.9114 5.29691 10.8909 5.30368 10.872C5.31044 10.8532 5.32306 10.837 5.33965 10.826L7.85328 9.1556L4.79997 10.9319C4.77903 10.9448 4.75385 10.9489 4.72998 10.9431C4.70611 10.9373 4.6855 10.9222 4.67269 10.9011C4.65987 10.88 4.6559 10.8546 4.66165 10.8305C4.66739 10.8065 4.68239 10.7857 4.70333 10.7728L7.54577 8.92071L4.26992 10.8267C4.24881 10.8394 4.22356 10.8431 4.19975 10.837C4.17593 10.8309 4.15548 10.8155 4.14291 10.7942C4.13034 10.773 4.12668 10.7475 4.13272 10.7235C4.13876 10.6995 4.15401 10.6789 4.17513 10.6663L4.69574 10.3448L3.99832 10.7504C3.9773 10.7626 3.95237 10.766 3.92888 10.7599C3.90539 10.7538 3.88523 10.7386 3.87274 10.7176C3.86024 10.6967 3.85641 10.6716 3.86206 10.6478C3.86772 10.6241 3.88241 10.6035 3.90297 10.5905L6.15871 9.17258L3.6523 10.6308C3.64184 10.6371 3.63027 10.6412 3.61823 10.6429C3.60619 10.6447 3.59393 10.644 3.58215 10.641C3.57036 10.638 3.55929 10.6327 3.54955 10.6253C3.53981 10.618 3.5316 10.6088 3.52538 10.5983C3.51917 10.5877 3.51508 10.5761 3.51334 10.5639C3.5116 10.5518 3.51225 10.5394 3.51525 10.5276C3.51825 10.5157 3.52354 10.5045 3.53083 10.4947C3.53811 10.4849 3.54724 10.4766 3.55769 10.4704L4.57984 9.84031L3.40032 10.5265C3.37918 10.5391 3.35395 10.5427 3.33016 10.5366C3.30638 10.5304 3.286 10.515 3.2735 10.4937C3.26101 10.4724 3.25742 10.4469 3.26353 10.423C3.26964 10.399 3.28495 10.3785 3.30609 10.3659L3.46679 10.2677L3.19204 10.4274C3.17098 10.4402 3.14576 10.4439 3.12194 10.4379C3.09812 10.4319 3.07765 10.4166 3.06504 10.3954C3.05242 10.3741 3.04868 10.3487 3.05465 10.3247C3.06063 10.3007 3.07581 10.2801 3.09688 10.2674L5.92191 8.49999L2.89008 10.2638C2.86899 10.2765 2.84377 10.2802 2.81997 10.2741C2.79617 10.2681 2.77574 10.2527 2.76317 10.2315C2.7506 10.2102 2.74692 10.1848 2.75294 10.1608C2.75897 10.1368 2.7742 10.1162 2.79529 10.1036L5.05176 8.70652L2.04788 10.4541C2.02679 10.4668 2.00157 10.4705 1.97777 10.4644C1.95397 10.4584 1.93354 10.443 1.92097 10.4218C1.9084 10.4005 1.90472 10.3751 1.91075 10.3511C1.91677 10.3271 1.932 10.3065 1.95309 10.2939L4.98382 8.41827L1.23068 10.6019C1.20961 10.6146 1.1844 10.6184 1.16058 10.6124C1.13676 10.6063 1.11629 10.591 1.10367 10.5698C1.09106 10.5486 1.08732 10.5232 1.09329 10.4992C1.09926 10.4752 1.11445 10.4545 1.13552 10.4418L5.75621 7.55389L0.648788 10.5275C0.627759 10.5394 0.602934 10.5426 0.579605 10.5363C0.556275 10.5301 0.536287 10.5149 0.523901 10.494C0.511514 10.4732 0.50771 10.4482 0.513297 10.4246C0.518884 10.4009 0.533422 10.3804 0.553812 10.3674L5.44537 7.31956L1.03554 9.88528C1.01451 9.89721 0.989689 9.9004 0.966359 9.89416C0.94303 9.88793 0.923042 9.87275 0.910656 9.85187C0.89827 9.831 0.894464 9.80607 0.900052 9.78241C0.905639 9.75874 0.920177 9.73822 0.940567 9.7252L5.43926 6.91881L1.29918 9.32743C1.27815 9.33937 1.25333 9.34256 1.23 9.33632C1.20667 9.33008 1.18668 9.3149 1.17429 9.29403C1.16191 9.27315 1.1581 9.24822 1.16369 9.22456C1.16928 9.2009 1.18382 9.18037 1.2042 9.16735L5.26097 6.63858L1.35046 8.91362C1.32933 8.92621 1.30409 8.92983 1.28031 8.92367C1.25652 8.91751 1.23614 8.90208 1.22364 8.88078C1.21115 8.85948 1.20756 8.83405 1.21367 8.81008C1.21978 8.78611 1.23509 8.76557 1.25623 8.75298L2.40057 8.05633L1.22179 8.74216C1.20079 8.75329 1.17635 8.75588 1.15351 8.74941C1.13067 8.74294 1.11116 8.72788 1.09899 8.70735C1.08682 8.68682 1.08293 8.66238 1.0881 8.63904C1.09328 8.6157 1.10713 8.59525 1.12682 8.5819L4.79368 6.30331L1.04739 8.48301C1.02628 8.49566 1.00105 8.49933 0.977245 8.49322C0.953444 8.48712 0.933025 8.47174 0.920479 8.45046C0.907934 8.42918 0.90429 8.40375 0.910348 8.37977C0.916407 8.35578 0.931672 8.33521 0.952786 8.32256L3.58972 6.70127L0.912796 8.25876C0.891658 8.27137 0.866411 8.27501 0.842611 8.26887C0.81881 8.26273 0.798404 8.24732 0.785883 8.22601C0.773362 8.20471 0.769751 8.17927 0.775845 8.15529C0.781938 8.1313 0.797237 8.11074 0.818375 8.09812L2.75011 6.91676L0.800787 8.05092C0.779769 8.06313 0.754834 8.06654 0.731347 8.06041C0.70786 8.05429 0.687698 8.03911 0.675202 8.01816C0.662705 7.9972 0.658872 7.97214 0.664527 7.94836C0.670182 7.92458 0.684874 7.904 0.705441 7.89103L5.17525 5.08109L0.643975 7.71808C0.62291 7.73082 0.597685 7.73461 0.57385 7.7286C0.550014 7.7226 0.52952 7.70731 0.516877 7.68608C0.504233 7.66485 0.500475 7.63943 0.50643 7.61541C0.512384 7.59139 0.527563 7.57074 0.548628 7.558L4.87199 4.84359L0.512526 7.38001C0.491437 7.3927 0.466208 7.39643 0.44239 7.39038C0.418572 7.38433 0.398115 7.36899 0.385521 7.34773C0.372926 7.32648 0.369225 7.30106 0.375232 7.27706C0.381238 7.25305 0.39646 7.23244 0.41755 7.21975L3.85428 5.08538L0.419031 7.08411C0.398013 7.09632 0.373078 7.09973 0.34959 7.09361C0.326103 7.08748 0.305942 7.0723 0.293445 7.05135C0.280949 7.03039 0.277115 7.00533 0.282771 6.98155C0.288426 6.95778 0.303118 6.93719 0.323684 6.92422L4.54985 4.2641L0.328313 6.72049C0.307248 6.7332 0.282033 6.73697 0.258215 6.73095C0.234397 6.72493 0.213927 6.70962 0.201307 6.6884C0.188688 6.66717 0.184954 6.64176 0.190926 6.61776C0.196898 6.59375 0.212087 6.57313 0.233151 6.56041L3.73765 4.37287L0.267957 6.39194C0.246928 6.40387 0.222103 6.40706 0.198774 6.40082C0.175445 6.39458 0.155457 6.37941 0.14307 6.35853C0.130684 6.33766 0.126879 6.31273 0.132466 6.28907C0.138054 6.2654 0.152592 6.24487 0.172981 6.23186L3.34293 4.25664L0.230559 6.0673C0.209506 6.07846 0.185005 6.08103 0.16212 6.0745C0.139235 6.06797 0.119714 6.05283 0.107592 6.03221C0.0954698 6.01158 0.0916729 5.98705 0.0969857 5.96369C0.102298 5.94033 0.116315 5.91991 0.136139 5.90667L1.35843 5.15796L0.214082 5.82364C0.193162 5.83463 0.168875 5.83717 0.146163 5.83074C0.123451 5.82432 0.104021 5.80942 0.0918251 5.78907C0.0796296 5.76872 0.0755856 5.74446 0.0805161 5.72121C0.0854465 5.69797 0.0989809 5.67748 0.118365 5.66394L4.04849 3.16296L0.212416 5.39528C0.191302 5.40792 0.166069 5.41159 0.142269 5.40549C0.118468 5.39938 0.0980487 5.384 0.0855031 5.36272C0.0729576 5.34144 0.0693133 5.31602 0.075372 5.29203C0.0814307 5.26805 0.096696 5.24747 0.11781 5.23483L1.28233 4.51858L0.227227 5.1324C0.206209 5.14461 0.181274 5.14802 0.157787 5.1419C0.134299 5.13577 0.114138 5.12059 0.101641 5.09964C0.0891446 5.07868 0.0853115 5.05362 0.0909669 5.02984C0.0966222 5.00607 0.111314 4.98548 0.13188 4.97251L2.80047 3.29562L0.269809 4.76803C0.248779 4.77997 0.223954 4.78316 0.200625 4.77692C0.177296 4.77068 0.157308 4.7555 0.144922 4.73462C0.132535 4.71375 0.12873 4.68882 0.134318 4.66516C0.139905 4.6415 0.154443 4.62097 0.174833 4.60795L1.90125 3.53219L0.327572 4.44806C0.306641 4.46039 0.281731 4.46392 0.258237 4.45788C0.234743 4.45184 0.214556 4.43672 0.202048 4.41578C0.189539 4.39489 0.185616 4.3699 0.191114 4.34614C0.196612 4.32237 0.211097 4.30171 0.231485 4.28854L3.14742 2.41351L0.447542 3.98425C0.426524 3.99646 0.401589 3.99987 0.378102 3.99374C0.354615 3.98761 0.334453 3.97244 0.321957 3.95148C0.30946 3.93053 0.305627 3.90546 0.311282 3.88169C0.316937 3.85791 0.331629 3.83733 0.352196 3.82436L1.74814 2.94598L0.568808 3.63219C0.54779 3.6444 0.522855 3.64781 0.499368 3.64168C0.475881 3.63556 0.455719 3.62038 0.443223 3.59943C0.430726 3.57847 0.426893 3.55341 0.432548 3.52963C0.438203 3.50586 0.452895 3.48527 0.473462 3.4723L1.42989 2.86986L0.716179 3.28517C0.695336 3.29643 0.671013 3.29924 0.648181 3.29303C0.62535 3.28682 0.605734 3.27206 0.593345 3.25176C0.580956 3.23146 0.576729 3.20715 0.581529 3.18382C0.586328 3.16048 0.599791 3.13988 0.619166 3.12621L2.53295 1.86556L0.997405 2.75885C0.976562 2.77011 0.952239 2.77293 0.929407 2.76672C0.906576 2.7605 0.88696 2.74574 0.874571 2.72544C0.862182 2.70514 0.857955 2.68084 0.862755 2.6575C0.867554 2.63417 0.881017 2.61356 0.900392 2.5999L1.94809 1.90959L1.33862 2.26407C1.31826 2.27568 1.2943 2.27909 1.27156 2.27362C1.24881 2.26816 1.22896 2.25422 1.21599 2.2346C1.20303 2.21499 1.1979 2.19116 1.20166 2.1679C1.20542 2.14464 1.21777 2.12367 1.23623 2.10922L2.28616 1.30342C2.26448 1.30959 2.2413 1.30759 2.22098 1.29778C2.20067 1.28797 2.18459 1.27103 2.17578 1.25014C2.16697 1.22924 2.16602 1.20582 2.17312 1.18428C2.18021 1.16273 2.19486 1.14452 2.21432 1.13308L3.43457 0.423181C3.45493 0.411576 3.47888 0.408163 3.50163 0.413629C3.52438 0.419095 3.54423 0.433035 3.5572 0.452647C3.57016 0.472258 3.57528 0.496089 3.57153 0.519349C3.56777 0.54261 3.55542 0.563576 3.53695 0.578035L2.50425 1.37058L4.74406 0.0681381C4.7649 0.0568779 4.78923 0.0540656 4.81206 0.0602762C4.83489 0.0664867 4.8545 0.081251 4.86689 0.101551C4.87928 0.12185 4.88351 0.146152 4.87871 0.169488C4.87391 0.192823 4.86045 0.21343 4.84107 0.227096L3.7943 0.916846L5.33558 0.020003C5.35642 0.00874281 5.38074 0.00593052 5.40358 0.0121411C5.42641 0.0183516 5.44602 0.0331159 5.45841 0.0534156C5.4708 0.0737152 5.47503 0.098017 5.47023 0.121353C5.46543 0.144688 5.45197 0.165295 5.43259 0.178961L3.51992 1.43887L5.93099 0.0358615C5.9414 0.0295525 5.95295 0.0253732 5.96497 0.0235621C5.97699 0.0217511 5.98925 0.0223437 6.00104 0.0253062C6.01284 0.0282687 6.02394 0.0335431 6.03371 0.0408282C6.04348 0.0481133 6.05173 0.0572664 6.05799 0.067765C6.06425 0.0782635 6.0684 0.089902 6.0702 0.102016C6.07199 0.114129 6.0714 0.126481 6.06846 0.138366C6.06553 0.150251 6.06029 0.161436 6.05306 0.171282C6.04583 0.181128 6.03675 0.189443 6.02633 0.195752L5.06787 0.799307L6.30274 0.0808249C6.32376 0.068612 6.3487 0.0652024 6.37218 0.0713298C6.39567 0.0774572 6.41583 0.0926319 6.42833 0.113588C6.44083 0.134544 6.44466 0.159607 6.439 0.183383C6.43335 0.207158 6.41866 0.227746 6.39809 0.240716L5.0014 1.11946L6.66821 0.149856C6.6892 0.137015 6.71439 0.133104 6.73825 0.138982C6.7621 0.14486 6.78266 0.160046 6.7954 0.1812C6.80814 0.202353 6.81202 0.227741 6.80619 0.251778C6.80036 0.275815 6.78529 0.296533 6.7643 0.309373L3.8478 2.18478L7.12754 0.27635C7.14857 0.264412 7.17339 0.261222 7.19672 0.267462C7.22005 0.273702 7.24004 0.288878 7.25243 0.309754C7.26481 0.330631 7.26862 0.355557 7.26303 0.37922C7.25744 0.402883 7.2429 0.423411 7.22251 0.436428L5.49832 1.51089L7.4308 0.386613C7.45181 0.374401 7.47675 0.370991 7.50024 0.377118C7.52372 0.383246 7.54388 0.39842 7.55638 0.419377C7.56888 0.440333 7.57271 0.465396 7.56706 0.489171C7.5614 0.512947 7.54671 0.533534 7.52614 0.546504L4.85774 2.22321L7.76553 0.531579C7.78664 0.518936 7.81187 0.515264 7.83567 0.521369C7.85947 0.527475 7.87989 0.542858 7.89244 0.564135C7.90498 0.585412 7.90863 0.61084 7.90257 0.634825C7.89651 0.658809 7.88125 0.679386 7.86013 0.692029L6.69431 1.4092L7.99917 0.650051C8.02019 0.63726 8.04538 0.633406 8.06922 0.639336C8.09306 0.645267 8.11358 0.660496 8.12627 0.681674C8.13896 0.702852 8.14279 0.728244 8.1369 0.752264C8.13102 0.776284 8.1159 0.796964 8.09489 0.809755L4.16439 3.3111L8.36538 0.866845C8.37584 0.860598 8.38743 0.856488 8.39947 0.854753C8.41151 0.853017 8.42378 0.853689 8.43556 0.856729C8.44735 0.85977 8.45842 0.865119 8.46815 0.872473C8.47789 0.879827 8.48609 0.889041 8.49229 0.899588C8.49849 0.910136 8.50257 0.921811 8.50429 0.933946C8.50601 0.946082 8.50535 0.95844 8.50233 0.970316C8.49931 0.982193 8.494 0.993353 8.4867 1.00316C8.47941 1.01297 8.47026 1.02123 8.4598 1.02748L7.24029 1.77451L8.56644 1.00285C8.58747 0.990916 8.61229 0.987727 8.63562 0.993967C8.65895 1.00021 8.67894 1.01538 8.69132 1.03626C8.70371 1.05714 8.70752 1.08206 8.70193 1.10572C8.69634 1.12939 8.6818 1.14991 8.66141 1.16293L5.49239 3.13759L8.82508 1.19857C8.84614 1.18585 8.87136 1.18209 8.89517 1.18811C8.91899 1.19412 8.93946 1.20943 8.95208 1.23066C8.9647 1.25188 8.96844 1.27729 8.96246 1.3013C8.95649 1.3253 8.9413 1.34593 8.92024 1.35864L5.4163 3.54581L9.0789 1.4148C9.09992 1.40259 9.12486 1.39918 9.14834 1.40531C9.17183 1.41143 9.19199 1.42661 9.20449 1.44757C9.21698 1.46852 9.22082 1.49358 9.21516 1.51736C9.20951 1.54114 9.19481 1.56172 9.17425 1.57469L4.94512 4.23668L9.34495 1.67693C9.36595 1.6658 9.39038 1.66321 9.41323 1.66968C9.43607 1.67616 9.45558 1.69121 9.46775 1.71174C9.47992 1.73227 9.48381 1.75672 9.47864 1.78005C9.47346 1.80339 9.45961 1.82384 9.43992 1.8372L6.00708 3.96913L9.55193 1.9066C9.56236 1.90029 9.57392 1.89612 9.58595 1.89431C9.59799 1.8925 9.61025 1.8931 9.62206 1.89607C9.63386 1.89904 9.64496 1.90433 9.65474 1.91163C9.66451 1.91892 9.67277 1.92809 9.67903 1.9386C9.68529 1.94911 9.68943 1.96076 9.69123 1.97288C9.69302 1.98501 9.69242 1.99737 9.68948 2.00926C9.68653 2.02116 9.68128 2.03235 9.67404 2.0422C9.6668 2.05205 9.65771 2.06037 9.64728 2.06668L5.3228 4.78202L9.77854 2.18944C9.78896 2.18313 9.80051 2.17895 9.81253 2.17714C9.82455 2.17533 9.83681 2.17592 9.8486 2.17889C9.86039 2.18185 9.87149 2.18712 9.88126 2.19441C9.89103 2.20169 9.89929 2.21085 9.90555 2.22134C9.91181 2.23184 9.91595 2.24348 9.91775 2.2556C9.91955 2.26771 9.91896 2.28006 9.91602 2.29195C9.91308 2.30383 9.90785 2.31502 9.90062 2.32486C9.89339 2.33471 9.88431 2.34302 9.87389 2.34933L5.40352 5.15964L9.98664 2.49318C10.0077 2.48202 10.0322 2.47945 10.0551 2.48598C10.078 2.49251 10.0975 2.50765 10.1096 2.52828C10.1217 2.5489 10.1255 2.57343 10.1202 2.59679C10.1149 2.62015 10.1009 2.64057 10.0811 2.65381L8.14839 3.83574L10.1099 2.69467C10.1311 2.68203 10.1563 2.67836 10.1801 2.68446C10.2039 2.69057 10.2243 2.70595 10.2369 2.72723C10.2494 2.74851 10.253 2.77394 10.247 2.79792C10.2409 2.8219 10.2257 2.84248 10.2045 2.85512L7.5702 4.47474L10.2356 2.92397C10.2567 2.91284 10.2811 2.91025 10.3039 2.91672C10.3268 2.92319 10.3463 2.93824 10.3585 2.95877C10.3706 2.9793 10.3745 3.00375 10.3693 3.02709C10.3642 3.05043 10.3503 3.07088 10.3306 3.08423L6.66414 5.36263L10.3712 3.20569C10.3923 3.1931 10.4175 3.18948 10.4413 3.19564C10.4651 3.2018 10.4855 3.21722 10.498 3.23853C10.5105 3.25983 10.5141 3.28526 10.508 3.30923C10.5019 3.33319 10.4865 3.35373 10.4654 3.36633L9.31977 4.06391L10.455 3.40345C10.4761 3.39152 10.5009 3.38833 10.5242 3.39457C10.5476 3.40081 10.5675 3.41598 10.5799 3.43686C10.5923 3.45773 10.5961 3.48266 10.5905 3.50632C10.5849 3.52999 10.5704 3.55051 10.55 3.56353L6.49381 6.09193L10.5704 3.72025C10.5914 3.70831 10.6162 3.70512 10.6396 3.71136C10.6629 3.7176 10.6829 3.73278 10.6953 3.75365C10.7077 3.77453 10.7115 3.79946 10.7059 3.82312C10.7003 3.84678 10.6857 3.86731 10.6654 3.88033L6.16537 6.68765L10.6728 4.06522C10.6938 4.05328 10.7186 4.05009 10.7419 4.05633C10.7653 4.06257 10.7853 4.07775 10.7976 4.09862C10.81 4.1195 10.8138 4.14442 10.8083 4.16809C10.8027 4.19175 10.7881 4.21228 10.7677 4.2253L5.87822 7.2718L10.7527 4.43575C10.7738 4.42303 10.799 4.41927 10.8228 4.42528C10.8467 4.4313 10.8671 4.44661 10.8797 4.46784C10.8924 4.48906 10.8961 4.51447 10.8901 4.53848C10.8842 4.56248 10.869 4.58311 10.8479 4.59582L6.22739 7.48356L10.8092 4.81784C10.8197 4.81157 10.8312 4.80743 10.8432 4.80566C10.8553 4.8039 10.8675 4.80453 10.8793 4.80754C10.8911 4.81055 10.9022 4.81586 10.9119 4.82318C10.9217 4.8305 10.9299 4.83969 10.9361 4.85021C10.9423 4.86074 10.9465 4.87239 10.9482 4.88451C10.95 4.89664 10.9493 4.90899 10.9463 4.92086C10.9434 4.93274 10.9381 4.94391 10.9308 4.95373C10.9236 4.96355 10.9144 4.97183 10.904 4.97811L7.87124 6.855L10.8357 5.13035C10.8568 5.11768 10.882 5.11397 10.9058 5.12004C10.9296 5.12612 10.95 5.14147 10.9626 5.16272C10.9752 5.18397 10.9788 5.20938 10.9728 5.23337C10.9668 5.25735 10.9516 5.27794 10.9305 5.29061L8.67511 6.6869L10.8436 5.42513C10.8647 5.41241 10.8899 5.40865 10.9137 5.41467C10.9376 5.42068 10.958 5.43599 10.9706 5.45722C10.9833 5.47845 10.987 5.50386 10.981 5.52786C10.9751 5.55186 10.9599 5.57249 10.9388 5.58521L8.11081 7.35445L10.8316 5.77159C10.8421 5.76535 10.8537 5.76126 10.8657 5.75953C10.8777 5.75781 10.89 5.75849 10.9018 5.76154C10.9135 5.76459 10.9246 5.76995 10.9343 5.7773C10.9441 5.78466 10.9522 5.79388 10.9584 5.80443C10.9646 5.81497 10.9687 5.82665 10.9704 5.83878C10.9721 5.85091 10.9714 5.86326 10.9684 5.87513C10.9654 5.88699 10.9601 5.89815 10.9528 5.90794C10.9455 5.91774 10.9363 5.92599 10.9258 5.93223L10.7677 6.02887L10.812 6.00312C10.833 5.99069 10.8581 5.98718 10.8817 5.99337C10.9053 5.99956 10.9255 6.01495 10.9379 6.03615C10.9638 6.07999 10.9497 6.13689 10.9066 6.16357L9.88685 6.79194L10.7763 6.27477C10.7973 6.26256 10.8222 6.25915 10.8457 6.26527C10.8692 6.2714 10.8893 6.28658 10.9018 6.30753C10.9143 6.32849 10.9182 6.35355 10.9125 6.37733C10.9069 6.4011 10.8922 6.42169 10.8716 6.43466L8.61587 7.85259L10.7087 6.63504C10.7297 6.62265 10.7548 6.61917 10.7784 6.62536C10.802 6.63155 10.8222 6.6469 10.8346 6.66806C10.847 6.68917 10.8507 6.71435 10.8449 6.73818C10.8391 6.76201 10.8242 6.78259 10.8035 6.79549L10.2853 7.11545L10.6376 6.91041C10.6585 6.8975 10.6837 6.8935 10.7076 6.89929C10.7314 6.90508 10.7521 6.92019 10.7649 6.94129C10.7777 6.9624 10.7817 6.98776 10.7759 7.01182C10.7702 7.03587 10.7552 7.05664 10.7342 7.06956L7.89087 8.92239L10.463 7.42591C10.4838 7.41373 10.5086 7.41022 10.5319 7.41612C10.5553 7.42203 10.5755 7.43688 10.5881 7.45752C10.6008 7.47817 10.605 7.50298 10.5998 7.52668C10.5946 7.55039 10.5805 7.57113 10.5604 7.58449L8.04675 9.25486L10.1945 8.00539C10.2154 7.99315 10.2403 7.98963 10.2637 7.99558C10.2871 8.00153 10.3073 8.01648 10.32 8.03723C10.3326 8.05799 10.3367 8.08291 10.3314 8.10666C10.326 8.13041 10.3117 8.15112 10.2914 8.16435L8.97245 9.02743L9.89925 8.48824C9.92004 8.4761 9.9447 8.47258 9.96802 8.47842C9.99134 8.48427 10.0115 8.49903 10.0242 8.51957C10.0369 8.54012 10.0412 8.56485 10.0362 8.58852C10.0311 8.6122 10.0172 8.63297 9.99719 8.64645L8.98059 9.33489L9.44659 9.06381C9.46722 9.05201 9.49156 9.04865 9.51459 9.05441C9.53761 9.06017 9.55756 9.07463 9.57031 9.09478C9.58307 9.11494 9.58766 9.13926 9.58314 9.16273C9.57861 9.1862 9.56532 9.20702 9.54601 9.2209L8.84489 9.71662C8.8577 9.72556 8.86805 9.73763 8.87497 9.7517C8.8819 9.76577 8.88517 9.78138 8.88449 9.79707C8.8838 9.81276 8.87918 9.82802 8.87106 9.84142C8.86294 9.85482 8.85158 9.86593 8.83804 9.87371L7.61778 10.5836C7.59711 10.5969 7.57205 10.6014 7.54811 10.596C7.52417 10.5907 7.50332 10.576 7.49013 10.5552C7.47695 10.5343 7.47252 10.5091 7.47781 10.4849C7.48311 10.4608 7.49769 10.4398 7.51837 10.4265L7.72091 10.2832L6.71912 10.8661C6.69833 10.8782 6.67367 10.8817 6.65035 10.8759C6.62703 10.87 6.60688 10.8553 6.59416 10.8347C6.58144 10.8142 6.57715 10.7895 6.58219 10.7658C6.58724 10.7421 6.60122 10.7213 6.62118 10.7079L7.63852 10.019L5.99986 10.9722C5.97894 10.9852 5.95378 10.9892 5.92991 10.9835C5.90604 10.9777 5.88541 10.9626 5.87257 10.9415C5.85973 10.9205 5.85573 10.8951 5.86144 10.8711C5.86715 10.847 5.88211 10.8262 5.90303 10.8133L7.22251 9.94983L5.43889 10.9875C5.42483 10.9958 5.40886 11.0001 5.3926 11L5.39075 10.997Z" fill="#46A0DD"/>
<path d="M6.02811 7.03505C6.00774 7.03505 5.98793 7.02827 5.97176 7.01577C5.9556 7.00327 5.94398 6.98575 5.9387 6.96591C5.93343 6.94608 5.9348 6.92504 5.94259 6.90607C5.95039 6.8871 5.96418 6.87125 5.98183 6.86098L7.58717 5.92701C7.59768 5.92081 7.6093 5.91678 7.62137 5.91514C7.63344 5.9135 7.64571 5.91429 7.65747 5.91747C7.66923 5.92064 7.68025 5.92614 7.68989 5.93364C7.69953 5.94114 7.70759 5.95049 7.71362 5.96115C7.71974 5.97175 7.72373 5.98346 7.72534 5.99562C7.72695 6.00778 7.72616 6.02013 7.72301 6.03198C7.71986 6.04382 7.71442 6.05493 7.70699 6.06464C7.69956 6.07435 7.6903 6.08249 7.67974 6.08858L6.0744 7.02255C6.06035 7.03079 6.04437 7.0351 6.02811 7.03505Z" fill="white"/>
<path d="M5.66533 7.82855C5.64994 7.82855 5.63479 7.82469 5.62125 7.81731C5.60772 7.80994 5.59622 7.79927 5.5878 7.78629C5.57938 7.7733 5.57431 7.75841 5.57304 7.74295C5.57177 7.7275 5.57435 7.71196 5.58054 7.69776L5.69143 7.44366L5.22507 7.71493C5.20445 7.72691 5.18005 7.73043 5.15692 7.72475C5.1338 7.71908 5.11373 7.70464 5.10089 7.68445C5.08805 7.66426 5.08342 7.63986 5.08796 7.61631C5.0925 7.59277 5.10587 7.5719 5.12528 7.55802L6.14206 6.83301L5.20674 7.37705C5.18595 7.38919 5.16129 7.39271 5.13797 7.38686C5.11465 7.38102 5.0945 7.36626 5.08178 7.34571C5.06906 7.32517 5.06477 7.30044 5.06981 7.27677C5.07486 7.25309 5.08884 7.23232 5.1088 7.21884L5.78123 6.76267L5.20674 7.09682C5.18593 7.10796 5.16169 7.1107 5.13895 7.10448C5.11621 7.09826 5.09667 7.08356 5.08429 7.06335C5.07192 7.04314 5.06765 7.01894 5.07234 6.99567C5.07702 6.9724 5.09033 6.95179 5.10954 6.93805L5.44187 6.7179L5.20656 6.85465C5.18969 6.86449 5.17018 6.86871 5.15079 6.86671C5.13141 6.86472 5.11314 6.85661 5.0986 6.84354C5.08406 6.83048 5.07397 6.81312 5.06979 6.79394C5.0656 6.77477 5.06753 6.75475 5.07529 6.73674L5.19063 6.46957C5.17136 6.47419 5.15112 6.47237 5.13295 6.4644C5.11479 6.45643 5.09969 6.44272 5.08992 6.42535C5.08379 6.41476 5.07981 6.40304 5.07819 6.39089C5.07658 6.37873 5.07737 6.36638 5.08052 6.35453C5.08367 6.34268 5.08912 6.33158 5.09654 6.32187C5.10397 6.31215 5.11324 6.30402 5.1238 6.29793L5.33856 6.17293C5.35542 6.16316 5.37491 6.159 5.39425 6.16103C5.41359 6.16306 5.43181 6.17117 5.44632 6.18422C5.46082 6.19727 5.47089 6.21459 5.47507 6.23373C5.47926 6.25287 5.47736 6.27285 5.46964 6.29084L5.35726 6.55148L8.12638 4.94026C8.14726 4.92765 8.17223 4.92385 8.19588 4.92966C8.21952 4.93547 8.23995 4.95043 8.25272 4.97131C8.2655 4.99218 8.26961 5.01729 8.26416 5.04119C8.2587 5.0651 8.24412 5.08587 8.22358 5.09903L7.89163 5.31881L8.01141 5.24922C8.0322 5.23707 8.05686 5.23355 8.08018 5.2394C8.1035 5.24525 8.12365 5.26001 8.13637 5.28055C8.14909 5.3011 8.15338 5.32582 8.14834 5.3495C8.14329 5.37318 8.12931 5.39395 8.10935 5.40743L7.43507 5.86471L7.78702 5.66004C7.80764 5.64806 7.83204 5.64455 7.85517 5.65022C7.87829 5.6559 7.89836 5.67033 7.9112 5.69052C7.92404 5.71071 7.92867 5.73511 7.92413 5.75866C7.91959 5.7822 7.90622 5.80308 7.88681 5.81695L5.97359 7.18115C5.97907 7.19312 5.98197 7.20613 5.9821 7.21932C5.98222 7.2325 5.97957 7.24557 5.97433 7.25764L5.86028 7.51884C5.88183 7.51432 5.90427 7.51766 5.9236 7.52828C5.94292 7.5389 5.95787 7.55609 5.96577 7.5768C5.97367 7.5975 5.97401 7.62036 5.96673 7.64129C5.95944 7.66222 5.94501 7.67985 5.92601 7.69105L5.71124 7.81586C5.69713 7.82392 5.68118 7.82816 5.66496 7.82818L5.66533 7.82855Z" fill="white"/>
<path d="M6.89991 5.79218C6.88044 5.79224 6.86144 5.7861 6.84563 5.77464C6.82981 5.76318 6.81799 5.74699 6.81184 5.72837C6.80568 5.70975 6.80551 5.68964 6.81136 5.67092C6.8172 5.6522 6.82875 5.63581 6.84437 5.62408L7.23242 5.33154C7.21879 5.3247 7.20705 5.31457 7.19823 5.30206C7.18941 5.28955 7.18379 5.27504 7.18186 5.25982C7.17994 5.2446 7.18178 5.22913 7.1872 5.21479C7.19263 5.20045 7.20149 5.18769 7.21298 5.17762L7.49495 4.93228C7.47456 4.94018 7.45207 4.94055 7.43143 4.93335C7.4108 4.92614 7.39336 4.91182 7.38219 4.89291C7.37102 4.874 7.36685 4.85171 7.37041 4.83C7.37397 4.80829 7.38503 4.78855 7.40164 4.77426L7.53364 4.66008C7.51566 4.65997 7.49809 4.65459 7.48308 4.64461C7.46807 4.63462 7.45627 4.62045 7.4491 4.60382C7.44194 4.58719 7.43973 4.56883 7.44275 4.55096C7.44576 4.53309 7.45386 4.51648 7.46607 4.50317L7.76895 4.17798L7.61214 4.26902C7.5933 4.27994 7.57125 4.28384 7.54985 4.28002C7.52845 4.2762 7.50906 4.26492 7.49509 4.24814C7.48111 4.23137 7.47344 4.21017 7.47342 4.18827C7.47339 4.16637 7.48101 4.14516 7.49495 4.12835L7.78191 3.78376L7.57882 3.90185C7.55987 3.91285 7.53767 3.91673 7.51615 3.91281C7.49464 3.90889 7.47519 3.89742 7.46127 3.88043C7.44734 3.86345 7.43983 3.84204 7.44006 3.82001C7.4403 3.79798 7.44826 3.77674 7.46255 3.76006L7.66546 3.52424L7.5055 3.61715C7.48664 3.62829 7.46447 3.63235 7.44293 3.6286C7.42138 3.62485 7.40185 3.61354 7.38779 3.59667C7.37373 3.57979 7.36605 3.55845 7.36611 3.53641C7.36617 3.51438 7.37397 3.49308 7.38812 3.47629L7.569 3.26024L7.39757 3.35987C7.37855 3.37116 7.35615 3.37522 7.33442 3.37131C7.31269 3.3674 7.29307 3.35578 7.27911 3.33855C7.26514 3.32133 7.25776 3.29963 7.2583 3.27739C7.25884 3.25516 7.26726 3.23385 7.28204 3.21733L7.41015 3.07199L7.27834 3.14848C7.25998 3.15914 7.23856 3.16314 7.21764 3.15981C7.19672 3.15647 7.17756 3.146 7.16337 3.13015C7.14918 3.11431 7.14082 3.09403 7.13967 3.07272C7.13852 3.0514 7.14466 3.03034 7.15707 3.01303L7.34721 2.74792L7.0869 2.89941C7.06822 2.91031 7.04635 2.91429 7.02507 2.91066C7.00378 2.90702 6.98443 2.89601 6.97035 2.87952C6.95627 2.86303 6.94836 2.84211 6.94797 2.82036C6.94758 2.79861 6.95475 2.77741 6.96823 2.76042L7.11671 2.57347L6.88899 2.70613C6.87022 2.71708 6.84823 2.72105 6.82685 2.71733C6.80548 2.71362 6.78608 2.70245 6.77204 2.68579C6.75799 2.66913 6.7502 2.64803 6.75002 2.62617C6.74985 2.60432 6.75729 2.58309 6.77106 2.5662L6.90602 2.4009L6.6659 2.54045C6.6482 2.55064 6.62767 2.55466 6.60748 2.55189C6.58729 2.54912 6.56857 2.53971 6.55422 2.52513C6.53988 2.51055 6.53071 2.4916 6.52814 2.47123C6.52557 2.45086 6.52974 2.4302 6.54 2.41246L6.72903 2.08932L6.28377 2.34847C6.26437 2.35974 6.24157 2.36355 6.21961 2.35918C6.19764 2.35481 6.17798 2.34256 6.16429 2.32471C6.15059 2.30685 6.14378 2.2846 6.14512 2.26208C6.14646 2.23955 6.15586 2.21828 6.17158 2.2022L6.23156 2.14119L6.01328 2.26806C5.99367 2.27933 5.97065 2.28299 5.94854 2.27835C5.92644 2.27371 5.90678 2.26109 5.89326 2.24286C5.87975 2.22464 5.87331 2.20206 5.87516 2.17938C5.87701 2.15671 5.88702 2.13549 5.90331 2.11974L5.94108 2.08354L5.69947 2.22403C5.68068 2.23471 5.65878 2.23845 5.63755 2.23462C5.61631 2.23078 5.59707 2.21961 5.58313 2.20302C5.56918 2.18643 5.56142 2.16546 5.56116 2.14372C5.5609 2.12198 5.56818 2.10083 5.58172 2.08391L5.79334 1.8257L4.94818 2.3175C4.93765 2.32363 4.92603 2.3276 4.91398 2.3292C4.90193 2.3308 4.88968 2.32999 4.87794 2.32682C4.86619 2.32365 4.85519 2.31818 4.84554 2.31072C4.8359 2.30327 4.82781 2.29397 4.82173 2.28336C4.81565 2.27275 4.81171 2.26104 4.81012 2.24889C4.80853 2.23675 4.80933 2.22441 4.81248 2.21257C4.81563 2.20074 4.82105 2.18965 4.82845 2.17993C4.83585 2.17021 4.84508 2.16206 4.85561 2.15593L6.14529 1.40573C6.16408 1.39505 6.18597 1.39131 6.20721 1.39514C6.22844 1.39898 6.24769 1.41015 6.26163 1.42674C6.27557 1.44333 6.28334 1.4643 6.2836 1.48604C6.28385 1.50778 6.27658 1.52893 6.26303 1.54585L6.05161 1.80387L6.51964 1.53148C6.53925 1.52021 6.56227 1.51655 6.58438 1.52119C6.60648 1.52583 6.62614 1.53845 6.63966 1.55668C6.65317 1.5749 6.65961 1.59748 6.65776 1.62016C6.65591 1.64283 6.6459 1.66405 6.62961 1.6798L6.59166 1.71618L6.73551 1.6326C6.75491 1.62169 6.77755 1.61816 6.79931 1.62265C6.82107 1.62713 6.84052 1.63934 6.8541 1.65706C6.86769 1.67477 6.87451 1.69681 6.87334 1.71916C6.87217 1.74152 6.86307 1.7627 6.8477 1.77887L6.78809 1.83969L6.9412 1.75051C6.95889 1.74032 6.97942 1.7363 6.99962 1.73907C7.01981 1.74184 7.03853 1.75125 7.05287 1.76583C7.06722 1.78042 7.07639 1.79936 7.07896 1.81973C7.08153 1.84011 7.07736 1.86076 7.06709 1.8785L6.87807 2.20164L7.25464 1.98261C7.2734 1.97136 7.29551 1.96718 7.31704 1.9708C7.33857 1.97441 7.35814 1.98559 7.37227 2.00236C7.3864 2.01913 7.39418 2.04039 7.39424 2.06239C7.39429 2.08439 7.38662 2.1057 7.37257 2.12253L7.23779 2.28765L7.45014 2.16414C7.46883 2.1535 7.4906 2.14971 7.51174 2.15343C7.53289 2.15716 7.5521 2.16815 7.5661 2.18455C7.5801 2.20095 7.58802 2.22173 7.58852 2.24335C7.58901 2.26497 7.58205 2.2861 7.56882 2.30313L7.42015 2.49008L7.62954 2.36843C7.6479 2.35777 7.66932 2.35378 7.69024 2.35711C7.71116 2.36045 7.73032 2.37091 7.74451 2.38676C7.7587 2.40261 7.76706 2.42289 7.76821 2.4442C7.76936 2.46552 7.76322 2.48658 7.75081 2.50388L7.56067 2.769L7.81191 2.62292C7.83093 2.61194 7.85319 2.60812 7.87475 2.61214C7.8963 2.61616 7.91573 2.62775 7.9296 2.64486C7.94346 2.66197 7.95086 2.68347 7.95046 2.70556C7.95006 2.72764 7.9419 2.74887 7.92743 2.76546L7.79932 2.91079L7.93373 2.83281C7.9526 2.82221 7.97454 2.81857 7.99578 2.82251C8.01702 2.82645 8.03624 2.83773 8.05013 2.8544C8.06402 2.87107 8.07172 2.89209 8.0719 2.91386C8.07207 2.93562 8.06472 2.95677 8.05111 2.97367L7.87022 3.18972L8.04981 3.08524C8.06876 3.07424 8.09096 3.07036 8.11247 3.07428C8.13399 3.0782 8.15343 3.08967 8.16736 3.10666C8.18129 3.12364 8.1888 3.14505 8.18856 3.16708C8.18833 3.18911 8.18036 3.21035 8.16608 3.22703L7.96316 3.46285L8.14423 3.35782C8.16307 3.3469 8.18512 3.343 8.20652 3.34682C8.22792 3.35064 8.24731 3.36192 8.26128 3.3787C8.27526 3.39547 8.28293 3.41667 8.28295 3.43857C8.28298 3.46047 8.27536 3.48168 8.26142 3.49849L7.97464 3.8429L8.21884 3.70073C8.23805 3.68965 8.26056 3.68586 8.2823 3.69006C8.30404 3.69427 8.32356 3.70618 8.33733 3.72364C8.3511 3.74111 8.3582 3.76297 8.35735 3.78525C8.3565 3.80754 8.34776 3.82879 8.3327 3.84514L8.02963 4.1707L8.2492 4.0429C8.26918 4.03065 8.29301 4.02648 8.31591 4.03124C8.33881 4.036 8.35907 4.04934 8.3726 4.06856C8.38613 4.08777 8.39192 4.11145 8.38881 4.1348C8.3857 4.15815 8.37392 4.17945 8.35584 4.1944L8.26401 4.27388C8.28431 4.26773 8.30608 4.26879 8.32569 4.27687C8.34531 4.28495 8.36157 4.29957 8.37178 4.31828C8.38199 4.337 8.38551 4.35867 8.38177 4.37969C8.37803 4.40071 8.36724 4.4198 8.35122 4.43377L8.07462 4.67463L8.20903 4.59646C8.22946 4.58457 8.25362 4.581 8.27658 4.58646C8.29953 4.59193 8.31955 4.60601 8.33255 4.62585C8.34555 4.64569 8.35054 4.66978 8.34651 4.6932C8.34247 4.71662 8.32972 4.7376 8.31086 4.75187L8.17422 4.85504C8.19587 4.84992 8.21862 4.85283 8.2383 4.86325C8.25799 4.87366 8.27329 4.89088 8.28139 4.91175C8.28949 4.93261 8.28985 4.95572 8.28241 4.97683C8.27497 4.99795 8.26022 5.01565 8.24087 5.02669L6.94638 5.77987C6.93234 5.78813 6.91636 5.79245 6.9001 5.79237L6.89991 5.79218Z" fill="white"/>
<path d="M3.18094 4.28369C3.1643 4.2838 3.14795 4.27937 3.1336 4.27087C3.11926 4.26237 3.10747 4.25011 3.09948 4.2354C3.09149 4.22069 3.0876 4.20408 3.08822 4.18732C3.08884 4.17057 3.09394 4.15429 3.103 4.14022L3.30165 3.82753L2.809 4.1141C2.78897 4.12583 2.7653 4.12957 2.74267 4.12457C2.72004 4.11957 2.70009 4.1062 2.68677 4.0871C2.67344 4.068 2.66771 4.04456 2.6707 4.02141C2.67369 3.99825 2.68518 3.97707 2.70291 3.96205L2.89305 3.79992L2.83603 3.83294C2.8154 3.84474 2.79106 3.8481 2.76803 3.84234C2.74501 3.83657 2.72506 3.82212 2.7123 3.80196C2.69955 3.78181 2.69496 3.75749 2.69948 3.73402C2.704 3.71055 2.71729 3.68973 2.73661 3.67585L4.28382 2.57994L2.95526 3.3529C2.93483 3.36478 2.91067 3.36835 2.88771 3.36289C2.86476 3.35742 2.84473 3.34334 2.83174 3.3235C2.81874 3.30366 2.81375 3.27958 2.81778 3.25615C2.82181 3.23273 2.83457 3.21175 2.85343 3.19748L4.08127 2.27079L3.24815 2.7555C3.2279 2.76719 3.20402 2.77074 3.18129 2.76545C3.15856 2.76015 3.13864 2.7464 3.12554 2.72695C3.11243 2.70749 3.1071 2.68377 3.11061 2.66052C3.11413 2.63728 3.12622 2.61622 3.14447 2.60158L3.70378 2.15698C3.68662 2.15155 3.67142 2.14117 3.66004 2.12714C3.64866 2.11311 3.6416 2.09603 3.63973 2.078C3.63786 2.05998 3.64126 2.0418 3.64952 2.0257C3.65777 2.0096 3.67052 1.99628 3.68619 1.98739L4.55412 1.48234C4.57436 1.47065 4.59824 1.4671 4.62098 1.47239C4.64371 1.47769 4.66362 1.49144 4.67673 1.51089C4.68983 1.53035 4.69516 1.55407 4.69165 1.57732C4.68814 1.60056 4.67605 1.62162 4.6578 1.63626L4.2653 1.94839L5.33226 1.32768C5.35269 1.31579 5.37685 1.31222 5.3998 1.31768C5.42276 1.32315 5.44278 1.33723 5.45578 1.35707C5.46877 1.37691 5.47377 1.401 5.46973 1.42442C5.4657 1.44784 5.45295 1.46882 5.43408 1.48309L4.2055 2.41034L5.99135 1.37152C6.01199 1.35972 6.03633 1.35636 6.05935 1.36212C6.08237 1.36789 6.10232 1.38234 6.11508 1.4025C6.12783 1.42265 6.13243 1.44697 6.1279 1.47044C6.12338 1.49391 6.11009 1.51473 6.09077 1.52861L3.81282 3.14188L3.81578 3.1458C3.829 3.16491 3.83469 3.18829 3.83174 3.2114C3.8288 3.2345 3.81744 3.25568 3.79986 3.2708L3.57529 3.46241C3.59267 3.46038 3.61026 3.46339 3.626 3.47107C3.64174 3.47876 3.65499 3.4908 3.66418 3.5058C3.67337 3.5208 3.67813 3.53813 3.67789 3.55576C3.67766 3.57338 3.67244 3.59058 3.66286 3.60532L3.46198 3.92119C3.48377 3.91355 3.5076 3.91438 3.52881 3.92352C3.55001 3.93266 3.56707 3.94945 3.57664 3.9706C3.5862 3.99175 3.58759 4.01574 3.58053 4.03786C3.57346 4.05999 3.55846 4.07866 3.53845 4.09022L3.22723 4.27119C3.21319 4.27947 3.19721 4.28379 3.18094 4.28369ZM5.55702 9.69423C5.53991 9.69427 5.52312 9.68953 5.50853 9.68052C5.49394 9.67152 5.48211 9.65861 5.47438 9.64323C5.46664 9.62785 5.4633 9.6106 5.46471 9.59342C5.46613 9.57624 5.47225 9.55979 5.4824 9.54591L5.74086 9.18974L5.0477 9.59292C5.02754 9.60457 5.00377 9.60815 4.98112 9.60296C4.95846 9.59776 4.93857 9.58417 4.9254 9.56488C4.91223 9.54559 4.90673 9.52202 4.91001 9.49883C4.91329 9.47565 4.9251 9.45456 4.9431 9.43975L5.10398 9.3084L5.02178 9.35617C5.00192 9.36757 4.97858 9.37117 4.95625 9.36627C4.93392 9.36137 4.91417 9.34832 4.90082 9.32962C4.88746 9.31093 4.88144 9.28792 4.88392 9.26502C4.88639 9.24213 4.89718 9.22096 4.91421 9.2056L5.10398 9.0362L5.02178 9.08396C5.00485 9.09381 4.98527 9.09801 4.96583 9.09596C4.9464 9.09391 4.9281 9.08571 4.91357 9.07253C4.89904 9.05936 4.88902 9.04189 4.88494 9.02263C4.88087 9.00337 4.88295 8.9833 4.89089 8.9653L5.00364 8.70933C4.98191 8.71434 4.95913 8.71126 4.93948 8.70065C4.91984 8.69005 4.90468 8.67263 4.8968 8.65162C4.88892 8.63062 4.88885 8.60745 4.89661 8.5864C4.90438 8.56535 4.91944 8.54784 4.93902 8.53712L5.15397 8.41212C5.17089 8.40227 5.19048 8.39807 5.20991 8.40012C5.22935 8.40217 5.24765 8.41037 5.26218 8.42355C5.27671 8.43672 5.28673 8.45419 5.2908 8.47345C5.29488 8.49271 5.2928 8.51278 5.28486 8.53078L5.17544 8.7791L5.80621 8.41212C5.82608 8.40015 5.84967 8.39613 5.87233 8.40086C5.895 8.40558 5.91508 8.4187 5.9286 8.43763C5.94212 8.45655 5.9481 8.47991 5.94536 8.50306C5.94261 8.52622 5.93134 8.5475 5.91378 8.56268L5.7242 8.7319L6.02468 8.55709C6.06652 8.53246 6.12002 8.54477 6.14724 8.58488C6.17445 8.625 6.16668 8.67948 6.12928 8.71026L5.96747 8.84235L6.02875 8.8069C6.04713 8.79604 6.06866 8.79192 6.08971 8.79522C6.11076 8.79853 6.13003 8.80907 6.14425 8.82505C6.15848 8.84103 6.16679 8.86147 6.16777 8.88292C6.16875 8.90436 6.16235 8.92549 6.14965 8.94273L5.89119 9.29889L6.02875 9.21885C6.03926 9.21268 6.05089 9.20866 6.06295 9.20703C6.07501 9.20541 6.08728 9.20621 6.09903 9.20938C6.11079 9.21255 6.1218 9.21804 6.13144 9.22553C6.14108 9.23301 6.14916 9.24235 6.1552 9.25299C6.16133 9.26359 6.16531 9.2753 6.16692 9.28746C6.16854 9.29961 6.16775 9.31197 6.1646 9.32382C6.16145 9.33566 6.156 9.34676 6.14857 9.35648C6.14115 9.36619 6.13188 9.37433 6.12132 9.38042L5.6033 9.68173C5.58927 9.69001 5.57328 9.69433 5.55702 9.69423Z" fill="white"/>
<path d="M1.26797 10.5929C1.75045 10.5448 2.21866 10.4065 2.65948 10.206C10.5273 14.2226 14.947 1.69929 6.18841 0.0501975C2.16331 -0.523693 -1.27954 3.93534 0.464656 7.69305C0.596475 8.29772 1.44645 8.76377 1.06136 9.39457C0.818087 10.0994 -0.207953 10.7778 1.26797 10.5929ZM1.26279 9.50875C1.34351 9.25165 1.61307 8.95034 1.37147 8.71713C0.980313 8.19851 0.686715 7.61209 0.505202 6.98688C-1.26898 0.231171 8.31732 -2.6769 10.5281 3.95903C11.9486 8.60407 6.84973 12.6172 2.74298 10.0338C2.26587 10.202 1.7871 10.4319 1.26446 10.4498C1.18651 10.4565 0.632207 10.5231 0.743846 10.3287C0.951194 10.0791 1.12549 9.80345 1.26279 9.50875Z" fill="#262626"/>
<path d="M3.13882 4.27883C3.44689 4.32416 3.66239 4.13517 3.65443 3.8221C3.86234 2.32488 5.81018 1.69688 6.8403 2.79951C7.89096 3.79916 7.43533 5.74359 6.01328 6.09658C5.7128 6.21524 5.32827 6.06132 5.08185 6.29733C4.94336 6.4658 5.02038 6.85816 5.02038 7.05611C5.02038 7.25052 4.93929 7.67422 5.15035 7.78709C5.80389 7.944 6.16861 7.76638 6.03254 7.02085C9.809 6.2352 8.75815 0.710113 4.96428 1.37598C3.54186 1.40247 1.68844 4.35122 3.13882 4.27883ZM2.91054 3.78348C3.11067 1.94148 5.32568 0.845563 6.87047 1.8855C8.95754 3.09485 8.3377 6.58577 5.91183 6.88671C5.61375 6.93204 5.8387 7.36171 5.76075 7.56937C5.74668 7.67646 5.75446 7.64343 5.66485 7.65799C5.01094 7.79549 5.37826 6.80965 5.28939 6.4298C5.29587 6.33427 5.28939 6.35144 5.35271 6.3311C6.94879 6.44099 8.28123 4.64021 7.44626 3.17564C6.45798 1.2896 3.44948 2.01442 3.34451 4.10756C3.07568 4.13703 2.80649 4.16483 2.91054 3.78348ZM6.21471 8.78935C6.2547 8.57405 6.12899 8.38972 5.89794 8.43151C5.56913 8.46938 5.14665 8.32087 4.88393 8.5733C4.78081 8.77032 4.85857 9.01883 4.83561 9.23562C4.83561 9.36063 4.80451 9.53208 4.9193 9.61679C5.2033 9.72201 5.53692 9.63619 5.83758 9.66156C6.33876 9.67164 6.20064 9.12723 6.21471 8.78935ZM5.26458 9.55093C4.98539 9.5416 5.10536 8.74159 5.13776 8.54289C6.16528 8.48095 5.97477 8.60483 5.91238 9.55093H5.26458Z" fill="#262626"/>
</svg>
