<svg width="39" height="37" viewBox="0 0 39 37" fill="none" xmlns="http://www.w3.org/2000/svg">
<path d="M23.2281 33.947C23.1592 33.947 23.0923 33.9243 23.0377 33.8824C22.983 33.8405 22.9438 33.7817 22.9259 33.7152C22.9081 33.6487 22.9127 33.5781 22.9391 33.5145C22.9654 33.4509 23.012 33.3978 23.0717 33.3633L32.7846 27.7551C32.8512 27.719 32.9286 27.7082 33.0025 27.7248C33.0764 27.7414 33.1418 27.7842 33.1865 27.8454C33.2312 27.9065 33.2522 27.9818 33.2456 28.0572C33.239 28.1327 33.2053 28.2032 33.1506 28.2557L31.0397 30.1645L33.2626 28.8869C33.3293 28.8464 33.4087 28.8322 33.4852 28.8472C33.5618 28.8622 33.63 28.9052 33.6765 28.9679C33.7229 29.0306 33.7443 29.1084 33.7364 29.186C33.7284 29.2636 33.6918 29.3354 33.6336 29.3874L32.0952 30.8358L32.4468 30.6331C32.4824 30.6104 32.5222 30.5952 32.5638 30.5884C32.6055 30.5815 32.6481 30.5832 32.689 30.5932C32.73 30.6033 32.7685 30.6215 32.8023 30.6468C32.836 30.6721 32.8643 30.704 32.8854 30.7405C32.9066 30.777 32.9201 30.8174 32.9251 30.8593C32.9302 30.9012 32.9268 30.9437 32.915 30.9842C32.9033 31.0247 32.8835 31.0624 32.8567 31.0951C32.83 31.1278 32.797 31.1547 32.7596 31.1742L30.0813 32.7208C30.0146 32.7613 29.9352 32.7755 29.8587 32.7605C29.7821 32.7455 29.7139 32.7025 29.6674 32.6398C29.621 32.5771 29.5996 32.4994 29.6075 32.4217C29.6155 32.3441 29.6521 32.2723 29.7103 32.2203L31.2481 30.7713L28.8019 32.1809C28.7353 32.217 28.6579 32.2278 28.584 32.2112C28.5101 32.1946 28.4447 32.1518 28.4 32.0906C28.3553 32.0295 28.3343 31.9542 28.3409 31.8788C28.3475 31.8033 28.3812 31.7328 28.4359 31.6804L30.5467 29.7709L23.3832 33.9064C23.3359 33.9332 23.2825 33.9472 23.2281 33.947ZM35.7464 21.6408C35.6775 21.6408 35.6106 21.6181 35.556 21.5762C35.5013 21.5343 35.4621 21.4755 35.4442 21.409C35.4264 21.3425 35.431 21.2719 35.4574 21.2083C35.4837 21.1447 35.5303 21.0915 35.59 21.0571L37.196 20.128C37.2316 20.1054 37.2714 20.0902 37.313 20.0834C37.3547 20.0765 37.3972 20.0782 37.4382 20.0882C37.4792 20.0982 37.5177 20.1165 37.5515 20.1418C37.5852 20.1671 37.6135 20.199 37.6346 20.2355C37.6557 20.272 37.6692 20.3124 37.6743 20.3543C37.6794 20.3962 37.676 20.4387 37.6642 20.4792C37.6525 20.5197 37.6326 20.5574 37.6059 20.5901C37.5792 20.6228 37.5462 20.6497 37.5088 20.6692L35.904 21.5983C35.8562 21.6262 35.8018 21.6409 35.7464 21.6408Z" fill="#87B1D3"/>
<path d="M26.9513 28.0542C26.885 28.0543 26.8204 28.0333 26.7668 27.9942C26.7132 27.9552 26.6734 27.9001 26.6531 27.837C26.6328 27.7738 26.6332 27.7059 26.654 27.6429C26.6749 27.58 26.7153 27.5253 26.7693 27.4868L29.2399 25.7168C29.1681 25.7445 29.0886 25.7447 29.0166 25.7175C28.9447 25.6902 28.8853 25.6374 28.8498 25.5691C28.8143 25.5008 28.8053 25.4218 28.8244 25.3473C28.8435 25.2727 28.8894 25.2079 28.9533 25.165L29.9706 24.4806C29.9094 24.4929 29.846 24.4869 29.7882 24.4634C29.7304 24.4398 29.6809 24.3996 29.6459 24.348C29.6017 24.2818 29.5844 24.2014 29.5974 24.1229C29.6104 24.0445 29.6528 23.9739 29.716 23.9256L33.5079 21.0233L30.8897 22.5349C30.82 22.575 30.7375 22.5868 30.6594 22.5678C30.5812 22.5488 30.5134 22.5004 30.47 22.4327C30.4266 22.365 30.411 22.2831 30.4263 22.2042C30.4417 22.1252 30.4869 22.0552 30.5525 22.0087L31.8137 21.1159L31.1919 21.4744C31.1228 21.5134 31.0416 21.5247 30.9646 21.5061C30.8876 21.4875 30.8205 21.4403 30.7768 21.3742C30.7332 21.308 30.7164 21.2277 30.7296 21.1496C30.7429 21.0715 30.7854 21.0013 30.8484 20.9533L32.9324 19.3892L31.4046 20.2707C31.3362 20.3092 31.2558 20.3205 31.1795 20.3025C31.1031 20.2845 31.0363 20.2385 30.9922 20.1735C30.9482 20.1086 30.9302 20.0294 30.9418 19.9518C30.9534 19.8742 30.9938 19.8038 31.0548 19.7546L32.8066 18.375L31.4928 19.1333C31.4262 19.1704 31.3483 19.1819 31.2739 19.1657C31.1994 19.1495 31.1334 19.1066 31.0883 19.0451C31.0432 18.9837 31.0221 18.9078 31.0289 18.8319C31.0358 18.756 31.0702 18.6852 31.1255 18.6328L32.7622 17.14L31.4671 17.8908C31.4017 17.929 31.3246 17.9422 31.2502 17.9278C31.1758 17.9135 31.1091 17.8727 31.0626 17.8129C31.016 17.7531 30.9927 17.6784 30.9971 17.6028C31.0014 17.5271 31.033 17.4556 31.0861 17.4015L32.6809 15.7561L31.2945 16.5569C31.2278 16.5975 31.1484 16.6116 31.0718 16.5967C30.9953 16.5817 30.9271 16.5386 30.8806 16.4759C30.8342 16.4133 30.8128 16.3355 30.8207 16.2579C30.8287 16.1803 30.8653 16.1084 30.9235 16.0564L32.0008 15.0423L31.0667 15.5816C30.9986 15.6206 30.9183 15.6326 30.8417 15.6152C30.7652 15.5978 30.698 15.5522 30.6534 15.4875C30.6089 15.4229 30.5904 15.3438 30.6014 15.2661C30.6125 15.1883 30.6524 15.1176 30.7132 15.0679L30.7952 15.0004C30.7302 15.0159 30.6619 15.0103 30.6004 14.9842C30.5388 14.9582 30.4872 14.9131 30.4532 14.8556C30.4191 14.7981 30.4044 14.7312 30.4111 14.6647C30.4178 14.5982 30.4456 14.5356 30.4905 14.4861L31.8669 12.9746L30.4142 13.8092C30.3468 13.8479 30.2674 13.8601 30.1915 13.8435C30.1155 13.8269 30.0485 13.7826 30.0035 13.7193C29.9584 13.6559 29.9385 13.5781 29.9477 13.5009C29.9569 13.4237 29.9945 13.3527 30.0532 13.3018L30.3948 13.0077L30.1007 13.1779C30.0355 13.2156 29.9587 13.2284 29.8847 13.2141C29.8107 13.1997 29.7444 13.1591 29.6979 13.0997C29.6515 13.0403 29.628 12.9661 29.6319 12.8908C29.6358 12.8155 29.6668 12.7442 29.7191 12.6899L30.8359 11.5281L29.5621 12.2638C29.4945 12.3029 29.4149 12.3152 29.3387 12.2985C29.2625 12.2818 29.1953 12.2373 29.1502 12.1736C29.1052 12.1099 29.0856 12.0317 29.0952 11.9543C29.1048 11.8769 29.1431 11.8059 29.2023 11.7552L30.1952 10.9043L29.0628 11.5569C28.9942 11.5966 28.9131 11.6088 28.8359 11.591C28.7587 11.5733 28.6911 11.5268 28.6468 11.4611C28.6024 11.3954 28.5847 11.3154 28.5971 11.2371C28.6095 11.1588 28.6512 11.0882 28.7137 11.0395L29.7404 10.243L28.5517 10.9312C28.4837 10.9714 28.403 10.9843 28.3259 10.9674C28.2488 10.9506 28.1809 10.9052 28.1358 10.8403C28.0908 10.7755 28.0719 10.696 28.083 10.6178C28.0941 10.5397 28.1344 10.4686 28.1957 10.4189L30.087 8.85477L27.8172 10.1655C27.7485 10.2049 27.6673 10.2168 27.5902 10.1988C27.513 10.1807 27.4456 10.134 27.4015 10.0682C27.3574 10.0024 27.34 9.92223 27.3527 9.84402C27.3654 9.76581 27.4073 9.69533 27.47 9.64682L28.6455 8.74278L27.1753 9.58739C27.1079 9.62675 27.0282 9.63949 26.9519 9.6231C26.8755 9.60671 26.8081 9.56238 26.7628 9.49881C26.7175 9.43524 26.6976 9.35703 26.707 9.27954C26.7164 9.20204 26.7545 9.13087 26.8137 9.08L29.0428 7.15054L26.1449 8.82411C26.0773 8.86312 25.9976 8.87549 25.9215 8.8588C25.8453 8.8421 25.7781 8.79754 25.733 8.73386C25.688 8.67018 25.6684 8.59197 25.678 8.51457C25.6876 8.43717 25.7258 8.36616 25.7851 8.31547L27.9748 6.44483L25.0075 8.15781C24.9394 8.19818 24.8585 8.21124 24.7812 8.19436C24.7039 8.17748 24.6358 8.13192 24.5908 8.06686C24.5457 8.0018 24.527 7.92208 24.5384 7.84376C24.5497 7.76543 24.5904 7.69434 24.6521 7.64479L24.7572 7.55846L24.3005 7.82247C24.2339 7.85959 24.1561 7.87111 24.0816 7.85487C24.0071 7.83863 23.9411 7.79575 23.896 7.73429C23.8509 7.67283 23.8298 7.59701 23.8367 7.52108C23.8435 7.44516 23.8779 7.37435 23.9333 7.32197L24.7028 6.61438L23.2751 7.43896C23.2104 7.47613 23.1346 7.48898 23.0613 7.47519C22.9881 7.4614 22.9221 7.42188 22.8754 7.36376C22.8286 7.30564 22.8042 7.23273 22.8065 7.15819C22.8088 7.08365 22.8376 7.01238 22.8878 6.95722L24.1866 5.53203L21.6072 7.02166C21.5385 7.06167 21.4572 7.07404 21.3797 7.05627C21.3023 7.0385 21.2345 6.99192 21.1901 6.92598C21.1458 6.86004 21.1282 6.7797 21.1409 6.70126C21.1536 6.62281 21.1957 6.55216 21.2587 6.50364L21.2799 6.48737L20.5755 6.89403C20.5088 6.93273 20.4303 6.94547 20.3548 6.92982C20.2794 6.91416 20.2124 6.87121 20.1666 6.8092C20.1209 6.74718 20.0997 6.67047 20.107 6.59376C20.1143 6.51706 20.1497 6.44575 20.2064 6.39353L21.5152 5.18042L18.5415 6.89716C18.4738 6.93667 18.3936 6.94928 18.317 6.93249C18.2404 6.91569 18.1729 6.87072 18.1278 6.80648C18.0828 6.74224 18.0636 6.66343 18.0739 6.58567C18.0842 6.50791 18.1234 6.43687 18.1837 6.38664L19.652 5.1579L15.4472 7.58411C15.3754 7.62493 15.2903 7.6357 15.2106 7.61406C15.1309 7.59242 15.063 7.54012 15.0216 7.46858C14.9803 7.39704 14.969 7.31207 14.9901 7.23221C15.0112 7.15235 15.0631 7.08409 15.1343 7.04231L22.4543 2.8149C22.5221 2.77443 22.6028 2.76114 22.68 2.7777C22.7573 2.79426 22.8254 2.83943 22.8707 2.90416C22.9161 2.96889 22.9352 3.04836 22.9243 3.12662C22.9135 3.20488 22.8734 3.27613 22.8121 3.32605L21.3469 4.55354L23.6092 3.24909C23.6758 3.2104 23.7544 3.19765 23.8298 3.21331C23.9053 3.22896 23.9723 3.27192 24.018 3.33393C24.0638 3.39595 24.085 3.47266 24.0777 3.54937C24.0703 3.62607 24.035 3.69737 23.9783 3.7496L22.667 4.96333L24.8905 3.67953C24.9591 3.63952 25.0405 3.62715 25.1179 3.64492C25.1954 3.66269 25.2632 3.70927 25.3075 3.77521C25.3519 3.84115 25.3695 3.92149 25.3567 3.99994C25.344 4.07838 25.3019 4.14903 25.239 4.19755L25.2183 4.21319L25.6175 3.98296C25.6821 3.94579 25.7579 3.93294 25.8312 3.94673C25.9045 3.96052 25.9705 4.00004 26.0172 4.05816C26.0639 4.11628 26.0883 4.18919 26.086 4.26373C26.0838 4.33827 26.0549 4.40954 26.0047 4.4647L24.7059 5.89052L26.8912 4.62862C26.9578 4.5915 27.0357 4.57998 27.1102 4.59622C27.1847 4.61246 27.2507 4.65534 27.2957 4.7168C27.3408 4.77826 27.3619 4.85408 27.3551 4.93001C27.3482 5.00593 27.3139 5.07674 27.2585 5.12912L26.4871 5.83671L27.7352 5.11598C27.8032 5.07731 27.8832 5.06548 27.9594 5.08285C28.0357 5.10021 28.1026 5.1455 28.1472 5.2098C28.1917 5.27409 28.2105 5.35272 28.1999 5.4302C28.1893 5.50768 28.1501 5.57838 28.09 5.62838L27.9855 5.71471L30.5975 4.20506C30.665 4.16605 30.7447 4.15368 30.8209 4.17038C30.8971 4.18707 30.9643 4.23163 31.0094 4.29531C31.0544 4.35899 31.074 4.4372 31.0644 4.5146C31.0547 4.59201 31.0165 4.66301 30.9572 4.7137L28.7675 6.58497L31.5735 4.96583C31.6409 4.92711 31.7203 4.91486 31.7962 4.93148C31.8721 4.94809 31.9392 4.99238 31.9842 5.05572C32.0293 5.11905 32.0492 5.19689 32.04 5.27407C32.0308 5.35125 31.9932 5.42225 31.9345 5.47322L29.706 7.40142L32.4306 5.82733C32.4993 5.78867 32.5801 5.77737 32.6567 5.79569C32.7334 5.81401 32.8003 5.86059 32.8441 5.92613C32.8879 5.99167 32.9054 6.07132 32.8929 6.14917C32.8805 6.22701 32.8392 6.2973 32.7772 6.34598L31.6016 7.25002L32.9937 6.44671C33.0616 6.4082 33.1414 6.39646 33.2175 6.41379C33.2936 6.43112 33.3605 6.47627 33.405 6.54038C33.4495 6.60448 33.4684 6.68291 33.4581 6.76027C33.4477 6.83763 33.4088 6.90832 33.349 6.95847L31.4577 8.52256L33.2984 7.45898C33.3669 7.41927 33.448 7.40706 33.5253 7.42483C33.6025 7.4426 33.6701 7.48903 33.7144 7.55472C33.7588 7.62041 33.7765 7.70048 33.7641 7.77875C33.7516 7.85702 33.71 7.92765 33.6475 7.97638L32.6233 8.77594L32.8047 8.67146C32.8723 8.63177 32.9523 8.61889 33.0289 8.63534C33.1055 8.6518 33.1731 8.69641 33.2184 8.76034C33.2637 8.82427 33.2834 8.90288 33.2735 8.9806C33.2636 9.05833 33.2249 9.12952 33.1651 9.1801L32.171 10.0316L32.4325 9.88081C32.4977 9.84358 32.5741 9.83105 32.6478 9.84552C32.7215 9.85999 32.7876 9.90049 32.8339 9.95962C32.8802 10.0187 32.9036 10.0926 32.9 10.1676C32.8964 10.2426 32.8659 10.3138 32.8141 10.3682L31.698 11.53L32.9687 10.7961C33.0361 10.7572 33.1157 10.7449 33.1917 10.7616C33.2678 10.7783 33.3349 10.8227 33.3799 10.8862C33.425 10.9497 33.4447 11.0277 33.4353 11.105C33.4259 11.1823 33.388 11.2533 33.329 11.3041L32.9868 11.5988L33.2921 11.4224C33.3568 11.3852 33.4326 11.3723 33.5059 11.3861C33.5791 11.3999 33.6451 11.4394 33.6918 11.4976C33.7385 11.5557 33.763 11.6286 33.7607 11.7031C33.7584 11.7777 33.7296 11.849 33.6794 11.9041L32.303 13.4156L33.7939 12.5579C33.862 12.5181 33.9427 12.5055 34.0197 12.5227C34.0967 12.5398 34.1644 12.5855 34.2092 12.6505C34.254 12.7154 34.2726 12.7949 34.2612 12.873C34.2499 12.9511 34.2094 13.022 34.148 13.0715L34.081 13.126C34.1485 13.1064 34.2206 13.1102 34.2857 13.1366C34.3508 13.1631 34.4051 13.2107 34.4398 13.2717C34.4746 13.3328 34.4878 13.4037 34.4773 13.4732C34.4668 13.5427 34.4332 13.6066 34.382 13.6546L33.3065 14.6682L34.3075 14.0913C34.3729 14.0536 34.4497 14.0408 34.5237 14.0552C34.5978 14.0697 34.6642 14.1104 34.7106 14.1699C34.757 14.2294 34.7803 14.3037 34.7762 14.379C34.7722 14.4544 34.741 14.5257 34.6885 14.5799L33.0932 16.226L34.9457 15.1543C35.0122 15.1172 35.0901 15.1056 35.1646 15.1219C35.2391 15.1381 35.3051 15.181 35.3502 15.2425C35.3953 15.3039 35.4164 15.3797 35.4095 15.4557C35.4026 15.5316 35.3683 15.6024 35.3129 15.6548L33.6762 17.1475L36.2363 15.6692C36.3048 15.6297 36.3857 15.6177 36.4627 15.6354C36.5398 15.6532 36.6072 15.6995 36.6515 15.7649C36.6958 15.8304 36.7137 15.9102 36.7015 15.9883C36.6894 16.0664 36.6481 16.137 36.5861 16.1859L34.8343 17.5655L37.1347 16.2372C37.2038 16.1974 37.2854 16.1854 37.363 16.2037C37.4406 16.2221 37.5082 16.2693 37.5522 16.3358C37.5961 16.4023 37.6129 16.4831 37.5993 16.5616C37.5857 16.6402 37.5426 16.7106 37.4788 16.7584L35.3942 18.3225L37.3337 17.202C37.4035 17.1595 37.4872 17.146 37.5668 17.1644C37.6465 17.1828 37.7157 17.2317 37.7598 17.3005C37.8039 17.3694 37.8192 17.4527 37.8026 17.5328C37.786 17.6128 37.7387 17.6831 37.6709 17.7288L36.4165 18.6203L37.3656 18.0722C37.4344 18.0325 37.5158 18.0204 37.5931 18.0385C37.6705 18.0565 37.7381 18.1033 37.7823 18.1694C37.8264 18.2355 37.8437 18.3159 37.8307 18.3943C37.8177 18.4727 37.7753 18.5432 37.7122 18.5915L33.919 21.4951L37.3162 19.5337C37.3865 19.4897 37.4715 19.4755 37.5523 19.4942C37.6332 19.5128 37.7033 19.5628 37.7472 19.6332C37.7912 19.7035 37.8054 19.7885 37.7868 19.8693C37.7681 19.9502 37.7181 20.0203 37.6478 20.0642L34.7229 22.0337C34.7587 22.0573 34.789 22.0882 34.8118 22.1245C34.8553 22.1919 34.8712 22.2734 34.8563 22.3522C34.8414 22.4311 34.7968 22.5011 34.7317 22.548L32.2973 24.2935L34.0116 23.3038C34.0472 23.2811 34.087 23.2659 34.1286 23.2591C34.1703 23.2522 34.2128 23.2539 34.2538 23.2639C34.2948 23.274 34.3333 23.2922 34.3671 23.3175C34.4008 23.3428 34.4291 23.3747 34.4502 23.4112C34.4713 23.4477 34.4848 23.4882 34.4899 23.53C34.495 23.5719 34.4916 23.6144 34.4798 23.6549C34.4681 23.6954 34.4482 23.7332 34.4215 23.7658C34.3948 23.7985 34.3618 23.8254 34.3244 23.8449L27.1077 28.011C27.0604 28.0391 27.0064 28.054 26.9513 28.0542Z" fill="#87B1D3"/>
<path d="M19.1284 36.9182C19.0635 36.9182 19.0002 36.8981 18.9473 36.8606C18.8943 36.823 18.8544 36.77 18.8329 36.7087C18.8115 36.6475 18.8096 36.5811 18.8276 36.5187C18.8455 36.4564 18.8825 36.4012 18.9332 36.3607L19.2285 36.1242L18.0398 36.8124C17.9694 36.8533 17.8858 36.865 17.8068 36.8452C17.7279 36.8255 17.6597 36.7757 17.6169 36.7064C17.574 36.6372 17.5599 36.554 17.5774 36.4745C17.5949 36.395 17.6427 36.3255 17.7107 36.2807L23.7506 32.2929L17.1551 36.0992C17.0845 36.1403 17.0007 36.1521 16.9215 36.1321C16.8423 36.1122 16.774 36.0621 16.7313 35.9925C16.6886 35.9228 16.6748 35.8393 16.6928 35.7596C16.7109 35.68 16.7594 35.6105 16.8279 35.5662L23.3589 31.3269L16.761 35.1351C16.7258 35.1564 16.6868 35.1705 16.6462 35.1766C16.6056 35.1828 16.5642 35.1809 16.5243 35.171C16.4844 35.1612 16.4469 35.1436 16.4138 35.1192C16.3807 35.0949 16.3527 35.0642 16.3315 35.0291C16.3103 34.9939 16.2962 34.9549 16.29 34.9143C16.2838 34.8737 16.2857 34.8322 16.2956 34.7924C16.3054 34.7525 16.323 34.7149 16.3474 34.6818C16.3717 34.6488 16.4024 34.6208 16.4375 34.5996L20.4185 32.087L16.4519 34.3781C16.3841 34.4171 16.3041 34.4293 16.2278 34.4122C16.1514 34.3951 16.0842 34.3501 16.0395 34.2859C15.9947 34.2217 15.9756 34.1431 15.9859 34.0656C15.9963 33.988 16.0353 33.9172 16.0953 33.867L17.7908 32.458L15.4365 33.8163C15.3685 33.8559 15.288 33.8683 15.2112 33.8512C15.1343 33.834 15.0668 33.7885 15.022 33.7238C14.9772 33.659 14.9585 33.5798 14.9696 33.5018C14.9807 33.4239 15.0207 33.353 15.0818 33.3033L15.9139 32.6282L14.418 33.4922C14.3505 33.5312 14.2708 33.5436 14.1946 33.5269C14.1184 33.5102 14.0512 33.4656 14.0062 33.402C13.9611 33.3383 13.9415 33.2601 13.9511 33.1827C13.9608 33.1053 13.999 33.0343 14.0583 32.9836L14.906 32.2572L13.4301 33.1087C13.362 33.1485 13.2813 33.1611 13.2043 33.1439C13.1273 33.1267 13.0596 33.0811 13.0148 33.0161C12.97 32.9512 12.9514 32.8717 12.9628 32.7936C12.9741 32.7155 13.0146 32.6446 13.076 32.595L13.3888 32.3379L12.6644 32.7565C12.5992 32.7937 12.5228 32.8062 12.4492 32.7918C12.3755 32.7774 12.3095 32.737 12.2632 32.678C12.2168 32.619 12.1933 32.5453 12.1967 32.4704C12.2002 32.3954 12.2305 32.3242 12.2821 32.2697L13.4764 31.0184L11.5345 32.1402C11.4694 32.1778 11.393 32.1908 11.3192 32.1767C11.2454 32.1627 11.1791 32.1225 11.1325 32.0636C11.0859 32.0046 11.062 31.9309 11.0653 31.8558C11.0685 31.7807 11.0987 31.7094 11.1503 31.6547L12.2915 30.4416L8.22486 32.7902C8.15585 32.8292 8.07463 32.8405 7.9976 32.8219C7.92056 32.8033 7.85347 32.7562 7.80986 32.69C7.76625 32.6238 7.74938 32.5436 7.76265 32.4654C7.77593 32.3873 7.81837 32.3171 7.88139 32.2691L8.82359 31.5627L7.55168 32.2972C7.48267 32.3362 7.40145 32.3475 7.32442 32.3289C7.24738 32.3103 7.18028 32.2632 7.13667 32.197C7.09306 32.1308 7.07619 32.0506 7.08947 31.9724C7.10275 31.8943 7.14518 31.8241 7.2082 31.7761L8.04968 31.1505L6.98173 31.7667C6.91363 31.8051 6.83364 31.8166 6.75749 31.7989C6.68135 31.7813 6.61458 31.7357 6.57032 31.6713C6.52606 31.6069 6.50753 31.5282 6.51836 31.4508C6.5292 31.3734 6.56862 31.3029 6.62887 31.2531L8.40191 29.8141L6.27476 31.0416C6.20658 31.0802 6.12643 31.0917 6.05013 31.074C5.97383 31.0564 5.90694 31.0107 5.86268 30.9461C5.81842 30.8815 5.80001 30.8026 5.8111 30.7251C5.82218 30.6475 5.86194 30.577 5.92253 30.5273L7.57295 29.201L5.646 30.3134C5.5769 30.3526 5.49545 30.3641 5.41818 30.3455C5.3409 30.3269 5.27361 30.2796 5.22996 30.2132C5.18632 30.1468 5.16959 30.0662 5.18319 29.9879C5.19678 29.9096 5.23967 29.8394 5.30315 29.7916L5.9 29.3493L5.52838 29.5626C5.4591 29.6026 5.37713 29.6146 5.29931 29.596C5.22149 29.5774 5.15374 29.5298 5.10999 29.4628C5.06624 29.3958 5.04982 29.3146 5.06411 29.2359C5.07839 29.1572 5.12229 29.0869 5.18678 29.0396L5.7192 28.6486C5.66039 28.6418 5.60469 28.6186 5.55858 28.5814C5.51247 28.5443 5.47784 28.4949 5.45871 28.4389C5.43958 28.3828 5.43673 28.3225 5.45051 28.265C5.46428 28.2074 5.4941 28.1549 5.53651 28.1136L7.32833 26.3619L6.30041 26.9556C6.23378 26.9943 6.1552 27.007 6.07976 26.9914C6.00431 26.9757 5.93729 26.9328 5.89156 26.8707C5.84582 26.8087 5.82458 26.732 5.83191 26.6553C5.83925 26.5786 5.87463 26.5073 5.93129 26.4551L6.6395 25.8007L5.88249 26.2386C5.81714 26.2759 5.74055 26.2883 5.66675 26.2737C5.59296 26.2591 5.5269 26.2184 5.48069 26.159C5.43448 26.0997 5.41121 26.0256 5.41514 25.9505C5.41907 25.8754 5.44995 25.8042 5.5021 25.75L6.64576 24.57L5.40325 25.2895C5.33801 25.3277 5.26117 25.3409 5.18693 25.3268C5.11269 25.3127 5.04607 25.2722 4.99939 25.2127C4.9527 25.1533 4.9291 25.079 4.93296 25.0035C4.93682 24.928 4.96786 24.8565 5.02036 24.8022L6.31355 23.4483L4.96093 24.2291C4.89506 24.2666 4.81781 24.2789 4.74354 24.2637C4.66927 24.2485 4.60304 24.2069 4.55716 24.1466C4.51128 24.0862 4.48886 24.0113 4.49409 23.9357C4.49931 23.8601 4.53181 23.7889 4.58555 23.7355L5.7974 22.5436L4.62371 23.2212C4.55705 23.2624 4.47734 23.2771 4.40036 23.2624C4.32338 23.2477 4.25473 23.2046 4.208 23.1416C4.16128 23.0787 4.13988 23.0005 4.14804 22.9226C4.15621 22.8446 4.19334 22.7726 4.25209 22.7207L5.45143 21.5839L4.34718 22.2233C4.28131 22.2608 4.20406 22.2731 4.12979 22.2579C4.05553 22.2428 3.9893 22.2011 3.94341 22.1408C3.89753 22.0805 3.87512 22.0055 3.88034 21.9299C3.88556 21.8543 3.91806 21.7831 3.9718 21.7297L5.53901 20.1844L3.16161 21.557C3.09419 21.597 3.01418 21.6103 2.93744 21.5942C2.8607 21.578 2.79282 21.5336 2.74725 21.4698C2.70169 21.406 2.68176 21.3274 2.69141 21.2496C2.70106 21.1717 2.73959 21.1004 2.79937 21.0496L4.89148 19.2353L1.87468 20.9745C1.80522 21.0155 1.72261 21.0281 1.6441 21.0096C1.56559 20.9912 1.49724 20.9431 1.45332 20.8755C1.40941 20.8078 1.39332 20.7258 1.40841 20.6466C1.42351 20.5673 1.46862 20.497 1.53434 20.4503L2.61856 19.6645L1.53371 20.2901C1.46507 20.3293 1.38415 20.341 1.30721 20.323C1.23027 20.3049 1.16301 20.2584 1.11896 20.1928C1.0749 20.1272 1.05731 20.0473 1.06972 19.9693C1.08213 19.8912 1.12362 19.8208 1.18586 19.7721L4.18264 17.4572L1.46864 19.0257C1.39915 19.0683 1.31578 19.082 1.23628 19.0641C1.15679 19.0461 1.08745 18.9978 1.04301 18.9295C0.99858 18.8612 0.982565 18.7782 0.998377 18.6982C1.01419 18.6183 1.06058 18.5477 1.12767 18.5014L3.74532 16.5901L1.49304 17.892C1.42876 17.9292 1.35334 17.9424 1.28026 17.9291C1.20719 17.9157 1.14124 17.8769 1.09421 17.8194C1.04718 17.7619 1.02214 17.6895 1.02357 17.6153C1.02501 17.541 1.05281 17.4697 1.10202 17.4141L1.56186 16.891C1.4889 16.9073 1.41251 16.897 1.34653 16.8618C1.28055 16.8266 1.22934 16.769 1.20219 16.6993C1.17504 16.6297 1.17373 16.5526 1.19851 16.4821C1.22329 16.4115 1.27251 16.3522 1.33726 16.3148L2.86881 15.4295C2.93309 15.3923 3.00852 15.3792 3.08159 15.3925C3.15466 15.4058 3.22061 15.4447 3.26764 15.5022C3.31467 15.5597 3.33971 15.632 3.33828 15.7063C3.33685 15.7806 3.30904 15.8519 3.25983 15.9075L2.82877 16.3968L8.48199 13.1328C8.55136 13.0924 8.63363 13.0801 8.71178 13.0987C8.78992 13.1172 8.85794 13.1651 8.90176 13.2324C8.94558 13.2997 8.96184 13.3812 8.94717 13.4602C8.93251 13.5391 8.88803 13.6094 8.82296 13.6565L6.20406 15.5691L7.90891 14.5849C7.97755 14.5458 8.05847 14.534 8.13541 14.5521C8.21235 14.5701 8.27961 14.6166 8.32367 14.6822C8.36772 14.7478 8.38532 14.8277 8.3729 14.9057C8.36049 14.9838 8.319 15.0543 8.25677 15.103L5.26061 17.4178L7.52603 16.1096C7.59549 16.0686 7.6781 16.056 7.75661 16.0745C7.83512 16.093 7.90347 16.141 7.94738 16.2087C7.9913 16.2763 8.00739 16.3583 7.99229 16.4376C7.9772 16.5168 7.93209 16.5871 7.86637 16.6339L6.77965 17.4203L7.39652 17.0643C7.46384 17.0257 7.5431 17.0135 7.61891 17.0301C7.69472 17.0467 7.76166 17.0908 7.80673 17.154C7.85181 17.2172 7.8718 17.2948 7.86281 17.3719C7.85383 17.449 7.81653 17.52 7.75814 17.5711L5.66602 19.3854L7.34272 18.4213C7.40859 18.3838 7.48584 18.3715 7.5601 18.3867C7.63437 18.4019 7.7006 18.4435 7.74648 18.5038C7.79237 18.5642 7.81478 18.6391 7.80956 18.7147C7.80434 18.7903 7.77184 18.8615 7.7181 18.9149L6.15401 20.4603L7.43468 19.7208C7.50134 19.6795 7.58105 19.6648 7.65804 19.6796C7.73502 19.6943 7.80367 19.7374 7.85039 19.8003C7.89712 19.8632 7.91852 19.9414 7.91035 20.0194C7.90219 20.0973 7.86506 20.1694 7.80631 20.2213L6.60509 21.3549L7.61236 20.7731C7.67824 20.7356 7.75549 20.7233 7.82975 20.7384C7.90402 20.7536 7.97025 20.7952 8.01613 20.8556C8.06202 20.9159 8.08443 20.9909 8.07921 21.0665C8.07399 21.1421 8.04148 21.2132 7.98774 21.2667L6.77527 22.4592L7.88952 21.8173C7.95469 21.7796 8.03125 21.7667 8.10516 21.7809C8.17907 21.7951 8.24537 21.8355 8.29191 21.8947C8.33844 21.9539 8.36209 22.0278 8.35851 22.103C8.35492 22.1782 8.32436 22.2495 8.27241 22.304L6.97922 23.6566L8.28742 22.9015C8.35277 22.8642 8.42936 22.8517 8.50316 22.8664C8.57695 22.881 8.64301 22.9217 8.68922 22.9811C8.73543 23.0404 8.7587 23.1144 8.75477 23.1896C8.75084 23.2647 8.71996 23.3359 8.66781 23.3901L7.5229 24.57L8.75102 23.8618C8.81765 23.8231 8.89622 23.8104 8.97167 23.826C9.04712 23.8417 9.11413 23.8847 9.15987 23.9467C9.20561 24.0087 9.22684 24.0854 9.21951 24.1621C9.21218 24.2388 9.1768 24.3101 9.12014 24.3623L8.41255 25.0124L9.16644 24.5776C9.23239 24.5395 9.30995 24.5268 9.38457 24.5419C9.4592 24.557 9.52578 24.5987 9.57183 24.6593C9.61788 24.72 9.64023 24.7953 9.63471 24.8712C9.62918 24.9472 9.59616 25.0185 9.54182 25.0718L7.74938 26.8223L9.88404 25.5898C9.95331 25.5498 10.0353 25.5379 10.1131 25.5564C10.1909 25.575 10.2587 25.6227 10.3024 25.6896C10.3462 25.7566 10.3626 25.8378 10.3483 25.9165C10.334 25.9953 10.2901 26.0655 10.2256 26.1129L10.1468 26.171L10.2957 26.0847C10.3648 26.0454 10.4463 26.0339 10.5235 26.0525C10.6008 26.0711 10.6681 26.1184 10.7117 26.1849C10.7554 26.2513 10.7721 26.3318 10.7585 26.4101C10.7449 26.4885 10.702 26.5587 10.6386 26.6065L10.0417 27.0494L10.7925 26.6177C10.8606 26.5792 10.9408 26.5676 11.0171 26.5853C11.0934 26.603 11.1603 26.6486 11.2045 26.7133C11.2488 26.7779 11.2672 26.8568 11.2561 26.9343C11.245 27.0118 11.2053 27.0824 11.1447 27.132L9.49239 28.4596L11.5194 27.2897C11.5875 27.2513 11.6675 27.2398 11.7437 27.2575C11.8198 27.2751 11.8866 27.3207 11.9308 27.3851C11.9751 27.4495 11.9936 27.5282 11.9828 27.6056C11.972 27.683 11.9325 27.7535 11.8723 27.8033L10.0955 29.2435L12.3478 27.9485C12.4168 27.9095 12.498 27.8982 12.575 27.9168C12.6521 27.9354 12.7192 27.9825 12.7628 28.0487C12.8064 28.1149 12.8233 28.1951 12.81 28.2733C12.7967 28.3514 12.7543 28.4216 12.6913 28.4696L11.8523 29.0953L13.046 28.4071C13.115 28.3672 13.1967 28.3552 13.2742 28.3735C13.3518 28.3919 13.4195 28.4391 13.4634 28.5056C13.5073 28.5721 13.5242 28.6529 13.5106 28.7315C13.4969 28.81 13.4538 28.8804 13.3901 28.9282L12.4466 29.6352L13.823 28.8419C13.8881 28.8042 13.9645 28.7913 14.0383 28.8053C14.1121 28.8194 14.1784 28.8596 14.225 28.9185C14.2716 28.9775 14.2955 29.0512 14.2922 29.1263C14.2889 29.2013 14.2587 29.2727 14.2072 29.3274L13.0654 30.5411L15.0543 29.3874C15.1195 29.3493 15.1964 29.336 15.2706 29.3502C15.3448 29.3643 15.4115 29.4048 15.4581 29.4642C15.5048 29.5236 15.5284 29.598 15.5246 29.6734C15.5207 29.7489 15.4897 29.8204 15.4372 29.8748L14.2428 31.1261L16.4863 29.8304C16.5545 29.7906 16.6351 29.778 16.7122 29.7952C16.7892 29.8123 16.8569 29.858 16.9017 29.9229C16.9465 29.9879 16.965 30.0674 16.9537 30.1455C16.9423 30.2236 16.9019 30.2945 16.8405 30.344L16.5276 30.6005L17.5243 30.0256C17.5917 29.9873 17.671 29.9755 17.7467 29.9924C17.8223 30.0092 17.8891 30.0536 17.9339 30.1169C17.9787 30.1802 17.9984 30.2579 17.9892 30.3348C17.98 30.4118 17.9425 30.4827 17.884 30.5336L17.035 31.2606L18.9632 30.1476C19.0314 30.1078 19.112 30.0952 19.1891 30.1124C19.2661 30.1295 19.3338 30.1752 19.3785 30.2401C19.4233 30.3051 19.4419 30.3846 19.4306 30.4627C19.4192 30.5408 19.3788 30.6117 19.3173 30.6612L18.489 31.3369L20.6787 30.0731C20.7466 30.0339 20.8268 30.0217 20.9033 30.0388C20.9798 30.0559 21.0471 30.1011 21.0918 30.1654C21.1366 30.2298 21.1556 30.3086 21.145 30.3863C21.1344 30.464 21.0951 30.5348 21.0347 30.5849L19.3374 31.9932L33.9152 23.5734C33.9861 23.5337 34.0697 23.5231 34.1482 23.5439C34.2267 23.5647 34.2941 23.6152 34.3361 23.6848C34.378 23.7544 34.3912 23.8376 34.3729 23.9167C34.3546 23.9959 34.3063 24.0648 34.2381 24.109L30.2484 26.6265L33.4047 24.804C33.4753 24.763 33.5592 24.7512 33.6384 24.7711C33.7176 24.7911 33.7858 24.8412 33.8286 24.9108C33.8713 24.9804 33.8851 25.064 33.8671 25.1436C33.849 25.2233 33.8005 25.2927 33.7319 25.3371L27.2116 29.5701L32.4757 26.5314C32.546 26.4921 32.6289 26.4814 32.7069 26.5016C32.7849 26.5219 32.8521 26.5714 32.8945 26.64C32.9369 26.7086 32.9511 26.7909 32.9343 26.8698C32.9174 26.9486 32.8708 27.0179 32.8041 27.0632L22.9053 33.5992L22.9129 33.6086C22.9575 33.6737 22.9758 33.7533 22.9642 33.8314C22.9526 33.9095 22.9119 33.9803 22.8503 34.0296L22.2703 34.4938C22.3275 34.4982 22.3823 34.5183 22.4288 34.5517C22.4753 34.5851 22.5118 34.6307 22.5342 34.6834C22.5566 34.7362 22.5641 34.7941 22.5558 34.8508C22.5476 34.9075 22.5239 34.9608 22.4874 35.005L21.8943 35.7245C21.9448 35.7498 21.9875 35.7883 22.0179 35.8359C22.0483 35.8835 22.0652 35.9384 22.0668 35.9949C22.0685 36.0513 22.0549 36.1072 22.0274 36.1565C21.9998 36.2058 21.9595 36.2468 21.9106 36.275L20.9646 36.8212C20.9011 36.8579 20.8268 36.8711 20.7545 36.8586C20.6823 36.846 20.6167 36.8085 20.5693 36.7526C20.5219 36.6966 20.4957 36.6258 20.4952 36.5524C20.4948 36.4791 20.5201 36.4079 20.5667 36.3513L20.9052 35.9409L19.2854 36.8756C19.2378 36.9036 19.1836 36.9183 19.1284 36.9182ZM16.2749 3.29851C16.21 3.29866 16.1468 3.27865 16.0938 3.24125C16.0408 3.20386 16.0008 3.15092 15.9792 3.08978C15.9576 3.02863 15.9556 2.96229 15.9734 2.89993C15.9911 2.83757 16.0279 2.78228 16.0784 2.7417L16.5789 2.34067C16.5272 2.32763 16.4796 2.30155 16.4407 2.26491C16.4019 2.22828 16.3731 2.18231 16.357 2.13139C16.3409 2.08046 16.3382 2.02627 16.349 1.97398C16.3598 1.92169 16.3838 1.87304 16.4188 1.83266L16.9124 1.26333C16.8673 1.23425 16.8304 1.19404 16.8053 1.14658C16.7802 1.09911 16.7677 1.04599 16.7691 0.992316C16.7705 0.938644 16.7857 0.886231 16.8132 0.840121C16.8407 0.794011 16.8796 0.755757 16.9262 0.729039L17.8709 0.180984C17.935 0.143733 18.0102 0.130459 18.0832 0.143528C18.1562 0.156598 18.2221 0.195161 18.2693 0.252342C18.3165 0.309523 18.3419 0.381605 18.3408 0.455735C18.3398 0.529865 18.3125 0.601225 18.2638 0.657091L18.1111 0.832894L19.3355 0.125928C19.4038 0.0856267 19.4848 0.0727686 19.5622 0.0899548C19.6397 0.107141 19.7077 0.153089 19.7525 0.218503C19.7973 0.283918 19.8156 0.363918 19.8037 0.44232C19.7918 0.520722 19.7506 0.591674 19.6883 0.640824L19.6389 0.680239L20.5192 0.170348C20.591 0.12952 20.676 0.118753 20.7558 0.140396C20.8355 0.162039 20.9034 0.214336 20.9447 0.285873C20.986 0.35741 20.9973 0.442381 20.9762 0.522241C20.9551 0.602102 20.9033 0.67037 20.832 0.712147L16.4313 3.25472C16.3839 3.28284 16.33 3.29794 16.2749 3.29851Z" fill="#87B1D3"/>
<path d="M4.26019 15.123C4.19375 15.123 4.12906 15.1017 4.0755 15.0624C4.02193 15.0231 3.98227 14.9678 3.96227 14.9044C3.94226 14.841 3.94295 14.773 3.96423 14.71C3.98552 14.6471 4.02628 14.5926 4.08063 14.5543L4.90709 13.975L4.68937 14.1001C4.61858 14.1416 4.53433 14.1536 4.45476 14.1336C4.3752 14.1135 4.3067 14.063 4.26403 13.9929C4.22136 13.9228 4.20793 13.8388 4.22664 13.7589C4.24534 13.679 4.29469 13.6097 4.36405 13.5658L10.7148 9.49922L5.21553 12.6756C5.14485 12.7191 5.05975 12.7328 4.97897 12.7136C4.89819 12.6944 4.82834 12.644 4.78478 12.5733C4.74123 12.5026 4.72753 12.4175 4.74672 12.3367C4.7659 12.2559 4.81639 12.1861 4.88707 12.1425L12.4322 7.20002L6.1446 10.8287C6.07417 10.8695 5.9906 10.8813 5.91163 10.8615C5.83267 10.8417 5.76453 10.7919 5.72169 10.7227C5.67885 10.6535 5.66469 10.5703 5.6822 10.4908C5.69972 10.4112 5.74755 10.3417 5.81551 10.2969L12.7087 5.71914L6.15836 9.50109C6.08986 9.54054 6.00897 9.55259 5.93195 9.53483C5.85493 9.51706 5.78749 9.4708 5.74319 9.40534C5.69889 9.33988 5.68101 9.26007 5.69315 9.18197C5.70529 9.10386 5.74655 9.03325 5.80863 8.98432L7.24759 7.85818L5.80863 8.68777C5.74059 8.72663 5.66045 8.73854 5.58405 8.72115C5.50765 8.70375 5.44056 8.65832 5.39605 8.59384C5.35154 8.52935 5.33285 8.45051 5.34367 8.37291C5.3545 8.2953 5.39406 8.22459 5.45452 8.17475L6.70579 7.15122L5.50708 7.84004C5.44151 7.87832 5.36427 7.89145 5.28973 7.87698C5.2152 7.86251 5.14848 7.82143 5.102 7.7614C5.05552 7.70137 5.03246 7.62649 5.03712 7.55071C5.04178 7.47493 5.07384 7.40343 5.12732 7.34954L7.05489 5.38756C7.01031 5.35817 6.97399 5.31787 6.94939 5.27047C6.92479 5.22308 6.91273 5.17018 6.91436 5.11681C6.91599 5.06344 6.93126 5.01137 6.9587 4.96557C6.98615 4.91976 7.02486 4.88175 7.07116 4.85514L8.27738 4.15819C8.34295 4.11991 8.42019 4.10678 8.49472 4.12124C8.56925 4.13571 8.63598 4.17679 8.68246 4.23682C8.72894 4.29685 8.752 4.37174 8.74734 4.44752C8.74268 4.5233 8.71062 4.5948 8.65714 4.64868L7.1819 6.1502L9.71446 4.6881C9.78252 4.64852 9.863 4.63606 9.93984 4.65321C10.0167 4.67036 10.0842 4.71585 10.129 4.7806C10.1738 4.84536 10.1925 4.92462 10.1814 5.00257C10.1703 5.08052 10.1303 5.15141 10.0692 5.20112L8.81793 6.22403L10.7355 5.11666C10.8041 5.07605 10.8856 5.06317 10.9634 5.08064C11.0412 5.09812 11.1094 5.14463 11.154 5.21067C11.1986 5.27672 11.2164 5.35732 11.2036 5.43601C11.1908 5.5147 11.1485 5.58554 11.0852 5.63406L9.64627 6.7602L20.9746 0.224205C21.0451 0.180483 21.1301 0.166566 21.2109 0.185514C21.2917 0.204463 21.3616 0.254726 21.4054 0.325245C21.4491 0.395765 21.463 0.480764 21.444 0.561545C21.4251 0.642326 21.3748 0.712272 21.3043 0.755994L14.4123 5.33813L21.7598 1.09571C21.8305 1.05224 21.9155 1.03863 21.9962 1.05787C22.077 1.07711 22.1467 1.12763 22.1902 1.19832C22.2337 1.269 22.2473 1.35406 22.2281 1.43478C22.2088 1.51551 22.1583 1.58528 22.0876 1.62875L14.5437 6.57125L22.1965 2.15053C22.2673 2.10904 22.3515 2.09703 22.4311 2.11709C22.5106 2.13714 22.5791 2.18765 22.6218 2.25773C22.6645 2.32781 22.6779 2.41185 22.6592 2.49174C22.6405 2.57163 22.5912 2.64097 22.5218 2.68482L11.159 9.95906C11.1644 9.96589 11.1694 9.97299 11.1741 9.98033C11.2173 10.0483 11.2327 10.1303 11.217 10.2094C11.2012 10.2884 11.1556 10.3583 11.0896 10.4045L9.65065 11.4124C9.71533 11.4213 9.77561 11.4502 9.82305 11.495C9.87049 11.5399 9.90271 11.5984 9.9152 11.6625C9.92768 11.7266 9.91981 11.793 9.89267 11.8523C9.86554 11.9117 9.82051 11.9611 9.76389 11.9936L4.4166 15.083C4.36896 15.11 4.31496 15.1239 4.26019 15.123ZM18.6541 25.0005C18.5875 25.0006 18.5225 24.9793 18.4688 24.9398C18.4151 24.9004 18.3753 24.8447 18.3554 24.7811C18.3355 24.7175 18.3365 24.6492 18.3581 24.5861C18.3798 24.523 18.421 24.4686 18.4758 24.4306L19.1546 23.9595L17.7908 24.7459C17.7214 24.784 17.6402 24.7943 17.5635 24.7749C17.4868 24.7555 17.4203 24.7078 17.3774 24.6413C17.3345 24.5749 17.3184 24.4946 17.3323 24.4168C17.3462 24.3389 17.3891 24.2692 17.4523 24.2216L20.3008 22.1796L16.6552 24.2836C16.5857 24.3232 16.5035 24.3347 16.4257 24.3157C16.3479 24.2966 16.2804 24.2484 16.2371 24.181C16.1938 24.1136 16.178 24.0322 16.1929 23.9535C16.2078 23.8748 16.2524 23.8048 16.3174 23.758L20.0543 21.0966L15.6674 23.6316C15.5972 23.6699 15.5151 23.6799 15.4378 23.6596C15.3605 23.6392 15.294 23.5901 15.2518 23.5222C15.2096 23.4543 15.195 23.3729 15.211 23.2946C15.2269 23.2163 15.2723 23.147 15.3377 23.1011L17.0394 21.9681L15.0824 23.098C15.0121 23.1368 14.9297 23.1471 14.852 23.1268C14.7744 23.1065 14.7076 23.0571 14.6653 22.9889C14.623 22.9207 14.6086 22.8388 14.625 22.7603C14.6414 22.6817 14.6873 22.6125 14.7533 22.5668L16.7015 21.2718L14.5744 22.5005C14.5046 22.5406 14.422 22.5522 14.3438 22.5329C14.2656 22.5136 14.1979 22.465 14.1547 22.397C14.1115 22.3291 14.0962 22.2471 14.1119 22.1682C14.1276 22.0892 14.1731 22.0193 14.239 21.9731L18.4971 18.9995L14.0094 21.5902C13.9399 21.6299 13.8577 21.6414 13.7799 21.6223C13.7021 21.6032 13.6346 21.555 13.5913 21.4876C13.548 21.4203 13.5322 21.3388 13.5471 21.2602C13.562 21.1815 13.6066 21.1115 13.6716 21.0647L18.3244 17.757L13.5828 20.4947C13.5134 20.5342 13.4316 20.5456 13.3541 20.5268C13.2766 20.5079 13.2093 20.4602 13.1658 20.3933C13.1223 20.3264 13.1061 20.2455 13.1203 20.167C13.1345 20.0885 13.1782 20.0184 13.2424 19.9711L17.8915 16.5926L13.3556 19.2109C13.2866 19.2502 13.2051 19.2617 13.1278 19.2431C13.0506 19.2245 12.9833 19.1772 12.9396 19.1108C12.896 19.0443 12.8792 18.9638 12.8928 18.8855C12.9064 18.8072 12.9493 18.737 13.0128 18.6891L17.0794 15.6723L13.4163 17.787C13.3472 17.8266 13.2654 17.8383 13.1879 17.8197C13.1104 17.8011 13.0429 17.7537 12.9992 17.687C12.9555 17.6203 12.9389 17.5394 12.9528 17.4609C12.9668 17.3824 13.0101 17.3122 13.0741 17.2646L15.6273 15.3733L13.7917 16.4369C13.7251 16.4745 13.647 16.4864 13.5722 16.4703C13.4974 16.4543 13.4311 16.4114 13.3858 16.3498C13.3405 16.2881 13.3194 16.212 13.3264 16.1358C13.3334 16.0597 13.3681 15.9887 13.4238 15.9364L15.2907 14.2221C15.218 14.2458 15.1392 14.2421 15.0691 14.2116C14.999 14.1812 14.9424 14.1261 14.9101 14.0568C14.8779 13.9874 14.8721 13.9087 14.8939 13.8354C14.9158 13.7622 14.9637 13.6994 15.0286 13.6591L17.4229 12.2764C17.4895 12.2388 17.5676 12.2269 17.6424 12.2429C17.7172 12.259 17.7835 12.3019 17.8288 12.3635C17.8741 12.4252 17.8952 12.5013 17.8882 12.5774C17.8812 12.6536 17.8465 12.7246 17.7908 12.7769L15.9408 14.4761L20.1256 12.0574C20.1948 12.0178 20.2765 12.0061 20.354 12.0247C20.4316 12.0433 20.4991 12.0908 20.5428 12.1575C20.5865 12.2241 20.603 12.305 20.5891 12.3835C20.5752 12.462 20.5318 12.5322 20.4678 12.5798L17.9121 14.4674L21.482 12.4053C21.5511 12.366 21.6325 12.3545 21.7098 12.3731C21.7871 12.3917 21.8544 12.439 21.898 12.5054C21.9417 12.5719 21.9584 12.6524 21.9448 12.7307C21.9312 12.809 21.8883 12.8792 21.8248 12.9271L17.7582 15.9439L22.747 13.066C22.8165 13.025 22.8991 13.0124 22.9776 13.0308C23.0561 13.0493 23.1245 13.0974 23.1684 13.165C23.2123 13.2327 23.2284 13.3147 23.2133 13.3939C23.1982 13.4731 23.1531 13.5435 23.0874 13.5902L18.4383 16.9687L23.7455 13.9031C23.8153 13.8615 23.8984 13.8487 23.9774 13.8673C24.0564 13.8859 24.125 13.9345 24.1689 14.0028C24.2127 14.0711 24.2283 14.1537 24.2124 14.2333C24.1964 14.3128 24.1502 14.3831 24.0834 14.4292L19.4293 17.7382L24.4788 14.8227C24.5486 14.7827 24.6312 14.7711 24.7094 14.7903C24.7875 14.8096 24.8553 14.8583 24.8985 14.9262C24.9417 14.9941 24.957 15.0761 24.9413 15.1551C24.9256 15.234 24.88 15.3039 24.8141 15.3501L20.5598 18.3206L24.9874 15.7643C25.0577 15.7243 25.1408 15.7131 25.2192 15.7331C25.2976 15.753 25.3652 15.8025 25.4079 15.8712C25.4505 15.94 25.4649 16.0225 25.448 16.1016C25.4311 16.1807 25.3842 16.2502 25.3171 16.2955L23.3627 17.5949L25.2496 16.5051C25.3201 16.4613 25.4051 16.4473 25.486 16.4661C25.5668 16.485 25.6368 16.5353 25.6806 16.6058C25.7244 16.6763 25.7384 16.7613 25.7195 16.8422C25.7006 16.923 25.6504 16.993 25.5799 17.0368L23.8757 18.1705L25.4235 17.2746C25.4931 17.2349 25.5752 17.2234 25.653 17.2425C25.7308 17.2616 25.7983 17.3098 25.8416 17.3771C25.8849 17.4445 25.9008 17.5259 25.8858 17.6046C25.8709 17.6833 25.8263 17.7533 25.7613 17.8001L22.0263 20.4603L25.4886 18.4614C25.558 18.4221 25.6399 18.4109 25.7174 18.43C25.7949 18.4491 25.8621 18.4972 25.9054 18.5642C25.9486 18.6313 25.9646 18.7124 25.95 18.7908C25.9355 18.8693 25.8915 18.9392 25.827 18.9863L22.9791 21.0284L25.3284 19.672C25.3983 19.6313 25.4813 19.6193 25.5599 19.6385C25.6385 19.6577 25.7066 19.7066 25.7499 19.7749C25.7933 19.8432 25.8084 19.9257 25.7922 20.005C25.776 20.0843 25.7298 20.1542 25.6631 20.2L24.9855 20.6724L25.0106 20.658C25.0793 20.6194 25.16 20.6081 25.2367 20.6264C25.3134 20.6447 25.3803 20.6913 25.4241 20.7568C25.4679 20.8224 25.4853 20.902 25.4729 20.9799C25.4605 21.0577 25.4192 21.128 25.3572 21.1767L24.2135 22.0569C24.2868 22.0302 24.3673 22.0318 24.4395 22.0614C24.5116 22.091 24.5701 22.1465 24.6034 22.217C24.6368 22.2875 24.6426 22.3678 24.6198 22.4424C24.597 22.5169 24.5471 22.5803 24.48 22.62L20.4516 24.9455C20.3829 24.9841 20.3021 24.9954 20.2255 24.9771C20.1488 24.9588 20.0819 24.9122 20.0381 24.8467C19.9943 24.7811 19.9768 24.7015 19.9892 24.6236C20.0016 24.5458 20.043 24.4755 20.105 24.4268L21.2217 23.5691L18.8105 24.958C18.7631 24.9857 18.7091 25.0003 18.6541 25.0005Z" fill="#87B1D3"/>
<path d="M21.8412 30.4553C33.8778 28.011 35.2798 11.1577 23.6343 6.98971C21.2422 6.16949 18.659 6.08622 16.2191 6.75069C13.7792 7.41515 11.595 8.79675 9.94917 10.7166C2.51414 19.5737 10.5811 32.7852 21.8412 30.4553ZM9.5325 12.6361C15.4616 2.49329 30.7559 6.96656 30.8441 18.5395C30.8412 20.8815 30.1313 23.168 28.8074 25.0999C27.4835 27.0317 25.6072 28.5189 23.4241 29.3667C13.4627 33.113 4.17645 21.7253 9.5325 12.6361Z" fill="#262626"/>
<path d="M20.6269 24.9236C27.1485 23.7493 28.1213 14.5637 21.7743 12.3258C10.8501 9.42101 9.20469 26.1742 20.6269 24.9236ZM14.3887 15.4696C17.3542 10.1887 25.2165 12.6937 25.2178 18.5471C24.4426 28.6843 10.1794 24.3505 14.3887 15.4696Z" fill="#262626"/>
<path d="M1.30038 20.9482C1.97919 21.5507 3.09845 21.6227 3.84608 22.0619C3.75724 21.9305 3.78352 22.2714 3.79666 22.4372C4.08975 23.6034 4.51699 24.7316 5.06982 25.7994C5.21848 26.1255 5.39275 26.4393 5.59097 26.7378C5.82559 27.0507 5.82871 26.863 5.77866 27.1351C4.84021 29.5244 4.19206 29.8735 6.47687 31.8161C7.85639 33.4715 9.14332 32.8034 10.7937 32.0169C12.2718 32.9774 13.9216 33.643 15.6524 33.977C15.715 34.0058 15.658 33.9401 15.7481 34.0602C16.8743 36.6935 16.5076 37.169 19.7866 36.9544C21.9763 37.1721 22.5212 35.869 23.0536 34.0096C24.7507 33.5985 26.3738 32.9265 27.8648 32.0176C29.2593 32.7683 30.8052 33.5028 32.0002 32.0276C33.7244 30.5767 34.5884 29.8422 33.3209 27.6394C33.2483 27.4686 33.0344 27.1645 33.04 26.9812C33.9934 25.421 34.6955 23.7206 35.1209 21.9424C38.4148 21.059 38.1539 19.8365 37.9462 16.8228C37.6422 15.5396 36.0537 15.5184 35.0865 14.9772C34.9394 14.8289 35.1572 14.9603 35.1077 14.837C34.6814 13.1457 34.0068 11.5269 33.1057 10.0334C33.06 9.86763 33.005 10.151 33.055 9.86388C33.8058 7.94694 34.7549 7.19305 32.7578 5.58142C31.2563 3.68825 30.092 3.82214 28.0337 4.97768C26.5575 4.01925 24.9101 3.35516 23.1819 3.02196C23.1193 2.99318 23.1763 3.05887 23.0862 2.93875C21.955 0.306081 22.3242 -0.168149 19.0421 0.0451919C16.8524 -0.172528 16.3087 1.13192 15.7763 2.99005C14.0793 3.40139 12.4563 4.07338 10.9652 4.98206C9.57 4.2313 8.02469 3.49681 6.82973 4.97268C5.10736 6.42665 4.24461 7.15927 5.51152 9.3615C5.58409 9.5323 5.79806 9.83635 5.79243 10.0197C4.84087 11.5808 4.14058 13.2818 3.7172 15.0604C2.53851 15.4921 0.995696 15.8243 0.865564 17.2564C0.885584 18.4494 0.502697 19.9578 1.30038 20.9482ZM1.77211 17.3196C1.72143 16.266 2.78376 16.1071 3.54891 15.7924C3.80988 15.7126 4.06373 15.6111 4.3078 15.4889C4.68318 15.2531 4.66441 14.8008 4.77515 14.3916C5.21283 12.8591 5.86853 11.3975 6.72212 10.0516C6.35862 7.83057 4.66629 7.6873 7.17195 5.60582C8.00842 4.58354 8.69036 4.68301 9.75143 5.2855C10.5253 5.61583 10.7912 5.82479 11.5576 5.35682C12.9255 4.54191 14.4079 3.93666 15.9552 3.56125C17.7439 2.89182 16.2912 0.307958 19.2435 0.673953C19.9017 0.673953 20.9722 0.537565 21.3707 1.17446C21.8212 1.8539 21.7842 3.14145 22.5594 3.5331C24.0698 3.88735 25.5229 4.45197 26.8763 5.21042C28.633 6.72883 29.8111 3.41673 31.521 5.57704C31.9808 6.01499 32.8886 6.71444 33.0444 7.35447C33.0951 8.33608 32.2361 9.18319 32.089 10.1279C32.2069 10.4 32.3605 10.6553 32.5458 10.8868C33.1185 11.8776 33.5765 12.9304 33.9109 14.025C34.0485 14.4735 34.0648 15.2481 34.4446 15.5265C37.3162 16.5557 37.1798 16.4649 37.0722 19.5524C37.1517 21.0377 35.4456 20.9363 34.5278 21.5201C34.148 21.7509 34.1686 22.2145 34.0604 22.6174C33.6284 24.1048 32.9971 25.5268 32.1835 26.8448C32.0584 27.1432 32.1247 27.2046 32.253 27.5049C33.1489 29.2078 33.4786 29.9511 31.7631 31.305C30.5187 32.9472 29.6835 31.8224 28.2264 31.3581C27.1547 31.3844 26.2788 32.4117 25.2233 32.6939C24.3262 33.235 22.8985 33.1318 22.2134 33.8613C21.5146 35.1876 21.7586 36.5966 19.7322 36.33C16.7473 36.6341 17.6213 35.2796 16.4088 33.5041C14.8469 33.1621 13.3454 32.5867 11.9549 31.7973C11.5207 31.5471 11.2286 31.2274 10.7224 31.38C9.59628 31.7773 8.38568 32.8465 7.41282 31.5271C4.99036 29.5125 5.73487 29.4237 6.74652 26.918C6.47562 26.2649 5.95885 25.6793 5.70296 25.0017C5.04542 23.9519 5.00225 22.3609 4.38225 21.4763C1.48807 20.2256 1.57378 20.7587 1.77461 17.3164L1.77211 17.3196Z" fill="#262626"/>
<path d="M3.80219 22.4924C3.80138 22.4714 3.79887 22.4504 3.79468 22.4298L3.80219 22.4924ZM3.80219 22.4924C3.80594 22.5255 3.80656 22.5274 3.80219 22.4924V22.4924Z" fill="#262626"/>
</svg>
