<svg width="23" height="22" viewBox="0 0 23 22" fill="none" xmlns="http://www.w3.org/2000/svg">
<path d="M17.6199 21.9085C17.5637 21.9085 17.5086 21.8935 17.4603 21.8649C17.412 21.8364 17.3722 21.7954 17.3451 21.7463C17.318 21.6972 17.3046 21.6416 17.3062 21.5856C17.3079 21.5295 17.3246 21.4748 17.3545 21.4274L17.6261 20.9946L16.8534 21.4412C16.791 21.4771 16.7181 21.4905 16.647 21.4791C16.5759 21.4676 16.5109 21.4321 16.4629 21.3783C16.415 21.3246 16.3869 21.256 16.3836 21.1841C16.3802 21.1122 16.4017 21.0413 16.4444 20.9833L17.2285 19.917L15.6943 20.8027C15.628 20.842 15.5496 20.8555 15.474 20.8407C15.3984 20.8258 15.3309 20.7837 15.2843 20.7223C15.2378 20.6609 15.2155 20.5845 15.2217 20.5077C15.2279 20.4309 15.2622 20.3591 15.3179 20.3059L16.1565 19.4968L14.7723 20.3009C14.7055 20.3391 14.6269 20.3515 14.5516 20.3356C14.4763 20.3197 14.4095 20.2767 14.3639 20.2147C14.3182 20.1527 14.297 20.0761 14.3042 19.9995C14.3114 19.9228 14.3465 19.8515 14.4028 19.7991L15.7426 18.566L13.7286 19.7282C13.6609 19.7672 13.5812 19.7795 13.5049 19.7628C13.4287 19.7461 13.3614 19.7016 13.3162 19.6379C13.2711 19.5743 13.2513 19.496 13.2607 19.4186C13.2702 19.3411 13.3082 19.2699 13.3673 19.2189L15.0859 17.7468L12.6642 19.1449C12.595 19.1849 12.5131 19.1969 12.4353 19.1785C12.3576 19.1601 12.2897 19.1128 12.2457 19.0461C12.2017 18.9794 12.1848 18.8984 12.1984 18.8197C12.2121 18.741 12.2553 18.6704 12.3192 18.6224L13.3416 17.8547L11.867 18.7059C11.7984 18.746 11.7171 18.7585 11.6396 18.741C11.562 18.7235 11.4941 18.6772 11.4494 18.6115C11.4047 18.5457 11.3866 18.4655 11.3988 18.387C11.411 18.3084 11.4526 18.2375 11.5151 18.1884L14.8111 15.5767L4.99386 21.2455C4.92343 21.2844 4.84076 21.2947 4.76293 21.2743C4.6851 21.254 4.61807 21.2045 4.5757 21.1361C4.53333 21.0677 4.51886 20.9857 4.53529 20.9069C4.55171 20.8282 4.59777 20.7587 4.66394 20.713L12.651 15.4343L5.09234 19.7991C5.02133 19.8397 4.93727 19.8509 4.85809 19.8304C4.77892 19.8099 4.71088 19.7593 4.6685 19.6893C4.62612 19.6194 4.61275 19.5356 4.63123 19.456C4.64971 19.3763 4.69859 19.307 4.76743 19.2628L9.35494 16.355L5.26859 18.714C5.19783 18.7529 5.11479 18.7631 5.03676 18.7423C4.95872 18.7215 4.89171 18.6714 4.84968 18.6025C4.80765 18.5335 4.79383 18.451 4.81111 18.3721C4.82839 18.2932 4.87542 18.2241 4.94243 18.179L10.4946 14.6101L5.46428 17.5148C5.39316 17.558 5.30778 17.5713 5.22691 17.5515C5.14604 17.5318 5.07631 17.4808 5.03306 17.4097C4.98981 17.3386 4.97658 17.2532 4.99629 17.1723C5.01599 17.0915 5.06701 17.0217 5.13812 16.9785L8.47557 14.8459L5.62987 16.4886C5.55908 16.5298 5.47501 16.5416 5.39561 16.5216C5.31621 16.5016 5.24778 16.4514 5.20494 16.3816C5.1621 16.3118 5.14826 16.228 5.16636 16.1482C5.18447 16.0683 5.23309 15.9987 5.30183 15.9542L9.22636 13.3958L5.81239 15.3665C5.74228 15.4073 5.65909 15.4194 5.58029 15.4001C5.50149 15.3809 5.4332 15.3319 5.38977 15.2634C5.34635 15.1949 5.33115 15.1122 5.34738 15.0327C5.36362 14.9532 5.41001 14.8832 5.47682 14.8372L10.8709 11.0958L5.79483 14.0287C5.72461 14.0703 5.64093 14.0829 5.56158 14.0638C5.48222 14.0447 5.41344 13.9954 5.36983 13.9264C5.32623 13.8574 5.31125 13.7741 5.32806 13.6943C5.34488 13.6144 5.39217 13.5442 5.45989 13.4987L9.11785 10.9728L5.08293 13.3023C5.01297 13.3414 4.9307 13.3523 4.85301 13.3326C4.77532 13.3129 4.7081 13.2643 4.66516 13.1966C4.62222 13.129 4.60681 13.0474 4.6221 12.9688C4.63738 12.8901 4.68221 12.8203 4.74736 12.7736L8.69887 10.0245L4.33841 12.5422C4.26772 12.586 4.1825 12.5999 4.10151 12.5809C4.02053 12.5619 3.95041 12.5116 3.90657 12.4409C3.86274 12.3702 3.84879 12.2849 3.86778 12.204C3.88678 12.123 3.93717 12.0528 4.00787 12.009L6.21883 10.5394L3.76388 11.9563C3.69387 11.9965 3.61108 12.0081 3.53271 11.9888C3.45434 11.9695 3.38644 11.9207 3.34313 11.8526C3.29983 11.7845 3.28445 11.7023 3.3002 11.6231C3.31595 11.544 3.36161 11.4739 3.42769 11.4276L7.97129 8.25822L2.96982 11.1434C2.89899 11.1838 2.81524 11.1949 2.73633 11.1746C2.65741 11.1542 2.58952 11.1039 2.54704 11.0344C2.50455 10.9648 2.49082 10.8815 2.50874 10.8019C2.52665 10.7224 2.57482 10.653 2.64303 10.6084L3.2182 10.2371L2.4925 10.6561C2.42703 10.6944 2.34991 10.7076 2.27543 10.6934C2.20095 10.6791 2.13414 10.6384 2.08738 10.5787C2.04062 10.519 2.01707 10.4444 2.02109 10.3687C2.02512 10.293 2.05644 10.2213 2.10927 10.1669L3.67732 8.53608L1.59306 9.73909C1.53713 9.7713 1.47263 9.78547 1.40835 9.77966C1.34407 9.77386 1.28315 9.74836 1.2339 9.70666C1.18464 9.66495 1.14946 9.60906 1.13314 9.54662C1.11682 9.48417 1.12016 9.41821 1.14272 9.35774L1.51215 8.37426L1.32775 8.48089C1.25575 8.52182 1.1705 8.53261 1.09057 8.51091C1.01065 8.48922 0.942557 8.43679 0.901149 8.36507C0.859741 8.29335 0.848382 8.20816 0.869549 8.1281C0.890717 8.04803 0.942693 7.97959 1.01414 7.93771L1.95497 7.39328C2.01095 7.36096 2.07555 7.34673 2.13994 7.35254C2.20432 7.35834 2.26533 7.3839 2.31463 7.42571C2.36393 7.46753 2.3991 7.52355 2.41533 7.58612C2.43157 7.64869 2.42807 7.71475 2.40532 7.77526L2.04027 8.76L5.28928 6.88398C5.35475 6.84572 5.43187 6.83247 5.50635 6.8467C5.58084 6.86092 5.64764 6.90165 5.69441 6.96135C5.74117 7.02104 5.76472 7.09566 5.76069 7.17138C5.75667 7.24711 5.72534 7.31881 5.67252 7.37321L4.10446 9.00399L13.7361 3.44053C13.807 3.39711 13.8923 3.38365 13.9732 3.40312C14.0541 3.42259 14.1239 3.47338 14.1673 3.54433C14.2107 3.61528 14.2242 3.70057 14.2047 3.78144C14.1852 3.86231 14.1344 3.93213 14.0635 3.97555L13.4934 4.34373L14.0196 4.03952C14.0896 3.99793 14.1731 3.98522 14.2524 4.0041C14.3316 4.02299 14.4004 4.07197 14.4442 4.14069C14.488 4.2094 14.5033 4.29245 14.4869 4.37226C14.4705 4.45207 14.4237 4.52237 14.3564 4.56827L9.81281 7.73637L14.4906 5.03555C14.5613 4.99164 14.6466 4.9776 14.7276 4.99654C14.8087 5.01548 14.8789 5.06584 14.9228 5.13653C14.9667 5.20723 14.9807 5.29248 14.9618 5.37353C14.9429 5.45457 14.8925 5.52478 14.8218 5.56869L12.6071 7.04016L14.8318 5.75623C14.902 5.71354 14.9861 5.70007 15.0661 5.71873C15.1461 5.73739 15.2156 5.78668 15.2596 5.85602C15.3036 5.92535 15.3187 6.00919 15.3016 6.08952C15.2845 6.16985 15.2365 6.24025 15.168 6.28561L11.2165 9.0341L15.5312 6.54214C15.6014 6.50053 15.6851 6.48793 15.7644 6.50703C15.8438 6.52612 15.9126 6.5754 15.9562 6.6444C15.9998 6.7134 16.0148 6.79668 15.998 6.87655C15.9811 6.95642 15.9339 7.02658 15.8661 7.07214L12.2088 9.59671L17.0892 6.77923C17.1593 6.73843 17.2425 6.72639 17.3213 6.74562C17.4001 6.76486 17.4684 6.81387 17.5118 6.88239C17.5553 6.9509 17.5705 7.03357 17.5542 7.11304C17.538 7.19252 17.4916 7.26261 17.4248 7.30861L12.0357 11.0494L18.9439 7.06085C19.0147 7.01969 19.0988 7.00784 19.1782 7.02785C19.2576 7.04785 19.326 7.09811 19.3688 7.16789C19.4117 7.23768 19.4255 7.32144 19.4074 7.4013C19.3893 7.48115 19.3407 7.55076 19.272 7.59525L15.343 10.1562L20.337 7.27097C20.4079 7.23135 20.4913 7.22077 20.5699 7.24145C20.6484 7.26213 20.7158 7.31246 20.758 7.38185C20.8002 7.45124 20.8138 7.53428 20.796 7.6135C20.7782 7.69273 20.7303 7.76195 20.6625 7.80662L17.3313 9.93353L21.5789 7.48109C21.6497 7.44077 21.7335 7.42961 21.8124 7.44997C21.8913 7.47034 21.9592 7.52062 22.0017 7.59017C22.0441 7.65973 22.0579 7.74309 22.04 7.82259C22.022 7.9021 21.9739 7.97151 21.9057 8.01611L16.3522 11.5856L22.1735 8.22686C22.2087 8.20553 22.2479 8.19135 22.2886 8.18513C22.3293 8.17891 22.3709 8.18077 22.4109 8.19062C22.4509 8.20046 22.4886 8.21809 22.5218 8.2425C22.555 8.2669 22.5831 8.29761 22.6044 8.33286C22.6257 8.36811 22.6399 8.40722 22.6461 8.44796C22.6523 8.48869 22.6505 8.53025 22.6406 8.57027C22.6308 8.61028 22.6132 8.64796 22.5888 8.68116C22.5643 8.71436 22.5336 8.74243 22.4984 8.76376L17.9109 11.6722L21.3211 9.70083C21.3916 9.66138 21.4747 9.65068 21.5529 9.67097C21.6311 9.69126 21.6985 9.74097 21.741 9.80974C21.7835 9.8785 21.7978 9.96101 21.7809 10.0401C21.764 10.1191 21.7172 10.1886 21.6504 10.234L13.6658 15.512L18.1975 12.8997C18.2661 12.8604 18.347 12.8484 18.424 12.8662C18.5011 12.884 18.5685 12.9302 18.6129 12.9957C18.6573 13.0611 18.6754 13.1408 18.6635 13.219C18.6516 13.2971 18.6106 13.3679 18.5488 13.4171L15.2533 16.0289L17.569 14.6923C17.6382 14.6532 17.7197 14.6419 17.7969 14.6605C17.8741 14.6792 17.9414 14.7264 17.9851 14.7928C18.0288 14.8591 18.0457 14.9396 18.0324 15.0179C18.0191 15.0962 17.9766 15.1666 17.9134 15.2147L16.891 15.9812L17.7064 15.512C17.7741 15.4723 17.8543 15.4593 17.9311 15.4758C18.0079 15.4923 18.0757 15.5371 18.1211 15.6012C18.1666 15.6653 18.1863 15.7441 18.1764 15.822C18.1665 15.8999 18.1277 15.9713 18.0677 16.022L16.3466 17.4916L17.8845 16.604C17.9513 16.5663 18.0296 16.5544 18.1046 16.5705C18.1796 16.5866 18.246 16.6296 18.2915 16.6914C18.3369 16.7532 18.3581 16.8295 18.3511 16.9058C18.344 16.9822 18.3093 17.0533 18.2533 17.1058L16.9111 18.3389L18.0564 17.6772C18.1227 17.6373 18.2015 17.6233 18.2776 17.638C18.3536 17.6526 18.4215 17.6949 18.4682 17.7567C18.515 17.8184 18.5372 17.8953 18.5306 17.9725C18.5241 18.0496 18.4892 18.1216 18.4327 18.1746L17.5948 18.9837L18.2145 18.6256C18.277 18.5901 18.3498 18.577 18.4208 18.5884C18.4919 18.5998 18.5569 18.635 18.6052 18.6883C18.6532 18.7421 18.6812 18.8107 18.6845 18.8827C18.6878 18.9546 18.6662 19.0255 18.6234 19.0835L17.84 20.1497L18.4095 19.8211C18.4702 19.7859 18.541 19.7722 18.6104 19.782C18.6799 19.7918 18.744 19.8246 18.7927 19.8752C18.8413 19.9257 18.8715 19.9911 18.8786 20.0609C18.8857 20.1307 18.8691 20.2008 18.8316 20.2601L18.518 20.7563C18.5883 20.7529 18.6577 20.7733 18.7151 20.8141C18.7724 20.8549 18.8143 20.9139 18.8341 20.9814C18.8538 21.049 18.8503 21.1212 18.824 21.1865C18.7978 21.2518 18.7503 21.3064 18.6893 21.3415L17.7767 21.8689C17.7287 21.8956 17.6747 21.9092 17.6199 21.9085Z" fill="#B5B5B5"/>
<path d="M8.29935 6.61673C8.23524 6.61673 8.17267 6.59709 8.12006 6.56044C8.06746 6.5238 8.02735 6.47191 8.00514 6.41177C7.98293 6.35163 7.97968 6.28612 7.99584 6.22408C8.012 6.16204 8.04678 6.10644 8.09551 6.06477L10.3585 4.13293L9.328 4.72754C9.2618 4.76623 9.18372 4.77934 9.10852 4.76437C9.03332 4.7494 8.96621 4.70741 8.91987 4.64632C8.87353 4.58523 8.85118 4.50928 8.85704 4.43283C8.8629 4.35638 8.89656 4.28472 8.95167 4.2314L10.6332 2.59122L10.2237 2.82768C10.161 2.86405 10.0876 2.87758 10.0161 2.86597C9.94452 2.85435 9.8792 2.81832 9.83123 2.76398C9.78325 2.70965 9.75558 2.64037 9.75291 2.56794C9.75024 2.4955 9.77275 2.42438 9.8166 2.36667L10.7675 1.11223C10.7033 1.08609 10.6498 1.03901 10.6157 0.978627C10.574 0.906673 10.5627 0.821131 10.5841 0.740801C10.6055 0.660471 10.6579 0.591927 10.7298 0.550234L11.608 0.0421838C11.6707 0.00586292 11.7441 -0.00759061 11.8157 0.00411267C11.8872 0.0158159 11.9525 0.0519529 12.0004 0.106374C12.0483 0.160795 12.0759 0.230137 12.0785 0.3026C12.081 0.375063 12.0584 0.44617 12.0144 0.503819L11.2548 1.50738L12.4836 0.797987C12.5497 0.759291 12.6278 0.746188 12.703 0.761153C12.7782 0.776118 12.8453 0.818114 12.8917 0.879204C12.938 0.940294 12.9604 1.01624 12.9545 1.0927C12.9487 1.16915 12.915 1.2408 12.8599 1.29412L11.1802 2.93368L12.9991 1.88308C13.0669 1.84236 13.1476 1.82878 13.2251 1.84504C13.3025 1.86131 13.3709 1.90623 13.4166 1.9708C13.4623 2.03537 13.4819 2.11482 13.4714 2.19324C13.461 2.27165 13.4214 2.34323 13.3604 2.39364L11.0974 4.32611L13.499 2.93932C13.5347 2.91841 13.5742 2.90475 13.6152 2.89915C13.6561 2.89355 13.6978 2.89611 13.7378 2.90668C13.7778 2.91725 13.8153 2.93563 13.8481 2.96075C13.881 2.98587 13.9085 3.01724 13.9292 3.05306C13.9499 3.08888 13.9633 3.12843 13.9686 3.16945C13.974 3.21046 13.9711 3.25213 13.9603 3.29204C13.9495 3.33195 13.9308 3.36933 13.9055 3.40202C13.8801 3.43471 13.8486 3.46206 13.8126 3.4825L8.45616 6.57533C8.40842 6.60264 8.35435 6.61692 8.29935 6.61673Z" fill="#B5B5B5"/>
<path fill-rule="evenodd" clip-rule="evenodd" d="M12.2705 1.00235L11.3957 1.50738L12.1553 0.503819C12.1993 0.44617 12.2219 0.375063 12.2194 0.3026C12.2168 0.230137 12.1892 0.160795 12.1413 0.106374C12.0934 0.0519529 12.0281 0.0158159 11.9566 0.00411267C11.885 -0.00759061 11.8116 0.00586292 11.7488 0.0421838L10.8707 0.550234C10.7988 0.591927 10.7464 0.660471 10.725 0.740801C10.7036 0.821131 10.7149 0.906673 10.7566 0.978627C10.7907 1.03901 10.8442 1.08609 10.9084 1.11223L9.9575 2.36667C9.91365 2.42438 9.89114 2.4955 9.89381 2.56794C9.89647 2.64037 9.92415 2.70965 9.97212 2.76398C10.0201 2.81832 10.0854 2.85435 10.157 2.86597C10.2285 2.87758 10.3019 2.86405 10.3646 2.82768L10.7741 2.59122L9.09256 4.2314C9.03746 4.28472 9.00379 4.35638 8.99793 4.43283C8.99207 4.50928 9.01443 4.58523 9.06077 4.64632C9.1071 4.70741 9.17422 4.7494 9.24942 4.76437C9.32462 4.77934 9.4027 4.76623 9.46889 4.72754L10.4994 4.13293L8.2364 6.06477C8.18768 6.10644 8.15289 6.16204 8.13674 6.22408C8.12058 6.28612 8.12383 6.35163 8.14604 6.41177C8.16825 6.47191 8.20836 6.5238 8.26096 6.56044C8.29864 6.58669 8.34143 6.60422 8.38624 6.61205L4.24533 9.00394L5.81339 7.37316C5.86621 7.31875 5.89754 7.24705 5.90156 7.17133C5.90558 7.09561 5.88204 7.02099 5.83527 6.9613C5.78851 6.9016 5.72171 6.86087 5.64722 6.84664C5.57274 6.83242 5.49562 6.84566 5.43015 6.88392L2.18114 8.75995L2.54618 7.77521C2.56894 7.7147 2.57244 7.64864 2.5562 7.58607C2.53997 7.5235 2.5048 7.46747 2.4555 7.42566C2.4062 7.38385 2.34519 7.35829 2.28081 7.35248C2.21642 7.34668 2.15182 7.36091 2.09584 7.39323L1.155 7.93766C1.08356 7.97954 1.03159 8.04798 1.01042 8.12805C0.989251 8.20811 1.00061 8.29329 1.04202 8.36501C1.08343 8.43673 1.15152 8.48916 1.23144 8.51086C1.31136 8.53256 1.39662 8.52176 1.46862 8.48083L1.65302 8.37421L1.28359 9.35769C1.26103 9.41816 1.25769 9.48412 1.27401 9.54656C1.29032 9.60901 1.32551 9.66489 1.37476 9.7066C1.42402 9.74831 1.48494 9.7738 1.54922 9.77961C1.6135 9.78542 1.678 9.77125 1.73393 9.73904L3.81819 8.53603L2.25014 10.1668C2.19731 10.2212 2.16599 10.2929 2.16196 10.3686C2.15794 10.4444 2.18149 10.519 2.22825 10.5787C2.27501 10.6384 2.34182 10.6791 2.4163 10.6933C2.49078 10.7075 2.5679 10.6943 2.63337 10.656L3.35906 10.2371L2.7839 10.6084C2.71569 10.653 2.66752 10.7224 2.6496 10.8019C2.63169 10.8814 2.64542 10.9648 2.6879 11.0343C2.73039 11.1039 2.79828 11.1542 2.87719 11.1745C2.95611 11.1949 3.03985 11.1837 3.11068 11.1434L8.11216 8.25817L3.56856 11.4275C3.50248 11.4739 3.45681 11.5439 3.44107 11.6231C3.42532 11.7022 3.4407 11.7844 3.484 11.8525C3.52731 11.9207 3.59521 11.9694 3.67358 11.9888C3.75194 12.0081 3.83474 11.9964 3.90475 11.9563L6.3597 10.5394L4.14874 12.009C4.07804 12.0528 4.02765 12.1229 4.00865 12.2039C3.98966 12.2849 4.00361 12.3701 4.04744 12.4408C4.09127 12.5115 4.1614 12.5619 4.24238 12.5809C4.32337 12.5999 4.40858 12.5859 4.47928 12.5421L8.83973 10.0244L4.88823 12.7735C4.82308 12.8202 4.77825 12.89 4.76297 12.9687C4.74768 13.0474 4.76309 13.1289 4.80603 13.1966C4.84897 13.2642 4.91619 13.3129 4.99388 13.3325C5.07157 13.3522 5.15384 13.3414 5.2238 13.3023L9.25872 10.9728L5.60076 13.4986C5.53304 13.5442 5.48574 13.6143 5.46893 13.6942C5.45211 13.7741 5.4671 13.8574 5.5107 13.9264C5.55431 13.9954 5.62309 14.0446 5.70245 14.0637C5.7818 14.0828 5.86548 14.0702 5.93569 14.0286L11.0118 11.0957L5.61769 14.8371C5.55088 14.8831 5.50449 14.9532 5.48825 15.0327C5.47202 15.1121 5.48722 15.1948 5.53064 15.2633C5.57407 15.3318 5.64236 15.3809 5.72116 15.4001C5.79996 15.4193 5.88315 15.4073 5.95326 15.3665L9.36723 13.3957L5.4427 15.9542C5.37395 15.9987 5.32534 16.0683 5.30723 16.1481C5.28913 16.228 5.30297 16.3118 5.34581 16.3815C5.38864 16.4513 5.45707 16.5016 5.53648 16.5216C5.61588 16.5416 5.69995 16.5297 5.77073 16.4886L8.61644 14.8459L5.27899 16.9784C5.20788 17.0217 5.15686 17.0914 5.13715 17.1723C5.11745 17.2532 5.13068 17.3385 5.17393 17.4097C5.21718 17.4808 5.28691 17.5318 5.36778 17.5515C5.44865 17.5712 5.53403 17.558 5.60515 17.5147L10.6355 14.6101L5.0833 18.1789C5.01629 18.224 4.96925 18.2932 4.95198 18.3721C4.9347 18.451 4.94851 18.5335 4.99055 18.6024C5.03258 18.6714 5.09959 18.7214 5.17762 18.7422C5.25566 18.763 5.3387 18.7529 5.40946 18.714L9.49581 16.355L4.9083 19.2628C4.83946 19.3069 4.79058 19.3762 4.7721 19.4559C4.75362 19.5356 4.76699 19.6193 4.80937 19.6893C4.85175 19.7592 4.91979 19.8099 4.99896 19.8304C5.07814 19.8509 5.16219 19.8396 5.23321 19.7991L12.2705 15.7353V10.9951L12.1766 11.0493L12.2705 10.9841V8.5067L11.3574 9.03404L12.2705 8.39896V6.39868L9.95368 7.73632L12.2705 6.1209V3.73009L11.2383 4.32611L12.2705 3.4447V2.38533L11.3211 2.93368L12.2705 2.00698V1.00235ZM12.2705 18.5542V17.7014L11.656 18.1884C11.5934 18.2374 11.5519 18.3084 11.5397 18.3869C11.5275 18.4655 11.5456 18.5457 11.5903 18.6114C11.6349 18.6771 11.7029 18.7234 11.7804 18.7409C11.8579 18.7585 11.9392 18.7459 12.0078 18.7058L12.2705 18.5542ZM12.2705 17.125V15.7788L4.80481 20.7129C4.73864 20.7587 4.69258 20.8281 4.67616 20.9069C4.65973 20.9856 4.6742 21.0677 4.71657 21.1361C4.75894 21.2044 4.82597 21.2539 4.9038 21.2743C4.98163 21.2946 5.0643 21.2843 5.13473 21.2454L12.2705 17.125Z" fill="#F2A726"/>
<path d="M3.10034 11.792C3.81036 12.5942 4.70728 13.2942 5.36336 14.1127C3.7238 22.8531 3.42336 23.6597 11.5691 18.7686C19.7412 23.6866 19.7694 22.7389 18.0464 13.9283C24.3663 7.72946 24.9089 7.65608 15.7502 6.53648C12.1618 -2.08594 11.322 -1.95172 7.72485 6.58478C3.84485 7.27535 -2.92852 6.99122 3.10034 11.792ZM15.7244 6.53711C15.6103 6.53711 15.6492 6.47439 15.7244 6.53711V6.53711ZM1.86283 7.89003C8.81684 6.74221 8.09428 8.24692 10.9958 1.42964C11.2222 0.951697 11.5572 0.0447329 12.1041 0.969886C13.0951 2.93058 13.9061 5.04683 14.9705 6.9423C24.0119 8.22622 23.396 7.64165 17.1947 13.9515C17.9128 21.6237 20.5233 23.1397 12.0991 18.2574C9.92389 18.6676 8.03595 20.511 5.97929 21.3402C4.71481 21.6362 5.46685 18.8589 5.54964 18.3521C5.74157 16.2609 7.2168 13.7188 4.85405 12.3803C4.1064 11.1535 0.572006 9.35585 1.86346 7.89003H1.86283Z" fill="#262626"/>
</svg>
