<svg width="17" height="19" viewBox="0 0 17 19" fill="none" xmlns="http://www.w3.org/2000/svg">
<path d="M7.42876 3.55255C7.39648 3.5525 7.36496 3.54275 7.33829 3.52457C7.31162 3.50639 7.29103 3.48061 7.27919 3.45058C7.26735 3.42055 7.26481 3.38766 7.2719 3.35617C7.27899 3.32468 7.29538 3.29604 7.31894 3.27398L8.02743 2.60961L7.32281 3.01571C7.28794 3.03536 7.24701 3.04133 7.20798 3.03245C7.16895 3.02357 7.13464 3.00047 7.11171 2.96766C7.08879 2.93484 7.07892 2.89467 7.08401 2.85497C7.0891 2.81527 7.10879 2.77889 7.13925 2.75292L7.61168 2.361L7.32184 2.52749C7.28876 2.54644 7.25002 2.55303 7.21254 2.54609C7.17505 2.53916 7.14124 2.51914 7.11712 2.48962C7.093 2.46009 7.08015 2.42296 7.08084 2.38484C7.08153 2.34673 7.09572 2.31009 7.12089 2.28145L7.80007 1.51403L7.32281 1.78906C7.29588 1.80458 7.26502 1.81197 7.23398 1.81035C7.20294 1.80872 7.17303 1.79815 7.14786 1.77989C7.1227 1.76164 7.10335 1.7365 7.09217 1.70749C7.08098 1.67849 7.07843 1.64686 7.08482 1.61644L7.18787 1.13048C7.15927 1.11995 7.13425 1.10152 7.11571 1.07732C7.09717 1.05313 7.08588 1.02417 7.08315 0.993817C7.08041 0.963461 7.08635 0.932952 7.10028 0.905838C7.1142 0.878724 7.13553 0.856118 7.16179 0.840648L7.32281 0.746934C7.34974 0.73141 7.38059 0.724015 7.41164 0.725641C7.44268 0.727266 7.47259 0.737844 7.49776 0.756096C7.52292 0.774348 7.54226 0.799494 7.55345 0.828498C7.56464 0.857502 7.56719 0.889125 7.5608 0.919547L7.47513 1.33047L8.49664 0.740815C8.52969 0.722067 8.56831 0.71561 8.60565 0.722586C8.643 0.729561 8.67669 0.74952 8.70074 0.778932C8.72479 0.808344 8.73767 0.845315 8.7371 0.883306C8.73652 0.921297 8.72253 0.957861 8.6976 0.986532L8.01938 1.7517L9.07632 1.14208C9.11118 1.12242 9.15212 1.11645 9.19114 1.12533C9.23017 1.13421 9.26449 1.15731 9.28741 1.19013C9.31033 1.22294 9.32021 1.26311 9.31512 1.30281C9.31003 1.34251 9.29033 1.37889 9.25988 1.40486L8.78809 1.79807L9.07793 1.63061C9.11223 1.61008 9.15295 1.60305 9.19216 1.61088C9.23137 1.61872 9.26626 1.64086 9.29004 1.673C9.31383 1.70514 9.3248 1.74498 9.32084 1.78476C9.31687 1.82455 9.29824 1.86143 9.26857 1.88824L8.56009 2.55261L9.08115 2.25183C9.11135 2.23438 9.14641 2.22721 9.18104 2.2314C9.21567 2.23559 9.24801 2.25092 9.27318 2.27507C9.29835 2.29923 9.31499 2.3309 9.32061 2.36533C9.32623 2.39976 9.32051 2.43508 9.30432 2.46598L9.04057 2.9674L9.08372 2.9426C9.10204 2.93186 9.1223 2.92485 9.14334 2.92198C9.16438 2.9191 9.18578 2.92041 9.20631 2.92584C9.22684 2.93127 9.2461 2.9407 9.26297 2.9536C9.27983 2.9665 9.29399 2.98261 9.3046 3.001C9.31522 3.01939 9.3221 3.0397 9.32483 3.06076C9.32757 3.08182 9.32612 3.10321 9.32055 3.1237C9.31499 3.14419 9.30543 3.16338 9.29242 3.18017C9.2794 3.19695 9.2632 3.21099 9.24474 3.22149L8.71982 3.52453C8.68961 3.54184 8.65461 3.5489 8.62006 3.54465C8.58551 3.5404 8.55326 3.52506 8.52816 3.50094C8.50306 3.47681 8.48645 3.44521 8.48083 3.41085C8.4752 3.37649 8.48087 3.34124 8.49697 3.31037L8.76039 2.80863L7.50927 3.53C7.48495 3.54463 7.45714 3.55242 7.42876 3.55255Z" fill="#A53C50"/>
<path d="M7.74049 18.9869C7.70581 18.9869 7.67205 18.9758 7.64422 18.9551C7.61639 18.9344 7.59599 18.9053 7.58604 18.8721C7.57609 18.8389 7.57712 18.8033 7.58899 18.7707C7.60087 18.7382 7.62294 18.7103 7.65193 18.6913L11.0926 16.4257L6.88322 18.8558C6.84662 18.8779 6.80277 18.8845 6.76131 18.8742C6.71985 18.8639 6.68417 18.8375 6.66214 18.8009C6.6401 18.7643 6.63351 18.7205 6.6438 18.679C6.6541 18.6375 6.68045 18.6019 6.71705 18.5798L8.47249 17.4781L6.29936 18.7341C6.28128 18.7451 6.26122 18.7524 6.24031 18.7556C6.21941 18.7588 6.19808 18.7579 6.17753 18.7529C6.15699 18.7478 6.13764 18.7388 6.12058 18.7263C6.10352 18.7138 6.08909 18.6981 6.07812 18.68C6.06714 18.6619 6.05984 18.6418 6.05662 18.6209C6.0534 18.6 6.05433 18.5787 6.05935 18.5582C6.06437 18.5376 6.07339 18.5183 6.0859 18.5012C6.0984 18.4842 6.11414 18.4697 6.13222 18.4588L9.61025 16.2479L5.64626 18.5357C5.60982 18.5555 5.56717 18.5604 5.52718 18.5495C5.4872 18.5386 5.45296 18.5127 5.43159 18.4771C5.41023 18.4416 5.40338 18.3992 5.41247 18.3588C5.42156 18.3184 5.4459 18.283 5.48041 18.2601L8.80129 16.1732L5.08591 18.3187C5.06779 18.3296 5.0477 18.3368 5.02678 18.34C5.00586 18.3431 4.98453 18.3421 4.964 18.337C4.94347 18.3319 4.92415 18.3228 4.90713 18.3102C4.89012 18.2977 4.87574 18.2819 4.86483 18.2638C4.85392 18.2456 4.84669 18.2255 4.84354 18.2046C4.8404 18.1837 4.8414 18.1624 4.8465 18.1418C4.8516 18.1213 4.86069 18.102 4.87326 18.085C4.88582 18.068 4.90162 18.0536 4.91974 18.0427L8.69051 15.6776L4.55584 18.0646C4.51943 18.0838 4.47705 18.0883 4.4374 18.0772C4.39776 18.0662 4.36386 18.0403 4.34267 18.005C4.32148 17.9698 4.31461 17.9277 4.32347 17.8875C4.33233 17.8473 4.35625 17.812 4.39031 17.7889L8.20873 15.4058L4.07406 17.7925C4.03753 17.8123 3.99475 17.8172 3.95468 17.8062C3.9146 17.7952 3.88033 17.7691 3.85904 17.7334C3.83774 17.6977 3.83107 17.6552 3.84041 17.6147C3.84976 17.5742 3.8744 17.5389 3.90918 17.5161L7.10382 15.5398L3.66733 17.5235C3.63064 17.5445 3.58722 17.5501 3.5464 17.5393C3.50558 17.5285 3.47064 17.5021 3.44911 17.4658C3.42757 17.4295 3.42116 17.3861 3.43126 17.3451C3.44135 17.3041 3.46715 17.2688 3.50309 17.2466L4.52846 16.6215L3.35946 17.2978C3.32277 17.3197 3.27889 17.3261 3.23746 17.3157C3.19603 17.3052 3.16045 17.2788 3.13854 17.2421C3.11663 17.2054 3.11019 17.1615 3.12064 17.1201C3.13109 17.0787 3.15757 17.0431 3.19425 17.0212L6.37504 15.0622L3.00554 17.0073C2.96898 17.0284 2.9256 17.0343 2.88475 17.0237C2.84389 17.0131 2.80882 16.9869 2.78709 16.9508C2.76535 16.9146 2.75868 16.8713 2.76852 16.8303C2.77836 16.7893 2.80391 16.7537 2.83969 16.7313L7.66706 13.7264L2.61265 16.6441C2.57614 16.6642 2.53326 16.6693 2.49302 16.6585C2.45278 16.6476 2.41832 16.6216 2.39688 16.5858C2.37544 16.5501 2.3687 16.5074 2.37807 16.4668C2.38744 16.4262 2.41219 16.3908 2.44712 16.3681L7.45806 13.2485L2.25003 16.2557C2.21365 16.2751 2.17119 16.2799 2.13142 16.2689C2.09164 16.258 2.05759 16.2322 2.03627 16.1969C2.01496 16.1615 2.00801 16.1194 2.01687 16.0791C2.02572 16.0388 2.0497 16.0035 2.08386 15.9803L8.68922 11.8064L1.84329 15.7578C1.80669 15.778 1.76365 15.7832 1.72328 15.7723C1.68291 15.7614 1.64838 15.7352 1.627 15.6992C1.60562 15.6633 1.59906 15.6204 1.60871 15.5797C1.61837 15.539 1.64348 15.5037 1.67873 15.4812L3.84542 14.1608L1.6198 15.4461C1.58311 15.467 1.53969 15.4726 1.49887 15.4618C1.45805 15.451 1.42311 15.4246 1.40158 15.3883C1.38004 15.352 1.37363 15.3087 1.38373 15.2677C1.39382 15.2267 1.41962 15.1913 1.45556 15.1691L4.33975 13.405L1.3992 15.1025C1.36278 15.1225 1.32003 15.1276 1.27989 15.1169C1.23975 15.1061 1.20533 15.0802 1.18382 15.0447C1.16232 15.0091 1.1554 14.9666 1.16451 14.9261C1.17362 14.8855 1.19805 14.8501 1.23271 14.8271L7.98781 10.5601L1.09133 14.5415C1.05465 14.5633 1.01078 14.5697 0.969379 14.5592C0.927979 14.5488 0.892437 14.5223 0.870572 14.4856C0.848707 14.4489 0.84231 14.405 0.852788 14.3636C0.863267 14.3222 0.889762 14.2867 0.926446 14.2648L4.15329 12.2869L0.910988 14.1589C0.874347 14.1808 0.830487 14.1873 0.789057 14.1769C0.747626 14.1665 0.712019 14.1401 0.690069 14.1035C0.668118 14.0668 0.661622 14.023 0.67201 13.9816C0.682398 13.9401 0.708818 13.9045 0.745459 13.8826L5.66977 10.8267L0.719696 13.6845C0.683138 13.7041 0.640452 13.7087 0.600524 13.6976C0.560597 13.6865 0.526504 13.6603 0.505341 13.6247C0.484179 13.5891 0.477579 13.5466 0.486913 13.5062C0.496248 13.4659 0.520799 13.4306 0.555456 13.4079L2.69412 12.103L0.595389 13.3145C0.558748 13.3364 0.514888 13.3429 0.473457 13.3325C0.432027 13.3222 0.39642 13.2957 0.37447 13.2591C0.352519 13.2225 0.346023 13.1786 0.356411 13.1372C0.366799 13.0957 0.393219 13.0601 0.42986 13.0382L5.22825 10.0564L0.459166 12.8092C0.422658 12.8293 0.379776 12.8345 0.339536 12.8236C0.299296 12.8128 0.264835 12.7867 0.243397 12.751C0.22196 12.7152 0.215217 12.6726 0.224586 12.632C0.233956 12.5914 0.258708 12.556 0.293638 12.5332L4.63377 9.84032L0.356757 12.3094C0.32035 12.3286 0.277971 12.3331 0.238327 12.3221C0.198682 12.311 0.164784 12.2852 0.143594 12.2499C0.122405 12.2146 0.115534 12.1725 0.124393 12.1323C0.133252 12.0921 0.157169 12.0568 0.191229 12.0337L4.97384 9.04585L0.279146 11.7561C0.242662 11.7766 0.199657 11.782 0.15923 11.7713C0.118803 11.7606 0.0841251 11.7346 0.0625351 11.6988C0.0409452 11.663 0.0341366 11.6202 0.0435501 11.5794C0.0529637 11.5387 0.0778608 11.5032 0.112973 11.4805L5.39443 8.14736L0.242433 11.1204C0.205994 11.1418 0.162624 11.148 0.121669 11.1376C0.0807148 11.1273 0.0454553 11.1013 0.0234899 11.0652C0.00152449 11.0292 -0.00538808 10.9859 0.00424199 10.9448C0.0138721 10.9037 0.0392738 10.868 0.0749725 10.8454L5.73933 7.21924L0.259179 10.3833C0.222577 10.4035 0.179536 10.4087 0.139167 10.3978C0.0987975 10.3868 0.0642675 10.3606 0.0428846 10.3247C0.0215017 10.2887 0.0149439 10.2459 0.0245992 10.2052C0.0342545 10.1645 0.0593653 10.1292 0.0946169 10.1066L0.749324 9.70506L0.298468 9.96559C0.262113 9.98529 0.219571 9.99026 0.179658 9.97945C0.139744 9.96864 0.105519 9.94289 0.0840743 9.90753C0.0626292 9.87218 0.0556079 9.82993 0.0644652 9.78953C0.0733225 9.74914 0.0973795 9.71371 0.131651 9.69057L4.05378 7.20474L0.402165 9.31282C0.384022 9.32369 0.363916 9.33088 0.342995 9.33397C0.322074 9.33707 0.300748 9.33602 0.280233 9.33088C0.259719 9.32573 0.240419 9.3166 0.223435 9.304C0.20645 9.29139 0.192114 9.27557 0.181246 9.25743C0.170377 9.23928 0.163188 9.21918 0.16009 9.19826C0.156991 9.17734 0.158044 9.15601 0.163187 9.1355C0.168331 9.11498 0.177464 9.09568 0.190067 9.0787C0.202669 9.06171 0.218494 9.04738 0.236636 9.03651L1.39598 8.31836L0.520676 8.82332C0.484543 8.84278 0.442345 8.8477 0.402701 8.83709C0.363057 8.82649 0.328961 8.80114 0.307377 8.76624C0.285793 8.73133 0.278351 8.6895 0.286571 8.6493C0.294791 8.60909 0.318053 8.57354 0.351605 8.54991L4.73843 5.65155L0.829834 7.90872C0.793417 7.92875 0.750667 7.93392 0.710525 7.92315C0.670384 7.91238 0.635961 7.88651 0.614456 7.85095C0.592951 7.81538 0.58603 7.77288 0.595141 7.73233C0.604252 7.69178 0.628688 7.65633 0.663339 7.63338L1.8726 6.8695L1.10196 7.31295C1.0658 7.33291 1.02335 7.33822 0.983387 7.32776C0.943427 7.31731 0.909012 7.2919 0.887258 7.25679C0.865504 7.22168 0.858075 7.17955 0.866508 7.13911C0.87494 7.09868 0.898589 7.06303 0.932565 7.03954L3.27508 5.48473L1.60917 6.44473C1.57296 6.46417 1.53068 6.46902 1.49101 6.4583C1.45133 6.44757 1.41725 6.42208 1.39576 6.38705C1.37427 6.35201 1.367 6.31009 1.37542 6.26986C1.38384 6.22963 1.40733 6.19415 1.44107 6.17067L2.03265 5.78616C1.99957 5.78393 1.96799 5.77154 1.94221 5.75069C1.91644 5.72983 1.89773 5.70153 1.88864 5.66965C1.87955 5.63776 1.88052 5.60385 1.89143 5.57254C1.90233 5.54123 1.92264 5.51405 1.94957 5.49471L3.16978 4.61071C3.14272 4.59654 3.12035 4.57484 3.10537 4.54824C3.08399 4.51129 3.07815 4.46737 3.08914 4.42613C3.10014 4.38488 3.12705 4.34969 3.16398 4.32828L5.12552 3.19599C5.16119 3.17614 5.20307 3.17059 5.24268 3.18044C5.28229 3.19029 5.31668 3.21482 5.3389 3.24906C5.36111 3.28331 5.36949 3.32471 5.36235 3.3649C5.3552 3.40508 5.33305 3.44106 5.30039 3.46554L4.66082 3.92895L6.71737 2.74191C6.75367 2.72163 6.79641 2.71618 6.83665 2.7267C6.87688 2.73722 6.91148 2.7629 6.93321 2.79836C6.95493 2.83382 6.9621 2.87631 6.9532 2.91693C6.9443 2.95756 6.92003 2.99316 6.88547 3.01629L6.72896 3.11806L7.55821 2.63951C7.59437 2.61954 7.63682 2.61424 7.67678 2.62469C7.71674 2.63515 7.75116 2.66056 7.77291 2.69567C7.79467 2.73078 7.8021 2.77291 7.79366 2.81334C7.78523 2.85378 7.76158 2.88943 7.72761 2.91292L5.38573 4.46869L8.5691 2.63113C8.60551 2.61111 8.64826 2.60594 8.68841 2.6167C8.72855 2.62747 8.76297 2.65334 8.78447 2.68891C8.80598 2.72447 8.8129 2.76697 8.80379 2.80752C8.79468 2.84807 8.77024 2.88353 8.73559 2.90648L7.5273 3.671L9.21897 2.69458C9.25519 2.67432 9.29783 2.66882 9.338 2.67924C9.37817 2.68966 9.41277 2.71518 9.43457 2.75049C9.45638 2.7858 9.46371 2.82816 9.45504 2.86874C9.44637 2.90932 9.42237 2.94499 9.38804 2.96831L5.00089 5.86667L10.1674 2.88232C10.2039 2.86222 10.2468 2.85705 10.287 2.86791C10.3273 2.87877 10.3617 2.9048 10.3832 2.94055C10.4046 2.97629 10.4113 3.01895 10.402 3.05956C10.3926 3.10018 10.3678 3.13557 10.3329 3.15831L9.17357 3.87775L10.6463 3.02595C10.6827 3.00512 10.7259 2.99935 10.7665 3.00988C10.8072 3.02041 10.8421 3.0464 10.8639 3.08232C10.8856 3.11824 10.8925 3.16123 10.883 3.20214C10.8735 3.24305 10.8484 3.27863 10.8131 3.3013L6.89062 5.7868L11.2704 3.25975C11.307 3.23952 11.35 3.23432 11.3904 3.24525C11.4307 3.25619 11.4653 3.2824 11.4867 3.31835C11.508 3.35429 11.5146 3.39715 11.5049 3.43784C11.4953 3.47854 11.4702 3.51388 11.4349 3.53639L10.7857 3.93443L11.6513 3.43462C11.6876 3.41519 11.73 3.4104 11.7697 3.42124C11.8094 3.43207 11.8435 3.45771 11.8649 3.49288C11.8863 3.52806 11.8934 3.57009 11.8848 3.61034C11.8761 3.6506 11.8524 3.68602 11.8185 3.70932L6.1538 7.33614L12.2986 3.78854C12.3352 3.76647 12.379 3.75981 12.4205 3.77005C12.4619 3.78029 12.4976 3.80657 12.5197 3.84313C12.5418 3.87969 12.5485 3.92351 12.5382 3.96498C12.528 4.00644 12.5017 4.04213 12.4651 4.06421L7.18658 7.39636L12.8249 4.14086C12.8614 4.11978 12.9048 4.11389 12.9456 4.12447C12.9865 4.13504 13.0216 4.16124 13.0433 4.19741C13.065 4.23358 13.0717 4.27684 13.0619 4.31788C13.052 4.35892 13.0265 4.39446 12.9907 4.41684L8.20262 7.40827L13.2677 4.48415C13.3042 4.46404 13.347 4.45888 13.3873 4.46973C13.4275 4.48059 13.462 4.50663 13.4834 4.54237C13.5049 4.57812 13.5116 4.62078 13.5022 4.66139C13.4929 4.702 13.4681 4.7374 13.4332 4.76014L9.09692 7.44917L13.6473 4.82197C13.684 4.80002 13.7278 4.79352 13.7693 4.80391C13.8107 4.8143 13.8463 4.84072 13.8683 4.87736C13.8902 4.914 13.8967 4.95786 13.8863 4.99929C13.8759 5.04072 13.8495 5.07633 13.8129 5.09828L9.01061 8.08424L14.0154 5.19489C14.052 5.17466 14.0951 5.16946 14.1354 5.18039C14.1758 5.19133 14.2103 5.21754 14.2317 5.25349C14.2531 5.28943 14.2597 5.33229 14.25 5.37298C14.2404 5.41368 14.2153 5.44902 14.18 5.47153L12.0497 6.77289L14.274 5.48892C14.3105 5.46881 14.3534 5.46364 14.3937 5.4745C14.4339 5.48536 14.4684 5.51139 14.4898 5.54714C14.5112 5.58288 14.518 5.62554 14.5086 5.66616C14.4992 5.70677 14.4745 5.74217 14.4396 5.7649L9.51557 8.82074L14.5912 5.89018C14.6278 5.86994 14.6709 5.86474 14.7113 5.87568C14.7516 5.88661 14.7862 5.91283 14.8075 5.94877C14.8289 5.98472 14.8355 6.02757 14.8258 6.06827C14.8162 6.10896 14.7911 6.1443 14.7558 6.16681L11.528 8.14413L14.8328 6.23605C14.8692 6.2166 14.9116 6.21186 14.9514 6.22281C14.9912 6.23375 15.0252 6.25954 15.0465 6.29486C15.0678 6.33018 15.0748 6.37233 15.0659 6.41262C15.0571 6.45291 15.0331 6.48826 14.9989 6.51139L8.24641 10.7775L15.1645 6.78416C15.2012 6.76234 15.2451 6.756 15.2865 6.76654C15.307 6.77176 15.3263 6.78096 15.3432 6.79363C15.3601 6.80629 15.3744 6.82217 15.3852 6.84036C15.396 6.85854 15.4032 6.87868 15.4062 6.89961C15.4092 6.92055 15.4081 6.94187 15.4029 6.96237C15.3976 6.98287 15.3884 7.00214 15.3758 7.01909C15.3631 7.03603 15.3472 7.05031 15.329 7.06111L12.441 8.8275L15.3529 7.14645C15.3896 7.12463 15.4335 7.11829 15.4749 7.12883C15.5163 7.13937 15.5518 7.16592 15.5736 7.20265C15.5954 7.23938 15.6018 7.28327 15.5912 7.32467C15.5807 7.36607 15.5542 7.40159 15.5174 7.42341L13.3472 8.74635L15.5126 7.49619C15.5492 7.47411 15.593 7.46746 15.6344 7.4777C15.6759 7.48793 15.7116 7.51422 15.7337 7.55078C15.7558 7.58733 15.7624 7.63116 15.7522 7.67262C15.7419 7.71408 15.7156 7.74978 15.6791 7.77186L9.07245 11.9455L15.7387 8.09583C15.7753 8.07384 15.8192 8.0673 15.8606 8.07766C15.9021 8.08801 15.9378 8.11442 15.9598 8.15106C15.9817 8.1877 15.9883 8.23158 15.9779 8.27304C15.9676 8.3145 15.9412 8.35015 15.9045 8.37214L10.8945 11.4898L15.8936 8.60433C15.9301 8.58422 15.973 8.57905 16.0132 8.58991C16.0534 8.60077 16.0879 8.62681 16.1093 8.66255C16.1308 8.6983 16.1375 8.74096 16.1282 8.78157C16.1188 8.82218 16.094 8.85758 16.0591 8.88032L11.2369 11.8824L16.0118 9.12571C16.0483 9.1059 16.0911 9.10099 16.1311 9.11199C16.1712 9.12299 16.2055 9.14906 16.2268 9.18475C16.2481 9.22044 16.2548 9.26298 16.2454 9.30347C16.2361 9.34396 16.2114 9.37928 16.1766 9.40202L12.9926 11.3632L16.0842 9.57786C16.1208 9.55832 16.1635 9.55363 16.2034 9.56477C16.2433 9.57591 16.2774 9.60202 16.2986 9.63766C16.3197 9.67331 16.3263 9.71574 16.317 9.75613C16.3077 9.79651 16.2831 9.83175 16.2485 9.85449L15.2218 10.4809L16.1264 9.95851C16.1629 9.93903 16.2054 9.93433 16.2453 9.94537C16.2851 9.95641 16.3192 9.98236 16.3404 10.0178C16.3617 10.0533 16.3684 10.0956 16.3594 10.1359C16.3503 10.1763 16.326 10.2116 16.2916 10.2345L13.1015 12.208L16.1531 10.4461C16.1897 10.425 16.2331 10.4191 16.2739 10.4297C16.3148 10.4403 16.3498 10.4665 16.3716 10.5026C16.3933 10.5388 16.4 10.5821 16.3902 10.6231C16.3803 10.6641 16.3548 10.6997 16.319 10.7221L12.5018 13.1052L16.1499 10.999C16.1865 10.977 16.2304 10.9704 16.2718 10.9807C16.3133 10.991 16.349 11.0173 16.371 11.0539C16.393 11.0905 16.3996 11.1344 16.3893 11.1758C16.379 11.2173 16.3527 11.253 16.3161 11.275L12.5463 13.6397L16.1048 11.5848C16.1414 11.5637 16.1848 11.5578 16.2256 11.5684C16.2665 11.579 16.3015 11.6052 16.3233 11.6414C16.345 11.6775 16.3517 11.7208 16.3418 11.7618C16.332 11.8029 16.3065 11.8384 16.2707 11.8608L12.9508 13.9467L16.0143 12.178C16.0508 12.1572 16.094 12.1514 16.1346 12.1619C16.1753 12.1725 16.2102 12.1985 16.2319 12.2344C16.2537 12.2703 16.2606 12.3133 16.2511 12.3542C16.2416 12.3951 16.2165 12.4307 16.1812 12.4534L12.6999 14.6658L15.8559 12.843C15.8924 12.8226 15.9354 12.8171 15.9758 12.8278C16.0162 12.8385 16.0509 12.8645 16.0725 12.9004C16.0941 12.9362 16.1009 12.979 16.0915 13.0197C16.0821 13.0605 16.0572 13.096 16.0221 13.1187L14.2608 14.2242L15.6778 13.4072C15.714 13.387 15.7567 13.3815 15.7968 13.3919C15.837 13.4023 15.8716 13.4278 15.8934 13.4632C15.9152 13.4985 15.9225 13.5408 15.9139 13.5814C15.9052 13.622 15.8812 13.6577 15.8469 13.681L12.4062 15.9459L15.3001 14.2764C15.3362 14.2558 15.3788 14.25 15.4191 14.2602C15.4594 14.2703 15.4942 14.2957 15.5163 14.3309C15.5383 14.3661 15.5459 14.4085 15.5374 14.4492C15.5289 14.4899 15.505 14.5257 15.4707 14.5492L12.7543 16.3848L14.7188 15.2496C14.7547 15.2293 14.7971 15.2236 14.8372 15.2337C14.8773 15.2437 14.9119 15.2688 14.934 15.3037C14.9561 15.3387 14.9639 15.3807 14.9559 15.4212C14.9478 15.4617 14.9245 15.4976 14.8907 15.5214L13.5382 16.4553L13.8998 16.2463C13.9181 16.2347 13.9386 16.2269 13.9601 16.2233C13.9815 16.2198 14.0034 16.2207 14.0245 16.2258C14.0456 16.231 14.0654 16.2404 14.0828 16.2534C14.1002 16.2664 14.1147 16.2828 14.1256 16.3016C14.1365 16.3204 14.1434 16.3413 14.1461 16.3628C14.1487 16.3844 14.1469 16.4062 14.1409 16.4271C14.1348 16.4479 14.1246 16.4674 14.1108 16.4842C14.0971 16.501 14.0801 16.5148 14.0608 16.5249L10.2183 18.7438C10.1822 18.7666 10.1385 18.7742 10.0968 18.7648C10.0551 18.7555 10.0189 18.7299 9.99606 18.6938C9.97321 18.6578 9.96563 18.6141 9.97499 18.5724C9.98435 18.5307 10.0099 18.4945 10.046 18.4716L11.4021 17.5377L8.95458 18.9512C8.91844 18.9726 8.87537 18.979 8.83454 18.9691C8.79372 18.9592 8.75839 18.9337 8.73607 18.8981C8.71376 18.8626 8.70624 18.8197 8.71512 18.7786C8.72399 18.7375 8.74856 18.7016 8.78358 18.6784L11.5 16.8444L7.821 18.965C7.79655 18.9792 7.76878 18.9868 7.74049 18.9869Z" fill="#CD4C60"/>
<path d="M8.28177 17.3882C8.24757 17.3882 8.21427 17.3773 8.1867 17.357C8.15912 17.3368 8.13871 17.3083 8.12841 17.2757C8.11812 17.2431 8.11847 17.208 8.12943 17.1756C8.14038 17.1432 8.16137 17.1152 8.18934 17.0955L11.1199 15.0402L7.23675 17.2826C7.20061 17.304 7.15753 17.3105 7.11671 17.3006C7.07589 17.2906 7.04055 17.2652 7.01824 17.2296C6.99593 17.194 6.98841 17.1511 6.99728 17.1101C7.00616 17.069 7.03073 17.033 7.06574 17.0098L10.6852 14.5575L6.33761 17.0672C6.30118 17.0894 6.25739 17.0964 6.21587 17.0864C6.17435 17.0764 6.1385 17.0503 6.11621 17.0139C6.09392 16.9774 6.08701 16.9336 6.097 16.8921C6.107 16.8506 6.13308 16.8147 6.16951 16.7925L9.20699 14.8258L5.72252 16.8372C5.68652 16.8536 5.64577 16.8561 5.60804 16.8443C5.5703 16.8326 5.53821 16.8073 5.51788 16.7734C5.49754 16.7395 5.49039 16.6993 5.49778 16.6605C5.50517 16.6217 5.52659 16.5869 5.55795 16.5628L7.67536 15.2257L5.26651 16.6166C5.22995 16.6377 5.18657 16.6436 5.14572 16.633C5.10486 16.6224 5.06979 16.5962 5.04806 16.5601C5.02632 16.5239 5.01965 16.4806 5.02949 16.4396C5.03933 16.3986 5.06488 16.363 5.10066 16.3406L6.5479 15.4389L4.88553 16.3986C4.84911 16.4209 4.80531 16.4278 4.76379 16.4178C4.72227 16.4078 4.68642 16.3817 4.66413 16.3453C4.64184 16.3089 4.63493 16.2651 4.64493 16.2236C4.65492 16.182 4.681 16.1462 4.71743 16.1239L9.26141 13.1743L4.34 16.0154C4.30351 16.0358 4.26051 16.0413 4.22008 16.0306C4.17965 16.0199 4.14498 15.9938 4.12339 15.958C4.1018 15.9222 4.09499 15.8794 4.1044 15.8387C4.11382 15.7979 4.13871 15.7624 4.17383 15.7397L6.99876 13.9669L3.97545 15.7123C3.93876 15.7342 3.8949 15.7406 3.8535 15.7301C3.8121 15.7196 3.77656 15.6931 3.75469 15.6565C3.73283 15.6198 3.72643 15.5759 3.73691 15.5345C3.74739 15.4931 3.77388 15.4576 3.81056 15.4357L3.91877 15.3694L3.72941 15.4785C3.69305 15.4982 3.65051 15.5032 3.6106 15.4924C3.57069 15.4816 3.53646 15.4558 3.51502 15.4205C3.49357 15.3851 3.48655 15.3429 3.49541 15.3025C3.50426 15.2621 3.52832 15.2266 3.56259 15.2035L7.62223 12.6285L3.3713 15.0837C3.33462 15.1056 3.29073 15.1121 3.2493 15.1016C3.20787 15.0912 3.17229 15.0647 3.15038 15.028C3.12847 14.9913 3.12204 14.9474 3.13248 14.906C3.14293 14.8646 3.16941 14.829 3.2061 14.8071L4.69972 13.8854L3.13557 14.7871C3.09888 14.809 3.05502 14.8154 3.01362 14.8049C2.97222 14.7944 2.93667 14.7679 2.91481 14.7312C2.89294 14.6946 2.88655 14.6507 2.89703 14.6093C2.9075 14.5679 2.934 14.5323 2.97068 14.5105L4.39635 13.6323L2.91916 14.4847C2.88286 14.5041 2.8405 14.5089 2.80078 14.4981C2.76106 14.4873 2.727 14.4616 2.7056 14.4265C2.6842 14.3913 2.67709 14.3493 2.68572 14.309C2.69435 14.2687 2.71808 14.2333 2.75202 14.21L7.71884 11.0267L2.61354 13.974C2.57716 13.9934 2.5347 13.9981 2.49493 13.9872C2.45516 13.9763 2.4211 13.9505 2.39978 13.9152C2.37847 13.8798 2.37152 13.8377 2.38038 13.7974C2.38923 13.7571 2.41321 13.7217 2.44737 13.6986L6.34405 11.2411L2.3923 13.5218C2.35597 13.5418 2.31333 13.547 2.27327 13.5363C2.2332 13.5257 2.1988 13.4999 2.17722 13.4645C2.15564 13.4291 2.14854 13.3868 2.15741 13.3463C2.16628 13.3058 2.19044 13.2703 2.22484 13.2471L6.91052 10.2509L2.1833 12.9811C2.1468 13.0003 2.10432 13.0048 2.06461 12.9937C2.0249 12.9825 1.99099 12.9565 1.96988 12.9211C1.94877 12.8856 1.94207 12.8434 1.95116 12.8032C1.96025 12.7629 1.98444 12.7277 2.01873 12.7048L2.48247 12.4198L2.08218 12.651C2.0456 12.6716 2.00241 12.6771 1.96183 12.6664C1.92125 12.6556 1.88649 12.6294 1.86494 12.5934C1.8434 12.5573 1.83678 12.5143 1.8465 12.4735C1.85621 12.4326 1.8815 12.3972 1.91697 12.3747L2.8409 11.8053L1.99426 12.2942C1.95778 12.3146 1.91477 12.3201 1.87434 12.3094C1.83392 12.2987 1.79924 12.2727 1.77765 12.2369C1.75606 12.201 1.74925 12.1582 1.75866 12.1175C1.76808 12.0767 1.79297 12.0413 1.82809 12.0185L4.85011 10.1185L1.91021 11.8157C1.87381 11.836 1.83095 11.8414 1.79064 11.8308C1.75032 11.8202 1.71569 11.7944 1.69404 11.7587C1.67239 11.7231 1.6654 11.6805 1.67454 11.6398C1.68369 11.5991 1.70825 11.5636 1.74307 11.5406L5.43687 9.18491L1.85739 11.2508C1.82093 11.2716 1.77777 11.2774 1.73712 11.2669C1.69647 11.2563 1.66154 11.2303 1.63978 11.1944C1.61802 11.1585 1.61115 11.1155 1.62064 11.0746C1.63013 11.0337 1.65523 10.9981 1.69058 10.9754L4.50263 9.19457L1.85449 10.7236C1.81805 10.745 1.77468 10.7512 1.73373 10.7408C1.69278 10.7305 1.65752 10.7045 1.63555 10.6684C1.61359 10.6324 1.60667 10.5891 1.6163 10.548C1.62593 10.5069 1.65133 10.4712 1.68703 10.4486L4.79053 8.45806L1.90055 10.1266C1.86433 10.1468 1.82169 10.1523 1.78152 10.1419C1.74135 10.1315 1.70675 10.1059 1.68495 10.0706C1.66314 10.0353 1.65581 9.99297 1.66447 9.95238C1.67314 9.9118 1.69715 9.87613 1.73147 9.85282L5.41368 7.41981L2.04514 9.36428C2.0088 9.38542 1.96563 9.3915 1.92486 9.38123C1.8841 9.37096 1.84896 9.34515 1.82697 9.30933C1.80497 9.2735 1.79787 9.23049 1.80716 9.18949C1.81646 9.14849 1.84142 9.11275 1.87671 9.08991L4.06369 7.66939L2.24352 8.7202C2.20709 8.7425 2.1633 8.7494 2.12178 8.73941C2.08026 8.72941 2.04441 8.70333 2.02212 8.66691C1.99982 8.63048 1.99292 8.58669 2.00291 8.54517C2.01291 8.50365 2.03899 8.4678 2.07541 8.4455L3.25118 7.68452L2.49857 8.11831C2.46232 8.13933 2.4193 8.14539 2.37866 8.1352C2.33801 8.12501 2.30293 8.09938 2.28088 8.06374C2.25883 8.02811 2.25154 7.98528 2.26056 7.94436C2.26958 7.90344 2.29419 7.86764 2.32918 7.84458L3.35971 7.16282L2.88856 7.43494C2.85345 7.45555 2.81183 7.4621 2.77209 7.45325C2.73234 7.44441 2.69742 7.42084 2.67436 7.38729C2.6513 7.35373 2.6418 7.31269 2.64778 7.27241C2.65377 7.23214 2.67479 7.19562 2.70661 7.17023L4.21279 5.95163C4.17478 5.96722 4.13225 5.9677 4.0939 5.95296C4.05555 5.93822 4.02428 5.90938 4.0065 5.87234C3.98872 5.8353 3.98578 5.79286 3.99826 5.75372C4.01075 5.71458 4.03773 5.68169 4.07367 5.66179L5.81848 4.65445C5.85355 4.63435 5.89489 4.62816 5.9343 4.63713C5.97371 4.6461 6.00831 4.66956 6.03122 4.70285C6.05413 4.73615 6.06369 4.77684 6.05798 4.81686C6.05228 4.85687 6.03174 4.89328 6.00044 4.91884L4.50488 6.13068L7.78421 4.23741C7.82043 4.21715 7.86307 4.21166 7.90324 4.22208C7.94341 4.23249 7.97801 4.25802 7.99981 4.29332C8.02162 4.32863 8.02895 4.37099 8.02029 4.41158C8.01162 4.45216 7.98761 4.48783 7.95329 4.51114L6.92276 5.19258L8.56516 4.24482C8.60153 4.22411 8.64452 4.21838 8.68504 4.22884C8.72556 4.23929 8.76042 4.26511 8.78223 4.30082C8.80404 4.33653 8.8111 4.37933 8.8019 4.42015C8.7927 4.46098 8.76797 4.49661 8.73294 4.51952L7.5546 5.28178L9.21665 4.32243C9.25289 4.30247 9.29543 4.29722 9.33543 4.30779C9.37544 4.31835 9.40984 4.34391 9.43151 4.37916C9.45317 4.41441 9.46044 4.45665 9.45179 4.49712C9.44314 4.53758 9.41925 4.57316 9.38507 4.59648L7.20036 6.01636L9.87329 4.47282C9.90954 4.4518 9.95256 4.44574 9.99321 4.45593C10.0339 4.46612 10.0689 4.49175 10.091 4.52739C10.113 4.56302 10.1203 4.60585 10.1113 4.64677C10.1023 4.68769 10.0777 4.72349 10.0427 4.74655L6.36015 7.18021L10.6059 4.72884C10.6423 4.7085 10.6852 4.70307 10.7255 4.71368C10.7658 4.7243 10.8004 4.75014 10.8221 4.78577C10.8437 4.8214 10.8507 4.86403 10.8416 4.90471C10.8324 4.94539 10.8079 4.98093 10.7731 5.00386L7.66989 6.99407L11.1444 4.98808C11.1808 4.96725 11.224 4.96148 11.2646 4.97201C11.3053 4.98254 11.3402 5.00853 11.362 5.04445C11.3837 5.08037 11.3906 5.12336 11.3811 5.16427C11.3716 5.20518 11.3465 5.24076 11.3112 5.26343L8.50075 7.04334L11.5991 5.25473C11.6356 5.2339 11.6787 5.22813 11.7194 5.23866C11.76 5.24919 11.795 5.27518 11.8167 5.3111C11.8385 5.34701 11.8453 5.39001 11.8358 5.43092C11.8264 5.47183 11.8013 5.50741 11.7659 5.53008L8.06986 7.88773L12.0609 5.58353C12.0973 5.56351 12.1401 5.55834 12.1802 5.56911C12.2204 5.57987 12.2548 5.60575 12.2763 5.64131C12.2978 5.67687 12.3047 5.71938 12.2956 5.75993C12.2865 5.80048 12.262 5.83593 12.2274 5.85888L9.21214 7.75537L12.4325 5.89527C12.4507 5.88442 12.4708 5.87726 12.4918 5.87419C12.5127 5.87112 12.534 5.8722 12.5545 5.87737C12.5751 5.88255 12.5943 5.89171 12.6113 5.90434C12.6283 5.91697 12.6426 5.93282 12.6535 5.95098C12.6643 5.96915 12.6715 5.98927 12.6745 6.0102C12.6776 6.03113 12.6765 6.05247 12.6714 6.07298C12.6662 6.0935 12.657 6.11279 12.6444 6.12976C12.6318 6.14674 12.6159 6.16105 12.5977 6.1719L11.6693 6.74384L12.6998 6.15C12.7364 6.12977 12.7795 6.12457 12.8198 6.1355C12.8602 6.14644 12.8947 6.17265 12.9161 6.2086C12.9375 6.24454 12.9441 6.2874 12.9344 6.32809C12.9248 6.36879 12.8996 6.40413 12.8644 6.42664L12.3997 6.71196L12.9356 6.4028C12.9719 6.38282 13.0145 6.37763 13.0546 6.3883C13.0947 6.39897 13.1291 6.42468 13.1506 6.46008C13.1722 6.49548 13.1793 6.53784 13.1705 6.57835C13.1616 6.61885 13.1374 6.65437 13.103 6.67751L8.41316 9.67409L13.2979 6.85398C13.3343 6.83396 13.377 6.82879 13.4172 6.83955C13.4573 6.85032 13.4917 6.87619 13.5132 6.91176C13.5347 6.94732 13.5417 6.98982 13.5326 7.03037C13.5234 7.07092 13.499 7.10638 13.4644 7.12933L9.57057 9.58553L13.5806 7.2707C13.6169 7.25127 13.6593 7.24648 13.699 7.25732C13.7387 7.26815 13.7728 7.29379 13.7942 7.32896C13.8156 7.36413 13.8227 7.40617 13.814 7.44642C13.8054 7.48668 13.7817 7.5221 13.7477 7.5454L8.78189 10.7281L13.8701 7.78951C13.9068 7.7676 13.9507 7.76116 13.9921 7.77161C14.0336 7.78206 14.0691 7.80854 14.091 7.84522C14.113 7.88191 14.1194 7.92579 14.1089 7.96722C14.0985 8.00865 14.072 8.04423 14.0353 8.06614L12.6135 8.94338L14.0276 8.1254C14.0643 8.10353 14.1082 8.09713 14.1496 8.10761C14.191 8.11809 14.2265 8.14459 14.2484 8.18127C14.2702 8.21795 14.2766 8.26182 14.2661 8.30322C14.2557 8.34462 14.2292 8.38016 14.1925 8.40203L12.6969 9.32499L14.1667 8.47642C14.2031 8.45672 14.2456 8.45176 14.2855 8.46257C14.3254 8.47337 14.3597 8.49913 14.3811 8.53448C14.4026 8.56984 14.4096 8.61209 14.4007 8.65248C14.3919 8.69287 14.3678 8.7283 14.3335 8.75144L10.2758 11.3252L14.3252 8.98717C14.3617 8.96736 14.4045 8.96245 14.4446 8.97345C14.4846 8.98445 14.5189 9.01052 14.5402 9.04621C14.5615 9.0819 14.5682 9.12444 14.5588 9.16493C14.5495 9.20543 14.5248 9.24074 14.4901 9.26348L14.3767 9.33305L14.4047 9.31694C14.4228 9.30603 14.4429 9.2988 14.4638 9.29565C14.4848 9.29251 14.5061 9.29351 14.5266 9.29861C14.5472 9.30371 14.5665 9.3128 14.5835 9.32537C14.6005 9.33793 14.6149 9.35373 14.6258 9.37185C14.6367 9.38997 14.6439 9.41007 14.6471 9.43098C14.6502 9.4519 14.6492 9.47323 14.6441 9.49376C14.639 9.51429 14.6299 9.53362 14.6174 9.55063C14.6048 9.56765 14.589 9.58202 14.5709 9.59293L11.744 11.367L14.4862 9.7839C14.5225 9.76277 14.5657 9.75669 14.6065 9.76695C14.6472 9.77722 14.6824 9.80303 14.7044 9.83886C14.7264 9.87469 14.7335 9.9177 14.7242 9.9587C14.7149 9.9997 14.6899 10.0354 14.6546 10.0583L10.1093 13.0075L14.5429 10.4479C14.5794 10.4269 14.6228 10.421 14.6637 10.4316C14.7045 10.4421 14.7396 10.4683 14.7613 10.5045C14.7831 10.5407 14.7897 10.5839 14.7799 10.625C14.77 10.666 14.7445 10.7015 14.7087 10.7239L13.2689 11.6221L14.5429 10.8869C14.5794 10.8648 14.6233 10.8582 14.6647 10.8684C14.7062 10.8786 14.7419 10.9049 14.7639 10.9415C14.786 10.978 14.7927 11.0219 14.7824 11.0633C14.7722 11.1048 14.7459 11.1405 14.7094 11.1626L12.5913 12.5L14.5074 11.3941C14.5437 11.3744 14.5862 11.3694 14.626 11.3801C14.6659 11.3908 14.7001 11.4164 14.7216 11.4516C14.7432 11.4868 14.7503 11.529 14.7417 11.5693C14.7331 11.6097 14.7093 11.6452 14.6752 11.6685L11.6371 13.6361L14.3979 12.042C14.4341 12.0215 14.4767 12.0156 14.517 12.0258C14.5573 12.036 14.5921 12.0613 14.6142 12.0965C14.6362 12.1318 14.6438 12.1741 14.6353 12.2148C14.6268 12.2555 14.6029 12.2913 14.5686 12.3148L10.9489 14.7678L14.1336 12.9293C14.1694 12.9089 14.2118 12.9031 14.2518 12.913C14.2919 12.923 14.3266 12.9479 14.3488 12.9827C14.371 13.0175 14.3789 13.0595 14.3711 13.1C14.3632 13.1405 14.3401 13.1765 14.3065 13.2004L11.3759 15.2547L13.6405 13.9472C13.676 13.9271 13.7177 13.9211 13.7574 13.9305C13.7971 13.94 13.8317 13.9641 13.8543 13.9981C13.8769 14.0321 13.8857 14.0733 13.879 14.1136C13.8723 14.1538 13.8506 14.19 13.8183 14.2148L12.0194 15.5771L12.6612 15.2064C12.6981 15.1854 12.7419 15.1799 12.783 15.191C12.824 15.2021 12.859 15.2291 12.8802 15.2659C12.9015 15.3027 12.9073 15.3464 12.8964 15.3875C12.8856 15.4287 12.8589 15.4638 12.8222 15.4853L9.94188 17.1483C9.90643 17.1685 9.86465 17.1745 9.82497 17.165C9.78529 17.1556 9.75067 17.1314 9.7281 17.0975C9.70553 17.0635 9.6967 17.0222 9.70339 16.982C9.71007 16.9417 9.73177 16.9055 9.76412 16.8807L11.5627 15.5188L8.36228 17.3679C8.33767 17.3816 8.30991 17.3886 8.28177 17.3882Z" fill="white"/>
<path d="M7.81684 1.61063C7.78369 1.61058 7.75137 1.60029 7.72428 1.58118C7.69719 1.56207 7.67666 1.53507 7.6655 1.50385C7.65433 1.47264 7.65307 1.43874 7.66188 1.40679C7.6707 1.37483 7.68916 1.34637 7.71476 1.3253L7.7534 1.2931L7.24104 1.58809C7.2068 1.60624 7.16717 1.61143 7.12941 1.60272C7.09165 1.59401 7.05831 1.57197 7.03548 1.54066C7.01266 1.50934 7.0019 1.47085 7.00517 1.43223C7.00844 1.39362 7.02552 1.35749 7.05329 1.33046L7.30577 1.10503L6.52707 1.55588C6.49506 1.57454 6.45759 1.58159 6.42098 1.57584C6.38438 1.57008 6.35088 1.55188 6.32613 1.5243C6.30139 1.49671 6.28691 1.46144 6.28515 1.42443C6.28339 1.38741 6.29445 1.35092 6.31646 1.32112L6.76732 0.704732L6.35543 0.942398C6.32425 0.960433 6.28794 0.967497 6.25228 0.962462C6.21662 0.957426 6.18367 0.940582 6.15871 0.914621C6.13376 0.88866 6.11822 0.855081 6.11459 0.819251C6.11096 0.783421 6.11945 0.747409 6.13869 0.71697L6.24303 0.552085C6.2133 0.542659 6.18694 0.524799 6.16717 0.500677C6.14739 0.476554 6.13505 0.447207 6.13164 0.416201C6.12823 0.385196 6.1339 0.353867 6.14796 0.326022C6.16201 0.298178 6.18386 0.275016 6.21083 0.259351L6.58665 0.042296C6.61782 0.024261 6.65414 0.0171965 6.6898 0.0222318C6.72546 0.0272671 6.7584 0.0441114 6.78336 0.0700724C6.80832 0.0960335 6.82386 0.129612 6.82749 0.165443C6.83112 0.201273 6.82263 0.237285 6.80338 0.267724L6.75959 0.336963L7.27002 0.042296C7.302 0.0237818 7.33938 0.0168318 7.37588 0.0226123C7.41238 0.0283928 7.44578 0.0465521 7.47047 0.0740426C7.49517 0.101533 7.50966 0.136682 7.51151 0.17359C7.51336 0.210498 7.50246 0.246919 7.48063 0.276741L7.02978 0.893126L8.50311 0.042296C8.53758 0.0227153 8.57805 0.0165363 8.61679 0.0249423C8.65553 0.0333482 8.68981 0.0557482 8.71306 0.0878531C8.73631 0.119958 8.7469 0.159511 8.74281 0.198939C8.73871 0.238367 8.72021 0.274898 8.69086 0.301538L8.43838 0.526966L9.27826 0.042296C9.31319 0.022799 9.35413 0.0170032 9.3931 0.0260376C9.43207 0.035072 9.46628 0.0582897 9.48907 0.0911679C9.51186 0.124046 9.5216 0.16423 9.51638 0.203893C9.51117 0.243556 9.49137 0.279857 9.46086 0.305725L9.42253 0.337929L9.87339 0.0773983C9.90765 0.0587869 9.94749 0.0532366 9.98553 0.0617775C10.0236 0.0703185 10.0572 0.0923706 10.0802 0.123841C10.1032 0.155311 10.1141 0.194062 10.1107 0.2329C10.1073 0.271739 10.0899 0.308027 10.0618 0.33503L9.82476 0.549509L10.0421 0.423913C10.0751 0.404936 10.1137 0.398238 10.1511 0.405006C10.1886 0.411774 10.2224 0.431571 10.2466 0.460889C10.2708 0.490207 10.2839 0.527154 10.2835 0.565184C10.2831 0.603214 10.2692 0.639872 10.2444 0.668664L10.0885 0.848362C10.1218 0.841741 10.1564 0.845618 10.1874 0.859461C10.2185 0.873304 10.2444 0.896429 10.2618 0.925652C10.283 0.962566 10.2888 1.00641 10.2778 1.04758C10.2669 1.08874 10.24 1.12388 10.2032 1.14528L9.43574 1.58809C9.40281 1.60687 9.36432 1.61344 9.32703 1.60664C9.28974 1.59983 9.25604 1.58009 9.23188 1.55088C9.20771 1.52167 9.19463 1.48488 9.19492 1.44697C9.19522 1.40907 9.20888 1.37248 9.2335 1.34366L9.37326 1.18264L8.66928 1.58809C8.63503 1.6067 8.59518 1.61225 8.55714 1.60371C8.5191 1.59517 8.48545 1.57312 8.46244 1.54165C8.43943 1.51017 8.42861 1.47142 8.43201 1.43259C8.4354 1.39375 8.45277 1.35746 8.48089 1.33046L8.71888 1.11533L7.89735 1.58809C7.87301 1.60266 7.84521 1.61044 7.81684 1.61063Z" fill="#CD4C60"/>
<path d="M8.30832 11.9084C8.27665 11.9084 8.24568 11.8991 8.21929 11.8816C8.19291 11.8641 8.17227 11.8392 8.15996 11.81C8.14766 11.7808 8.14423 11.7486 8.15011 11.7175C8.156 11.6864 8.17092 11.6577 8.19303 11.635L8.21847 11.6093L7.87872 11.8051C7.8444 11.8263 7.80337 11.8339 7.76375 11.8263C7.72412 11.8187 7.68878 11.7965 7.66473 11.7641C7.64068 11.7317 7.62967 11.6915 7.63387 11.6513C7.63807 11.6112 7.65718 11.5741 7.68743 11.5474L8.0056 11.2492L7.52254 11.5278C7.48826 11.5469 7.44819 11.5528 7.40985 11.5445C7.37151 11.5361 7.33754 11.514 7.31433 11.4824C7.29111 11.4508 7.28025 11.4117 7.28378 11.3726C7.28731 11.3336 7.30499 11.2971 7.3335 11.2702L7.81334 10.8325L7.33705 11.1069C7.30195 11.1267 7.26069 11.1327 7.22142 11.1236C7.18214 11.1145 7.14771 11.091 7.12493 11.0577C7.10215 11.0244 7.09267 10.9839 7.09838 10.9439C7.10408 10.904 7.12455 10.8677 7.15574 10.8422L7.27393 10.7455C7.2451 10.7484 7.21605 10.7436 7.18966 10.7317C7.16327 10.7197 7.14047 10.7011 7.12353 10.6776C7.10044 10.6446 7.09058 10.6041 7.09588 10.5641C7.10119 10.5242 7.12128 10.4877 7.15219 10.4618L7.35411 10.2931C7.32584 10.297 7.29703 10.2931 7.27085 10.2817C7.24466 10.2703 7.22211 10.252 7.20565 10.2287C7.18206 10.197 7.17096 10.1577 7.17446 10.1183C7.17797 10.0789 7.19583 10.0422 7.22465 10.0152L7.5483 9.71277C7.5148 9.72671 7.47757 9.72892 7.44266 9.71905C7.40774 9.70918 7.37718 9.68781 7.35593 9.6584C7.33468 9.62898 7.32399 9.59325 7.32559 9.557C7.32719 9.52075 7.34098 9.48611 7.36474 9.45868L7.76665 8.99494C7.73924 9.00211 7.71043 9.00193 7.68312 8.99441C7.65581 8.98689 7.63097 8.9723 7.6111 8.95211C7.58598 8.92657 7.5701 8.89339 7.56596 8.85781C7.56181 8.82223 7.56965 8.78629 7.58824 8.75567L7.91672 8.21528C7.89476 8.19966 7.87707 8.17878 7.86527 8.15455C7.85347 8.13032 7.84795 8.10352 7.8492 8.0766C7.85045 8.04968 7.85843 8.0235 7.87242 8.00047C7.88642 7.97744 7.90596 7.95829 7.92928 7.94477L8.19882 7.79051C8.2298 7.77249 8.26591 7.76532 8.30142 7.77014C8.33693 7.77495 8.36982 7.79147 8.39488 7.81709C8.41995 7.84271 8.43575 7.87595 8.43978 7.91156C8.44382 7.94717 8.43586 7.98311 8.41717 8.01369L8.19174 8.38693L8.42715 8.25103C8.46015 8.23185 8.49888 8.22502 8.53644 8.23175C8.57401 8.23848 8.60796 8.25833 8.63225 8.28776C8.65654 8.31719 8.66958 8.3543 8.66906 8.39246C8.66854 8.43061 8.65448 8.46735 8.62939 8.4961L8.23972 8.94438L8.60427 8.73441C8.63858 8.71388 8.6793 8.70685 8.71851 8.71468C8.75772 8.72252 8.79261 8.74466 8.81639 8.7768C8.84018 8.80894 8.85115 8.84878 8.84718 8.88856C8.84321 8.92835 8.82458 8.96523 8.79492 8.99204L8.47546 9.28993L8.74082 9.13728C8.77569 9.1173 8.81678 9.11107 8.85601 9.11984C8.89524 9.12861 8.92977 9.15173 8.95281 9.18467C8.97586 9.2176 8.98575 9.25796 8.98055 9.29782C8.97535 9.33768 8.95543 9.37415 8.9247 9.40007L8.78172 9.51987L8.84806 9.48154C8.88315 9.4617 8.92441 9.45574 8.96369 9.46484C9.00296 9.47394 9.03739 9.49745 9.06017 9.53071C9.08295 9.56397 9.09243 9.60457 9.08672 9.64448C9.08102 9.68439 9.06055 9.72071 9.02936 9.74626L8.96496 9.79875C8.99993 9.78633 9.03812 9.78638 9.07306 9.79887C9.108 9.81137 9.13756 9.83555 9.15673 9.86733C9.17589 9.89911 9.18349 9.93653 9.17824 9.97327C9.17299 10.01 9.15521 10.0438 9.12791 10.0689L8.64775 10.5053L9.03742 10.2799C9.07173 10.259 9.1126 10.2517 9.15201 10.2594C9.19142 10.2672 9.22652 10.2893 9.25044 10.3216C9.27435 10.3538 9.28535 10.3939 9.28127 10.4338C9.27719 10.4738 9.25833 10.5108 9.22839 10.5375L8.90828 10.8396L9.0693 10.7468C9.10297 10.7274 9.14254 10.7208 9.1807 10.7283C9.21885 10.7358 9.25302 10.7568 9.27688 10.7875C9.30075 10.8182 9.3127 10.8565 9.31053 10.8953C9.30837 10.9341 9.29223 10.9708 9.2651 10.9987L9.04418 11.2241C9.06953 11.2376 9.09082 11.2576 9.10583 11.2821C9.12084 11.3066 9.12903 11.3346 9.12956 11.3633C9.13009 11.392 9.12292 11.4204 9.10882 11.4454C9.09471 11.4704 9.07417 11.4912 9.04933 11.5056L8.38883 11.8869C8.36442 11.9012 8.33661 11.9086 8.30832 11.9084Z" fill="#F7BC5C"/>
<path d="M9.55747 18.8935C18.8709 17.2463 18.2735 4.09383 9.35523 2.76091V1.61348C10.4727 1.95645 10.8012 0.0235663 9.64507 0.0242104C8.61905 0.0242104 7.55696 -0.0321466 6.53899 0.0271087C6.0321 0.132094 6.01149 0.609357 6.07525 1.05764C6.11937 1.63087 6.6385 1.60832 7.08743 1.62185V2.69038C-3.68771 4.07418 -1.17257 20.4686 9.55747 18.8935ZM6.64366 1.31237C6.39665 1.20867 6.35672 0.622238 6.53964 0.421608C7.4903 0.173637 8.74658 0.337233 9.75392 0.317589C10.7522 1.84663 8.16336 1.15489 7.34763 1.33974C7.3351 1.32032 7.31756 1.30463 7.29688 1.29432C7.27619 1.28401 7.25311 1.27946 7.23005 1.28114C7.207 1.28282 7.18482 1.29067 7.16585 1.30387C7.14687 1.31707 7.1318 1.33514 7.12221 1.35617C6.96137 1.37439 6.79851 1.35949 6.64366 1.31237ZM7.37694 1.63602C7.90702 1.64858 8.44225 1.63409 8.97458 1.61992V2.70906C8.44472 2.64246 7.9096 2.62811 7.37694 2.66623V1.63602ZM7.16439 2.97281C17.8139 1.79865 19.247 17.8417 8.58717 18.6884C-1.35356 19.0046 -2.60211 4.4748 7.16439 2.97281Z" fill="#262626"/>
<path d="M8.21969 17.4283C16.8993 17.1094 16.8069 4.42847 8.1775 4.16858C-0.494388 4.43877 -0.417099 17.1197 8.21969 17.4283ZM8.21969 4.54665C16.4816 4.77723 16.4027 16.7774 8.1775 17.0502C-0.103432 16.7394 -0.0206676 4.80493 8.21969 4.54665Z" fill="#262626"/>
<path d="M7.63547 11.7935C7.81567 11.8797 8.01463 11.9193 8.21411 11.9087C8.41359 11.898 8.60721 11.8375 8.77725 11.7327C8.94728 11.6278 9.08828 11.482 9.18733 11.3085C9.28639 11.135 9.34033 10.9395 9.34421 10.7398C9.19446 9.78361 8.99319 8.56469 8.40772 7.78375C7.74722 7.42403 7.42324 9.16401 7.32309 9.49442C7.09605 10.2441 6.75115 11.3342 7.63547 11.7935ZM7.50891 10.0973C8.17972 6.66562 8.62896 8.96531 8.98256 10.836C8.60255 12.253 6.92086 11.3181 7.50891 10.0973ZM8.37906 6.58544C8.37165 6.29109 8.5053 5.02193 8.01837 5.67181C8.02578 5.96776 7.89213 7.23563 8.37906 6.58544ZM3.05284 10.9916H4.01896C4.57222 10.4676 3.34107 10.6164 3.03931 10.6051C2.84706 10.6051 2.85897 10.9916 3.05284 10.9916ZM8.00903 15.0007C8.01837 15.3024 7.87571 16.549 8.3884 15.9346C8.37906 15.6331 8.52076 14.3869 8.00903 15.0007ZM12.3888 10.9887H13.3549C13.5626 10.9887 13.5311 10.608 13.3478 10.608C13.048 10.619 11.8056 10.4712 12.3888 10.9887Z" fill="#262626"/>
</svg>
