<svg width="28" height="27" viewBox="0 0 28 27" fill="none" xmlns="http://www.w3.org/2000/svg">
<path d="M12.1713 26.9998C12.033 26.9999 11.8982 26.9558 11.7867 26.8739C11.6753 26.792 11.5929 26.6766 11.5516 26.5446C11.5103 26.4126 11.5122 26.2708 11.5572 26.14C11.6021 26.0091 11.6877 25.8961 11.8014 25.8173L13.2097 24.8399L10.38 26.4715C10.2361 26.5505 10.0677 26.572 9.90857 26.5318C9.74946 26.4915 9.6115 26.3925 9.52248 26.2546C9.43346 26.1167 9.4 25.9502 9.42881 25.7886C9.45763 25.627 9.54659 25.4824 9.67778 25.3838L15.5877 21.147L8.02409 25.5123C7.87974 25.5946 7.70931 25.6185 7.5479 25.5789C7.3865 25.5393 7.24644 25.4393 7.15657 25.2995C7.06671 25.1597 7.03389 24.9908 7.06488 24.8275C7.09587 24.6642 7.18832 24.5191 7.32315 24.4219L15.0763 18.9001L5.9745 24.1597C5.82897 24.2392 5.65855 24.2599 5.49821 24.2177C5.33787 24.1755 5.19977 24.0735 5.11225 23.9327C5.02473 23.7918 4.99443 23.6229 5.02757 23.4604C5.0607 23.2979 5.15476 23.1543 5.29044 23.059L8.82108 20.7083L4.76084 23.0525C4.61509 23.133 4.44399 23.1543 4.28293 23.1122C4.12186 23.0701 3.98314 22.9677 3.89546 22.8261C3.80778 22.6846 3.77784 22.5148 3.81183 22.3518C3.84581 22.1888 3.94114 22.0452 4.07808 21.9505L8.12015 19.2636L3.70684 21.8129C3.56197 21.896 3.39062 21.9201 3.22844 21.8801C3.06626 21.8401 2.92574 21.7392 2.83611 21.5982C2.74649 21.4573 2.71466 21.2872 2.74725 21.1233C2.77985 20.9595 2.87435 20.8146 3.01109 20.7186L11.8455 14.5491L2.53472 19.9243C2.39037 20.0066 2.21993 20.0304 2.05853 19.9908C1.89713 19.9513 1.75706 19.8513 1.6672 19.7115C1.57733 19.5717 1.54452 19.4027 1.57551 19.2395C1.6065 19.0762 1.69894 18.931 1.83378 18.8339L11.4872 11.9712L1.64946 17.6514C1.50562 17.7332 1.33595 17.757 1.17515 17.7179C1.01435 17.6788 0.874572 17.5797 0.784389 17.4409C0.694206 17.3022 0.660433 17.1342 0.689977 16.9714C0.719521 16.8086 0.810149 16.6632 0.943331 16.5649L10.589 9.55558L1.17828 14.9878C1.03492 15.0693 0.865922 15.0932 0.705602 15.0546C0.545282 15.016 0.405665 14.9178 0.315112 14.78C0.224559 14.6422 0.189858 14.4751 0.21806 14.3126C0.246263 14.1502 0.335254 14.0045 0.466955 13.9053L8.90416 7.64618L1.30419 12.0335C1.16065 12.1157 0.991127 12.1401 0.830266 12.1015C0.669405 12.0629 0.529343 11.9644 0.438696 11.826C0.34805 11.6876 0.313661 11.5199 0.342556 11.357C0.371451 11.1941 0.461448 11.0484 0.594161 10.9497L5.89143 7.02572L2.083 9.23237C1.94481 9.31043 1.78281 9.33514 1.62763 9.30183C1.47246 9.26853 1.33486 9.17952 1.24087 9.05164C1.14687 8.92375 1.103 8.76586 1.11753 8.60782C1.13207 8.44977 1.20402 8.30254 1.31976 8.19394L5.19309 4.63734C5.04228 4.68652 4.87868 4.67878 4.7332 4.61556C4.58771 4.55235 4.47042 4.43804 4.40347 4.29424C4.33652 4.15043 4.32456 3.98709 4.36983 3.83506C4.41511 3.68304 4.51449 3.55286 4.64921 3.46911L9.61678 0.600464C9.75497 0.522411 9.91697 0.497701 10.0721 0.531005C10.2273 0.564308 10.3649 0.653316 10.4589 0.781199C10.5529 0.909082 10.5968 1.06698 10.5822 1.22502C10.5677 1.38306 10.4958 1.5303 10.38 1.63889L6.54174 5.16434L15.2243 0.146155C15.3678 0.0639336 15.5373 0.0396223 15.6982 0.0781922C15.859 0.116762 15.9991 0.2153 16.0898 0.353673C16.1804 0.492046 16.2148 0.65981 16.1859 0.822687C16.157 0.985564 16.067 1.13126 15.9343 1.23001L10.6318 5.14617L18.0384 0.86786C18.1818 0.786362 18.3508 0.762484 18.5111 0.801082C18.6714 0.83968 18.811 0.937858 18.9016 1.07567C18.9921 1.21348 19.0268 1.3806 18.9986 1.54307C18.9704 1.70554 18.8814 1.85118 18.7497 1.95042L10.3125 8.20952L20.663 2.23858C20.8071 2.15354 20.9785 2.12744 21.1414 2.16575C21.3043 2.20405 21.4461 2.30379 21.5372 2.44415C21.6283 2.5845 21.6617 2.75462 21.6304 2.919C21.5991 3.08338 21.5055 3.22931 21.3692 3.32633L11.7235 10.3357L22.7347 3.97534C22.8793 3.88916 23.0518 3.86257 23.2157 3.90117C23.3796 3.93977 23.522 4.04055 23.613 4.18223C23.704 4.32391 23.7363 4.4954 23.7032 4.66048C23.6701 4.82557 23.5742 4.97133 23.4356 5.06699L13.7796 11.9323L24.256 5.88345C24.4008 5.80031 24.5722 5.77623 24.7344 5.81621C24.8966 5.8562 25.0371 5.95717 25.1267 6.09813C25.2163 6.23908 25.2481 6.40917 25.2156 6.57299C25.183 6.73682 25.0885 6.88177 24.9517 6.97769L16.1251 13.1407L25.3113 7.83699C25.4571 7.75401 25.6295 7.73077 25.7921 7.77213C25.9548 7.8135 26.0951 7.91626 26.1836 8.05884C26.2721 8.20143 26.3019 8.37275 26.2668 8.53686C26.2317 8.70097 26.1344 8.84511 25.9953 8.93902L21.9403 11.635L25.8551 9.37386C26.0015 9.28297 26.1779 9.25393 26.3456 9.29312C26.5133 9.33231 26.6586 9.43653 26.7495 9.58284C26.8404 9.72915 26.8694 9.90557 26.8302 10.0733C26.791 10.241 26.6868 10.3863 26.5405 10.4772L23.0047 12.8292L26.216 10.9704C26.3603 10.8881 26.5308 10.8643 26.6922 10.9038C26.8536 10.9434 26.9937 11.0434 27.0835 11.1832C27.1734 11.323 27.2062 11.4919 27.1752 11.6552C27.1442 11.8185 27.0518 11.9636 26.9169 12.0608L19.1677 17.58L26.351 13.4328C26.4951 13.3513 26.665 13.328 26.8257 13.3677C26.9865 13.4074 27.126 13.507 27.2158 13.6461C27.3055 13.7853 27.3386 13.9535 27.3084 14.1163C27.2782 14.2791 27.1869 14.4242 27.0532 14.5218L21.1446 18.7586L26.0187 15.9445C26.1638 15.8601 26.3359 15.8351 26.499 15.8749C26.6621 15.9147 26.8034 16.0162 26.8933 16.158C26.9832 16.2997 27.0146 16.4708 26.981 16.6353C26.9474 16.7998 26.8514 16.9448 26.7131 17.04L25.3074 18.02L25.3593 17.9902C25.5018 17.91 25.6694 17.8865 25.8284 17.9245C25.9875 17.9625 26.1264 18.0592 26.2172 18.1952C26.3081 18.3312 26.3443 18.4964 26.3185 18.6579C26.2928 18.8194 26.207 18.9653 26.0784 19.0663L23.7056 20.8926C23.8576 20.8372 24.0248 20.8405 24.1744 20.9019C24.324 20.9634 24.4453 21.0785 24.5145 21.2247C24.5838 21.3709 24.5959 21.5376 24.5485 21.6923C24.5012 21.847 24.3978 21.9784 24.2586 22.0608L15.9005 26.8856C15.758 26.9658 15.5905 26.9892 15.4314 26.9512C15.2723 26.9132 15.1335 26.8166 15.0426 26.6806C14.9518 26.5446 14.9156 26.3794 14.9413 26.2179C14.967 26.0564 15.0528 25.9105 15.1814 25.8095L17.4984 24.0299L12.4958 26.9116C12.3973 26.969 12.2853 26.9994 12.1713 26.9998Z" fill="#87B1D3"/>
<path d="M16.264 26.8405C29.7947 24.4041 31.8131 5.34641 18.6446 0.703349C-4.02033 -5.32341 -7.43415 29.4353 16.264 26.8405ZM3.32133 7.22595C9.474 -3.73073 25.7864 1.46659 25.789 13.611C24.1807 34.643 -5.41182 25.6515 3.32133 7.22595Z" fill="#262626"/>
</svg>
