<svg width="16" height="14" viewBox="0 0 16 14" fill="none" xmlns="http://www.w3.org/2000/svg">
<path d="M4.79154 13.3963C4.71186 13.3969 4.63396 13.3728 4.56852 13.3273C4.50308 13.2818 4.45329 13.2172 4.42599 13.1424C4.39869 13.0675 4.39521 12.986 4.41602 12.9091C4.43683 12.8322 4.48092 12.7636 4.54224 12.7127L5.87777 11.5901L4.15204 12.5865C4.06727 12.6353 3.96717 12.6502 3.87186 12.6282C3.77655 12.6063 3.69309 12.549 3.63826 12.468C3.58344 12.387 3.56132 12.2882 3.57634 12.1916C3.59137 12.0949 3.64242 12.0075 3.71925 11.947L7.91784 8.64728L2.96439 11.5065C2.88977 11.5499 2.80275 11.5671 2.71722 11.5553C2.63169 11.5435 2.55258 11.5034 2.49252 11.4413C2.43246 11.3793 2.3949 11.2989 2.38584 11.2131C2.37679 11.1272 2.39676 11.0408 2.44256 10.9676L3.2973 9.59415L1.80616 10.4543C1.7275 10.4986 1.63587 10.514 1.54705 10.498C1.45822 10.482 1.37776 10.4355 1.31953 10.3665C1.2613 10.2976 1.22894 10.2105 1.22803 10.1202C1.22711 10.03 1.2577 9.94222 1.31453 9.87209L1.91842 9.14433L0.966902 9.69325C0.888485 9.73875 0.796583 9.75529 0.707221 9.73998C0.617858 9.72466 0.536706 9.67847 0.477915 9.60945C0.419124 9.54043 0.386424 9.45296 0.385517 9.3623C0.38461 9.27164 0.415555 9.18354 0.472953 9.11336L1.54215 7.8026C1.49398 7.76284 1.45619 7.71196 1.43204 7.65435C1.40789 7.59674 1.3981 7.53413 1.4035 7.4719C1.40891 7.40967 1.42936 7.34968 1.46309 7.29711C1.49681 7.24453 1.54281 7.20093 1.59712 7.17007L2.53005 6.63199C2.60832 6.58628 2.70019 6.5696 2.78953 6.5849C2.87887 6.60019 2.95997 6.64646 3.01858 6.7156C3.0772 6.78471 3.10983 6.87214 3.11082 6.96276C3.11181 7.05338 3.0811 7.1415 3.024 7.21188L2.40618 7.96906L3.40182 7.39459C3.48047 7.35032 3.57211 7.33486 3.66093 7.35088C3.74976 7.3669 3.83021 7.41339 3.88845 7.48236C3.94668 7.55132 3.97904 7.63843 3.97995 7.72868C3.98086 7.81893 3.95027 7.90668 3.89345 7.9768L3.28878 8.70534L4.24804 8.15178C4.32262 8.10754 4.40994 8.08974 4.49588 8.10124C4.58183 8.11274 4.66139 8.15288 4.72171 8.21517C4.78204 8.27746 4.8196 8.35827 4.82834 8.44454C4.83708 8.53081 4.81648 8.61751 4.76987 8.69063L3.91513 10.0641L12.2271 5.26549C12.3119 5.21668 12.412 5.20176 12.5073 5.22375C12.6026 5.24573 12.6861 5.30298 12.7409 5.38399C12.7957 5.465 12.8179 5.56376 12.8028 5.66041C12.7878 5.75707 12.7368 5.84445 12.6599 5.90499L8.46134 9.20472L9.2975 8.72238C9.38139 8.67016 9.48209 8.65206 9.57891 8.67182C9.67573 8.69158 9.7613 8.74768 9.81802 8.8286C9.87474 8.90951 9.8983 9.00909 9.88385 9.10684C9.8694 9.20459 9.81805 9.29309 9.74035 9.35414L7.61589 11.141C7.67748 11.173 7.72932 11.2209 7.76593 11.2798C7.80254 11.3388 7.82258 11.4065 7.82393 11.4758C7.82527 11.5452 7.80788 11.6136 7.77359 11.6739C7.73929 11.7342 7.68936 11.7842 7.62906 11.8185L4.9851 13.3452C4.92638 13.3795 4.85954 13.3967 4.79154 13.3963Z" fill="#6BB577"/>
<path d="M6.04584 8.70603C5.96453 8.70619 5.88523 8.68075 5.81919 8.6333C5.75316 8.58585 5.70374 8.51882 5.67795 8.4417C5.65216 8.36459 5.6513 8.28131 5.67551 8.20368C5.69972 8.12606 5.74775 8.05802 5.81281 8.00923L9.53757 5.20424L8.80284 5.62851C8.71834 5.68611 8.61443 5.70778 8.51395 5.68876C8.41348 5.66974 8.32467 5.61158 8.26708 5.52709C8.20948 5.44259 8.18781 5.33868 8.20683 5.2382C8.22585 5.13773 8.284 5.04893 8.3685 4.99133L10.438 3.33992C10.377 3.3173 10.3227 3.27968 10.2801 3.23053C10.2375 3.18138 10.208 3.12229 10.1942 3.05871C10.1805 2.99514 10.183 2.92913 10.2015 2.86677C10.22 2.80442 10.254 2.74774 10.3002 2.70196L12.0004 1.02114C11.9637 0.934097 11.9601 0.836687 11.9902 0.747175C12.0203 0.657663 12.082 0.582196 12.1637 0.534927L12.996 0.0549104C13.0775 0.00607554 13.1742 -0.0109961 13.2675 0.00695885C13.3608 0.0249138 13.4443 0.0766359 13.5019 0.152236C13.5594 0.227835 13.5871 0.322008 13.5797 0.416747C13.5722 0.511487 13.53 0.600145 13.4613 0.66577L12.9844 1.13727L13.7873 0.673511C13.8718 0.615914 13.9757 0.594242 14.0761 0.613263C14.1766 0.632283 14.2654 0.690438 14.323 0.774934C14.3806 0.85943 14.4023 0.963345 14.3833 1.06382C14.3642 1.16429 14.3061 1.2531 14.2216 1.31069L12.8861 2.37602L14.6443 1.36102C14.7296 1.31213 14.8304 1.29755 14.9261 1.32024C15.0217 1.34292 15.1052 1.40117 15.1595 1.48316C15.2138 1.56515 15.2349 1.66473 15.2184 1.76168C15.202 1.85863 15.1492 1.94569 15.0709 2.00517L11.3469 4.80939L13.8236 3.37941C13.8676 3.35368 13.9162 3.33693 13.9667 3.33013C14.0171 3.32333 14.0684 3.32662 14.1176 3.33979C14.1668 3.35297 14.2129 3.37578 14.2532 3.40691C14.2935 3.43803 14.3272 3.47684 14.3524 3.52109C14.3781 3.56506 14.3947 3.61367 14.4015 3.66411C14.4082 3.71456 14.4049 3.76583 14.3917 3.81499C14.3786 3.86415 14.3558 3.91022 14.3247 3.95053C14.2937 3.99084 14.2549 4.02461 14.2108 4.04988L6.23862 8.65261C6.17991 8.6869 6.11307 8.70481 6.04507 8.70448L6.04584 8.70603Z" fill="#6BB577"/>
<path d="M4.58873 13.5472C5.47056 14.2053 6.31291 13.4938 6.86803 12.814C9.77367 9.35326 12.7459 5.92579 15.6376 2.46581C16.1215 1.41752 14.4112 0.874789 13.8329 0.222897C12.0398 -1.16837 7.00971 7.19706 5.2863 8.55194C4.11026 7.48662 2.65937 5.57894 1.26268 7.46184C0.788862 7.95657 -0.485501 8.82911 0.196585 9.5561C1.60334 10.9389 3.1541 12.1884 4.5895 13.5464L4.58873 13.5472ZM1.20152 9.08615C0.90577 8.39013 2.11974 7.91089 2.4333 7.36197C3.42353 7.90779 4.5957 10.2777 5.77638 9.22706C8.17568 6.43136 10.5014 3.58068 12.9371 0.817497C13.4605 1.23248 14.148 1.55223 14.5398 2.06631C14.8154 2.50375 14.0536 3.08209 13.8143 3.36468L5.58824 13.0718C4.1451 11.727 2.62608 10.4325 1.20152 9.08615Z" fill="#262626"/>
</svg>
