<svg width="40" height="36" viewBox="0 0 40 36" fill="none" xmlns="http://www.w3.org/2000/svg">
<path d="M7.22153 35.3244C7.14997 35.3245 7.08028 35.3016 7.02278 35.259C6.96527 35.2164 6.923 35.1564 6.90222 35.088C6.88144 35.0195 6.88325 34.9461 6.90739 34.8788C6.93152 34.8114 6.9767 34.7536 7.03624 34.7139L9.03914 33.3815L5.75117 35.2798C5.67625 35.3196 5.58899 35.3294 5.50712 35.3072C5.42524 35.2849 5.35489 35.2324 5.31035 35.1602C5.2658 35.088 5.25041 35.0016 5.2673 34.9184C5.28418 34.8353 5.33207 34.7617 5.40125 34.7126L8.21665 32.8616L4.02754 35.2798C3.95251 35.3233 3.86347 35.3358 3.77935 35.3147C3.69522 35.2937 3.62263 35.2406 3.57699 35.1668C3.53135 35.0931 3.51626 35.0045 3.53492 34.9198C3.55359 34.8351 3.60454 34.761 3.67695 34.7132L8.58257 31.4713L2.18127 35.1665C2.10642 35.2099 2.01763 35.2224 1.93368 35.2015C1.84973 35.1807 1.77719 35.1279 1.7314 35.0545C1.68561 34.9811 1.67016 34.8928 1.68831 34.8082C1.70646 34.7236 1.7568 34.6494 1.82867 34.6013L9.47638 29.4777L1.12282 34.3007C1.04739 34.3404 0.959622 34.3497 0.877509 34.3268C0.795396 34.3039 0.725155 34.2505 0.681182 34.1774C0.637208 34.1044 0.622832 34.0173 0.641 33.934C0.659168 33.8507 0.708504 33.7775 0.778896 33.7295L1.83667 33.0683L0.879542 33.6201C0.804561 33.6647 0.715109 33.6781 0.630382 33.6574C0.545654 33.6367 0.472402 33.5837 0.426345 33.5096C0.380288 33.4356 0.365096 33.3464 0.38403 33.2613C0.402963 33.1761 0.454512 33.1018 0.527616 33.0543L9.10246 27.3441L0.850214 32.1085C0.775124 32.1482 0.687712 32.1578 0.605777 32.1354C0.523842 32.1129 0.453545 32.0601 0.4092 31.9876C0.364855 31.9151 0.349797 31.8285 0.367092 31.7453C0.384386 31.6622 0.432733 31.5887 0.502288 31.5399L6.91893 27.3815L0.850214 30.8854C0.774548 30.929 0.684776 30.9412 0.600219 30.9193C0.515662 30.8974 0.443079 30.8432 0.398089 30.7683C0.353099 30.6935 0.3393 30.6039 0.35966 30.519C0.38002 30.4341 0.432912 30.3605 0.506954 30.3142L1.44609 29.727L0.849548 30.0716C0.812173 30.0944 0.770673 30.1096 0.727417 30.1163C0.684161 30.1231 0.639997 30.1213 0.597446 30.111C0.554895 30.1007 0.51479 30.0821 0.479421 30.0563C0.444053 30.0305 0.414113 29.998 0.391312 29.9606C0.36851 29.9232 0.353294 29.8817 0.346531 29.8385C0.339768 29.7952 0.341591 29.751 0.351896 29.7085C0.362201 29.6659 0.380787 29.6258 0.406591 29.5905C0.432395 29.5551 0.464913 29.5251 0.502288 29.5023L5.63453 26.2097L0.848881 28.9725C0.773791 29.0122 0.686379 29.0218 0.604444 28.9994C0.522509 28.9769 0.452212 28.9241 0.407867 28.8516C0.363522 28.7791 0.348464 28.6925 0.365759 28.6093C0.383053 28.5262 0.4314 28.4527 0.500955 28.4039L6.03178 24.8193L0.848881 27.812C0.774151 27.8546 0.685848 27.8667 0.602441 27.8457C0.519034 27.8246 0.446983 27.7722 0.401357 27.6993C0.355731 27.6264 0.340064 27.5386 0.357633 27.4544C0.375202 27.3702 0.424645 27.2961 0.495623 27.2475L7.25619 22.6758L0.849548 26.3743C0.775263 26.4165 0.687633 26.4285 0.604746 26.4079C0.521858 26.3873 0.45004 26.3357 0.404115 26.2637C0.35819 26.1917 0.341663 26.1048 0.357948 26.0209C0.374232 25.9371 0.422083 25.8627 0.491624 25.8131L6.30772 21.724L0.850214 24.8753C0.775882 24.9187 0.687632 24.9317 0.603949 24.9115C0.520266 24.8913 0.447644 24.8395 0.401293 24.767C0.354943 24.6945 0.338461 24.6068 0.355299 24.5224C0.372137 24.438 0.42099 24.3633 0.491624 24.3141L4.2355 21.676L0.850214 23.6303C0.775542 23.6716 0.687846 23.6827 0.60521 23.6614C0.522573 23.64 0.451297 23.5877 0.406079 23.5153C0.360861 23.4429 0.345148 23.3559 0.362181 23.2722C0.379213 23.1886 0.427693 23.1147 0.497623 23.0657L0.971522 22.7458L0.850214 22.8151C0.7772 22.8594 0.68994 22.8739 0.606513 22.8556C0.523087 22.8374 0.449887 22.7877 0.402079 22.7169C0.35427 22.6462 0.335518 22.5597 0.349707 22.4755C0.363895 22.3913 0.409937 22.3157 0.478293 22.2645L2.90844 20.3636L0.850214 21.5514C0.778002 21.5953 0.691784 21.61 0.609074 21.5927C0.526365 21.5753 0.453369 21.5271 0.404915 21.4579C0.356462 21.3886 0.336185 21.3035 0.348205 21.2199C0.360225 21.1362 0.403639 21.0603 0.469628 21.0075L1.80268 19.8877L0.850214 20.4369C0.784241 20.4755 0.70698 20.4903 0.631433 20.4786C0.555887 20.4669 0.486667 20.4296 0.435422 20.3729C0.384177 20.3161 0.354034 20.2435 0.350067 20.1671C0.3461 20.0908 0.36855 20.0154 0.41364 19.9537L1.26013 18.78L1.24013 18.7913C1.16359 18.8355 1.07263 18.8475 0.987252 18.8246C0.901878 18.8017 0.829088 18.7459 0.784895 18.6693C0.740702 18.5928 0.728725 18.5018 0.751599 18.4164C0.774474 18.3311 0.830326 18.2583 0.906869 18.2141L2.27325 17.4249C2.33922 17.3863 2.41648 17.3716 2.49203 17.3833C2.56757 17.3949 2.63679 17.4323 2.68804 17.489C2.73928 17.5457 2.76943 17.6184 2.77339 17.6947C2.77736 17.771 2.75491 17.8464 2.70982 17.9081L1.86333 19.0826L4.76005 17.4102C4.83223 17.3689 4.91727 17.356 4.99846 17.3741C5.07965 17.3923 5.15112 17.4402 5.19882 17.5083C5.24651 17.5765 5.26699 17.66 5.25623 17.7425C5.24546 17.825 5.20423 17.9005 5.14064 17.9541L3.80825 19.0732L6.68831 17.4109C6.76132 17.3666 6.84858 17.3521 6.93201 17.3704C7.01544 17.3886 7.08864 17.4383 7.13644 17.5091C7.18425 17.5798 7.20301 17.6663 7.18882 17.7505C7.17463 17.8347 7.12859 17.9103 7.06023 17.9615L4.63008 19.8631L8.87651 17.4109C8.95138 17.3642 9.04175 17.3491 9.12774 17.3689C9.17033 17.3788 9.21055 17.3969 9.24613 17.4223C9.2817 17.4477 9.31193 17.4798 9.33508 17.5169C9.35823 17.554 9.37386 17.5952 9.38106 17.6383C9.38826 17.6814 9.38691 17.7255 9.37706 17.7681C9.36722 17.8107 9.34909 17.8509 9.3237 17.8865C9.29832 17.9221 9.26617 17.9523 9.2291 17.9755L8.7532 18.2967L10.2882 17.4109C10.3626 17.3634 10.4529 17.3473 10.5391 17.3663C10.6254 17.3853 10.7006 17.4378 10.7481 17.5122C10.7957 17.5866 10.8117 17.6769 10.7927 17.7632C10.7737 17.8494 10.7212 17.9246 10.6468 17.9721L6.90226 20.6109L12.4451 17.4109C12.5194 17.3688 12.607 17.3568 12.6899 17.3773C12.7728 17.3979 12.8446 17.4496 12.8905 17.5216C12.9364 17.5936 12.953 17.6805 12.9367 17.7643C12.9204 17.8482 12.8726 17.9225 12.803 17.9721L6.98691 22.0606L15.0412 17.4109C15.1159 17.3683 15.2042 17.3563 15.2876 17.3773C15.3711 17.3983 15.4431 17.4508 15.4887 17.5237C15.5344 17.5966 15.55 17.6843 15.5325 17.7685C15.5149 17.8527 15.4654 17.9269 15.3945 17.9755L8.63923 22.5438L16.9341 17.7542C17.0095 17.708 17.1002 17.6937 17.1861 17.7144C17.272 17.7351 17.3462 17.7891 17.3924 17.8645C17.4385 17.9399 17.4528 18.0305 17.4321 18.1164C17.4114 18.2024 17.3575 18.2766 17.2821 18.3227L11.7439 21.9113L17.604 18.5287C17.6795 18.4826 17.7702 18.4684 17.8561 18.4893C17.942 18.5101 18.0162 18.5642 18.0622 18.6397C18.1083 18.7151 18.1225 18.8058 18.1016 18.8918C18.0808 18.9777 18.0267 19.0518 17.9513 19.0979L12.8237 22.3885L17.806 19.5125C17.8816 19.4688 17.9714 19.4567 18.0559 19.4785C18.1405 19.5004 18.2131 19.5546 18.2581 19.6295C18.3031 19.7044 18.3169 19.7939 18.2965 19.8789C18.2761 19.9638 18.2233 20.0373 18.1492 20.0837L17.2101 20.6709L17.8066 20.3263C17.8817 20.2866 17.9691 20.2769 18.0511 20.2994C18.133 20.3218 18.2033 20.3747 18.2476 20.4471C18.292 20.5196 18.307 20.6062 18.2897 20.6894C18.2724 20.7726 18.2241 20.8461 18.1545 20.8948L11.7379 25.0533L17.8066 21.5494C17.8816 21.5048 17.971 21.4915 18.0558 21.5121C18.1405 21.5328 18.2138 21.5858 18.2598 21.6599C18.3059 21.734 18.3211 21.8231 18.3021 21.9082C18.2832 21.9934 18.2316 22.0677 18.1585 22.1152L9.58503 27.824L17.8073 23.077C17.883 23.0314 17.9738 23.0178 18.0596 23.0391C18.1021 23.0497 18.1421 23.0685 18.1773 23.0945C18.2125 23.1205 18.2423 23.1532 18.2649 23.1907C18.2874 23.2282 18.3024 23.2698 18.3089 23.3131C18.3154 23.3564 18.3133 23.4005 18.3028 23.443C18.2922 23.4855 18.2734 23.5255 18.2474 23.5607C18.2214 23.5959 18.1887 23.6257 18.1512 23.6483L17.0981 24.3068L17.8073 23.8975C17.8821 23.8542 17.9709 23.8416 18.0549 23.8625C18.1388 23.8834 18.2114 23.9361 18.2572 24.0095C18.3029 24.0829 18.3184 24.1712 18.3002 24.2558C18.2821 24.3404 18.2318 24.4146 18.1599 24.4627L10.5082 29.589L17.8079 25.3746C17.883 25.3311 17.972 25.3185 18.0561 25.3396C18.1403 25.3607 18.2129 25.4137 18.2585 25.4875C18.3041 25.5612 18.3192 25.6499 18.3006 25.7346C18.2819 25.8193 18.231 25.8934 18.1585 25.9411L13.2516 29.1844L17.8086 26.5536C17.8835 26.5138 17.9708 26.5041 18.0527 26.5263C18.1346 26.5485 18.2049 26.601 18.2494 26.6732C18.294 26.7454 18.3094 26.8319 18.2925 26.915C18.2756 26.9982 18.2277 27.0717 18.1585 27.1209L15.3485 28.9685L17.8086 27.5481C17.8836 27.5036 17.973 27.4902 18.0578 27.5108C18.1425 27.5315 18.2158 27.5846 18.2618 27.6586C18.3079 27.7327 18.3231 27.8218 18.3041 27.907C18.2852 27.9921 18.2336 28.0664 18.1605 28.114L16.155 29.4484L17.8086 28.4932C17.8831 28.4512 17.9708 28.4394 18.0537 28.4602C18.1367 28.4811 18.2084 28.533 18.2541 28.6052C18.2998 28.6775 18.316 28.7645 18.2993 28.8484C18.2827 28.9323 18.2344 29.0065 18.1645 29.0558L15.9277 30.6021L17.8086 29.5163C17.8816 29.4743 17.9678 29.4615 18.0498 29.4804C18.1319 29.4993 18.2037 29.5486 18.2509 29.6184C18.2981 29.6881 18.3172 29.7731 18.3042 29.8563C18.2913 29.9395 18.2473 30.0148 18.1812 30.0669L15.2752 32.3444L17.8093 30.8821C17.8797 30.8404 17.963 30.8261 18.0432 30.842C18.1235 30.8579 18.195 30.9028 18.2443 30.9681C18.2935 31.0334 18.317 31.1146 18.3101 31.1961C18.3033 31.2776 18.2666 31.3537 18.2072 31.4099L16.203 33.3455L17.8086 32.4184C17.8755 32.3805 17.9535 32.3668 18.0293 32.3796C18.1051 32.3925 18.1742 32.4312 18.2248 32.4891C18.2754 32.547 18.3045 32.6206 18.3071 32.6975C18.3097 32.7743 18.2857 32.8497 18.2392 32.911L17.502 33.8648C17.5726 33.8458 17.6476 33.8508 17.7151 33.8789C17.7826 33.907 17.8389 33.9566 17.8753 34.0201C17.8973 34.0579 17.9117 34.0998 17.9175 34.1432C17.9233 34.1866 17.9204 34.2308 17.9091 34.2731C17.8978 34.3154 17.8782 34.3551 17.8514 34.3898C17.8247 34.4245 17.7913 34.4535 17.7533 34.4753L16.3869 35.2645C16.32 35.3033 16.2417 35.3176 16.1654 35.3051C16.0891 35.2925 16.0196 35.2538 15.9687 35.1956C15.9178 35.1374 15.8887 35.0632 15.8865 34.986C15.8842 34.9087 15.9089 34.833 15.9563 34.7719L16.6755 33.8421L14.1874 35.2785C14.117 35.3201 14.0337 35.3344 13.9535 35.3185C13.8732 35.3026 13.8016 35.2578 13.7524 35.1924C13.7031 35.1271 13.6797 35.0459 13.6865 34.9644C13.6934 34.8829 13.73 34.8068 13.7895 34.7506L15.793 32.815L11.5266 35.2785C11.4536 35.3242 11.3657 35.3398 11.2813 35.322C11.197 35.3042 11.1229 35.2544 11.0746 35.183C11.0263 35.1116 11.0076 35.0243 11.0224 34.9394C11.0372 34.8545 11.0844 34.7787 11.154 34.7279L14.0607 32.4497L9.15978 35.2785C9.08534 35.3205 8.99758 35.3323 8.91466 35.3115C8.83174 35.2906 8.76001 35.2387 8.7143 35.1664C8.66859 35.0942 8.65239 35.0071 8.66906 34.9233C8.68573 34.8394 8.73399 34.7652 8.80386 34.7159L11.0394 33.1709L7.38816 35.2785C7.33757 35.3079 7.28005 35.3233 7.22153 35.3231V35.3244Z" fill="#EA3446"/>
<path d="M26.6655 35.3245C26.5935 35.3244 26.5236 35.3011 26.466 35.258C26.4084 35.2149 26.3663 35.1544 26.346 35.0854C26.3256 35.0164 26.3282 34.9427 26.3532 34.8752C26.3782 34.8078 26.4244 34.7503 26.4848 34.7113L27.6819 33.9394L25.3604 35.2798C25.2857 35.3231 25.1971 35.3358 25.1133 35.3151C25.0295 35.2945 24.957 35.2421 24.911 35.169C24.865 35.0959 24.8492 35.0078 24.8669 34.9233C24.8846 34.8388 24.9344 34.7645 25.0058 34.7159L31.8597 30.0336L23.2042 35.0305C23.1288 35.0744 23.0392 35.0869 22.9546 35.0654C22.8701 35.0438 22.7974 34.9899 22.7523 34.9152C22.7072 34.8407 22.693 34.7514 22.7126 34.6665C22.7323 34.5817 22.7843 34.5078 22.8576 34.4606L26.5475 32.1051L22.5343 34.422C22.4593 34.4622 22.3717 34.4723 22.2895 34.4501C22.2073 34.4279 22.1367 34.3751 22.0921 34.3026C22.0475 34.2301 22.0323 34.1433 22.0496 34.0599C22.0669 33.9765 22.1153 33.9029 22.1851 33.8541L28.7877 29.551L22.1851 33.3629C22.1099 33.4093 22.0193 33.4239 21.9333 33.4035C21.8473 33.3832 21.7729 33.3295 21.7265 33.2542C21.6801 33.179 21.6655 33.0884 21.6859 33.0025C21.7062 32.9165 21.7599 32.8421 21.8351 32.7957L29.4622 27.7841L22.1804 31.9885C22.105 32.0282 22.0172 32.0376 21.9351 32.0147C21.853 31.9918 21.7827 31.9383 21.7388 31.8653C21.6948 31.7922 21.6804 31.7052 21.6986 31.6219C21.7168 31.5386 21.7661 31.4654 21.8365 31.4173L23.4895 30.3815L22.1797 31.1374C22.1043 31.1812 22.0147 31.1937 21.9302 31.1722C21.8457 31.1506 21.773 31.0967 21.7278 31.022C21.6828 30.9474 21.6687 30.8581 21.6885 30.7732C21.7083 30.6883 21.7604 30.6145 21.8338 30.5675L26.4788 27.6034L22.1797 30.0856C22.1043 30.1316 22.0136 30.1458 21.9276 30.125C21.8417 30.1042 21.7676 30.0501 21.7215 29.9746C21.6755 29.8991 21.6613 29.8084 21.6821 29.7225C21.7029 29.6366 21.757 29.5624 21.8325 29.5164L27.0914 26.1391L22.1797 28.9745C22.1043 29.0187 22.0146 29.0315 21.9298 29.0101C21.845 28.9887 21.7721 28.9349 21.7266 28.8603C21.6811 28.7856 21.6668 28.6961 21.6868 28.611C21.7067 28.5259 21.7593 28.452 21.8331 28.4053L26.3555 25.5032L22.1791 27.914C22.104 27.9575 22.015 27.9701 21.9309 27.949C21.8468 27.9279 21.7742 27.8748 21.7285 27.8011C21.6829 27.7273 21.6678 27.6387 21.6865 27.554C21.7051 27.4693 21.7561 27.3952 21.8285 27.3475L27.6572 23.4943L22.1784 26.657C22.1028 26.7028 22.0121 26.7168 21.9263 26.6958C21.8404 26.6748 21.7664 26.6206 21.7205 26.545C21.6746 26.4694 21.6607 26.3787 21.6817 26.2929C21.7027 26.207 21.7569 26.133 21.8325 26.0871L22.2591 25.8165L22.1784 25.8625C22.1029 25.9085 22.0122 25.9227 21.9263 25.9019C21.8404 25.8811 21.7662 25.827 21.7202 25.7515C21.6741 25.676 21.6599 25.5853 21.6808 25.4994C21.7016 25.4135 21.7557 25.3393 21.8311 25.2933L22.2924 24.9973L22.1777 25.0633C22.1029 25.1076 22.0138 25.121 21.9293 25.1005C21.8448 25.08 21.7717 25.0273 21.7255 24.9536C21.6793 24.88 21.6638 24.7912 21.6821 24.7062C21.7005 24.6212 21.7513 24.5468 21.8238 24.4988L24.7025 22.5432L22.1777 24.0009C22.1037 24.0427 22.0165 24.0547 21.934 24.0343C21.8514 24.0139 21.7798 23.9628 21.7337 23.8913C21.6876 23.8199 21.6706 23.7335 21.6861 23.6499C21.7016 23.5663 21.7485 23.4918 21.8172 23.4417L24.7179 21.3601L22.1777 22.8265C22.1037 22.8683 22.0165 22.8802 21.934 22.8599C21.8514 22.8395 21.7798 22.7884 21.7337 22.7169C21.6876 22.6455 21.6706 22.5591 21.6861 22.4755C21.7016 22.3919 21.7485 22.3174 21.8172 22.2672L23.0822 21.3594L22.1777 21.8813C22.1068 21.9209 22.0238 21.9333 21.9443 21.9161C21.8649 21.899 21.7944 21.8534 21.7462 21.788C21.6979 21.7225 21.6752 21.6418 21.6823 21.5608C21.6893 21.4798 21.7257 21.4042 21.7845 21.3481L23.8054 19.4798L22.1777 20.4196C22.1116 20.4577 22.0344 20.4718 21.9591 20.4598C21.8838 20.4478 21.8149 20.4103 21.7639 20.3536C21.7128 20.2969 21.6828 20.2244 21.6788 20.1482C21.6748 20.0721 21.697 19.9968 21.7418 19.9351L22.5757 18.7866L22.567 18.7913C22.5291 18.8135 22.4871 18.828 22.4436 18.834C22.4 18.84 22.3558 18.8372 22.3133 18.826C22.2708 18.8148 22.2309 18.7952 22.196 18.7685C22.1611 18.7418 22.1318 18.7085 22.1098 18.6704C22.0879 18.6324 22.0736 18.5903 22.068 18.5468C22.0623 18.5032 22.0653 18.4589 22.0768 18.4165C22.0883 18.3741 22.1081 18.3344 22.1351 18.2996C22.162 18.2649 22.1955 18.2358 22.2337 18.2141L23.6001 17.4249C23.6662 17.3869 23.7434 17.3727 23.8187 17.3847C23.8941 17.3967 23.963 17.4342 24.014 17.491C24.065 17.5477 24.095 17.6202 24.099 17.6963C24.103 17.7725 24.0808 17.8477 24.036 17.9095L23.2015 19.0586L26.0563 17.4103C26.1272 17.3706 26.2102 17.3583 26.2897 17.3754C26.3691 17.3926 26.4396 17.4382 26.4878 17.5036C26.536 17.569 26.5588 17.6498 26.5517 17.7308C26.5447 17.8118 26.5083 17.8874 26.4495 17.9435L24.4279 19.8118L28.5877 17.4103C28.6619 17.3625 28.752 17.3461 28.8382 17.3647C28.9245 17.3833 28.9998 17.4354 29.0476 17.5096C29.0954 17.5837 29.1118 17.6739 29.0932 17.7601C29.0746 17.8463 29.0225 17.9217 28.9483 17.9695L27.6839 18.8773L30.2247 17.4103C30.2989 17.3625 30.389 17.3461 30.4752 17.3647C30.5615 17.3833 30.6368 17.4354 30.6846 17.5096C30.7324 17.5837 30.7488 17.6739 30.7302 17.7601C30.7116 17.8463 30.6594 17.9217 30.5853 17.9695L27.6852 20.0497L32.2576 17.4103C32.3324 17.366 32.4216 17.3526 32.506 17.3731C32.5905 17.3936 32.6637 17.4463 32.7098 17.52C32.756 17.5936 32.7716 17.6824 32.7532 17.7674C32.7349 17.8524 32.684 17.9268 32.6115 17.9748L29.7321 19.9311L34.0979 17.4109C34.1734 17.3649 34.264 17.3507 34.35 17.3715C34.4359 17.3923 34.5101 17.4464 34.5561 17.5219C34.6022 17.5974 34.6163 17.6881 34.5955 17.774C34.5747 17.8599 34.5206 17.9341 34.4451 17.9801L33.9839 18.2761L35.4829 17.4109C35.5585 17.3651 35.6492 17.3511 35.7351 17.3721C35.8209 17.3931 35.8949 17.4473 35.9408 17.5229C35.9867 17.5985 36.0007 17.6892 35.9797 17.7751C35.9587 17.8609 35.9044 17.9349 35.8288 17.9808L35.4029 18.2508L36.8586 17.4109C36.9337 17.3674 37.0227 17.3549 37.1068 17.376C37.1909 17.3971 37.2635 17.4501 37.3092 17.5239C37.3548 17.5976 37.3699 17.6863 37.3512 17.771C37.3326 17.8557 37.2816 17.9297 37.2092 17.9775L31.3805 21.8307L38.345 17.8102C38.4205 17.7642 38.5111 17.7501 38.597 17.771C38.6829 17.7919 38.7569 17.846 38.8029 17.9215C38.8488 17.997 38.8629 18.0876 38.8421 18.1735C38.8212 18.2594 38.7671 18.3334 38.6916 18.3794L34.1732 21.2788L38.9349 18.53C39.0103 18.484 39.101 18.4698 39.187 18.4906C39.2729 18.5114 39.347 18.5655 39.3931 18.641C39.4391 18.7165 39.4533 18.8072 39.4325 18.8931C39.4117 18.979 39.3576 19.0532 39.2821 19.0992L34.0246 22.4759L39.1355 19.5252C39.211 19.4793 39.3017 19.4653 39.3876 19.4863C39.4735 19.5073 39.5475 19.5616 39.5934 19.6371C39.6393 19.7127 39.6532 19.8034 39.6322 19.8893C39.6112 19.9751 39.557 20.0492 39.4814 20.095L34.8364 23.0591L39.1355 20.5769C39.2112 20.5313 39.302 20.5177 39.3878 20.539C39.4736 20.5603 39.5474 20.6148 39.593 20.6906C39.6387 20.7663 39.6523 20.8571 39.631 20.9429C39.6097 21.0287 39.5552 21.1025 39.4794 21.1481L37.8264 22.1839L39.1361 21.4281C39.2111 21.3883 39.2983 21.3785 39.3802 21.4007C39.4621 21.4229 39.5324 21.4755 39.577 21.5477C39.6215 21.6199 39.6369 21.7063 39.62 21.7895C39.6031 21.8726 39.5552 21.9462 39.4861 21.9953L31.8564 27.0082L39.1368 22.8051C39.2118 22.7649 39.2994 22.7548 39.3816 22.777C39.4638 22.7992 39.5344 22.852 39.579 22.9245C39.6236 22.997 39.6388 23.0838 39.6216 23.1672C39.6043 23.2506 39.5558 23.3242 39.4861 23.373L32.8908 27.6708L39.1368 24.0649C39.1742 24.0421 39.2158 24.0269 39.259 24.0202C39.3023 24.0135 39.3465 24.0154 39.389 24.0258C39.4316 24.0361 39.4717 24.0548 39.507 24.0806C39.5424 24.1065 39.5723 24.1391 39.595 24.1765C39.6178 24.2139 39.633 24.2554 39.6397 24.2987C39.6464 24.342 39.6445 24.3862 39.6341 24.4287C39.6238 24.4713 39.6051 24.5114 39.5793 24.5467C39.5534 24.5821 39.5208 24.612 39.4834 24.6347L35.7809 26.9982L39.1368 25.0613C39.2115 25.018 39.3001 25.0053 39.3839 25.026C39.4677 25.0467 39.5402 25.0991 39.5862 25.1721C39.6322 25.2452 39.648 25.3333 39.6303 25.4178C39.6126 25.5023 39.5628 25.5767 39.4914 25.6252L32.6369 30.3082L39.1368 26.5557C39.2121 26.5128 39.3011 26.501 39.3849 26.5226C39.4688 26.5442 39.5409 26.5977 39.5861 26.6716C39.6312 26.7455 39.6458 26.8341 39.6268 26.9186C39.6077 27.003 39.5566 27.0768 39.4841 27.1242L38.2903 27.894L39.1375 27.4055C39.212 27.3581 39.3023 27.3423 39.3884 27.3615C39.4746 27.3806 39.5497 27.4333 39.597 27.5078C39.6444 27.5823 39.6603 27.6726 39.6411 27.7588C39.6219 27.845 39.5692 27.92 39.4947 27.9674L35.4296 30.8021L39.1368 28.6619C39.2108 28.6194 39.2982 28.607 39.3811 28.627C39.464 28.6471 39.536 28.6981 39.5824 28.7697C39.6287 28.8413 39.6459 28.9279 39.6304 29.0117C39.6148 29.0956 39.5677 29.1703 39.4987 29.2204L36.3961 31.466L39.1368 29.8836C39.2104 29.8418 39.2972 29.8295 39.3795 29.8493C39.4618 29.8692 39.5335 29.9196 39.58 29.9903C39.6265 30.0611 39.6444 30.1469 39.6299 30.2303C39.6154 30.3138 39.5697 30.3885 39.5021 30.4395L37.6838 31.7872L39.1368 30.9481C39.2073 30.9084 39.2899 30.8957 39.3691 30.9124C39.4482 30.9291 39.5186 30.9741 39.5671 31.0389C39.6156 31.1037 39.6388 31.1839 39.6325 31.2645C39.6262 31.3452 39.5907 31.4208 39.5327 31.4773L37.6125 33.3096L39.1361 32.4304C39.2073 32.3895 39.2911 32.3763 39.3715 32.3934C39.4518 32.4104 39.523 32.4566 39.5714 32.5229C39.6198 32.5892 39.642 32.6711 39.6338 32.7528C39.6255 32.8345 39.5874 32.9103 39.5267 32.9656L39.1961 33.2656C39.3168 33.2656 39.4354 33.3209 39.4994 33.4322C39.5215 33.4701 39.5358 33.5119 39.5416 33.5553C39.5474 33.5988 39.5446 33.6429 39.5332 33.6852C39.5219 33.7275 39.5023 33.7672 39.4755 33.8019C39.4488 33.8366 39.4155 33.8657 39.3774 33.8874L36.9666 35.2798C36.8954 35.3207 36.8116 35.3339 36.7313 35.3168C36.651 35.2998 36.5798 35.2536 36.5313 35.1873C36.4829 35.121 36.4607 35.0391 36.469 34.9574C36.4772 34.8757 36.5153 34.7999 36.576 34.7446L36.7766 34.5626L35.5342 35.2798C35.4637 35.321 35.3805 35.3349 35.3004 35.3187C35.2203 35.3024 35.149 35.2573 35.1001 35.1919C35.0511 35.1265 35.028 35.0453 35.035 34.964C35.0421 34.8826 35.0789 34.8066 35.1383 34.7506L37.0593 32.9176L32.9675 35.2798C32.8938 35.3217 32.8071 35.3339 32.7247 35.3141C32.6424 35.2943 32.5707 35.2439 32.5242 35.1731C32.4777 35.1023 32.4599 35.0165 32.4744 34.9331C32.4889 34.8497 32.5346 34.7749 32.6022 34.7239L34.4218 33.3749L31.1218 35.2798C31.0479 35.3223 30.9605 35.3347 30.8776 35.3147C30.7947 35.2946 30.7227 35.2436 30.6763 35.172C30.6299 35.1004 30.6127 35.0138 30.6283 34.93C30.6439 34.8461 30.691 34.7714 30.7599 34.7213L33.8606 32.4771L29.0063 35.2798C28.9319 35.3225 28.8439 35.3349 28.7606 35.3143C28.6774 35.2938 28.6052 35.242 28.5592 35.1696C28.5132 35.0972 28.4968 35.0099 28.5136 34.9257C28.5303 34.8416 28.5788 34.7672 28.649 34.7179L32.7142 31.8832L26.8308 35.2798C26.7802 35.3092 26.7226 35.3247 26.6641 35.3245H26.6655Z" fill="#F4C940"/>
<path d="M14.5306 17.9948C14.4589 17.9949 14.3891 17.972 14.3315 17.9293C14.2739 17.8866 14.2316 17.8265 14.2108 17.7579C14.1901 17.6893 14.192 17.6158 14.2164 17.5483C14.2407 17.4809 14.2862 17.4231 14.346 17.3836L18.1298 14.8754L12.805 17.9495C12.7301 17.9928 12.6413 18.0054 12.5574 17.9845C12.4734 17.9636 12.4009 17.9109 12.3551 17.8375C12.3093 17.7641 12.2938 17.6758 12.312 17.5912C12.3302 17.5066 12.3805 17.4324 12.4524 17.3842L18.9823 12.9978L11.03 17.5889C10.955 17.6334 10.8656 17.6468 10.7808 17.6261C10.6961 17.6054 10.6229 17.5524 10.5768 17.4783C10.5307 17.4043 10.5156 17.3151 10.5345 17.23C10.5534 17.1449 10.605 17.0705 10.6781 17.023L18.3824 11.8974L10.2822 16.5744C10.2071 16.6179 10.1181 16.6305 10.034 16.6094C9.94984 16.5883 9.87725 16.5352 9.83161 16.4615C9.78597 16.3877 9.77088 16.2991 9.78954 16.2144C9.80821 16.1297 9.85916 16.0556 9.93157 16.0079L17.9272 10.7223L10.1842 15.1927C10.109 15.2392 10.0184 15.2539 9.9323 15.2336C9.84624 15.2133 9.77177 15.1596 9.72528 15.0844C9.67879 15.0092 9.66408 14.9186 9.68439 14.8325C9.7047 14.7465 9.75837 14.672 9.83359 14.6255L17.6973 9.44459L10.1842 13.7823C10.1083 13.8279 10.0175 13.8414 9.93172 13.82C9.84591 13.7985 9.77213 13.7439 9.72661 13.668C9.68109 13.5922 9.66756 13.5014 9.689 13.4156C9.71044 13.3298 9.76508 13.256 9.84092 13.2105L10.3648 12.8845L10.1842 12.9885C10.1091 13.035 10.0185 13.0497 9.93253 13.0295C9.84653 13.0092 9.7721 12.9557 9.72561 12.8805C9.67912 12.8054 9.66438 12.7149 9.68463 12.6289C9.70488 12.5429 9.75846 12.4685 9.83359 12.422L17.5733 7.31504L10.1835 11.5808C10.1085 11.621 10.0209 11.6311 9.93871 11.6089C9.85652 11.5867 9.7859 11.534 9.7413 11.4614C9.69669 11.3889 9.68148 11.3021 9.69876 11.2187C9.71603 11.1354 9.7645 11.0617 9.83425 11.0129L16.0209 6.97112L10.1828 10.3417C10.1082 10.3851 10.0196 10.3977 9.93577 10.3771C9.85194 10.3564 9.77941 10.304 9.73345 10.2309C9.68749 10.1578 9.67168 10.0697 9.68937 9.98524C9.70705 9.90073 9.75685 9.82638 9.82826 9.77786L16.7281 5.06619L10.1835 8.84472C10.1091 8.88676 10.0213 8.89857 9.93839 8.87773C9.85547 8.85688 9.78374 8.80496 9.73803 8.73271C9.69232 8.66046 9.67612 8.5734 9.69279 8.48955C9.70946 8.40569 9.75772 8.33145 9.82759 8.28217L14.9085 4.77092L10.1835 7.49901C10.1096 7.54145 10.0221 7.55393 9.93925 7.53387C9.85637 7.51382 9.78432 7.46275 9.73795 7.39119C9.69158 7.31962 9.6744 7.233 9.68996 7.14916C9.70552 7.06531 9.75263 6.99062 9.82159 6.94046L14.0254 3.8991L10.1835 6.11663C10.1098 6.16381 10.0205 6.18003 9.93487 6.16178C9.84928 6.14353 9.77433 6.09228 9.72627 6.01914C9.67821 5.946 9.66091 5.85686 9.67813 5.77105C9.69535 5.68525 9.7457 5.60968 9.81826 5.56075L12.5297 3.54651L10.1828 4.90089C10.1104 4.94318 10.0246 4.95644 9.9427 4.93801C9.86083 4.91959 9.78898 4.87084 9.74161 4.80158C9.69434 4.73239 9.67476 4.64797 9.68673 4.56504C9.6987 4.4821 9.74135 4.40667 9.80626 4.35367L11.7672 2.76201L10.1828 3.67648C10.1119 3.71704 10.0286 3.73015 9.94869 3.71332C9.86876 3.69648 9.7978 3.65088 9.74928 3.58517C9.70076 3.51946 9.67806 3.43822 9.68549 3.35688C9.69292 3.27554 9.72997 3.19976 9.7896 3.14393L10.8754 2.13548L10.1902 2.53073C10.121 2.57213 10.0391 2.58699 9.95973 2.57251C9.88039 2.55804 9.80901 2.51524 9.75888 2.45206C9.70875 2.38889 9.68328 2.30965 9.68721 2.22909C9.69115 2.14854 9.72422 2.07216 9.78027 2.01417L10.2795 1.48362C10.2214 1.46045 10.171 1.42133 10.1341 1.37076C10.0973 1.32019 10.0754 1.26024 10.0712 1.19781C10.0669 1.13538 10.0804 1.07302 10.1101 1.01792C10.1398 0.962827 10.1844 0.917236 10.2388 0.886409L11.6052 0.0972433C11.6744 0.0571624 11.7558 0.0433158 11.8343 0.0582321C11.9129 0.0731485 11.9835 0.115832 12.0333 0.17849C12.083 0.241148 12.1085 0.319599 12.1052 0.399519C12.1018 0.479438 12.0699 0.555495 12.0151 0.6138L11.8218 0.81909L13.0989 0.0825797C13.1698 0.0420218 13.2531 0.028915 13.3331 0.0457483C13.413 0.0625817 13.4839 0.108183 13.5325 0.173892C13.581 0.2396 13.6037 0.32084 13.5963 0.402183C13.5888 0.483526 13.5518 0.559307 13.4921 0.615133L12.4077 1.62292L15.0751 0.0825797C15.1476 0.0402939 15.2334 0.0270295 15.3153 0.0454555C15.3972 0.0638814 15.469 0.11263 15.5164 0.181892C15.5637 0.251085 15.5832 0.335495 15.5713 0.418432C15.5593 0.50137 15.5166 0.576796 15.4517 0.629797L13.4895 2.22213L17.1967 0.0825797C17.2703 0.0407311 17.3571 0.0284716 17.4394 0.0482912C17.5217 0.0681109 17.5934 0.118523 17.6399 0.189289C17.6864 0.260054 17.7042 0.345866 17.6898 0.429293C17.6753 0.51272 17.6296 0.587507 17.5619 0.638462L14.8512 2.65203L19.3029 0.0825797C19.3769 0.0401333 19.4643 0.0276543 19.5472 0.0477111C19.6301 0.0677678 19.7021 0.118834 19.7485 0.1904C19.7948 0.261965 19.812 0.348584 19.7965 0.432429C19.7809 0.516274 19.7338 0.590964 19.6648 0.641128L15.4604 3.68315L21.6971 0.0825797C21.7715 0.0405424 21.8593 0.0287259 21.9422 0.0495741C22.0251 0.0704224 22.0968 0.122341 22.1426 0.194591C22.1883 0.266842 22.2045 0.353897 22.1878 0.437754C22.1711 0.52161 22.1229 0.595853 22.053 0.645127L16.9707 4.15705L24.0279 0.0832462C24.1026 0.0399085 24.1912 0.0272425 24.275 0.0479157C24.3588 0.068589 24.4313 0.120988 24.4773 0.194076C24.5233 0.267165 24.5391 0.355238 24.5214 0.439746C24.5037 0.524254 24.4539 0.5986 24.3825 0.647126L17.4846 5.35746L26.1555 0.351189C26.2305 0.310962 26.3181 0.300915 26.4003 0.323103C26.4825 0.34529 26.5531 0.398036 26.5977 0.470556C26.6423 0.543077 26.6575 0.629896 26.6402 0.713263C26.6229 0.79663 26.5745 0.870249 26.5047 0.919069L20.3167 4.96154L26.9146 1.15235C26.9897 1.10885 27.0787 1.09631 27.1628 1.1174C27.247 1.13849 27.3195 1.19154 27.3652 1.26529C27.4108 1.33904 27.4259 1.42768 27.4072 1.51238C27.3886 1.59708 27.3376 1.67116 27.2652 1.7189L19.5269 6.82515L27.1406 2.42942C27.2164 2.3839 27.3072 2.37037 27.393 2.3918C27.4789 2.41324 27.5526 2.46789 27.5982 2.54372C27.6437 2.61956 27.6572 2.71037 27.6358 2.79618C27.6143 2.88199 27.5597 2.95577 27.4838 3.00129L26.96 3.32722L27.1406 3.22325C27.2156 3.17943 27.3048 3.16675 27.389 3.18793C27.4732 3.20911 27.5458 3.26247 27.5912 3.33656C27.6365 3.41043 27.6515 3.49903 27.6328 3.5837C27.6142 3.66837 27.5634 3.7425 27.4912 3.79046L19.6275 8.97136L27.1406 4.63361C27.2156 4.59011 27.3046 4.57757 27.3888 4.59866C27.4729 4.61975 27.5455 4.6728 27.5911 4.74655C27.6368 4.8203 27.6519 4.90894 27.6332 4.99364C27.6145 5.07834 27.5636 5.15242 27.4912 5.20016L19.4982 10.4837L27.1412 6.07131C27.2162 6.02677 27.3057 6.0134 27.3904 6.03406C27.4751 6.05472 27.5484 6.10778 27.5944 6.18183C27.6405 6.25589 27.6557 6.34505 27.6368 6.43018C27.6178 6.51532 27.5663 6.58963 27.4932 6.63719L19.7868 11.7641L27.1412 7.51833C27.2161 7.47495 27.3049 7.46238 27.3888 7.48327C27.4728 7.50416 27.5453 7.55688 27.5911 7.63028C27.6369 7.70368 27.6524 7.79201 27.6342 7.8766C27.6161 7.96119 27.5657 8.0354 27.4938 8.08355L20.9619 12.4713L27.1412 8.90404C27.2161 8.86376 27.3035 8.85355 27.3857 8.87549C27.4678 8.89744 27.5385 8.94989 27.5833 9.02214C27.6281 9.0944 27.6436 9.18103 27.6268 9.26435C27.6099 9.34768 27.5619 9.42144 27.4925 9.47059L23.71 11.9774L27.1412 9.99648C27.2152 9.95665 27.3014 9.94614 27.3827 9.96704C27.4641 9.98794 27.5345 10.0387 27.5801 10.1093C27.6257 10.1798 27.643 10.2649 27.6286 10.3477C27.6142 10.4304 27.5692 10.5047 27.5025 10.5557L22.6582 14.0396L27.1412 11.4515C27.2154 11.4037 27.3055 11.3873 27.3918 11.4059C27.478 11.4245 27.5533 11.4767 27.6012 11.5508C27.649 11.625 27.6654 11.7151 27.6467 11.8013C27.6281 11.8876 27.576 11.9629 27.5018 12.0107L24.7658 13.9703L27.1412 12.5986C27.2148 12.5571 27.3013 12.545 27.3834 12.5648C27.4654 12.5847 27.5369 12.6349 27.5834 12.7054C27.6298 12.7759 27.6478 12.8614 27.6337 12.9446C27.6195 13.0279 27.5743 13.1026 27.5072 13.1538L25.6336 14.5542L27.1412 13.6837C27.2126 13.6426 27.2967 13.6293 27.3772 13.6465C27.4577 13.6637 27.5291 13.7101 27.5774 13.7767C27.6258 13.8434 27.6478 13.9256 27.6391 14.0075C27.6304 14.0894 27.5917 14.1652 27.5305 14.2202L25.7995 15.7719L27.1412 14.9981C27.2879 14.9121 27.4772 14.9528 27.5772 15.0907C27.6771 15.2287 27.6571 15.42 27.5312 15.5346L27.1832 15.8479C27.26 15.8348 27.339 15.849 27.4065 15.888C27.4739 15.927 27.5256 15.9884 27.5526 16.0615C27.5795 16.1346 27.5801 16.2148 27.5542 16.2883C27.5282 16.3617 27.4774 16.4238 27.4105 16.4638L24.8357 17.9501C24.7646 17.9917 24.6805 18.0052 24.5999 17.9881C24.5193 17.9709 24.448 17.9244 24.3998 17.8575C24.3515 17.7908 24.3295 17.7086 24.338 17.6267C24.3465 17.5448 24.3849 17.4689 24.4458 17.4136L24.7271 17.161L23.3601 17.9501C23.2888 17.9917 23.2046 18.0053 23.1239 17.9881C23.0432 17.971 22.9717 17.9244 22.9235 17.8575C22.8753 17.7906 22.8536 17.7084 22.8623 17.6265C22.871 17.5446 22.9097 17.4688 22.9708 17.4136L24.7018 15.8619L21.0839 17.9501C21.0104 17.9916 20.9238 18.0037 20.8418 17.9839C20.7597 17.964 20.6882 17.9138 20.6417 17.8433C20.5953 17.7728 20.5773 17.6873 20.5915 17.6041C20.6056 17.5209 20.6508 17.4461 20.7179 17.3949L22.5895 15.9965L19.2056 17.9501C19.1316 17.992 19.0444 18.0039 18.9618 17.9836C18.8793 17.9632 18.8076 17.912 18.7615 17.8406C18.7155 17.7691 18.6984 17.6828 18.714 17.5992C18.7295 17.5156 18.7764 17.4411 18.845 17.3909L21.5818 15.4307L17.2174 17.9501C17.1434 17.99 17.0572 18.0005 16.9759 17.9796C16.8945 17.9587 16.8241 17.9079 16.7785 17.8373C16.7329 17.7668 16.7156 17.6817 16.73 17.5989C16.7444 17.5162 16.7894 17.4419 16.8561 17.3909L21.7004 13.907L14.6979 17.9495C14.6473 17.9789 14.5898 17.9943 14.5313 17.9941L14.5306 17.9948Z" fill="#4095C9"/>
<path d="M1.8433 35.2118C6.30969 35.4664 10.8514 35.2145 15.3444 35.3004C18.3671 35.6504 18.7484 32.6543 18.4804 30.3515C17.9286 26.3917 19.7035 21.2687 17.5793 17.8788H22.4723C20.2421 21.0775 22.067 26.0724 21.5045 29.8803C21.5051 31.6839 20.9406 34.7252 23.2907 35.3031C27.7698 35.5331 32.3162 35.3031 36.8185 35.3818C38.3736 35.5137 39.7912 34.4846 39.8159 32.8656C38.9381 17.7355 44.5456 16.5671 26.8407 17.3003C29.1448 13.7757 27.2099 6.69851 27.8118 2.30411C27.2006 -1.47442 21.8131 0.655123 19.143 0.153896C16.1669 0.67312 11.12 -1.36978 9.56766 2.00684C9.40103 5.40945 9.57566 8.86071 9.51501 12.2807C9.68164 13.9256 8.98845 16.1298 10.2848 17.3882C6.74493 17.8275 -0.800806 15.4506 0.182318 21.4001C0.790189 24.5607 -1.438 34.222 1.8433 35.2118ZM28.0191 18.0514C30.7665 18.7213 39.1727 16.1378 38.8348 20.3223C38.1863 23.2343 40.4591 34.174 37.3651 34.6406H24.9757C23.1514 34.9838 22.153 33.5208 22.4863 31.7992C22.5949 27.5514 22.2736 23.233 22.5996 19.0159C23.638 17.2003 26.2928 18.3674 28.0191 18.0514ZM10.968 16.857C9.74829 12.2833 10.7907 7.01777 10.4801 2.22212C10.6588 -0.450642 14.0547 0.825754 15.8243 0.548479C18.7557 1.249 26.922 -1.4551 26.8447 2.94864C26.3721 7.56766 28.0351 13.1331 26.1101 17.3029C21.1852 17.1929 15.6064 18.2147 10.968 16.857ZM1.19677 19.1959C1.59069 16.6817 13.2695 18.456 15.973 17.9854C17.246 18.1487 17.512 19.2885 17.512 20.3469C16.9134 23.4056 19.1783 33.8541 16.0896 34.7219C-2.66441 34.6566 1.48871 37.4933 1.19677 19.1959Z" fill="#262626"/>
<path d="M7.14348 30.6202C10.0782 31.4067 14.0613 28.4667 10.4128 26.2565C12.3164 25.5579 12.2204 22.6292 10.1875 22.206C9.16771 22.212 7.64604 21.7907 6.8482 22.4766C7.11815 25.0481 6.31765 28.436 7.14348 30.6202ZM10.75 29.0232C10.6094 29.4604 10.2735 29.865 9.84024 30.0217C9.7977 30.0307 9.75546 30.0412 9.7136 30.053C9.08706 30.0976 8.44387 30.0583 7.81333 30.071V26.621C9.36567 26.3278 11.3446 27.1549 10.75 29.0232ZM9.00441 22.5559C10.7894 22.5346 11.5365 25.102 10.0042 26.0245C9.31102 26.1658 8.53785 26.0212 7.814 26.0712V22.5552C8.21125 22.5539 8.60783 22.5526 9.00441 22.5559ZM29.5727 30.4462C31.231 30.8908 33.2433 29.9617 33.7192 28.2634C32.6814 27.6128 32.5448 29.6657 31.6676 29.941C30.0919 30.7242 28.3876 29.0379 28.4769 27.4482C27.7511 23.9669 30.3859 19.9931 32.76 24.4762C32.8234 24.7041 33.7885 24.4442 33.7252 24.2176C32.806 20.9349 27.5698 21.8674 27.5112 25.146C27.4865 27.101 27.1419 29.8304 29.5727 30.4462ZM17.1454 12.8866C17.1454 11.8895 17.1347 10.8904 17.13 9.89193H20.1794C20.38 10.7864 19.5089 14.2843 21.1452 12.8866C21.1098 10.7637 21.2138 8.62554 21.1092 6.51132C20.6799 4.28379 17.4633 4.36977 16.4582 6.08607C16.1482 6.71727 15.515 15.1695 17.1454 12.8866ZM18.3491 5.23692C20.5586 5.26958 20.2067 7.93701 20.182 9.47469H17.1314C17.278 8.11431 16.5608 5.69083 18.3484 5.23692H18.3491Z" fill="#262626"/>
</svg>
