<svg width="42" height="41" viewBox="0 0 42 41" fill="none" xmlns="http://www.w3.org/2000/svg">
<path d="M4.95361 32.6194C4.87797 32.6193 4.80443 32.5945 4.74415 32.5488C4.68388 32.5031 4.64017 32.439 4.61965 32.3662C4.59912 32.2934 4.60292 32.2159 4.63045 32.1454C4.65798 32.075 4.70775 32.0154 4.7722 31.9758L13.9151 26.3653L4.28704 31.9258C4.20822 31.9668 4.11668 31.9761 4.03124 31.9517C3.9458 31.9273 3.87294 31.8711 3.82765 31.7946C3.78235 31.7182 3.76805 31.6273 3.7877 31.5407C3.80734 31.454 3.85943 31.3782 3.93326 31.3287L10.8067 27.1382L4.2224 30.9374C4.14323 30.9825 4.0495 30.9947 3.9614 30.9714C3.87331 30.9481 3.7979 30.8911 3.75142 30.8127C3.70493 30.7343 3.6911 30.6408 3.71289 30.5523C3.73468 30.4639 3.79035 30.3875 3.86792 30.3396L9.1789 27.1145L4.55047 29.7843C4.47152 29.8288 4.37832 29.8406 4.29074 29.8174C4.20315 29.7942 4.12811 29.7376 4.08161 29.6598C4.03511 29.5821 4.02082 29.4892 4.0418 29.401C4.06278 29.3129 4.11736 29.2364 4.19391 29.1879L17.1638 21.1182L5.02242 28.128C4.94342 28.1716 4.85053 28.1829 4.7634 28.1592C4.67627 28.1356 4.60174 28.0791 4.55559 28.0015C4.50944 27.9239 4.49528 27.8314 4.51612 27.7436C4.53696 27.6557 4.59116 27.5795 4.66724 27.5309L10.095 24.2196L5.09957 27.1034C5.02052 27.1464 4.92788 27.1571 4.84113 27.1331C4.75438 27.1092 4.6803 27.0526 4.63447 26.9751C4.58863 26.8977 4.57462 26.8055 4.59539 26.7179C4.61615 26.6304 4.67006 26.5543 4.74579 26.5057L7.59555 24.7764L4.55742 26.5286C4.47882 26.5718 4.38656 26.583 4.29992 26.5597C4.21328 26.5365 4.13898 26.4807 4.09257 26.4039C4.04616 26.3272 4.03122 26.2354 4.05088 26.1479C4.07055 26.0604 4.12329 25.9839 4.19808 25.9343L18.7749 16.7261L3.66844 25.4464C3.58908 25.4933 3.49433 25.5068 3.40504 25.4838C3.31575 25.4609 3.23923 25.4034 3.19232 25.3241C3.1454 25.2447 3.13194 25.15 3.15488 25.0607C3.17782 24.9714 3.23529 24.8949 3.31465 24.8479L4.92094 23.8749L3.24097 24.8459C3.16207 24.888 3.06994 24.8981 2.98376 24.8741C2.89759 24.8501 2.824 24.7937 2.77833 24.7168C2.73265 24.6398 2.71841 24.5483 2.73855 24.4611C2.7587 24.3739 2.81169 24.2979 2.88649 24.2488L7.46696 21.4574L2.79613 24.1536C2.71753 24.1968 2.62526 24.208 2.53863 24.1847C2.45199 24.1615 2.37769 24.1056 2.33128 24.0289C2.28487 23.9521 2.26993 23.8604 2.28959 23.7729C2.30926 23.6854 2.362 23.6088 2.43678 23.5593L16.1838 14.9078L2.16432 23.0012C2.08552 23.0446 1.99297 23.0557 1.90612 23.0323C1.81927 23.0088 1.74489 22.9526 1.69862 22.8755C1.65235 22.7984 1.6378 22.7063 1.65802 22.6186C1.67825 22.531 1.73167 22.4546 1.80706 22.4055L12.3838 15.8364L1.716 21.9954C1.63683 22.0426 1.54215 22.0564 1.4528 22.0338C1.36344 22.0112 1.28673 21.954 1.23954 21.8748C1.19235 21.7956 1.17854 21.701 1.20116 21.6116C1.22377 21.5222 1.28096 21.4455 1.36013 21.3983L8.49148 17.0146L1.3928 21.1127C1.3144 21.1541 1.22314 21.164 1.13769 21.1403C1.05224 21.1167 0.979069 21.0612 0.933151 20.9854C0.887233 20.9095 0.872042 20.819 0.890688 20.7323C0.909334 20.6456 0.960407 20.5693 1.03345 20.5191L14.4718 12.0032L1.02164 19.7684C0.942737 19.8161 0.84814 19.8304 0.758655 19.8083C0.66917 19.7862 0.592127 19.7295 0.544475 19.6506C0.496822 19.5717 0.482464 19.4771 0.504558 19.3876C0.526652 19.2981 0.583389 19.2211 0.662288 19.1734L12.9288 11.4124L0.782534 18.4263C0.704138 18.4677 0.612875 18.4776 0.527425 18.4539C0.441976 18.4302 0.368803 18.3748 0.322885 18.299C0.276967 18.2231 0.261776 18.1326 0.280422 18.0459C0.299068 17.9592 0.350141 17.8829 0.423186 17.8327L11.7986 10.6214L0.683835 17.0403C0.605084 17.0858 0.511623 17.0987 0.423516 17.076C0.335408 17.0534 0.259678 16.9972 0.212582 16.9194C0.165324 16.8415 0.1505 16.7483 0.171297 16.6596C0.192094 16.571 0.246851 16.494 0.323792 16.4453L10.038 10.3037L0.704687 15.6905C0.626404 15.733 0.534795 15.7438 0.448771 15.7207C0.362747 15.6976 0.288877 15.6423 0.242409 15.5663C0.195941 15.4904 0.180424 15.3994 0.19906 15.3123C0.217697 15.2252 0.269064 15.1486 0.342559 15.0983L11.1035 8.14765L0.913901 14.0321C0.835095 14.0799 0.740513 14.0945 0.650963 14.0726C0.561412 14.0507 0.484229 13.9941 0.436392 13.9153C0.388555 13.8365 0.373984 13.7419 0.395882 13.6524C0.417781 13.5628 0.474357 13.4856 0.553163 13.4378L7.90554 8.74888L1.25935 12.5877C1.22042 12.6115 1.17718 12.6275 1.13209 12.6346C1.08701 12.6417 1.04097 12.6399 0.996595 12.6292C0.90698 12.6076 0.829605 12.5513 0.781491 12.4727C0.733378 12.3941 0.718468 12.2996 0.740041 12.2099C0.761613 12.1203 0.817902 12.0429 0.896524 11.9948L7.6449 7.634L1.84112 10.9849C1.76237 11.029 1.66955 11.0408 1.5823 11.0177C1.49504 10.9946 1.4202 10.9384 1.3736 10.8611C1.327 10.7838 1.31231 10.6914 1.33263 10.6035C1.35294 10.5155 1.40668 10.439 1.48246 10.3899L2.26302 9.90338C2.18607 9.9146 2.10757 9.89968 2.0401 9.86101C1.97263 9.82234 1.92008 9.76216 1.89085 9.69009C1.86163 9.61803 1.85742 9.53825 1.87889 9.4635C1.90037 9.38876 1.9463 9.32338 2.00932 9.27783L7.83395 5.24646L3.93117 7.49429C3.85441 7.53794 3.76391 7.55072 3.67807 7.53005C3.59222 7.50938 3.51746 7.45681 3.46897 7.38302C3.42048 7.30922 3.4019 7.21974 3.417 7.13274C3.4321 7.04574 3.47975 6.96775 3.55028 6.91461L6.53905 4.69805C6.47151 4.68178 6.4104 4.64563 6.36361 4.59428C6.31681 4.54293 6.28649 4.47873 6.27654 4.40998C6.26658 4.34122 6.27747 4.27106 6.30778 4.20855C6.3381 4.14604 6.38645 4.09405 6.44661 4.05929L10.7775 1.55706C10.8543 1.51342 10.9448 1.50064 11.0307 1.52131C11.1165 1.54197 11.1913 1.59455 11.2397 1.66834C11.2882 1.74214 11.3068 1.83162 11.2917 1.91862C11.2766 2.00562 11.229 2.08361 11.1584 2.13675L8.84458 3.85564L14.8673 0.38032C14.9449 0.336483 15.0365 0.32416 15.1229 0.345901C15.2094 0.367642 15.2842 0.421783 15.3319 0.497127C15.3795 0.572471 15.3964 0.663254 15.379 0.750702C15.3617 0.838149 15.3113 0.91557 15.2385 0.966954L9.41383 4.99832L17.9165 0.084918C17.9954 0.0394192 18.0891 0.0267167 18.1772 0.0495443C18.2654 0.0723719 18.3411 0.128905 18.388 0.206977C18.4349 0.285049 18.4493 0.378419 18.4281 0.466994C18.4069 0.55557 18.3517 0.632269 18.2745 0.680587L18.0187 0.840452L19.3115 0.096039C19.3898 0.0535485 19.4814 0.0427371 19.5675 0.0658368C19.6535 0.0889365 19.7273 0.144184 19.7738 0.220173C19.8203 0.296163 19.8358 0.387093 19.8172 0.474193C19.7985 0.561292 19.7472 0.637912 19.6737 0.688233L12.9211 5.05045L21.2 0.271195C21.2786 0.227291 21.3711 0.215563 21.4581 0.238479C21.5451 0.261395 21.6198 0.317168 21.6666 0.394064C21.7133 0.470959 21.7284 0.562984 21.7087 0.650775C21.6889 0.738567 21.6359 0.815281 21.5608 0.864779L14.2035 5.55646L22.8438 0.569377C22.9221 0.526887 23.0137 0.516075 23.0998 0.539175C23.1858 0.562275 23.2597 0.617522 23.3061 0.693511C23.3526 0.769501 23.3681 0.860431 23.3495 0.947531C23.3308 1.03463 23.2795 1.11125 23.206 1.16157L12.4471 8.11221L24.6455 1.06635C24.7243 1.0186 24.819 1.00416 24.9085 1.02619C24.9981 1.04821 25.0752 1.10491 25.123 1.18381C25.1707 1.26271 25.1852 1.35735 25.1631 1.4469C25.1411 1.53645 25.0844 1.61358 25.0055 1.66132L15.2927 7.80221L26.0536 1.59043C26.1322 1.5472 26.2245 1.53604 26.3112 1.55928C26.3978 1.58253 26.4721 1.63836 26.5185 1.71512C26.5649 1.79188 26.5799 1.88361 26.5602 1.97113C26.5405 2.05865 26.4878 2.13518 26.413 2.1847L15.0425 9.39043L27.4347 2.23475C27.5136 2.187 27.6083 2.17256 27.6978 2.19459C27.7874 2.21662 27.8645 2.27332 27.9123 2.35222C27.96 2.43111 27.9744 2.52575 27.9524 2.6153C27.9304 2.70485 27.8737 2.78198 27.7948 2.82972L15.5318 10.588L28.7296 2.96804C28.8081 2.92552 28.8999 2.91481 28.9861 2.93814C29.0722 2.96147 29.1461 3.01705 29.1924 3.09335C29.2387 3.16966 29.2538 3.26085 29.2347 3.34803C29.2156 3.43521 29.1637 3.51169 29.0897 3.56163L15.6402 12.0845L29.9717 3.81324C30.0506 3.77048 30.1429 3.75987 30.2294 3.78362C30.3159 3.80736 30.3899 3.86363 30.4358 3.94066C30.4818 4.01768 30.4962 4.1095 30.476 4.1969C30.4558 4.28429 30.4027 4.36051 30.3276 4.4096L23.1928 8.79406L30.7537 4.42837C30.8328 4.38099 30.9274 4.36697 31.0168 4.38939C31.1063 4.41181 31.1831 4.46884 31.2305 4.54792C31.2779 4.627 31.2919 4.72167 31.2695 4.81109C31.247 4.90051 31.19 4.97736 31.1109 5.02473L20.5383 11.5903L31.6142 5.19572C31.6927 5.15375 31.7843 5.14352 31.8702 5.16714C31.956 5.19076 32.0295 5.24642 32.0755 5.32265C32.1215 5.39888 32.1365 5.48986 32.1174 5.57682C32.0983 5.66377 32.0465 5.74008 31.9728 5.79L18.2279 14.4421L32.5553 6.17089C32.6344 6.12578 32.7282 6.11356 32.8163 6.13688C32.9044 6.1602 32.9798 6.21719 33.0263 6.29557C33.0727 6.37396 33.0866 6.46746 33.0648 6.55594C33.043 6.64443 32.9873 6.72081 32.9098 6.76865L28.3432 9.5489L33.0946 6.80618C33.1739 6.76205 33.2672 6.75064 33.3547 6.77436C33.4422 6.79809 33.517 6.85509 33.5631 6.93319C33.6092 7.01128 33.6229 7.1043 33.6013 7.19238C33.5798 7.28046 33.5247 7.35663 33.4477 7.40463L31.8268 8.38676L33.545 7.3949C33.6236 7.35168 33.7159 7.34052 33.8026 7.36376C33.8892 7.387 33.9635 7.44284 34.0099 7.5196C34.0563 7.59636 34.0713 7.68809 34.0516 7.77561C34.0319 7.86313 33.9792 7.93965 33.9044 7.98918L19.3303 17.1974L34.3131 8.54732C34.3921 8.50432 34.4848 8.49367 34.5715 8.5176C34.6583 8.54153 34.7324 8.59817 34.7782 8.67561C34.824 8.75305 34.838 8.84525 34.8173 8.93281C34.7965 9.02036 34.7426 9.09646 34.6669 9.14507L31.8171 10.8751L34.6905 9.21597C34.7695 9.17229 34.8624 9.16107 34.9495 9.18467C35.0367 9.20827 35.1112 9.26485 35.1573 9.34243C35.2035 9.42001 35.2176 9.51251 35.1968 9.60034C35.176 9.68817 35.1218 9.76445 35.0457 9.81303L29.6242 13.1194L35.0686 9.97637C35.1474 9.93297 35.24 9.92181 35.3268 9.94525C35.4137 9.96869 35.4881 10.0249 35.5343 10.102C35.5806 10.1792 35.5951 10.2713 35.5749 10.3589C35.5547 10.4466 35.5013 10.523 35.4259 10.572L22.4539 18.6452L35.5357 11.0926C35.6151 11.0456 35.7099 11.0321 35.7992 11.055C35.8886 11.0778 35.9652 11.1353 36.0122 11.2146C36.0592 11.294 36.0727 11.3888 36.0499 11.4781C36.027 11.5675 35.9695 11.6441 35.8902 11.6911L30.5903 14.9113L35.8075 11.8996C35.8867 11.8545 35.9804 11.8423 36.0685 11.8656C36.1566 11.8889 36.232 11.9459 36.2785 12.0243C36.3249 12.1027 36.3388 12.1962 36.317 12.2847C36.2952 12.3731 36.2395 12.4495 36.162 12.4974L29.2808 16.6907L36.0466 12.7851C36.1253 12.7436 36.217 12.7339 36.3027 12.758C36.3885 12.7821 36.4616 12.8382 36.5072 12.9147C36.5528 12.9912 36.5672 13.0823 36.5476 13.1691C36.528 13.256 36.4758 13.332 36.4018 13.3815L27.2499 18.9976L36.2433 13.8062C36.3223 13.7603 36.4162 13.7475 36.5047 13.7704C36.5932 13.7933 36.669 13.8501 36.7159 13.9285C36.7628 14.0071 36.7768 14.1011 36.7548 14.19C36.7328 14.2789 36.6766 14.3555 36.5985 14.4032L32.8548 16.6969L36.3531 14.6771C36.4323 14.6298 36.527 14.6159 36.6164 14.6385C36.7058 14.661 36.7826 14.7182 36.8299 14.7973C36.8772 14.8765 36.8911 14.9712 36.8685 15.0606C36.846 15.1501 36.7888 15.2269 36.7097 15.2741L31.8595 18.2629L36.4101 15.6321C36.4892 15.5847 36.5838 15.5707 36.6733 15.5931C36.7627 15.6155 36.8395 15.6726 36.8869 15.7516C36.9343 15.8307 36.9483 15.9254 36.9259 16.0148C36.9035 16.1042 36.8464 16.1811 36.7674 16.2285L30.1775 20.3293L36.4031 16.7352C36.4423 16.7116 36.4856 16.696 36.5308 16.6892C36.5759 16.6824 36.622 16.6846 36.6663 16.6956C36.7106 16.7066 36.7523 16.7262 36.789 16.7533C36.8257 16.7805 36.8568 16.8146 36.8803 16.8537C36.9039 16.8928 36.9195 16.9362 36.9263 16.9813C36.9331 17.0264 36.9309 17.0725 36.9199 17.1168C36.9089 17.1611 36.8892 17.2028 36.8621 17.2395C36.835 17.2763 36.8009 17.3073 36.7618 17.3308L29.8417 21.6652L36.2926 17.9397C36.3711 17.895 36.4639 17.8827 36.5514 17.9052C36.6388 17.9278 36.7141 17.9835 36.7611 18.0606C36.8082 18.1377 36.8234 18.23 36.8036 18.3181C36.7837 18.4063 36.7303 18.4832 36.6548 18.5326L33.8961 20.3029L36.1084 19.0261C36.1879 18.9845 36.2803 18.9753 36.3664 19.0003C36.4524 19.0252 36.5256 19.0825 36.5704 19.1601C36.6153 19.2377 36.6284 19.3297 36.6071 19.4167C36.5858 19.5038 36.5316 19.5792 36.456 19.6273L21.5441 28.2385C21.4656 28.2831 21.3728 28.2955 21.2853 28.2729C21.1979 28.2504 21.1226 28.1947 21.0756 28.1176C21.0285 28.0405 21.0133 27.9481 21.0331 27.86C21.053 27.7719 21.1064 27.695 21.182 27.6456L23.9427 25.8725L13.4772 31.914C13.3984 31.9581 13.3056 31.9698 13.2184 31.9467C13.1311 31.9236 13.0563 31.8675 13.0097 31.7902C12.9631 31.7129 12.9484 31.6205 12.9687 31.5325C12.989 31.4446 13.0427 31.368 13.1185 31.319L20.0365 26.986L12.1823 31.5192C12.1032 31.5665 12.0085 31.5806 11.9191 31.5581C11.8297 31.5357 11.7528 31.4787 11.7055 31.3996C11.6581 31.3205 11.6441 31.2259 11.6665 31.1364C11.6889 31.047 11.7459 30.9702 11.825 30.9228L18.4149 26.8219L11.0403 31.0827C10.9613 31.1271 10.8681 31.139 10.7805 31.1158C10.693 31.0925 10.6179 31.036 10.5714 30.9582C10.5249 30.8804 10.5106 30.7876 10.5316 30.6994C10.5526 30.6113 10.6072 30.5348 10.6837 30.4863L15.529 27.5024L10.0728 30.6524C9.99349 30.6995 9.89875 30.7132 9.8094 30.6905C9.72005 30.6677 9.64339 30.6104 9.59629 30.5311C9.54919 30.4519 9.53551 30.3571 9.55825 30.2678C9.581 30.1784 9.63831 30.1018 9.71758 30.0547L13.4765 27.7519L5.12738 32.5729C5.07454 32.6034 5.01462 32.6194 4.95361 32.6194Z" fill="#3D93E8"/>
<path d="M37.9649 40.9886C37.9025 40.9886 37.8412 40.9718 37.7875 40.9399C37.7338 40.908 37.6897 40.8622 37.6599 40.8073C37.63 40.7525 37.6154 40.6906 37.6178 40.6282C37.6201 40.5658 37.6391 40.5052 37.673 40.4527L37.9149 40.0767L37.1503 40.5167C37.0818 40.5565 37.0018 40.5718 36.9235 40.5599C36.8452 40.5481 36.7733 40.5098 36.7197 40.4515C36.6661 40.3932 36.634 40.3183 36.6288 40.2393C36.6235 40.1603 36.6454 40.0818 36.6909 40.0169L37.4554 38.9208L35.8943 39.8244C35.8221 39.8657 35.7374 39.8797 35.6557 39.8639C35.574 39.8481 35.5007 39.8035 35.4491 39.7381C35.3975 39.6728 35.3711 39.5912 35.3746 39.508C35.3781 39.4249 35.4113 39.3457 35.4683 39.285L36.4288 38.2702L34.7927 39.2148C34.7187 39.2555 34.6324 39.2679 34.55 39.2497C34.4676 39.2314 34.3946 39.1838 34.3448 39.1157C34.2949 39.0476 34.2715 38.9637 34.279 38.8796C34.2864 38.7955 34.3242 38.717 34.3853 38.6588L35.8811 37.3027L30.0217 40.6863C29.9437 40.7325 29.8508 40.7464 29.7627 40.725C29.6746 40.7036 29.5983 40.6487 29.5501 40.5719C29.502 40.4951 29.4857 40.4025 29.5049 40.3139C29.5241 40.2252 29.5771 40.1476 29.6527 40.0976L31.1964 39.055L27.9539 40.9268C27.8758 40.9693 27.7844 40.9802 27.6985 40.9574C27.6125 40.9345 27.5386 40.8796 27.492 40.8039C27.4453 40.7282 27.4294 40.6375 27.4476 40.5505C27.4658 40.4634 27.5167 40.3867 27.5897 40.336L29.7375 38.9236L26.2621 40.9275C26.1836 40.9721 26.0908 40.9845 26.0034 40.9619C25.9159 40.9394 25.8407 40.8837 25.7936 40.8066C25.7466 40.7295 25.7313 40.6371 25.7512 40.549C25.771 40.4609 25.8244 40.384 25.9 40.3346L28.0742 38.9361L24.872 40.7878C24.8331 40.8116 24.7898 40.8275 24.7448 40.8346C24.6997 40.8417 24.6536 40.8399 24.6093 40.8292C24.5649 40.8185 24.5231 40.7992 24.4861 40.7724C24.4492 40.7455 24.418 40.7117 24.3942 40.6727C24.3703 40.6338 24.3544 40.5906 24.3473 40.5455C24.3402 40.5004 24.342 40.4543 24.3527 40.41C24.3634 40.3656 24.3827 40.3238 24.4096 40.2869C24.4364 40.2499 24.4703 40.2187 24.5092 40.1949L28.8784 37.3708L23.4471 40.507C23.3689 40.5534 23.2757 40.5673 23.1873 40.5458C23.0989 40.5242 23.0226 40.4689 22.9745 40.3917C22.9265 40.3145 22.9107 40.2215 22.9304 40.1327C22.9501 40.0439 23.0039 39.9664 23.0801 39.9168L31.7921 34.0915L21.6636 39.9363C21.5852 39.9777 21.4939 39.9876 21.4085 39.9639C21.323 39.9403 21.2499 39.8849 21.2039 39.809C21.158 39.7332 21.1428 39.6426 21.1615 39.5559C21.1801 39.4693 21.2312 39.393 21.3042 39.3427L26.372 36.128L20.5946 39.4644C20.516 39.5083 20.4235 39.52 20.3365 39.4971C20.2495 39.4742 20.1748 39.4184 20.128 39.3415C20.0813 39.2646 20.0662 39.1726 20.086 39.0848C20.1057 38.997 20.1587 38.9203 20.2339 38.8708L27.614 34.1443L19.4818 38.8409C19.4031 38.8859 19.31 38.8983 19.2222 38.8756C19.1345 38.8529 19.0591 38.7967 19.0121 38.7192C18.9652 38.6417 18.9503 38.5489 18.9708 38.4606C18.9913 38.3723 19.0455 38.2955 19.1218 38.2466L25.4232 34.2604L18.5678 38.2125C18.4891 38.2586 18.3955 38.272 18.3071 38.2497C18.2187 38.2274 18.1426 38.1713 18.0952 38.0934C18.0478 38.0156 18.0329 37.9222 18.0537 37.8335C18.0745 37.7447 18.1293 37.6677 18.2064 37.619L27.368 31.7207L17.5676 37.3792C17.4884 37.4264 17.3937 37.4402 17.3044 37.4175C17.215 37.3949 17.1383 37.3377 17.0911 37.2586C17.0439 37.1794 17.0301 37.0847 17.0527 36.9954C17.0754 36.906 17.1325 36.8293 17.2117 36.7821L18.0541 36.2636L17.0317 36.8537C16.9532 36.8984 16.8604 36.9107 16.7729 36.8882C16.6855 36.8656 16.6103 36.8099 16.5632 36.7328C16.5161 36.6557 16.5009 36.5634 16.5207 36.4753C16.5406 36.3872 16.594 36.3102 16.6696 36.2608L26.8634 29.664L16.1656 35.8403C16.0872 35.8834 15.9952 35.8946 15.9087 35.8716C15.8223 35.8486 15.748 35.7931 15.7014 35.7167C15.6549 35.6403 15.6395 35.5488 15.6587 35.4614C15.6778 35.374 15.73 35.2973 15.8042 35.2474L25.5838 28.9432L15.4567 34.7901C15.378 34.8381 15.2834 34.8529 15.1938 34.8312C15.1042 34.8095 15.0268 34.753 14.9788 34.6743C14.9308 34.5956 14.916 34.501 14.9377 34.4114C14.9594 34.3218 15.0158 34.2445 15.0946 34.1965L24.3667 28.2356L14.8798 33.7127C14.8011 33.7553 14.7091 33.7659 14.6228 33.7424C14.5365 33.7189 14.4626 33.6629 14.4165 33.5863C14.3703 33.5096 14.3556 33.4182 14.3752 33.3309C14.3948 33.2436 14.4473 33.1673 14.5218 33.1177L18.8952 30.3861L14.5461 32.896C14.4681 32.9375 14.3772 32.9477 14.2919 32.9245C14.2066 32.9013 14.1334 32.8465 14.0871 32.7712C14.0407 32.696 14.0248 32.6059 14.0426 32.5193C14.0604 32.4327 14.1104 32.3562 14.1826 32.3052L24.2048 25.7459L14.1486 31.5518C14.0695 31.5992 13.9748 31.6133 13.8853 31.591C13.7958 31.5686 13.7189 31.5116 13.6714 31.4325C13.6239 31.3535 13.6098 31.2588 13.6322 31.1693C13.6545 31.0798 13.7115 31.0029 13.7906 30.9554L16.0572 29.5472L13.9957 30.7371C13.9172 30.7828 13.824 30.7959 13.7361 30.7737C13.6481 30.7515 13.5722 30.6959 13.5248 30.6185C13.4773 30.5412 13.462 30.4484 13.482 30.3599C13.5021 30.2714 13.556 30.1942 13.6321 30.1449L21.6949 24.8875L13.8817 29.3984C13.8029 29.4426 13.7101 29.4543 13.6229 29.4312C13.5356 29.4081 13.4608 29.352 13.4142 29.2747C13.3676 29.1974 13.3529 29.105 13.3732 29.017C13.3935 28.9291 13.4472 28.8525 13.523 28.8035L14.9736 27.8957L13.8942 28.5213C13.8155 28.5674 13.7219 28.5807 13.6335 28.5584C13.5451 28.5362 13.469 28.48 13.4216 28.4022C13.3742 28.3243 13.3593 28.2309 13.3801 28.1422C13.4009 28.0534 13.4557 27.9764 13.5327 27.9277L17.5349 25.3657L14.0249 27.3925C13.9469 27.4362 13.855 27.4482 13.7684 27.4259C13.6818 27.4037 13.6071 27.3489 13.5599 27.273C13.5126 27.1971 13.4964 27.1059 13.5147 27.0184C13.5329 26.9309 13.5842 26.8538 13.6579 26.8031L19.8161 22.6765L14.4078 25.7938C14.3291 25.8419 14.2345 25.8567 14.1449 25.8349C14.0553 25.8132 13.978 25.7568 13.93 25.6781C13.882 25.5994 13.8672 25.5048 13.8889 25.4152C13.9106 25.3256 13.967 25.2483 14.0457 25.2003L14.8214 24.7026C14.7432 24.7431 14.6526 24.7525 14.5678 24.7287C14.4831 24.705 14.4104 24.65 14.3646 24.5749C14.3189 24.4997 14.3033 24.4099 14.3211 24.3237C14.3389 24.2375 14.3888 24.1613 14.4607 24.1104L18.5379 21.2175L16.0065 22.6772C15.9299 22.7211 15.8394 22.7342 15.7535 22.7138C15.6676 22.6934 15.5927 22.6411 15.544 22.5675C15.4952 22.4939 15.4763 22.4045 15.4911 22.3175C15.5058 22.2304 15.5532 22.1523 15.6235 22.0989L17.8129 20.453C17.7458 20.4234 17.69 20.3729 17.6538 20.3091C17.6076 20.2294 17.595 20.1346 17.6188 20.0455C17.6425 19.9565 17.7006 19.8806 17.7803 19.8344L21.4864 17.695C21.563 17.6511 21.6534 17.638 21.7393 17.6584C21.8252 17.6787 21.9001 17.731 21.9489 17.8046C21.9976 17.8782 22.0165 17.9676 22.0018 18.0547C21.987 18.1417 21.9396 18.2199 21.8693 18.2733L20.6321 19.2095L24.6273 16.9033C24.7046 16.8603 24.7953 16.8483 24.8811 16.8698C24.9669 16.8914 25.0412 16.9448 25.0889 17.0192C25.1367 17.0936 25.1543 17.1835 25.1381 17.2704C25.122 17.3573 25.0733 17.4348 25.002 17.4871L20.9241 20.3814L27.1796 16.7671C27.2583 16.721 27.3519 16.7076 27.4403 16.7299C27.5287 16.7522 27.6048 16.8083 27.6522 16.8862C27.6996 16.964 27.7145 17.0574 27.6937 17.1461C27.6729 17.2349 27.6181 17.3119 27.5411 17.3606L26.7765 17.8534L28.4961 16.8609C28.5741 16.8172 28.6659 16.8052 28.7525 16.8274C28.8391 16.8497 28.9138 16.9044 28.961 16.9803C29.0083 17.0562 29.0245 17.1474 29.0062 17.235C28.988 17.3225 28.9367 17.3996 28.8631 17.4503L22.7034 21.5776L30.3192 17.1806C30.3978 17.1367 30.4903 17.125 30.5773 17.1479C30.6643 17.1708 30.739 17.2266 30.7858 17.3035C30.8325 17.3804 30.8476 17.4724 30.8279 17.5602C30.8081 17.648 30.7551 17.7247 30.68 17.7742L26.6792 20.3341L31.5446 17.5261C31.6236 17.4785 31.7183 17.4643 31.8077 17.4865C31.8972 17.5087 31.9742 17.5656 32.0218 17.6446C32.0693 17.7236 32.0836 17.8182 32.0613 17.9077C32.0391 17.9972 31.9823 18.0742 31.9033 18.1217L30.4548 19.0253L32.4739 17.8597C32.5524 17.8114 32.6469 17.7963 32.7366 17.8177C32.8263 17.839 32.9038 17.8952 32.9521 17.9737C33.0004 18.0522 33.0155 18.1467 32.9942 18.2364C32.9728 18.3261 32.9167 18.4036 32.8381 18.4519L24.7691 23.7087L33.8279 18.479C33.9068 18.4335 34.0004 18.4208 34.0886 18.4436C34.1768 18.4664 34.2525 18.523 34.2994 18.6011C34.3463 18.6791 34.3607 18.7725 34.3395 18.8611C34.3182 18.9496 34.2631 19.0263 34.1859 19.0747L31.9095 20.4926L34.6286 18.9224C34.7067 18.881 34.7976 18.8708 34.8829 18.894C34.9681 18.9171 35.0414 18.9719 35.0877 19.0472C35.134 19.1225 35.1499 19.2126 35.1322 19.2991C35.1144 19.3857 35.0643 19.4623 34.9921 19.5133L24.9721 26.0719L35.8846 19.7704C35.9635 19.7249 36.0571 19.7122 36.1453 19.7351C36.2335 19.7579 36.3092 19.8144 36.3561 19.8925C36.403 19.9706 36.4174 20.0639 36.3962 20.1525C36.3749 20.2411 36.3198 20.3178 36.2426 20.3661L31.8699 23.0977L36.6082 20.3619C36.6869 20.3139 36.7814 20.2991 36.8711 20.3208C36.9607 20.3425 37.038 20.3989 37.086 20.4777C37.134 20.5564 37.1488 20.6509 37.1271 20.7405C37.1054 20.8302 37.049 20.9075 36.9703 20.9555L27.6988 26.9198L37.5305 21.244C37.6087 21.2025 37.6998 21.1925 37.7852 21.2159C37.8705 21.2393 37.9437 21.2945 37.9898 21.37C38.0359 21.4456 38.0515 21.5359 38.0333 21.6225C38.0151 21.7091 37.9646 21.7855 37.8919 21.8362L28.1124 28.1411L38.3667 22.2205C38.4452 22.1758 38.538 22.1635 38.6254 22.186C38.7129 22.2086 38.7881 22.2643 38.8352 22.3414C38.8823 22.4185 38.8975 22.5109 38.8776 22.599C38.8578 22.6871 38.8044 22.764 38.7288 22.8134L28.5385 29.4082L39.1034 23.3076C39.1826 23.2604 39.2773 23.2466 39.3666 23.2692C39.456 23.2918 39.5327 23.349 39.5799 23.4282C39.6271 23.5074 39.6409 23.6021 39.6183 23.6914C39.5957 23.7808 39.5385 23.8575 39.4593 23.9047L38.6044 24.4308L39.4565 23.9394C39.5347 23.898 39.6258 23.888 39.7112 23.9114C39.7965 23.9348 39.8697 23.9899 39.9159 24.0655C39.962 24.141 39.9775 24.2313 39.9593 24.3179C39.9411 24.4046 39.8906 24.481 39.818 24.5316L30.657 30.4306L39.9549 25.064C40.0335 25.0208 40.1258 25.0096 40.2124 25.0329C40.299 25.0561 40.3733 25.112 40.4197 25.1887C40.4662 25.2655 40.4811 25.3572 40.4614 25.4447C40.4418 25.5323 40.389 25.6088 40.3142 25.6583L34.0121 29.6438L40.2614 26.0357C40.3401 25.9896 40.4337 25.9763 40.5221 25.9986C40.6105 26.0208 40.6866 26.077 40.734 26.1548C40.7814 26.2327 40.7963 26.3261 40.7755 26.4148C40.7547 26.5036 40.6999 26.5806 40.6228 26.6293L33.2447 31.3544L40.4963 27.168C40.575 27.123 40.6682 27.1106 40.7559 27.1333C40.8437 27.156 40.9191 27.2121 40.966 27.2896C41.013 27.3672 41.0278 27.46 41.0073 27.5482C40.9868 27.6365 40.9327 27.7133 40.8564 27.7623L35.7824 30.9818L40.5853 28.2092C40.6635 28.1627 40.7568 28.1488 40.8451 28.1703C40.9335 28.1919 41.0099 28.2472 41.0579 28.3244C41.1059 28.4017 41.1218 28.4947 41.102 28.5834C41.0823 28.6722 41.0285 28.7497 40.9523 28.7993L32.2397 34.626L40.5109 29.8495C40.5892 29.8071 40.6808 29.7962 40.7669 29.8193C40.8529 29.8424 40.9267 29.8977 40.9732 29.9737C41.0197 30.0497 41.0352 30.1406 41.0166 30.2277C40.9979 30.3148 40.9466 30.3914 40.8731 30.4417L36.5018 33.2672L40.2795 31.0868C40.3579 31.0436 40.4499 31.0324 40.5364 31.0554C40.6229 31.0785 40.6971 31.134 40.7437 31.2104C40.7903 31.2868 40.8056 31.3782 40.7864 31.4656C40.7673 31.553 40.7152 31.6297 40.6409 31.6796L38.4723 33.0739L39.9181 32.2399C39.9963 32.1954 40.0889 32.183 40.1761 32.2053C40.2634 32.2277 40.3385 32.2831 40.3857 32.3598C40.433 32.4365 40.4486 32.5285 40.4293 32.6165C40.41 32.7044 40.3573 32.7815 40.2823 32.8314L38.1394 34.2375L39.321 33.5535C39.3988 33.5098 39.4905 33.4976 39.577 33.5196C39.6635 33.5416 39.7382 33.5961 39.7857 33.6717C39.8332 33.7473 39.8497 33.8383 39.8319 33.9258C39.8141 34.0132 39.7633 34.0905 39.6901 34.1416L38.1449 35.1842L38.3535 35.0653C38.4274 35.0246 38.5137 35.0122 38.5961 35.0305C38.6785 35.0487 38.7515 35.0963 38.8014 35.1644C38.8512 35.2325 38.8746 35.3164 38.8672 35.4005C38.8597 35.4846 38.8219 35.5631 38.7608 35.6213L37.2692 36.9844L38.1519 36.4749C38.2241 36.4336 38.3088 36.4195 38.3905 36.4354C38.4722 36.4512 38.5455 36.4958 38.5971 36.5611C38.6487 36.6264 38.6752 36.7081 38.6717 36.7913C38.6681 36.8744 38.6349 36.9535 38.578 37.0143L37.6167 38.027L38.4584 37.5404C38.5269 37.5006 38.6069 37.4853 38.6852 37.4972C38.7635 37.509 38.8354 37.5473 38.889 37.6056C38.9426 37.6639 38.9747 37.7388 38.98 37.8178C38.9852 37.8968 38.9633 37.9753 38.9179 38.0402L38.1533 39.1363L38.8073 38.7589C38.8746 38.7206 38.9527 38.7059 39.0293 38.717C39.1059 38.7282 39.1765 38.7646 39.2301 38.8204C39.2836 38.8763 39.317 38.9484 39.3249 39.0254C39.3328 39.1024 39.3148 39.1798 39.2737 39.2454L38.9755 39.7097C39.0517 39.7105 39.1256 39.7363 39.1857 39.7831C39.2458 39.8299 39.2889 39.8953 39.3082 39.969C39.3276 40.0427 39.3222 40.1207 39.2928 40.191C39.2635 40.2614 39.2118 40.3201 39.1458 40.3582L38.138 40.94C38.0856 40.9711 38.0259 40.9879 37.9649 40.9886Z" fill="#C7E0EF"/>
<path d="M20.1707 31.2481C20.1032 31.2481 20.0373 31.2284 19.9808 31.1915C19.9244 31.1546 19.8799 31.1021 19.8528 31.0403C19.8257 30.9786 19.8171 30.9103 19.8281 30.8438C19.8391 30.7772 19.8693 30.7153 19.9149 30.6657L20.2158 30.3369L19.1274 30.9624C19.055 31.0038 18.9701 31.0177 18.8883 31.0017C18.8065 30.9857 18.7332 30.9409 18.6817 30.8753C18.6302 30.8098 18.604 30.7279 18.6078 30.6446C18.6117 30.5613 18.6454 30.4822 18.7027 30.4217L19.7689 29.3096L18.3093 30.1527C18.2343 30.1953 18.1461 30.2085 18.0618 30.1897C17.9776 30.1709 17.9034 30.1215 17.8536 30.051C17.8039 29.9805 17.7821 29.894 17.7926 29.8084C17.8031 29.7227 17.845 29.644 17.9103 29.5876L18.091 29.4333L18.0702 29.4451C18.0011 29.4867 17.9195 29.5025 17.8399 29.4898C17.7603 29.4771 17.6878 29.4366 17.6351 29.3756C17.582 29.3151 17.5515 29.2379 17.549 29.1574C17.5465 29.0769 17.572 28.998 17.6212 28.9342L18.3718 27.9612C18.2978 27.9812 18.2192 27.9762 18.1482 27.9469C18.0773 27.9176 18.0181 27.8657 17.9798 27.7992C17.9339 27.7195 17.9214 27.6249 17.9451 27.5361C17.9688 27.4472 18.0268 27.3714 18.1063 27.3252L19.5312 26.5022C19.6009 26.4621 19.6823 26.4473 19.7616 26.4605C19.8409 26.4737 19.9132 26.5139 19.9662 26.5744C20.0192 26.6349 20.0495 26.7119 20.0521 26.7923C20.0546 26.8727 20.0292 26.9514 19.9802 27.0152L19.2476 27.9646L21.0409 26.929C21.116 26.8855 21.2047 26.8717 21.2895 26.8902C21.3743 26.9088 21.4491 26.9585 21.4991 27.0294C21.5491 27.1004 21.5708 27.1875 21.5598 27.2736C21.5489 27.3597 21.5061 27.4386 21.4398 27.4948L21.2591 27.6491L21.5371 27.4899C21.6095 27.4486 21.6944 27.4346 21.7762 27.4506C21.858 27.4666 21.9313 27.5115 21.9828 27.577C22.0343 27.6426 22.0605 27.7245 22.0567 27.8078C22.0528 27.891 22.0192 27.9701 21.9618 28.0307L20.8963 29.1428L21.8284 28.6048C21.9002 28.564 21.9842 28.55 22.0654 28.5655C22.1465 28.581 22.2195 28.6249 22.2712 28.6894C22.3229 28.7538 22.35 28.8345 22.3475 28.9171C22.3451 28.9997 22.3133 29.0787 22.2579 29.14L21.7019 29.7454C21.7853 29.7707 21.8558 29.8272 21.8986 29.9032C21.9445 29.9828 21.957 30.0775 21.9333 30.1663C21.9096 30.2552 21.8516 30.331 21.7721 30.3772L20.3472 31.2002C20.2938 31.232 20.2328 31.2486 20.1707 31.2481ZM27.366 31.2495C27.3014 31.2495 27.2381 31.2315 27.1832 31.1976C27.1283 31.1637 27.084 31.1151 27.0551 31.0574C27.0262 30.9997 27.014 30.935 27.0198 30.8708C27.0256 30.8065 27.0492 30.7451 27.0879 30.6935L28.1868 29.238L26.1301 30.4252C26.0565 30.4702 25.9688 30.4862 25.884 30.4702C25.7992 30.4541 25.7235 30.4071 25.6715 30.3383C25.6194 30.2694 25.5949 30.1837 25.6026 30.0977C25.6103 30.0118 25.6497 29.9318 25.7131 29.8733L26.5986 29.0253L25.727 29.5285C25.6578 29.5685 25.577 29.5834 25.4981 29.5707C25.4193 29.558 25.3472 29.5186 25.294 29.459C25.2407 29.3994 25.2095 29.3232 25.2059 29.2433C25.2022 29.1634 25.2262 29.0847 25.2738 29.0204L26.0738 27.9396C25.9929 27.9792 25.8997 27.9859 25.814 27.9581C25.7283 27.9304 25.6567 27.8704 25.6143 27.7909C25.5719 27.7114 25.5621 27.6185 25.5869 27.5319C25.6117 27.4453 25.6691 27.3716 25.7471 27.3266L27.172 26.5036C27.2412 26.4638 27.3219 26.449 27.4007 26.4616C27.4795 26.4743 27.5515 26.5137 27.6047 26.5732C27.6579 26.6328 27.6889 26.7088 27.6927 26.7885C27.6964 26.8682 27.6726 26.9468 27.6252 27.011L26.8294 28.0877L28.747 26.9818C28.8206 26.9376 28.9079 26.9221 28.9921 26.9383C29.0764 26.9546 29.1517 27.0014 29.2034 27.0699C29.2552 27.1383 29.2798 27.2235 29.2726 27.309C29.2653 27.3945 29.2267 27.4743 29.1641 27.533L28.2779 28.3838L29.3246 27.7797C29.394 27.7401 29.4749 27.7255 29.5537 27.7385C29.6325 27.7515 29.7044 27.7912 29.7574 27.851C29.8103 27.9109 29.8411 27.9871 29.8444 28.0669C29.8477 28.1467 29.8235 28.2252 29.7757 28.2892L28.6768 29.7454L29.2968 29.3881C29.3364 29.363 29.3806 29.3461 29.4269 29.3385C29.4731 29.3309 29.5204 29.3327 29.566 29.3439C29.6115 29.355 29.6543 29.3753 29.6918 29.4034C29.7293 29.4315 29.7607 29.4669 29.7842 29.5075C29.8076 29.5481 29.8226 29.593 29.8283 29.6395C29.8339 29.686 29.8301 29.7332 29.8171 29.7782C29.804 29.8233 29.782 29.8652 29.7523 29.9014C29.7226 29.9377 29.6859 29.9676 29.6444 29.9894L27.5418 31.2029C27.4885 31.2341 27.4277 31.2502 27.366 31.2495ZM34.4236 31.1008C34.3545 31.1008 34.287 31.0801 34.2296 31.0416C34.1723 31.003 34.1278 30.9482 34.1017 30.8842C34.0757 30.8202 34.0693 30.7498 34.0835 30.6822C34.0976 30.6145 34.1316 30.5526 34.181 30.5044L34.8956 29.8093L33.7953 30.4446C33.7223 30.4852 33.6371 30.4981 33.5554 30.481C33.4736 30.4639 33.4007 30.418 33.3501 30.3516C33.2995 30.2851 33.2744 30.2027 33.2796 30.1193C33.2848 30.036 33.3198 29.9573 33.3783 29.8976L34.4007 28.8786L33.3664 29.475C33.297 29.5149 33.2158 29.5296 33.1368 29.5166C33.0577 29.5036 32.9856 29.4636 32.9326 29.4035C32.8796 29.3434 32.849 29.2668 32.846 29.1868C32.843 29.1067 32.8677 29.0281 32.916 28.9641L33.6841 27.9535C33.6027 27.9806 33.5141 27.9766 33.4355 27.9423C33.3568 27.908 33.2937 27.8458 33.2581 27.7677C33.2226 27.6896 33.2172 27.6012 33.2429 27.5193C33.2687 27.4375 33.3238 27.3681 33.3977 27.3245L34.8226 26.5015C34.8921 26.4616 34.9732 26.4469 35.0523 26.4599C35.1313 26.473 35.2034 26.5129 35.2564 26.573C35.3094 26.6331 35.34 26.7097 35.343 26.7898C35.346 26.8698 35.3213 26.9485 35.273 27.0124L34.5154 28.0098L36.3538 26.9485C36.4268 26.9079 36.512 26.895 36.5938 26.912C36.6755 26.9291 36.7484 26.9751 36.799 27.0415C36.8497 27.1079 36.8747 27.1904 36.8695 27.2737C36.8643 27.3571 36.8293 27.4358 36.7709 27.4955L35.7484 28.5144L36.9766 27.8055C37.0499 27.7626 37.1365 27.7481 37.2198 27.7646C37.3031 27.7812 37.3775 27.8278 37.4289 27.8955C37.4802 27.9632 37.505 28.0473 37.4985 28.1321C37.492 28.2168 37.4547 28.2962 37.3936 28.3553L36.6784 29.0503L37.1024 28.8064C37.142 28.7812 37.1862 28.7643 37.2324 28.7567C37.2787 28.7491 37.326 28.7509 37.3715 28.7621C37.4171 28.7732 37.4599 28.7935 37.4973 28.8216C37.5348 28.8497 37.5663 28.8851 37.5897 28.9257C37.6132 28.9663 37.6282 29.0112 37.6338 29.0577C37.6395 29.1043 37.6357 29.1515 37.6226 29.1965C37.6096 29.2415 37.5875 29.2834 37.5578 29.3197C37.5282 29.356 37.4915 29.3859 37.4499 29.4076L34.6002 31.0542C34.5467 31.0855 34.4856 31.1016 34.4236 31.1008Z" fill="#AFC9D8"/>
<path d="M41.0129 26.3903C40.3395 23.8003 38.7965 21.5203 36.6423 19.9325C40.0099 7.02722 25.4031 -2.70367 13.7566 0.665306C2.3298 2.71783 -4.7661 17.205 3.7665 26.2902C5.3582 27.2126 3.71437 29.0434 3.59204 30.4675C3.08951 34.4989 7.69291 31.5518 9.35064 30.5329C10.7302 31.2012 12.1788 31.7166 13.6705 32.0697C16.0643 40.5293 27.1366 43.0941 34.3618 39.2698C38.6969 42.2523 40.7279 41.0436 38.6656 35.9912C40.6195 33.334 41.9359 29.8003 41.0129 26.3903ZM10.6831 30.3167C8.87591 28.4859 3.63652 35.1175 4.71318 29.9323C7.23209 24.8904 -0.791031 22.7544 1.21145 13.704C4.94741 -6.473 39.6207 -1.48452 35.8027 19.3298C26.951 12.7351 10.82 19.2986 13.4849 31.3294C12.5261 31.0649 11.5894 30.7263 10.6831 30.3167ZM38.7636 34.3342C36.9829 36.1358 38.0303 37.3 38.5649 39.4081C38.6344 41.7081 35.5907 38.4198 34.6162 38.5275C34.0601 38.5115 33.3074 39.0933 32.7937 39.2921C16.122 45.891 5.38461 22.4924 24.1381 17.5984C33.363 15.3972 44.4527 25.0662 38.7609 34.3342H38.7636Z" fill="#262626"/>
<path d="M20.9102 26.6028C16.892 25.3399 16.0127 31.9868 20.4048 31.1478C22.7813 30.8128 23.3429 27.3187 20.9102 26.6028ZM20.4618 30.605C20.5432 30.5765 20.2679 30.6481 20.352 30.6335C18.5608 30.9018 17.6301 28.2647 19.0912 27.2645C19.0912 27.2645 19.2997 27.1436 19.2622 27.1623C21.3126 26.3825 22.4184 29.8884 20.4604 30.605H20.4618ZM28.5809 26.6355C24.5335 25.4935 23.5486 31.8394 28.0248 31.0999C30.3804 30.7982 31.0115 27.3472 28.5809 26.6355ZM28.8234 30.0733C26.9822 32.3433 24.5717 27.8581 27.1268 27.0275C28.6302 26.7828 29.7576 28.8395 28.8234 30.0733ZM36.2266 26.5889C32.2432 25.2398 31.2555 31.9214 35.6365 31.1965C38.0442 30.8962 38.6579 27.375 36.2266 26.5889ZM36.4879 29.985C36.3079 30.2664 36.0345 30.4753 35.7157 30.5751C35.7338 30.5709 35.5551 30.6133 35.6198 30.6008C33.7487 30.9094 32.893 28.0068 34.5612 27.195C36.1181 26.5583 37.4388 28.7311 36.4879 29.985Z" fill="#262626"/>
</svg>
