<svg width="36" height="47" viewBox="0 0 36 47" fill="none" xmlns="http://www.w3.org/2000/svg">
<path d="M4.54338 44.9985C4.45801 44.9986 4.37491 44.9709 4.30656 44.9198C4.23821 44.8686 4.18828 44.7967 4.16426 44.7147C4.14024 44.6328 4.14343 44.5453 4.17334 44.4653C4.20325 44.3854 4.25827 44.3172 4.33016 44.2712L9.35439 41.0594L3.2127 44.6037C3.12333 44.6521 3.01873 44.6642 2.92068 44.6374C2.82263 44.6106 2.73867 44.5471 2.68627 44.46C2.63387 44.3729 2.61708 44.269 2.63938 44.1698C2.66167 44.0707 2.72135 43.9839 2.80599 43.9277L4.4265 42.9097L3.2127 43.6094C3.12409 43.6571 3.02061 43.6692 2.92339 43.6432C2.82617 43.6172 2.74256 43.555 2.68963 43.4694C2.6367 43.3838 2.61845 43.2812 2.63861 43.1826C2.65877 43.084 2.71581 42.9969 2.79809 42.9389L8.99349 38.8426L3.2127 42.1784C3.12422 42.2298 3.01927 42.2448 2.91995 42.2203C2.82062 42.1958 2.73469 42.1337 2.68023 42.0471C2.62577 41.9605 2.60705 41.8561 2.628 41.756C2.64896 41.6559 2.70795 41.5678 2.79256 41.5103L8.67207 37.4827L3.2127 40.6384C3.12401 40.6898 3.01881 40.7047 2.91934 40.68C2.81987 40.6552 2.73393 40.5928 2.67967 40.5058C2.62542 40.4188 2.60711 40.3142 2.62862 40.214C2.65013 40.1137 2.70977 40.0258 2.79493 39.9688L5.60951 38.0734L3.2127 39.4578C3.1246 39.5053 3.02177 39.5175 2.92499 39.4921C2.82821 39.4666 2.7447 39.4054 2.69134 39.3208C2.63798 39.2361 2.61875 39.1343 2.63754 39.0361C2.65633 38.9378 2.71174 38.8503 2.79256 38.7913L4.76688 37.4353L3.2127 38.334C3.12422 38.3854 3.01927 38.4004 2.91995 38.3759C2.82062 38.3514 2.73469 38.2893 2.68023 38.2027C2.62577 38.1161 2.60705 38.0118 2.628 37.9116C2.64896 37.8115 2.70795 37.7234 2.79256 37.6659L3.12109 37.4424C3.04203 37.4629 2.95862 37.4587 2.88199 37.4305C2.80536 37.4022 2.73918 37.3513 2.69227 37.2845C2.6356 37.2038 2.61115 37.1049 2.62372 37.0071C2.63629 36.9094 2.68496 36.8198 2.76018 36.7561L5.39945 34.5165L3.2127 35.78C3.12664 35.8287 3.02546 35.8433 2.92915 35.821C2.83283 35.7987 2.7484 35.741 2.69254 35.6595C2.63667 35.5779 2.61343 35.4783 2.62742 35.3805C2.64141 35.2826 2.6916 35.1935 2.76808 35.1309L3.17874 34.8C3.09428 34.8182 3.00617 34.8083 2.92792 34.7716C2.84967 34.735 2.7856 34.6737 2.74553 34.5971C2.70546 34.5206 2.69161 34.433 2.70609 34.3478C2.72058 34.2627 2.76261 34.1846 2.82573 34.1256L3.53648 33.4598C3.48041 33.4257 3.43394 33.3779 3.40144 33.3208C3.34901 33.2302 3.3347 33.1225 3.36166 33.0214C3.38861 32.9203 3.45461 32.834 3.54517 32.7815L5.42235 31.698C5.50649 31.6468 5.60671 31.6289 5.70336 31.6478C5.8 31.6667 5.88609 31.7211 5.94473 31.8002C6.00337 31.8793 6.03034 31.9775 6.02033 32.0754C6.01033 32.1734 5.96408 32.2641 5.89066 32.3297L5.83853 32.3795L7.1021 31.6506C7.18818 31.601 7.28978 31.5857 7.38665 31.6077C7.48351 31.6297 7.56851 31.6875 7.62471 31.7694C7.68091 31.8513 7.70417 31.9514 7.68986 32.0496C7.67555 32.1479 7.62472 32.2372 7.5475 32.2997L7.23161 32.5532L8.7929 31.6521C8.87811 31.6044 8.97797 31.59 9.0732 31.6116C9.16843 31.6333 9.25227 31.6894 9.30852 31.7692C9.36478 31.849 9.38946 31.9469 9.37781 32.0438C9.36615 32.1408 9.31898 32.23 9.24541 32.2942L6.60615 34.5339L11.5996 31.6521C11.6879 31.6016 11.7924 31.5872 11.8911 31.6118C11.9898 31.6364 12.0752 31.6982 12.1295 31.7843C12.1838 31.8704 12.2028 31.9741 12.1825 32.0738C12.1622 32.1735 12.1041 32.2615 12.0205 32.3195L11.831 32.4482L13.2106 31.6521C13.2988 31.6036 13.4021 31.5905 13.4996 31.6156C13.5971 31.6407 13.6813 31.7021 13.735 31.7872C13.7887 31.8723 13.8079 31.9747 13.7887 32.0735C13.7695 32.1722 13.7133 32.2599 13.6316 32.3187L11.6572 33.6738L15.1597 31.6521C15.2482 31.6017 15.3528 31.5874 15.4517 31.6123C15.5505 31.6372 15.6359 31.6994 15.6899 31.7858C15.744 31.8721 15.7625 31.9761 15.7417 32.0759C15.7209 32.1756 15.6623 32.2635 15.5782 32.321L12.7629 34.2164L17.2019 31.6521C17.2902 31.6031 17.3939 31.5897 17.4918 31.6147C17.5896 31.6398 17.6742 31.7014 17.728 31.7869C17.7818 31.8723 17.8008 31.9752 17.7811 32.0743C17.7614 32.1733 17.7045 32.2611 17.622 32.3195L11.7449 36.3423L19.8688 31.6521C19.9574 31.6044 20.0609 31.5923 20.1581 31.6184C20.2553 31.6444 20.3389 31.7065 20.3919 31.7921C20.4448 31.8777 20.4631 31.9803 20.4429 32.0789C20.4227 32.1775 20.3657 32.2647 20.2834 32.3226L14.0888 36.4197L22.3478 31.6521C22.4371 31.6037 22.5417 31.5916 22.6398 31.6184C22.7378 31.6452 22.8218 31.7087 22.8742 31.7958C22.9266 31.8829 22.9434 31.9868 22.9211 32.086C22.8988 32.1851 22.8391 32.2719 22.7545 32.3282L21.1316 33.3461L24.0694 31.6521C24.1584 31.6032 24.263 31.5904 24.3613 31.6166C24.4595 31.6427 24.5439 31.7058 24.5968 31.7926C24.6497 31.8794 24.6671 31.9833 24.6454 32.0826C24.6236 32.1819 24.5644 32.269 24.48 32.3258L19.4542 35.54L26.1882 31.6521C26.2774 31.6014 26.3828 31.5873 26.4822 31.613C26.5815 31.6386 26.667 31.7019 26.7205 31.7895C26.774 31.8771 26.7913 31.982 26.7687 32.0821C26.7462 32.1822 26.6855 32.2696 26.5996 32.3258L20.942 35.9585L28.4065 31.6521C28.4954 31.6051 28.5989 31.5937 28.6959 31.6203C28.7929 31.6469 28.876 31.7095 28.9284 31.7954C28.9808 31.8812 28.9985 31.9838 28.9778 32.0822C28.9571 32.1807 28.8997 32.2675 28.8172 32.325L22.8508 36.1694L30.474 31.7659C30.5632 31.7151 30.6687 31.7011 30.768 31.7267C30.8674 31.7523 30.9529 31.8156 31.0064 31.9032C31.0598 31.9908 31.0771 32.0957 31.0546 32.1958C31.032 32.296 30.9714 32.3833 30.8855 32.4395L24.946 36.272L31.6642 32.3937C31.7531 32.3422 31.8585 32.3273 31.9582 32.3523C32.0579 32.3773 32.1439 32.4401 32.198 32.5275C32.2521 32.6149 32.2699 32.7199 32.2478 32.8203C32.2257 32.9206 32.1653 33.0084 32.0796 33.065L24.8362 37.8665L32.476 33.4559C32.5643 33.4045 32.669 33.3893 32.7682 33.4136C32.8674 33.4378 32.9534 33.4995 33.0081 33.5858C33.0628 33.672 33.0819 33.7761 33.0615 33.8762C33.041 33.9762 32.9826 34.0645 32.8985 34.1224L25.1695 39.4831L32.7777 35.0898C32.8656 35.0391 32.9697 35.0242 33.0684 35.0482C33.167 35.0723 33.2526 35.1334 33.3074 35.2188C33.3621 35.3043 33.3819 35.4076 33.3625 35.5072C33.3432 35.6069 33.2861 35.6953 33.2033 35.754L27.2678 39.9498L32.7824 36.7664C32.8699 36.7166 32.9732 36.7022 33.071 36.726C33.1688 36.7498 33.2539 36.81 33.3087 36.8945C33.3636 36.9789 33.3841 37.0811 33.3662 37.1801C33.3482 37.2792 33.293 37.3677 33.212 37.4274L29.0107 40.4797L32.7856 38.3009C32.8716 38.2516 32.9729 38.2364 33.0696 38.2584C33.1662 38.2804 33.2511 38.3379 33.3073 38.4196C33.3634 38.5012 33.3869 38.601 33.3729 38.6991C33.3589 38.7972 33.3085 38.8865 33.2318 38.9492L29.798 41.7259L32.7895 39.9996C32.8741 39.9514 32.9735 39.9362 33.0687 39.9569C33.1638 39.9776 33.2479 40.0327 33.3049 40.1116C33.3619 40.1905 33.3877 40.2877 33.3774 40.3845C33.3671 40.4813 33.3215 40.5709 33.2491 40.6361L31.3704 42.3134L32.7966 41.4898C32.8772 41.4436 32.9715 41.4274 33.0629 41.4439C33.1542 41.4603 33.2369 41.5085 33.2963 41.5799C33.3557 41.6512 33.388 41.7413 33.3876 41.8341C33.3872 41.927 33.3541 42.0167 33.2942 42.0876L32.4381 43.089L32.8006 42.8797C32.8688 42.8401 32.9473 42.8219 33.026 42.8273C33.1047 42.8328 33.1799 42.8617 33.242 42.9103C33.3041 42.9589 33.3503 43.025 33.3745 43.1C33.3987 43.1751 33.3999 43.2557 33.3779 43.3314L33.1828 44.0019C33.2455 44.0346 33.2982 44.0836 33.3355 44.1436C33.3728 44.2037 33.3933 44.2727 33.3948 44.3433C33.3964 44.414 33.3789 44.4838 33.3442 44.5455C33.3096 44.6071 33.259 44.6583 33.1978 44.6937L32.8029 44.9219C32.7348 44.9611 32.6565 44.9791 32.5781 44.9735C32.4997 44.9679 32.4247 44.9391 32.3628 44.8907C32.3009 44.8422 32.2548 44.7764 32.2305 44.7016C32.2062 44.6269 32.2048 44.5466 32.2264 44.471L32.3465 44.054L30.8389 44.9227C30.7582 44.9693 30.6637 44.9859 30.572 44.9695C30.4803 44.9531 30.3973 44.9048 30.3378 44.8332C30.2782 44.7615 30.2459 44.6711 30.2466 44.578C30.2472 44.4848 30.2808 44.3949 30.3414 44.3241L31.1974 43.3235L28.4208 44.9251C28.3368 44.969 28.2399 44.9814 28.1476 44.9598C28.0554 44.9382 27.9739 44.8842 27.9182 44.8076C27.8625 44.731 27.8361 44.6369 27.844 44.5425C27.8519 44.448 27.8935 44.3596 27.9611 44.2933L29.8423 42.6128L25.836 44.9274C25.75 44.9767 25.6486 44.9919 25.552 44.9699C25.4553 44.9479 25.3705 44.8904 25.3143 44.8087C25.2581 44.7271 25.2347 44.6273 25.2487 44.5292C25.2626 44.4311 25.313 44.3418 25.3898 44.2791L28.8243 41.5008L22.884 44.9298C22.7965 44.9785 22.6938 44.9921 22.5967 44.968C22.4995 44.9438 22.4152 44.8836 22.3607 44.7997C22.3063 44.7157 22.2857 44.6142 22.3032 44.5156C22.3208 44.4171 22.3751 44.3288 22.4552 44.2688L26.6533 41.2181L20.2202 44.9298C20.1323 44.9805 20.0282 44.9954 19.9296 44.9714C19.8309 44.9474 19.7453 44.8863 19.6905 44.8008C19.6358 44.7153 19.616 44.6121 19.6354 44.5124C19.6548 44.4127 19.7118 44.3244 19.7946 44.2657L25.7278 40.0722L17.3093 44.9346C17.221 44.9859 17.1163 45.0011 17.0171 44.9769C16.9179 44.9527 16.8319 44.8909 16.7772 44.8047C16.7225 44.7184 16.7034 44.6143 16.7238 44.5143C16.7443 44.4142 16.8027 44.3259 16.8868 44.268L24.619 38.905L14.1717 44.9369C14.0828 44.9885 13.9773 45.0033 13.8777 44.9783C13.778 44.9533 13.692 44.8905 13.6379 44.8031C13.5838 44.7157 13.5659 44.6107 13.5881 44.5103C13.6102 44.41 13.6705 44.3222 13.7563 44.2657L20.9989 39.4641L11.5206 44.9393C11.4313 44.994 11.3239 45.0109 11.2221 44.9864C11.1203 44.9619 11.0323 44.8979 10.9777 44.8086C10.923 44.7193 10.9061 44.6119 10.9306 44.5101C10.9551 44.4082 11.019 44.3203 11.1084 44.2657L17.0487 40.4315L9.23673 44.9409C9.14764 44.9899 9.04308 45.0026 8.94483 44.9764C8.84658 44.9503 8.76221 44.8872 8.70929 44.8004C8.65636 44.7136 8.63897 44.6097 8.66072 44.5104C8.68248 44.4111 8.7417 44.324 8.82607 44.2672L14.794 40.4181L6.96153 44.9401C6.87217 44.9924 6.76581 45.0076 6.66538 44.9823C6.56495 44.957 6.47848 44.8932 6.42462 44.8048C6.37075 44.7163 6.3538 44.6102 6.37742 44.5094C6.40103 44.4085 6.46333 44.321 6.55087 44.2657L12.21 40.6329L4.74082 44.9448C4.68095 44.98 4.6128 44.9985 4.54338 44.9985Z" fill="#416572"/>
<path d="M12.2052 46.5543C12.1238 46.5542 12.0444 46.529 11.9779 46.482C11.9114 46.435 11.8611 46.3687 11.8338 46.292C11.8064 46.2153 11.8035 46.132 11.8253 46.0536C11.8471 45.9751 11.8927 45.9054 11.9557 45.8538L11.9912 45.8246L10.8185 46.5006C10.7384 46.547 10.6446 46.5638 10.5534 46.548C10.4623 46.5323 10.3795 46.4851 10.3196 46.4145C10.2597 46.344 10.2265 46.2547 10.2257 46.1622C10.225 46.0697 10.2567 45.9798 10.3154 45.9083L11.4929 44.4765L7.98416 46.499C7.90327 46.545 7.80873 46.561 7.71721 46.5441C7.6257 46.5272 7.54309 46.4785 7.48397 46.4067C7.42484 46.3348 7.39301 46.2443 7.39407 46.1513C7.39514 46.0582 7.42904 45.9685 7.48979 45.898L8.6428 44.5792L5.31568 46.499C5.23158 46.5472 5.13272 46.5627 5.03791 46.5427C4.94309 46.5227 4.85895 46.4685 4.80149 46.3905C4.74404 46.3124 4.71729 46.216 4.72633 46.1195C4.73537 46.023 4.77958 45.9332 4.85053 45.8672L5.61972 45.1565L3.29398 46.499C3.20995 46.5453 3.11196 46.5593 3.01831 46.5386C2.92467 46.5179 2.84177 46.4638 2.78509 46.3864C2.72841 46.309 2.70184 46.2137 2.71032 46.1181C2.71881 46.0226 2.76177 45.9334 2.8312 45.8672L3.52537 45.2355L1.39311 46.4643C1.31077 46.5118 1.21403 46.5281 1.12067 46.51C1.02731 46.492 0.943598 46.4409 0.884913 46.366C0.826229 46.2912 0.796515 46.1977 0.801232 46.1028C0.805948 46.0078 0.844778 45.9177 0.910586 45.8491L1.93723 44.7845L0.84267 45.4163C0.769864 45.4576 0.685812 45.4747 0.602649 45.4652C0.519487 45.4556 0.441518 45.4198 0.38 45.3631C0.318482 45.3063 0.276598 45.2314 0.260396 45.1493C0.244194 45.0672 0.254513 44.982 0.289862 44.9061L0.732898 43.9719C0.656404 43.9807 0.579018 43.9669 0.510266 43.9322C0.441513 43.8975 0.384392 43.8435 0.345932 43.7768C0.293823 43.6862 0.279773 43.5786 0.306865 43.4777C0.333956 43.3767 0.399977 43.2906 0.490452 43.2382L1.40732 42.7091C1.48013 42.6678 1.56418 42.6507 1.64734 42.6603C1.73051 42.6699 1.80848 42.7056 1.86999 42.7624C1.93151 42.8191 1.9734 42.894 1.9896 42.9761C2.0058 43.0583 1.99548 43.1434 1.96013 43.2193L1.54158 44.1062L3.96367 42.7083C4.04601 42.6608 4.14274 42.6445 4.23611 42.6626C4.32947 42.6806 4.41318 42.7318 4.47186 42.8066C4.53055 42.8814 4.56026 42.9749 4.55555 43.0698C4.55083 43.1648 4.512 43.2549 4.44619 43.3235L3.41955 44.3873L6.33127 42.7083C6.41528 42.6627 6.51299 42.6491 6.60627 42.67C6.69955 42.691 6.78207 42.7451 6.8385 42.8222C6.89494 42.8994 6.92145 42.9944 6.91313 43.0897C6.90481 43.1849 6.86222 43.2739 6.79326 43.3401L6.10067 43.9719L8.28821 42.7083C8.3723 42.6602 8.47117 42.6446 8.56598 42.6647C8.6608 42.6847 8.74494 42.7389 8.80239 42.8169C8.85985 42.8949 8.8866 42.9914 8.87756 43.0879C8.86852 43.1843 8.82431 43.2741 8.75336 43.3401L7.98416 44.0509L10.3107 42.7083C10.3916 42.6623 10.4861 42.6464 10.5776 42.6633C10.6692 42.6802 10.7518 42.7288 10.8109 42.8007C10.87 42.8726 10.9019 42.963 10.9008 43.0561C10.8997 43.1491 10.8658 43.2388 10.8051 43.3093L9.65207 44.6282L12.9792 42.7083C13.0592 42.662 13.1531 42.6452 13.2442 42.6609C13.3354 42.6766 13.4182 42.7239 13.4781 42.7944C13.538 42.8649 13.5712 42.9542 13.5719 43.0468C13.5727 43.1393 13.541 43.2291 13.4822 43.3006L12.3055 44.7324L15.8127 42.7083C15.8985 42.6595 15.9995 42.6446 16.0957 42.6665C16.192 42.6884 16.2765 42.7456 16.3327 42.8268C16.3889 42.9079 16.4126 43.0072 16.3993 43.105C16.3859 43.2028 16.3364 43.292 16.2605 43.3551L16.225 43.3843L17.3969 42.7083C17.4788 42.6614 17.5747 42.6454 17.6674 42.663C17.76 42.6807 17.8433 42.731 17.9021 42.8048C17.9609 42.8786 17.9913 42.971 17.9879 43.0653C17.9845 43.1596 17.9474 43.2495 17.8834 43.3188L16.7817 44.5034L19.8917 42.7083C19.9758 42.6563 20.0764 42.6377 20.1736 42.6563C20.2708 42.6749 20.3574 42.7293 20.4164 42.8088C20.4754 42.8882 20.5024 42.9869 20.4921 43.0853C20.4818 43.1837 20.4349 43.2746 20.3608 43.3401L19.515 44.1393L21.9892 42.7083C22.0698 42.6622 22.1642 42.6461 22.2556 42.6627C22.347 42.6792 22.4296 42.7275 22.489 42.799C22.5483 42.8705 22.5805 42.9606 22.5799 43.0535C22.5794 43.1464 22.5461 43.2362 22.4859 43.307L21.3234 44.659L24.709 42.7083C24.7939 42.6604 24.8936 42.6455 24.9889 42.6667C25.0841 42.6879 25.1681 42.7436 25.2247 42.8231C25.2813 42.9025 25.3065 43.0002 25.2954 43.0971C25.2843 43.194 25.2378 43.2834 25.1647 43.348L24.7098 43.7429L26.4993 42.7083C26.582 42.6634 26.6781 42.6495 26.7702 42.6691C26.8623 42.6888 26.9444 42.7407 27.0016 42.8155C27.0587 42.8903 27.0873 42.9831 27.0821 43.0771C27.0769 43.1712 27.0382 43.2602 26.9731 43.3283L25.9725 44.3407L28.8021 42.7083C28.8857 42.6607 28.9838 42.6452 29.078 42.6648C29.1722 42.6843 29.256 42.7376 29.3137 42.8146C29.3714 42.8916 29.399 42.987 29.3913 43.0829C29.3836 43.1788 29.3412 43.2685 29.272 43.3354L28.3875 44.182L30.9415 42.7083C31.0231 42.6619 31.1186 42.6461 31.2108 42.6638C31.3029 42.6814 31.3859 42.7312 31.4446 42.8044C31.5034 42.8777 31.5341 42.9694 31.5314 43.0632C31.5286 43.157 31.4925 43.2468 31.4296 43.3164L30.316 44.531L33.4749 42.7068C33.5583 42.658 33.6566 42.6415 33.7513 42.6604C33.846 42.6792 33.9305 42.7321 33.9888 42.809C34.0472 42.8859 34.0753 42.9816 34.0679 43.0778C34.0605 43.1741 34.0182 43.2643 33.9488 43.3314L33.0193 44.2357L35.0331 43.074C35.1144 43.0276 35.2095 43.0115 35.3015 43.0287C35.3935 43.0459 35.4764 43.0953 35.5354 43.168C35.5945 43.2406 35.6257 43.3319 35.6237 43.4255C35.6216 43.5191 35.5864 43.6089 35.5243 43.6789L34.7203 44.5737L35.1507 44.3249C35.2273 44.2808 35.3165 44.2637 35.404 44.2763C35.4915 44.2889 35.5722 44.3305 35.6333 44.3944C35.6946 44.4584 35.7327 44.5412 35.7413 44.6294C35.7499 44.7177 35.7285 44.8062 35.6806 44.8809L35.4382 45.2576C35.5084 45.2832 35.5699 45.3283 35.6156 45.3875C35.6612 45.4468 35.6891 45.5178 35.6959 45.5922C35.7028 45.6667 35.6884 45.7415 35.6544 45.8081C35.6203 45.8747 35.5681 45.9303 35.5037 45.9683L34.5877 46.4974C34.5112 46.5409 34.4225 46.5577 34.3355 46.545C34.2485 46.5323 34.1682 46.491 34.1073 46.4275C34.0465 46.364 34.0086 46.2821 33.9996 46.1946C33.9906 46.1071 34.0111 46.0192 34.0578 45.9446L34.1367 45.8207L32.9593 46.4998C32.878 46.5462 32.7828 46.5623 32.6908 46.5451C32.5988 46.5279 32.5159 46.4785 32.4569 46.4058C32.3979 46.3332 32.3666 46.2419 32.3686 46.1483C32.3707 46.0547 32.4059 45.9649 32.468 45.8949L33.272 44.9985L30.6738 46.499C30.5904 46.5477 30.4921 46.5642 30.3974 46.5454C30.3028 46.5266 30.2183 46.4737 30.1599 46.3968C30.1016 46.3198 30.0734 46.2242 30.0808 46.128C30.0882 46.0317 30.1306 45.9415 30.1999 45.8744L31.1302 44.9693L28.4791 46.499C28.3975 46.5454 28.3021 46.5612 28.2099 46.5436C28.1177 46.526 28.0348 46.4761 27.976 46.4029C27.9173 46.3297 27.8865 46.238 27.8893 46.1442C27.892 46.0503 27.9281 45.9606 27.9911 45.8909L29.107 44.6748L25.9481 46.499C25.8644 46.5502 25.7648 46.5684 25.6684 46.5502C25.5721 46.5319 25.486 46.4785 25.4269 46.4003C25.3678 46.3221 25.3399 46.2247 25.3487 46.127C25.3574 46.0294 25.4022 45.9385 25.4742 45.872L26.3587 45.0254L23.8063 46.499C23.7236 46.544 23.6275 46.5579 23.5354 46.5383C23.4433 46.5186 23.3612 46.4667 23.3041 46.3919C23.2469 46.3171 23.2183 46.2243 23.2235 46.1302C23.2287 46.0362 23.2674 45.9471 23.3325 45.8791L24.3378 44.8659L21.5043 46.499C21.4193 46.547 21.3196 46.5618 21.2244 46.5406C21.1291 46.5194 21.0451 46.4638 20.9885 46.3843C20.9319 46.3048 20.9067 46.2072 20.9178 46.1103C20.9289 46.0134 20.9755 45.924 21.0486 45.8593L21.5035 45.4645L19.7124 46.499C19.6317 46.5451 19.5374 46.5613 19.446 46.5447C19.3546 46.5281 19.2719 46.4798 19.2126 46.4083C19.1533 46.3369 19.1211 46.2467 19.1216 46.1538C19.1222 46.0609 19.1555 45.9712 19.2156 45.9004L20.3781 44.5468L16.9942 46.499C16.91 46.5502 16.8098 46.5681 16.7131 46.5492C16.6165 46.5302 16.5304 46.4759 16.4718 46.3968C16.4131 46.3177 16.3862 46.2195 16.3962 46.1215C16.4062 46.0236 16.4524 45.9329 16.5258 45.8672L17.3724 45.068L14.8966 46.499C14.8148 46.546 14.7188 46.562 14.6262 46.5443C14.5335 46.5266 14.4502 46.4763 14.3914 46.4025C14.3326 46.3288 14.3022 46.2364 14.3056 46.1421C14.3091 46.0478 14.3462 45.9579 14.4102 45.8886L15.5118 44.704L12.4027 46.499C12.343 46.5348 12.2748 46.5539 12.2052 46.5543Z" fill="#324E56"/>
<path d="M8.30095 32.3321C8.21582 32.3321 8.13297 32.3046 8.06474 32.2537C7.9965 32.2028 7.94654 32.1312 7.9223 32.0496C7.89806 31.968 7.90084 31.8808 7.93022 31.8009C7.9596 31.721 8.01402 31.6528 8.08535 31.6063L18.4821 24.836L7.70786 31.0567C7.61811 31.1107 7.51058 31.1269 7.4089 31.1016C7.30723 31.0764 7.21975 31.0118 7.16572 30.922C7.11168 30.8323 7.09551 30.7247 7.12076 30.623C7.14601 30.5214 7.21062 30.4339 7.30036 30.3799L14.1268 26.1035L7.78684 29.7639C7.69743 29.815 7.59159 29.8291 7.4919 29.8033C7.39221 29.7775 7.30656 29.7137 7.2532 29.6257C7.19984 29.5376 7.18299 29.4321 7.20626 29.3318C7.22953 29.2315 7.29107 29.1442 7.37776 29.0887L19.0918 21.6226L7.89661 28.0873C7.80707 28.1416 7.69961 28.1582 7.59786 28.1333C7.49611 28.1084 7.40842 28.0441 7.35407 27.9546C7.29971 27.8651 7.28316 27.7576 7.30804 27.6559C7.33292 27.5541 7.3972 27.4664 7.48674 27.4121L17.3275 21.1488L7.99453 26.5386C7.90488 26.5903 7.79852 26.6048 7.69833 26.5788C7.59814 26.5529 7.51214 26.4887 7.45884 26.3999C7.40553 26.3112 7.38918 26.2052 7.4133 26.1045C7.43743 26.0039 7.5001 25.9167 7.58782 25.8618L11.1763 23.6285L8.06561 25.4251C7.97617 25.4797 7.86873 25.4965 7.76691 25.4718C7.66509 25.4472 7.57723 25.3831 7.52267 25.2936C7.46811 25.2042 7.45131 25.0967 7.47597 24.9949C7.50063 24.8931 7.56473 24.8053 7.65416 24.7507L15.8452 19.4848L8.16038 23.9223C8.07052 23.9762 7.96292 23.9922 7.86125 23.9668C7.75958 23.9414 7.67216 23.8767 7.61823 23.7868C7.5643 23.697 7.54827 23.5894 7.57367 23.4877C7.59906 23.386 7.66381 23.2986 7.75367 23.2447L8.60262 22.7164L8.22276 22.9359C8.13358 22.9867 8.02814 23.0007 7.92878 22.9751C7.82942 22.9494 7.74394 22.8861 7.69045 22.7986C7.63696 22.711 7.61966 22.606 7.64223 22.5059C7.66479 22.4058 7.72543 22.3184 7.81132 22.2623L13.5826 18.5427L8.30884 21.587C8.21931 21.6417 8.11172 21.6586 8.00975 21.6339C7.90778 21.6093 7.81978 21.5451 7.76512 21.4556C7.71045 21.366 7.69359 21.2584 7.71825 21.1565C7.74291 21.0545 7.80707 20.9665 7.89661 20.9118L12.9864 17.6021L7.76393 20.6173C7.6746 20.6719 7.56722 20.6889 7.4654 20.6644C7.36358 20.6398 7.27566 20.5759 7.221 20.4866C7.16633 20.3972 7.14939 20.2898 7.1739 20.188C7.19841 20.0862 7.26237 19.9983 7.3517 19.9436L11.3003 17.3818L7.0982 19.8062C7.00945 19.8545 6.90558 19.8669 6.80795 19.841C6.71032 19.815 6.62635 19.7526 6.57334 19.6666C6.52032 19.5806 6.50228 19.4775 6.52294 19.3786C6.54359 19.2798 6.60137 19.1925 6.68438 19.1349L11.7489 15.8134L6.36375 18.9217C6.27466 18.9707 6.1701 18.9835 6.07185 18.9573C5.9736 18.9311 5.88923 18.8681 5.83631 18.7813C5.78339 18.6945 5.76599 18.5906 5.78775 18.4913C5.8095 18.3919 5.86873 18.3048 5.95309 18.2481L8.17538 16.8266L5.77145 18.2157C5.68298 18.2671 5.57803 18.2821 5.4787 18.2576C5.37938 18.2331 5.29344 18.171 5.23899 18.0844C5.18453 17.9978 5.16581 17.8934 5.18676 17.7933C5.20772 17.6932 5.26671 17.6051 5.35132 17.5476L13.296 12.1348L4.79614 17.0422C4.70739 17.0927 4.60254 17.1068 4.50359 17.0816C4.40463 17.0565 4.31927 16.9939 4.26543 16.9072C4.21158 16.8204 4.19343 16.7162 4.21478 16.6164C4.23614 16.5165 4.29534 16.4288 4.37996 16.3717L11.2403 11.7913L3.93929 16.0068C3.85331 16.0561 3.75193 16.0713 3.65528 16.0493C3.55864 16.0273 3.47379 15.9698 3.41761 15.8881C3.36142 15.8065 3.33799 15.7067 3.35197 15.6086C3.36596 15.5105 3.41633 15.4212 3.49309 15.3585L7.18664 12.3638L2.9466 14.812C2.86367 14.86 2.76611 14.8762 2.6721 14.8576C2.57809 14.839 2.49405 14.7869 2.43565 14.7109C2.37707 14.6346 2.34836 14.5395 2.3549 14.4436C2.36144 14.3476 2.40279 14.2573 2.47119 14.1897L4.05064 12.6268L2.07633 13.764C2.00439 13.8056 1.92115 13.8235 1.83847 13.8151C1.75578 13.8066 1.67787 13.7723 1.61583 13.717C1.55379 13.6617 1.51078 13.5882 1.49293 13.5071C1.47508 13.4259 1.48329 13.3411 1.51641 13.2649L1.76359 12.6971L1.66725 12.7524C1.57701 12.7996 1.47201 12.8101 1.3742 12.7817C1.27639 12.7533 1.19333 12.6883 1.14236 12.6001C1.09139 12.5119 1.07646 12.4075 1.10069 12.3086C1.12492 12.2096 1.18644 12.1239 1.27238 12.0693L2.40643 11.4146C2.47837 11.373 2.56161 11.3551 2.64429 11.3635C2.72697 11.372 2.80488 11.4063 2.86693 11.4616C2.92897 11.5169 2.97198 11.5904 2.98983 11.6716C3.00768 11.7527 2.99946 11.8375 2.96635 11.9137L2.71837 12.4815L6.29109 10.4203C6.37414 10.3736 6.47128 10.3585 6.56459 10.3778C6.6579 10.3971 6.74108 10.4495 6.7988 10.5253C6.85653 10.6011 6.88489 10.6952 6.87866 10.7903C6.87244 10.8854 6.83204 10.975 6.76493 11.0426L5.18943 12.6047L11.1124 9.1844C11.1985 9.13276 11.3011 9.11589 11.3992 9.1372C11.4973 9.15851 11.5837 9.21642 11.6406 9.29913C11.6976 9.38184 11.7209 9.48315 11.7058 9.58243C11.6907 9.68171 11.6383 9.77151 11.5594 9.83355L7.86581 12.829L21.3614 5.03834C21.4502 4.98785 21.555 4.97371 21.654 4.99888C21.7529 5.02404 21.8383 5.08656 21.8922 5.17331C21.946 5.26006 21.9642 5.3643 21.9428 5.46414C21.9214 5.56399 21.8622 5.65168 21.7776 5.70881L14.9165 10.2892L22.0714 6.15817C22.1598 6.10845 22.264 6.09466 22.3623 6.11965C22.4606 6.14465 22.5455 6.20651 22.5994 6.29242C22.6533 6.37833 22.6721 6.4817 22.6519 6.58109C22.6317 6.68048 22.574 6.76828 22.4907 6.82628L14.5461 12.2406L22.8785 7.42805C22.9675 7.3804 23.0714 7.36865 23.1688 7.39522C23.2662 7.42179 23.3497 7.48467 23.4022 7.57092C23.4547 7.65717 23.4721 7.76024 23.451 7.85896C23.4298 7.95768 23.3716 8.04454 23.2884 8.10168L21.0771 9.51845L23.3666 8.19724C23.4555 8.14666 23.5606 8.1326 23.6598 8.15802C23.7589 8.18343 23.8443 8.24634 23.8979 8.33347C23.9516 8.42061 23.9693 8.52518 23.9474 8.62513C23.9255 8.72509 23.8656 8.81263 23.7804 8.8693L18.7151 12.1893L24.0852 9.08805C24.1294 9.06098 24.1786 9.04289 24.2298 9.03481C24.281 9.02673 24.3333 9.02882 24.3837 9.04096C24.4342 9.05309 24.4817 9.07504 24.5236 9.10555C24.5656 9.13605 24.6011 9.17452 24.6281 9.21875C24.6552 9.26298 24.6733 9.31211 24.6814 9.36334C24.6895 9.41456 24.6874 9.46687 24.6752 9.51729C24.6631 9.5677 24.6412 9.61524 24.6106 9.65717C24.5801 9.6991 24.5417 9.73462 24.4974 9.76169L20.5488 12.3243L25.5241 9.45369C25.6132 9.40187 25.7191 9.38695 25.819 9.41213C25.919 9.43732 26.0052 9.5006 26.0591 9.58846C26.113 9.67633 26.1305 9.7818 26.1077 9.88234C26.0849 9.98289 26.0237 10.0705 25.9371 10.1265L20.8394 13.4371L27.0577 9.84698C27.1469 9.79621 27.2524 9.78216 27.3517 9.8078C27.4511 9.83343 27.5366 9.89675 27.59 9.98432C27.6435 10.0719 27.6608 10.1768 27.6383 10.277C27.6157 10.3771 27.5551 10.4645 27.4692 10.5206L21.6947 14.2458L28.623 10.2505C28.6675 10.2238 28.7168 10.2061 28.7681 10.1985C28.8194 10.1909 28.8718 10.1934 28.9221 10.206C28.9724 10.2185 29.0198 10.2409 29.0615 10.2718C29.1032 10.3027 29.1384 10.3415 29.1651 10.386C29.1918 10.4305 29.2095 10.4798 29.2171 10.5311C29.2248 10.5824 29.2223 10.6347 29.2097 10.6851C29.1971 10.7354 29.1747 10.7828 29.1439 10.8245C29.113 10.8662 29.0742 10.9014 29.0297 10.9281L28.1926 11.4485L29.7641 10.5411C29.8536 10.4866 29.961 10.4698 30.0628 10.4944C30.1646 10.5191 30.2525 10.5832 30.3071 10.6726C30.3616 10.7621 30.3784 10.8695 30.3538 10.9713C30.3291 11.0732 30.265 11.161 30.1756 11.2156L21.9893 16.4744L31.5007 10.9818C31.5902 10.934 31.6945 10.9225 31.7922 10.9496C31.8899 10.9767 31.9735 11.0403 32.0256 11.1273C32.0776 11.2143 32.0943 11.318 32.072 11.4169C32.0497 11.5158 31.9902 11.6024 31.9059 11.6586L28.3079 13.8991L32.7911 11.3111C32.8804 11.2612 32.9855 11.2479 33.0844 11.274C33.1832 11.3 33.2681 11.3634 33.3212 11.4507C33.3743 11.5381 33.3915 11.6427 33.3691 11.7424C33.3466 11.8422 33.2864 11.9293 33.201 11.9856L23.3666 18.2457L34.2774 11.9461C34.367 11.8917 34.4744 11.8752 34.5762 11.9C34.6779 11.9249 34.7656 11.9892 34.82 12.0787C34.8743 12.1683 34.8909 12.2757 34.866 12.3775C34.8411 12.4792 34.7768 12.5669 34.6873 12.6213L22.9717 20.0866L32.8219 14.4005C32.9114 14.3504 33.0169 14.3371 33.116 14.3633C33.2151 14.3895 33.3002 14.4533 33.3531 14.5412C33.4061 14.629 33.4228 14.734 33.3997 14.8339C33.3766 14.9338 33.3155 15.0208 33.2294 15.0765L26.4015 19.3521L30.8445 16.7871C30.9335 16.7374 31.0383 16.724 31.137 16.7498C31.2356 16.7756 31.3205 16.8386 31.3738 16.9255C31.427 17.0125 31.4446 17.1167 31.4228 17.2163C31.401 17.3159 31.3415 17.4032 31.2567 17.4599L20.8608 24.2287L28.176 20.006C28.2636 19.9569 28.3666 19.943 28.464 19.9672C28.5615 19.9913 28.6461 20.0517 28.7006 20.136C28.7551 20.2203 28.7755 20.3222 28.7576 20.421C28.7396 20.5198 28.6847 20.6081 28.604 20.6678L23.6769 24.2153L27.7401 21.8698C27.8282 21.8192 27.9324 21.8045 28.0311 21.8289C28.1298 21.8532 28.2153 21.9146 28.2698 22.0004C28.3243 22.0861 28.3437 22.1896 28.3239 22.2893C28.304 22.389 28.2465 22.4771 28.1634 22.5355L26.7884 23.4942L27.8064 22.9059C27.8945 22.8553 27.9988 22.8407 28.0975 22.865C28.1961 22.8893 28.2816 22.9507 28.3361 23.0365C28.3907 23.1223 28.41 23.2257 28.3902 23.3254C28.3704 23.4251 28.3129 23.5133 28.2297 23.5716L27.7559 23.9009L27.8648 23.8386C27.9508 23.7893 28.0522 23.7741 28.1488 23.7961C28.2455 23.8181 28.3303 23.8756 28.3865 23.9573C28.4427 24.0389 28.4661 24.1387 28.4522 24.2368C28.4382 24.3349 28.3878 24.4242 28.311 24.4869L25.6394 26.6492L27.9596 25.3067C28.0448 25.2576 28.1452 25.2421 28.2412 25.2631C28.3372 25.2841 28.4219 25.3402 28.4788 25.4204C28.5356 25.5005 28.5605 25.599 28.5487 25.6966C28.5368 25.7941 28.4889 25.8838 28.4145 25.9479L26.4275 27.66L28.0496 26.7234C28.1313 26.676 28.2273 26.6594 28.3202 26.6767C28.4131 26.694 28.4967 26.744 28.5559 26.8177C28.615 26.8913 28.6458 26.9838 28.6426 27.0782C28.6394 27.1726 28.6025 27.2628 28.5385 27.3323L26.8327 29.1874L28.1594 28.4229C28.2435 28.3733 28.343 28.3567 28.4387 28.3762C28.5344 28.3957 28.6195 28.4499 28.6775 28.5285C28.7355 28.607 28.7624 28.7043 28.7529 28.8015C28.7434 28.8986 28.6982 28.9889 28.6261 29.0547L28.4042 29.2608C28.5061 29.2669 28.6037 29.3041 28.6838 29.3674C28.7456 29.4253 28.7873 29.5015 28.8025 29.5849C28.8177 29.6682 28.8057 29.7542 28.7683 29.8302L28.2739 30.8347L28.3118 30.8126C28.3568 30.7841 28.407 30.7649 28.4596 30.7562C28.5121 30.7476 28.5659 30.7497 28.6176 30.7623C28.6693 30.775 28.718 30.798 28.7606 30.83C28.8032 30.8619 28.8389 30.9021 28.8655 30.9483C28.8922 30.9944 28.9092 31.0454 28.9156 31.0982C28.9221 31.1511 28.9177 31.2047 28.9029 31.2559C28.888 31.307 28.863 31.3546 28.8293 31.3959C28.7956 31.4371 28.7539 31.4711 28.7067 31.4957L27.5418 32.1686C27.4685 32.211 27.3834 32.2287 27.2992 32.219C27.215 32.2093 27.1362 32.1728 27.0743 32.1149C27.0128 32.057 26.9714 31.9808 26.9563 31.8977C26.9413 31.8145 26.9533 31.7287 26.9906 31.6529L27.485 30.6484L25.9458 31.536C25.8617 31.5849 25.7625 31.6009 25.6673 31.5812C25.572 31.5614 25.4874 31.5072 25.4297 31.4289C25.372 31.3506 25.3452 31.2538 25.3544 31.157C25.3637 31.0602 25.4083 30.9702 25.4799 30.9042L25.5462 30.8434L24.9934 31.1593C24.9118 31.2057 24.8163 31.2215 24.7241 31.2039C24.6319 31.1863 24.549 31.1364 24.4903 31.0632C24.4315 30.99 24.4008 30.8983 24.4035 30.8044C24.4063 30.7106 24.4424 30.6209 24.5053 30.5512L26.2096 28.6954L23.1841 30.4422C23.0997 30.4841 23.003 30.4944 22.9117 30.4712C22.8203 30.448 22.7402 30.3929 22.686 30.3158C22.6317 30.2387 22.6068 30.1448 22.6157 30.0509C22.6247 29.9571 22.6669 29.8696 22.7348 29.8041L24.7233 28.0904L21.6797 29.8468C21.5937 29.8952 21.4928 29.9097 21.3967 29.8874C21.3005 29.8652 21.2163 29.8077 21.1604 29.7264C21.1045 29.645 21.0811 29.5458 21.0948 29.448C21.1085 29.3503 21.1582 29.2613 21.2343 29.1984L23.9044 27.0377L20.1137 29.2261C20.0257 29.2748 19.9225 29.2881 19.825 29.2633C19.7276 29.2385 19.6433 29.1775 19.5893 29.0927C19.5353 29.0079 19.5157 28.9056 19.5345 28.8069C19.5533 28.7081 19.609 28.6202 19.6904 28.5611L20.1571 28.235L19.1202 28.8336C19.0321 28.8842 18.9278 28.8988 18.8291 28.8745C18.7305 28.8502 18.645 28.7887 18.5904 28.703C18.5359 28.6172 18.5166 28.5137 18.5364 28.4141C18.5562 28.3144 18.6137 28.2262 18.6969 28.1678L20.0766 27.2075L17.2707 28.8265C17.1831 28.8756 17.0801 28.8894 16.9826 28.8653C16.8852 28.8411 16.8006 28.7808 16.746 28.6965C16.6915 28.6122 16.6711 28.5102 16.6891 28.4115C16.707 28.3127 16.7619 28.2244 16.8426 28.1647L21.7674 24.6188L8.49996 32.2792C8.43947 32.3141 8.3708 32.3323 8.30095 32.3321Z" fill="#F4AA51"/>
<path d="M12.1349 9.40799C12.0506 9.4082 11.9686 9.38147 11.9006 9.33171C11.8326 9.28195 11.7824 9.21176 11.7571 9.1314C11.7319 9.05104 11.733 8.96471 11.7604 8.88504C11.7877 8.80536 11.8398 8.73652 11.909 8.68855L13.0999 7.85776C13.0198 7.85496 12.9424 7.82782 12.878 7.77994C12.8137 7.73207 12.7654 7.66574 12.7397 7.58977C12.714 7.5138 12.712 7.4318 12.734 7.35468C12.756 7.27756 12.801 7.20898 12.863 7.15806L15.6176 4.88444L14.8997 5.29825C14.8156 5.3486 14.7157 5.36585 14.6196 5.34663C14.5234 5.32742 14.4379 5.27312 14.3795 5.19431C14.3212 5.11549 14.2943 5.0178 14.304 4.92023C14.3138 4.82267 14.3594 4.73221 14.4322 4.66647L16.2043 3.00805C16.1429 3.00871 16.0821 2.99607 16.0261 2.97099C15.9701 2.9459 15.9201 2.90897 15.8798 2.86274C15.8204 2.78963 15.7892 2.69772 15.7916 2.6036C15.7941 2.50947 15.8301 2.41933 15.8932 2.34942L16.9293 1.19405C16.9184 1.17921 16.9081 1.16393 16.8985 1.14824C16.8461 1.05755 16.832 0.949774 16.8591 0.848621C16.8862 0.747468 16.9523 0.661223 17.043 0.60886L17.9575 0.0821123C18.0389 0.035178 18.1343 0.0187931 18.2267 0.0359002C18.3191 0.0530073 18.4023 0.102485 18.4615 0.175449C18.5207 0.248413 18.5519 0.340082 18.5495 0.433993C18.5472 0.527904 18.5115 0.617905 18.4487 0.687832L18.1407 1.03057L18.6375 0.744693C18.7216 0.695115 18.8211 0.678466 18.9168 0.697961C19.0125 0.717455 19.0975 0.77171 19.1556 0.850249C19.2136 0.928788 19.2404 1.02604 19.231 1.12322C19.2215 1.22041 19.1763 1.31063 19.1042 1.37647L17.4766 2.90064L19.3277 1.83215C19.4134 1.78354 19.5141 1.76872 19.6102 1.7906C19.7063 1.81248 19.7907 1.86947 19.8469 1.95039C19.903 2.03131 19.927 2.13031 19.9139 2.22795C19.9008 2.3256 19.8517 2.41483 19.7763 2.47814L17.0201 4.75334L20.0653 2.99541C20.1533 2.94671 20.2565 2.93339 20.3539 2.95818C20.4514 2.98297 20.5357 3.04399 20.5897 3.12881C20.6437 3.21363 20.6633 3.31585 20.6445 3.41462C20.6257 3.51339 20.5699 3.60128 20.4886 3.66036L19.8805 4.08523L20.5218 3.71564C20.5667 3.68707 20.617 3.66789 20.6695 3.65925C20.7221 3.6506 20.7758 3.65268 20.8275 3.66535C20.8793 3.67802 20.9279 3.70102 20.9705 3.73297C21.0131 3.76492 21.0488 3.80516 21.0755 3.85127C21.1021 3.89737 21.1192 3.94839 21.1256 4.00126C21.132 4.05413 21.1277 4.10774 21.1128 4.15889C21.098 4.21004 21.073 4.25765 21.0392 4.29887C21.0055 4.3401 20.9638 4.37407 20.9166 4.39876L12.3323 9.35429C12.2724 9.38922 12.2043 9.40774 12.1349 9.40799Z" fill="#F4AA51"/>
<path d="M24.1168 27.5266C24.0525 27.5266 23.9892 27.511 23.9323 27.481C23.8755 27.451 23.8268 27.4076 23.7905 27.3545C23.7543 27.3014 23.7315 27.2403 23.7242 27.1764C23.717 27.1126 23.7254 27.0479 23.7488 26.988L24.1729 25.9021L22.599 26.8111C22.5196 26.857 22.4267 26.8738 22.3363 26.8587C22.2458 26.8436 22.1635 26.7975 22.1033 26.7283C22.0432 26.6591 22.009 26.5711 22.0066 26.4794C22.0043 26.3878 22.0339 26.2981 22.0904 26.2259L23.2876 24.6915L20.8292 26.113C20.7462 26.1591 20.6495 26.1738 20.5566 26.1543C20.4637 26.1349 20.3809 26.0827 20.3234 26.0072C20.2658 25.9318 20.2374 25.8381 20.2433 25.7434C20.2491 25.6487 20.2889 25.5592 20.3553 25.4915L22.3068 23.5543L19.0768 25.418C18.9914 25.4661 18.8912 25.4806 18.7956 25.4589C18.7001 25.4372 18.616 25.3807 18.5598 25.3004C18.5036 25.2202 18.4792 25.1219 18.4914 25.0247C18.5036 24.9275 18.5515 24.8383 18.6258 24.7744L20.9342 22.8372L14.6164 26.4849C14.5279 26.5354 14.4232 26.5497 14.3244 26.5248C14.2256 26.4999 14.1402 26.4377 14.0862 26.3513C14.0321 26.2649 14.0135 26.161 14.0344 26.0612C14.0552 25.9615 14.1138 25.8736 14.1978 25.816L16.3633 24.3535L11.3588 27.2431C11.2701 27.2945 11.1649 27.3094 11.0654 27.2846C10.966 27.2599 10.88 27.1974 10.8258 27.1104C10.7715 27.0235 10.7532 26.9188 10.7747 26.8186C10.7962 26.7184 10.8559 26.6304 10.941 26.5734L18.8691 21.2277L11.2198 25.6439C11.1307 25.6929 11.0261 25.7056 10.9279 25.6795C10.8296 25.6533 10.7453 25.5902 10.6924 25.5034C10.6394 25.4166 10.622 25.3127 10.6438 25.2134C10.6655 25.1141 10.7248 25.027 10.8091 24.9703L14.3021 22.7282L11.294 24.4656C11.2052 24.509 11.1034 24.5174 11.0087 24.4894C10.914 24.4613 10.8332 24.3988 10.7823 24.3141C10.7314 24.2294 10.7142 24.1287 10.7339 24.0319C10.7536 23.9351 10.8089 23.8492 10.8889 23.7912L11.4054 23.4627L11.3596 23.4895C11.2712 23.54 11.1668 23.5545 11.0681 23.5298C10.9693 23.5052 10.8839 23.4434 10.8296 23.3574C10.7754 23.2713 10.7564 23.1676 10.7767 23.0679C10.797 22.9682 10.855 22.8802 10.9386 22.8222L17.3402 18.4187L11.4654 21.8145C11.3763 21.8678 11.2698 21.884 11.169 21.8594C11.0681 21.8348 10.981 21.7714 10.9265 21.6831C10.872 21.5947 10.8544 21.4884 10.8777 21.3872C10.901 21.2861 10.9632 21.1981 11.0508 21.1424L13.0251 19.8426L11.5309 20.6986C11.4437 20.7457 11.3421 20.7582 11.2461 20.7337C11.15 20.7093 11.0667 20.6496 11.0127 20.5666C10.9586 20.4836 10.9377 20.3833 10.9541 20.2856C10.9705 20.1879 11.0231 20.1 11.1013 20.0392L16.3056 16.2343L10.847 19.3853C10.7593 19.4349 10.656 19.449 10.5582 19.4249C10.4604 19.4008 10.3755 19.3402 10.3209 19.2555C10.2663 19.1709 10.2461 19.0685 10.2645 18.9695C10.2829 18.8704 10.3385 18.7822 10.4198 18.7227L14.6622 15.6941L10.0123 18.3792C9.92474 18.4303 9.82089 18.4457 9.72225 18.4223C9.62361 18.399 9.53775 18.3385 9.48243 18.2536C9.42712 18.1686 9.4066 18.0657 9.42511 17.966C9.44363 17.8663 9.49977 17.7776 9.5819 17.7182L14.588 14.0633L9.07253 17.2467C8.98469 17.295 8.88179 17.308 8.78469 17.2832C8.6876 17.2584 8.60356 17.1976 8.54963 17.1131C8.4957 17.0287 8.4759 16.9269 8.49425 16.8283C8.5126 16.7298 8.56772 16.642 8.64844 16.5826L12.5694 13.8312L8.28912 16.3022C8.20638 16.3472 8.11029 16.3611 8.01819 16.3414C7.92609 16.3218 7.84404 16.2699 7.78685 16.1951C7.72967 16.1202 7.7011 16.0274 7.70631 15.9334C7.71153 15.8394 7.75017 15.7503 7.81528 15.6823L8.85614 14.6343L7.53888 15.3948C7.46243 15.4394 7.37321 15.4571 7.28554 15.4449C7.19787 15.4327 7.11684 15.3914 7.05544 15.3276C6.99405 15.2639 6.95586 15.1813 6.94701 15.0933C6.93815 15.0052 6.95914 14.9167 7.0066 14.842L7.14244 14.6256C7.06961 14.6305 6.9969 14.6145 6.93275 14.5797C6.86859 14.5449 6.81561 14.4927 6.77995 14.429C6.72759 14.3383 6.7134 14.2305 6.74051 14.1294C6.76761 14.0282 6.83378 13.942 6.92447 13.8896L8.07431 13.2262C8.15076 13.182 8.23982 13.1647 8.32726 13.177C8.41471 13.1894 8.49549 13.2307 8.5567 13.2943C8.61791 13.358 8.65601 13.4404 8.66491 13.5282C8.67381 13.6161 8.653 13.7044 8.6058 13.779L8.51893 13.9188L11.0279 12.4705C11.1106 12.4255 11.2067 12.4116 11.2988 12.4312C11.3909 12.4509 11.473 12.5028 11.5302 12.5776C11.5873 12.6524 11.6159 12.7452 11.6107 12.8393C11.6055 12.9333 11.5668 13.0224 11.5017 13.0904L10.4617 14.1376L19.9242 8.67109C20.0122 8.61965 20.1168 8.60428 20.2159 8.62821C20.3151 8.65213 20.4011 8.7135 20.4561 8.79945C20.511 8.8854 20.5305 8.98926 20.5105 9.08929C20.4906 9.18931 20.4327 9.27774 20.349 9.33604L16.4265 12.0882L20.5741 9.69774C20.6617 9.64666 20.7655 9.63121 20.8641 9.65459C20.9628 9.67797 21.0487 9.7384 21.104 9.82335C21.1593 9.9083 21.1798 10.0113 21.1613 10.1109C21.1428 10.2106 21.0866 10.2993 21.0045 10.3587L15.9992 14.0128L21.352 10.9226C21.4399 10.871 21.5443 10.8554 21.6434 10.879C21.7425 10.9027 21.8286 10.9637 21.8838 11.0493C21.939 11.135 21.9589 11.2387 21.9394 11.3387C21.9199 11.4387 21.8625 11.5273 21.7792 11.586L17.5344 14.6154L22.261 11.8829C22.3484 11.8336 22.4513 11.8194 22.5487 11.8432C22.6462 11.867 22.731 11.9271 22.7858 12.0111C22.8406 12.0952 22.8614 12.197 22.8438 12.2958C22.8263 12.3946 22.7718 12.4831 22.6914 12.5431L17.4886 16.3457L24.3142 12.4065C24.4032 12.3559 24.5083 12.3419 24.6075 12.3673C24.7066 12.3927 24.792 12.4556 24.8456 12.5427C24.8993 12.6299 24.917 12.7344 24.8951 12.8344C24.8731 12.9343 24.8133 13.0219 24.7281 13.0786L22.7443 14.384L25.6015 12.735C25.6898 12.6845 25.7943 12.6701 25.893 12.6947C25.9917 12.7193 26.0771 12.7811 26.1314 12.8672C26.1857 12.9532 26.2047 13.0569 26.1844 13.1566C26.1641 13.2564 26.106 13.3444 26.0224 13.4023L19.6256 17.8027L27.5442 13.231C27.6335 13.1819 27.7384 13.1692 27.8368 13.1956C27.9352 13.222 28.0196 13.2854 28.0724 13.3727C28.1251 13.4599 28.1421 13.5641 28.1198 13.6635C28.0974 13.763 28.0375 13.8499 27.9525 13.9062L27.4313 14.2371L28.5124 13.6132C28.6015 13.5642 28.7061 13.5515 28.8043 13.5776C28.9026 13.6038 28.9869 13.6668 29.0399 13.7537C29.0928 13.8405 29.1102 13.9444 29.0884 14.0437C29.0667 14.143 29.0074 14.2301 28.9231 14.2868L25.4357 16.5241L28.3482 14.8428C28.437 14.7873 28.5442 14.7693 28.6462 14.7929C28.7483 14.8164 28.8368 14.8796 28.8923 14.9684C28.9478 15.0572 28.9657 15.1644 28.9422 15.2664C28.9186 15.3685 28.8555 15.457 28.7667 15.5125L20.8339 20.8566L25.6899 18.053C25.7785 18.0026 25.8831 17.9883 25.9819 18.0132C26.0808 18.0381 26.1661 18.1003 26.2202 18.1866C26.2743 18.273 26.2928 18.377 26.272 18.4768C26.2512 18.5765 26.1926 18.6644 26.1085 18.7219L23.9423 20.1845L24.4477 19.8931C24.5331 19.8451 24.6333 19.8305 24.7289 19.8522C24.8244 19.874 24.9084 19.9305 24.9647 20.0107C25.0209 20.0909 25.0453 20.1892 25.0331 20.2864C25.0209 20.3837 24.9729 20.4729 24.8986 20.5367L22.5887 22.4747L24.5409 21.3486C24.624 21.3004 24.7218 21.2842 24.816 21.3029C24.9102 21.3217 24.9943 21.3741 25.0526 21.4504C25.1108 21.5266 25.1392 21.6213 25.1327 21.717C25.1262 21.8126 25.0851 21.9025 25.0171 21.9701L23.0665 23.9073L24.6459 22.9951C24.7252 22.9497 24.8179 22.9331 24.908 22.9483C24.9982 22.9635 25.0803 23.0095 25.1403 23.0784C25.2003 23.1474 25.2345 23.2351 25.2371 23.3264C25.2397 23.4178 25.2105 23.5073 25.1545 23.5795L23.9589 25.114L24.7533 24.6559C24.8241 24.6154 24.9057 24.5977 24.9869 24.6054C25.0682 24.6131 25.145 24.6458 25.2069 24.699C25.2688 24.7521 25.3127 24.8231 25.3326 24.9023C25.3525 24.9814 25.3474 25.0647 25.318 25.1408L24.8876 26.2464C24.98 26.2207 25.0786 26.2295 25.1649 26.2712C25.2513 26.3128 25.3196 26.3845 25.357 26.4727C25.3944 26.561 25.3985 26.6599 25.3683 26.751C25.3382 26.842 25.2759 26.919 25.1932 26.9675L24.3142 27.4737C24.2542 27.5083 24.1861 27.5266 24.1168 27.5266Z" fill="#F9C55D"/>
<path d="M14.2791 11.9263C14.198 11.9264 14.1189 11.9016 14.0525 11.8551C13.986 11.8087 13.9355 11.7429 13.9077 11.6668C13.8799 11.5906 13.8763 11.5077 13.8972 11.4294C13.9182 11.3511 13.9627 11.2811 14.0248 11.229L15.5964 9.90701C15.5186 9.91499 15.4402 9.8997 15.3711 9.86308C15.3021 9.82646 15.2454 9.77016 15.2084 9.70131C15.1713 9.63246 15.1555 9.55417 15.163 9.47635C15.1705 9.39853 15.201 9.32468 15.2505 9.26417L16.9594 7.18403C16.9277 7.15584 16.901 7.12246 16.8805 7.08532C16.8284 6.9947 16.8143 6.88711 16.8414 6.78615C16.8685 6.68519 16.9345 6.59909 17.025 6.54673L17.96 6.00655C18.0401 5.96018 18.1339 5.94339 18.2251 5.95912C18.3162 5.97485 18.399 6.0221 18.4589 6.09262C18.5188 6.16314 18.552 6.25245 18.5528 6.34497C18.5536 6.4375 18.5218 6.52735 18.4631 6.59885L17.2406 8.08748L18.9338 7.1098C19.0193 7.05992 19.1205 7.04401 19.2172 7.06521C19.3139 7.08641 19.3991 7.14318 19.456 7.22427C19.5128 7.30535 19.5371 7.40483 19.5241 7.50299C19.511 7.60114 19.4615 7.69081 19.3855 7.75422L17.964 8.94828L19.5253 8.04642C19.5702 8.01785 19.6205 7.99866 19.673 7.99002C19.7256 7.98138 19.7793 7.98345 19.831 7.99612C19.8828 8.00879 19.9314 8.03179 19.974 8.06374C20.0166 8.09569 20.0523 8.13593 20.079 8.18204C20.1056 8.22815 20.1227 8.27917 20.1291 8.33203C20.1355 8.3849 20.1312 8.43852 20.1163 8.48966C20.1015 8.54081 20.0765 8.58843 20.0427 8.62965C20.009 8.67087 19.9673 8.70484 19.9201 8.72953L14.4758 11.8734C14.4161 11.9083 14.3482 11.9265 14.2791 11.9263Z" fill="#F9C55D"/>
<path d="M34.1447 42.8094H33.5808C33.1614 38.6238 35.6341 31.0377 28.9372 31.5439C29.3676 30.4912 28.9585 28.7009 28.9025 27.8275C28.7627 25.5839 28.7785 23.2581 28.4618 21.0358C37.3312 9.96546 38.3507 12.7548 24.5748 9.0241C16.7983 -3.10846 19.2362 -2.91893 11.4969 9.05964C-2.10772 12.7232 -1.43092 10.2032 7.52694 21.1432C7.384 24.6014 6.92359 28.0984 6.94017 31.5416C0.581298 31.1704 2.78937 38.7873 2.41346 42.7928C0.709234 42.7257 -0.239227 43.2666 0.0521818 45.1375C0.0521818 46.0852 0.54734 46.3947 1.39945 46.4011C6.87226 46.4232 12.3458 46.4011 17.8194 46.4011C23.1825 46.4011 28.5479 46.4492 33.9101 46.4011C34.7788 46.4129 35.8923 46.1641 35.9437 45.1264C36.1119 43.5865 36.0076 42.5503 34.1447 42.8094ZM17.8913 28.6077L25.2902 31.5439H10.6203C13.0629 30.6192 15.4692 29.5767 17.8913 28.6077ZM28.3694 21.1101C28.3913 21.0943 28.4119 21.0769 28.431 21.0579C28.4137 21.0789 28.3929 21.0965 28.3694 21.1101ZM28.4594 21.0074C28.4476 20.8171 28.5013 20.9063 28.4594 21.0074V21.0074ZM7.00019 18.7504L2.66775 13.5295C2.40872 13.2175 1.69797 12.5818 2.20103 12.2328C5.0701 11.372 8.12397 10.8026 11.0294 9.97809C12.2566 9.93308 12.8205 8.97751 13.3259 8.00378L17.0842 2.07293L17.6528 1.1758C17.8108 0.923091 17.8376 0.658533 18.1132 0.977582L22.726 8.25649C22.9527 8.74039 23.2398 9.19361 23.5805 9.60534C25.0589 10.2482 26.7907 10.403 28.3425 10.8981C30.0799 11.4241 31.9555 11.6784 33.6558 12.2549C34.4179 12.7287 33.5532 13.4047 33.2191 13.8075C25.2042 23.4658 27.5465 18.718 27.9477 31.0796C27.9019 31.72 27.6168 31.4547 27.1256 31.2596C15.5956 26.6002 20.0259 27.123 8.43907 31.5424H8.21321C7.99367 31.4057 8.04974 31.0251 8.05527 30.8103C8.23217 27.713 8.46513 24.6165 8.65072 21.5191C8.85842 20.3267 7.61223 19.6104 7.00019 18.7504ZM3.81365 33.906C5.14197 31.3481 8.87263 32.7309 11.2181 32.3921H23.3009C34.5364 31.9269 32.1703 32.8912 32.4254 42.8094C22.8074 42.7881 13.1932 42.856 3.57515 42.7746C3.7331 39.8376 3.22846 36.7853 3.81365 33.906ZM22.6715 45.9683H2.27131C1.27705 46.1649 1.09857 45.2125 1.19492 44.4504C1.19492 44.2293 1.09778 43.2493 1.1112 43.239C1.52423 43.1869 2.02255 43.269 2.45374 43.239C2.61168 43.5399 3.19213 43.4933 3.44485 43.239H32.4665C32.6244 43.5407 33.208 43.4933 33.4592 43.239C34.0688 43.2287 34.6556 43.1482 34.8017 43.9687C34.8714 44.6363 34.843 45.3105 34.7172 45.9699L22.6715 45.9683Z" fill="#262626"/>
<path d="M10.7561 20.0897C10.0343 29.0499 9.61735 28.7222 17.9063 25.2308C26.3208 28.6156 26.1195 29.2355 25.2334 19.9618C31.026 12.9995 31.5299 13.9488 22.602 11.7652C17.686 3.98086 18.4054 3.86792 13.5028 11.7778C4.59548 13.9456 4.92637 13.197 10.7561 20.0897ZM7.78202 14.7417C7.44718 14.0001 7.97077 14.0475 8.43118 13.9298C10.2428 13.3928 12.1847 13.1456 13.9593 12.5178C15.2449 11.6325 15.7511 9.76955 16.7233 8.56127C17.0463 8.18457 17.6852 6.22763 18.238 7.08606C19.3436 8.69868 20.2779 10.4479 21.3922 12.0613C21.8265 12.705 22.6052 12.7105 23.3373 12.8977L27.4565 13.9504C27.8932 14.0617 28.5258 14.1525 28.2509 14.8191C27.1137 16.303 25.7822 17.7205 24.6087 19.2068C24.3709 19.4222 24.1858 19.6895 24.0678 19.9878C24.0733 21.9898 24.5534 24.0873 24.4626 26.109C24.4547 26.3009 24.5716 26.6089 24.3047 26.7234C23.5007 26.4694 22.7161 26.158 21.9568 25.7915C20.6056 25.3903 19.2852 24.449 17.9008 24.3621C16.1381 24.986 14.4118 25.7449 12.661 26.4154C12.2661 26.5733 11.7133 27.0164 11.5285 26.4154C11.5498 24.265 11.8696 22.0293 11.9281 19.8733C10.7885 18.0482 9.04953 16.4893 7.78202 14.7417ZM13.0211 36.1922H22.4978C22.7102 36.1922 23.1446 36.1085 23.2583 35.9C23.372 35.6915 23.1564 35.641 22.9685 35.641H14.6676C14.0493 35.7081 13.209 35.4372 12.7328 35.9332C12.6136 36.1535 12.8347 36.1922 13.0211 36.1922ZM21.1995 38.6332H14.8817C14.7388 38.6314 14.5994 38.6777 14.486 38.7647C14.3725 38.8516 14.2916 38.9742 14.2562 39.1126C14.2286 39.4167 14.5531 39.5177 14.7932 39.5177H20.3284C20.8093 39.4948 21.6006 39.6757 21.7365 39.0384C21.7641 38.7343 21.4395 38.6332 21.1995 38.6332Z" fill="#262626"/>
<path d="M15.0783 15.4493L18.2372 14.0958C18.4196 14.0168 18.6928 13.7799 18.5238 13.5651C18.3548 13.3503 17.9655 13.4229 17.7554 13.5129L14.5965 14.8673C13.836 15.259 14.5286 15.7479 15.0783 15.4493ZM20.1286 20.0724L16.9696 21.4268C16.7983 21.5002 16.5077 21.7293 16.6782 21.9362C16.8488 22.1431 17.2397 22.0641 17.4435 21.9764L20.2123 20.7918C21.1441 20.5723 21.2026 19.7162 20.1286 20.0724ZM14.6336 18.8412C13.7792 19.2084 14.6415 19.3822 15.0411 19.1468L22.1487 16.1009C22.26 16.0535 22.6225 15.9169 22.4819 15.7471C22.3587 15.5954 21.8691 15.74 21.7412 15.7952L14.6336 18.8412Z" fill="#262626"/>
</svg>
