<svg width="39" height="39" viewBox="0 0 39 39" fill="none" xmlns="http://www.w3.org/2000/svg">
<path d="M18.8823 4.58517C18.8198 4.58517 18.7586 4.56727 18.706 4.53357C18.6534 4.49987 18.6115 4.4518 18.5854 4.39504C18.5592 4.33828 18.5499 4.27522 18.5585 4.21333C18.5671 4.15143 18.5932 4.0933 18.6339 4.04581L19.3177 3.25149L18.3926 3.78562C18.3248 3.82492 18.2451 3.83854 18.1681 3.82399C18.091 3.80943 18.0218 3.76768 17.973 3.70634C17.9242 3.645 17.899 3.56816 17.9021 3.48982C17.9052 3.41149 17.9364 3.33688 17.9899 3.2796L18.8758 2.32772L18.3926 2.60623C18.3294 2.64192 18.256 2.65553 18.1842 2.6449C18.1123 2.63428 18.0461 2.60003 17.9958 2.54756C17.9456 2.49509 17.9143 2.42739 17.9068 2.35514C17.8994 2.2829 17.9162 2.21022 17.9546 2.14859L18.5005 1.30523C18.4238 1.32598 18.3423 1.3181 18.271 1.28309C18.1997 1.24807 18.1436 1.18831 18.1132 1.11496C18.0828 1.0416 18.0801 0.959685 18.1056 0.884497C18.1312 0.80931 18.1832 0.745998 18.2521 0.706387L19.3327 0.0794268C19.396 0.0437337 19.4693 0.0301243 19.5412 0.0407469C19.613 0.0513695 19.6793 0.0856191 19.7295 0.138089C19.7797 0.190559 19.8111 0.258261 19.8185 0.330507C19.826 0.402753 19.8092 0.475429 19.7708 0.537062L19.2379 1.3595L20.4291 0.672391C20.4969 0.633094 20.5765 0.619439 20.6535 0.633912C20.7305 0.648385 20.7997 0.690024 20.8486 0.751247C20.8974 0.812471 20.9227 0.889207 20.9197 0.967487C20.9168 1.04577 20.8858 1.12038 20.8325 1.17775L19.9492 2.12963L20.6416 1.73018C20.7083 1.69202 20.7864 1.67863 20.8621 1.69236C20.9378 1.70609 21.0062 1.74606 21.0553 1.80525C21.1044 1.86443 21.1311 1.93904 21.1306 2.01595C21.1302 2.09286 21.1026 2.16714 21.0528 2.22573L20.3722 3.02137L20.6494 2.86054C20.71 2.82557 20.7802 2.81094 20.8496 2.81881C20.9191 2.82668 20.9843 2.85662 21.0355 2.90425C21.0867 2.95188 21.1213 3.01467 21.1342 3.08341C21.147 3.15215 21.1375 3.2232 21.107 3.28614L20.9397 3.63263C20.9971 3.65522 21.047 3.6936 21.0835 3.74332C21.12 3.79305 21.1417 3.8521 21.1461 3.91364C21.1505 3.97518 21.1373 4.03671 21.1082 4.0911C21.0791 4.1455 21.0352 4.19054 20.9815 4.22102L20.4422 4.53221C20.3816 4.56719 20.3114 4.58181 20.2419 4.57394C20.1724 4.56608 20.1073 4.53613 20.0561 4.4885C20.0049 4.44088 19.9703 4.37808 19.9574 4.30935C19.9445 4.24061 19.954 4.16955 19.9845 4.10661L20.0558 3.95952L19.0451 4.54267C18.9955 4.5708 18.9393 4.58545 18.8823 4.58517ZM24.9754 32.5388C24.911 32.5389 24.8481 32.5201 24.7944 32.4846C24.7407 32.4491 24.6987 32.3985 24.6737 32.3392C24.6486 32.28 24.6416 32.2146 24.6535 32.1514C24.6654 32.0882 24.6958 32.0299 24.7407 31.9838L25.1127 31.6L24.8714 31.7393C24.8041 31.7777 24.7252 31.7909 24.649 31.7766C24.5728 31.7623 24.5042 31.7213 24.4554 31.661C24.4066 31.6008 24.3808 31.5251 24.3827 31.4476C24.3845 31.3701 24.4138 31.2957 24.4654 31.2378L25.0885 30.5461L24.5589 30.8521C24.5088 30.881 24.452 30.8961 24.3942 30.8959C24.3363 30.8957 24.2796 30.8801 24.2298 30.8508C24.1799 30.8215 24.1387 30.7795 24.1104 30.7291C24.0821 30.6786 24.0677 30.6216 24.0686 30.5638L24.0843 29.6381C24.0133 29.6356 23.9451 29.6101 23.8899 29.5653C23.8348 29.5206 23.7956 29.4592 23.7785 29.3903C23.7614 29.3214 23.7671 29.2487 23.7949 29.1834C23.8228 29.118 23.8711 29.0635 23.9326 29.0281L24.2595 28.8411C24.3093 28.8129 24.3657 28.798 24.4229 28.798C24.4802 28.798 24.5365 28.8129 24.5864 28.8411C24.6362 28.8705 24.6773 28.9125 24.7055 28.9629C24.7338 29.0133 24.7482 29.0703 24.7472 29.1281L24.7322 29.995L26.5529 28.9451C26.6203 28.9066 26.6991 28.8934 26.7753 28.9078C26.8515 28.9221 26.9201 28.963 26.9689 29.0233C27.0177 29.0836 27.0435 29.1592 27.0417 29.2368C27.0398 29.3143 27.0105 29.3886 26.9589 29.4465L26.3365 30.1375L26.8196 29.8584C26.888 29.8189 26.9683 29.8056 27.0458 29.8207C27.1233 29.8359 27.1926 29.8786 27.2411 29.9409C27.2895 30.0032 27.3138 30.0809 27.3094 30.1597C27.305 30.2385 27.2722 30.3131 27.2171 30.3696L26.8451 30.7527L27.0864 30.6141C27.1236 30.5905 27.1652 30.5746 27.2087 30.5674C27.2522 30.5603 27.2967 30.562 27.3395 30.5725C27.3823 30.583 27.4226 30.602 27.4579 30.6285C27.4931 30.6549 27.5227 30.6882 27.5447 30.7264C27.5668 30.7646 27.5809 30.8068 27.5862 30.8506C27.5916 30.8943 27.588 30.9387 27.5757 30.9811C27.5634 31.0234 27.5427 31.0628 27.5148 31.097C27.4868 31.1311 27.4523 31.1592 27.4133 31.1796L25.1362 32.495C25.0873 32.5234 25.0319 32.5385 24.9754 32.5388Z" fill="#6D3B2C"/>
<path d="M27.3919 38.3998C27.3328 38.3999 27.2747 38.3839 27.2238 38.3536C27.173 38.3232 27.1314 38.2796 27.1034 38.2275C27.0754 38.1753 27.0621 38.1166 27.0649 38.0575C27.0677 37.9983 27.0865 37.9411 27.1193 37.8918L27.9123 36.6961L26.8395 37.3159C26.7738 37.3537 26.697 37.3676 26.6222 37.3551C26.5475 37.3425 26.4794 37.3044 26.4296 37.2472C26.3798 37.19 26.3514 37.1172 26.3494 37.0413C26.3473 36.9654 26.3718 36.8912 26.4185 36.8314L27.2756 35.7311L26.4427 36.2116C26.3766 36.2498 26.2994 36.2637 26.2242 36.2508C26.149 36.238 26.0807 36.1993 26.031 36.1415C25.9814 36.0836 25.9535 36.0102 25.9523 35.9339C25.9511 35.8577 25.9765 35.7834 26.0243 35.7239L26.8349 34.7185L25.9066 35.2539C25.8399 35.2921 25.7618 35.3055 25.6862 35.2919C25.6105 35.2782 25.5421 35.2384 25.493 35.1793C25.4438 35.1202 25.417 35.0457 25.4173 34.9688C25.4176 34.8919 25.445 34.8177 25.4947 34.759L26.3446 33.7659L23.7635 35.2558C23.6939 35.2982 23.6109 35.313 23.5309 35.2973C23.4509 35.2817 23.3796 35.2367 23.3311 35.1712C23.2826 35.1057 23.2602 35.0244 23.2685 34.9433C23.2768 34.8622 23.3151 34.7872 23.3759 34.7328L25.1574 33.054L21.34 35.2585C21.2724 35.2973 21.1931 35.3107 21.1165 35.2962C21.0399 35.2817 20.971 35.2403 20.9222 35.1794C20.8734 35.1186 20.848 35.0423 20.8505 34.9644C20.8531 34.8864 20.8834 34.812 20.936 34.7544L21.8827 33.7267L19.2264 35.2604C19.1568 35.3009 19.0747 35.3142 18.9958 35.2978C18.917 35.2815 18.847 35.2366 18.7992 35.1718C18.7514 35.107 18.7292 35.0268 18.7369 34.9467C18.7445 34.8665 18.7815 34.792 18.8407 34.7374L19.5062 34.1222L17.5312 35.2624C17.4616 35.3055 17.3783 35.3208 17.2978 35.3054C17.2174 35.29 17.1456 35.245 17.0968 35.1793C17.048 35.1135 17.0256 35.0318 17.0342 34.9503C17.0427 34.8689 17.0815 34.7936 17.1429 34.7394L17.8731 34.0477L15.77 35.2617C15.7028 35.3006 15.624 35.3143 15.5476 35.3004C15.4713 35.2865 15.4024 35.2459 15.3532 35.1858C15.3041 35.1257 15.2779 35.0501 15.2794 34.9725C15.2809 34.8949 15.3099 34.8204 15.3614 34.7623L16.3289 33.6685L13.5648 35.2663C13.4901 35.3054 13.4032 35.3141 13.3222 35.2906C13.2413 35.2671 13.1725 35.2132 13.1303 35.1402C13.0881 35.0673 13.0758 34.9808 13.0958 34.8989C13.1159 34.817 13.1668 34.746 13.2379 34.7008L17.7378 32.1027C17.805 32.0639 17.8838 32.0501 17.9601 32.0641C18.0365 32.078 18.1054 32.1186 18.1546 32.1787C18.2037 32.2387 18.2299 32.3143 18.2284 32.3919C18.2269 32.4695 18.1978 32.5441 18.1464 32.6022L17.1795 33.6953L19.9469 32.0975C20.0165 32.0544 20.0998 32.0391 20.1803 32.0545C20.2607 32.0699 20.3324 32.1149 20.3813 32.1806C20.4301 32.2464 20.4525 32.3281 20.4439 32.4096C20.4354 32.491 20.3966 32.5663 20.3352 32.6205L19.6036 33.3135L21.712 32.0962C21.7817 32.0558 21.8638 32.0425 21.9426 32.0588C22.0215 32.0752 22.0915 32.1201 22.1393 32.1849C22.1871 32.2497 22.2093 32.3298 22.2016 32.41C22.1939 32.4901 22.157 32.5646 22.0978 32.6192L21.4335 33.2338L23.4105 32.0923C23.4781 32.0534 23.5574 32.0401 23.6341 32.0545C23.7107 32.069 23.7796 32.1104 23.8284 32.1713C23.8771 32.2321 23.9026 32.3084 23.9 32.3864C23.8975 32.4643 23.8672 32.5388 23.8145 32.5963L22.8679 33.6234L27.2533 31.092C27.323 31.0497 27.406 31.0349 27.486 31.0505C27.566 31.0662 27.6372 31.1112 27.6858 31.1767C27.7343 31.2422 27.7567 31.3234 27.7484 31.4045C27.7401 31.4856 27.7018 31.5607 27.641 31.615L25.8608 33.2906L27.6639 32.2505C27.7306 32.2123 27.8087 32.1989 27.8843 32.2125C27.9599 32.2261 28.0284 32.266 28.0775 32.3251C28.1267 32.3842 28.1535 32.4587 28.1532 32.5356C28.1528 32.6124 28.1254 32.6867 28.0758 32.7454L27.2259 33.7378L28.0248 33.2802C28.0908 33.242 28.1681 33.2282 28.2433 33.241C28.3184 33.2538 28.3868 33.2925 28.4364 33.3504C28.4861 33.4082 28.5139 33.4817 28.5152 33.5579C28.5164 33.6341 28.4909 33.7084 28.4432 33.7679L27.6325 34.7734L28.3968 34.3321C28.4625 34.2941 28.5394 34.2802 28.6142 34.2927C28.6891 34.3052 28.7573 34.3434 28.8071 34.4007C28.8569 34.4579 28.8852 34.5308 28.8871 34.6067C28.8891 34.6825 28.8646 34.7567 28.8178 34.8165L27.9614 35.9168L28.7877 35.4396C28.8515 35.4027 28.9259 35.3885 28.9988 35.3992C29.0717 35.4099 29.1388 35.445 29.1893 35.4986C29.2398 35.5523 29.2707 35.6214 29.2769 35.6948C29.2832 35.7683 29.2645 35.8416 29.2238 35.9031L28.4314 37.0988L29.1408 36.6896C29.2155 36.6505 29.3024 36.6418 29.3834 36.6653C29.4643 36.6887 29.5331 36.7426 29.5753 36.8156C29.6175 36.8886 29.6298 36.9751 29.6098 37.057C29.5897 37.1389 29.5388 37.2098 29.4676 37.2551L27.5554 38.3553C27.5059 38.3846 27.4494 38.3999 27.3919 38.3998Z" fill="#6D3B2C"/>
<path d="M10.3293 38.369C10.2647 38.369 10.2014 38.3498 10.1477 38.3139C10.0939 38.2779 10.052 38.2268 10.0273 38.167C10.0026 38.1073 9.9962 38.0415 10.0089 37.9781C10.0216 37.9146 10.0528 37.8564 10.0986 37.8107L10.9256 36.9824L9.92924 37.5577C9.8571 37.5994 9.77178 37.6119 9.69072 37.5927C9.60966 37.5736 9.53896 37.5242 9.49306 37.4547C9.44717 37.3852 9.42954 37.3008 9.44378 37.2187C9.45801 37.1367 9.50304 37.0631 9.56967 37.0131L11.6996 35.4186L10.1228 36.3293C10.0514 36.3698 9.96749 36.382 9.88759 36.3635C9.80768 36.345 9.73766 36.2971 9.69141 36.2294C9.64515 36.1617 9.62605 36.079 9.6379 35.9978C9.64974 35.9167 9.69166 35.8429 9.75534 35.7913L10.9275 34.8557L10.5699 35.0617C10.5003 35.1021 10.4182 35.1154 10.3394 35.099C10.2605 35.0827 10.1905 35.0378 10.1427 34.973C10.0949 34.9082 10.0727 34.828 10.0804 34.7479C10.088 34.6677 10.125 34.5932 10.1842 34.5386L12.1762 32.6839L11.2139 33.239C11.1425 33.2805 11.058 33.2934 10.9774 33.2752C10.8968 33.2569 10.8261 33.2088 10.7796 33.1405C10.733 33.0723 10.714 32.9889 10.7264 32.9072C10.7389 32.8256 10.7817 32.7516 10.8465 32.7003L11.4218 32.2426C11.3696 32.2409 11.3185 32.2277 11.272 32.2041C11.2254 32.1805 11.1846 32.147 11.1524 32.106C11.1051 32.0401 11.084 31.959 11.0932 31.8784C11.1024 31.7978 11.1412 31.7235 11.2021 31.6699L11.9448 31.0162C11.883 31.0365 11.8166 31.038 11.754 31.0204C11.6914 31.0028 11.6354 30.967 11.5933 30.9174C11.5512 30.8679 11.5248 30.8069 11.5175 30.7422C11.5103 30.6776 11.5225 30.6123 11.5525 30.5546L12.0586 29.5818C12.0347 29.5598 12.0144 29.5342 11.9984 29.506C11.9552 29.431 11.9435 29.342 11.9658 29.2585C11.9881 29.1749 12.0426 29.1036 12.1174 29.0601L12.5038 28.8365C12.565 28.801 12.6362 28.7863 12.7065 28.7947C12.7768 28.8031 12.8425 28.8342 12.8937 28.8831C12.9449 28.9321 12.9788 28.9963 12.9903 29.0662C13.0018 29.1361 12.9903 29.2078 12.9575 29.2706L12.6502 29.859L14.4513 28.8195C14.5216 28.7787 14.6046 28.7655 14.6841 28.7825C14.7636 28.7996 14.8338 28.8456 14.8812 28.9117C14.9286 28.9778 14.9496 29.0591 14.9403 29.1398C14.9309 29.2206 14.8918 29.295 14.8305 29.3484L14.1192 29.9728L14.6932 29.6413C14.7646 29.6006 14.8488 29.5883 14.9288 29.6068C15.0089 29.6253 15.0791 29.6733 15.1254 29.7413C15.1716 29.8092 15.1906 29.8921 15.1785 29.9734C15.1663 30.0547 15.124 30.1285 15.06 30.18L14.4951 30.6291C14.5472 30.6298 14.5986 30.6419 14.6456 30.6645C14.6925 30.6871 14.734 30.7196 14.7671 30.7599C14.8148 30.8244 14.8371 30.9043 14.8298 30.9842C14.8224 31.0642 14.7859 31.1386 14.7272 31.1933L12.7345 33.0487L14.3755 32.1138C14.4468 32.074 14.5304 32.0624 14.6099 32.0811C14.6893 32.0999 14.7589 32.1477 14.8049 32.2152C14.8509 32.2826 14.87 32.3649 14.8584 32.4457C14.8468 32.5265 14.8053 32.6001 14.7423 32.6519L13.5727 33.5848L16.1289 32.1093C16.201 32.0676 16.2863 32.0551 16.3674 32.0742C16.4485 32.0934 16.5192 32.1428 16.5651 32.2123C16.611 32.2818 16.6286 32.3662 16.6144 32.4482C16.6001 32.5303 16.5551 32.6039 16.4885 32.6538L13.0928 35.1931C13.1209 35.212 13.1456 35.2354 13.166 35.2624C13.2143 35.3253 13.2381 35.4036 13.2329 35.4827C13.2278 35.5619 13.194 35.6364 13.1379 35.6925L12.3018 36.5294C12.3787 36.4991 12.4642 36.4992 12.5411 36.5295C12.618 36.5598 12.6806 36.6181 12.7162 36.6927C12.7518 36.7673 12.7579 36.8526 12.7331 36.9314C12.7084 37.0103 12.6547 37.0769 12.5829 37.1177L10.4921 38.3246C10.4427 38.3534 10.3866 38.3687 10.3293 38.369Z" fill="#6D3B2C"/>
<path d="M11.0426 30.0674C10.9716 30.0676 10.9024 30.0446 10.8456 30.0019C10.7888 29.9592 10.7475 29.8992 10.7278 29.831C10.7082 29.7627 10.7113 29.6899 10.7367 29.6236C10.7621 29.5572 10.8085 29.501 10.8687 29.4633L22.8117 21.9856L8.88977 30.0217C8.81552 30.0635 8.72785 30.0747 8.64547 30.0528C8.56309 30.0309 8.49251 29.9778 8.44877 29.9046C8.40503 29.8314 8.3916 29.7441 8.41133 29.6612C8.43106 29.5783 8.48239 29.5063 8.55439 29.4607L19.4428 22.74L6.82715 30.0217C6.75298 30.0619 6.66614 30.0719 6.58479 30.0495C6.50343 30.0272 6.43386 29.9743 6.39063 29.9018C6.3474 29.8294 6.33385 29.743 6.35282 29.6608C6.37179 29.5786 6.42181 29.5069 6.49242 29.4607L17.9784 22.4001L4.78021 30.0217C4.706 30.0613 4.61934 30.0708 4.53829 30.0482C4.45723 30.0256 4.38802 29.9726 4.34506 29.9002C4.3021 29.8279 4.2887 29.7417 4.30765 29.6598C4.3266 29.5778 4.37644 29.5062 4.44679 29.4601L14.384 23.4101L2.92941 30.0217C2.85515 30.0635 2.76749 30.0747 2.68511 30.0528C2.60273 30.0309 2.53214 29.9778 2.4884 29.9046C2.44467 29.8314 2.43123 29.7441 2.45096 29.6612C2.47069 29.5783 2.52203 29.5063 2.59403 29.4607L19.7475 18.8599L1.09887 29.6294C1.0247 29.6696 0.937862 29.6796 0.856506 29.6573C0.77515 29.6349 0.705581 29.582 0.662349 29.5095C0.619116 29.4371 0.605569 29.3507 0.624541 29.2685C0.643512 29.1863 0.693533 29.1146 0.764141 29.0685L17.9385 18.5154L0.73799 28.4428C0.663585 28.4827 0.576644 28.4922 0.49537 28.4694C0.414096 28.4466 0.344789 28.3933 0.301958 28.3205C0.259128 28.2478 0.246094 28.1613 0.265586 28.0792C0.285078 27.9971 0.335585 27.9257 0.406532 27.8799L3.18699 26.2148L0.73799 27.6282C0.663635 27.6687 0.576494 27.6787 0.494903 27.6562C0.413311 27.6337 0.34363 27.5804 0.30052 27.5076C0.25741 27.4347 0.244233 27.348 0.263762 27.2656C0.28329 27.1833 0.334001 27.1117 0.405225 27.066L9.33956 21.6744L0.73799 26.6404C0.66326 26.6843 0.574129 26.6968 0.490206 26.675C0.406284 26.6533 0.334443 26.5991 0.290489 26.5243C0.246535 26.4496 0.234068 26.3605 0.25583 26.2766C0.277592 26.1926 0.331801 26.1208 0.406532 26.0768L4.07807 23.8763L0.73799 25.8029C0.663635 25.8433 0.576494 25.8534 0.494903 25.8309C0.413311 25.8084 0.34363 25.7551 0.30052 25.6822C0.25741 25.6094 0.244233 25.5227 0.263762 25.4403C0.28329 25.358 0.334001 25.2864 0.405225 25.2407L8.3648 20.4329L0.73799 24.836C0.663519 24.8784 0.575359 24.8899 0.492499 24.868C0.40964 24.8461 0.33871 24.7924 0.29499 24.7187C0.251269 24.645 0.238255 24.5571 0.258752 24.4738C0.279248 24.3906 0.331614 24.3188 0.404571 24.2738L13.0948 16.5012L0.73799 23.635C0.663433 23.6793 0.574331 23.6922 0.490286 23.6708C0.40624 23.6494 0.334136 23.5955 0.289835 23.521C0.245534 23.4464 0.232666 23.3573 0.25406 23.2732C0.275455 23.1892 0.32936 23.1171 0.403917 23.0728L11.3309 16.3763L0.73799 22.4923C0.663685 22.5333 0.576309 22.5439 0.494357 22.5217C0.412404 22.4995 0.342306 22.4463 0.298897 22.3733C0.255488 22.3003 0.242175 22.2133 0.261776 22.1307C0.281377 22.0481 0.332354 21.9764 0.403917 21.9307L9.59715 16.2926L0.73799 21.409C0.663773 21.4518 0.57572 21.4637 0.492782 21.4422C0.409844 21.4208 0.33865 21.3676 0.294522 21.2942C0.250393 21.2207 0.236858 21.1329 0.256828 21.0496C0.276798 20.9663 0.328678 20.8941 0.401302 20.8487L13.4629 12.6407L0.73799 19.9877C0.664649 20.0236 0.580501 20.0308 0.502116 20.0079C0.423731 19.9849 0.35679 19.9334 0.314475 19.8635C0.27216 19.7937 0.257537 19.7105 0.273486 19.6304C0.289435 19.5502 0.3348 19.479 0.400648 19.4307L11.7814 12.2478L0.73799 18.6239C0.664113 18.6652 0.577098 18.6763 0.495252 18.6547C0.413407 18.6331 0.343112 18.5807 0.299157 18.5084C0.255202 18.436 0.241013 18.3495 0.259576 18.2669C0.278139 18.1843 0.328007 18.1122 0.398687 18.0656L11.5781 10.8932L0.73799 17.1517C0.664017 17.195 0.575972 17.2076 0.492831 17.1866C0.409691 17.1656 0.338111 17.1129 0.29352 17.0396C0.248929 16.9664 0.234896 16.8786 0.254445 16.7951C0.273995 16.7116 0.325562 16.6392 0.398033 16.5933L9.71809 10.5852L0.73799 15.7696C0.664345 15.8115 0.577321 15.8231 0.495259 15.8021C0.413198 15.781 0.34251 15.729 0.298092 15.6568C0.253674 15.5847 0.238996 15.4981 0.257152 15.4154C0.275308 15.3326 0.324879 15.2602 0.395418 15.2132L8.91919 9.61768L0.73799 14.3424C0.664254 14.3866 0.576093 14.3999 0.492593 14.3796C0.409093 14.3592 0.336973 14.3068 0.291846 14.2336C0.24672 14.1605 0.232218 14.0725 0.25148 13.9887C0.270742 13.905 0.322218 13.8322 0.394764 13.7861L7.02262 9.41566L0.73799 13.0441C0.664746 13.0866 0.577864 13.099 0.495642 13.0787C0.41342 13.0584 0.342276 13.007 0.297195 12.9353C0.252114 12.8637 0.236614 12.7773 0.25396 12.6944C0.271306 12.6115 0.320144 12.5386 0.390188 12.491L6.7317 8.1454L0.73799 11.6058C0.664859 11.6476 0.578412 11.6595 0.496678 11.6392C0.414944 11.6188 0.344234 11.5676 0.299293 11.4964C0.254352 11.4251 0.238651 11.3393 0.255464 11.2567C0.272277 11.1742 0.320306 11.1013 0.389534 11.0533L4.65404 8.12906L0.73799 10.3898C0.665287 10.4312 0.579445 10.4432 0.498155 10.4233C0.416864 10.4034 0.346319 10.353 0.301058 10.2826C0.255796 10.2122 0.239267 10.1271 0.254877 10.0449C0.270486 9.96264 0.317045 9.88953 0.384958 9.84061L3.91528 7.32231L0.73799 9.15743C0.666693 9.19722 0.583086 9.20888 0.503619 9.19013C0.424153 9.17138 0.354581 9.12357 0.308593 9.0561C0.262605 8.98863 0.24353 8.9064 0.255122 8.82558C0.266713 8.74476 0.308132 8.6712 0.371229 8.61938L3.54198 6.088L0.73799 7.70738C0.666389 7.74948 0.581447 7.76274 0.50042 7.74447C0.419393 7.7262 0.348359 7.67778 0.301749 7.60903C0.255138 7.54028 0.236448 7.45636 0.249475 7.37433C0.262501 7.29229 0.306268 7.2183 0.371883 7.16737L1.6598 6.1475L0.73799 6.68228C0.666727 6.72331 0.582617 6.73597 0.50243 6.71774C0.422244 6.69952 0.351874 6.65174 0.30535 6.58393C0.258826 6.51612 0.239568 6.43327 0.251414 6.3519C0.263261 6.27053 0.305342 6.19661 0.369268 6.14488L0.639926 5.92391C0.576837 5.93692 0.51131 5.93101 0.451573 5.9069C0.391837 5.8828 0.340553 5.84158 0.304163 5.78843C0.267773 5.73527 0.247899 5.67255 0.247036 5.60814C0.246174 5.54373 0.264361 5.4805 0.299315 5.42639L0.850438 4.56996C0.773712 4.5919 0.691612 4.585 0.619616 4.55059C0.54762 4.51617 0.4907 4.45661 0.459586 4.38312C0.428472 4.30964 0.425313 4.22731 0.450705 4.15166C0.476096 4.07601 0.528284 4.01226 0.597431 3.97242L1.68072 3.34808C1.74398 3.31208 1.81745 3.29823 1.88948 3.30872C1.96151 3.31921 2.02798 3.35344 2.07835 3.40599C2.12872 3.45854 2.16011 3.52639 2.16754 3.5988C2.17498 3.67121 2.15803 3.74403 2.11939 3.80571L1.57938 4.6458L3.83029 3.34808C3.90145 3.30798 3.98504 3.29598 4.06461 3.31443C4.14417 3.33288 4.21395 3.38045 4.2602 3.44777C4.30644 3.51509 4.32581 3.59729 4.31449 3.67818C4.30317 3.75906 4.26197 3.83278 4.19902 3.88482L4.01204 4.03649L5.20451 3.34808C5.27602 3.30628 5.36074 3.29319 5.44153 3.31146C5.52233 3.32973 5.59318 3.37799 5.63975 3.44649C5.68633 3.51498 5.70517 3.59861 5.69246 3.68046C5.67974 3.76232 5.63643 3.83629 5.57127 3.88743L4.28139 4.90665L6.98405 3.34808C7.05538 3.30758 7.13932 3.29537 7.21922 3.31388C7.29912 3.33239 7.36915 3.38026 7.4154 3.448C7.46166 3.51573 7.48076 3.59837 7.46891 3.67953C7.45707 3.76069 7.41515 3.83443 7.35147 3.88613L4.18006 6.41554L9.49647 3.34808C9.56917 3.30661 9.65501 3.2946 9.7363 3.31454C9.81759 3.33448 9.88814 3.38484 9.9334 3.45525C9.97866 3.52566 9.99519 3.61074 9.97958 3.69297C9.96397 3.77521 9.91741 3.84832 9.8495 3.89724L6.31917 6.41489L11.6297 3.34808C11.7029 3.30471 11.7901 3.29158 11.8728 3.31148C11.9555 3.33138 12.0272 3.38275 12.0727 3.45466C12.1181 3.52658 12.1337 3.61338 12.1162 3.69663C12.0987 3.77988 12.0494 3.85302 11.9788 3.90051L7.713 6.82545L13.7361 3.34808C13.8092 3.30744 13.8951 3.29635 13.9761 3.31709C14.0571 3.33783 14.1271 3.38883 14.1716 3.4596C14.2162 3.53036 14.2319 3.61551 14.2156 3.69752C14.1993 3.77953 14.1522 3.85218 14.0839 3.90051L7.74242 8.24673L16.2276 3.34808C16.3011 3.30695 16.3877 3.2958 16.4693 3.31695C16.5508 3.3381 16.621 3.38992 16.6653 3.46159C16.7096 3.53327 16.7245 3.61927 16.7069 3.70165C16.6893 3.78404 16.6405 3.85645 16.5708 3.90378L9.94299 8.27223L18.4759 3.34808C18.5497 3.30392 18.6378 3.29058 18.7213 3.31095C18.8048 3.33131 18.8769 3.38374 18.9221 3.45689C18.9672 3.53004 18.9817 3.61802 18.9624 3.70178C18.9432 3.78554 18.8917 3.85834 18.8191 3.90443L10.296 9.49804L20.9524 3.34808C21.0262 3.30605 21.1135 3.29442 21.1957 3.31564C21.278 3.33687 21.3488 3.38928 21.393 3.46177C21.4373 3.53427 21.4516 3.62116 21.433 3.70403C21.4143 3.7869 21.3641 3.85925 21.293 3.90574L11.971 9.91122L23.3419 3.34808C23.4159 3.30473 23.5039 3.29218 23.587 3.31313C23.6702 3.33408 23.7418 3.38686 23.7864 3.4601C23.8309 3.53333 23.845 3.62115 23.8254 3.70463C23.8059 3.78811 23.7543 3.86057 23.6818 3.90639L12.5025 11.0782L25.8922 3.34808C25.9663 3.30658 26.0536 3.29552 26.1357 3.31725C26.2177 3.33898 26.2881 3.39178 26.3319 3.46449C26.3758 3.5372 26.3896 3.62411 26.3705 3.70683C26.3514 3.78955 26.3008 3.86158 26.2296 3.9077L14.8475 11.0867L28.2543 3.34808C28.3283 3.30658 28.4156 3.29552 28.4977 3.31725C28.5798 3.33898 28.6502 3.39178 28.694 3.46449C28.7378 3.5372 28.7517 3.62411 28.7325 3.70683C28.7134 3.78955 28.6629 3.86158 28.5916 3.9077L15.5261 12.1151L30.717 3.34808C30.7913 3.307 30.8787 3.29644 30.9606 3.31864C31.0426 3.34084 31.1127 3.39406 31.1561 3.46703C31.1995 3.54 31.2128 3.627 31.1932 3.70961C31.1736 3.79222 31.1226 3.86397 31.0511 3.90966L21.8598 9.54511L32.5933 3.34808C32.6678 3.30369 32.7568 3.2907 32.8409 3.31198C32.9249 3.33325 32.9971 3.38704 33.0415 3.46151C33.0858 3.53598 33.0988 3.62503 33.0776 3.70908C33.0563 3.79312 33.0025 3.86527 32.928 3.90966L22.003 10.6049L34.5722 3.34808C34.6465 3.307 34.7339 3.29644 34.8159 3.31864C34.8978 3.34084 34.9679 3.39406 35.0113 3.46703C35.0547 3.54 35.0681 3.627 35.0485 3.70961C35.0289 3.79222 34.9779 3.86397 34.9063 3.90966L22.2096 11.6895L36.6532 3.34808C36.7278 3.30395 36.8169 3.29128 36.9009 3.31286C36.9849 3.33444 37.0569 3.3885 37.101 3.46314C37.1451 3.53778 37.1578 3.6269 37.1362 3.71089C37.1146 3.79487 37.0606 3.86684 36.9859 3.91097L29.0355 8.70894L37.8195 3.64096C37.8942 3.59701 37.9833 3.58454 38.0673 3.60631C38.1088 3.61708 38.1479 3.63594 38.1821 3.66179C38.2164 3.68765 38.2452 3.72 38.267 3.75701C38.2888 3.79401 38.303 3.83494 38.309 3.87745C38.3149 3.91997 38.3124 3.96324 38.3016 4.00479C38.2909 4.04635 38.272 4.08537 38.2462 4.11964C38.2203 4.15391 38.188 4.18275 38.1509 4.20451L34.4853 6.40312L38.2314 4.24047C38.2683 4.21862 38.3092 4.20426 38.3517 4.19822C38.3942 4.19218 38.4375 4.19456 38.4791 4.20525C38.5207 4.21593 38.5598 4.2347 38.5941 4.26049C38.6284 4.28627 38.6573 4.31857 38.6792 4.35553C38.701 4.39249 38.7154 4.43339 38.7214 4.4759C38.7275 4.51841 38.7251 4.56169 38.7144 4.60327C38.7037 4.64486 38.685 4.68393 38.6592 4.71826C38.6334 4.75259 38.6011 4.78151 38.5641 4.80336L29.6272 10.1949L38.2902 5.193C38.3649 5.14905 38.4541 5.13658 38.538 5.15834C38.5795 5.16912 38.6186 5.18797 38.6528 5.21383C38.6871 5.23969 38.7159 5.27204 38.7377 5.30904C38.7595 5.34605 38.7737 5.38697 38.7797 5.42949C38.7856 5.472 38.7831 5.51527 38.7724 5.55683C38.7616 5.59838 38.7427 5.63741 38.7169 5.67167C38.691 5.70594 38.6587 5.73478 38.6217 5.75655L35.8268 7.43018L38.2902 6.00759C38.3645 5.96651 38.4519 5.95595 38.5338 5.97815C38.6158 6.00035 38.6859 6.05357 38.7293 6.12654C38.7727 6.19951 38.786 6.28651 38.7664 6.36912C38.7468 6.45174 38.6958 6.52348 38.6243 6.56917L21.4525 17.1209L38.2902 7.40142C38.3647 7.35703 38.4537 7.34404 38.5378 7.36531C38.6218 7.38659 38.694 7.44037 38.7384 7.51484C38.7827 7.58931 38.7957 7.67837 38.7745 7.76241C38.7532 7.84646 38.6994 7.91861 38.6249 7.963L21.4649 18.5671L38.2902 8.85343C38.3646 8.81299 38.4517 8.80297 38.5333 8.82548C38.6149 8.84798 38.6846 8.90126 38.7277 8.9741C38.7708 9.04694 38.784 9.13366 38.7644 9.21601C38.7449 9.29837 38.6942 9.36994 38.623 9.41566L28.6982 15.4597L38.2902 9.92168C38.3645 9.88059 38.4519 9.87004 38.5338 9.89224C38.6158 9.91444 38.6859 9.96766 38.7293 10.0406C38.7727 10.1136 38.786 10.2006 38.7664 10.2832C38.7468 10.3658 38.6958 10.4376 38.6243 10.4833L27.1324 17.5439L38.2902 11.1037C38.3644 11.0635 38.4512 11.0535 38.5326 11.0758C38.6139 11.0982 38.6835 11.1511 38.7267 11.2235C38.77 11.296 38.7835 11.3823 38.7645 11.4645C38.7456 11.5467 38.6955 11.6184 38.6249 11.6646L27.7411 18.3847L38.2902 12.2942C38.3644 12.2514 38.4525 12.2394 38.5354 12.2609C38.6183 12.2824 38.6895 12.3356 38.7337 12.409C38.7778 12.4824 38.7913 12.5702 38.7714 12.6536C38.7514 12.7369 38.6995 12.809 38.6269 12.8545L26.6859 20.3316L38.2902 13.6318C38.3644 13.5916 38.4512 13.5816 38.5326 13.6039C38.6139 13.6263 38.6835 13.6792 38.7267 13.7516C38.77 13.8241 38.7835 13.9104 38.7645 13.9926C38.7456 14.0749 38.6955 14.1465 38.6249 14.1927L32.4527 17.9924L38.2902 14.6222C38.3643 14.5807 38.4516 14.5697 38.5336 14.5914C38.6157 14.6131 38.6861 14.6659 38.7299 14.7387C38.7738 14.8114 38.7876 14.8983 38.7685 14.981C38.7494 15.0637 38.6988 15.1357 38.6275 15.1819L29.0872 21.2096L38.2902 15.8958C38.3645 15.8539 38.4521 15.8428 38.5345 15.8646C38.6169 15.8865 38.6875 15.9397 38.7312 16.0128C38.7749 16.086 38.7884 16.1733 38.7686 16.2562C38.7489 16.3392 38.6976 16.4111 38.6256 16.4567L34.5945 18.9547L38.2902 16.8208C38.3639 16.7797 38.4507 16.7686 38.5323 16.79C38.614 16.8113 38.6843 16.8635 38.7284 16.9354C38.7725 17.0074 38.787 17.0937 38.769 17.1761C38.7509 17.2586 38.7016 17.3309 38.6315 17.3779L29.5003 23.3186L38.2902 18.2447C38.3643 18.2039 38.4514 18.1934 38.5331 18.2155C38.6147 18.2375 38.6847 18.2904 38.7282 18.3629C38.7717 18.4355 38.7854 18.5221 38.7664 18.6046C38.7474 18.687 38.6971 18.7589 38.6262 18.805L36.9761 19.834L38.2902 19.0757C38.3637 19.0346 38.4503 19.0234 38.5318 19.0446C38.6134 19.0657 38.6836 19.1175 38.7279 19.1892C38.7721 19.2609 38.787 19.3469 38.7694 19.4293C38.7518 19.5116 38.7031 19.584 38.6334 19.6314L31.9788 24.0273L38.2902 20.3839C38.3637 20.3421 38.4505 20.3304 38.5324 20.3512C38.6143 20.372 38.685 20.4238 38.7295 20.4956C38.7741 20.5674 38.7891 20.6537 38.7715 20.7364C38.7538 20.819 38.7048 20.8916 38.6347 20.9389L33.4393 24.4071L38.2935 21.6044C38.3672 21.5615 38.4549 21.5492 38.5376 21.57C38.6204 21.5909 38.6917 21.6433 38.7364 21.716C38.781 21.7887 38.7955 21.8761 38.7766 21.9593C38.7577 22.0425 38.707 22.1151 38.6354 22.1614L36.6636 23.4481L38.2935 22.5066C38.3671 22.4648 38.4541 22.4531 38.5362 22.4742C38.6183 22.4952 38.6889 22.5473 38.7334 22.6194C38.7778 22.6915 38.7925 22.7781 38.7743 22.8609C38.7561 22.9436 38.7066 23.0161 38.636 23.063L37.728 23.6579L38.2935 23.331C38.366 23.2887 38.4519 23.276 38.5336 23.2953C38.6152 23.3147 38.6863 23.3647 38.7321 23.435C38.7779 23.5053 38.7949 23.5906 38.7796 23.6731C38.7642 23.7556 38.7178 23.829 38.6498 23.8782L35.2123 26.3835L38.2935 24.6046C38.3646 24.5632 38.4487 24.5502 38.529 24.5681C38.6093 24.586 38.6799 24.6336 38.7267 24.7012C38.7734 24.7689 38.793 24.8517 38.7814 24.9332C38.7698 25.0146 38.728 25.0887 38.6642 25.1406L35.834 27.4589L38.2902 26.0415C38.3597 26.0051 38.4399 25.9949 38.5163 26.0128C38.5927 26.0306 38.6601 26.0754 38.7062 26.1388C38.7524 26.2022 38.7742 26.2801 38.7676 26.3583C38.7611 26.4364 38.7267 26.5096 38.6707 26.5645L37.2219 27.8551L38.2902 27.2379C38.3551 27.2003 38.431 27.1862 38.5051 27.198C38.5792 27.2097 38.647 27.2466 38.6971 27.3024C38.7473 27.3582 38.7767 27.4295 38.7804 27.5045C38.7842 27.5794 38.7621 27.6533 38.7178 27.7139L38.0117 28.6821L38.2287 28.5572C38.2659 28.5336 38.3076 28.5177 38.3511 28.5105C38.3946 28.5034 38.4391 28.5051 38.4819 28.5156C38.5247 28.5261 38.565 28.5451 38.6002 28.5716C38.6355 28.598 38.6651 28.6313 38.6871 28.6695C38.7092 28.7077 38.7233 28.7499 38.7286 28.7937C38.7339 28.8374 38.7303 28.8818 38.718 28.9242C38.7058 28.9665 38.685 29.0059 38.6571 29.04C38.6292 29.0742 38.5947 29.1023 38.5556 29.1227L37.0016 30.0217C36.9368 30.059 36.8611 30.0729 36.7872 30.0611C36.7133 30.0493 36.6457 30.0125 36.5957 29.9569C36.5456 29.9013 36.5162 29.8302 36.5123 29.7555C36.5083 29.6807 36.5301 29.6069 36.5741 29.5464L37.2801 28.5775L34.7788 30.0217C34.7094 30.0581 34.6291 30.0683 34.5527 30.0504C34.4764 30.0325 34.409 29.9878 34.3628 29.9244C34.3167 29.861 34.2949 29.7831 34.3014 29.7049C34.3079 29.6268 34.3423 29.5535 34.3983 29.4986L35.8464 28.2081L32.6999 30.0217C32.6288 30.0621 32.5453 30.0744 32.4656 30.0563C32.3859 30.0381 32.3159 29.9908 32.2694 29.9236C32.2229 29.8564 32.2032 29.7743 32.2143 29.6933C32.2254 29.6123 32.2663 29.5385 32.3292 29.4862L35.1567 27.168L30.2123 30.0217C30.1398 30.0639 30.0538 30.0767 29.9722 30.0574C29.8905 30.038 29.8194 29.988 29.7736 29.9177C29.7279 29.8473 29.7109 29.7621 29.7262 29.6796C29.7415 29.5971 29.788 29.5236 29.856 29.4745L33.2928 26.9699L28.0065 30.0217C27.933 30.0616 27.847 30.0719 27.7662 30.0504C27.6854 30.0289 27.6159 29.9773 27.572 29.9061C27.5281 29.8349 27.5132 29.7496 27.5303 29.6677C27.5474 29.5858 27.5952 29.5136 27.6639 29.466L28.572 28.871L26.578 30.0217C26.5044 30.0635 26.4173 30.0752 26.3353 30.0541C26.2532 30.0331 26.1825 29.981 26.1381 29.9089C26.0937 29.8367 26.079 29.7502 26.0972 29.6674C26.1153 29.5847 26.1649 29.5122 26.2354 29.4653L28.2092 28.1813L25.0155 30.0217C24.9422 30.0617 24.8564 30.0721 24.7756 30.0509C24.6949 30.0296 24.6253 29.9782 24.5812 29.9073C24.5372 29.8364 24.5219 29.7512 24.5386 29.6694C24.5553 29.5876 24.6026 29.5153 24.671 29.4673L29.8704 25.9984L22.9012 30.0217C22.8278 30.0622 22.7417 30.0729 22.6605 30.0517C22.5794 30.0305 22.5096 29.9789 22.4654 29.9076C22.4212 29.8364 22.4061 29.7508 22.4233 29.6687C22.4404 29.5867 22.4884 29.5143 22.5574 29.4666L29.2127 25.07L20.6353 30.0217C20.5613 30.0617 20.4747 30.0717 20.3936 30.0496C20.3124 30.0274 20.2429 29.9748 20.1995 29.9027C20.1561 29.8307 20.1422 29.7446 20.1607 29.6625C20.1791 29.5804 20.2285 29.5086 20.2986 29.462L21.9533 28.4297L19.1957 30.0217C19.1221 30.0622 19.0358 30.0728 18.9546 30.0514C18.8734 30.0299 18.8035 29.978 18.7595 29.9065C18.7155 29.8349 18.7008 29.7492 18.7184 29.667C18.7359 29.5849 18.7844 29.5126 18.8538 29.4653L27.983 23.5252L16.7297 30.0217C16.6557 30.0612 16.5693 30.0707 16.4884 30.0483C16.4075 30.0259 16.3383 29.9732 16.2952 29.9012C16.2521 29.8292 16.2384 29.7434 16.2568 29.6615C16.2753 29.5796 16.3245 29.5079 16.3943 29.4614L20.4202 26.9666L15.128 30.0217C15.0541 30.0623 14.9673 30.0728 14.8858 30.0509C14.8043 30.0291 14.7344 29.9766 14.6908 29.9044C14.6471 29.8322 14.6331 29.7459 14.6515 29.6636C14.67 29.5812 14.7197 29.5093 14.79 29.4627L24.3349 23.4369L12.9268 30.0217C12.8525 30.0635 12.7648 30.0747 12.6825 30.0528C12.6001 30.0309 12.5295 29.9778 12.4858 29.9046C12.442 29.8314 12.4286 29.7441 12.4483 29.6612C12.4681 29.5783 12.5194 29.5063 12.5914 29.4607L18.7636 25.6591L11.2061 30.0217C11.1566 30.051 11.1002 30.0668 11.0426 30.0674Z" fill="#DFE2F2"/>
<path d="M36.2981 3.25664H21.3008C22.137 -1.14646 16.9703 -1.02421 17.7273 3.25664C12.5136 3.28541 7.29521 3.17427 2.0821 3.25664C0.595437 3.20173 -0.172736 4.53017 0.0750405 5.89262C0.298628 13.6776 -0.365597 21.6536 0.320202 29.3497C3.42558 31.1802 7.96924 29.6229 11.5604 30.1133C10.8236 32.1805 10.0489 34.2398 9.36699 36.324C9.24011 36.663 9.22437 37.0336 9.32205 37.3821C9.41972 37.7307 9.62574 38.0391 9.9103 38.2628C10.1949 38.4865 10.5432 38.6139 10.905 38.6265C11.2667 38.6392 11.6231 38.5364 11.9226 38.333C12.8378 37.795 13.1346 36.3587 13.4524 35.3368H25.5287C25.8373 36.3175 26.1302 37.8336 27.0003 38.3585C27.3174 38.5478 27.6845 38.6365 28.053 38.6129C28.4216 38.5893 28.7743 38.4544 29.0647 38.2262C29.355 37.9979 29.5693 37.687 29.6793 37.3345C29.7893 36.9819 29.7898 36.6043 29.6807 36.2515C29.0159 34.1888 28.2425 32.1543 27.5142 30.112H37.1245C39.2878 29.9374 38.955 27.8375 38.955 26.2946C38.9008 19.1948 39.0793 12.087 38.955 4.98846C38.9126 3.35994 37.539 3.25664 36.2981 3.25664ZM18.7949 1.11883C18.8552 0.968517 18.966 0.843914 19.1082 0.766472C19.2505 0.68903 19.4152 0.663593 19.5742 0.69454C20.6771 1.01292 20.2724 2.39433 20.345 3.25664H18.6857C18.7387 2.56692 18.5491 1.76933 18.7949 1.11883ZM28.3673 35.4676C29.0616 36.4378 28.8622 38.9051 27.354 37.425C26.9454 36.6085 26.6279 35.7495 26.4074 34.8635C22.2233 34.2385 17.4959 34.8498 13.1359 34.6425C12.1553 34.9479 12.3449 36.5587 11.7911 37.3347C11.3374 38.337 10.194 37.7793 10.1803 36.8921C10.7955 34.5974 11.7696 32.3812 12.507 30.1133H14.3546C14.3042 30.8403 13.1013 32.2981 13.84 32.6754H23.4739C26.2439 32.9408 25.4019 32.068 24.7331 30.1133H26.4753L28.3673 35.4676ZM23.6982 30.1133L24.3898 32.0746H14.5834L15.2751 30.1133H23.6982ZM37.2082 29.4072H4.74945C1.2322 29.8138 0.634009 29.1764 1.03542 25.6154C1.08968 18.7463 0.911859 11.8693 1.03542 5.00219C1.07007 3.6829 2.4129 3.96271 3.33928 3.96271C14.5187 4.00912 25.698 3.88491 36.8774 3.96271C39.1884 4.22421 37.5135 11.3424 37.9953 13.3298C37.5174 16.1279 39.0512 28.7319 37.2062 29.4072H37.2082Z" fill="#262626"/>
<path d="M6.50393 20.9658C6.59545 21.0598 6.64121 21.1538 6.67172 21.2792C6.68697 21.4202 6.65646 21.5456 6.5802 21.6709C6.51918 21.7806 6.42766 21.859 6.29037 21.8903C6.25987 21.906 6.1836 21.9217 6.07682 21.9217C5.95479 21.9373 5.83276 21.953 5.71073 21.953C5.5887 21.9687 5.46667 21.9687 5.37515 21.9687C5.26837 21.9843 5.20735 21.9843 5.17685 21.9843C5.11583 22 5.03956 22 4.97855 22C4.90228 22 4.84126 22 4.74974 22C4.65822 21.9843 4.55144 21.9843 4.44466 21.9687C4.33789 21.953 4.21586 21.9373 4.09383 21.9217C3.83451 21.8746 3.5752 21.7963 3.34639 21.6866C3.10233 21.5769 2.87352 21.3732 2.65997 21.1068C2.53794 20.9501 2.43116 20.7778 2.35489 20.6054C2.27863 20.433 2.23286 20.2607 2.1871 20.0883C2.1566 19.9003 2.12609 19.7279 2.11083 19.5556C2.11083 19.3832 2.09558 19.2108 2.09558 19.0385C2.09558 18.7094 2.09558 18.3803 2.08033 18.0356C2.06507 17.6909 2.04982 17.3148 2.03456 16.9074C2.01931 16.5313 2.00406 16.1396 2.00406 15.7635C1.9888 15.3718 2.01931 14.9957 2.04982 14.6197C2.09558 14.2436 2.17185 13.8675 2.26337 13.4915C2.37015 13.1311 2.50743 12.7707 2.70573 12.4259C2.84302 12.1595 3.02606 11.9088 3.23961 11.6581C3.46842 11.4231 3.75824 11.235 4.15484 11.141C4.27687 11.1097 4.3989 11.094 4.50568 11.0627C4.61246 11.047 4.73449 11.047 4.84126 11.0313C4.96329 11.0313 5.08532 11.0313 5.22261 11.047C5.34464 11.0627 5.51243 11.0783 5.69548 11.1097C5.86327 11.1254 5.9853 11.2037 6.07682 11.3291C6.15309 11.4544 6.1836 11.5954 6.16834 11.7208C6.15309 11.8618 6.09207 11.9872 5.9853 12.0655C5.89377 12.1595 5.75649 12.1909 5.60395 12.1752C5.54294 12.1595 5.49718 12.1595 5.46667 12.1439C5.43616 12.1439 5.40565 12.1439 5.37515 12.1282C5.34464 12.1282 5.31413 12.1282 5.28362 12.1125C5.25312 12.1125 5.20735 12.1125 5.14634 12.1125C4.9938 12.0969 4.87177 12.0969 4.74974 12.1125C4.62771 12.1282 4.52093 12.1595 4.41416 12.1752C4.15484 12.2692 3.95654 12.4103 3.81926 12.6296C3.68197 12.849 3.55994 13.084 3.46842 13.3191C3.36165 13.6011 3.27012 13.8989 3.22436 14.1966C3.16335 14.4943 3.11758 14.8077 3.10233 15.1054C3.08708 15.4031 3.07182 15.7165 3.08708 16.0142C3.08708 16.312 3.10233 16.6097 3.11758 16.8917V17.1424C3.13284 17.3932 3.14809 17.6595 3.16335 17.9103C3.1786 18.1766 3.1786 18.4274 3.1786 18.6937L3.16335 18.8661C3.16335 19.1325 3.1786 19.3832 3.19385 19.6339C3.20911 19.9003 3.28538 20.1197 3.40741 20.3077C3.52944 20.5114 3.68197 20.6524 3.81926 20.7308C3.9718 20.7934 4.15484 20.8561 4.3684 20.8875C4.53619 20.9188 4.68873 20.9188 4.84126 20.9188C4.9938 20.9188 5.14634 20.9188 5.32938 20.9031C5.34464 20.9031 5.40565 20.9031 5.48192 20.8875C5.57345 20.8875 5.66497 20.8718 5.77174 20.8718C5.86327 20.8561 5.95479 20.8561 6.03106 20.8405C6.10733 20.8405 6.16834 20.8405 6.1836 20.8405C6.29037 20.8405 6.39715 20.8875 6.50393 20.9658Z" fill="#262626"/>
<path d="M13.1279 20.104C13.2347 20.5114 13.3414 20.9188 13.4635 21.3105C13.5245 21.4829 13.5092 21.6083 13.433 21.7179C13.3567 21.8276 13.2499 21.906 13.1126 21.9373C12.9906 21.9843 12.8533 21.9687 12.716 21.9217C12.594 21.8746 12.4872 21.765 12.4415 21.6083C12.2889 21.1852 12.1669 20.7621 12.0754 20.3077C11.9686 19.8689 11.8771 19.4145 11.7856 18.9601C11.694 18.5057 11.6025 18.0513 11.511 17.6125C11.4195 17.1581 11.3127 16.735 11.1907 16.312C11.0686 15.9046 10.9466 15.5285 10.8398 15.1368C10.7178 14.745 10.5958 14.3533 10.4737 13.9615C10.2449 15.1681 10.0161 16.406 9.77205 17.6595C9.52799 18.9288 9.3602 20.1667 9.26868 21.4046C9.25342 21.5769 9.17715 21.7023 9.07038 21.7806C8.94835 21.8746 8.82632 21.906 8.68903 21.906C8.55175 21.906 8.44497 21.8746 8.3382 21.7806C8.23142 21.7023 8.18566 21.5769 8.20091 21.4046C8.26193 20.5897 8.35345 19.7593 8.49073 18.9444C8.62802 18.114 8.7653 17.2835 8.91784 16.453C9.08563 15.6225 9.23817 14.792 9.39071 13.9772C9.5585 13.1467 9.69578 12.3319 9.80256 11.5171C9.81781 11.3761 9.87883 11.2664 9.97035 11.1724C10.0619 11.094 10.1687 11.0313 10.2907 11.0157C10.4127 10.9843 10.5195 11 10.6263 11.0627C10.733 11.1254 10.8093 11.235 10.8551 11.3761C11.0534 12.2222 11.2974 13.0527 11.572 13.8675C11.8466 14.6667 12.0906 15.4972 12.3194 16.3433C12.4262 16.735 12.5177 17.1425 12.6093 17.5655C12.6855 17.9886 12.7771 18.4117 12.8533 18.8348C12.9448 19.2578 13.0364 19.6809 13.1279 20.104Z" fill="#262626"/>
<path d="M21.2466 14.1966C21.3076 14.7137 21.3686 15.2151 21.3991 15.6852C21.4144 15.9672 21.4449 16.2806 21.4754 16.641C21.4907 16.9858 21.5059 17.3775 21.5059 17.7692C21.4907 18.161 21.4754 18.5527 21.4296 18.9601C21.3839 19.3675 21.3076 19.7436 21.1856 20.0883C21.0788 20.433 20.911 20.7464 20.7127 21.0285C20.4992 21.3105 20.2398 21.5142 19.9195 21.6553C19.6602 21.765 19.3551 21.859 19.0195 21.906C18.6992 21.953 18.3636 21.9687 18.0128 21.9687C17.6772 21.953 17.3416 21.906 17.0213 21.812C16.701 21.7336 16.4111 21.6239 16.1671 21.4829C15.862 21.3105 15.6179 21.0598 15.4654 20.7464C15.3129 20.4174 15.2061 20.0726 15.1298 19.6966C15.0688 19.3362 15.0383 18.9601 15.0383 18.584C15.0383 18.208 15.0383 17.8632 15.0383 17.5812C15.0383 17.0798 15.0536 16.5783 15.0841 16.0926C15.1146 15.5912 15.1298 15.1054 15.1603 14.604C15.1756 14.2906 15.1908 13.9772 15.2214 13.6638C15.2671 13.3348 15.3129 13.037 15.3891 12.7236C15.4654 12.4416 15.5722 12.1909 15.7247 12.0028C15.8773 11.7991 16.0451 11.6425 16.2281 11.5171C16.4111 11.3917 16.5942 11.2821 16.7925 11.2194C16.9908 11.141 17.1738 11.094 17.3416 11.0627C17.5094 11.0313 17.662 11.0157 17.784 11C17.906 11 17.9823 11 18.0128 11C18.3179 11.0157 18.6229 11.047 18.9128 11.1097C19.2178 11.188 19.4924 11.2977 19.7365 11.4387C19.9805 11.5798 20.2093 11.7521 20.4076 11.9715C20.5907 12.1909 20.7585 12.4416 20.8805 12.7393C21.0483 13.2094 21.1703 13.6952 21.2466 14.1966ZM19.4161 20.7308C19.5992 20.6368 19.7365 20.5114 19.8433 20.3234C20.0416 19.9786 20.1788 19.6182 20.2704 19.2108C20.3619 18.8034 20.4229 18.396 20.4381 17.9729C20.4687 17.5655 20.4534 17.1425 20.4229 16.7194C20.4076 16.2963 20.3619 15.9046 20.3314 15.5128C20.3009 15.1994 20.2551 14.8704 20.2093 14.557C20.1788 14.2436 20.1178 13.9302 20.0416 13.6168C19.8127 12.6923 19.2636 12.1752 18.3941 12.0655C18.3789 12.0812 18.3179 12.0812 18.2111 12.0812C18.1196 12.0812 17.9823 12.0812 17.845 12.0969C17.6925 12.1125 17.5399 12.1439 17.3569 12.2066C17.1891 12.2692 17.0213 12.3789 16.8688 12.5199C16.7162 12.661 16.5789 12.849 16.4722 13.084C16.3501 13.3348 16.2739 13.6481 16.2434 14.0399C16.1823 14.6823 16.1366 15.3248 16.1061 15.9516C16.0908 16.594 16.0756 17.2365 16.0908 17.8789C16.1061 18.208 16.1213 18.5527 16.1366 18.8974C16.1518 19.2422 16.2128 19.5869 16.3044 19.916C16.3959 20.2607 16.5637 20.4957 16.7925 20.6211C17.0213 20.7464 17.3111 20.8248 17.662 20.8561C17.8298 20.8718 18.028 20.8875 18.2416 20.9031C18.4552 20.9188 18.6687 20.9031 18.867 20.8875C19.0653 20.8561 19.2484 20.8091 19.4161 20.7308Z" fill="#262626"/>
<path d="M27.9646 18.0043C27.9493 18.3333 27.9493 18.6467 27.9493 18.9444C27.9493 19.1325 27.9646 19.3675 27.9951 19.6496C28.0103 19.916 28.0103 20.198 27.9798 20.4644C27.9493 20.7308 27.8731 20.9972 27.7358 21.2322C27.6137 21.4672 27.4002 21.6396 27.1104 21.765C26.8663 21.859 26.6223 21.9217 26.3782 21.9373C26.1189 21.9687 25.8748 21.9843 25.6002 21.9687C25.3409 21.9687 25.0816 21.9687 24.8223 21.953C24.563 21.9373 24.3037 21.953 24.0291 21.9687C23.9528 21.9687 23.8613 21.9687 23.785 21.953C23.6935 21.9373 23.6325 21.9217 23.5562 21.8746C23.4952 21.8276 23.4495 21.7806 23.4037 21.7179C23.3732 21.6553 23.3579 21.5926 23.3579 21.5142C23.4495 20.6838 23.4952 19.8533 23.4647 19.0228C23.4495 18.208 23.4037 17.3775 23.3427 16.547C23.2969 15.7165 23.2359 14.9017 23.1596 14.0712C23.0986 13.2407 23.0529 12.4259 23.0529 11.5954C23.0071 11.4701 23.0376 11.3447 23.1139 11.2194C23.2054 11.094 23.3732 11.0157 23.602 11.0157C23.9681 11 24.3342 11.0157 24.7003 11.047C25.0664 11.0783 25.4019 11.141 25.707 11.235C26.0121 11.3291 26.2714 11.4858 26.5002 11.6738C26.7138 11.8618 26.8511 12.1125 26.9121 12.4416C26.9426 12.5826 26.9578 12.7236 26.9883 12.8803C27.0036 13.037 27.0188 13.1937 27.0188 13.3661C27.0188 13.5228 27.0036 13.6795 26.9578 13.8362C26.9273 13.9772 26.8511 14.1182 26.7595 14.2279C26.6223 14.3846 26.485 14.51 26.3324 14.604C26.5917 14.6353 26.8205 14.698 27.0188 14.792C27.2171 14.886 27.3697 15.0271 27.4765 15.2151C27.6443 15.4972 27.7663 15.7792 27.8273 16.0926C27.9036 16.406 27.9341 16.7194 27.9493 17.0484C27.9798 17.3618 27.9798 17.6909 27.9646 18.0043ZM24.7918 11.9402C24.6088 11.9088 24.4257 11.8932 24.2274 11.8932C24.2427 12.3319 24.2579 12.7707 24.2732 13.1937C24.3037 13.6325 24.3342 14.0556 24.3647 14.4943C24.5325 14.4316 24.685 14.3689 24.8528 14.3219C25.0054 14.2593 25.1579 14.1966 25.3104 14.1182C25.463 14.0242 25.585 13.9302 25.6613 13.8362C25.7375 13.7422 25.7833 13.6325 25.7985 13.5228C25.8291 13.4131 25.8291 13.3034 25.8138 13.1781C25.7985 13.0527 25.7985 12.9274 25.7833 12.8177C25.768 12.614 25.707 12.4729 25.6155 12.3476C25.524 12.2379 25.4019 12.1439 25.2647 12.0812C25.1274 12.0028 24.9748 11.9715 24.7918 11.9402ZM25.4782 21.1225C25.7985 21.1382 26.0731 21.1068 26.3172 21.0442C26.4545 21.0128 26.5612 20.9345 26.6375 20.8248C26.7138 20.7151 26.7748 20.5897 26.8053 20.433C26.8358 20.292 26.8511 20.1197 26.8511 19.9473C26.8511 19.7749 26.8511 19.6026 26.8358 19.4302C26.8206 19.2735 26.8053 19.1011 26.79 18.9601C26.7748 18.8191 26.7595 18.6937 26.7595 18.6154C26.7748 18.349 26.7748 18.0826 26.7748 17.8162C26.7748 17.5499 26.7595 17.2835 26.729 17.0171C26.729 16.9231 26.729 16.8134 26.729 16.688C26.729 16.5627 26.7138 16.4373 26.6985 16.312C26.6833 16.1866 26.668 16.0769 26.6222 15.9672C26.5917 15.8576 26.5307 15.7479 26.4697 15.6538C26.3934 15.5755 26.2714 15.5128 26.0884 15.4658C25.9206 15.4345 25.7375 15.4031 25.5392 15.3875C25.3409 15.3875 25.1426 15.3718 24.9443 15.3875C24.746 15.3875 24.5782 15.3875 24.441 15.3718C24.5172 16.3276 24.5782 17.2678 24.624 18.208C24.6698 19.1481 24.6545 20.104 24.5782 21.0598C24.8833 21.0755 25.1731 21.1068 25.4782 21.1225Z" fill="#262626"/>
<path d="M35.7407 14.1966C35.8017 14.7137 35.8627 15.2151 35.8932 15.6852C35.9085 15.9672 35.939 16.2806 35.9695 16.641C35.9847 16.9858 36 17.3775 36 17.7692C35.9847 18.161 35.9695 18.5527 35.9237 18.9601C35.878 19.3675 35.8017 19.7436 35.6797 20.0883C35.5729 20.433 35.4051 20.7464 35.2068 21.0285C34.9932 21.3105 34.7339 21.5142 34.4136 21.6553C34.1543 21.765 33.8492 21.859 33.5136 21.906C33.1933 21.953 32.8577 21.9687 32.5069 21.9687C32.1713 21.953 31.8357 21.906 31.5154 21.812C31.1951 21.7336 30.9052 21.6239 30.6612 21.4829C30.3561 21.3105 30.112 21.0598 29.9595 20.7464C29.807 20.4174 29.7002 20.0726 29.6239 19.6966C29.5629 19.3362 29.5324 18.9601 29.5324 18.584C29.5324 18.208 29.5324 17.8632 29.5324 17.5812C29.5324 17.0798 29.5476 16.5783 29.5781 16.0926C29.6087 15.5912 29.6239 15.1054 29.6544 14.604C29.6697 14.2906 29.6849 13.9772 29.7154 13.6638C29.7612 13.3348 29.807 13.037 29.8832 12.7236C29.9595 12.4416 30.0663 12.1909 30.2188 12.0028C30.3713 11.7991 30.5391 11.6425 30.7222 11.5171C30.9052 11.3917 31.0883 11.2821 31.2866 11.2194C31.4849 11.141 31.6679 11.094 31.8357 11.0627C32.0035 11.0313 32.156 11.0157 32.2781 11C32.4001 11 32.4764 11 32.5069 11C32.812 11.0157 33.117 11.047 33.4069 11.1097C33.7119 11.188 33.9865 11.2977 34.2306 11.4387C34.4746 11.5798 34.7034 11.7521 34.9017 11.9715C35.0848 12.1909 35.2526 12.4416 35.3746 12.7393C35.5424 13.2094 35.6644 13.6952 35.7407 14.1966ZM33.9102 20.7308C34.0933 20.6368 34.2306 20.5114 34.3373 20.3234C34.5356 19.9786 34.6729 19.6182 34.7644 19.2108C34.856 18.8034 34.917 18.396 34.9322 17.9729C34.9627 17.5655 34.9475 17.1425 34.917 16.7194C34.9017 16.2963 34.856 15.9046 34.8255 15.5128C34.7949 15.1994 34.7492 14.8704 34.7034 14.557C34.6729 14.2436 34.6119 13.9302 34.5356 13.6168C34.3068 12.6923 33.7577 12.1752 32.8882 12.0655C32.873 12.0812 32.812 12.0812 32.7052 12.0812C32.6137 12.0812 32.4764 12.0812 32.3391 12.0969C32.1866 12.1125 32.034 12.1439 31.851 12.2066C31.6832 12.2692 31.5154 12.3789 31.3628 12.5199C31.2103 12.661 31.073 12.849 30.9662 13.084C30.8442 13.3348 30.7679 13.6481 30.7374 14.0399C30.6764 14.6823 30.6307 15.3248 30.6002 15.9516C30.5849 16.594 30.5696 17.2365 30.5849 17.8789C30.6002 18.208 30.6154 18.5527 30.6307 18.8974C30.6459 19.2422 30.7069 19.5869 30.7985 19.916C30.89 20.2607 31.0578 20.4957 31.2866 20.6211C31.5154 20.7464 31.8052 20.8248 32.156 20.8561C32.3238 20.8718 32.5221 20.8875 32.7357 20.9031C32.9492 20.9188 33.1628 20.9031 33.3611 20.8875C33.5594 20.8561 33.7424 20.8091 33.9102 20.7308Z" fill="#262626"/>
</svg>
