<svg width="39" height="39" viewBox="0 0 39 39" fill="none" xmlns="http://www.w3.org/2000/svg">
<path d="M18.8823 4.58517C18.8198 4.58517 18.7586 4.56727 18.706 4.53357C18.6534 4.49987 18.6115 4.4518 18.5854 4.39504C18.5592 4.33828 18.5499 4.27522 18.5585 4.21333C18.5671 4.15143 18.5932 4.0933 18.6339 4.04581L19.3177 3.25149L18.3926 3.78562C18.3248 3.82492 18.2451 3.83854 18.1681 3.82399C18.091 3.80943 18.0218 3.76768 17.973 3.70634C17.9242 3.645 17.899 3.56816 17.9021 3.48982C17.9052 3.41149 17.9364 3.33688 17.9899 3.2796L18.8758 2.32772L18.3926 2.60623C18.3294 2.64192 18.256 2.65553 18.1842 2.6449C18.1123 2.63428 18.0461 2.60003 17.9958 2.54756C17.9456 2.49509 17.9143 2.42739 17.9068 2.35514C17.8994 2.2829 17.9162 2.21022 17.9546 2.14859L18.5005 1.30523C18.4238 1.32598 18.3423 1.3181 18.271 1.28309C18.1997 1.24807 18.1436 1.18831 18.1132 1.11496C18.0828 1.0416 18.0801 0.959685 18.1056 0.884497C18.1312 0.80931 18.1832 0.745998 18.2521 0.706387L19.3327 0.0794268C19.396 0.0437337 19.4693 0.0301243 19.5412 0.0407469C19.613 0.0513695 19.6793 0.0856191 19.7295 0.138089C19.7797 0.190559 19.8111 0.258261 19.8185 0.330507C19.826 0.402753 19.8092 0.475429 19.7708 0.537062L19.2379 1.3595L20.4291 0.672391C20.4969 0.633094 20.5765 0.619439 20.6535 0.633912C20.7305 0.648385 20.7997 0.690024 20.8486 0.751247C20.8974 0.812471 20.9227 0.889207 20.9197 0.967487C20.9168 1.04577 20.8858 1.12038 20.8325 1.17775L19.9492 2.12963L20.6416 1.73018C20.7083 1.69202 20.7864 1.67863 20.8621 1.69236C20.9378 1.70609 21.0062 1.74606 21.0553 1.80525C21.1044 1.86443 21.1311 1.93904 21.1306 2.01595C21.1302 2.09286 21.1026 2.16714 21.0528 2.22573L20.3722 3.02137L20.6494 2.86054C20.71 2.82557 20.7802 2.81094 20.8496 2.81881C20.9191 2.82668 20.9843 2.85662 21.0355 2.90425C21.0867 2.95188 21.1213 3.01467 21.1342 3.08341C21.147 3.15215 21.1375 3.2232 21.107 3.28614L20.9397 3.63263C20.9971 3.65522 21.047 3.6936 21.0835 3.74332C21.12 3.79305 21.1417 3.8521 21.1461 3.91364C21.1505 3.97518 21.1373 4.03671 21.1082 4.0911C21.0791 4.1455 21.0352 4.19054 20.9815 4.22102L20.4422 4.53221C20.3816 4.56719 20.3114 4.58181 20.2419 4.57394C20.1724 4.56608 20.1073 4.53613 20.0561 4.4885C20.0049 4.44088 19.9703 4.37808 19.9574 4.30935C19.9445 4.24061 19.954 4.16955 19.9845 4.10661L20.0558 3.95952L19.0451 4.54267C18.9955 4.5708 18.9393 4.58545 18.8823 4.58517ZM24.9754 32.5388C24.911 32.5389 24.8481 32.5201 24.7944 32.4846C24.7407 32.4491 24.6987 32.3985 24.6737 32.3392C24.6486 32.28 24.6416 32.2146 24.6535 32.1514C24.6654 32.0882 24.6958 32.0299 24.7407 31.9838L25.1127 31.6L24.8714 31.7393C24.8041 31.7777 24.7252 31.7909 24.649 31.7766C24.5728 31.7623 24.5042 31.7213 24.4554 31.661C24.4066 31.6008 24.3808 31.5251 24.3827 31.4476C24.3845 31.3701 24.4138 31.2957 24.4654 31.2378L25.0885 30.5461L24.5589 30.8521C24.5088 30.881 24.452 30.8961 24.3942 30.8959C24.3363 30.8957 24.2796 30.8801 24.2298 30.8508C24.1799 30.8215 24.1387 30.7795 24.1104 30.7291C24.0821 30.6786 24.0677 30.6216 24.0686 30.5638L24.0843 29.6381C24.0133 29.6356 23.9451 29.6101 23.8899 29.5653C23.8348 29.5206 23.7956 29.4592 23.7785 29.3903C23.7614 29.3214 23.7671 29.2487 23.7949 29.1834C23.8228 29.118 23.8711 29.0635 23.9326 29.0281L24.2595 28.8411C24.3093 28.8129 24.3657 28.798 24.4229 28.798C24.4802 28.798 24.5365 28.8129 24.5864 28.8411C24.6362 28.8705 24.6773 28.9125 24.7055 28.9629C24.7338 29.0133 24.7482 29.0703 24.7472 29.1281L24.7322 29.995L26.5529 28.9451C26.6203 28.9066 26.6991 28.8934 26.7753 28.9078C26.8515 28.9221 26.9201 28.963 26.9689 29.0233C27.0177 29.0836 27.0435 29.1592 27.0417 29.2368C27.0398 29.3143 27.0105 29.3886 26.9589 29.4465L26.3365 30.1375L26.8196 29.8584C26.888 29.8189 26.9683 29.8056 27.0458 29.8207C27.1233 29.8359 27.1926 29.8786 27.2411 29.9409C27.2895 30.0032 27.3138 30.0809 27.3094 30.1597C27.305 30.2385 27.2722 30.3131 27.2171 30.3696L26.8451 30.7527L27.0864 30.6141C27.1236 30.5905 27.1652 30.5746 27.2087 30.5674C27.2522 30.5603 27.2967 30.562 27.3395 30.5725C27.3823 30.583 27.4226 30.602 27.4579 30.6285C27.4931 30.6549 27.5227 30.6882 27.5447 30.7264C27.5668 30.7646 27.5809 30.8068 27.5862 30.8506C27.5916 30.8943 27.588 30.9387 27.5757 30.9811C27.5634 31.0234 27.5427 31.0628 27.5148 31.097C27.4868 31.1311 27.4523 31.1592 27.4133 31.1796L25.1362 32.495C25.0873 32.5234 25.0319 32.5385 24.9754 32.5388Z" fill="#6D3B2C"/>
<path d="M27.3919 38.3998C27.3328 38.3999 27.2747 38.3839 27.2238 38.3536C27.173 38.3232 27.1314 38.2796 27.1034 38.2275C27.0754 38.1753 27.0621 38.1166 27.0649 38.0575C27.0677 37.9983 27.0865 37.9411 27.1193 37.8918L27.9123 36.6961L26.8395 37.3159C26.7738 37.3537 26.697 37.3676 26.6222 37.3551C26.5475 37.3425 26.4794 37.3044 26.4296 37.2472C26.3798 37.19 26.3514 37.1172 26.3494 37.0413C26.3473 36.9654 26.3718 36.8912 26.4185 36.8314L27.2756 35.7311L26.4427 36.2116C26.3766 36.2498 26.2994 36.2637 26.2242 36.2508C26.149 36.238 26.0807 36.1993 26.031 36.1415C25.9814 36.0836 25.9535 36.0102 25.9523 35.9339C25.9511 35.8577 25.9765 35.7834 26.0243 35.7239L26.8349 34.7185L25.9066 35.2539C25.8399 35.2921 25.7618 35.3055 25.6862 35.2919C25.6105 35.2782 25.5421 35.2384 25.493 35.1793C25.4438 35.1202 25.417 35.0457 25.4173 34.9688C25.4176 34.8919 25.445 34.8177 25.4947 34.759L26.3446 33.7659L23.7635 35.2558C23.6939 35.2982 23.6109 35.313 23.5309 35.2973C23.4509 35.2817 23.3796 35.2367 23.3311 35.1712C23.2826 35.1057 23.2602 35.0244 23.2685 34.9433C23.2768 34.8622 23.3151 34.7872 23.3759 34.7328L25.1574 33.054L21.34 35.2585C21.2724 35.2973 21.1931 35.3107 21.1165 35.2962C21.0399 35.2817 20.971 35.2403 20.9222 35.1794C20.8734 35.1186 20.848 35.0423 20.8505 34.9644C20.8531 34.8864 20.8834 34.812 20.936 34.7544L21.8827 33.7267L19.2264 35.2604C19.1568 35.3009 19.0747 35.3142 18.9958 35.2978C18.917 35.2815 18.847 35.2366 18.7992 35.1718C18.7514 35.107 18.7292 35.0268 18.7369 34.9467C18.7445 34.8665 18.7815 34.792 18.8407 34.7374L19.5062 34.1222L17.5312 35.2624C17.4616 35.3055 17.3783 35.3208 17.2978 35.3054C17.2174 35.29 17.1456 35.245 17.0968 35.1793C17.048 35.1135 17.0256 35.0318 17.0342 34.9503C17.0427 34.8689 17.0815 34.7936 17.1429 34.7394L17.8731 34.0477L15.77 35.2617C15.7028 35.3006 15.624 35.3143 15.5476 35.3004C15.4713 35.2865 15.4024 35.2459 15.3532 35.1858C15.3041 35.1257 15.2779 35.0501 15.2794 34.9725C15.2809 34.8949 15.3099 34.8204 15.3614 34.7623L16.3289 33.6685L13.5648 35.2663C13.4901 35.3054 13.4032 35.3141 13.3222 35.2906C13.2413 35.2671 13.1725 35.2132 13.1303 35.1402C13.0881 35.0673 13.0758 34.9808 13.0958 34.8989C13.1159 34.817 13.1668 34.746 13.2379 34.7008L17.7378 32.1027C17.805 32.0639 17.8838 32.0501 17.9601 32.0641C18.0365 32.078 18.1054 32.1186 18.1546 32.1787C18.2037 32.2387 18.2299 32.3143 18.2284 32.3919C18.2269 32.4695 18.1978 32.5441 18.1464 32.6022L17.1795 33.6953L19.9469 32.0975C20.0165 32.0544 20.0998 32.0391 20.1803 32.0545C20.2607 32.0699 20.3324 32.1149 20.3813 32.1806C20.4301 32.2464 20.4525 32.3281 20.4439 32.4096C20.4354 32.491 20.3966 32.5663 20.3352 32.6205L19.6036 33.3135L21.712 32.0962C21.7817 32.0558 21.8638 32.0425 21.9426 32.0588C22.0215 32.0752 22.0915 32.1201 22.1393 32.1849C22.1871 32.2497 22.2093 32.3298 22.2016 32.41C22.1939 32.4901 22.157 32.5646 22.0978 32.6192L21.4335 33.2338L23.4105 32.0923C23.4781 32.0534 23.5574 32.0401 23.6341 32.0545C23.7107 32.069 23.7796 32.1104 23.8284 32.1713C23.8771 32.2321 23.9026 32.3084 23.9 32.3864C23.8975 32.4643 23.8672 32.5388 23.8145 32.5963L22.8679 33.6234L27.2533 31.092C27.323 31.0497 27.406 31.0349 27.486 31.0505C27.566 31.0662 27.6372 31.1112 27.6858 31.1767C27.7343 31.2422 27.7567 31.3234 27.7484 31.4045C27.7401 31.4856 27.7018 31.5607 27.641 31.615L25.8608 33.2906L27.6639 32.2505C27.7306 32.2123 27.8087 32.1989 27.8843 32.2125C27.9599 32.2261 28.0284 32.266 28.0775 32.3251C28.1267 32.3842 28.1535 32.4587 28.1532 32.5356C28.1528 32.6124 28.1254 32.6867 28.0758 32.7454L27.2259 33.7378L28.0248 33.2802C28.0908 33.242 28.1681 33.2282 28.2433 33.241C28.3184 33.2538 28.3868 33.2925 28.4364 33.3504C28.4861 33.4082 28.5139 33.4817 28.5152 33.5579C28.5164 33.6341 28.4909 33.7084 28.4432 33.7679L27.6325 34.7734L28.3968 34.3321C28.4625 34.2941 28.5394 34.2802 28.6142 34.2927C28.6891 34.3052 28.7573 34.3434 28.8071 34.4007C28.8569 34.4579 28.8852 34.5308 28.8871 34.6067C28.8891 34.6825 28.8646 34.7567 28.8178 34.8165L27.9614 35.9168L28.7877 35.4396C28.8515 35.4027 28.9259 35.3885 28.9988 35.3992C29.0717 35.4099 29.1388 35.445 29.1893 35.4986C29.2398 35.5523 29.2707 35.6214 29.2769 35.6948C29.2832 35.7683 29.2645 35.8416 29.2238 35.9031L28.4314 37.0988L29.1408 36.6896C29.2155 36.6505 29.3024 36.6418 29.3834 36.6653C29.4643 36.6887 29.5331 36.7426 29.5753 36.8156C29.6175 36.8886 29.6298 36.9751 29.6098 37.057C29.5897 37.1389 29.5388 37.2098 29.4676 37.2551L27.5554 38.3553C27.5059 38.3846 27.4494 38.3999 27.3919 38.3998Z" fill="#6D3B2C"/>
<path d="M10.3293 38.369C10.2647 38.369 10.2014 38.3498 10.1477 38.3139C10.0939 38.2779 10.052 38.2268 10.0273 38.167C10.0026 38.1073 9.9962 38.0415 10.0089 37.9781C10.0216 37.9146 10.0528 37.8564 10.0986 37.8107L10.9256 36.9824L9.92924 37.5577C9.8571 37.5994 9.77178 37.6119 9.69072 37.5927C9.60966 37.5736 9.53896 37.5242 9.49306 37.4547C9.44717 37.3852 9.42954 37.3008 9.44378 37.2187C9.45801 37.1367 9.50304 37.0631 9.56967 37.0131L11.6996 35.4186L10.1228 36.3293C10.0514 36.3698 9.96749 36.382 9.88759 36.3635C9.80768 36.345 9.73766 36.2971 9.69141 36.2294C9.64515 36.1617 9.62605 36.079 9.6379 35.9978C9.64974 35.9167 9.69166 35.8429 9.75534 35.7913L10.9275 34.8557L10.5699 35.0617C10.5003 35.1021 10.4182 35.1154 10.3394 35.099C10.2605 35.0827 10.1905 35.0378 10.1427 34.973C10.0949 34.9082 10.0727 34.828 10.0804 34.7479C10.088 34.6677 10.125 34.5932 10.1842 34.5386L12.1762 32.6839L11.2139 33.239C11.1425 33.2805 11.058 33.2934 10.9774 33.2752C10.8968 33.2569 10.8261 33.2088 10.7796 33.1405C10.733 33.0723 10.714 32.9889 10.7264 32.9072C10.7389 32.8256 10.7817 32.7516 10.8465 32.7003L11.4218 32.2426C11.3696 32.2409 11.3185 32.2277 11.272 32.2041C11.2254 32.1805 11.1846 32.147 11.1524 32.106C11.1051 32.0401 11.084 31.959 11.0932 31.8784C11.1024 31.7978 11.1412 31.7235 11.2021 31.6699L11.9448 31.0162C11.883 31.0365 11.8166 31.038 11.754 31.0204C11.6914 31.0028 11.6354 30.967 11.5933 30.9174C11.5512 30.8679 11.5248 30.8069 11.5175 30.7422C11.5103 30.6776 11.5225 30.6123 11.5525 30.5546L12.0586 29.5818C12.0347 29.5598 12.0144 29.5342 11.9984 29.506C11.9552 29.431 11.9435 29.342 11.9658 29.2585C11.9881 29.1749 12.0426 29.1036 12.1174 29.0601L12.5038 28.8365C12.565 28.801 12.6362 28.7863 12.7065 28.7947C12.7768 28.8031 12.8425 28.8342 12.8937 28.8831C12.9449 28.9321 12.9788 28.9963 12.9903 29.0662C13.0018 29.1361 12.9903 29.2078 12.9575 29.2706L12.6502 29.859L14.4513 28.8195C14.5216 28.7787 14.6046 28.7655 14.6841 28.7825C14.7636 28.7996 14.8338 28.8456 14.8812 28.9117C14.9286 28.9778 14.9496 29.0591 14.9403 29.1398C14.9309 29.2206 14.8918 29.295 14.8305 29.3484L14.1192 29.9728L14.6932 29.6413C14.7646 29.6006 14.8488 29.5883 14.9288 29.6068C15.0089 29.6253 15.0791 29.6733 15.1254 29.7413C15.1716 29.8092 15.1906 29.8921 15.1785 29.9734C15.1663 30.0547 15.124 30.1285 15.06 30.18L14.4951 30.6291C14.5472 30.6298 14.5986 30.6419 14.6456 30.6645C14.6925 30.6871 14.734 30.7196 14.7671 30.7599C14.8148 30.8244 14.8371 30.9043 14.8298 30.9842C14.8224 31.0642 14.7859 31.1386 14.7272 31.1933L12.7345 33.0487L14.3755 32.1138C14.4468 32.074 14.5304 32.0624 14.6099 32.0811C14.6893 32.0999 14.7589 32.1477 14.8049 32.2152C14.8509 32.2826 14.87 32.3649 14.8584 32.4457C14.8468 32.5265 14.8053 32.6001 14.7423 32.6519L13.5727 33.5848L16.1289 32.1093C16.201 32.0676 16.2863 32.0551 16.3674 32.0742C16.4485 32.0934 16.5192 32.1428 16.5651 32.2123C16.611 32.2818 16.6286 32.3662 16.6144 32.4482C16.6001 32.5303 16.5551 32.6039 16.4885 32.6538L13.0928 35.1931C13.1209 35.212 13.1456 35.2354 13.166 35.2624C13.2143 35.3253 13.2381 35.4036 13.2329 35.4827C13.2278 35.5619 13.194 35.6364 13.1379 35.6925L12.3018 36.5294C12.3787 36.4991 12.4642 36.4992 12.5411 36.5295C12.618 36.5598 12.6806 36.6181 12.7162 36.6927C12.7518 36.7673 12.7579 36.8526 12.7331 36.9314C12.7084 37.0103 12.6547 37.0769 12.5829 37.1177L10.4921 38.3246C10.4427 38.3534 10.3866 38.3687 10.3293 38.369Z" fill="#6D3B2C"/>
<path d="M11.0426 30.0674C10.9716 30.0676 10.9024 30.0446 10.8456 30.0019C10.7888 29.9592 10.7475 29.8992 10.7278 29.831C10.7082 29.7627 10.7113 29.6899 10.7367 29.6236C10.7621 29.5572 10.8085 29.501 10.8687 29.4633L22.8117 21.9856L8.88977 30.0217C8.81552 30.0635 8.72785 30.0747 8.64547 30.0528C8.56309 30.0309 8.49251 29.9778 8.44877 29.9046C8.40503 29.8314 8.3916 29.7441 8.41133 29.6612C8.43106 29.5783 8.48239 29.5063 8.55439 29.4607L19.4428 22.74L6.82715 30.0217C6.75298 30.0619 6.66614 30.0719 6.58479 30.0495C6.50343 30.0272 6.43386 29.9743 6.39063 29.9018C6.3474 29.8294 6.33385 29.743 6.35282 29.6608C6.37179 29.5786 6.42181 29.5069 6.49242 29.4607L17.9784 22.4001L4.78021 30.0217C4.706 30.0613 4.61934 30.0708 4.53829 30.0482C4.45723 30.0256 4.38802 29.9726 4.34506 29.9002C4.3021 29.8279 4.2887 29.7417 4.30765 29.6598C4.3266 29.5778 4.37644 29.5062 4.44679 29.4601L14.384 23.4101L2.92941 30.0217C2.85515 30.0635 2.76749 30.0747 2.68511 30.0528C2.60273 30.0309 2.53214 29.9778 2.4884 29.9046C2.44467 29.8314 2.43123 29.7441 2.45096 29.6612C2.47069 29.5783 2.52203 29.5063 2.59403 29.4607L19.7475 18.8599L1.09887 29.6294C1.0247 29.6696 0.937862 29.6796 0.856506 29.6573C0.77515 29.6349 0.705581 29.582 0.662349 29.5095C0.619116 29.4371 0.605569 29.3507 0.624541 29.2685C0.643512 29.1863 0.693533 29.1146 0.764141 29.0685L17.9385 18.5154L0.73799 28.4428C0.663585 28.4827 0.576644 28.4922 0.49537 28.4694C0.414096 28.4466 0.344789 28.3933 0.301958 28.3205C0.259128 28.2478 0.246094 28.1613 0.265586 28.0792C0.285078 27.9971 0.335585 27.9257 0.406532 27.8799L3.18699 26.2148L0.73799 27.6282C0.663635 27.6687 0.576494 27.6787 0.494903 27.6562C0.413311 27.6337 0.34363 27.5804 0.30052 27.5076C0.25741 27.4347 0.244233 27.348 0.263762 27.2656C0.28329 27.1833 0.334001 27.1117 0.405225 27.066L9.33956 21.6744L0.73799 26.6404C0.66326 26.6843 0.574129 26.6968 0.490206 26.675C0.406284 26.6533 0.334443 26.5991 0.290489 26.5243C0.246535 26.4496 0.234068 26.3605 0.25583 26.2766C0.277592 26.1926 0.331801 26.1208 0.406532 26.0768L4.07807 23.8763L0.73799 25.8029C0.663635 25.8433 0.576494 25.8534 0.494903 25.8309C0.413311 25.8084 0.34363 25.7551 0.30052 25.6822C0.25741 25.6094 0.244233 25.5227 0.263762 25.4403C0.28329 25.358 0.334001 25.2864 0.405225 25.2407L8.3648 20.4329L0.73799 24.836C0.663519 24.8784 0.575359 24.8899 0.492499 24.868C0.40964 24.8461 0.33871 24.7924 0.29499 24.7187C0.251269 24.645 0.238255 24.5571 0.258752 24.4738C0.279248 24.3906 0.331614 24.3188 0.404571 24.2738L13.0948 16.5012L0.73799 23.635C0.663433 23.6793 0.574331 23.6922 0.490286 23.6708C0.40624 23.6494 0.334136 23.5955 0.289835 23.521C0.245534 23.4464 0.232666 23.3573 0.25406 23.2732C0.275455 23.1892 0.32936 23.1171 0.403917 23.0728L11.3309 16.3763L0.73799 22.4923C0.663685 22.5333 0.576309 22.5439 0.494357 22.5217C0.412404 22.4995 0.342306 22.4463 0.298897 22.3733C0.255488 22.3003 0.242175 22.2133 0.261776 22.1307C0.281377 22.0481 0.332354 21.9764 0.403917 21.9307L9.59715 16.2926L0.73799 21.409C0.663773 21.4518 0.57572 21.4637 0.492782 21.4422C0.409844 21.4208 0.33865 21.3676 0.294522 21.2942C0.250393 21.2207 0.236858 21.1329 0.256828 21.0496C0.276798 20.9663 0.328678 20.8941 0.401302 20.8487L13.4629 12.6407L0.73799 19.9877C0.664649 20.0236 0.580501 20.0308 0.502116 20.0079C0.423731 19.9849 0.35679 19.9334 0.314475 19.8635C0.27216 19.7937 0.257537 19.7105 0.273486 19.6304C0.289435 19.5502 0.3348 19.479 0.400648 19.4307L11.7814 12.2478L0.73799 18.6239C0.664113 18.6652 0.577098 18.6763 0.495252 18.6547C0.413407 18.6331 0.343112 18.5807 0.299157 18.5084C0.255202 18.436 0.241013 18.3495 0.259576 18.2669C0.278139 18.1843 0.328007 18.1122 0.398687 18.0656L11.5781 10.8932L0.73799 17.1517C0.664017 17.195 0.575972 17.2076 0.492831 17.1866C0.409691 17.1656 0.338111 17.1129 0.29352 17.0396C0.248929 16.9664 0.234896 16.8786 0.254445 16.7951C0.273995 16.7116 0.325562 16.6392 0.398033 16.5933L9.71809 10.5852L0.73799 15.7696C0.664345 15.8115 0.577321 15.8231 0.495259 15.8021C0.413198 15.781 0.34251 15.729 0.298092 15.6568C0.253674 15.5847 0.238996 15.4981 0.257152 15.4154C0.275308 15.3326 0.324879 15.2602 0.395418 15.2132L8.91919 9.61768L0.73799 14.3424C0.664254 14.3866 0.576093 14.3999 0.492593 14.3796C0.409093 14.3592 0.336973 14.3068 0.291846 14.2336C0.24672 14.1605 0.232218 14.0725 0.25148 13.9887C0.270742 13.905 0.322218 13.8322 0.394764 13.7861L7.02262 9.41566L0.73799 13.0441C0.664746 13.0866 0.577864 13.099 0.495642 13.0787C0.41342 13.0584 0.342276 13.007 0.297195 12.9353C0.252114 12.8637 0.236614 12.7773 0.25396 12.6944C0.271306 12.6115 0.320144 12.5386 0.390188 12.491L6.7317 8.1454L0.73799 11.6058C0.664859 11.6476 0.578412 11.6595 0.496678 11.6392C0.414944 11.6188 0.344234 11.5676 0.299293 11.4964C0.254352 11.4251 0.238651 11.3393 0.255464 11.2567C0.272277 11.1742 0.320306 11.1013 0.389534 11.0533L4.65404 8.12906L0.73799 10.3898C0.665287 10.4312 0.579445 10.4432 0.498155 10.4233C0.416864 10.4034 0.346319 10.353 0.301058 10.2826C0.255796 10.2122 0.239267 10.1271 0.254877 10.0449C0.270486 9.96264 0.317045 9.88953 0.384958 9.84061L3.91528 7.32231L0.73799 9.15743C0.666693 9.19722 0.583086 9.20888 0.503619 9.19013C0.424153 9.17138 0.354581 9.12357 0.308593 9.0561C0.262605 8.98863 0.24353 8.9064 0.255122 8.82558C0.266713 8.74476 0.308132 8.6712 0.371229 8.61938L3.54198 6.088L0.73799 7.70738C0.666389 7.74948 0.581447 7.76274 0.50042 7.74447C0.419393 7.7262 0.348359 7.67778 0.301749 7.60903C0.255138 7.54028 0.236448 7.45636 0.249475 7.37433C0.262501 7.29229 0.306268 7.2183 0.371883 7.16737L1.6598 6.1475L0.73799 6.68228C0.666727 6.72331 0.582617 6.73597 0.50243 6.71774C0.422244 6.69952 0.351874 6.65174 0.30535 6.58393C0.258826 6.51612 0.239568 6.43327 0.251414 6.3519C0.263261 6.27053 0.305342 6.19661 0.369268 6.14488L0.639926 5.92391C0.576837 5.93692 0.51131 5.93101 0.451573 5.9069C0.391837 5.8828 0.340553 5.84158 0.304163 5.78843C0.267773 5.73527 0.247899 5.67255 0.247036 5.60814C0.246174 5.54373 0.264361 5.4805 0.299315 5.42639L0.850438 4.56996C0.773712 4.5919 0.691612 4.585 0.619616 4.55059C0.54762 4.51617 0.4907 4.45661 0.459586 4.38312C0.428472 4.30964 0.425313 4.22731 0.450705 4.15166C0.476096 4.07601 0.528284 4.01226 0.597431 3.97242L1.68072 3.34808C1.74398 3.31208 1.81745 3.29823 1.88948 3.30872C1.96151 3.31921 2.02798 3.35344 2.07835 3.40599C2.12872 3.45854 2.16011 3.52639 2.16754 3.5988C2.17498 3.67121 2.15803 3.74403 2.11939 3.80571L1.57938 4.6458L3.83029 3.34808C3.90145 3.30798 3.98504 3.29598 4.06461 3.31443C4.14417 3.33288 4.21395 3.38045 4.2602 3.44777C4.30644 3.51509 4.32581 3.59729 4.31449 3.67818C4.30317 3.75906 4.26197 3.83278 4.19902 3.88482L4.01204 4.03649L5.20451 3.34808C5.27602 3.30628 5.36074 3.29319 5.44153 3.31146C5.52233 3.32973 5.59318 3.37799 5.63975 3.44649C5.68633 3.51498 5.70517 3.59861 5.69246 3.68046C5.67974 3.76232 5.63643 3.83629 5.57127 3.88743L4.28139 4.90665L6.98405 3.34808C7.05538 3.30758 7.13932 3.29537 7.21922 3.31388C7.29912 3.33239 7.36915 3.38026 7.4154 3.448C7.46166 3.51573 7.48076 3.59837 7.46891 3.67953C7.45707 3.76069 7.41515 3.83443 7.35147 3.88613L4.18006 6.41554L9.49647 3.34808C9.56917 3.30661 9.65501 3.2946 9.7363 3.31454C9.81759 3.33448 9.88814 3.38484 9.9334 3.45525C9.97866 3.52566 9.99519 3.61074 9.97958 3.69297C9.96397 3.77521 9.91741 3.84832 9.8495 3.89724L6.31917 6.41489L11.6297 3.34808C11.7029 3.30471 11.7901 3.29158 11.8728 3.31148C11.9555 3.33138 12.0272 3.38275 12.0727 3.45466C12.1181 3.52658 12.1337 3.61338 12.1162 3.69663C12.0987 3.77988 12.0494 3.85302 11.9788 3.90051L7.713 6.82545L13.7361 3.34808C13.8092 3.30744 13.8951 3.29635 13.9761 3.31709C14.0571 3.33783 14.1271 3.38883 14.1716 3.4596C14.2162 3.53036 14.2319 3.61551 14.2156 3.69752C14.1993 3.77953 14.1522 3.85218 14.0839 3.90051L7.74242 8.24673L16.2276 3.34808C16.3011 3.30695 16.3877 3.2958 16.4693 3.31695C16.5508 3.3381 16.621 3.38992 16.6653 3.46159C16.7096 3.53327 16.7245 3.61927 16.7069 3.70165C16.6893 3.78404 16.6405 3.85645 16.5708 3.90378L9.94299 8.27223L18.4759 3.34808C18.5497 3.30392 18.6378 3.29058 18.7213 3.31095C18.8048 3.33131 18.8769 3.38374 18.9221 3.45689C18.9672 3.53004 18.9817 3.61802 18.9624 3.70178C18.9432 3.78554 18.8917 3.85834 18.8191 3.90443L10.296 9.49804L20.9524 3.34808C21.0262 3.30605 21.1135 3.29442 21.1957 3.31564C21.278 3.33687 21.3488 3.38928 21.393 3.46177C21.4373 3.53427 21.4516 3.62116 21.433 3.70403C21.4143 3.7869 21.3641 3.85925 21.293 3.90574L11.971 9.91122L23.3419 3.34808C23.4159 3.30473 23.5039 3.29218 23.587 3.31313C23.6702 3.33408 23.7418 3.38686 23.7864 3.4601C23.8309 3.53333 23.845 3.62115 23.8254 3.70463C23.8059 3.78811 23.7543 3.86057 23.6818 3.90639L12.5025 11.0782L25.8922 3.34808C25.9663 3.30658 26.0536 3.29552 26.1357 3.31725C26.2177 3.33898 26.2881 3.39178 26.3319 3.46449C26.3758 3.5372 26.3896 3.62411 26.3705 3.70683C26.3514 3.78955 26.3008 3.86158 26.2296 3.9077L14.8475 11.0867L28.2543 3.34808C28.3283 3.30658 28.4156 3.29552 28.4977 3.31725C28.5798 3.33898 28.6502 3.39178 28.694 3.46449C28.7378 3.5372 28.7517 3.62411 28.7325 3.70683C28.7134 3.78955 28.6629 3.86158 28.5916 3.9077L15.5261 12.1151L30.717 3.34808C30.7913 3.307 30.8787 3.29644 30.9606 3.31864C31.0426 3.34084 31.1127 3.39406 31.1561 3.46703C31.1995 3.54 31.2128 3.627 31.1932 3.70961C31.1736 3.79222 31.1226 3.86397 31.0511 3.90966L21.8598 9.54511L32.5933 3.34808C32.6678 3.30369 32.7568 3.2907 32.8409 3.31198C32.9249 3.33325 32.9971 3.38704 33.0415 3.46151C33.0858 3.53598 33.0988 3.62503 33.0776 3.70908C33.0563 3.79312 33.0025 3.86527 32.928 3.90966L22.003 10.6049L34.5722 3.34808C34.6465 3.307 34.7339 3.29644 34.8159 3.31864C34.8978 3.34084 34.9679 3.39406 35.0113 3.46703C35.0547 3.54 35.0681 3.627 35.0485 3.70961C35.0289 3.79222 34.9779 3.86397 34.9063 3.90966L22.2096 11.6895L36.6532 3.34808C36.7278 3.30395 36.8169 3.29128 36.9009 3.31286C36.9849 3.33444 37.0569 3.3885 37.101 3.46314C37.1451 3.53778 37.1578 3.6269 37.1362 3.71089C37.1146 3.79487 37.0606 3.86684 36.9859 3.91097L29.0355 8.70894L37.8195 3.64096C37.8942 3.59701 37.9833 3.58454 38.0673 3.60631C38.1088 3.61708 38.1479 3.63594 38.1821 3.66179C38.2164 3.68765 38.2452 3.72 38.267 3.75701C38.2888 3.79401 38.303 3.83494 38.309 3.87745C38.3149 3.91997 38.3124 3.96324 38.3016 4.00479C38.2909 4.04635 38.272 4.08537 38.2462 4.11964C38.2203 4.15391 38.188 4.18275 38.1509 4.20451L34.4853 6.40312L38.2314 4.24047C38.2683 4.21862 38.3092 4.20426 38.3517 4.19822C38.3942 4.19218 38.4375 4.19456 38.4791 4.20525C38.5207 4.21593 38.5598 4.2347 38.5941 4.26049C38.6284 4.28627 38.6573 4.31857 38.6792 4.35553C38.701 4.39249 38.7154 4.43339 38.7214 4.4759C38.7275 4.51841 38.7251 4.56169 38.7144 4.60327C38.7037 4.64486 38.685 4.68393 38.6592 4.71826C38.6334 4.75259 38.6011 4.78151 38.5641 4.80336L29.6272 10.1949L38.2902 5.193C38.3649 5.14905 38.4541 5.13658 38.538 5.15834C38.5795 5.16912 38.6186 5.18797 38.6528 5.21383C38.6871 5.23969 38.7159 5.27204 38.7377 5.30904C38.7595 5.34605 38.7737 5.38697 38.7797 5.42949C38.7856 5.472 38.7831 5.51527 38.7724 5.55683C38.7616 5.59838 38.7427 5.63741 38.7169 5.67167C38.691 5.70594 38.6587 5.73478 38.6217 5.75655L35.8268 7.43018L38.2902 6.00759C38.3645 5.96651 38.4519 5.95595 38.5338 5.97815C38.6158 6.00035 38.6859 6.05357 38.7293 6.12654C38.7727 6.19951 38.786 6.28651 38.7664 6.36912C38.7468 6.45174 38.6958 6.52348 38.6243 6.56917L21.4525 17.1209L38.2902 7.40142C38.3647 7.35703 38.4537 7.34404 38.5378 7.36531C38.6218 7.38659 38.694 7.44037 38.7384 7.51484C38.7827 7.58931 38.7957 7.67837 38.7745 7.76241C38.7532 7.84646 38.6994 7.91861 38.6249 7.963L21.4649 18.5671L38.2902 8.85343C38.3646 8.81299 38.4517 8.80297 38.5333 8.82548C38.6149 8.84798 38.6846 8.90126 38.7277 8.9741C38.7708 9.04694 38.784 9.13366 38.7644 9.21601C38.7449 9.29837 38.6942 9.36994 38.623 9.41566L28.6982 15.4597L38.2902 9.92168C38.3645 9.88059 38.4519 9.87004 38.5338 9.89224C38.6158 9.91444 38.6859 9.96766 38.7293 10.0406C38.7727 10.1136 38.786 10.2006 38.7664 10.2832C38.7468 10.3658 38.6958 10.4376 38.6243 10.4833L27.1324 17.5439L38.2902 11.1037C38.3644 11.0635 38.4512 11.0535 38.5326 11.0758C38.6139 11.0982 38.6835 11.1511 38.7267 11.2235C38.77 11.296 38.7835 11.3823 38.7645 11.4645C38.7456 11.5467 38.6955 11.6184 38.6249 11.6646L27.7411 18.3847L38.2902 12.2942C38.3644 12.2514 38.4525 12.2394 38.5354 12.2609C38.6183 12.2824 38.6895 12.3356 38.7337 12.409C38.7778 12.4824 38.7913 12.5702 38.7714 12.6536C38.7514 12.7369 38.6995 12.809 38.6269 12.8545L26.6859 20.3316L38.2902 13.6318C38.3644 13.5916 38.4512 13.5816 38.5326 13.6039C38.6139 13.6263 38.6835 13.6792 38.7267 13.7516C38.77 13.8241 38.7835 13.9104 38.7645 13.9926C38.7456 14.0749 38.6955 14.1465 38.6249 14.1927L32.4527 17.9924L38.2902 14.6222C38.3643 14.5807 38.4516 14.5697 38.5336 14.5914C38.6157 14.6131 38.6861 14.6659 38.7299 14.7387C38.7738 14.8114 38.7876 14.8983 38.7685 14.981C38.7494 15.0637 38.6988 15.1357 38.6275 15.1819L29.0872 21.2096L38.2902 15.8958C38.3645 15.8539 38.4521 15.8428 38.5345 15.8646C38.6169 15.8865 38.6875 15.9397 38.7312 16.0128C38.7749 16.086 38.7884 16.1733 38.7686 16.2562C38.7489 16.3392 38.6976 16.4111 38.6256 16.4567L34.5945 18.9547L38.2902 16.8208C38.3639 16.7797 38.4507 16.7686 38.5323 16.79C38.614 16.8113 38.6843 16.8635 38.7284 16.9354C38.7725 17.0074 38.787 17.0937 38.769 17.1761C38.7509 17.2586 38.7016 17.3309 38.6315 17.3779L29.5003 23.3186L38.2902 18.2447C38.3643 18.2039 38.4514 18.1934 38.5331 18.2155C38.6147 18.2375 38.6847 18.2904 38.7282 18.3629C38.7717 18.4355 38.7854 18.5221 38.7664 18.6046C38.7474 18.687 38.6971 18.7589 38.6262 18.805L36.9761 19.834L38.2902 19.0757C38.3637 19.0346 38.4503 19.0234 38.5318 19.0446C38.6134 19.0657 38.6836 19.1175 38.7279 19.1892C38.7721 19.2609 38.787 19.3469 38.7694 19.4293C38.7518 19.5116 38.7031 19.584 38.6334 19.6314L31.9788 24.0273L38.2902 20.3839C38.3637 20.3421 38.4505 20.3304 38.5324 20.3512C38.6143 20.372 38.685 20.4238 38.7295 20.4956C38.7741 20.5674 38.7891 20.6537 38.7715 20.7364C38.7538 20.819 38.7048 20.8916 38.6347 20.9389L33.4393 24.4071L38.2935 21.6044C38.3672 21.5615 38.4549 21.5492 38.5376 21.57C38.6204 21.5909 38.6917 21.6433 38.7364 21.716C38.781 21.7887 38.7955 21.8761 38.7766 21.9593C38.7577 22.0425 38.707 22.1151 38.6354 22.1614L36.6636 23.4481L38.2935 22.5066C38.3671 22.4648 38.4541 22.4531 38.5362 22.4742C38.6183 22.4952 38.6889 22.5473 38.7334 22.6194C38.7778 22.6915 38.7925 22.7781 38.7743 22.8609C38.7561 22.9436 38.7066 23.0161 38.636 23.063L37.728 23.6579L38.2935 23.331C38.366 23.2887 38.4519 23.276 38.5336 23.2953C38.6152 23.3147 38.6863 23.3647 38.7321 23.435C38.7779 23.5053 38.7949 23.5906 38.7796 23.6731C38.7642 23.7556 38.7178 23.829 38.6498 23.8782L35.2123 26.3835L38.2935 24.6046C38.3646 24.5632 38.4487 24.5502 38.529 24.5681C38.6093 24.586 38.6799 24.6336 38.7267 24.7012C38.7734 24.7689 38.793 24.8517 38.7814 24.9332C38.7698 25.0146 38.728 25.0887 38.6642 25.1406L35.834 27.4589L38.2902 26.0415C38.3597 26.0051 38.4399 25.9949 38.5163 26.0128C38.5927 26.0306 38.6601 26.0754 38.7062 26.1388C38.7524 26.2022 38.7742 26.2801 38.7676 26.3583C38.7611 26.4364 38.7267 26.5096 38.6707 26.5645L37.2219 27.8551L38.2902 27.2379C38.3551 27.2003 38.431 27.1862 38.5051 27.198C38.5792 27.2097 38.647 27.2466 38.6971 27.3024C38.7473 27.3582 38.7767 27.4295 38.7804 27.5045C38.7842 27.5794 38.7621 27.6533 38.7178 27.7139L38.0117 28.6821L38.2287 28.5572C38.2659 28.5336 38.3076 28.5177 38.3511 28.5105C38.3946 28.5034 38.4391 28.5051 38.4819 28.5156C38.5247 28.5261 38.565 28.5451 38.6002 28.5716C38.6355 28.598 38.6651 28.6313 38.6871 28.6695C38.7092 28.7077 38.7233 28.7499 38.7286 28.7937C38.7339 28.8374 38.7303 28.8818 38.718 28.9242C38.7058 28.9665 38.685 29.0059 38.6571 29.04C38.6292 29.0742 38.5947 29.1023 38.5556 29.1227L37.0016 30.0217C36.9368 30.059 36.8611 30.0729 36.7872 30.0611C36.7133 30.0493 36.6457 30.0125 36.5957 29.9569C36.5456 29.9013 36.5162 29.8302 36.5123 29.7555C36.5083 29.6807 36.5301 29.6069 36.5741 29.5464L37.2801 28.5775L34.7788 30.0217C34.7094 30.0581 34.6291 30.0683 34.5527 30.0504C34.4764 30.0325 34.409 29.9878 34.3628 29.9244C34.3167 29.861 34.2949 29.7831 34.3014 29.7049C34.3079 29.6268 34.3423 29.5535 34.3983 29.4986L35.8464 28.2081L32.6999 30.0217C32.6288 30.0621 32.5453 30.0744 32.4656 30.0563C32.3859 30.0381 32.3159 29.9908 32.2694 29.9236C32.2229 29.8564 32.2032 29.7743 32.2143 29.6933C32.2254 29.6123 32.2663 29.5385 32.3292 29.4862L35.1567 27.168L30.2123 30.0217C30.1398 30.0639 30.0538 30.0767 29.9722 30.0574C29.8905 30.038 29.8194 29.988 29.7736 29.9177C29.7279 29.8473 29.7109 29.7621 29.7262 29.6796C29.7415 29.5971 29.788 29.5236 29.856 29.4745L33.2928 26.9699L28.0065 30.0217C27.933 30.0616 27.847 30.0719 27.7662 30.0504C27.6854 30.0289 27.6159 29.9773 27.572 29.9061C27.5281 29.8349 27.5132 29.7496 27.5303 29.6677C27.5474 29.5858 27.5952 29.5136 27.6639 29.466L28.572 28.871L26.578 30.0217C26.5044 30.0635 26.4173 30.0752 26.3353 30.0541C26.2532 30.0331 26.1825 29.981 26.1381 29.9089C26.0937 29.8367 26.079 29.7502 26.0972 29.6674C26.1153 29.5847 26.1649 29.5122 26.2354 29.4653L28.2092 28.1813L25.0155 30.0217C24.9422 30.0617 24.8564 30.0721 24.7756 30.0509C24.6949 30.0296 24.6253 29.9782 24.5812 29.9073C24.5372 29.8364 24.5219 29.7512 24.5386 29.6694C24.5553 29.5876 24.6026 29.5153 24.671 29.4673L29.8704 25.9984L22.9012 30.0217C22.8278 30.0622 22.7417 30.0729 22.6605 30.0517C22.5794 30.0305 22.5096 29.9789 22.4654 29.9076C22.4212 29.8364 22.4061 29.7508 22.4233 29.6687C22.4404 29.5867 22.4884 29.5143 22.5574 29.4666L29.2127 25.07L20.6353 30.0217C20.5613 30.0617 20.4747 30.0717 20.3936 30.0496C20.3124 30.0274 20.2429 29.9748 20.1995 29.9027C20.1561 29.8307 20.1422 29.7446 20.1607 29.6625C20.1791 29.5804 20.2285 29.5086 20.2986 29.462L21.9533 28.4297L19.1957 30.0217C19.1221 30.0622 19.0358 30.0728 18.9546 30.0514C18.8734 30.0299 18.8035 29.978 18.7595 29.9065C18.7155 29.8349 18.7008 29.7492 18.7184 29.667C18.7359 29.5849 18.7844 29.5126 18.8538 29.4653L27.983 23.5252L16.7297 30.0217C16.6557 30.0612 16.5693 30.0707 16.4884 30.0483C16.4075 30.0259 16.3383 29.9732 16.2952 29.9012C16.2521 29.8292 16.2384 29.7434 16.2568 29.6615C16.2753 29.5796 16.3245 29.5079 16.3943 29.4614L20.4202 26.9666L15.128 30.0217C15.0541 30.0623 14.9673 30.0728 14.8858 30.0509C14.8043 30.0291 14.7344 29.9766 14.6908 29.9044C14.6471 29.8322 14.6331 29.7459 14.6515 29.6636C14.67 29.5812 14.7197 29.5093 14.79 29.4627L24.3349 23.4369L12.9268 30.0217C12.8525 30.0635 12.7648 30.0747 12.6825 30.0528C12.6001 30.0309 12.5295 29.9778 12.4858 29.9046C12.442 29.8314 12.4286 29.7441 12.4483 29.6612C12.4681 29.5783 12.5194 29.5063 12.5914 29.4607L18.7636 25.6591L11.2061 30.0217C11.1566 30.051 11.1002 30.0668 11.0426 30.0674Z" fill="#DFE2F2"/>
<path d="M36.2981 3.25664H21.3008C22.137 -1.14646 16.9703 -1.02421 17.7273 3.25664C12.5136 3.28541 7.29521 3.17427 2.0821 3.25664C0.595437 3.20173 -0.172736 4.53017 0.0750405 5.89262C0.298628 13.6776 -0.365597 21.6536 0.320202 29.3497C3.42558 31.1802 7.96924 29.6229 11.5604 30.1133C10.8236 32.1805 10.0489 34.2398 9.36699 36.324C9.24011 36.663 9.22437 37.0336 9.32205 37.3821C9.41972 37.7307 9.62574 38.0391 9.9103 38.2628C10.1949 38.4865 10.5432 38.6139 10.905 38.6265C11.2667 38.6392 11.6231 38.5364 11.9226 38.333C12.8378 37.795 13.1346 36.3587 13.4524 35.3368H25.5287C25.8373 36.3175 26.1302 37.8336 27.0003 38.3585C27.3174 38.5478 27.6845 38.6365 28.053 38.6129C28.4216 38.5893 28.7743 38.4544 29.0647 38.2262C29.355 37.9979 29.5693 37.687 29.6793 37.3345C29.7893 36.9819 29.7898 36.6043 29.6807 36.2515C29.0159 34.1888 28.2425 32.1543 27.5142 30.112H37.1245C39.2878 29.9374 38.955 27.8375 38.955 26.2946C38.9008 19.1948 39.0793 12.087 38.955 4.98846C38.9126 3.35994 37.539 3.25664 36.2981 3.25664ZM18.7949 1.11883C18.8552 0.968517 18.966 0.843914 19.1082 0.766472C19.2505 0.68903 19.4152 0.663593 19.5742 0.69454C20.6771 1.01292 20.2724 2.39433 20.345 3.25664H18.6857C18.7387 2.56692 18.5491 1.76933 18.7949 1.11883ZM28.3673 35.4676C29.0616 36.4378 28.8622 38.9051 27.354 37.425C26.9454 36.6085 26.6279 35.7495 26.4074 34.8635C22.2233 34.2385 17.4959 34.8498 13.1359 34.6425C12.1553 34.9479 12.3449 36.5587 11.7911 37.3347C11.3374 38.337 10.194 37.7793 10.1803 36.8921C10.7955 34.5974 11.7696 32.3812 12.507 30.1133H14.3546C14.3042 30.8403 13.1013 32.2981 13.84 32.6754H23.4739C26.2439 32.9408 25.4019 32.068 24.7331 30.1133H26.4753L28.3673 35.4676ZM23.6982 30.1133L24.3898 32.0746H14.5834L15.2751 30.1133H23.6982ZM37.2082 29.4072H4.74945C1.2322 29.8138 0.634009 29.1764 1.03542 25.6154C1.08968 18.7463 0.911859 11.8693 1.03542 5.00219C1.07007 3.6829 2.4129 3.96271 3.33928 3.96271C14.5187 4.00912 25.698 3.88491 36.8774 3.96271C39.1884 4.22421 37.5135 11.3424 37.9953 13.3298C37.5174 16.1279 39.0512 28.7319 37.2062 29.4072H37.2082Z" fill="#262626"/>
<path d="M11.21 13.2594C11.2797 12.44 11.3843 11.6206 11.5238 10.8361C11.5586 10.6617 11.6284 10.5397 11.7679 10.47C11.8899 10.4177 12.0294 10.4002 12.1688 10.4351C12.3083 10.47 12.4303 10.5571 12.5349 10.6792C12.6395 10.8186 12.6744 10.9581 12.6395 11.1499C12.4826 12.0564 12.3606 12.9979 12.2734 13.9567C12.1688 14.9156 12.0468 15.8744 11.9073 16.8333C11.7679 17.7921 11.5761 18.7335 11.3494 19.6575C11.1054 20.5815 10.7741 21.4706 10.3557 22.3075C10.3034 22.4121 10.2337 22.4818 10.1465 22.5167C10.0593 22.569 9.97218 22.5864 9.86758 22.5864C9.76297 22.569 9.67581 22.5515 9.5712 22.4992C9.48404 22.4644 9.4143 22.3946 9.362 22.3075C9.15279 21.9762 8.97846 21.6275 8.82155 21.244C8.64722 20.8779 8.50775 20.4944 8.36828 20.1108C8.24624 19.7273 8.12421 19.3263 8.0196 18.9253C7.915 18.5418 7.8104 18.1408 7.72323 17.7573C7.68836 18.1582 7.6535 18.5592 7.60119 18.9602C7.54889 19.3437 7.46172 19.7273 7.37456 20.1108C7.28739 20.4944 7.16535 20.8605 7.02588 21.2266C6.88641 21.5927 6.71208 21.9414 6.50287 22.2726C6.45057 22.3598 6.3634 22.4295 6.27623 22.4818C6.18906 22.5341 6.1019 22.5515 5.99729 22.5515C5.91012 22.569 5.80552 22.5341 5.71835 22.4818C5.63119 22.4469 5.56145 22.3598 5.50915 22.2726C5.21278 21.7147 4.95127 21.1394 4.7595 20.5292C4.5503 19.919 4.39339 19.3089 4.25392 18.6812C4.11445 18.0536 3.99242 17.426 3.90525 16.781C3.80065 16.1359 3.71348 15.4909 3.60887 14.8458C3.52171 14.2008 3.39967 13.5557 3.29507 12.9281C3.17303 12.3005 3.01613 11.6903 2.84179 11.0976C2.78949 10.9058 2.80692 10.7663 2.91153 10.6443C2.9987 10.5223 3.1033 10.4525 3.24277 10.4002C3.38224 10.3654 3.52171 10.3828 3.66118 10.4351C3.81808 10.4874 3.90525 10.6094 3.95755 10.7838C4.18419 11.5683 4.37596 12.3702 4.49799 13.2071C4.63746 14.0439 4.7595 14.8981 4.88154 15.7524C5.00357 16.6066 5.14304 17.4435 5.31738 18.2803C5.47428 19.1171 5.71835 19.9016 6.03216 20.6513C6.22393 20.1108 6.38083 19.5529 6.468 18.9602C6.55517 18.3674 6.62491 17.7747 6.65977 17.1645C6.69464 16.5543 6.74694 15.9616 6.78181 15.3688C6.81668 14.7761 6.88641 14.1833 6.99101 13.6255C7.00845 13.486 7.07818 13.3814 7.20022 13.3117C7.30482 13.2419 7.42686 13.2071 7.54889 13.2071C7.67093 13.2071 7.79296 13.2419 7.89757 13.3117C8.0196 13.3814 8.0719 13.486 8.10677 13.6255C8.21137 14.2008 8.31598 14.7761 8.42058 15.3514C8.52518 15.9442 8.62978 16.5195 8.75182 17.0948C8.89129 17.6701 9.03076 18.2454 9.2051 18.8033C9.362 19.3786 9.5712 19.919 9.81528 20.4595C10.1116 19.6924 10.3383 18.9253 10.4952 18.1234C10.6695 17.3214 10.809 16.5195 10.9136 15.7001C11.0182 14.8981 11.1228 14.0787 11.21 13.2594Z" fill="#262626"/>
<path d="M21.497 13.9393C21.5667 14.5146 21.6364 15.0725 21.6887 15.6129C21.7062 15.8919 21.741 16.2405 21.7585 16.6415C21.7933 17.0425 21.8108 17.4609 21.7933 17.8967C21.7933 18.35 21.7585 18.7858 21.7062 19.2391C21.6539 19.6924 21.5667 20.1108 21.4272 20.4944C21.3052 20.8953 21.1134 21.244 20.8868 21.5404C20.6427 21.8542 20.3463 22.0808 19.9802 22.2377C19.6664 22.3598 19.3352 22.4644 18.9516 22.5167C18.5855 22.569 18.202 22.5864 17.801 22.569C17.4175 22.5515 17.0339 22.4992 16.6678 22.4121C16.3017 22.3249 15.9705 22.2029 15.6915 22.0285C15.3428 21.8367 15.0813 21.5578 14.8896 21.2091C14.7152 20.8605 14.5932 20.4769 14.5235 20.0585C14.4363 19.6575 14.4014 19.2391 14.4014 18.8207C14.4014 18.4023 14.4014 18.0188 14.4014 17.6875C14.4014 17.1471 14.4189 16.5892 14.4537 16.0488C14.4712 15.4909 14.506 14.9504 14.5409 14.3751C14.5583 14.0439 14.5758 13.6952 14.6106 13.3465C14.6629 12.9979 14.7152 12.6492 14.8024 12.3005C14.8896 11.9867 15.0116 11.7078 15.1859 11.4986C15.3603 11.2719 15.5521 11.0976 15.7613 10.9581C15.9705 10.8012 16.1797 10.6966 16.4063 10.6269C16.6329 10.5397 16.8422 10.4874 17.0339 10.4525C17.2257 10.4177 17.4 10.4002 17.5395 10.3828C17.679 10.3828 17.7661 10.3828 17.801 10.3828C18.1497 10.3828 18.4984 10.4351 18.8296 10.5048C19.1608 10.592 19.4746 10.6966 19.771 10.8535C20.05 11.0104 20.3115 11.2196 20.5381 11.4463C20.7473 11.6903 20.9391 11.9867 21.0785 12.3179C21.2703 12.8235 21.4098 13.364 21.497 13.9393ZM19.4049 21.1917C19.6141 21.1045 19.771 20.9651 19.893 20.7559C20.1197 20.3723 20.294 19.9713 20.3986 19.5181C20.4858 19.0648 20.5555 18.6115 20.573 18.1408C20.5904 17.6701 20.5904 17.1994 20.5555 16.7287C20.5207 16.2754 20.4858 15.8221 20.4509 15.4037C20.3986 15.055 20.3638 14.6889 20.3115 14.3403C20.2766 13.9916 20.2069 13.6255 20.1197 13.2768C19.9802 12.7538 19.7536 12.3528 19.4572 12.0739C19.1608 11.8124 18.7424 11.638 18.2368 11.5683C18.2194 11.5857 18.1497 11.5857 18.0276 11.5857C17.9056 11.5857 17.7661 11.5857 17.6092 11.6032C17.4349 11.6206 17.2606 11.6555 17.0514 11.7252C16.8596 11.7949 16.6678 11.8995 16.4935 12.0564C16.3191 12.2308 16.1622 12.44 16.0402 12.7015C15.9007 12.9804 15.8136 13.3291 15.7787 13.7649C15.709 14.4797 15.6567 15.1945 15.6392 15.8919C15.6044 16.5892 15.6044 17.304 15.6218 18.0188C15.6218 18.4023 15.6392 18.7858 15.6567 19.1694C15.6741 19.5529 15.7438 19.9365 15.8484 20.3026C15.9705 20.6861 16.1448 20.9476 16.4063 21.0871C16.6678 21.2266 16.9816 21.3137 17.3826 21.3486C17.5918 21.3486 17.8184 21.366 18.0625 21.3835C18.3066 21.4009 18.5507 21.4009 18.7773 21.3835C19.0039 21.3486 19.2131 21.2963 19.4049 21.1917Z" fill="#262626"/>
<path d="M29.192 13.486C29.2269 13.8347 29.2095 14.1833 29.1223 14.5495C29.0526 14.8981 28.9131 15.2294 28.7387 15.5606C28.547 15.8744 28.3203 16.1708 28.0414 16.4497C27.7799 16.7112 27.4835 16.9553 27.1523 17.1296C27.222 17.5132 27.3266 17.9142 27.4661 18.2977C27.5881 18.6987 27.7276 19.0822 27.8845 19.4658C28.0414 19.8667 28.1983 20.2503 28.3726 20.6338C28.5295 20.9999 28.6864 21.3835 28.8085 21.7321C28.8782 21.9239 28.8608 22.0634 28.7736 22.1854C28.6864 22.3075 28.5644 22.3946 28.4075 22.4469C28.268 22.4818 28.1111 22.4818 27.9542 22.4295C27.7973 22.3772 27.6927 22.2552 27.623 22.0808C27.501 21.7321 27.3441 21.366 27.2046 20.9825C27.0477 20.6164 26.9082 20.2328 26.7513 19.8667C26.5944 19.4832 26.4549 19.1171 26.3329 18.7335C26.1934 18.35 26.0888 17.9839 26.0017 17.6178C25.8273 17.6527 25.653 17.6701 25.4612 17.6875C25.2869 17.705 25.0951 17.705 24.9208 17.6875C24.9208 18.0188 24.9208 18.3674 24.9033 18.7335C24.9033 19.0997 24.9033 19.4658 24.9033 19.8493C24.9033 20.2154 24.8859 20.5815 24.8859 20.9476C24.8685 21.3137 24.8685 21.6798 24.851 22.0111C24.8336 22.2029 24.7639 22.3423 24.6418 22.4295C24.5024 22.5167 24.3629 22.569 24.2234 22.569C24.0665 22.5864 23.927 22.5341 23.805 22.4469C23.6655 22.3772 23.6132 22.2377 23.6132 22.046C23.6481 21.4881 23.6655 20.8256 23.6655 20.0585C23.6655 19.3089 23.6655 18.5243 23.6655 17.7224C23.6481 16.9204 23.6481 16.1185 23.6307 15.334C23.6132 14.5495 23.5958 13.8347 23.5784 13.2071C23.5609 12.5794 23.5609 12.0739 23.5609 11.6903C23.5435 11.2894 23.5609 11.0801 23.5784 11.0453L23.5609 10.9581C23.5609 10.8535 23.5784 10.7663 23.6132 10.6966C23.5958 10.4874 23.7004 10.2782 23.9793 10.2085C26.054 9.73775 28.0937 10.7838 28.8434 12.7189C28.8434 12.7364 28.8608 12.7364 28.8782 12.7538C29.0526 12.9979 29.1572 13.2419 29.192 13.486ZM27.8671 14.4623C27.9542 14.2182 27.9891 13.9916 27.9717 13.7649C27.9542 13.4337 27.8496 13.1199 27.6404 12.841C27.4312 12.562 27.1697 12.3179 26.8559 12.1262C26.5595 11.9344 26.2283 11.7949 25.8622 11.6903C25.4961 11.6032 25.1474 11.5509 24.8162 11.5683C24.8336 12.3702 24.851 13.1896 24.8685 14.0613C24.8859 14.933 24.9033 15.7524 24.9208 16.5543H24.9905C25.0602 16.5718 25.1648 16.5718 25.2869 16.5543C25.3915 16.5543 25.5135 16.5195 25.653 16.502C25.775 16.4672 25.9145 16.4323 26.0365 16.3974C26.176 16.3451 26.298 16.3103 26.4201 16.258C26.6467 16.1185 26.8559 15.9616 27.0477 15.7698C27.2395 15.578 27.4138 15.3863 27.5533 15.1596C27.6927 14.933 27.7973 14.7064 27.8671 14.4623Z" fill="#262626"/>
<path d="M36.1272 17.9665C36.1447 18.4546 36.1447 18.9602 36.1621 19.4832C36.1621 19.675 36.1621 19.8667 36.1795 20.0585C36.197 20.2503 36.197 20.4421 36.197 20.6338C36.197 20.843 36.1795 21.0348 36.1621 21.2266C36.1272 21.4183 36.0924 21.5927 36.0226 21.7844C35.9529 21.9588 35.8134 22.1157 35.6042 22.2203C35.4125 22.3423 35.1684 22.4121 34.872 22.4818C34.5931 22.5341 34.2967 22.569 33.9829 22.569C33.6691 22.5864 33.3553 22.5864 33.0763 22.569C32.78 22.5515 32.5185 22.5341 32.2918 22.4992C32.0478 22.4818 31.8908 22.4644 31.7862 22.4469C31.7514 22.4469 31.7165 22.4295 31.6468 22.3946C31.5945 22.3772 31.5247 22.3423 31.4724 22.29C31.4027 22.2377 31.3504 22.1854 31.3155 22.0983C31.2632 22.0285 31.2458 21.9414 31.2458 21.8367C31.2458 20.9302 31.2284 20.0411 31.1935 19.1345C31.1586 18.228 31.1063 17.3389 31.0715 16.4323C31.0366 15.5257 31.0017 14.6192 30.9843 13.7126C30.9669 12.8235 30.9494 11.917 30.9669 11.0104C30.9669 10.9581 30.9669 10.9232 30.9669 10.9058C30.9843 10.8709 30.9843 10.8361 31.0017 10.8186C31.0192 10.6966 31.0889 10.5746 31.1761 10.4874C31.2632 10.4002 31.4027 10.3654 31.5596 10.3828C31.8734 10.4002 32.1872 10.4525 32.4836 10.4874C32.7974 10.5397 33.0938 10.6094 33.3901 10.714C33.6691 10.8186 33.948 10.9407 34.2095 11.0976C34.471 11.2545 34.7151 11.4637 34.9417 11.7078C35.1858 11.9867 35.3776 12.3354 35.5345 12.7189C35.674 13.1199 35.7786 13.5383 35.8483 13.9741C35.918 14.3926 35.9529 14.8284 35.9878 15.2642C36.0052 15.7001 36.0226 16.0836 36.0401 16.4497C36.0924 16.9553 36.1098 17.4609 36.1272 17.9665ZM32.9892 21.4532C33.1635 21.4706 33.3727 21.4881 33.5819 21.5229C33.7388 21.5404 33.8957 21.5578 34.0701 21.5752C34.2444 21.5752 34.4013 21.5578 34.5233 21.5229C34.6628 21.4881 34.7848 21.4009 34.872 21.2963C34.9592 21.1917 34.994 21.0174 34.9766 20.8082C34.9766 20.1457 34.9592 19.4832 34.9417 18.8207C34.9417 18.1582 34.9069 17.4958 34.872 16.8333C34.8546 16.4149 34.8197 15.9965 34.7848 15.578C34.7325 15.1771 34.6802 14.7587 34.6105 14.3403C34.5582 14.0613 34.5233 13.7649 34.471 13.4511C34.4187 13.1373 34.2967 12.8758 34.1398 12.6317C33.8957 12.3005 33.6168 12.0739 33.2681 11.9344C32.902 11.7949 32.5359 11.7078 32.1524 11.6555C32.1698 13.2594 32.2047 14.8633 32.2918 16.4672C32.3616 18.0711 32.4139 19.675 32.4313 21.2614C32.6231 21.3835 32.7974 21.4358 32.9892 21.4532Z" fill="#262626"/>
</svg>
