<svg width="31" height="31" viewBox="0 0 31 31" fill="none" xmlns="http://www.w3.org/2000/svg">
<path d="M15.5 30C23.5081 30 30 23.5081 30 15.5C30 7.49187 23.5081 1 15.5 1C7.49187 1 1 7.49187 1 15.5C1 23.5081 7.49187 30 15.5 30Z" stroke="#4ECB71" stroke-width="1.5" stroke-linecap="round" stroke-linejoin="round"/>
<path d="M9.88676 14.9171L15.6853 7.10163C16.1392 6.48973 16.9889 6.86963 16.9889 7.68453V13.7339C16.9889 14.2211 17.3224 14.617 17.7342 14.617H20.553C21.1939 14.617 21.5361 15.5131 21.1127 16.0829L15.3141 23.8984C14.8603 24.5103 14.0106 24.1304 14.0106 23.3155V17.2661C14.0106 16.7789 13.6771 16.3831 13.2653 16.3831H10.4465C9.80701 16.3831 9.46481 15.487 9.88821 14.9171" stroke="#4ECB71" stroke-width="1.5" stroke-linecap="round" stroke-linejoin="round"/>
</svg>
