<svg width="29" height="28" viewBox="0 0 29 28" fill="none" xmlns="http://www.w3.org/2000/svg">
<path d="M25.227 3.72143L20.4998 8.44949L15.8354 1.84497C15.7099 1.59067 15.5187 1.37716 15.2831 1.22804C15.0474 1.07892 14.7764 1 14.5 1C14.2236 1 13.9526 1.07892 13.7169 1.22804C13.4813 1.37716 13.2901 1.59067 13.1646 1.84497L8.50308 8.45099L3.77443 3.72143C3.605 3.43922 3.35226 3.22069 3.05346 3.09805C2.75467 2.9754 2.42562 2.95514 2.11483 3.04023C1.80403 3.12532 1.52793 3.31128 1.32722 3.57068C1.1265 3.83009 1.01179 4.14923 1 4.48105V19.2545C1.00039 21.3086 1.7907 23.2785 3.19717 24.731C4.60364 26.1834 6.51111 26.9996 8.50016 27H20.4998C22.4891 26.9996 24.3968 26.1832 25.8033 24.7304C27.2099 23.2776 28 21.3074 28 19.253V4.48105C27.9882 4.14923 27.8735 3.83009 27.6728 3.57068C27.4721 3.31128 27.196 3.12532 26.8852 3.04023C26.5744 2.95514 26.2453 2.9754 25.9465 3.09805C25.6477 3.22069 25.395 3.43922 25.2256 3.72143M8.66362 20.8024H20.3393" stroke="#CB4EA1" stroke-width="1.5" stroke-linecap="round" stroke-linejoin="round"/>
</svg>
