<svg width="17" height="25" viewBox="0 0 17 25" fill="none" xmlns="http://www.w3.org/2000/svg">
<path d="M4.23149 0C3.99444 0 3.7671 0.0921872 3.59948 0.256282C3.43186 0.420376 3.33769 0.642936 3.33769 0.875V23.25H0.893796C0.656747 23.25 0.429406 23.3422 0.261787 23.5063C0.0941678 23.6704 0 23.8929 0 24.125C0 24.3571 0.0941678 24.5796 0.261787 24.7437C0.429406 24.9078 0.656747 25 0.893796 25H7.27805C7.5151 25 7.74244 24.9078 7.91006 24.7437C8.07768 24.5796 8.17185 24.3571 8.17185 24.125C8.17185 23.8929 8.07768 23.6704 7.91006 23.5063C7.74244 23.3422 7.5151 23.25 7.27805 23.25H5.12528V11.75H16.1062C16.3433 11.75 16.5706 11.6578 16.7382 11.4937C16.9058 11.3296 17 11.1071 17 10.875V0.875C17 0.642936 16.9058 0.420376 16.7382 0.256282C16.5706 0.0921872 16.3433 0 16.1062 0H4.35917C4.33753 0.000160391 4.3159 0.000994145 4.29431 0.0025C4.2734 0.00103582 4.25245 0.000202091 4.23149 0ZM5.25297 1.75H15.2124V10H5.25297V1.75Z" fill="#CB4E4E"/>
</svg>
